<svg width="60" height="60" viewBox="0 0 60 60" fill="none" xmlns="http://www.w3.org/2000/svg">
<circle cx="30" cy="30" r="30" fill="#FCE1A6"/>
<path d="M38.2282 21.7782C37.1637 20.7101 35.9004 19.8607 34.5095 19.2782C33.0829 18.6788 31.5506 18.3717 30.0032 18.375H29.9501C26.8345 18.3875 23.9188 19.6063 21.7376 21.8094C19.5532 24.0125 18.3626 26.9375 18.3751 30.0532C18.3845 31.9375 18.8532 33.8094 19.7345 35.4625L19.8751 35.725V40.125H24.2751L24.5376 40.2657C26.1907 41.1469 28.0626 41.6157 29.947 41.625H30.0001C33.0938 41.625 36.0001 40.4313 38.1907 38.2625C40.3907 36.0813 41.6126 33.1657 41.6313 30.0532C41.6376 28.4719 41.3345 26.9407 40.7282 25.4969C40.1452 24.1062 39.296 22.8429 38.2282 21.7782ZM23.7501 31.5C23.3576 31.492 22.9838 31.3305 22.7091 31.05C22.4343 30.7696 22.2804 30.3926 22.2804 30C22.2804 29.6074 22.4343 29.2305 22.7091 28.95C22.9838 28.6696 23.3576 28.508 23.7501 28.5C24.1426 28.508 24.5164 28.6696 24.7911 28.95C25.0659 29.2305 25.2198 29.6074 25.2198 30C25.2198 30.3926 25.0659 30.7696 24.7911 31.05C24.5164 31.3305 24.1426 31.492 23.7501 31.5ZM30.0001 31.5C29.6076 31.492 29.2338 31.3305 28.9591 31.05C28.6843 30.7696 28.5304 30.3926 28.5304 30C28.5304 29.6074 28.6843 29.2305 28.9591 28.95C29.2338 28.6696 29.6076 28.508 30.0001 28.5C30.3926 28.508 30.7664 28.6696 31.0411 28.95C31.3159 29.2305 31.4698 29.6074 31.4698 30C31.4698 30.3926 31.3159 30.7696 31.0411 31.05C30.7664 31.3305 30.3926 31.492 30.0001 31.5ZM36.2501 31.5C35.8576 31.492 35.4838 31.3305 35.2091 31.05C34.9343 30.7696 34.7804 30.3926 34.7804 30C34.7804 29.6074 34.9343 29.2305 35.2091 28.95C35.4838 28.6696 35.8576 28.508 36.2501 28.5C36.6426 28.508 37.0164 28.6696 37.2911 28.95C37.5659 29.2305 37.7198 29.6074 37.7198 30C37.7198 30.3926 37.5659 30.7696 37.2911 31.05C37.0164 31.3305 36.6426 31.492 36.2501 31.5Z" fill="#FFFCF6"/>
<path d="M34.75 30C34.75 30.3978 34.908 30.7794 35.1893 31.0607C35.4706 31.342 35.8522 31.5 36.25 31.5C36.6478 31.5 37.0294 31.342 37.3107 31.0607C37.592 30.7794 37.75 30.3978 37.75 30C37.75 29.6022 37.592 29.2206 37.3107 28.9393C37.0294 28.658 36.6478 28.5 36.25 28.5C35.8522 28.5 35.4706 28.658 35.1893 28.9393C34.908 29.2206 34.75 29.6022 34.75 30ZM22.25 30C22.25 30.3978 22.408 30.7794 22.6893 31.0607C22.9706 31.342 23.3522 31.5 23.75 31.5C24.1478 31.5 24.5294 31.342 24.8107 31.0607C25.092 30.7794 25.25 30.3978 25.25 30C25.25 29.6022 25.092 29.2206 24.8107 28.9393C24.5294 28.658 24.1478 28.5 23.75 28.5C23.3522 28.5 22.9706 28.658 22.6893 28.9393C22.408 29.2206 22.25 29.6022 22.25 30Z" fill="#4A5364"/>
<path d="M42.9127 24.575C42.2064 22.8969 41.1939 21.3906 39.9033 20.0969C38.6217 18.8106 37.1003 17.7882 35.4252 17.0875C33.7064 16.3656 31.8814 16 30.0002 16H29.9377C28.0439 16.0094 26.2096 16.3844 24.4846 17.1219C22.8238 17.8298 21.3166 18.854 20.0471 20.1375C18.7689 21.4281 17.7658 22.9281 17.0721 24.6C16.3533 26.3313 15.9908 28.1719 16.0002 30.0656C16.0108 32.2358 16.5242 34.3741 17.5002 36.3125V41.0625C17.5002 41.4437 17.6516 41.8094 17.9212 42.079C18.1908 42.3485 18.5564 42.5 18.9377 42.5H23.6908C25.6292 43.476 27.7675 43.9894 29.9377 44H30.0033C31.8752 44 33.6908 43.6375 35.4002 42.9281C37.0668 42.2358 38.5826 41.2253 39.8627 39.9531C41.1533 38.675 42.1689 37.1812 42.8783 35.5156C43.6158 33.7906 43.9908 31.9563 44.0002 30.0625C44.0096 28.1594 43.6408 26.3125 42.9127 24.575ZM38.1908 38.2625C36.0002 40.4313 33.0939 41.625 30.0002 41.625H29.9471C28.0627 41.6156 26.1908 41.1469 24.5377 40.2656L24.2752 40.125H19.8752V35.725L19.7346 35.4625C18.8533 33.8094 18.3846 31.9375 18.3752 30.0531C18.3627 26.9375 19.5533 24.0125 21.7377 21.8094C23.9189 19.6062 26.8346 18.3875 29.9502 18.375H30.0033C31.5658 18.375 33.0814 18.6781 34.5096 19.2781C35.9033 19.8625 37.1533 20.7031 38.2283 21.7781C39.3002 22.85 40.1439 24.1031 40.7283 25.4969C41.3346 26.9406 41.6377 28.4719 41.6314 30.0531C41.6127 33.1656 40.3908 36.0813 38.1908 38.2625Z" fill="#4A5364"/>
<path d="M28.5 30C28.5 30.3978 28.658 30.7794 28.9393 31.0607C29.2206 31.342 29.6022 31.5 30 31.5C30.3978 31.5 30.7794 31.342 31.0607 31.0607C31.342 30.7794 31.5 30.3978 31.5 30C31.5 29.6022 31.342 29.2206 31.0607 28.9393C30.7794 28.658 30.3978 28.5 30 28.5C29.6022 28.5 29.2206 28.658 28.9393 28.9393C28.658 29.2206 28.5 29.6022 28.5 30Z" fill="#4A5364"/>
</svg>
