<svg width="100" height="100" viewBox="0 0 100 100" fill="none" xmlns="http://www.w3.org/2000/svg">
<g clip-path="url(#clip0_2482_13535)">
<path d="M114 82.952C113.763 83.324 113.417 83.397 112.994 83.401C111.343 83.417 109.693 83.471 108.042 83.505C107.416 83.518 106.789 83.512 106.163 83.519C102.307 83.559 98.45 83.594 94.594 83.641C89.688 83.701 84.783 83.776 79.877 83.836C76.704 83.875 73.531 83.901 70.358 83.929C64.557 83.981 58.756 84.031 52.955 84.082C49.343 84.113 45.73 84.143 42.118 84.175C36.431 84.225 30.744 84.278 25.057 84.326C22.901 84.344 20.745 84.37 18.589 84.357C17.354 84.349 16.12 84.267 14.885 84.225C14.546 84.213 14.252 84.104 13.999 83.88C13.999 83.603 13.999 83.327 13.999 83.05C14.327 82.727 14.749 82.691 15.174 82.67C15.921 82.634 16.669 82.606 17.417 82.574C18.116 82.544 18.814 82.492 19.513 82.486C24.916 82.436 30.32 82.395 35.723 82.351C36.014 82.349 36.305 82.351 36.637 82.351C36.47 81.659 36.46 81.009 36.613 80.36C36.765 79.717 37.041 79.135 37.496 78.625C37.364 78.529 37.233 78.457 37.132 78.355C36.831 78.051 36.54 77.736 36.248 77.422C36.193 77.363 36.164 77.277 36.104 77.226C35.304 76.548 35.067 75.582 34.767 74.646C34.742 74.567 34.698 74.477 34.635 74.431C33.025 73.274 32.421 71.449 33.062 69.598C33.53 68.245 34.436 67.356 35.862 67.042C35.938 67.025 36.037 66.965 36.064 66.9C36.615 65.558 37.608 64.593 38.746 63.756C40.043 62.801 41.484 62.157 43.059 61.829C45.867 61.244 48.509 61.681 50.977 63.15C51.037 63.186 51.102 63.214 51.179 63.252C51.221 63.031 51.242 62.829 51.299 62.638C51.712 61.253 52.685 60.41 53.995 59.923C54.907 59.584 55.842 59.531 56.803 59.758C57.29 59.873 57.803 59.878 58.302 59.947C59.284 60.083 60.265 60.23 61.247 60.371C61.332 60.383 61.418 60.392 61.504 60.403C61.514 60.384 61.524 60.366 61.534 60.347C61.405 60.244 61.276 60.14 61.146 60.037C58.819 58.204 57.268 55.861 56.594 52.974C55.687 49.087 56.537 45.534 58.842 42.336C61.235 39.016 64.534 37.056 68.527 36.309C73.002 35.472 77.125 36.376 80.785 39.119C83.25 40.967 84.839 43.426 85.569 46.424C85.688 46.913 85.836 47.215 86.426 47.326C87.611 47.548 88.456 48.321 89.043 49.356C90.236 51.456 89.663 54.256 87.759 55.74C86.594 56.647 85.289 56.775 83.899 56.451C83.844 56.438 83.79 56.42 83.74 56.405C83.139 57.357 82.42 58.201 81.622 58.981C80.822 59.762 79.935 60.434 79.002 61.024C79.006 61.066 79.001 61.088 79.009 61.097C80.012 62.246 80.616 63.61 81.131 65.023C82.04 67.516 82.63 70.09 83.082 72.698C83.465 74.906 83.705 77.13 83.669 79.374C83.656 80.169 83.552 80.962 83.49 81.756C83.484 81.834 83.479 81.912 83.472 82.014C83.592 82.019 83.688 82.027 83.783 82.027C86.477 82.018 89.17 82.005 91.864 81.998C96.25 81.985 100.636 81.972 105.023 81.966C107.545 81.963 110.068 81.973 112.59 81.977C112.72 81.977 112.852 81.986 112.98 81.966C113.419 81.898 113.764 82.03 114.001 82.414C114 82.594 114 82.773 114 82.952ZM72.672 78.518C73.637 78.452 74.605 78.414 75.566 78.313C77.208 78.14 78.807 77.775 80.308 77.061C81.078 76.694 81.762 76.221 82.136 75.414C82.187 75.304 82.22 75.165 82.204 75.046C81.896 72.78 81.46 70.539 80.853 68.332C80.365 66.557 79.806 64.806 78.994 63.151C78.768 62.69 78.443 62.273 78.131 61.861C77.944 61.614 77.681 61.494 77.368 61.703C77.289 61.756 77.187 61.775 77.095 61.807C74.077 62.835 70.975 62.958 67.837 62.651C67.183 62.587 66.536 62.446 65.884 62.355C64.72 62.192 63.553 62.052 62.391 61.879C61.435 61.736 60.482 61.567 59.531 61.392C59.305 61.35 59.262 61.427 59.228 61.627C58.971 63.109 58.707 64.59 58.43 66.068C58.387 66.3 58.446 66.378 58.666 66.432C60.585 66.902 62.45 67.547 64.329 68.153C65.175 68.426 66.064 68.571 66.939 68.751C67.32 68.829 67.714 68.836 68.099 68.899C68.324 68.935 68.454 69.096 68.456 69.329C68.459 69.563 68.332 69.714 68.11 69.77C67.986 69.801 67.854 69.812 67.725 69.814C66.667 69.83 65.638 69.62 64.615 69.389C64.373 69.334 64.293 69.387 64.221 69.612C63.556 71.675 63.294 73.799 63.255 75.956C63.243 76.634 63.25 76.629 63.889 76.874C66.715 77.958 69.642 78.484 72.672 78.518ZM52.202 78.925C52.225 78.952 52.265 79.003 52.307 79.05C53.039 79.862 53.396 80.831 53.492 81.906C53.521 82.227 53.514 82.23 53.849 82.228C56.754 82.21 59.658 82.191 62.563 82.171C62.646 82.17 62.729 82.157 62.844 82.147C62.419 81.447 62.173 80.725 62.007 79.976C61.586 78.076 61.521 76.157 61.707 74.224C61.871 72.513 62.231 70.85 62.927 69.27C62.956 69.204 62.978 69.136 63.006 69.061C60.059 68.146 57.127 67.235 54.205 66.327C56.566 71.015 55.623 75.142 52.202 78.925ZM82.436 77.16C82.388 77.164 82.369 77.159 82.358 77.167C82.325 77.19 82.293 77.216 82.263 77.243C81.487 77.947 80.596 78.461 79.619 78.824C77.762 79.514 75.83 79.803 73.86 79.872C72.238 79.928 70.624 79.83 69.021 79.575C67.075 79.265 65.184 78.78 63.451 77.798C63.418 77.779 63.379 77.77 63.347 77.758C63.328 77.783 63.312 77.794 63.311 77.807C63.307 77.855 63.305 77.905 63.309 77.953C63.396 78.986 63.563 80.003 63.916 80.982C64.048 81.348 64.231 81.705 64.033 82.13C64.142 82.137 64.212 82.146 64.282 82.146C68.293 82.122 72.304 82.098 76.314 82.073C78.177 82.061 80.04 82.046 81.903 82.042C82.122 82.042 82.235 81.972 82.275 81.76C82.316 81.545 82.405 81.333 82.413 81.118C82.45 80.03 82.472 78.942 82.489 77.854C82.494 77.623 82.455 77.391 82.436 77.16ZM75.956 38.352C76.022 38.426 76.05 38.463 76.083 38.493C77.271 39.569 78.16 40.867 78.844 42.302C79.987 44.7 80.449 47.234 80.317 49.885C80.23 51.639 79.905 53.339 79.245 54.968C78.208 57.527 76.618 59.615 74.121 60.92C74.087 60.938 74.059 60.965 74.028 60.987C74.359 60.965 74.682 60.925 74.99 60.833C75.876 60.567 76.804 60.379 77.629 59.982C79.389 59.137 80.798 57.835 81.951 56.262C82.077 56.09 82.162 55.88 82.226 55.676C82.254 55.585 82.219 55.427 82.152 55.362C81.224 54.453 80.812 53.323 80.822 52.058C80.839 50.003 81.948 48.246 83.899 47.463C84.051 47.402 84.1 47.326 84.061 47.171C83.959 46.769 83.893 46.356 83.76 45.965C82.48 42.189 79.872 39.738 76.166 38.393C76.116 38.376 76.061 38.373 75.956 38.352ZM42.26 78.591C40.842 76.24 40.541 73.701 40.649 71.091C40.758 68.468 41.405 65.996 42.951 63.767C42.849 63.784 42.809 63.787 42.772 63.798C40.872 64.352 39.298 65.397 38.05 66.932C37.984 67.013 37.941 67.112 37.892 67.205C37.835 67.314 37.854 67.391 37.967 67.468C39.356 68.411 39.905 69.758 39.657 71.374C39.413 72.961 38.558 74.142 36.97 74.665C36.723 74.746 36.663 74.859 36.706 75.081C36.722 75.161 36.732 75.244 36.763 75.317C36.948 75.759 37.138 76.199 37.327 76.64C37.502 77.05 37.813 77.306 38.212 77.5C39.308 78.033 40.477 78.3 41.664 78.513C41.843 78.545 42.025 78.561 42.26 78.591ZM52.116 82.215C52.116 82.14 52.124 82.091 52.115 82.045C51.97 81.31 51.68 80.633 51.273 80.007C51.208 79.906 51.113 79.824 51.028 79.737C50.92 79.626 50.804 79.616 50.652 79.668C50.23 79.814 49.806 79.964 49.372 80.067C47.137 80.598 44.883 80.533 42.629 80.23C41.222 80.041 39.848 79.709 38.537 79.144C38.478 79.119 38.344 79.139 38.32 79.182C37.874 79.966 37.651 80.805 37.786 81.709C37.847 82.12 38.139 82.334 38.551 82.331C42.985 82.299 47.419 82.266 51.854 82.233C51.939 82.232 52.025 82.222 52.116 82.215ZM64.072 45.473C64.077 44.954 63.998 44.46 63.754 44.004C63.485 43.501 63.066 43.174 62.493 43.178C62.148 43.181 61.798 43.31 61.463 43.421C61.008 43.572 60.755 43.975 60.443 44.304C59.355 45.453 58.702 46.806 58.545 48.384C58.485 48.985 58.566 49.573 58.867 50.109C59.221 50.739 59.856 51.025 60.561 50.883C61.018 50.791 61.421 50.58 61.771 50.278C63.238 49.012 63.94 47.377 64.072 45.473ZM88.203 51.674C88.178 51.444 88.17 51.215 88.125 50.993C87.688 48.795 85.319 47.856 83.548 49.175C82.307 50.099 81.799 51.842 82.284 53.312C82.808 54.899 84.637 55.798 86.2 54.92C87.481 54.201 88.103 53.108 88.203 51.674ZM56.983 65.961C57.319 64.363 57.649 62.793 57.987 61.185C57.689 61.154 57.394 61.113 57.098 61.096C56.5 61.062 55.896 60.981 55.304 61.031C54.399 61.108 53.591 61.477 52.944 62.135C52.042 63.052 52.2 64.252 53.33 64.857C53.76 65.087 54.247 65.218 54.72 65.356C55.458 65.573 56.207 65.756 56.983 65.961ZM38.213 70.687C38.2 70.501 38.201 70.312 38.172 70.129C38.045 69.349 37.688 68.715 36.907 68.447C36.123 68.178 35.45 68.449 34.89 69.018C34.187 69.733 33.932 70.603 34.056 71.589C34.157 72.392 34.581 72.971 35.331 73.264C36.087 73.56 36.752 73.326 37.324 72.791C37.929 72.224 38.178 71.502 38.213 70.687ZM67.613 40.407C67.614 39.394 66.694 38.706 65.725 38.996C64.979 39.219 64.308 40 64.246 40.768C64.218 41.123 64.236 41.503 64.538 41.758C64.746 41.934 64.987 42.086 65.237 42.192C65.439 42.277 65.681 42.326 65.898 42.308C66.852 42.226 67.612 41.367 67.613 40.407ZM53.663 70.211C53.531 69.203 53.253 68.267 52.6 67.485C52.464 67.323 52.27 67.197 52.08 67.095C51.799 66.944 51.523 67.083 51.429 67.387C51.352 67.638 51.465 67.817 51.622 68.002C51.813 68.228 52.036 68.457 52.134 68.725C52.308 69.201 52.397 69.709 52.524 70.202C52.582 70.428 52.608 70.674 52.719 70.872C52.787 70.994 52.981 71.089 53.132 71.111C53.322 71.139 53.473 70.997 53.531 70.813C53.592 70.614 53.622 70.404 53.663 70.211ZM50.95 65.78C50.962 65.38 50.661 65.07 50.252 65.061C49.939 65.054 49.704 65.284 49.691 65.609C49.673 66.082 49.954 66.425 50.364 66.432C50.73 66.439 50.938 66.208 50.95 65.78Z" fill="#4A5364"/>
<path d="M83.5329 52.0081C83.5139 51.6091 83.6219 51.2141 83.8379 50.8481C84.1269 50.3591 84.6209 50.1401 85.1699 50.2831C86.0129 50.5011 86.4199 51.0891 86.6109 51.9161C86.7919 52.7021 86.1859 53.8151 85.1729 53.9111C85.0549 53.9221 84.9239 53.9171 84.8149 53.8781C83.8249 53.5191 83.5399 53.1051 83.5329 52.0081ZM84.5229 52.1701C84.5529 52.3381 84.5699 52.5171 84.6229 52.6851C84.6429 52.7471 84.7569 52.8331 84.8109 52.8231C85.1059 52.7651 85.3799 52.6481 85.4819 52.3311C85.5769 52.0361 85.5339 51.7331 85.3339 51.5061C85.2319 51.3911 85.0189 51.3151 84.8649 51.3261C84.7679 51.3331 84.6559 51.5261 84.6059 51.6571C84.5469 51.8111 84.5489 51.9891 84.5229 52.1701Z" fill="#4A5364"/>
<path d="M37.4371 70.9349C37.4111 71.5439 37.2891 71.9559 36.9471 72.2769C36.5051 72.6909 35.9191 72.7189 35.4721 72.3149C34.9541 71.8459 34.7371 71.2499 34.8751 70.5549C34.9771 70.0369 35.4031 69.6269 35.8821 69.5429C36.3601 69.4589 36.9021 69.6989 37.1581 70.1699C37.3091 70.4459 37.3781 70.7679 37.4371 70.9349ZM36.4491 71.0989C36.4001 70.9739 36.3691 70.8349 36.2921 70.7299C36.2571 70.6809 36.1091 70.6579 36.0521 70.6919C35.8441 70.8139 35.7471 71.3239 35.8891 71.5099C35.9251 71.5569 36.0111 71.5849 36.0751 71.5859C36.2801 71.5879 36.4171 71.3909 36.4491 71.0989Z" fill="#4A5364"/>
<path d="M26.2118 33.6237C26.4343 33.504 26.5855 33.397 26.7555 33.334C27.7736 32.9582 28.7728 32.4859 29.8245 32.2445C31.464 31.8688 32.8642 32.6518 33.5821 34.2031C34.2308 35.6032 34.4428 37.1147 34.5771 38.6303C34.6905 39.9213 34.7388 41.2207 34.7241 42.5159C34.7178 43.0197 34.5667 43.5886 34.2917 44.0001C34.0649 44.338 33.5758 44.5249 33.1707 44.7075C32.8054 44.8733 32.3772 44.8985 32.0098 45.0602C30.6138 45.6752 29.1948 46.2357 27.6708 46.3869C26.9759 46.4561 26.2412 46.3596 25.5569 46.2021C24.8893 46.0489 24.5115 45.4737 24.3918 44.825C24.2155 43.872 24.0874 42.9043 24.0013 41.9365C23.7515 39.0984 23.5311 36.2561 23.3023 33.4159C23.2813 33.1619 23.3044 32.9016 23.2729 32.6476C23.0714 31.0794 23.7347 29.9354 25.0174 29.102C25.5317 28.7682 26.0439 28.4198 26.596 28.1658C27.3181 27.8341 28.015 28.0209 28.3362 28.5415C28.6448 29.0411 28.5083 29.7255 27.908 30.2251C27.3727 30.6722 26.7849 31.0585 26.1992 31.4384C25.9221 31.6168 25.8465 31.8079 25.9179 32.1165C26.025 32.5909 26.1047 33.0758 26.2118 33.6237ZM26.8878 38.6219C27.9185 38.1265 28.8295 37.6688 29.7574 37.249C30.9896 36.6885 31.0442 36.5836 30.6474 35.2884C30.532 34.9105 30.32 34.7698 29.9295 34.8244C28.8337 34.9777 27.8261 35.3765 26.8752 35.9223C26.7492 35.9958 26.5897 36.1784 26.6002 36.296C26.6694 37.0496 26.7807 37.8011 26.8878 38.6219ZM31.1114 39.6673C29.7616 40.2173 28.5944 40.6875 27.4335 41.1724C27.3622 41.2018 27.2782 41.3362 27.2866 41.4117C27.3685 42.1318 27.4671 42.8497 27.5742 43.6684C28.7519 43.2171 29.8308 42.8098 30.9035 42.3816C30.998 42.3438 31.0967 42.1758 31.1009 42.0646C31.1198 41.3194 31.1114 40.57 31.1114 39.6673Z" fill="#4A5364"/>
<path d="M15.8924 43.085C15.4558 43.318 15.1199 43.5132 14.7694 43.6811C14.0514 44.0296 13.4616 43.9456 13.1026 43.4607C12.7541 42.9884 12.8066 42.325 13.344 41.7876C13.873 41.2607 14.4671 40.7926 15.0612 40.3371C15.3278 40.1335 15.4285 39.9298 15.376 39.6024C15.2585 38.8823 15.164 38.1581 15.0507 37.3688C14.7022 37.4759 14.4209 37.5934 14.1291 37.6417C13.7471 37.7047 13.3482 37.7761 12.9724 37.7236C12.5022 37.6606 12.1915 37.3268 12.0572 36.8587C11.9103 36.3444 12.0488 35.8721 12.4456 35.5614C12.9515 35.1667 13.5057 34.8099 14.0871 34.5349C14.5595 34.3124 14.6896 34.0374 14.6308 33.542C14.5783 33.0906 14.6014 32.6204 14.6581 32.167C14.7484 31.4386 15.206 30.962 15.7959 30.8991C16.4466 30.8298 16.9358 31.1762 17.2024 31.9172C17.322 32.2509 17.4123 32.5952 17.5277 32.9689C17.8027 32.9206 18.0483 32.866 18.296 32.8345C19.0643 32.738 19.6731 33.057 19.9355 33.6868C20.2 34.3208 19.9775 35.0345 19.3519 35.4879C19.1315 35.6475 18.8922 35.7944 18.6403 35.8868C18.2666 36.0232 18.1995 36.2415 18.2981 36.6005C18.4199 37.0434 18.5081 37.499 18.5815 37.9524C18.6298 38.2547 18.7474 38.3449 19.0601 38.2925C20.0237 38.1287 20.601 38.3638 20.8466 38.9726C21.1048 39.6192 20.8088 40.2594 19.9985 40.8031C19.2428 41.3111 19.2575 41.309 19.4128 42.2033C19.6584 43.616 19.9187 45.0267 20.1014 46.4458C20.2567 47.6486 20.0048 48.7633 18.8628 49.4225C17.702 50.0921 16.5222 49.9326 15.4117 49.2608C14.7652 48.8704 14.3957 48.2805 14.5448 47.4954C14.6854 46.7439 15.227 46.3744 15.9386 46.259C16.2997 46.2002 16.3795 46.0469 16.3207 45.709C16.1632 44.8651 16.0394 44.0107 15.8924 43.085Z" fill="#4A5364"/>
<path d="M51.5405 16.2772C52.1535 15.977 52.672 15.6726 53.2241 15.4627C53.8265 15.2339 54.4521 15.0386 55.086 14.919C56.8557 14.5852 58.3398 15.3115 58.9444 17.0098C59.4104 18.3134 59.6854 19.7073 59.8722 21.0843C60.0549 22.432 60.036 23.807 60.0717 25.1715C60.0801 25.5221 60.0129 25.8915 59.8995 26.2253C59.6791 26.8698 59.2152 27.2581 58.533 27.3988C58.1047 27.4869 57.6702 27.5982 57.2713 27.7703C55.9026 28.3644 54.5151 28.9123 53.0267 29.0571C52.3319 29.1243 51.5972 29.0382 50.9128 28.8829C50.2222 28.7276 49.8422 28.1377 49.7184 27.4701C49.5442 26.5318 49.4224 25.5829 49.3384 24.632C49.0886 21.775 48.8661 18.918 48.6352 16.0588C48.6121 15.7692 48.6373 15.4774 48.6058 15.1898C48.4442 13.7686 49.0152 12.6938 50.1739 11.9171C50.7659 11.5204 51.3663 11.1152 52.0086 10.815C52.6804 10.5022 53.3437 10.7101 53.6586 11.1971C53.9714 11.682 53.837 12.3307 53.2975 12.8555C53.1275 13.0213 52.9407 13.1745 52.7454 13.311C52.3676 13.5755 51.9939 13.8484 51.593 14.073C51.2487 14.2661 51.1689 14.4991 51.2676 14.8707C51.3851 15.3115 51.4439 15.767 51.5405 16.2772ZM52.2269 21.3216C52.4704 21.2019 52.6174 21.1284 52.7643 21.0571C53.5599 20.6687 54.345 20.2635 55.1511 19.8983C56.3351 19.3609 56.3414 19.3735 56.0139 18.1014C56.0055 18.0678 55.9971 18.0363 55.9887 18.0027C55.9068 17.5955 55.6738 17.4422 55.254 17.501C54.1582 17.6563 53.1527 18.0594 52.1996 18.6031C52.0821 18.6703 51.9267 18.8298 51.9372 18.9327C52.0086 19.7031 52.1178 20.4714 52.2269 21.3216ZM56.4463 22.5223C56.291 22.4845 56.2511 22.4593 56.2259 22.4698C55.084 22.919 53.942 23.3683 52.8042 23.8322C52.7181 23.8679 52.6153 24.0148 52.6258 24.1009C52.7035 24.8188 52.8042 25.5368 52.9113 26.3429C54.0847 25.8957 55.149 25.4927 56.2091 25.0728C56.312 25.033 56.4317 24.8797 56.4359 24.7769C56.4547 24.0169 56.4463 23.2528 56.4463 22.5223Z" fill="#4A5364"/>
<path d="M44.0022 21.0236C44.2877 20.9754 44.504 20.9313 44.7202 20.904C45.3499 20.8263 45.9146 21.0992 46.1476 21.5862C46.389 22.0879 46.2673 22.6715 45.7845 23.1165C45.5473 23.3349 45.2828 23.5385 44.9973 23.6791C44.6362 23.8576 44.5858 24.0885 44.653 24.4621C44.9322 25.9904 45.1967 27.5207 45.4213 29.0552C45.4864 29.5023 45.4549 29.981 45.3709 30.426C45.1799 31.4378 44.5522 32.1012 43.5614 32.3824C42.5307 32.6763 41.5588 32.4874 40.675 31.9017C40.0599 31.4924 39.7199 30.9109 39.8773 30.151C40.0263 29.4268 40.5512 29.0573 41.2439 28.946C41.6301 28.8852 41.712 28.7235 41.6469 28.3625C41.4958 27.5291 41.374 26.6873 41.2271 25.7595C40.9689 25.8959 40.7989 25.9925 40.6225 26.0785C40.316 26.2276 40.018 26.3997 39.6968 26.5089C39.2391 26.6642 38.8088 26.5697 38.4876 26.1919C38.1497 25.7972 38.1224 25.3228 38.3806 24.903C38.6094 24.5335 38.9411 24.2228 39.2412 23.9017C39.3798 23.7526 39.5351 23.5994 39.7157 23.5154C40.6918 23.0557 40.8723 22.3063 40.5868 21.3364C40.4693 20.9355 40.4462 20.5072 40.3706 20.0412C39.9823 20.1609 39.6674 20.3036 39.3378 20.3498C38.9579 20.4044 38.538 20.4653 38.1853 20.3624C37.2512 20.0853 37.0287 18.8992 37.8012 18.2212C38.2693 17.8119 38.8298 17.4802 39.3987 17.2262C39.9067 16.9995 40.0159 16.7014 39.9592 16.1934C39.9088 15.742 39.934 15.2718 39.9949 14.8184C40.0914 14.0942 40.5595 13.626 41.1557 13.5736C41.7897 13.519 42.2641 13.8569 42.5265 14.5728C42.6504 14.9066 42.6588 15.3663 42.8918 15.551C43.0786 15.7001 43.5257 15.5069 43.8595 15.4943C44.4977 15.4712 45.0204 15.7987 45.2576 16.3424C45.499 16.8945 45.3814 17.5516 44.8902 17.9777C44.5984 18.2317 44.2206 18.3807 43.9078 18.6117C43.7692 18.7145 43.5887 18.9181 43.6076 19.0483C43.7021 19.6906 43.8574 20.3204 44.0022 21.0236Z" fill="#4A5364"/>
</g>
<rect x="1.5" y="1.5" width="97" height="97" rx="48.5" stroke="#4A5364" stroke-width="3"/>
<defs>
<clipPath id="clip0_2482_13535">
<rect width="100" height="100" rx="50" fill="white"/>
</clipPath>
</defs>
</svg>
