<svg width="60" height="27" viewBox="0 0 60 27" fill="none" xmlns="http://www.w3.org/2000/svg">
<path d="M17.0542 6.76015C17.3212 6.61656 17.5026 6.48809 17.7066 6.41252C18.9284 5.96161 20.1274 5.39482 21.3895 5.10513C23.3569 4.65422 25.0371 5.59383 25.8986 7.4554C26.677 9.13561 26.9314 10.9493 27.0926 12.7681C27.2286 14.3173 27.2866 15.8766 27.2689 17.4308C27.2614 18.0354 27.08 18.7181 26.75 19.2118C26.478 19.6174 25.891 19.8416 25.4048 20.0607C24.9665 20.2597 24.4526 20.2899 24.0118 20.4839C22.3366 21.222 20.6338 21.8946 18.8049 22.0759C17.9711 22.1591 17.0895 22.0432 16.2683 21.8543C15.4672 21.6704 15.0138 20.9802 14.8702 20.2018C14.6586 19.0581 14.5049 17.8968 14.4017 16.7356C14.1019 13.3298 13.8374 9.91903 13.5628 6.51076C13.5376 6.20596 13.5653 5.89359 13.5275 5.58878C13.2857 3.70705 14.0817 2.33417 15.6209 1.33411C16.238 0.933579 16.8527 0.515427 17.5152 0.210622C18.3817 -0.187387 19.2181 0.0368027 19.6035 0.661526C19.9738 1.26106 19.81 2.08227 19.0896 2.68181C18.4472 3.21836 17.7419 3.68186 17.0391 4.13781C16.7066 4.35193 16.6159 4.58117 16.7015 4.95147C16.83 5.52078 16.9257 6.10267 17.0542 6.76015ZM17.8653 12.758C19.1022 12.1635 20.1955 11.6143 21.3089 11.1105C22.7876 10.4379 22.8531 10.312 22.377 8.75775C22.2384 8.30432 21.984 8.13554 21.5154 8.20103C20.2005 8.38492 18.9914 8.86354 17.8502 9.51849C17.6991 9.60666 17.5076 9.82582 17.5202 9.96689C17.6034 10.8712 17.7369 11.773 17.8653 12.758ZM22.9337 14.0125C21.3139 14.6725 19.9133 15.2367 18.5203 15.8186C18.4346 15.8539 18.3339 16.0151 18.344 16.1058C18.4422 16.9698 18.5606 17.8314 18.6891 18.8138C20.1023 18.2722 21.397 17.7835 22.6843 17.2696C22.7976 17.2243 22.916 17.0227 22.9211 16.8892C22.9437 15.995 22.9337 15.0957 22.9337 14.0125Z" fill="#4A5364"/>
<path d="M49.7617 6.73249C50.4973 6.37227 51.1195 6.00702 51.782 5.75511C52.505 5.48054 53.2556 5.24626 54.0164 5.10267C56.14 4.70215 57.9209 5.57374 58.6464 7.61165C59.2056 9.17598 59.5356 10.8486 59.7598 12.5011C59.979 14.1183 59.9563 15.7683 59.9991 17.4057C60.0092 17.8264 59.9286 18.2697 59.7926 18.6703C59.5281 19.4436 58.9714 19.9096 58.1527 20.0784C57.6388 20.1842 57.1173 20.3177 56.6387 20.5243C54.9963 21.2372 53.3312 21.8946 51.5452 22.0685C50.7114 22.1491 49.8298 22.0458 49.0085 21.8594C48.1798 21.673 47.7238 20.9651 47.5752 20.1641C47.3661 19.038 47.22 17.8994 47.1193 16.7583C46.8195 13.3299 46.5525 9.90146 46.2754 6.47051C46.2477 6.12289 46.2779 5.77273 46.2401 5.42763C46.0461 3.72223 46.7313 2.43249 48.1218 1.50044C48.8322 1.02434 49.5526 0.538163 50.3235 0.177939C51.1296 -0.197399 51.9256 0.0519889 52.3034 0.636408C52.6788 1.21831 52.5176 1.99668 51.8702 2.62645C51.6661 2.82545 51.4419 3.00935 51.2077 3.17309C50.7542 3.49049 50.3058 3.81795 49.8247 4.08749C49.4116 4.31924 49.3159 4.59887 49.4342 5.04474C49.5753 5.57374 49.6459 6.12036 49.7617 6.73249ZM50.5855 12.7858C50.8777 12.6422 51.054 12.554 51.2303 12.4684C52.185 12.0023 53.1272 11.5162 54.0945 11.0778C55.5152 10.433 55.5228 10.4481 55.1298 8.92154C55.1197 8.88124 55.1097 8.84346 55.0996 8.80315C55.0014 8.31446 54.7217 8.13057 54.2179 8.2011C52.903 8.38751 51.6964 8.87117 50.5527 9.5236C50.4116 9.60421 50.2252 9.79566 50.2378 9.91909C50.3235 10.8436 50.4545 11.7656 50.5855 12.7858ZM55.6487 14.2267C55.4623 14.1813 55.4145 14.1511 55.3843 14.1637C54.0139 14.7028 52.6435 15.2418 51.2782 15.7986C51.1749 15.8414 51.0515 16.0177 51.0641 16.121C51.1573 16.9825 51.2782 17.844 51.4067 18.8113C52.8148 18.2748 54.092 17.7911 55.3641 17.2873C55.4875 17.2394 55.6311 17.0556 55.6362 16.9321C55.6588 16.0202 55.6487 15.1033 55.6487 14.2267Z" fill="#4A5364"/>
<path d="M4.67094 18.1135C4.14697 18.3931 3.74393 18.6273 3.32325 18.8289C2.46174 19.247 1.75388 19.1463 1.32313 18.5644C0.904965 17.9976 0.967939 17.2016 1.61282 16.5567C2.24762 15.9244 2.9605 15.3627 3.67339 14.816C3.99331 14.5717 4.11423 14.3273 4.05125 13.9344C3.91019 13.0703 3.79683 12.2013 3.6608 11.2541C3.24264 11.3826 2.90508 11.5236 2.55494 11.5816C2.09647 11.6571 1.61785 11.7428 1.16694 11.6798C0.602673 11.6042 0.229857 11.2037 0.0686383 10.642C-0.107695 10.0248 0.0585637 9.45801 0.534664 9.0852C1.14175 8.61161 1.80678 8.18337 2.50456 7.85338C3.07135 7.58636 3.22753 7.25637 3.15699 6.66187C3.09402 6.12028 3.12173 5.55601 3.18974 5.0119C3.29806 4.13779 3.84721 3.56596 4.55506 3.49039C5.33597 3.40726 5.92291 3.82291 6.24283 4.71213C6.38641 5.11266 6.49473 5.52579 6.63328 5.97418C6.96327 5.91624 7.258 5.85074 7.55525 5.81296C8.47722 5.69708 9.20774 6.07997 9.52262 6.83569C9.84002 7.59644 9.573 8.45292 8.82233 8.99704C8.55783 9.18848 8.27065 9.36481 7.96837 9.47564C7.51998 9.63938 7.43937 9.90137 7.55777 10.3321C7.70387 10.8636 7.80967 11.4103 7.89783 11.9544C7.95577 12.3171 8.09684 12.4255 8.47218 12.3625C9.62842 12.166 10.3212 12.4481 10.6159 13.1786C10.9257 13.9545 10.5705 14.7228 9.59819 15.3752C8.69133 15.9849 8.70897 15.9824 8.89538 17.0555C9.19011 18.7508 9.50247 20.4436 9.72163 22.1464C9.90804 23.5899 9.60576 24.9275 8.23539 25.7185C6.84236 26.522 5.42666 26.3306 4.09408 25.5245C3.31821 25.056 2.87486 24.3481 3.05371 23.406C3.22249 22.5042 3.8724 22.0608 4.72636 21.9223C5.15963 21.8517 5.25536 21.6678 5.18482 21.2623C4.99589 20.2496 4.84727 19.2244 4.67094 18.1135Z" fill="#4A5364"/>
<path d="M40.716 12.4281C41.0586 12.3702 41.318 12.3173 41.5775 12.2845C42.3332 12.1913 43.0108 12.5188 43.2905 13.1032C43.5801 13.7053 43.434 14.4056 42.8547 14.9396C42.57 15.2016 42.2526 15.4459 41.91 15.6147C41.4767 15.8288 41.4163 16.1059 41.4969 16.5543C41.8319 18.3882 42.1493 20.2246 42.4189 22.066C42.497 22.6026 42.4592 23.1769 42.3584 23.7109C42.1292 24.9251 41.376 25.7211 40.187 26.0587C38.9501 26.4114 37.7838 26.1847 36.7233 25.4818C35.9852 24.9906 35.5771 24.2928 35.7661 23.3809C35.9449 22.5119 36.5747 22.0685 37.406 21.935C37.8695 21.862 37.9677 21.668 37.8896 21.2347C37.7083 20.2347 37.5621 19.2245 37.3858 18.1111C37.076 18.2748 36.8719 18.3907 36.6603 18.494C36.2925 18.6728 35.9348 18.8794 35.5494 19.0104C35.0003 19.1968 34.4839 19.0835 34.0985 18.63C33.6929 18.1564 33.6601 17.5871 33.97 17.0833C34.2446 16.64 34.6426 16.2672 35.0028 15.8817C35.169 15.7029 35.3555 15.519 35.5721 15.4182C36.7435 14.8666 36.9601 13.9673 36.6175 12.8035C36.4764 12.3223 36.4487 11.8084 36.358 11.2492C35.892 11.3928 35.5142 11.5641 35.1187 11.6195C34.6627 11.685 34.1589 11.7581 33.7357 11.6346C32.6147 11.3021 32.3477 9.87885 33.2747 9.0652C33.8365 8.57398 34.5091 8.17597 35.1917 7.87117C35.8013 7.59911 35.9323 7.24141 35.8643 6.6318C35.8038 6.09021 35.8341 5.52594 35.9071 4.98183C36.023 4.11276 36.5847 3.55101 37.3002 3.48804C38.0609 3.42254 38.6302 3.8281 38.9451 4.68709C39.0937 5.08762 39.1038 5.6393 39.3834 5.86098C39.6076 6.03983 40.1442 5.80807 40.5447 5.79296C41.3105 5.76525 41.9377 6.15821 42.2224 6.81065C42.5121 7.47316 42.371 8.26163 41.7815 8.77299C41.4314 9.0778 40.978 9.25666 40.6026 9.53375C40.4364 9.65718 40.2197 9.90152 40.2424 10.0577C40.3558 10.8285 40.5422 11.5843 40.716 12.4281Z" fill="#4A5364"/>
</svg>
