<svg width="100" height="44" viewBox="0 0 100 44" fill="none" xmlns="http://www.w3.org/2000/svg">
<path d="M28.4236 11.2672C28.8686 11.0278 29.1709 10.8137 29.511 10.6878C31.5472 9.93625 33.5457 8.99161 35.6491 8.50879C38.9281 7.75728 41.7284 9.32329 43.1642 12.4259C44.4616 15.2263 44.8856 18.2491 45.1543 21.2804C45.381 23.8624 45.4776 26.4612 45.4482 29.0516C45.4356 30.0592 45.1333 31.197 44.5833 32.0199C44.1299 32.6958 43.1516 33.0695 42.3414 33.4348C41.6108 33.7664 40.7544 33.8168 40.0196 34.1401C37.2277 35.3702 34.3896 36.4912 31.3415 36.7935C29.9518 36.932 28.4824 36.7389 27.1137 36.424C25.7786 36.1175 25.0229 34.9672 24.7836 33.6699C24.4309 31.7638 24.1748 29.8283 24.0027 27.8929C23.5031 22.2166 23.0623 16.532 22.6046 10.8515C22.5626 10.3435 22.6088 9.82289 22.5458 9.31488C22.1428 6.17867 23.4695 3.89053 26.0347 2.22376C27.0633 1.55621 28.0878 0.859289 29.1919 0.351282C30.6362 -0.312068 32.0301 0.0615819 32.6724 1.10279C33.2896 2.10201 33.0167 3.4707 31.8159 4.46992C30.7453 5.36418 29.5698 6.13668 28.3984 6.89659C27.8442 7.25346 27.6931 7.63553 27.8358 8.2527C28.05 9.20154 28.2095 10.1714 28.4236 11.2672ZM29.7755 21.2636C31.8369 20.2727 33.659 19.3575 35.5147 18.5178C37.9792 17.3968 38.0884 17.1869 37.2949 14.5965C37.064 13.8408 36.6399 13.5595 35.859 13.6686C33.6674 13.9751 31.6522 14.7728 29.7503 15.8644C29.4984 16.0113 29.1793 16.3766 29.2003 16.6117C29.3389 18.119 29.5614 19.622 29.7755 21.2636ZM38.2227 23.3544C35.5231 24.4544 33.1888 25.3948 30.8671 26.3646C30.7244 26.4234 30.5564 26.6921 30.5732 26.8433C30.7369 28.2833 30.9343 29.7192 31.1484 31.3565C33.5037 30.4539 35.6617 29.6394 37.8071 28.7829C37.996 28.7073 38.1933 28.3715 38.2017 28.1489C38.2395 26.6585 38.2227 25.1597 38.2227 23.3544Z" fill="#4A5364"/>
<path d="M82.9362 11.2208C84.1622 10.6204 85.1992 10.0117 86.3033 9.59186C87.5083 9.13423 88.7594 8.74376 90.0273 8.50446C93.5666 7.83691 96.5349 9.28957 97.744 12.6861C98.6761 15.2933 99.2261 18.081 99.5997 20.8352C99.965 23.5306 99.9272 26.2805 99.9986 29.0095C100.015 29.7106 99.881 30.4495 99.6543 31.1171C99.2135 32.406 98.2856 33.1827 96.9211 33.464C96.0647 33.6404 95.1956 33.8629 94.3979 34.2071C91.6605 35.3953 88.8854 36.4911 85.9087 36.7807C84.519 36.9151 83.0496 36.743 81.6809 36.4323C80.2996 36.1216 79.5397 34.9418 79.292 33.6068C78.9435 31.7301 78.7 29.8324 78.5321 27.9305C78.0325 22.2165 77.5874 16.5024 77.1256 10.7842C77.0794 10.2048 77.1298 9.62122 77.0668 9.04604C76.7436 6.20372 77.8855 4.05414 80.2031 2.50073C81.387 1.70723 82.5877 0.896938 83.8725 0.296566C85.216 -0.328998 86.5426 0.0866481 87.1724 1.06068C87.798 2.03051 87.5293 3.32781 86.4503 4.37741C86.1102 4.70908 85.7366 5.01559 85.3461 5.28848C84.5904 5.81748 83.8431 6.36325 83.0412 6.81248C82.3526 7.19874 82.1931 7.66478 82.3904 8.4079C82.6255 9.28957 82.7431 10.2006 82.9362 11.2208ZM84.3091 21.3096C84.7961 21.0703 85.09 20.9234 85.3839 20.7806C86.9751 20.0039 88.5453 19.1936 90.1575 18.4631C92.5254 17.3883 92.538 17.4135 91.883 14.8692C91.8662 14.8021 91.8495 14.7391 91.8327 14.6719C91.6689 13.8574 91.2029 13.5509 90.3632 13.6685C88.1716 13.9792 86.1606 14.7853 84.2545 15.8727C84.0194 16.007 83.7087 16.3261 83.7297 16.5318C83.8725 18.0726 84.0908 19.6093 84.3091 21.3096ZM92.7479 23.7111C92.4372 23.6355 92.3575 23.5851 92.3071 23.6061C90.0231 24.5046 87.7392 25.4031 85.4637 26.3309C85.2915 26.4023 85.0858 26.6962 85.1068 26.8683C85.2621 28.3042 85.4637 29.74 85.6778 31.3522C88.0247 30.4579 90.1533 29.6519 92.2735 28.8122C92.4792 28.7324 92.7185 28.4259 92.7269 28.2202C92.7647 26.7004 92.7479 25.1721 92.7479 23.7111Z" fill="#4A5364"/>
<path d="M7.78489 30.1892C6.91162 30.6552 6.23989 31.0457 5.53875 31.3815C4.10289 32.0785 2.92314 31.9105 2.20521 30.9407C1.50827 29.9961 1.61323 28.6693 2.68803 27.5946C3.74603 26.5408 4.93417 25.6045 6.12232 24.6935C6.65552 24.2862 6.85705 23.879 6.75209 23.224C6.51697 21.784 6.32805 20.3355 6.10134 18.7569C5.4044 18.971 4.84181 19.2061 4.25823 19.3027C3.49412 19.4286 2.69641 19.5714 1.9449 19.4664C1.00445 19.3405 0.383096 18.6729 0.114397 17.7367C-0.179492 16.7081 0.0976062 15.7634 0.891106 15.1421C1.90292 14.3528 3.01131 13.639 4.17427 13.089C5.11891 12.644 5.37921 12.094 5.26165 11.1032C5.15669 10.2005 5.20288 9.26011 5.31624 8.35325C5.49677 6.8964 6.41201 5.94334 7.59177 5.81739C8.89328 5.67884 9.87151 6.3716 10.4047 7.85364C10.644 8.52118 10.8245 9.20973 11.0555 9.95705C11.6054 9.86048 12.0967 9.75132 12.5921 9.68834C14.1287 9.49521 15.3462 10.1334 15.871 11.3929C16.4 12.6608 15.955 14.0883 14.7039 14.9951C14.263 15.3142 13.7844 15.6081 13.2806 15.7928C12.5333 16.0657 12.399 16.5024 12.5963 17.2203C12.8398 18.1062 13.0161 19.0172 13.1631 19.9241C13.2596 20.5286 13.4947 20.7092 14.1203 20.6042C16.0474 20.2767 17.2019 20.747 17.6931 21.9645C18.2096 23.2576 17.6176 24.5381 15.997 25.6255C14.4856 26.6415 14.515 26.6373 14.8256 28.4259C15.3168 31.2514 15.8375 34.0727 16.2027 36.9108C16.5134 39.3165 16.0096 41.5459 13.7257 42.8642C11.4039 44.2035 9.04442 43.8844 6.82346 42.5409C5.53035 41.76 4.79143 40.5802 5.08952 39.01C5.37081 37.507 6.454 36.7681 7.87726 36.5372C8.59938 36.4196 8.75893 36.1132 8.64137 35.4372C8.32649 33.7494 8.07878 32.0407 7.78489 30.1892Z" fill="#4A5364"/>
<path d="M67.86 20.7136C68.4309 20.617 68.8634 20.5288 69.2958 20.4742C70.5553 20.3189 71.6847 20.8647 72.1507 21.8387C72.6336 22.8421 72.3901 24.0093 71.4244 24.8994C70.95 25.336 70.421 25.7432 69.85 26.0245C69.1279 26.3814 69.0271 26.8432 69.1615 27.5906C69.7199 30.647 70.2489 33.7076 70.6981 36.7767C70.8282 37.6709 70.7653 38.6282 70.5973 39.5182C70.2153 41.5419 68.96 42.8686 66.9783 43.4312C64.9169 44.0189 62.973 43.6411 61.2055 42.4697C59.9753 41.651 59.2952 40.4881 59.6101 38.9682C59.9082 37.5198 60.9578 36.7809 62.3433 36.5584C63.1158 36.4366 63.2795 36.1133 63.1494 35.3912C62.8471 33.7244 62.6036 32.0409 62.3097 30.1852C61.7933 30.4581 61.4532 30.6512 61.1005 30.8233C60.4876 31.1214 59.8914 31.4657 59.249 31.684C58.3338 31.9947 57.4731 31.8058 56.8307 31.05C56.1548 30.2607 56.1002 29.3119 56.6166 28.4722C57.0742 27.7333 57.7376 27.1119 58.338 26.4696C58.6151 26.1715 58.9257 25.865 59.2868 25.6971C61.2391 24.7776 61.6001 23.2788 61.0291 21.3391C60.794 20.5372 60.7479 19.6807 60.5967 18.7487C59.82 18.988 59.1902 19.2735 58.5311 19.3659C57.7712 19.475 56.9315 19.5968 56.2262 19.391C54.3579 18.8369 53.9128 16.4647 55.4579 15.1087C56.3941 14.29 57.5151 13.6266 58.6528 13.1186C59.6689 12.6652 59.8872 12.069 59.7738 11.053C59.6731 10.1503 59.7234 9.20991 59.8452 8.30305C60.0383 6.8546 60.9746 5.91836 62.1669 5.8134C63.4348 5.70424 64.3837 6.38016 64.9085 7.81182C65.1562 8.47937 65.173 9.39883 65.639 9.76829C66.0127 10.0664 66.9069 9.68012 67.5745 9.65493C68.8508 9.60874 69.8962 10.2637 70.3706 11.3511C70.8534 12.4553 70.6183 13.7694 69.6359 14.6217C69.0523 15.1297 68.2966 15.4278 67.671 15.8896C67.3939 16.0953 67.0329 16.5025 67.0707 16.7628C67.2596 18.0475 67.5703 19.3071 67.86 20.7136Z" fill="#4A5364"/>
</svg>
