<svg width="20" height="20" viewBox="0 0 20 20" fill="none" xmlns="http://www.w3.org/2000/svg">
<path d="M4.32352 15.3551C4.36816 15.3551 4.41281 15.3506 4.45745 15.3439L8.21191 14.6854C8.25656 14.6765 8.29897 14.6564 8.33022 14.6229L17.7923 5.16085C17.813 5.1402 17.8294 5.11568 17.8406 5.08867C17.8518 5.06167 17.8575 5.03272 17.8575 5.00349C17.8575 4.97425 17.8518 4.94531 17.8406 4.9183C17.8294 4.8913 17.813 4.86677 17.7923 4.84612L14.0825 1.13407C14.04 1.09166 13.9842 1.06934 13.924 1.06934C13.8637 1.06934 13.8079 1.09166 13.7655 1.13407L4.30343 10.5961C4.26995 10.6296 4.24986 10.6698 4.24093 10.7144L3.58245 14.4689C3.56074 14.5885 3.56849 14.7115 3.60505 14.8274C3.64162 14.9433 3.70587 15.0486 3.79227 15.1341C3.93959 15.2769 4.12486 15.3551 4.32352 15.3551V15.3551ZM5.82799 11.4622L13.924 3.36844L15.5601 5.0046L7.46415 13.0984L5.47977 13.4488L5.82799 11.4622V11.4622ZM18.2141 17.2301H1.78557C1.39049 17.2301 1.07129 17.5492 1.07129 17.9443V18.7479C1.07129 18.8461 1.15165 18.9265 1.24986 18.9265H18.7499C18.8481 18.9265 18.9284 18.8461 18.9284 18.7479V17.9443C18.9284 17.5492 18.6092 17.2301 18.2141 17.2301Z" fill="#5D5A88"/>
</svg>
