<svg width="20" height="20" viewBox="0 0 20 20" fill="none" xmlns="http://www.w3.org/2000/svg">
<g clip-path="url(#clip0_1275_11767)">
<path d="M17.9465 14.9118H16.3773C16.2702 14.9118 16.1697 14.9587 16.1028 15.0413C15.9465 15.231 15.7791 15.414 15.6028 15.5881C14.8815 16.3101 14.0272 16.8854 13.0871 17.2823C12.1132 17.6937 11.0663 17.9048 10.009 17.9029C8.93981 17.9029 7.9041 17.693 6.93088 17.2823C5.99077 16.8854 5.13648 16.3101 4.41526 15.5881C3.69275 14.8686 3.11663 14.0158 2.71883 13.077C2.30588 12.1038 2.09829 11.0703 2.09829 10.0011C2.09829 8.93188 2.30811 7.8984 2.71883 6.92519C3.11615 5.98546 3.68758 5.13947 4.41526 4.41403C5.14294 3.68858 5.98892 3.11715 6.93088 2.71983C7.9041 2.30912 8.93981 2.09929 10.009 2.09929C11.0782 2.09929 12.1139 2.30688 13.0871 2.71983C14.0291 3.11715 14.8751 3.68858 15.6028 4.41403C15.7791 4.59037 15.9443 4.7734 16.1028 4.9609C16.1697 5.04349 16.2724 5.09037 16.3773 5.09037H17.9465C18.0871 5.09037 18.1742 4.93412 18.0961 4.81581C16.384 2.1551 13.3885 0.393937 9.98445 0.402866C4.63624 0.416259 0.348292 4.75778 0.401864 10.0993C0.455435 15.356 4.73669 19.5993 10.009 19.5993C13.4041 19.5993 16.3862 17.8404 18.0961 15.1863C18.172 15.068 18.0871 14.9118 17.9465 14.9118ZM19.9309 9.86046L16.7635 7.36046C16.6452 7.26671 16.4733 7.35153 16.4733 7.50108V9.19751H9.46437C9.36615 9.19751 9.28579 9.27787 9.28579 9.37608V10.6261C9.28579 10.7243 9.36615 10.8047 9.46437 10.8047H16.4733V12.5011C16.4733 12.6506 16.6474 12.7355 16.7635 12.6417L19.9309 10.1417C19.9522 10.125 19.9695 10.1037 19.9814 10.0793C19.9932 10.0549 19.9994 10.0282 19.9994 10.0011C19.9994 9.97398 19.9932 9.94723 19.9814 9.92287C19.9695 9.8985 19.9522 9.87716 19.9309 9.86046V9.86046Z" fill="#767494"/>
</g>
<defs>
<clipPath id="clip0_1275_11767">
<rect width="20" height="20" fill="white"/>
</clipPath>
</defs>
</svg>
