<svg width="20" height="20" viewBox="0 0 20 20" fill="none" xmlns="http://www.w3.org/2000/svg">
<path d="M18.2141 1.07422H1.78557C1.39049 1.07422 1.07129 1.39342 1.07129 1.7885V18.2171C1.07129 18.6122 1.39049 18.9314 1.78557 18.9314H18.2141C18.6092 18.9314 18.9284 18.6122 18.9284 18.2171V1.7885C18.9284 1.39342 18.6092 1.07422 18.2141 1.07422ZM17.3213 17.3242H2.67843V2.68136H17.3213V17.3242ZM9.55343 7.50279H13.6606C13.7588 7.50279 13.8391 7.42243 13.8391 7.32422V6.25279C13.8391 6.15458 13.7588 6.07422 13.6606 6.07422H9.55343C9.45522 6.07422 9.37486 6.15458 9.37486 6.25279V7.32422C9.37486 7.42243 9.45522 7.50279 9.55343 7.50279ZM9.55343 10.7171H13.6606C13.7588 10.7171 13.8391 10.6367 13.8391 10.5385V9.46708C13.8391 9.36886 13.7588 9.28851 13.6606 9.28851H9.55343C9.45522 9.28851 9.37486 9.36886 9.37486 9.46708V10.5385C9.37486 10.6367 9.45522 10.7171 9.55343 10.7171ZM9.55343 13.9314H13.6606C13.7588 13.9314 13.8391 13.851 13.8391 13.7528V12.6814C13.8391 12.5831 13.7588 12.5028 13.6606 12.5028H9.55343C9.45522 12.5028 9.37486 12.5831 9.37486 12.6814V13.7528C9.37486 13.851 9.45522 13.9314 9.55343 13.9314ZM6.16057 6.78851C6.16057 7.02531 6.25464 7.25241 6.42209 7.41985C6.58953 7.58729 6.81663 7.68136 7.05343 7.68136C7.29023 7.68136 7.51733 7.58729 7.68478 7.41985C7.85222 7.25241 7.94629 7.02531 7.94629 6.78851C7.94629 6.5517 7.85222 6.3246 7.68478 6.15716C7.51733 5.98972 7.29023 5.89565 7.05343 5.89565C6.81663 5.89565 6.58953 5.98972 6.42209 6.15716C6.25464 6.3246 6.16057 6.5517 6.16057 6.78851ZM6.16057 10.0028C6.16057 10.2396 6.25464 10.4667 6.42209 10.6341C6.58953 10.8016 6.81663 10.8956 7.05343 10.8956C7.29023 10.8956 7.51733 10.8016 7.68478 10.6341C7.85222 10.4667 7.94629 10.2396 7.94629 10.0028C7.94629 9.76599 7.85222 9.53889 7.68478 9.37145C7.51733 9.204 7.29023 9.10993 7.05343 9.10993C6.81663 9.10993 6.58953 9.204 6.42209 9.37145C6.25464 9.53889 6.16057 9.76599 6.16057 10.0028ZM6.16057 13.2171C6.16057 13.4539 6.25464 13.681 6.42209 13.8484C6.58953 14.0159 6.81663 14.1099 7.05343 14.1099C7.29023 14.1099 7.51733 14.0159 7.68478 13.8484C7.85222 13.681 7.94629 13.4539 7.94629 13.2171C7.94629 12.9803 7.85222 12.7532 7.68478 12.5857C7.51733 12.4183 7.29023 12.3242 7.05343 12.3242C6.81663 12.3242 6.58953 12.4183 6.42209 12.5857C6.25464 12.7532 6.16057 12.9803 6.16057 13.2171Z" fill="#767494"/>
</svg>
