<svg width="24" height="24" viewBox="0 0 24 24" fill="none" xmlns="http://www.w3.org/2000/svg">
<path d="M19.7369 8.89626L14.7779 8.17556L12.5611 3.68142C12.5006 3.55837 12.4009 3.45876 12.2779 3.39822C11.9693 3.24587 11.5943 3.37283 11.44 3.68142L9.22321 8.17556L4.26423 8.89626C4.12751 8.91579 4.00251 8.98025 3.90681 9.0779C3.79111 9.19682 3.72735 9.35681 3.72955 9.52271C3.73174 9.68861 3.79972 9.84686 3.91852 9.96267L7.50642 13.4607L6.65876 18.4002C6.63888 18.5151 6.6516 18.6332 6.69546 18.7413C6.73933 18.8493 6.81259 18.9429 6.90694 19.0114C7.00129 19.08 7.11295 19.1207 7.22927 19.129C7.34558 19.1373 7.46189 19.1128 7.56501 19.0584L12.0006 16.7263L16.4361 19.0584C16.5572 19.1228 16.6978 19.1443 16.8326 19.1209C17.1724 19.0623 17.4009 18.74 17.3424 18.4002L16.4947 13.4607L20.0826 9.96267C20.1802 9.86697 20.2447 9.74197 20.2642 9.60525C20.317 9.26345 20.0787 8.94704 19.7369 8.89626Z" fill="#767494"/>
</svg>
