<svg width="20" height="20" viewBox="0 0 20 20" fill="none" xmlns="http://www.w3.org/2000/svg">
<path d="M17.7337 15.6133C17.3127 14.616 16.7016 13.71 15.9346 12.9459C15.17 12.1797 14.2642 11.5687 13.2672 11.1468C13.2583 11.1424 13.2494 11.1401 13.2404 11.1357C14.6311 10.1312 15.5351 8.49504 15.5351 6.64906C15.5351 3.59102 13.0574 1.11334 9.99936 1.11334C6.94132 1.11334 4.46364 3.59102 4.46364 6.64906C4.46364 8.49504 5.36766 10.1312 6.75829 11.1379C6.74936 11.1424 6.74043 11.1446 6.7315 11.1491C5.7315 11.5709 4.83418 12.1758 4.06409 12.9482C3.29782 13.7128 2.68687 14.6186 2.26498 15.6156C1.85052 16.5916 1.627 17.638 1.6065 18.6982C1.60591 18.722 1.61008 18.7457 1.61879 18.7679C1.6275 18.7901 1.64056 18.8103 1.6572 18.8273C1.67384 18.8444 1.69373 18.8579 1.71569 18.8672C1.73765 18.8764 1.76124 18.8812 1.78507 18.8812H3.12436C3.22257 18.8812 3.3007 18.8031 3.30293 18.7071C3.34757 16.9839 4.03954 15.37 5.26275 14.1468C6.52838 12.8812 8.20918 12.1848 9.99936 12.1848C11.7895 12.1848 13.4703 12.8812 14.736 14.1468C15.9592 15.37 16.6511 16.9839 16.6958 18.7071C16.698 18.8053 16.7761 18.8812 16.8744 18.8812H18.2136C18.2375 18.8812 18.2611 18.8764 18.283 18.8672C18.305 18.8579 18.3249 18.8444 18.3415 18.8273C18.3582 18.8103 18.3712 18.7901 18.3799 18.7679C18.3886 18.7457 18.3928 18.722 18.3922 18.6982C18.3699 17.6312 18.1489 16.5933 17.7337 15.6133ZM9.99936 10.4883C8.97481 10.4883 8.01052 10.0888 7.28507 9.36334C6.55963 8.6379 6.16007 7.67361 6.16007 6.64906C6.16007 5.6245 6.55963 4.66022 7.28507 3.93477C8.01052 3.20932 8.97481 2.80977 9.99936 2.80977C11.0239 2.80977 11.9882 3.20932 12.7136 3.93477C13.4391 4.66022 13.8386 5.6245 13.8386 6.64906C13.8386 7.67361 13.4391 8.6379 12.7136 9.36334C11.9882 10.0888 11.0239 10.4883 9.99936 10.4883Z" fill="#5D5A88"/>
</svg>
