<svg width="114" height="108" viewBox="0 0 114 108" fill="none" xmlns="http://www.w3.org/2000/svg">
<path fill-rule="evenodd" clip-rule="evenodd" d="M12.7866 63.5849C12.7112 63.5536 12.6426 63.5277 12.5797 63.5041C12.4526 63.4563 12.349 63.4173 12.2606 63.3593C10.7876 62.3717 10.3048 60.9303 11.1225 59.3463C11.6464 58.3264 12.3233 57.3121 13.1534 56.5364C16.8006 53.1344 20.9134 50.5452 25.9511 49.731C26.0131 49.721 26.0719 49.6991 26.168 49.6631C26.2302 49.6399 26.3079 49.6109 26.4122 49.5755C26.2661 49.4681 26.1318 49.365 26.0042 49.267L26.0039 49.2668C25.7401 49.0641 25.5048 48.8834 25.253 48.733C24.0765 48.0236 22.8975 47.3179 21.7182 46.612L21.7165 46.611C20.174 45.6876 18.6312 44.7641 17.0936 43.8322C16.4461 43.4405 15.8016 43.0247 15.2181 42.5483C14.2657 41.7737 14.1005 40.8348 14.6265 39.7233C16.1648 36.4764 18.6065 34.0559 21.654 32.25C28.0753 28.4436 34.9916 27.0726 42.3589 28.3671C43.5475 28.5768 44.3465 28.3599 45.2901 27.6807C50.4792 23.9586 55.9699 20.7652 62.0241 18.6354C72.321 15.013 82.7717 13.8677 93.4589 16.7765C96.6696 17.6521 99.712 18.8858 102.509 20.7298C103.877 21.6331 104.568 22.7741 104.825 24.4105C105.59 29.2437 104.778 33.8351 103.116 38.3614C98.5209 50.8575 90.0599 60.0109 78.639 66.5398C76.1794 67.9451 73.6164 69.1696 71.0534 70.3941C70.0701 70.8639 69.0868 71.3337 68.1093 71.8137C67.6775 72.0253 67.5586 72.2505 67.445 72.7382C67.4304 72.7995 67.4158 72.8611 67.4012 72.9227C67.3813 73.0073 67.3614 73.0921 67.3414 73.1771C67.0301 74.5031 66.7103 75.8647 66.0687 77.0292C63.3445 81.9636 59.2667 85.5634 54.3383 88.2034C50.9824 90.0018 47.4342 91.2168 43.5644 91.2141C43.0918 91.2128 42.619 91.1572 42.1496 91.1019L42.0279 91.0876C40.3033 90.8835 39.4668 89.7188 39.7127 87.9604C40.1366 84.9103 40.5459 81.8578 40.9551 78.8066L41.197 77.0037C41.2091 76.9087 41.2036 76.8114 41.1963 76.6809C41.192 76.6029 41.1869 76.513 41.1846 76.4047C40.7937 76.7061 40.5006 76.9317 40.2082 77.1568L40.2027 77.161C36.8697 79.7491 33.3476 82.0234 29.368 83.4938C28.3068 83.8847 27.187 84.1636 26.0694 84.3307C23.3955 84.7291 22.2487 83.9217 21.5895 81.263C21.2652 81.2981 20.9399 81.3358 20.6136 81.3736C19.8579 81.4612 19.097 81.5495 18.3327 81.6069C16.0073 81.7801 13.7728 81.5335 11.5946 80.5282C8.63234 79.1634 7.24164 76.3662 7.79304 73.1133C8.34731 69.8364 10.0431 67.1043 12.0258 64.5182C12.1695 64.3248 12.3245 64.1395 12.5169 63.9093L12.517 63.9092C12.5993 63.8107 12.6885 63.704 12.7866 63.5849ZM78.029 18.5044L78.029 18.5044C77.3896 18.5606 76.7414 18.6176 76.0986 18.7075C69.5523 19.6304 63.3012 21.5657 57.3389 24.3897C48.3782 28.6335 40.6924 34.498 34.6605 42.4485C33.7559 43.6414 33.2844 44.6934 33.8913 46.1924C34.4748 47.6335 34.9662 49.1111 35.4574 50.5881C35.6662 51.2159 35.8749 51.8436 36.0907 52.4683C36.2754 53.0057 36.5651 53.0433 37.0846 52.831C37.3897 52.7069 37.6947 52.5817 37.9998 52.4566L37.9999 52.4565C39.6492 51.7799 41.3012 51.1022 42.9958 50.569C46.0704 49.5995 49.2396 49.2156 52.467 49.6091C53.6587 49.7541 54 50.3202 53.6919 51.464C52.8864 54.4608 51.2652 56.9648 48.964 59.0012C47.4075 60.38 45.7661 61.6641 44.1249 62.9481L44.1248 62.9482C43.8881 63.1334 43.6513 63.3186 43.4149 63.5041C43.0133 63.8188 42.9277 64.0622 43.1419 64.5105C44.6146 67.5848 46.5921 70.2736 49.2172 72.456C49.5954 72.7697 50.1907 72.9639 50.6887 72.9745C54.0705 73.0493 57.3929 72.6103 60.6378 71.6503C68.2171 69.4092 75.2101 66.0269 81.547 61.2381C86.5754 57.4407 91.2813 53.3611 94.864 48.1192C94.978 47.9537 95.0869 47.7833 95.1955 47.6137L95.1955 47.6137L95.1958 47.6132C95.2565 47.5184 95.317 47.4239 95.3781 47.3305C95.146 47.1501 94.9099 46.9846 94.6789 46.8227C94.1832 46.4754 93.7107 46.1444 93.3514 45.7166C91.7198 43.7687 90.0926 41.8065 88.6299 39.7334C84.0909 33.292 80.4593 26.4068 78.8827 18.4264C78.6007 18.4542 78.3157 18.4792 78.029 18.5044ZM36.4931 67.5568C36.133 67.6843 35.7766 67.8098 35.4228 67.9344L35.4221 67.9346C34.6903 68.1922 33.9697 68.4459 33.2516 68.7053C31.031 69.5065 28.7341 69.8979 26.3843 69.6902C24.5209 69.5254 23.373 68.6068 23.8762 66.5806C24.1843 65.3322 24.5856 64.0754 25.1715 62.9374C26.3533 60.6395 28.1645 58.8308 30.1464 57.2004C30.5965 56.8306 30.6483 56.5453 30.3433 56.0578C29.6865 55.0024 29.0281 53.9372 28.49 52.8221C28.1998 52.2174 27.9036 52.0559 27.3183 52.299C26.5526 52.613 25.7821 52.9169 25.0116 53.2208L25.0114 53.2209C23.2648 53.9098 21.5183 54.5987 19.828 55.4037C17.8462 56.3453 16.0381 57.6301 14.6071 59.347C14.4011 59.5929 14.2267 59.8641 14.0257 60.1768L14.0257 60.1769C13.9202 60.341 13.8073 60.5165 13.6787 60.7058L13.9649 60.7298C14.4871 60.7736 14.8719 60.8059 15.2562 60.8358C16.073 60.8963 16.727 61.2869 16.8375 62.0963C16.9105 62.6315 16.7702 63.3092 16.4786 63.7615C15.8231 64.7754 15.1157 65.7555 14.4084 66.7354L14.4082 66.7357L14.4079 66.7362C14.0369 67.2501 13.666 67.764 13.3027 68.2826C12.0958 70.0072 11.0971 71.8298 10.8449 73.9673C10.5978 76.0737 11.6739 77.5508 13.7493 77.9616C15.9057 78.3931 18.0674 78.2936 20.2125 77.9031C20.7804 77.7999 21.3403 77.6596 21.9003 77.5193C22.3365 77.41 22.7729 77.3006 23.2134 77.2088C23.994 77.0455 24.6751 77.2697 25.1475 77.9362C25.6106 78.5872 25.5338 79.2614 25.1442 79.922C25.1212 79.9606 25.0966 79.9988 25.072 80.0369C25.0228 80.1131 24.9736 80.1893 24.937 80.2695C24.6268 80.9612 24.8185 81.3118 25.5474 81.1838C26.4474 81.0283 27.3586 80.8168 28.1971 80.4686C32.3814 78.7187 35.9182 76.0132 39.2103 72.9421C39.7118 72.4727 39.8049 72.1504 39.4032 71.6076C38.702 70.659 38.0199 69.7004 37.3279 68.7278C37.0518 68.3398 36.7742 67.9495 36.4931 67.5568ZM99.6432 39.9947L99.6433 39.9945L99.6433 39.9945C99.9798 39.2108 100.307 38.448 100.572 37.665C102.109 33.115 102.931 28.4815 101.913 23.686C101.838 23.3267 101.532 22.8967 101.21 22.7225C96.5252 20.1639 91.5183 18.704 86.1831 18.3878C86.0291 18.3786 85.875 18.3878 85.7189 18.3971L85.7189 18.3971C85.6434 18.4015 85.5675 18.4061 85.4909 18.4085C86.1372 22.9096 95.8081 39.1271 99.1468 41.1706C99.3102 40.7703 99.4778 40.3799 99.6432 39.9947ZM28.2872 47.1588C31.5409 40.5486 36.0818 35.2397 41.5838 30.5284C41.4206 30.4881 41.2861 30.4527 41.1697 30.422L41.1696 30.422C40.9674 30.3687 40.8195 30.3298 40.6698 30.3047C40.3506 30.2516 40.028 30.199 39.7064 30.1936C35.4599 30.1168 31.3483 30.8117 27.3875 32.3566C24.0115 33.6754 20.9726 35.5137 18.5557 38.2543C18.1413 38.7225 17.7913 39.2463 17.4299 39.7873L17.4299 39.7873C17.2559 40.0478 17.0792 40.3121 16.8915 40.5762C18.8863 41.7298 20.8413 42.8584 22.7887 43.9827L22.804 43.9916C24.6293 45.0454 26.4482 46.0955 28.2872 47.1588ZM42.7679 88.0407C42.9205 88.0505 43.0553 88.0619 43.1784 88.0724C43.4051 88.0916 43.5922 88.1074 43.7775 88.1037C47.007 88.0714 49.952 87.0316 52.7395 85.4973C57.5111 82.8691 61.5266 79.4481 64.0574 74.5079C64.1934 74.2449 64.3067 73.9696 64.4106 73.717L64.4107 73.717C64.4581 73.6017 64.5036 73.4911 64.5484 73.3886C63.5318 73.596 62.5242 73.8076 61.5221 74.018C59.2283 74.4996 56.9633 74.9752 54.6837 75.3812C51.3759 75.9732 48.0227 76.0964 44.6899 75.7605C44.1267 79.3712 43.5736 82.9005 43.013 86.477L42.7679 88.0407ZM50.9621 51.7465C50.3832 51.84 49.8136 51.9215 49.2521 52.0019L49.252 52.0019C48.0452 52.1745 46.8754 52.3419 45.7301 52.6123C40.4578 53.856 35.6769 56.1547 31.4886 59.6138C29.3554 61.3733 27.5316 63.3968 26.5092 66.0336C26.4403 66.2127 26.3842 66.3965 26.3206 66.6051L26.3205 66.6053C26.2831 66.7278 26.2432 66.8588 26.1965 67.0025C29.8076 67.1178 33.0989 66.4441 36.0061 64.5224C37.4386 63.5769 38.8348 62.5754 40.2309 61.5741C41.9838 60.3169 43.7364 59.0599 45.5604 57.9137C47.3023 56.8184 48.4641 55.2781 49.6308 53.7314L49.6308 53.7313C49.9647 53.2886 50.2991 52.8453 50.6475 52.4118C50.7461 52.2918 50.8047 52.1403 50.8678 51.9772C50.8968 51.9021 50.9268 51.8245 50.9621 51.7465ZM97.9453 43.3467C95.6147 41.6907 93.8341 39.615 92.2593 37.3709C89.3562 33.2379 87.018 28.7773 85.0242 24.1497C84.5449 23.0375 84.1622 21.8853 83.7794 20.7328L83.7794 20.7327C83.5581 20.0665 83.3368 19.4002 83.0967 18.7414C83.0254 18.5504 82.7793 18.3234 82.5855 18.2939C82.3202 18.25 82.047 18.2677 81.7415 18.2874C81.6074 18.2961 81.4671 18.3052 81.3185 18.3096C81.3499 18.4379 81.3773 18.554 81.4027 18.6615L81.4028 18.6621C81.4577 18.8948 81.5032 19.0875 81.5592 19.2769C82.7416 23.2085 84.4324 26.9228 86.3231 30.5576C88.9424 35.5873 91.9279 40.3349 96.2725 44.0897C96.4561 44.2474 96.6468 44.3951 96.8605 44.5606L96.8609 44.5609C96.9437 44.6251 97.03 44.6919 97.1207 44.763C97.3699 44.3307 97.5826 43.967 97.7905 43.6114L97.7907 43.6111L97.9453 43.3467ZM46.1758 73.1501C45.8065 72.7269 45.4405 72.3277 45.0843 71.9392C44.3172 71.1026 43.5961 70.316 42.9877 69.4481C42.3626 68.5565 41.8519 67.586 41.335 66.6038C41.1082 66.1728 40.8802 65.7396 40.6409 65.3097L40.538 65.3663C39.8017 65.7708 39.0175 66.2018 38.1886 66.6615C38.5577 67.1789 38.9229 67.6924 39.2857 68.2025L39.2904 68.2092C40.3461 69.6934 41.3817 71.1494 42.4358 72.593C42.592 72.8075 42.9127 72.9954 43.1729 73.0175C43.8513 73.0746 44.5323 73.0959 45.2514 73.1185L45.2516 73.1185C45.5521 73.1279 45.8593 73.1376 46.1758 73.1501ZM32.5899 55.3366L32.59 55.3365C32.9024 55.1288 33.1583 54.9587 33.4285 54.8197C33.9366 54.5587 34.018 54.2889 33.7758 53.7304C33.2675 52.57 32.8504 51.3679 32.4464 50.1636C32.2403 49.5467 32.0702 48.9176 31.9002 48.2886L31.9002 48.2885C31.8221 47.9998 31.7441 47.7111 31.6626 47.4237C31.6284 47.4208 31.5932 47.4172 31.558 47.4136C31.5228 47.41 31.4876 47.4064 31.4534 47.4035C31.2946 47.7269 31.1351 48.05 30.9758 48.3729L30.9754 48.3737C30.5639 49.2076 30.1527 50.0408 29.7528 50.8792C29.6952 51.0033 29.7194 51.2155 29.784 51.3435C30.3349 52.3965 30.894 53.4426 31.4788 54.5365C31.6772 54.9076 31.8785 55.2843 32.0834 55.6685C32.2712 55.5484 32.4373 55.438 32.5899 55.3366ZM66.5346 27.3539C75.63 25.803 83.5941 32.5249 84.9077 40.5072C86.1959 48.3317 81.1094 57.3483 71.4667 59.1059C61.9188 60.8447 54.5269 54.216 53.2003 46.6342C51.5139 37.0137 57.6206 28.6695 66.5346 27.3539ZM81.8687 40.7148C81.4878 38.2743 80.6031 35.9964 78.9175 34.2159C75.1674 30.2536 70.5421 29.0022 65.3336 30.6408C59.0939 32.6047 53.2878 39.6544 56.4113 48.4518C58.7851 55.1384 66.6346 58.6442 73.3704 55.989C79.5351 53.5611 82.9099 47.4919 81.8687 40.7148ZM72.1728 53.3433C77.2534 51.5195 80.3151 46.5846 79.6357 41.4609C79.5145 41.1256 79.404 40.7852 79.2934 40.4448C79.0526 39.7037 78.8119 38.9626 78.4623 38.2741C75.2045 31.8214 66.6391 30.4673 61.1879 35.5554C57.9343 38.5932 56.5517 42.2809 57.9966 46.6461C59.7994 52.0981 66.709 55.3034 72.1728 53.3433ZM75.3626 45.1059C74.5797 47.6364 72.6412 48.9086 70.5947 49.4284C65.9049 50.1391 62.5553 48.3 60.8689 44.3621C60.4739 43.4433 60.397 42.4867 60.6807 41.5056C61.584 38.3613 64.1732 36.2479 67.4692 35.9381C69.9209 35.7107 72.0945 36.3116 73.8899 38.0406C75.981 40.0527 76.1629 42.5151 75.3626 45.1059Z" fill="#4A5364"/>
</svg>
