<svg width="513" height="498" viewBox="0 0 513 498" fill="none" xmlns="http://www.w3.org/2000/svg">
<path fill-rule="evenodd" clip-rule="evenodd" d="M72.7866 385.585C72.7112 385.554 72.6426 385.528 72.5797 385.504C72.4526 385.456 72.349 385.417 72.2606 385.359C70.7876 384.372 70.3048 382.93 71.1225 381.346C71.6464 380.326 72.3233 379.312 73.1534 378.536C76.8006 375.134 80.9134 372.545 85.9511 371.731C86.0131 371.721 86.0719 371.699 86.168 371.663C86.2302 371.64 86.3079 371.611 86.4122 371.575C86.2661 371.468 86.1318 371.365 86.0042 371.267L86.0039 371.267C85.7401 371.064 85.5048 370.883 85.253 370.733C84.0765 370.024 82.8975 369.318 81.7182 368.612L81.7165 368.611C80.174 367.688 78.6312 366.764 77.0936 365.832C76.4461 365.44 75.8016 365.025 75.2181 364.548C74.2657 363.774 74.1005 362.835 74.6265 361.723C76.1648 358.476 78.6065 356.056 81.654 354.25C88.0753 350.444 94.9916 349.073 102.359 350.367C103.548 350.577 104.346 350.36 105.29 349.681C110.479 345.959 115.97 342.765 122.024 340.635C132.321 337.013 142.772 335.868 153.459 338.776C156.67 339.652 159.712 340.886 162.509 342.73C163.877 343.633 164.568 344.774 164.825 346.411C165.59 351.244 164.778 355.835 163.116 360.361C158.521 372.857 150.06 382.011 138.639 388.54C136.179 389.945 133.616 391.17 131.053 392.394C130.07 392.864 129.087 393.334 128.109 393.814C127.678 394.025 127.559 394.25 127.445 394.738C127.43 394.8 127.416 394.861 127.401 394.923C127.381 395.007 127.361 395.092 127.341 395.177C127.03 396.503 126.71 397.865 126.069 399.029C123.344 403.964 119.267 407.563 114.338 410.203C110.982 412.002 107.434 413.217 103.564 413.214C103.092 413.213 102.619 413.157 102.15 413.102L102.028 413.088C100.303 412.884 99.4668 411.719 99.7127 409.96C100.137 406.91 100.546 403.858 100.955 400.807L101.197 399.004C101.209 398.909 101.204 398.811 101.196 398.681C101.192 398.603 101.187 398.513 101.185 398.405C100.794 398.706 100.501 398.932 100.208 399.157L100.203 399.161C96.8697 401.749 93.3476 404.023 89.368 405.494C88.3068 405.885 87.187 406.164 86.0694 406.331C83.3955 406.729 82.2487 405.922 81.5895 403.263C81.2652 403.298 80.9399 403.336 80.6136 403.374C79.8579 403.461 79.097 403.549 78.3327 403.607C76.0073 403.78 73.7728 403.534 71.5946 402.528C68.6323 401.163 67.2416 398.366 67.793 395.113C68.3473 391.836 70.0431 389.104 72.0258 386.518C72.1695 386.325 72.3245 386.139 72.5169 385.909L72.517 385.909C72.5993 385.811 72.6885 385.704 72.7866 385.585ZM138.029 340.504L138.029 340.504C137.39 340.561 136.741 340.618 136.099 340.707C129.552 341.63 123.301 343.566 117.339 346.39C108.378 350.634 100.692 356.498 94.6605 364.449C93.7559 365.641 93.2844 366.693 93.8913 368.192C94.4748 369.633 94.9662 371.111 95.4574 372.588C95.6662 373.216 95.8749 373.844 96.0907 374.468C96.2754 375.006 96.5651 375.043 97.0846 374.831C97.3897 374.707 97.6947 374.582 97.9998 374.457L97.9999 374.457C99.6492 373.78 101.301 373.102 102.996 372.569C106.07 371.599 109.24 371.216 112.467 371.609C113.659 371.754 114 372.32 113.692 373.464C112.886 376.461 111.265 378.965 108.964 381.001C107.408 382.38 105.766 383.664 104.125 384.948L104.125 384.948C103.888 385.133 103.651 385.319 103.415 385.504C103.013 385.819 102.928 386.062 103.142 386.51C104.615 389.585 106.592 392.274 109.217 394.456C109.595 394.77 110.191 394.964 110.689 394.975C114.07 395.049 117.393 394.61 120.638 393.65C128.217 391.409 135.21 388.027 141.547 383.238C146.575 379.441 151.281 375.361 154.864 370.119C154.978 369.954 155.087 369.783 155.195 369.614L155.195 369.614L155.196 369.613C155.256 369.518 155.317 369.424 155.378 369.33C155.146 369.15 154.91 368.985 154.679 368.823C154.183 368.475 153.711 368.144 153.351 367.717C151.72 365.769 150.093 363.807 148.63 361.733C144.091 355.292 140.459 348.407 138.883 340.426C138.601 340.454 138.316 340.479 138.029 340.504ZM96.4931 389.557C96.133 389.684 95.7766 389.81 95.4228 389.934L95.4221 389.935C94.6903 390.192 93.9697 390.446 93.2516 390.705C91.031 391.506 88.7341 391.898 86.3843 391.69C84.5209 391.525 83.373 390.607 83.8762 388.581C84.1843 387.332 84.5856 386.075 85.1715 384.937C86.3533 382.64 88.1645 380.831 90.1464 379.2C90.5965 378.831 90.6483 378.545 90.3433 378.058C89.6865 377.002 89.0281 375.937 88.49 374.822C88.1998 374.217 87.9036 374.056 87.3183 374.299C86.5526 374.613 85.7821 374.917 85.0116 375.221L85.0114 375.221C83.2648 375.91 81.5183 376.599 79.828 377.404C77.8462 378.345 76.0381 379.63 74.6071 381.347C74.4011 381.593 74.2267 381.864 74.0257 382.177L74.0257 382.177C73.9202 382.341 73.8073 382.517 73.6787 382.706L73.9649 382.73C74.4871 382.774 74.8719 382.806 75.2562 382.836C76.073 382.896 76.727 383.287 76.8375 384.096C76.9105 384.631 76.7702 385.309 76.4786 385.761C75.8231 386.775 75.1157 387.756 74.4084 388.735L74.4082 388.736L74.4079 388.736C74.0369 389.25 73.666 389.764 73.3027 390.283C72.0958 392.007 71.0971 393.83 70.8449 395.967C70.5978 398.074 71.6739 399.551 73.7493 399.962C75.9057 400.393 78.0674 400.294 80.2125 399.903C80.7804 399.8 81.3403 399.66 81.9003 399.519C82.3365 399.41 82.7729 399.301 83.2134 399.209C83.994 399.045 84.6751 399.27 85.1475 399.936C85.6106 400.587 85.5338 401.261 85.1442 401.922C85.1212 401.961 85.0966 401.999 85.072 402.037C85.0228 402.113 84.9736 402.189 84.937 402.27C84.6268 402.961 84.8185 403.312 85.5474 403.184C86.4474 403.028 87.3586 402.817 88.1971 402.469C92.3814 400.719 95.9182 398.013 99.2103 394.942C99.7118 394.473 99.8049 394.15 99.4032 393.608C98.702 392.659 98.0199 391.7 97.3279 390.728C97.0518 390.34 96.7742 389.95 96.4931 389.557ZM159.643 361.995L159.643 361.995L159.643 361.995C159.98 361.211 160.307 360.448 160.572 359.665C162.109 355.115 162.931 350.481 161.913 345.686C161.838 345.327 161.532 344.897 161.21 344.722C156.525 342.164 151.518 340.704 146.183 340.388C146.029 340.379 145.875 340.388 145.719 340.397L145.719 340.397C145.643 340.402 145.567 340.406 145.491 340.409C146.137 344.91 155.808 361.127 159.147 363.171C159.31 362.77 159.478 362.38 159.643 361.995ZM88.2872 369.159C91.5409 362.549 96.0818 357.24 101.584 352.528C101.421 352.488 101.286 352.453 101.17 352.422L101.17 352.422C100.967 352.369 100.82 352.33 100.67 352.305C100.351 352.252 100.028 352.199 99.7064 352.194C95.4599 352.117 91.3483 352.812 87.3875 354.357C84.0115 355.675 80.9726 357.514 78.5557 360.254C78.1413 360.722 77.7913 361.246 77.4299 361.787L77.4299 361.787C77.2559 362.048 77.0792 362.312 76.8915 362.576C78.8863 363.73 80.8413 364.858 82.7887 365.983L82.804 365.992C84.6293 367.045 86.4482 368.095 88.2872 369.159ZM102.768 410.041C102.92 410.05 103.055 410.062 103.178 410.072C103.405 410.092 103.592 410.107 103.778 410.104C107.007 410.071 109.952 409.032 112.739 407.497C117.511 404.869 121.527 401.448 124.057 396.508C124.193 396.245 124.307 395.97 124.411 395.717L124.411 395.717C124.458 395.602 124.504 395.491 124.548 395.389C123.532 395.596 122.524 395.808 121.522 396.018C119.228 396.5 116.963 396.975 114.684 397.381C111.376 397.973 108.023 398.096 104.69 397.761C104.127 401.371 103.574 404.9 103.013 408.477L102.768 410.041ZM110.962 373.746C110.383 373.84 109.814 373.922 109.252 374.002L109.252 374.002C108.045 374.175 106.875 374.342 105.73 374.612C100.458 375.856 95.6769 378.155 91.4886 381.614C89.3554 383.373 87.5316 385.397 86.5092 388.034C86.4403 388.213 86.3842 388.397 86.3206 388.605L86.3205 388.605C86.2831 388.728 86.2432 388.859 86.1965 389.002C89.8076 389.118 93.0989 388.444 96.0061 386.522C97.4386 385.577 98.8348 384.575 100.231 383.574C101.984 382.317 103.736 381.06 105.56 379.914C107.302 378.818 108.464 377.278 109.631 375.731L109.631 375.731C109.965 375.289 110.299 374.845 110.648 374.412C110.746 374.292 110.805 374.14 110.868 373.977C110.897 373.902 110.927 373.825 110.962 373.746ZM157.945 365.347C155.615 363.691 153.834 361.615 152.259 359.371C149.356 355.238 147.018 350.777 145.024 346.15C144.545 345.037 144.162 343.885 143.779 342.733L143.779 342.733C143.558 342.066 143.337 341.4 143.097 340.741C143.025 340.55 142.779 340.323 142.585 340.294C142.32 340.25 142.047 340.268 141.741 340.287C141.607 340.296 141.467 340.305 141.318 340.31C141.35 340.438 141.377 340.554 141.403 340.662L141.403 340.662C141.458 340.895 141.503 341.087 141.559 341.277C142.742 345.208 144.432 348.923 146.323 352.558C148.942 357.587 151.928 362.335 156.272 366.09C156.456 366.247 156.647 366.395 156.861 366.561L156.861 366.561C156.944 366.625 157.03 366.692 157.121 366.763C157.37 366.331 157.583 365.967 157.791 365.611L157.791 365.611L157.945 365.347ZM106.176 395.15C105.807 394.727 105.44 394.328 105.084 393.939C104.317 393.103 103.596 392.316 102.988 391.448C102.363 390.557 101.852 389.586 101.335 388.604C101.108 388.173 100.88 387.74 100.641 387.31L100.538 387.366C99.8017 387.771 99.0175 388.202 98.1886 388.662C98.5577 389.179 98.9229 389.692 99.2857 390.202L99.2904 390.209C100.346 391.693 101.382 393.149 102.436 394.593C102.592 394.808 102.913 394.995 103.173 395.018C103.851 395.075 104.532 395.096 105.251 395.119L105.252 395.119C105.552 395.128 105.859 395.138 106.176 395.15ZM92.5899 377.337L92.59 377.336C92.9024 377.129 93.1583 376.959 93.4285 376.82C93.9366 376.559 94.018 376.289 93.7758 375.73C93.2675 374.57 92.8504 373.368 92.4464 372.164C92.2403 371.547 92.0702 370.918 91.9002 370.289L91.9002 370.288C91.8221 370 91.7441 369.711 91.6626 369.424C91.6284 369.421 91.5932 369.417 91.558 369.414C91.5228 369.41 91.4876 369.406 91.4534 369.403C91.2946 369.727 91.1351 370.05 90.9758 370.373L90.9754 370.374C90.5639 371.208 90.1527 372.041 89.7528 372.879C89.6952 373.003 89.7194 373.215 89.784 373.343C90.3349 374.397 90.894 375.443 91.4788 376.537C91.6772 376.908 91.8785 377.284 92.0834 377.669C92.2712 377.548 92.4373 377.438 92.5899 377.337ZM126.535 349.354C135.63 347.803 143.594 354.525 144.908 362.507C146.196 370.332 141.109 379.348 131.467 381.106C121.919 382.845 114.527 376.216 113.2 368.634C111.514 359.014 117.621 350.67 126.535 349.354ZM141.869 362.715C141.488 360.274 140.603 357.996 138.918 356.216C135.167 352.254 130.542 351.002 125.334 352.641C119.094 354.605 113.288 361.654 116.411 370.452C118.785 377.138 126.635 380.644 133.37 377.989C139.535 375.561 142.91 369.492 141.869 362.715ZM132.173 375.343C137.253 373.519 140.315 368.585 139.636 363.461C139.515 363.126 139.404 362.785 139.293 362.445C139.053 361.704 138.812 360.963 138.462 360.274C135.205 353.821 126.639 352.467 121.188 357.555C117.934 360.593 116.552 364.281 117.997 368.646C119.799 374.098 126.709 377.303 132.173 375.343ZM135.363 367.106C134.58 369.636 132.641 370.909 130.595 371.428C125.905 372.139 122.555 370.3 120.869 366.362C120.474 365.443 120.397 364.487 120.681 363.506C121.584 360.361 124.173 358.248 127.469 357.938C129.921 357.711 132.095 358.312 133.89 360.041C135.981 362.053 136.163 364.515 135.363 367.106Z" fill="#4A5364"/>
<path d="M419.473 119.816C412.578 119.742 406.325 117.748 400.905 113.431C395.101 108.809 391.578 102.783 390.408 95.4655C389.052 86.9792 391.116 79.2674 396.043 72.2857C397.783 69.8185 399.867 67.6645 402.244 65.8042C402.924 65.2715 403.673 64.8268 404.393 64.345C404.498 64.2746 404.618 64.2218 404.734 64.1672C405.779 63.6743 406.737 64.3182 406.685 65.4837C406.665 65.9126 406.618 66.3406 406.594 66.7696C406.224 73.3511 407.465 79.5731 410.927 85.2365C415.116 92.0886 421.223 96.303 429.056 97.991C434.387 99.1398 439.67 98.7479 444.887 97.2563C445.614 97.0479 446.304 96.7125 447.022 96.467C447.592 96.2724 448.183 96.1214 448.791 96.1585C449.439 96.1974 449.957 96.8301 449.997 97.5602C450.021 98.0095 449.887 98.4246 449.732 98.835C449.135 100.418 448.431 101.954 447.564 103.407C442.35 112.145 434.743 117.471 424.741 119.362C423.072 119.676 421.238 119.814 419.473 119.816ZM447.663 98.5154C447.499 98.5691 447.407 98.5978 447.316 98.6293C444.472 99.5993 441.563 100.267 438.565 100.531C434.924 100.852 431.318 100.651 427.76 99.7902C421.702 98.3254 416.544 95.3256 412.393 90.6591C408.63 86.4289 406.307 81.4779 405.185 75.947C404.576 72.9453 404.387 69.913 404.548 66.8567C404.554 66.7557 404.549 66.6547 404.549 66.5102C404.464 66.5722 404.416 66.6028 404.373 66.6389C404.024 66.9373 403.681 67.2448 403.325 67.5357C398.373 71.5834 394.928 76.6428 393.151 82.8C392.02 86.7198 391.694 90.7119 392.378 94.7503C393.116 99.1009 394.797 103.068 397.423 106.615C400.612 110.923 404.664 114.145 409.694 116.045C414.337 117.799 419.141 118.181 424.032 117.412C434.532 115.762 443.518 108.649 447.552 98.8239C447.586 98.7442 447.612 98.6608 447.663 98.5154Z" fill="#4A5364"/>
<path d="M44.9999 28.4414C45.0086 29.1849 44.5631 29.7982 43.7067 30.1048C42.8447 30.4115 41.9652 30.6805 41.0829 30.9235C40.6258 31.0479 40.4869 31.2389 40.5997 31.7249C40.863 32.8444 41.0887 33.9756 41.2825 35.1125C41.5081 36.4432 40.5795 37.45 39.3731 37.2243C38.6586 37.0912 38.1552 36.5213 38.0019 35.6187C37.8399 34.6438 37.675 33.6689 37.5767 32.6882C37.5188 32.0952 37.3481 31.9216 36.7377 32.0894C36.0405 32.2803 35.3115 32.3989 34.5912 32.4423C33.813 32.4886 33.2344 32.0489 33.0637 31.4414C32.8728 30.7644 33.1071 30.0643 33.8216 29.7114C34.6374 29.3064 35.5111 29.0026 36.3819 28.7307C36.9026 28.5687 37.0212 28.3228 36.9373 27.8078C36.81 27.021 36.7377 26.2196 36.703 25.4241C36.6712 24.6372 37.0762 24.1165 37.7039 24.0152C38.3115 23.9169 38.864 24.2987 39.0954 25.048C39.2979 25.6989 39.4802 26.3585 39.5901 27.0297C39.6856 27.614 39.9315 27.7037 40.4522 27.533C41.1002 27.3218 41.7627 27.1512 42.431 27.021C42.862 26.9371 43.322 26.8908 43.753 26.9515C44.4878 27.047 44.9912 27.7066 44.9999 28.4414Z" fill="#4A5364"/>
<path d="M413 210.441C413.009 211.185 412.563 211.798 411.707 212.105C410.845 212.411 409.965 212.681 409.083 212.924C408.626 213.048 408.487 213.239 408.6 213.725C408.863 214.844 409.089 215.976 409.282 217.112C409.508 218.443 408.579 219.45 407.373 219.224C406.659 219.091 406.155 218.521 406.002 217.619C405.84 216.644 405.675 215.669 405.577 214.688C405.519 214.095 405.348 213.922 404.738 214.089C404.041 214.28 403.311 214.399 402.591 214.442C401.813 214.489 401.234 214.049 401.064 213.441C400.873 212.764 401.107 212.064 401.822 211.711C402.637 211.306 403.511 211.003 404.382 210.731C404.903 210.569 405.021 210.323 404.937 209.808C404.81 209.021 404.738 208.22 404.703 207.424C404.671 206.637 405.076 206.116 405.704 206.015C406.311 205.917 406.864 206.299 407.095 207.048C407.298 207.699 407.48 208.358 407.59 209.03C407.686 209.614 407.931 209.704 408.452 209.533C409.1 209.322 409.763 209.151 410.431 209.021C410.862 208.937 411.322 208.891 411.753 208.952C412.488 209.047 412.991 209.707 413 210.441Z" fill="#4A5364"/>
<path d="M395 439.812C395.009 440.617 394.527 441.281 393.599 441.614C392.665 441.946 391.712 442.237 390.756 442.5C390.261 442.635 390.111 442.842 390.233 443.369C390.518 444.581 390.763 445.807 390.973 447.039C391.217 448.48 390.211 449.571 388.904 449.326C388.13 449.182 387.585 448.565 387.419 447.587C387.243 446.531 387.065 445.475 386.958 444.412C386.895 443.77 386.71 443.582 386.049 443.763C385.294 443.97 384.504 444.099 383.724 444.146C382.881 444.196 382.254 443.72 382.069 443.061C381.862 442.328 382.116 441.57 382.89 441.187C383.774 440.749 384.72 440.42 385.664 440.125C386.228 439.949 386.356 439.683 386.265 439.125C386.128 438.273 386.049 437.405 386.012 436.543C385.977 435.69 386.416 435.126 387.096 435.017C387.754 434.91 388.353 435.324 388.603 436.135C388.823 436.84 389.02 437.555 389.139 438.282C389.243 438.915 389.509 439.012 390.073 438.827C390.775 438.599 391.493 438.414 392.217 438.273C392.684 438.182 393.182 438.132 393.649 438.198C394.445 438.301 394.99 439.015 395 439.812Z" fill="#4A5364"/>
<path d="M44.9999 443.812C45.0093 444.617 44.5266 445.281 43.599 445.614C42.665 445.946 41.7123 446.237 40.7564 446.5C40.2613 446.635 40.1108 446.842 40.233 447.369C40.5182 448.581 40.7627 449.807 40.9727 451.039C41.2171 452.48 40.2111 453.571 38.9042 453.326C38.1301 453.182 37.5848 452.565 37.4187 451.587C37.2432 450.531 37.0646 449.475 36.958 448.412C36.8954 447.77 36.7104 447.582 36.0492 447.763C35.2939 447.97 34.5041 448.099 33.7238 448.146C32.8807 448.196 32.2539 447.72 32.069 447.061C31.8621 446.328 32.116 445.57 32.8901 445.187C33.7739 444.749 34.7204 444.42 35.6637 444.125C36.2278 443.949 36.3563 443.683 36.2654 443.125C36.1275 442.273 36.0492 441.405 36.0116 440.543C35.9771 439.69 36.4159 439.126 37.0959 439.017C37.7541 438.91 38.3527 439.324 38.6034 440.135C38.8228 440.84 39.0202 441.555 39.1393 442.282C39.2427 442.915 39.5091 443.012 40.0732 442.827C40.7752 442.599 41.4929 442.414 42.2169 442.273C42.6838 442.182 43.1821 442.132 43.6491 442.198C44.4451 442.301 44.9905 443.015 44.9999 443.812Z" fill="#4A5364"/>
<path d="M474.673 14.9699C474.423 13.1588 476.523 11.5533 478.14 12.1133C479.585 12.6137 480.419 13.6771 480.744 15.1695C480.809 15.4674 480.97 15.8189 481.2 16.0006C482.999 17.3947 484.834 18.747 486.645 20.1232C486.993 20.3883 487.285 20.5075 487.759 20.3615C489.215 19.9177 490.624 20.8084 490.949 22.3007C491.232 23.6054 490.306 24.8714 488.879 25.1336C487.559 25.3748 486.225 24.365 486.082 22.9203C486.028 22.3722 485.808 22.0595 485.394 21.7556C483.6 20.433 481.834 19.0717 480.035 17.7581C479.832 17.6091 479.442 17.5525 479.207 17.6359C478.155 18.0172 477.131 18.2972 476.043 17.7432C475.891 17.6657 475.579 17.7849 475.4 17.904C472.019 20.1292 468.65 22.3693 465.278 24.6063C464.956 24.8208 464.646 25.0621 464.31 25.2468C463.625 25.6221 463.109 26.0093 462.96 26.9268C462.773 28.0885 461.587 28.8273 460.428 28.8124C459.237 28.7975 458.242 28.0349 457.953 26.7481C457.81 26.1136 457.482 25.7561 456.991 25.3987C454.438 23.5518 451.915 21.6633 449.359 19.8224C449.118 19.6466 448.686 19.5602 448.406 19.6407C446.949 20.0607 445.421 19.2862 445.07 17.8891C444.712 16.4683 445.773 14.8657 447.229 14.6274C448.936 14.3474 450.205 15.4823 450.214 17.2279C450.214 17.5257 450.405 17.9279 450.64 18.1006C453.184 19.9981 455.758 21.8569 458.313 23.7425C458.65 23.9897 458.891 24.0582 459.264 23.7901C459.988 23.2688 460.756 23.1586 461.566 23.6859C461.727 23.7901 462.082 23.7752 462.248 23.665C466.201 21.0764 470.145 18.473 474.071 15.8457C474.345 15.664 474.476 15.2678 474.673 14.9699Z" fill="#4A5364"/>
<path d="M497.99 388.35C498.889 386.758 501.533 386.754 502.48 388.18C503.325 389.454 503.344 390.805 502.698 392.189C502.569 392.465 502.484 392.842 502.556 393.126C503.142 395.325 503.782 397.513 504.388 399.706C504.504 400.128 504.664 400.399 505.129 400.57C506.557 401.1 507.137 402.663 506.491 404.047C505.925 405.256 504.421 405.701 503.127 405.045C501.931 404.437 501.482 402.825 502.244 401.589C502.534 401.12 502.548 400.738 502.403 400.245C501.779 398.107 501.199 395.953 500.565 393.818C500.494 393.576 500.218 393.295 499.98 393.218C498.913 392.884 497.928 392.486 497.399 391.386C497.325 391.232 497.004 391.138 496.79 391.124C492.752 390.844 488.715 390.583 484.677 390.318C484.291 390.294 483.898 390.298 483.519 390.241C482.746 390.124 482.102 390.12 481.427 390.759C480.573 391.569 479.183 391.438 478.27 390.724C477.332 389.99 477.003 388.78 477.553 387.581C477.824 386.99 477.78 386.507 477.606 385.925C476.695 382.909 475.833 379.877 474.916 376.864C474.831 376.578 474.54 376.247 474.268 376.141C472.855 375.592 472.11 374.05 472.677 372.726C473.254 371.379 475.069 370.748 476.372 371.441C477.899 372.253 478.22 373.925 477.169 375.319C476.989 375.556 476.896 375.991 476.979 376.271C477.852 379.322 478.772 382.361 479.662 385.41C479.779 385.81 479.93 386.011 480.388 386.024C481.28 386.048 481.958 386.426 482.283 387.336C482.348 387.517 482.639 387.72 482.838 387.733C487.551 388.071 492.266 388.391 496.981 388.682C497.309 388.703 497.653 388.468 497.99 388.35Z" fill="#4A5364"/>
<path d="M20.7436 142.842C18.4181 144.496 16.1183 146.133 13.8185 147.77C13.6255 147.905 13.4454 148.063 13.2427 148.179C12.6155 148.532 12.3196 148.925 12.3711 149.777C12.5126 152.125 10.1259 153.746 7.9741 152.891C7.78111 152.814 7.57848 152.752 7.37262 152.711C6.06672 152.447 5.19506 151.691 4.88949 150.395C4.58714 149.124 5.03423 148.027 6.03457 147.262C6.63283 146.805 6.60067 146.426 6.37551 145.824C5.68075 143.965 5.01494 142.093 4.38772 140.208C4.2076 139.671 3.99853 139.439 3.38739 139.385C1.47679 139.214 -0.0285379 137.558 0.000410599 135.782C0.0325756 133.855 1.5958 132.128 3.41955 132.006C4.96025 131.903 6.4913 133.135 6.90944 134.946C7.20536 136.226 7.23752 137.5 6.0635 138.471C5.94449 138.568 5.92198 138.899 5.98309 139.076C6.78722 141.315 7.60101 143.547 8.45338 145.766C8.54022 145.991 8.86507 146.171 9.11918 146.281C9.71101 146.538 10.3189 146.773 10.9397 146.953C11.1874 147.027 11.5573 147.04 11.7439 146.905C14.3653 144.991 16.9674 143.058 19.5535 141.096C19.7819 140.922 19.9588 140.555 19.9845 140.266C20.1421 138.478 21.2357 137.265 22.8376 137.175C24.4619 137.085 25.8225 138.188 26.1312 139.912C26.2181 140.398 26.4497 140.62 26.8839 140.784C30.0393 141.971 33.1915 143.161 36.3308 144.39C36.8293 144.586 37.0866 144.393 37.4308 144.123C38.608 143.203 40.2678 143.232 41.5222 144.155C42.8024 145.097 43.3299 146.824 42.7895 148.291C42.2684 149.703 40.9818 150.559 39.499 150.469C38.7013 150.42 38.0838 150.112 37.6013 149.407C36.9837 148.507 36.1764 147.731 36.1571 146.522C36.1539 146.381 35.8451 146.197 35.6457 146.117C32.5739 144.862 29.4925 143.627 26.4207 142.373C26.0348 142.215 25.7967 142.215 25.4944 142.582C24.1145 144.238 22.4226 144.335 20.7436 142.842Z" fill="#4A5364"/>
<path d="M25.9448 304.864C26.5971 305.495 26.6428 306.49 26.044 307.132C25.5309 307.685 24.5406 307.627 23.9115 307.005C23.3411 306.444 23.5159 305.544 24.3525 304.724C24.8193 304.266 25.3747 304.317 25.9448 304.864Z" fill="#4A5364"/>
<path d="M48.8666 256.589C49.774 256.593 50.496 257.279 50.509 258.157C50.522 258.911 49.7675 259.555 48.8828 259.542C48.0828 259.533 47.5852 258.762 47.6209 257.591C47.6405 256.937 48.0763 256.589 48.8666 256.589Z" fill="#4A5364"/>
<path d="M135.247 229C136.155 229.003 136.877 229.689 136.89 230.568C136.903 231.322 136.148 231.966 135.264 231.953C134.464 231.943 133.966 231.173 134.002 230.002C134.021 229.348 134.457 229 135.247 229Z" fill="#4A5364"/>
<path d="M143.247 282C144.155 282.003 144.877 282.689 144.89 283.568C144.903 284.322 144.148 284.966 143.264 284.953C142.464 284.943 141.966 284.173 142.002 283.002C142.021 282.348 142.457 282 143.247 282Z" fill="#4A5364"/>
<path d="M123.247 474C124.155 474.003 124.877 474.689 124.89 475.568C124.903 476.322 124.148 476.966 123.264 476.953C122.464 476.943 121.966 476.173 122.002 475.002C122.021 474.348 122.457 474 123.247 474Z" fill="#4A5364"/>
<path d="M175.247 472C176.155 472.003 176.877 472.689 176.89 473.568C176.903 474.322 176.148 474.966 175.264 474.953C174.464 474.943 173.966 474.173 174.002 473.002C174.021 472.348 174.457 472 175.247 472Z" fill="#4A5364"/>
<path d="M263.247 495C264.155 495.003 264.877 495.689 264.89 496.568C264.903 497.322 264.148 497.966 263.264 497.953C262.464 497.943 261.966 497.173 262.002 496.002C262.021 495.348 262.457 495 263.247 495Z" fill="#4A5364"/>
<path d="M313.247 475C314.155 475.003 314.877 475.689 314.89 476.568C314.903 477.322 314.148 477.966 313.264 477.953C312.464 477.943 311.966 477.173 312.002 476.002C312.021 475.348 312.457 475 313.247 475Z" fill="#4A5364"/>
<path d="M416.247 471C417.155 471.003 417.877 471.689 417.89 472.568C417.903 473.322 417.148 473.966 416.264 473.953C415.464 473.943 414.966 473.173 415.002 472.002C415.021 471.348 415.457 471 416.247 471Z" fill="#4A5364"/>
<path d="M467.247 455C468.155 455.003 468.877 455.689 468.89 456.568C468.903 457.322 468.148 457.966 467.264 457.953C466.464 457.943 465.966 457.173 466.002 456.002C466.021 455.348 466.457 455 467.247 455Z" fill="#4A5364"/>
<path d="M417.247 322C418.155 322.003 418.877 322.689 418.89 323.568C418.903 324.322 418.148 324.966 417.264 324.953C416.464 324.943 415.966 324.173 416.002 323.002C416.021 322.348 416.457 322 417.247 322Z" fill="#4A5364"/>
<path d="M464.247 128C465.155 128.003 465.877 128.689 465.89 129.568C465.903 130.322 465.148 130.966 464.264 130.953C463.464 130.943 462.966 130.173 463.002 129.002C463.021 128.348 463.457 128 464.247 128Z" fill="#4A5364"/>
<path d="M494.247 84C495.155 84.0033 495.877 84.6895 495.89 85.5676C495.903 86.3221 495.148 86.9661 494.264 86.9531C493.464 86.9433 492.966 86.1725 493.002 85.0017C493.021 84.348 493.457 84 494.247 84Z" fill="#4A5364"/>
<path d="M371.247 11C372.155 11.0033 372.877 11.6895 372.89 12.5676C372.903 13.3221 372.148 13.9661 371.264 13.9531C370.464 13.9433 369.966 13.1725 370.002 12.0017C370.021 11.348 370.457 11 371.247 11Z" fill="#4A5364"/>
<path d="M128.247 119C129.155 119.003 129.877 119.689 129.89 120.568C129.903 121.322 129.148 121.966 128.264 121.953C127.464 121.943 126.966 121.173 127.002 120.002C127.021 119.348 127.457 119 128.247 119Z" fill="#4A5364"/>
<path d="M120.247 67C121.155 67.0033 121.877 67.6895 121.89 68.5676C121.903 69.3221 121.148 69.9661 120.264 69.9531C119.464 69.9433 118.966 69.1725 119.002 68.0017C119.021 67.348 119.457 67 120.247 67Z" fill="#4A5364"/>
<path d="M188.111 2C189.646 2.0055 190.868 3.16664 190.89 4.65245C190.912 5.92914 189.635 7.01873 188.138 6.99672C186.784 6.98021 185.943 5.676 186.003 3.69492C186.036 2.58882 186.773 2 188.111 2Z" fill="#4A5364"/>
<path d="M113.247 0C114.155 0.00325228 114.877 0.689486 114.89 1.5676C114.903 2.32213 114.148 2.96608 113.264 2.95307C112.464 2.94331 111.966 2.17252 112.002 1.0017C112.021 0.347995 112.457 0 113.247 0Z" fill="#4A5364"/>
<path d="M466.704 257.023C470.472 257.054 473.598 257.647 476.609 258.828C476.873 258.932 477.069 258.91 477.323 258.775C482.004 256.286 486.796 254.087 492.094 253.252C493.92 252.964 495.749 252.859 497.575 253.284C501.001 254.079 502.976 256.541 503 260.057C503.013 262.036 502.543 263.918 501.852 265.754C500.669 268.897 498.997 271.777 497.069 274.509C495.924 276.13 494.698 277.692 493.492 279.271C493.293 279.531 493.236 279.763 493.248 280.101C493.272 280.744 493.208 281.396 493.12 282.038C492.375 287.514 490.537 292.574 487.255 297.053C483.732 301.863 479.184 305.262 473.375 306.838C469.823 307.8 466.236 307.892 462.635 307.106C462.194 307.009 461.755 306.878 461.335 306.713C461.041 306.598 460.811 306.621 460.541 306.771C457.894 308.248 455.172 309.573 452.347 310.675C449.355 311.841 446.288 312.731 443.064 312.958C441.535 313.067 440.024 312.964 438.56 312.475C435.763 311.541 434.086 309.265 434.004 306.312C433.943 304.106 434.526 302.036 435.377 300.039C436.942 296.365 438.974 292.961 441.508 289.87C441.978 289.298 442.546 288.8 443.099 288.302C443.287 288.132 443.242 287.993 443.192 287.818C442.76 286.279 442.504 284.71 442.381 283.117C442.063 279.042 442.729 275.126 444.494 271.453C448.431 263.269 454.993 258.608 463.938 257.262C465.027 257.097 466.136 257.07 466.704 257.023ZM485.374 268.944C485.113 268.787 484.868 268.671 484.661 268.507C484.443 268.332 484.255 268.118 484.062 267.912C478.72 262.189 472.149 259.667 464.368 260.546C455.279 261.574 447.902 268.367 446.022 277.32C445.18 281.328 445.344 285.292 446.781 289.156C447.527 291.163 448.542 293.037 449.741 294.811C450.338 295.694 450.967 296.557 451.517 297.469C451.715 297.797 451.844 297.818 452.156 297.683C454.816 296.523 457.347 295.12 459.749 293.505C466.338 289.072 472.412 284.011 477.959 278.323C480.645 275.569 483.081 272.615 485.14 269.358C485.223 269.227 485.293 269.088 485.374 268.944ZM444.09 290.7C444.006 290.795 443.941 290.849 443.899 290.919C442.462 293.228 440.984 295.513 439.606 297.857C438.69 299.414 438.069 301.114 437.626 302.871C437.34 304.005 437.164 305.152 437.292 306.328C437.478 308.038 438.312 309.042 439.99 309.442C440.616 309.591 441.272 309.667 441.917 309.682C444.114 309.735 446.225 309.228 448.299 308.57C452.692 307.178 456.807 305.165 460.767 302.832C470.015 297.384 478.312 290.735 485.751 283.005C489.363 279.251 492.727 275.298 495.519 270.885C496.996 268.549 498.33 266.137 499.143 263.475C499.485 262.359 499.741 261.224 499.704 260.043C499.64 258.055 498.657 256.872 496.701 256.488C495.226 256.197 493.747 256.273 492.277 256.538C488.268 257.264 484.56 258.832 480.924 260.601C480.842 260.64 480.776 260.709 480.66 260.797C481.056 261.059 481.425 261.274 481.76 261.536C482.023 261.743 482.251 261.735 482.531 261.589C482.89 261.404 483.251 261.181 483.637 261.104C484.901 260.852 486.175 260.83 487.424 261.194C488.806 261.598 489.667 262.508 489.917 263.945C490.074 264.849 489.911 265.726 489.643 266.59C488.741 269.509 487.277 272.112 485.383 274.506C481.974 278.816 478.203 282.782 474.139 286.47C469.411 290.759 464.304 294.539 458.788 297.754C456.772 298.929 454.682 299.95 452.48 300.735C450.857 301.313 449.206 301.696 447.472 301.514C446.186 301.378 445.189 300.8 444.697 299.537C444.428 298.844 444.39 298.124 444.524 297.401C444.72 296.333 445.003 295.298 445.799 294.484C445.854 294.427 445.835 294.237 445.785 294.142C445.544 293.674 445.262 293.227 445.032 292.754C444.71 292.098 444.42 291.423 444.09 290.7ZM465.118 304.091C465.287 304.144 465.362 304.185 465.44 304.188C466.309 304.227 467.18 304.313 468.046 304.286C473.019 304.132 477.334 302.296 481.025 299.013C485.44 295.089 488.031 290.098 489.348 284.396C489.365 284.323 489.35 284.245 489.35 284.082C482.061 291.75 474.051 298.421 465.118 304.091ZM447.016 296.06C446.852 296.601 446.7 297.142 446.825 297.705C446.87 297.909 446.986 298.121 447.129 298.275C447.564 298.737 448.794 298.847 449.34 298.507C448.581 297.707 447.819 296.905 447.016 296.06ZM485.217 264.129C485.207 264.18 485.198 264.23 485.187 264.281C485.751 264.876 486.314 265.471 486.917 266.108C487.12 265.536 487.183 265.021 487.087 264.495C487.037 264.225 486.891 263.989 486.582 264.001C486.126 264.02 485.672 264.085 485.217 264.129Z" fill="#4A5364"/>
</svg>
