<svg width="137" height="263" viewBox="0 0 137 263" fill="none" xmlns="http://www.w3.org/2000/svg">
<path d="M94.3909 215.261C94.3909 215.71 94.3943 216.055 94.3909 216.399C94.3437 220.311 94.2863 224.223 94.2685 228.135C94.2685 228.39 94.5235 228.852 94.7025 228.874C96.2567 229.064 97.8218 229.172 99.5373 229.319C99.6521 227.912 99.8674 226.556 99.8455 225.203C99.8024 222.432 99.6411 219.665 99.5085 216.898C99.4327 215.283 99.799 214.931 101.363 214.91C106.793 214.845 112.023 213.818 116.987 211.565C117.144 211.493 117.288 211.4 117.528 211.267C117.413 210.944 117.302 210.636 117.194 210.334C115.436 210.869 113.767 211.486 112.048 211.881C102.609 214.045 93.8954 212.107 85.9352 206.82C82.9601 204.843 80.1354 202.553 77.5554 200.08C71.5943 194.371 68.1483 187.293 67.158 179.096C66.6379 174.793 67.1293 170.591 69.1646 166.668C69.2828 166.441 69.3471 166.191 69.4373 165.957C67.2694 164.64 66.5012 162.663 67.2188 159.874C68.3998 155.295 71.4863 152.266 75.52 150.101C77.0523 149.28 78.7247 148.878 80.5017 149.007C82.0121 149.114 83.2827 149.624 84.1514 151.053C84.4671 150.876 84.7651 150.719 85.0556 150.546C87.2741 149.226 89.5705 148.041 92.1334 147.625C95.2014 147.13 98.2524 146.459 101.411 146.599C107.687 146.879 113.44 148.784 118.688 152.172C127.387 157.789 133.312 165.494 135.781 175.633C137.335 182.017 136.955 188.308 134.195 194.371C134.091 194.6 134.141 195.11 134.302 195.224C136.625 196.843 136.947 199.111 136.334 201.606C135.315 205.74 132.619 208.676 129.26 211.073C127.458 212.361 125.467 213.244 123.249 213.549C121.763 213.754 120.346 213.596 119.025 212.814C118.824 212.695 118.44 212.656 118.256 212.767C115.156 214.651 111.7 215.476 108.193 216.115C105.871 216.539 103.535 216.884 101.023 216.471C101.181 217.493 101.382 218.419 101.461 219.353C102.1 226.638 101.08 233.658 98.0043 240.33C97.6024 241.198 97.0358 241.992 96.5403 242.817C95.1727 245.099 92.4307 245.282 90.6865 244.665C90.5 244.6 90.31 244.54 90.0694 244.457C89.0107 247.328 87.9664 250.16 86.9474 252.927C87.9267 253.67 88.9642 254.333 89.8507 255.159C91.0816 256.307 91.426 257.739 90.6941 258.945C90.2457 259.684 89.567 260.474 88.8064 260.793C87.1879 261.476 85.4759 262.11 83.7461 262.33C78.5853 262.979 73.6433 262.024 68.9739 259.724C67.7505 259.121 66.7561 258.242 66.1068 257.007C65.4678 255.791 65.5177 254.56 66.1786 253.411C66.6092 252.664 66.8422 252.001 66.7814 251.089C66.6878 249.672 66.8996 248.236 66.9605 246.808C67.0145 245.57 67.1259 245.509 65.7836 245.326C64.172 245.106 62.5823 244.737 61.0137 244.439C60.8524 245.96 60.687 247.425 60.5579 248.892C60.5401 249.101 60.6693 249.338 60.7732 249.535C61.8646 251.552 61.4949 253.383 59.6612 254.778C58.0134 256.028 56.1011 256.677 54.0876 256.932C49.2782 257.542 44.5446 257.122 39.9224 255.618C39.4234 255.457 38.9102 255.338 38.4113 255.177C36.1606 254.445 34.7684 252.428 35.063 250.343C35.3713 248.171 37.2337 246.621 39.6421 246.539C39.8718 246.531 40.1014 246.539 40.4172 246.539C40.4678 245.638 40.4924 244.769 40.5717 243.908C40.8266 241.148 41.0918 238.388 41.3754 235.632C41.4328 235.079 41.318 234.821 40.7186 234.663C39.1289 234.247 38.1673 233.088 37.5248 231.641C36.5379 229.423 36.6131 227.087 36.8748 224.75C37.3526 220.548 38.8343 216.679 40.7186 212.918C41.2107 211.935 41.171 210.679 41.3433 209.541C42.1217 204.372 43.4497 199.374 45.9409 194.747C46.4466 193.803 47.1246 192.946 47.7923 192.102C48.0903 191.729 48.5318 191.334 48.9699 191.237C49.9459 191.022 50.0785 190.387 50.0819 189.587C50.0894 186.55 50.3191 183.496 50.032 180.488C49.8235 178.314 49.5044 176.15 49.6048 173.964C49.7805 170.21 50.2938 166.499 52.0632 163.129C52.8096 161.712 53.8826 160.434 54.9665 159.235C55.4545 158.697 56.3088 158.457 57.0374 158.187C57.4611 158.029 57.6368 157.897 57.6293 157.412C57.576 153.766 57.5507 150.116 57.5254 146.47C57.5042 143.257 57.468 140.046 57.4899 136.834C57.5076 133.916 57.576 130.994 57.6655 128.076C57.6908 127.305 57.4359 127.072 56.6677 127.089C55.4764 127.118 54.281 126.997 53.0864 126.971C52.3435 126.957 51.8835 126.58 51.8445 125.887C51.7728 124.642 51.7475 123.382 51.8192 122.137C51.8623 121.433 51.6969 121.182 50.9827 121.068C46.353 120.342 41.8675 119.036 37.5822 117.184C22.6597 110.735 11.6814 100.22 5.10658 85.2683C2.44316 79.2102 0.921791 72.8582 0.293698 66.2615C-0.653568 56.3528 0.670288 46.7523 4.5605 37.633C12.5282 18.9563 26.2697 6.60708 46.07 1.7549C71.3393 -4.43951 96.716 6.09742 110.838 28.1084C115.303 35.0707 118.396 42.5894 119.757 50.7648C125.334 84.2705 103.621 113.481 73.9016 120.234C70.9805 120.899 67.9761 121.208 65.001 121.631C64.4201 121.713 64.2082 121.864 64.2225 122.478C64.2478 123.469 64.2082 124.466 64.1002 125.449C63.9929 126.458 63.2315 127.05 62.2344 127.035C60.1382 127.003 60.0808 127.007 60.0877 129.002C60.1164 135.279 60.1991 141.556 60.2421 147.833C60.264 150.812 60.3569 153.798 60.1922 156.766C60.1205 158.015 60.3036 158.733 61.3582 159.512C63.0381 160.753 63.9355 162.645 64.6101 164.604C66.1068 168.947 66.3365 173.411 66.2251 177.98C66.1601 180.618 66.5873 183.353 67.2762 185.915C69.8207 195.386 74.8632 203.232 83.0353 208.869C86.9973 211.601 91.3864 213.241 96.1849 213.754C96.4467 213.783 96.7631 213.768 96.9456 213.912C97.2039 214.113 97.5416 214.465 97.5129 214.716C97.4842 214.971 97.0714 215.366 96.8062 215.387C96.0558 215.427 95.2985 215.315 94.3909 215.261ZM44.5015 221.678C44.455 222.066 44.4366 222.177 44.4297 222.292C44.0388 227.058 43.665 231.827 43.2487 236.594C42.987 239.587 42.6637 242.573 42.3623 245.562C42.3192 246 42.3985 246.252 42.9296 246.319C47.8463 246.937 52.7631 247.565 57.6764 248.232C58.5308 248.347 58.839 248.035 58.8786 247.249C58.936 246.115 59.0187 244.981 59.0939 243.843C59.1691 242.727 59.668 242.185 60.6693 242.314C62.8372 242.598 64.9942 242.953 67.1511 243.29C68.1339 243.445 68.7764 244.001 68.8304 245.013C68.9199 246.671 68.9671 248.333 68.9486 249.991C68.9418 250.63 69.0928 250.816 69.7489 250.892C74.4149 251.408 79.0801 251.958 83.7351 252.561C84.6359 252.679 85.0631 252.528 85.3788 251.599C87.0765 246.606 88.8563 241.64 90.608 236.666C90.9524 235.682 91.2935 234.699 91.6919 233.55C75.9294 229.588 60.264 225.644 44.5015 221.678ZM64.4734 179.656C63.4222 179.713 62.3205 179.782 61.2188 179.836C58.3619 179.972 55.5051 180.104 52.6483 180.233C52.1924 180.255 51.8192 180.252 51.8261 180.933C51.8589 184.113 51.9306 187.293 51.7974 190.47C51.5677 196.021 50.7209 201.494 49.3322 206.874C48.6931 209.354 48.0582 211.855 46.6797 214.066C46.3318 214.623 45.8937 215.125 45.4918 215.656C54.048 217.81 62.5283 219.945 71.0127 222.084C72.4336 218.14 73.851 214.253 75.2152 210.348C75.3123 210.072 75.1182 209.577 74.8995 209.322C73.3419 207.506 71.6517 205.797 70.1802 203.917C67.9617 201.082 66.031 198.049 65.109 194.503C64.703 192.946 64.4734 191.284 65.6434 190.006C66.3112 189.274 66.2934 188.707 66.0276 187.943C65.9592 187.753 65.9059 187.551 65.8662 187.35C65.4138 184.834 64.9579 182.315 64.4734 179.656ZM28.5846 46.7988C28.4663 46.0025 28.4014 45.0047 28.1649 44.0499C26.9409 39.1475 22.3542 36.9331 17.7429 38.9965C15.3809 40.0517 13.5725 41.7569 12.1653 43.8955C9.95158 47.2581 9.27291 50.9084 9.83608 54.9168C10.2598 57.9213 12.7004 60.6127 15.7329 60.9497C18.1229 61.2155 20.2478 60.5444 22.1498 59.17C26.2882 56.173 28.2367 52.0101 28.5846 46.7988ZM98.97 147.981C98.9556 148.078 98.9447 148.178 98.9304 148.275C99.1422 148.346 99.3466 148.44 99.5619 148.49C102.659 149.215 105.545 150.482 108.244 152.126C120.851 159.813 128.959 170.956 133.283 184.968C133.649 186.156 133.912 187.379 134.288 188.84C134.425 188.255 134.514 187.928 134.575 187.591C135.35 183.144 135.153 178.716 133.764 174.445C129.167 160.312 119.588 151.602 105.003 148.544C103.04 148.131 100.983 148.156 98.97 147.981ZM87.5857 151.085C87.6937 151.106 87.8051 151.142 87.9124 151.142C91.871 151.214 95.6792 152.115 99.3179 153.575C110.081 157.907 118.414 165.153 124.429 175.041C127.566 180.195 129.777 185.725 130.541 191.761C130.714 193.107 130.803 194.464 130.958 196.111C131.718 194.801 132.361 193.717 132.978 192.619C133.054 192.486 133.018 192.278 132.992 192.109C132.867 191.334 132.741 190.556 132.587 189.784C130.287 178.364 124.871 168.635 116.516 160.566C110.382 154.645 103.298 150.482 94.7387 149.032C91.9359 148.558 89.7646 149.617 87.5857 151.085ZM64.2943 174.937C64.161 171.334 63.6772 167.17 61.6883 163.356C61.2003 162.415 60.5435 161.514 59.7904 160.771C58.7276 159.727 57.3709 159.698 56.2193 160.635C55.5516 161.177 54.8982 161.834 54.4929 162.576C51.9484 167.231 51.0401 172.238 51.4782 177.51C51.5466 178.321 51.8978 178.529 52.72 178.472C55.7744 178.256 58.8356 178.106 61.8968 177.987C64.2909 177.894 64.2909 177.934 64.2943 174.937ZM72.7247 222.615C79.2278 224.251 85.6119 225.859 92.1867 227.517C92.1867 224.083 92.1867 220.849 92.1867 217.86C90.9633 217.903 89.7215 218.082 88.5118 217.953C87.5215 217.845 86.5346 217.447 85.6051 217.045C82.6081 215.746 79.985 213.851 77.5157 211.737C77.2861 211.543 77.0455 211.364 76.7407 211.124C75.3909 214.985 74.0848 218.717 72.7247 222.615ZM91.7527 231.942C91.8566 231.25 91.9393 230.711 92.0186 230.173C92.1546 229.279 91.8177 228.863 90.8806 228.626C85.6515 227.312 80.4443 225.917 75.2296 224.553C65.6182 222.041 56.0074 219.529 46.3892 217.042C45.8759 216.909 45.28 216.966 44.7455 217.059C43.909 217.206 43.2057 217.942 43.2132 218.531C43.2166 219.252 44.0456 220.218 44.8282 220.386C46.0803 220.659 47.344 220.882 48.5892 221.19C60.2708 224.09 71.949 227.004 83.6278 229.915C86.2796 230.575 88.9321 231.239 91.7527 231.942ZM80.8065 260.668C81.6212 260.668 82.4646 260.793 83.2506 260.643C84.8116 260.345 86.4122 260.058 87.8734 259.462C89.768 258.687 89.919 257.23 88.3648 255.87C87.4244 255.044 86.4266 254.549 85.02 254.423C79.8593 253.971 74.7197 253.232 69.5767 252.582C68.2023 252.41 68.2023 252.385 67.5851 253.666C67.4847 253.874 67.391 254.089 67.3234 254.312C67.0466 255.209 67.5168 256.835 68.2884 257.316C69.3225 257.962 70.377 258.608 71.4972 259.078C74.4648 260.323 77.6052 260.739 80.8065 260.668ZM50.1072 255.46C51.2773 255.309 53.1076 255.145 54.9091 254.821C56.4633 254.542 58.0318 254.111 59.0761 252.808C59.435 252.363 59.614 251.642 59.5894 251.06C59.5566 250.321 58.8034 250.659 58.3763 250.598C52.4077 249.729 46.4357 248.886 40.4678 248.042C38.7878 247.805 37.1838 248.763 36.8072 250.214C36.4552 251.566 37.4134 252.956 39.0933 253.555C42.4416 254.75 45.9012 255.299 50.1072 255.46ZM49.7662 193.046C49.6944 193.01 49.6192 192.978 49.5474 192.942C49.3322 193.147 49.0629 193.319 48.9084 193.563C48.3309 194.471 47.7096 195.364 47.2504 196.33C45.2444 200.55 44.1318 205.04 43.382 209.634C43.1845 210.836 43.22 212.16 42.6999 213.205C41.063 216.489 39.8499 219.898 39.0858 223.469C38.619 225.648 38.4037 227.854 39.025 230.051C39.3011 231.024 39.7208 231.913 40.6215 232.477C41.3788 232.951 41.616 232.84 41.7274 231.978C42.1791 228.511 42.6391 225.048 43.0621 221.578C43.0943 221.319 42.9077 220.986 42.732 220.752C41.4328 219.03 41.4581 217.874 42.8503 216.219C44.7455 213.962 46.2423 211.489 47.0638 208.632C48.3418 204.193 49.0882 199.657 49.583 195.074C49.6588 194.399 49.7053 193.721 49.7662 193.046ZM118.573 209.573C118.928 210.668 119.538 211.529 120.6 211.741C121.601 211.938 122.739 212.093 123.686 211.812C129.138 210.201 132.756 206.626 134.439 201.182C134.661 200.461 134.629 199.618 134.546 198.849C134.425 197.737 133.768 196.951 132.652 196.488C129.149 202.129 124.523 206.548 118.573 209.573ZM82.7551 151.745C82.1345 151.157 81.395 150.769 80.4696 150.729C78.9906 150.669 77.6483 151.121 76.3778 151.81C72.7965 153.759 70.1727 156.533 69.0887 160.549C68.6616 162.132 69.0279 163.546 70.3271 164.478C72.247 162.224 74.0383 159.885 76.0839 157.789C78.1547 155.672 80.473 153.795 82.7551 151.745ZM66.7493 190.738C66.6413 190.749 66.5333 190.763 66.426 190.774C66.426 191.481 66.2859 192.228 66.4547 192.892C66.7992 194.242 67.1757 195.608 67.7751 196.858C69.9717 201.448 73.184 205.295 76.8514 208.766C79.6795 211.439 82.6799 213.919 86.2831 215.498C87.4852 216.026 88.8241 216.324 90.1343 216.485C91.3256 216.632 91.8751 216.033 92.1191 214.831C79.5435 211.141 71.3927 202.794 66.7493 190.738ZM90.3927 242.867C92.7396 243.76 93.9452 243.448 95.2841 241.614C97.3188 238.822 98.2702 235.589 98.9987 232.273C99.0705 231.95 99.0992 231.62 99.1532 231.264C97.5812 231.02 96.1132 230.83 94.6595 230.55C94.0389 230.428 93.8591 230.625 93.7197 231.189C93.2276 233.188 92.7075 235.183 92.1437 237.164C91.6017 239.059 90.9886 240.936 90.3927 242.867ZM90.461 160.169C90.5075 159.102 89.876 158.316 88.9389 158.273C88.196 158.241 87.3779 158.241 86.7034 158.506C83.0749 159.938 80.2249 162.386 77.9716 165.534C77.3435 166.409 77.0277 167.4 77.3647 168.509C77.5841 169.216 77.9032 169.811 78.7145 169.941C79.5073 170.066 80.0957 169.714 80.473 169.058C82.4215 165.634 85.4759 163.542 88.9567 161.945C89.8001 161.561 90.3749 160.94 90.461 160.169ZM35.633 28.9046C35.6474 27.3149 34.6892 26.1735 33.1603 25.7395C30.4975 24.9857 27.8813 27.2363 27.6373 29.7015C27.4473 31.6254 28.6816 33.1974 30.5372 33.4051C33.0995 33.6922 35.6084 31.4744 35.633 28.9046ZM77.4692 174.154C77.4508 172.837 76.4174 171.742 75.1899 171.746C74.0595 171.746 73.1908 172.672 73.2093 173.856C73.227 175.195 74.3001 176.279 75.5959 176.265C76.6648 176.254 77.487 175.331 77.4692 174.154Z" fill="#4A5364"/>
</svg>
