<svg width="200" height="385" viewBox="0 0 200 385" fill="none" xmlns="http://www.w3.org/2000/svg">
<path d="M138.109 314.961C138.109 315.618 138.114 316.122 138.109 316.626C138.04 322.35 137.956 328.073 137.93 333.797C137.93 334.17 138.303 334.847 138.565 334.879C140.839 335.157 143.129 335.315 145.639 335.53C145.807 333.471 146.122 331.487 146.09 329.507C146.027 325.453 145.791 321.404 145.597 317.356C145.486 314.993 146.022 314.478 148.311 314.447C156.256 314.352 163.907 312.85 171.17 309.553C171.401 309.448 171.611 309.311 171.962 309.117C171.794 308.644 171.632 308.193 171.474 307.752C168.901 308.534 166.459 309.437 163.944 310.015C150.134 313.181 137.384 310.346 125.737 302.611C121.384 299.717 117.251 296.367 113.476 292.749C104.754 284.395 99.7125 274.039 98.2632 262.046C97.5018 255.75 98.2212 249.601 101.199 243.861C101.372 243.53 101.466 243.163 101.598 242.822C98.426 240.894 97.3022 238.001 98.3524 233.921C100.08 227.221 104.596 222.789 110.498 219.622C112.74 218.42 115.187 217.832 117.787 218.021C119.997 218.178 121.856 218.924 123.127 221.014C123.589 220.756 124.025 220.525 124.45 220.273C127.696 218.341 131.056 216.608 134.806 215.999C139.295 215.274 143.759 214.292 148.38 214.497C157.564 214.907 165.981 217.695 173.659 222.652C186.387 230.87 195.057 242.144 198.67 256.979C200.943 266.32 200.387 275.525 196.349 284.395C196.196 284.731 196.27 285.476 196.506 285.644C199.904 288.013 200.376 291.331 199.478 294.981C197.987 301.03 194.043 305.326 189.128 308.833C186.492 310.718 183.578 312.01 180.333 312.456C178.159 312.756 176.085 312.525 174.152 311.38C173.858 311.207 173.296 311.149 173.028 311.312C168.491 314.069 163.435 315.276 158.304 316.211C154.907 316.831 151.488 317.335 147.813 316.731C148.044 318.227 148.338 319.582 148.453 320.948C149.388 331.607 147.897 341.878 143.396 351.64C142.808 352.911 141.979 354.072 141.254 355.279C139.253 358.619 135.241 358.887 132.689 357.984C132.416 357.889 132.138 357.8 131.786 357.679C130.237 361.88 128.709 366.023 127.218 370.072C128.651 371.159 130.169 372.13 131.466 373.338C133.267 375.018 133.771 377.113 132.7 378.878C132.044 379.959 131.051 381.115 129.938 381.582C127.57 382.58 125.065 383.509 122.534 383.83C114.983 384.78 107.752 383.383 100.92 380.017C99.1296 379.135 97.675 377.849 96.7246 376.042C95.7899 374.262 95.8634 372.461 96.8296 370.781C97.4597 369.688 97.8011 368.717 97.7118 367.383C97.5753 365.309 97.8851 363.208 97.9743 361.119C98.0531 359.307 98.2159 359.218 96.252 358.95C93.8942 358.629 91.568 358.089 89.2733 357.653C89.037 359.879 88.7954 362.022 88.6064 364.169C88.5801 364.474 88.7692 364.821 88.9214 365.109C90.5178 368.06 89.9769 370.739 87.2936 372.781C84.8833 374.609 82.0845 375.559 79.1386 375.932C72.1021 376.825 65.1759 376.21 58.4125 374.01C57.6826 373.774 56.9317 373.6 56.2018 373.364C52.9094 372.293 50.8719 369.342 51.3025 366.291C51.7541 363.114 54.4794 360.845 58.0029 360.725C58.339 360.714 58.6751 360.725 59.1372 360.725C59.2107 359.407 59.2474 358.136 59.363 356.876C59.7358 352.838 60.1244 348.799 60.5392 344.767C60.6232 343.958 60.4552 343.58 59.5783 343.349C57.252 342.74 55.8447 341.044 54.9048 338.927C53.4607 335.682 53.571 332.264 53.9543 328.845C54.6527 322.696 56.8214 317.035 59.5783 311.532C60.2977 310.094 60.2399 308.256 60.492 306.591C61.6315 299.029 63.5744 291.715 67.2186 284.946C67.959 283.565 68.9515 282.31 69.9282 281.076C70.364 280.53 71.0099 279.952 71.6506 279.81C73.0789 279.495 73.2731 278.566 73.2784 277.395C73.2889 272.952 73.625 268.484 73.2049 264.083C72.9003 260.901 72.433 257.735 72.58 254.537C72.8373 249.044 73.5882 243.614 76.177 238.684C77.2692 236.61 78.8393 234.74 80.4252 232.986C81.1393 232.199 82.3891 231.847 83.455 231.453C84.0747 231.222 84.332 231.028 84.3215 230.319C84.2427 224.984 84.206 219.643 84.1692 214.308C84.1377 209.608 84.0852 204.909 84.1167 200.209C84.1429 195.94 84.2427 191.665 84.374 187.396C84.4107 186.267 84.0379 185.926 82.9142 185.952C81.1708 185.994 79.4222 185.816 77.6736 185.779C76.5866 185.758 75.9145 185.206 75.8567 184.193C75.7517 182.371 75.7149 180.528 75.8199 178.706C75.883 177.676 75.6414 177.309 74.5964 177.141C67.8225 176.08 61.2586 174.169 54.9888 171.459C33.1547 162.023 17.0916 146.637 7.47154 124.761C3.57522 115.897 1.34874 106.603 0.4298 96.9511C-0.956492 82.4528 0.981158 68.4061 6.67336 55.063C18.3308 27.7362 38.4373 9.6672 67.4077 2.5677C104.381 -6.49571 141.511 8.92154 162.174 41.1266C168.707 51.3137 173.233 62.3148 175.223 74.2768C183.384 123.301 151.614 166.04 108.13 175.922C103.856 176.894 99.4604 177.346 95.1072 177.965C94.2566 178.086 93.9468 178.306 93.9678 179.204C94.0045 180.654 93.9467 182.114 93.7892 183.552C93.6317 185.028 92.5185 185.894 91.0586 185.873C87.992 185.826 87.908 185.831 87.9185 188.751C87.9605 197.935 88.0813 207.119 88.1443 216.303C88.1758 220.662 88.3123 225.031 88.0708 229.373C87.9657 231.201 88.2336 232.251 89.7774 233.391C92.2349 235.207 93.5477 237.975 94.5349 240.842C96.7246 247.196 97.0607 253.728 96.8979 260.413C96.8034 264.272 97.4282 268.274 98.4364 272.023C102.159 285.881 109.537 297.36 121.494 305.609C127.291 309.605 133.713 312.005 140.734 312.756C141.117 312.798 141.58 312.777 141.847 312.987C142.225 313.281 142.719 313.796 142.677 314.163C142.635 314.536 142.031 315.114 141.643 315.145C140.545 315.203 139.437 315.04 138.109 314.961ZM65.1129 324.35C65.0447 324.917 65.0184 325.08 65.0079 325.248C64.4355 332.222 63.8894 339.2 63.2803 346.174C62.897 350.553 62.4244 354.922 61.9833 359.296C61.9203 359.937 62.0358 360.305 62.8129 360.404C70.007 361.308 77.201 362.226 84.3897 363.203C85.6395 363.371 86.0911 362.914 86.1489 361.764C86.2329 360.105 86.3537 358.446 86.4639 356.781C86.5742 355.148 87.3041 354.355 88.7692 354.544C91.9408 354.959 95.0967 355.479 98.2527 355.972C99.6915 356.198 100.631 357.012 100.71 358.493C100.841 360.919 100.91 363.35 100.883 365.776C100.873 366.711 101.094 366.984 102.054 367.094C108.881 367.85 115.707 368.654 122.518 369.536C123.836 369.709 124.461 369.489 124.923 368.129C127.407 360.824 130.011 353.557 132.574 346.279C133.078 344.84 133.577 343.401 134.16 341.721C111.097 335.924 88.1758 330.153 65.1129 324.35ZM94.3353 262.865C92.7968 262.949 91.1847 263.049 89.5726 263.128C85.3927 263.327 81.2128 263.521 77.0329 263.71C76.3661 263.742 75.8199 263.737 75.8304 264.734C75.8777 269.387 75.9827 274.039 75.7884 278.687C75.4524 286.81 74.2131 294.818 72.1809 302.689C71.2462 306.318 70.3168 309.978 68.3004 313.213C67.791 314.027 67.1504 314.762 66.5622 315.539C79.0809 318.69 91.4892 321.814 103.903 324.944C105.982 319.173 108.056 313.486 110.052 307.773C110.194 307.368 109.91 306.644 109.59 306.271C107.311 303.614 104.838 301.114 102.685 298.363C99.4394 294.214 96.6143 289.777 95.2648 284.589C94.6714 282.31 94.3353 279.879 96.0472 278.009C97.0239 276.938 96.9977 276.108 96.6091 274.99C96.5093 274.712 96.4305 274.417 96.3728 274.123C95.7111 270.442 95.0442 266.756 94.3353 262.865ZM41.8243 68.4743C41.651 67.3086 41.5565 65.8488 41.2099 64.452C39.4193 57.279 32.7083 54.039 25.9607 57.0584C22.5054 58.6023 19.8589 61.0965 17.8005 64.2262C14.5605 69.1465 13.5681 74.4869 14.3925 80.3523C15.0121 84.7475 18.5829 88.6858 23.0201 89.1794C26.5173 89.568 29.6259 88.5861 32.409 86.5749C38.4636 82.1902 41.3149 76.0989 41.8243 68.4743ZM144.809 216.519C144.788 216.661 144.772 216.808 144.751 216.949C145.061 217.054 145.36 217.191 145.675 217.264C150.207 218.325 154.429 220.179 158.378 222.584C176.825 233.832 188.687 250.136 195.015 270.637C195.55 272.375 195.934 274.165 196.485 276.303C196.685 275.447 196.816 274.969 196.905 274.475C198.039 267.969 197.751 261.489 195.718 255.24C188.992 234.562 174.977 221.817 153.636 217.343C150.764 216.739 147.755 216.776 144.809 216.519ZM128.152 221.061C128.31 221.092 128.473 221.145 128.63 221.145C134.422 221.25 139.994 222.568 145.318 224.705C161.066 231.043 173.259 241.645 182.06 256.112C186.65 263.653 189.884 271.745 191.003 280.577C191.255 282.546 191.386 284.531 191.612 286.941C192.725 285.025 193.665 283.439 194.568 281.832C194.679 281.638 194.626 281.333 194.589 281.086C194.406 279.952 194.222 278.813 193.996 277.684C190.63 260.975 182.706 246.739 170.482 234.934C161.507 226.27 151.142 220.179 138.618 218.057C134.517 217.364 131.34 218.913 128.152 221.061ZM94.0728 255.96C93.8785 250.688 93.1696 244.596 90.2605 239.015C89.5463 237.639 88.5854 236.321 87.4826 235.234C85.9283 233.706 83.9434 233.664 82.2578 235.034C81.2811 235.827 80.3254 236.788 79.732 237.875C76.009 244.686 74.6804 252.011 75.3211 259.725C75.4209 260.912 75.9355 261.216 77.138 261.132C81.6067 260.817 86.0858 260.597 90.565 260.423C94.0675 260.287 94.0675 260.345 94.0728 255.96ZM106.408 325.721C115.923 328.115 125.264 330.468 134.884 332.894C134.884 327.869 134.884 323.137 134.884 318.763C133.094 318.826 131.277 319.089 129.507 318.9C128.058 318.742 126.614 318.159 125.254 317.571C120.869 315.67 117.031 312.898 113.418 309.805C113.082 309.521 112.73 309.259 112.284 308.907C110.309 314.557 108.398 320.018 106.408 325.721ZM134.249 339.368C134.401 338.355 134.522 337.567 134.638 336.78C134.837 335.472 134.344 334.863 132.973 334.516C125.322 332.594 117.703 330.552 110.073 328.556C96.0104 324.881 81.948 321.205 67.875 317.566C67.1241 317.372 66.2524 317.456 65.47 317.592C64.2465 317.807 63.2173 318.884 63.2278 319.745C63.233 320.8 64.446 322.213 65.5908 322.46C67.4234 322.859 69.2718 323.185 71.0939 323.636C88.1863 327.879 105.273 332.143 122.361 336.402C126.241 337.368 130.122 338.339 134.249 339.368ZM118.233 381.398C119.425 381.398 120.659 381.582 121.809 381.362C124.093 380.926 126.435 380.506 128.573 379.634C131.345 378.5 131.566 376.368 129.292 374.378C127.916 373.17 126.456 372.445 124.398 372.261C116.847 371.6 109.327 370.518 101.802 369.568C99.7912 369.315 99.7912 369.279 98.8881 371.153C98.741 371.458 98.6045 371.773 98.5047 372.099C98.1004 373.411 98.7883 375.79 99.9173 376.494C101.43 377.439 102.973 378.384 104.612 379.072C108.954 380.894 113.549 381.503 118.233 381.398ZM73.3152 373.779C75.027 373.558 77.7051 373.317 80.3411 372.844C82.6149 372.435 84.9096 371.804 86.4377 369.898C86.9628 369.247 87.2253 368.192 87.1886 367.341C87.1413 366.259 86.0386 366.753 85.4137 366.664C76.6811 365.393 67.9433 364.159 59.2107 362.925C56.7532 362.578 54.4059 363.98 53.8546 366.102C53.3399 368.081 54.742 370.114 57.1995 370.991C62.0988 372.739 67.1609 373.543 73.3152 373.779ZM72.8163 282.457C72.7113 282.404 72.601 282.357 72.496 282.305C72.1809 282.604 71.7871 282.856 71.5613 283.213C70.7159 284.542 69.8074 285.849 69.1353 287.262C66.1999 293.437 64.5721 300.006 63.4746 306.728C63.1858 308.487 63.2383 310.424 62.4769 311.952C60.0824 316.757 58.3075 321.746 57.189 326.971C56.5064 330.158 56.1913 333.387 57.0997 336.601C57.5041 338.024 58.1185 339.326 59.4365 340.151C60.5445 340.844 60.891 340.681 61.0538 339.421C61.7155 334.348 62.3876 329.281 63.0072 324.203C63.0545 323.825 62.7814 323.337 62.5241 322.995C60.6232 320.475 60.66 318.784 62.6974 316.363C65.47 313.06 67.6597 309.442 68.8622 305.262C70.7316 298.767 71.8238 292.129 72.5485 285.424C72.6588 284.437 72.727 283.444 72.8163 282.457ZM173.491 306.638C174.01 308.24 174.903 309.5 176.457 309.81C177.922 310.099 179.587 310.325 180.973 309.915C188.95 307.557 194.243 302.327 196.706 294.361C197.031 293.306 196.984 292.072 196.863 290.948C196.685 289.32 195.724 288.17 194.091 287.493C188.966 295.747 182.197 302.212 173.491 306.638ZM121.084 222.027C120.176 221.166 119.094 220.599 117.74 220.541C115.576 220.452 113.612 221.114 111.753 222.122C106.513 224.973 102.674 229.032 101.088 234.908C100.463 237.224 100.999 239.293 102.9 240.658C105.709 237.36 108.33 233.937 111.323 230.87C114.353 227.772 117.745 225.026 121.084 222.027ZM97.6645 279.08C97.507 279.096 97.3495 279.117 97.1919 279.133C97.1919 280.167 96.9872 281.26 97.234 282.231C97.7381 284.206 98.2894 286.206 99.1664 288.034C102.38 294.75 107.08 300.379 112.446 305.457C116.584 309.369 120.974 312.997 126.246 315.308C128.005 316.08 129.964 316.516 131.881 316.752C133.624 316.967 134.428 316.09 134.785 314.331C116.385 308.933 104.459 296.719 97.6645 279.08ZM132.259 355.353C135.693 356.66 137.457 356.203 139.416 353.52C142.393 349.435 143.785 344.704 144.851 339.852C144.956 339.379 144.998 338.896 145.077 338.376C142.777 338.019 140.629 337.741 138.502 337.331C137.594 337.152 137.331 337.441 137.127 338.266C136.407 341.191 135.646 344.11 134.821 347.009C134.028 349.781 133.131 352.528 132.259 355.353ZM132.359 234.352C132.427 232.792 131.503 231.642 130.132 231.579C129.045 231.532 127.848 231.532 126.861 231.92C121.552 234.015 117.382 237.597 114.085 242.202C113.166 243.483 112.704 244.933 113.197 246.555C113.518 247.59 113.985 248.461 115.172 248.65C116.332 248.834 117.193 248.319 117.745 247.359C120.596 242.349 125.065 239.288 130.158 236.951C131.392 236.389 132.233 235.481 132.359 234.352ZM52.1374 42.2923C52.1585 39.9661 50.7564 38.2962 48.5194 37.6608C44.6231 36.5581 40.7951 39.8506 40.438 43.4581C40.1597 46.2727 41.966 48.5726 44.6809 48.8772C48.4302 49.2973 52.1007 46.0521 52.1374 42.2923ZM113.35 254.815C113.323 252.888 111.811 251.286 110.015 251.292C108.361 251.292 107.09 252.646 107.117 254.379C107.143 256.338 108.713 257.924 110.609 257.903C112.173 257.887 113.376 256.537 113.35 254.815Z" fill="#4A5364"/>
</svg>
