<svg width="556" height="556" viewBox="0 0 556 556" fill="none" xmlns="http://www.w3.org/2000/svg">
<path fill-rule="evenodd" clip-rule="evenodd" d="M94.7866 414.585C94.7112 414.554 94.6425 414.528 94.5797 414.504C94.4525 414.456 94.349 414.417 94.2606 414.359C92.7875 413.372 92.3048 411.93 93.1225 410.346C93.6464 409.326 94.3233 408.312 95.1534 407.536C98.8006 404.134 102.913 401.545 107.951 400.731C108.013 400.721 108.072 400.699 108.168 400.663C108.23 400.64 108.308 400.611 108.412 400.575C108.266 400.468 108.132 400.365 108.004 400.267L108.004 400.267C107.74 400.064 107.505 399.883 107.253 399.733C106.077 399.024 104.897 398.318 103.718 397.612L103.717 397.611C102.174 396.688 100.631 395.764 99.0936 394.832C98.4461 394.44 97.8016 394.025 97.2181 393.548C96.2657 392.774 96.1005 391.835 96.6265 390.723C98.1648 387.476 100.606 385.056 103.654 383.25C110.075 379.444 116.992 378.073 124.359 379.367C125.548 379.577 126.346 379.36 127.29 378.681C132.479 374.959 137.97 371.765 144.024 369.635C154.321 366.013 164.772 364.868 175.459 367.776C178.67 368.652 181.712 369.886 184.509 371.73C185.877 372.633 186.568 373.774 186.825 375.411C187.59 380.244 186.778 384.835 185.116 389.361C180.521 401.857 172.06 411.011 160.639 417.54C158.179 418.945 155.616 420.17 153.053 421.394C152.07 421.864 151.087 422.334 150.109 422.814C149.678 423.025 149.559 423.25 149.445 423.738C149.43 423.8 149.416 423.861 149.401 423.923C149.381 424.007 149.361 424.092 149.341 424.177C149.03 425.503 148.71 426.865 148.069 428.029C145.344 432.964 141.267 436.563 136.338 439.203C132.982 441.002 129.434 442.217 125.564 442.214C125.092 442.213 124.619 442.157 124.15 442.102L124.028 442.088C122.303 441.884 121.467 440.719 121.713 438.96C122.137 435.91 122.546 432.858 122.955 429.807L123.197 428.004C123.209 427.909 123.204 427.811 123.196 427.681C123.192 427.603 123.187 427.513 123.185 427.405C122.794 427.706 122.501 427.932 122.208 428.157L122.203 428.161C118.87 430.749 115.348 433.023 111.368 434.494C110.307 434.885 109.187 435.164 108.069 435.331C105.396 435.729 104.249 434.922 103.589 432.263C103.265 432.298 102.94 432.336 102.614 432.374C101.858 432.461 101.097 432.549 100.333 432.607C98.0073 432.78 95.7728 432.534 93.5946 431.528C90.6323 430.163 89.2416 427.366 89.793 424.113C90.3473 420.836 92.0431 418.104 94.0258 415.518C94.1695 415.325 94.3245 415.139 94.5169 414.909L94.517 414.909C94.5993 414.811 94.6885 414.704 94.7866 414.585ZM160.029 369.504L160.029 369.504C159.39 369.561 158.741 369.618 158.099 369.707C151.552 370.63 145.301 372.566 139.339 375.39C130.378 379.634 122.692 385.498 116.66 393.449C115.756 394.641 115.284 395.693 115.891 397.192C116.475 398.633 116.966 400.111 117.457 401.588C117.666 402.216 117.875 402.844 118.091 403.468C118.275 404.006 118.565 404.043 119.085 403.831C119.39 403.707 119.695 403.582 120 403.457L120 403.457C121.649 402.78 123.301 402.102 124.996 401.569C128.07 400.599 131.24 400.216 134.467 400.609C135.659 400.754 136 401.32 135.692 402.464C134.886 405.461 133.265 407.965 130.964 410.001C129.408 411.38 127.766 412.664 126.125 413.948L126.125 413.948C125.888 414.133 125.651 414.319 125.415 414.504C125.013 414.819 124.928 415.062 125.142 415.51C126.615 418.585 128.592 421.274 131.217 423.456C131.595 423.77 132.191 423.964 132.689 423.975C136.07 424.049 139.393 423.61 142.638 422.65C150.217 420.409 157.21 417.027 163.547 412.238C168.575 408.441 173.281 404.361 176.864 399.119C176.978 398.954 177.087 398.783 177.195 398.614L177.195 398.614L177.196 398.613C177.256 398.518 177.317 398.424 177.378 398.33C177.146 398.15 176.91 397.985 176.679 397.823C176.183 397.475 175.711 397.144 175.351 396.717C173.72 394.769 172.093 392.807 170.63 390.733C166.091 384.292 162.459 377.407 160.883 369.426C160.601 369.454 160.316 369.479 160.029 369.504ZM118.493 418.557C118.133 418.684 117.777 418.81 117.423 418.934L117.422 418.935C116.69 419.192 115.97 419.446 115.252 419.705C113.031 420.506 110.734 420.898 108.384 420.69C106.521 420.525 105.373 419.607 105.876 417.581C106.184 416.332 106.586 415.075 107.171 413.937C108.353 411.64 110.165 409.831 112.146 408.2C112.596 407.831 112.648 407.545 112.343 407.058C111.687 406.002 111.028 404.937 110.49 403.822C110.2 403.217 109.904 403.056 109.318 403.299C108.553 403.613 107.782 403.917 107.012 404.221L107.011 404.221C105.265 404.91 103.518 405.599 101.828 406.404C99.8462 407.345 98.0381 408.63 96.6071 410.347C96.4011 410.593 96.2267 410.864 96.0257 411.177L96.0257 411.177C95.9202 411.341 95.8073 411.517 95.6787 411.706L95.9649 411.73C96.4871 411.774 96.8719 411.806 97.2562 411.836C98.073 411.896 98.727 412.287 98.8375 413.096C98.9105 413.631 98.7702 414.309 98.4786 414.761C97.8231 415.775 97.1157 416.756 96.4084 417.735L96.4082 417.736L96.4079 417.736C96.0369 418.25 95.666 418.764 95.3027 419.283C94.0958 421.007 93.0971 422.83 92.8449 424.967C92.5978 427.074 93.6739 428.551 95.7493 428.962C97.9057 429.393 100.067 429.294 102.212 428.903C102.78 428.8 103.34 428.66 103.9 428.519C104.337 428.41 104.773 428.301 105.213 428.209C105.994 428.045 106.675 428.27 107.147 428.936C107.611 429.587 107.534 430.261 107.144 430.922C107.121 430.961 107.097 430.999 107.072 431.037C107.023 431.113 106.974 431.189 106.937 431.27C106.627 431.961 106.818 432.312 107.547 432.184C108.447 432.028 109.359 431.817 110.197 431.469C114.381 429.719 117.918 427.013 121.21 423.942C121.712 423.473 121.805 423.15 121.403 422.608C120.702 421.659 120.02 420.7 119.328 419.728C119.052 419.34 118.774 418.95 118.493 418.557ZM181.643 390.995L181.643 390.995L181.643 390.994C181.98 390.211 182.307 389.448 182.572 388.665C184.109 384.115 184.931 379.481 183.913 374.686C183.838 374.327 183.532 373.897 183.21 373.722C178.525 371.164 173.518 369.704 168.183 369.388C168.029 369.379 167.875 369.388 167.719 369.397L167.719 369.397C167.643 369.402 167.567 369.406 167.491 369.409C168.137 373.91 177.808 390.127 181.147 392.171C181.31 391.77 181.478 391.38 181.643 390.995ZM110.287 398.159C113.541 391.549 118.082 386.24 123.584 381.528C123.421 381.488 123.286 381.453 123.17 381.422L123.17 381.422C122.967 381.369 122.82 381.33 122.67 381.305C122.351 381.252 122.028 381.199 121.706 381.194C117.46 381.117 113.348 381.812 109.388 383.357C106.011 384.675 102.973 386.514 100.556 389.254C100.141 389.722 99.7913 390.246 99.4299 390.787L99.4299 390.787C99.2559 391.048 99.0792 391.312 98.8915 391.576C100.886 392.73 102.841 393.858 104.789 394.983L104.804 394.992C106.629 396.045 108.448 397.095 110.287 398.159ZM124.768 439.041C124.92 439.05 125.055 439.062 125.178 439.072C125.405 439.092 125.592 439.107 125.778 439.104C129.007 439.071 131.952 438.032 134.739 436.497C139.511 433.869 143.527 430.448 146.057 425.508C146.193 425.245 146.307 424.97 146.411 424.717L146.411 424.717C146.458 424.602 146.504 424.491 146.548 424.389C145.532 424.596 144.524 424.808 143.522 425.018C141.228 425.5 138.963 425.975 136.684 426.381C133.376 426.973 130.023 427.096 126.69 426.761C126.127 430.371 125.574 433.9 125.013 437.477L124.768 439.041ZM132.962 402.746C132.383 402.84 131.814 402.922 131.252 403.002L131.252 403.002C130.045 403.175 128.875 403.342 127.73 403.612C122.458 404.856 117.677 407.155 113.489 410.614C111.355 412.373 109.532 414.397 108.509 417.034C108.44 417.213 108.384 417.397 108.321 417.605L108.321 417.605C108.283 417.728 108.243 417.859 108.196 418.002C111.808 418.118 115.099 417.444 118.006 415.522C119.439 414.577 120.835 413.575 122.231 412.574C123.984 411.317 125.736 410.06 127.56 408.914C129.302 407.818 130.464 406.278 131.631 404.731L131.631 404.731C131.965 404.289 132.299 403.845 132.648 403.412C132.746 403.292 132.805 403.14 132.868 402.977C132.897 402.902 132.927 402.825 132.962 402.746ZM179.945 394.347C177.615 392.691 175.834 390.615 174.259 388.371C171.356 384.238 169.018 379.777 167.024 375.15C166.545 374.037 166.162 372.885 165.779 371.733L165.779 371.733C165.558 371.066 165.337 370.4 165.097 369.741C165.025 369.55 164.779 369.323 164.585 369.294C164.32 369.25 164.047 369.268 163.741 369.287C163.607 369.296 163.467 369.305 163.318 369.31C163.35 369.438 163.377 369.554 163.403 369.662L163.403 369.662C163.458 369.895 163.503 370.087 163.559 370.277C164.742 374.208 166.432 377.923 168.323 381.558C170.942 386.587 173.928 391.335 178.272 395.09C178.456 395.247 178.647 395.395 178.861 395.561L178.861 395.561C178.944 395.625 179.03 395.692 179.121 395.763C179.37 395.331 179.583 394.967 179.791 394.611L179.791 394.611L179.945 394.347ZM128.176 424.15C127.807 423.727 127.44 423.328 127.084 422.939C126.317 422.103 125.596 421.316 124.988 420.448C124.363 419.557 123.852 418.586 123.335 417.604C123.108 417.173 122.88 416.74 122.641 416.31L122.538 416.366C121.802 416.771 121.017 417.202 120.189 417.662C120.558 418.179 120.923 418.692 121.286 419.202L121.29 419.209C122.346 420.693 123.382 422.149 124.436 423.593C124.592 423.808 124.913 423.995 125.173 424.018C125.851 424.075 126.532 424.096 127.251 424.119L127.252 424.119C127.552 424.128 127.859 424.138 128.176 424.15ZM114.59 406.337L114.59 406.336C114.902 406.129 115.158 405.959 115.428 405.82C115.937 405.559 116.018 405.289 115.776 404.73C115.268 403.57 114.85 402.368 114.446 401.164C114.24 400.547 114.07 399.918 113.9 399.289L113.9 399.288C113.822 399 113.744 398.711 113.663 398.424C113.628 398.421 113.593 398.417 113.558 398.414C113.523 398.41 113.488 398.406 113.453 398.403C113.295 398.727 113.135 399.05 112.976 399.373L112.975 399.374C112.564 400.208 112.153 401.041 111.753 401.879C111.695 402.003 111.719 402.215 111.784 402.343C112.335 403.397 112.894 404.443 113.479 405.537C113.677 405.908 113.878 406.284 114.083 406.669C114.271 406.548 114.437 406.438 114.59 406.337ZM148.535 378.354C157.63 376.803 165.594 383.525 166.908 391.507C168.196 399.332 163.109 408.348 153.467 410.106C143.919 411.845 136.527 405.216 135.2 397.634C133.514 388.014 139.621 379.67 148.535 378.354ZM163.869 391.715C163.488 389.274 162.603 386.996 160.918 385.216C157.167 381.254 152.542 380.002 147.334 381.641C141.094 383.605 135.288 390.654 138.411 399.452C140.785 406.138 148.635 409.644 155.37 406.989C161.535 404.561 164.91 398.492 163.869 391.715ZM154.173 404.343C159.253 402.519 162.315 397.585 161.636 392.461C161.515 392.126 161.404 391.785 161.293 391.445C161.053 390.704 160.812 389.963 160.462 389.274C157.205 382.821 148.639 381.467 143.188 386.555C139.934 389.593 138.552 393.281 139.997 397.646C141.799 403.098 148.709 406.303 154.173 404.343ZM157.363 396.106C156.58 398.636 154.641 399.909 152.595 400.428C147.905 401.139 144.555 399.3 142.869 395.362C142.474 394.443 142.397 393.487 142.681 392.506C143.584 389.361 146.173 387.248 149.469 386.938C151.921 386.711 154.095 387.312 155.89 389.041C157.981 391.053 158.163 393.515 157.363 396.106Z" fill="#4A5364"/>
<path d="M441.473 148.816C434.578 148.742 428.325 146.748 422.905 142.431C417.101 137.809 413.578 131.783 412.408 124.465C411.052 115.979 413.116 108.267 418.043 101.286C419.783 98.8185 421.867 96.6645 424.244 94.8042C424.924 94.2715 425.673 93.8268 426.393 93.345C426.498 93.2746 426.618 93.2218 426.734 93.1672C427.779 92.6743 428.737 93.3182 428.685 94.4837C428.665 94.9126 428.618 95.3406 428.594 95.7696C428.224 102.351 429.465 108.573 432.927 114.237C437.116 121.089 443.223 125.303 451.056 126.991C456.387 128.14 461.67 127.748 466.887 126.256C467.614 126.048 468.304 125.712 469.022 125.467C469.592 125.272 470.183 125.121 470.791 125.158C471.439 125.197 471.957 125.83 471.997 126.56C472.021 127.01 471.887 127.425 471.732 127.835C471.135 129.418 470.431 130.954 469.564 132.407C464.35 141.145 456.743 146.471 446.741 148.362C445.072 148.676 443.238 148.814 441.473 148.816ZM469.663 127.515C469.499 127.569 469.407 127.598 469.316 127.629C466.472 128.599 463.563 129.267 460.565 129.531C456.924 129.852 453.318 129.651 449.76 128.79C443.702 127.325 438.544 124.326 434.393 119.659C430.63 115.429 428.307 110.478 427.185 104.947C426.576 101.945 426.387 98.913 426.548 95.8567C426.554 95.7557 426.549 95.6547 426.549 95.5102C426.464 95.5722 426.416 95.6028 426.373 95.6389C426.024 95.9373 425.681 96.2448 425.325 96.5357C420.373 100.583 416.928 105.643 415.151 111.8C414.02 115.72 413.694 119.712 414.378 123.75C415.116 128.101 416.797 132.068 419.423 135.615C422.612 139.923 426.664 143.145 431.694 145.045C436.337 146.799 441.141 147.181 446.032 146.412C456.532 144.762 465.518 137.649 469.552 127.824C469.586 127.744 469.612 127.661 469.663 127.515Z" fill="#4A5364"/>
<path d="M66.9999 57.4414C67.0086 58.1849 66.5631 58.7982 65.7067 59.1048C64.8447 59.4115 63.9652 59.6805 63.0829 59.9235C62.6258 60.0479 62.4869 60.2389 62.5997 60.7249C62.863 61.8444 63.0887 62.9756 63.2825 64.1125C63.5081 65.4432 62.5795 66.45 61.3731 66.2243C60.6586 66.0912 60.1552 65.5213 60.0019 64.6187C59.8399 63.6438 59.675 62.6689 59.5767 61.6882C59.5188 61.0952 59.3481 60.9216 58.7377 61.0894C58.0405 61.2803 57.3115 61.3989 56.5912 61.4423C55.813 61.4886 55.2344 61.0489 55.0637 60.4414C54.8728 59.7644 55.1071 59.0643 55.8216 58.7114C56.6374 58.3064 57.5111 58.0026 58.3819 57.7307C58.9026 57.5687 59.0212 57.3228 58.9373 56.8078C58.81 56.021 58.7377 55.2196 58.703 54.4241C58.6712 53.6372 59.0762 53.1165 59.7039 53.0152C60.3115 52.9169 60.864 53.2987 61.0954 54.048C61.2979 54.6989 61.4802 55.3585 61.5901 56.0297C61.6856 56.614 61.9315 56.7037 62.4522 56.533C63.1002 56.3218 63.7627 56.1512 64.431 56.021C64.862 55.9371 65.322 55.8908 65.753 55.9515C66.4878 56.047 66.9912 56.7066 66.9999 57.4414Z" fill="#4A5364"/>
<path d="M435 239.441C435.009 240.185 434.563 240.798 433.707 241.105C432.845 241.411 431.965 241.681 431.083 241.924C430.626 242.048 430.487 242.239 430.6 242.725C430.863 243.844 431.089 244.976 431.282 246.112C431.508 247.443 430.579 248.45 429.373 248.224C428.659 248.091 428.155 247.521 428.002 246.619C427.84 245.644 427.675 244.669 427.577 243.688C427.519 243.095 427.348 242.922 426.738 243.089C426.041 243.28 425.311 243.399 424.591 243.442C423.813 243.489 423.234 243.049 423.064 242.441C422.873 241.764 423.107 241.064 423.822 240.711C424.637 240.306 425.511 240.003 426.382 239.731C426.903 239.569 427.021 239.323 426.937 238.808C426.81 238.021 426.738 237.22 426.703 236.424C426.671 235.637 427.076 235.116 427.704 235.015C428.311 234.917 428.864 235.299 429.095 236.048C429.298 236.699 429.48 237.358 429.59 238.03C429.686 238.614 429.931 238.704 430.452 238.533C431.1 238.322 431.763 238.151 432.431 238.021C432.862 237.937 433.322 237.891 433.753 237.952C434.488 238.047 434.991 238.707 435 239.441Z" fill="#4A5364"/>
<path d="M417 468.812C417.009 469.617 416.527 470.281 415.599 470.614C414.665 470.946 413.712 471.237 412.756 471.5C412.261 471.635 412.111 471.842 412.233 472.369C412.518 473.581 412.763 474.807 412.973 476.039C413.217 477.48 412.211 478.571 410.904 478.326C410.13 478.182 409.585 477.565 409.419 476.587C409.243 475.531 409.065 474.475 408.958 473.412C408.895 472.77 408.71 472.582 408.049 472.763C407.294 472.97 406.504 473.099 405.724 473.146C404.881 473.196 404.254 472.72 404.069 472.061C403.862 471.328 404.116 470.57 404.89 470.187C405.774 469.749 406.72 469.42 407.664 469.125C408.228 468.949 408.356 468.683 408.265 468.125C408.128 467.273 408.049 466.405 408.012 465.543C407.977 464.69 408.416 464.126 409.096 464.017C409.754 463.91 410.353 464.324 410.603 465.135C410.823 465.84 411.02 466.555 411.139 467.282C411.243 467.915 411.509 468.012 412.073 467.827C412.775 467.599 413.493 467.414 414.217 467.273C414.684 467.182 415.182 467.132 415.649 467.198C416.445 467.301 416.99 468.015 417 468.812Z" fill="#4A5364"/>
<path d="M66.9999 472.812C67.0093 473.617 66.5266 474.281 65.599 474.614C64.665 474.946 63.7123 475.237 62.7564 475.5C62.2613 475.635 62.1108 475.842 62.233 476.369C62.5182 477.581 62.7627 478.807 62.9727 480.039C63.2171 481.48 62.2111 482.571 60.9042 482.326C60.1301 482.182 59.5848 481.565 59.4187 480.587C59.2432 479.531 59.0646 478.475 58.958 477.412C58.8954 476.77 58.7104 476.582 58.0492 476.763C57.2939 476.97 56.5041 477.099 55.7238 477.146C54.8807 477.196 54.2539 476.72 54.069 476.061C53.8621 475.328 54.116 474.57 54.8901 474.187C55.7739 473.749 56.7204 473.42 57.6637 473.125C58.2278 472.949 58.3563 472.683 58.2654 472.125C58.1275 471.273 58.0492 470.405 58.0116 469.543C57.9771 468.69 58.4159 468.126 59.0959 468.017C59.7541 467.91 60.3527 468.324 60.6034 469.135C60.8228 469.84 61.0202 470.555 61.1393 471.282C61.2427 471.915 61.5091 472.012 62.0732 471.827C62.7752 471.599 63.4929 471.414 64.2169 471.273C64.6838 471.182 65.1821 471.132 65.6491 471.198C66.4451 471.301 66.9905 472.015 66.9999 472.812Z" fill="#4A5364"/>
<path d="M496.673 43.9699C496.423 42.1588 498.523 40.5533 500.14 41.1133C501.585 41.6137 502.419 42.6771 502.744 44.1695C502.809 44.4674 502.97 44.8189 503.2 45.0006C504.999 46.3947 506.834 47.747 508.645 49.1232C508.993 49.3883 509.285 49.5075 509.759 49.3615C511.215 48.9177 512.624 49.8084 512.949 51.3007C513.232 52.6054 512.306 53.8714 510.879 54.1336C509.559 54.3748 508.225 53.365 508.082 51.9203C508.028 51.3722 507.808 51.0595 507.394 50.7556C505.6 49.433 503.834 48.0717 502.035 46.7581C501.832 46.6091 501.442 46.5525 501.207 46.6359C500.155 47.0172 499.131 47.2972 498.043 46.7432C497.891 46.6657 497.579 46.7849 497.4 46.904C494.019 49.1292 490.65 51.3693 487.278 53.6063C486.956 53.8208 486.646 54.0621 486.31 54.2468C485.625 54.6221 485.109 55.0093 484.96 55.9268C484.773 57.0885 483.587 57.8273 482.428 57.8124C481.237 57.7975 480.242 57.0349 479.953 55.7481C479.81 55.1136 479.482 54.7561 478.991 54.3987C476.438 52.5518 473.915 50.6633 471.359 48.8224C471.118 48.6466 470.686 48.5602 470.406 48.6407C468.949 49.0607 467.421 48.2862 467.07 46.8891C466.712 45.4683 467.773 43.8657 469.229 43.6274C470.936 43.3474 472.205 44.4823 472.214 46.2279C472.214 46.5257 472.405 46.9279 472.64 47.1006C475.184 48.9981 477.758 50.8569 480.313 52.7425C480.65 52.9897 480.891 53.0582 481.264 52.7901C481.988 52.2688 482.756 52.1586 483.566 52.6859C483.727 52.7901 484.082 52.7752 484.248 52.665C488.201 50.0764 492.145 47.473 496.071 44.8457C496.345 44.664 496.476 44.2678 496.673 43.9699Z" fill="#4A5364"/>
<path d="M519.99 417.35C520.889 415.758 523.533 415.754 524.48 417.18C525.325 418.454 525.344 419.805 524.698 421.189C524.569 421.465 524.484 421.842 524.556 422.126C525.142 424.325 525.782 426.513 526.388 428.706C526.504 429.128 526.664 429.399 527.129 429.57C528.557 430.1 529.137 431.663 528.491 433.047C527.925 434.256 526.421 434.701 525.127 434.045C523.931 433.437 523.482 431.825 524.244 430.589C524.534 430.12 524.548 429.738 524.403 429.245C523.779 427.107 523.199 424.953 522.565 422.818C522.494 422.576 522.218 422.295 521.98 422.218C520.913 421.884 519.928 421.486 519.399 420.386C519.325 420.232 519.004 420.138 518.79 420.124C514.752 419.844 510.715 419.583 506.677 419.318C506.291 419.294 505.898 419.298 505.519 419.241C504.746 419.124 504.102 419.12 503.427 419.759C502.573 420.569 501.183 420.438 500.27 419.724C499.332 418.99 499.003 417.78 499.553 416.581C499.824 415.99 499.78 415.507 499.606 414.925C498.695 411.909 497.833 408.877 496.916 405.864C496.831 405.578 496.54 405.247 496.268 405.141C494.855 404.592 494.11 403.05 494.677 401.726C495.254 400.379 497.069 399.748 498.372 400.441C499.899 401.253 500.22 402.925 499.169 404.319C498.989 404.556 498.896 404.991 498.979 405.271C499.852 408.322 500.772 411.361 501.662 414.41C501.779 414.81 501.93 415.011 502.388 415.024C503.28 415.048 503.958 415.426 504.283 416.336C504.348 416.517 504.639 416.72 504.838 416.733C509.551 417.071 514.266 417.391 518.981 417.682C519.309 417.703 519.653 417.468 519.99 417.35Z" fill="#4A5364"/>
<path d="M42.7436 171.842C40.4181 173.496 38.1183 175.133 35.8185 176.77C35.6255 176.905 35.4454 177.063 35.2427 177.179C34.6155 177.532 34.3196 177.925 34.3711 178.777C34.5126 181.125 32.1259 182.746 29.9741 181.891C29.7811 181.814 29.5785 181.752 29.3726 181.711C28.0667 181.447 27.1951 180.691 26.8895 179.395C26.5871 178.124 27.0342 177.027 28.0346 176.262C28.6328 175.805 28.6007 175.426 28.3755 174.824C27.6807 172.965 27.0149 171.093 26.3877 169.208C26.2076 168.671 25.9985 168.439 25.3874 168.385C23.4768 168.214 21.9715 166.558 22.0004 164.782C22.0326 162.855 23.5958 161.128 25.4196 161.006C26.9603 160.903 28.4913 162.135 28.9094 163.946C29.2054 165.226 29.2375 166.5 28.0635 167.471C27.9445 167.568 27.922 167.899 27.9831 168.076C28.7872 170.315 29.601 172.547 30.4534 174.766C30.5402 174.991 30.8651 175.171 31.1192 175.281C31.711 175.538 32.3189 175.773 32.9397 175.953C33.1874 176.027 33.5573 176.04 33.7439 175.905C36.3653 173.991 38.9674 172.058 41.5535 170.096C41.7819 169.922 41.9588 169.555 41.9845 169.266C42.1421 167.478 43.2357 166.265 44.8376 166.175C46.4619 166.085 47.8225 167.188 48.1312 168.912C48.2181 169.398 48.4497 169.62 48.8839 169.784C52.0393 170.971 55.1915 172.161 58.3308 173.39C58.8293 173.586 59.0866 173.393 59.4308 173.123C60.608 172.203 62.2678 172.232 63.5222 173.155C64.8024 174.097 65.3299 175.824 64.7895 177.291C64.2684 178.703 62.9818 179.559 61.499 179.469C60.7013 179.42 60.0838 179.112 59.6013 178.407C58.9837 177.507 58.1764 176.731 58.1571 175.522C58.1539 175.381 57.8451 175.197 57.6457 175.117C54.5739 173.862 51.4925 172.627 48.4207 171.373C48.0348 171.215 47.7967 171.215 47.4944 171.582C46.1145 173.238 44.4226 173.335 42.7436 171.842Z" fill="#4A5364"/>
<path d="M47.9448 333.864C48.5971 334.495 48.6428 335.49 48.044 336.132C47.5309 336.685 46.5406 336.627 45.9115 336.005C45.3411 335.444 45.5159 334.544 46.3525 333.724C46.8193 333.266 47.3747 333.317 47.9448 333.864Z" fill="#4A5364"/>
<path d="M70.8666 285.589C71.774 285.593 72.496 286.279 72.509 287.157C72.522 287.911 71.7675 288.555 70.8828 288.542C70.0828 288.533 69.5852 287.762 69.6209 286.591C69.6405 285.937 70.0763 285.589 70.8666 285.589Z" fill="#4A5364"/>
<path d="M157.247 258C158.155 258.003 158.877 258.689 158.89 259.568C158.903 260.322 158.148 260.966 157.264 260.953C156.464 260.943 155.966 260.173 156.002 259.002C156.021 258.348 156.457 258 157.247 258Z" fill="#4A5364"/>
<path d="M165.247 311C166.155 311.003 166.877 311.689 166.89 312.568C166.903 313.322 166.148 313.966 165.264 313.953C164.464 313.943 163.966 313.173 164.002 312.002C164.021 311.348 164.457 311 165.247 311Z" fill="#4A5364"/>
<path d="M145.247 503C146.155 503.003 146.877 503.689 146.89 504.568C146.903 505.322 146.148 505.966 145.264 505.953C144.464 505.943 143.966 505.173 144.002 504.002C144.021 503.348 144.457 503 145.247 503Z" fill="#4A5364"/>
<path d="M197.247 501C198.155 501.003 198.877 501.689 198.89 502.568C198.903 503.322 198.148 503.966 197.264 503.953C196.464 503.943 195.966 503.173 196.002 502.002C196.021 501.348 196.457 501 197.247 501Z" fill="#4A5364"/>
<path d="M285.247 524C286.155 524.003 286.877 524.689 286.89 525.568C286.903 526.322 286.148 526.966 285.264 526.953C284.464 526.943 283.966 526.173 284.002 525.002C284.021 524.348 284.457 524 285.247 524Z" fill="#4A5364"/>
<path d="M335.247 504C336.155 504.003 336.877 504.689 336.89 505.568C336.903 506.322 336.148 506.966 335.264 506.953C334.464 506.943 333.966 506.173 334.002 505.002C334.021 504.348 334.457 504 335.247 504Z" fill="#4A5364"/>
<path d="M438.247 500C439.155 500.003 439.877 500.689 439.89 501.568C439.903 502.322 439.148 502.966 438.264 502.953C437.464 502.943 436.966 502.173 437.002 501.002C437.021 500.348 437.457 500 438.247 500Z" fill="#4A5364"/>
<path d="M489.247 484C490.155 484.003 490.877 484.689 490.89 485.568C490.903 486.322 490.148 486.966 489.264 486.953C488.464 486.943 487.966 486.173 488.002 485.002C488.021 484.348 488.457 484 489.247 484Z" fill="#4A5364"/>
<path d="M439.247 351C440.155 351.003 440.877 351.689 440.89 352.568C440.903 353.322 440.148 353.966 439.264 353.953C438.464 353.943 437.966 353.173 438.002 352.002C438.021 351.348 438.457 351 439.247 351Z" fill="#4A5364"/>
<path d="M486.247 157C487.155 157.003 487.877 157.689 487.89 158.568C487.903 159.322 487.148 159.966 486.264 159.953C485.464 159.943 484.966 159.173 485.002 158.002C485.021 157.348 485.457 157 486.247 157Z" fill="#4A5364"/>
<path d="M516.247 113C517.155 113.003 517.877 113.689 517.89 114.568C517.903 115.322 517.148 115.966 516.264 115.953C515.464 115.943 514.966 115.173 515.002 114.002C515.021 113.348 515.457 113 516.247 113Z" fill="#4A5364"/>
<path d="M393.247 40C394.155 40.0033 394.877 40.6895 394.89 41.5676C394.903 42.3221 394.148 42.9661 393.264 42.9531C392.464 42.9433 391.966 42.1725 392.002 41.0017C392.021 40.348 392.457 40 393.247 40Z" fill="#4A5364"/>
<path d="M150.247 148C151.155 148.003 151.877 148.689 151.89 149.568C151.903 150.322 151.148 150.966 150.264 150.953C149.464 150.943 148.966 150.173 149.002 149.002C149.021 148.348 149.457 148 150.247 148Z" fill="#4A5364"/>
<path d="M142.247 96C143.155 96.0033 143.877 96.6895 143.89 97.5676C143.903 98.3221 143.148 98.9661 142.264 98.9531C141.464 98.9433 140.966 98.1725 141.002 97.0017C141.021 96.348 141.457 96 142.247 96Z" fill="#4A5364"/>
<path d="M210.111 31C211.646 31.0055 212.868 32.1666 212.89 33.6524C212.912 34.9291 211.635 36.0187 210.138 35.9967C208.784 35.9802 207.943 34.676 208.003 32.6949C208.036 31.5888 208.773 31 210.111 31Z" fill="#4A5364"/>
<path d="M135.247 29C136.155 29.0033 136.877 29.6895 136.89 30.5676C136.903 31.3221 136.148 31.9661 135.264 31.9531C134.464 31.9433 133.966 31.1725 134.002 30.0017C134.021 29.348 134.457 29 135.247 29Z" fill="#4A5364"/>
<path d="M488.704 286.023C492.472 286.054 495.598 286.647 498.609 287.828C498.873 287.932 499.069 287.91 499.323 287.775C504.004 285.286 508.796 283.087 514.094 282.252C515.92 281.964 517.749 281.859 519.575 282.284C523.001 283.079 524.976 285.541 525 289.057C525.013 291.036 524.543 292.918 523.852 294.754C522.669 297.897 520.997 300.777 519.069 303.509C517.924 305.13 516.698 306.692 515.492 308.271C515.293 308.531 515.236 308.763 515.248 309.101C515.272 309.744 515.208 310.396 515.12 311.038C514.375 316.514 512.537 321.574 509.255 326.053C505.732 330.863 501.184 334.262 495.375 335.838C491.823 336.8 488.236 336.892 484.635 336.106C484.194 336.009 483.755 335.878 483.335 335.713C483.041 335.598 482.811 335.621 482.541 335.771C479.894 337.248 477.172 338.573 474.347 339.675C471.355 340.841 468.288 341.731 465.064 341.958C463.535 342.067 462.024 341.964 460.56 341.475C457.763 340.541 456.086 338.265 456.004 335.312C455.943 333.106 456.526 331.036 457.377 329.039C458.942 325.365 460.974 321.961 463.508 318.87C463.978 318.298 464.546 317.8 465.099 317.302C465.287 317.132 465.242 316.993 465.192 316.818C464.76 315.279 464.504 313.71 464.381 312.117C464.063 308.042 464.729 304.126 466.494 300.453C470.431 292.269 476.993 287.608 485.938 286.262C487.027 286.097 488.136 286.07 488.704 286.023ZM507.374 297.944C507.113 297.787 506.868 297.671 506.661 297.507C506.443 297.332 506.255 297.118 506.062 296.912C500.72 291.189 494.149 288.667 486.368 289.546C477.279 290.574 469.902 297.367 468.022 306.32C467.18 310.328 467.344 314.292 468.781 318.156C469.527 320.163 470.542 322.037 471.741 323.811C472.338 324.694 472.967 325.557 473.517 326.469C473.715 326.797 473.844 326.818 474.156 326.683C476.816 325.523 479.347 324.12 481.749 322.505C488.338 318.072 494.412 313.011 499.959 307.323C502.645 304.569 505.081 301.615 507.14 298.358C507.223 298.227 507.293 298.088 507.374 297.944ZM466.09 319.7C466.006 319.795 465.941 319.849 465.899 319.919C464.462 322.228 462.984 324.513 461.606 326.857C460.69 328.414 460.069 330.114 459.626 331.871C459.34 333.005 459.164 334.152 459.292 335.328C459.478 337.038 460.312 338.042 461.99 338.442C462.616 338.591 463.272 338.667 463.917 338.682C466.114 338.735 468.225 338.228 470.299 337.57C474.692 336.178 478.807 334.165 482.767 331.832C492.015 326.384 500.312 319.735 507.751 312.005C511.363 308.251 514.727 304.298 517.519 299.885C518.996 297.549 520.33 295.137 521.143 292.475C521.485 291.359 521.741 290.224 521.704 289.043C521.64 287.055 520.657 285.872 518.701 285.488C517.226 285.197 515.747 285.273 514.277 285.538C510.268 286.264 506.56 287.832 502.924 289.601C502.842 289.64 502.776 289.709 502.66 289.797C503.056 290.059 503.425 290.274 503.76 290.536C504.023 290.743 504.251 290.735 504.531 290.589C504.89 290.404 505.251 290.181 505.637 290.104C506.901 289.852 508.175 289.83 509.424 290.194C510.806 290.598 511.667 291.508 511.917 292.945C512.074 293.849 511.911 294.726 511.643 295.59C510.741 298.509 509.277 301.112 507.383 303.506C503.974 307.816 500.203 311.782 496.139 315.47C491.411 319.759 486.304 323.539 480.788 326.754C478.772 327.929 476.682 328.95 474.48 329.735C472.857 330.313 471.206 330.696 469.472 330.514C468.186 330.378 467.189 329.8 466.697 328.537C466.428 327.844 466.39 327.124 466.524 326.401C466.72 325.333 467.003 324.298 467.799 323.484C467.854 323.427 467.835 323.237 467.785 323.142C467.544 322.674 467.262 322.227 467.032 321.754C466.71 321.098 466.42 320.423 466.09 319.7ZM487.118 333.091C487.287 333.144 487.362 333.185 487.44 333.188C488.309 333.227 489.18 333.313 490.046 333.286C495.019 333.132 499.334 331.296 503.025 328.013C507.44 324.089 510.031 319.098 511.348 313.396C511.365 313.323 511.35 313.245 511.35 313.082C504.061 320.75 496.051 327.421 487.118 333.091ZM469.016 325.06C468.852 325.601 468.7 326.142 468.825 326.705C468.87 326.909 468.986 327.121 469.129 327.275C469.564 327.737 470.794 327.847 471.34 327.507C470.581 326.707 469.819 325.905 469.016 325.06ZM507.217 293.129C507.207 293.18 507.198 293.23 507.187 293.281C507.751 293.876 508.314 294.471 508.917 295.108C509.12 294.536 509.183 294.021 509.087 293.495C509.037 293.225 508.891 292.989 508.582 293.001C508.126 293.02 507.672 293.085 507.217 293.129Z" fill="#4A5364"/>
</svg>
