<svg width="380" height="380" viewBox="0 0 380 380" fill="none" xmlns="http://www.w3.org/2000/svg">
<path fill-rule="evenodd" clip-rule="evenodd" d="M64.782 283.349C64.7304 283.328 64.6835 283.311 64.6406 283.294C64.5536 283.261 64.4829 283.235 64.4225 283.195C63.4157 282.52 63.0858 281.535 63.6446 280.452C64.0027 279.755 64.4653 279.062 65.0327 278.532C67.5253 276.207 70.336 274.437 73.7792 273.881C73.8216 273.874 73.8619 273.859 73.9275 273.834C73.9699 273.819 74.0232 273.799 74.0943 273.774C73.9945 273.701 73.9029 273.631 73.8154 273.564C73.635 273.425 73.4744 273.301 73.3022 273.199C72.4984 272.714 71.692 272.232 70.8862 271.749L70.8855 271.749C69.8309 271.118 68.7763 270.486 67.7256 269.849C67.2831 269.581 66.8426 269.298 66.4438 268.972C65.7929 268.443 65.68 267.801 66.0395 267.041C67.0908 264.822 68.7593 263.168 70.8424 261.933C75.2309 259.332 79.9583 258.395 84.9933 259.28C85.8059 259.423 86.3513 259.275 86.9965 258.811C90.543 256.267 94.2958 254.084 98.4334 252.628C105.471 250.153 112.614 249.37 119.918 251.358C122.112 251.956 124.191 252.8 126.103 254.06C127.038 254.677 127.51 255.457 127.686 256.576C128.209 259.879 127.654 263.017 126.518 266.11C123.377 274.65 117.595 280.907 109.789 285.369C108.108 286.329 106.356 287.167 104.604 288.003C103.932 288.324 103.261 288.646 102.592 288.974C102.298 289.118 102.216 289.272 102.138 289.605C102.128 289.648 102.119 289.689 102.108 289.732C102.095 289.789 102.081 289.847 102.067 289.905C101.855 290.811 101.636 291.742 101.198 292.538C99.3356 295.911 96.5491 298.37 93.1804 300.175C90.8867 301.404 88.4618 302.235 85.8169 302.233C85.4943 302.232 85.171 302.194 84.8505 302.156L84.7671 302.147C83.5881 302.007 83.0168 301.211 83.1849 300.009C83.4747 297.924 83.7542 295.838 84.0337 293.753L84.1991 292.521C84.2073 292.456 84.2039 292.389 84.1985 292.3C84.1957 292.247 84.1923 292.185 84.1909 292.111C83.9237 292.317 83.7235 292.472 83.5232 292.625L83.5198 292.628C81.2418 294.397 78.8347 295.951 76.1146 296.956C75.3894 297.224 74.624 297.414 73.8599 297.528C72.033 297.8 71.2491 297.249 70.798 295.432C70.5766 295.455 70.3544 295.481 70.1316 295.507C69.6149 295.567 69.0948 295.627 68.5727 295.667C66.9832 295.785 65.456 295.617 63.9673 294.929C61.9427 293.996 60.9922 292.085 61.3691 289.861C61.7479 287.622 62.9069 285.755 64.262 283.987C64.3602 283.855 64.4661 283.728 64.5976 283.571C64.6539 283.504 64.7149 283.431 64.782 283.349ZM109.372 252.539C108.935 252.578 108.492 252.617 108.053 252.677C103.578 253.308 99.3062 254.631 95.2314 256.562C89.107 259.462 83.854 263.47 79.7314 268.904C79.1136 269.719 78.791 270.438 79.2058 271.462C79.605 272.447 79.9405 273.457 80.2761 274.467C80.419 274.896 80.5618 275.325 80.7094 275.752C80.8352 276.119 81.0334 276.145 81.3888 276C81.5972 275.915 81.8057 275.829 82.0141 275.744C83.1412 275.281 84.2702 274.818 85.4287 274.454C87.5296 273.791 89.6962 273.529 91.9017 273.798C92.7163 273.897 92.9494 274.283 92.7389 275.065C92.188 277.114 91.0802 278.825 89.5075 280.217C88.4441 281.159 87.3218 282.037 86.2003 282.914C86.0383 283.041 85.8763 283.168 85.715 283.294C85.4403 283.509 85.3822 283.676 85.5285 283.982C86.5352 286.083 87.8864 287.921 89.6804 289.412C89.9388 289.627 90.3461 289.76 90.6865 289.767C92.9972 289.818 95.2684 289.518 97.4862 288.862C102.666 287.33 107.445 285.018 111.776 281.745C115.213 279.15 118.429 276.362 120.878 272.779C120.956 272.666 121.03 272.55 121.104 272.434L121.105 272.433C121.146 272.368 121.188 272.304 121.229 272.24C121.071 272.117 120.909 272.004 120.752 271.893C120.413 271.656 120.09 271.429 119.844 271.138C118.729 269.806 117.617 268.465 116.617 267.048C113.515 262.646 111.033 257.94 109.956 252.485C109.763 252.505 109.568 252.522 109.372 252.539ZM80.9842 286.064C80.7381 286.151 80.4948 286.237 80.2529 286.322L80.2522 286.323C79.7519 286.498 79.2598 286.672 78.7691 286.849C77.2512 287.396 75.6813 287.664 74.0752 287.522C72.8019 287.409 72.0173 286.782 72.3611 285.397C72.5716 284.543 72.8463 283.684 73.2461 282.907C74.054 281.337 75.2924 280.1 76.6463 278.986C76.9539 278.733 76.9894 278.538 76.7809 278.205C76.3326 277.483 75.8822 276.756 75.5145 275.993C75.3163 275.58 75.114 275.47 74.7135 275.636C74.1907 275.851 73.6637 276.058 73.1375 276.266C71.9441 276.737 70.7495 277.208 69.5944 277.758C68.24 278.401 67.0042 279.28 66.0262 280.453C65.8854 280.621 65.7662 280.806 65.6288 281.02C65.5567 281.132 65.4796 281.253 65.3917 281.382L65.5873 281.398C65.9442 281.428 66.2072 281.45 66.4698 281.471C67.0281 281.512 67.475 281.779 67.5506 282.332C67.6005 282.697 67.5046 283.161 67.3053 283.47C66.8573 284.163 66.3738 284.833 65.8904 285.502L65.8903 285.503C65.6367 285.854 65.383 286.206 65.1347 286.56C64.3098 287.739 63.6273 288.985 63.4549 290.445C63.286 291.885 64.0215 292.895 65.4399 293.176C66.9137 293.47 68.3909 293.402 69.8569 293.135C70.2451 293.065 70.6278 292.969 71.0105 292.873C71.3092 292.798 71.6072 292.724 71.9079 292.661C72.4417 292.549 72.9071 292.703 73.2297 293.158C73.5468 293.603 73.4942 294.063 73.2277 294.515C73.2119 294.542 73.1955 294.568 73.1785 294.594C73.145 294.646 73.1115 294.698 73.0862 294.753C72.8743 295.225 73.0049 295.465 73.5031 295.378C74.1182 295.271 74.7415 295.127 75.3143 294.889C78.1738 293.693 80.5912 291.843 82.8411 289.745C83.1842 289.424 83.2478 289.203 82.973 288.833C82.4939 288.184 82.0278 287.529 81.5549 286.864C81.3662 286.599 81.1762 286.333 80.9842 286.064ZM124.144 267.227V267.226C124.375 266.691 124.598 266.17 124.779 265.634C125.83 262.525 126.391 259.358 125.696 256.08C125.644 255.835 125.435 255.541 125.215 255.422C122.013 253.673 118.591 252.675 114.945 252.459C114.84 252.453 114.734 252.459 114.628 252.466C114.576 252.469 114.524 252.472 114.472 252.474C114.914 255.55 121.523 266.634 123.805 268.031C123.917 267.756 124.031 267.49 124.144 267.227ZM75.3758 272.123C77.5997 267.605 80.7033 263.977 84.4636 260.757C84.3522 260.729 84.26 260.705 84.1807 260.684C84.0419 260.648 83.9415 260.621 83.839 260.604C83.6209 260.568 83.4002 260.532 83.1801 260.528C80.2782 260.476 77.4678 260.951 74.7613 262.007C72.4533 262.907 70.377 264.164 68.7251 266.037C68.4414 266.357 68.2024 266.715 67.9554 267.085C67.8365 267.263 67.7158 267.443 67.5875 267.624C68.9506 268.413 70.2868 269.184 71.6181 269.952L71.6284 269.959C72.8757 270.678 74.1189 271.396 75.3758 272.123ZM85.2728 300.064C85.3767 300.07 85.469 300.078 85.5531 300.085C85.7082 300.099 85.836 300.109 85.9631 300.107C88.17 300.085 90.1828 299.374 92.0876 298.325C95.349 296.529 98.0938 294.191 99.8229 290.815C99.9158 290.635 99.9937 290.447 100.065 290.274C100.097 290.196 100.128 290.12 100.158 290.05C99.4641 290.192 98.7752 290.336 98.0903 290.48C96.5225 290.809 94.9745 291.134 93.4169 291.412C91.156 291.816 88.8644 291.9 86.5864 291.671C86.2017 294.138 85.8237 296.55 85.4403 298.995L85.2728 300.064ZM90.8731 275.258C90.4773 275.322 90.0885 275.378 89.7044 275.433C88.8794 275.551 88.0798 275.665 87.2972 275.85C83.6941 276.7 80.4265 278.271 77.5642 280.636C76.1057 281.838 74.8598 283.221 74.1606 285.023C74.1134 285.146 74.0752 285.271 74.0321 285.414C74.0061 285.498 73.9788 285.587 73.9467 285.685C76.4153 285.764 78.6645 285.303 80.6513 283.99C81.6307 283.344 82.5848 282.659 83.5389 281.975C84.737 281.116 85.9344 280.257 87.181 279.474C88.3716 278.725 89.1658 277.672 89.9634 276.615C90.1917 276.313 90.4199 276.009 90.6585 275.713C90.7254 275.631 90.7658 275.527 90.8088 275.416C90.8286 275.365 90.8491 275.312 90.8731 275.258ZM122.984 269.518C121.391 268.386 120.174 266.967 119.098 265.433C117.114 262.609 115.516 259.56 114.153 256.398C113.825 255.637 113.564 254.849 113.302 254.062C113.151 253.606 113 253.151 112.836 252.701C112.787 252.57 112.619 252.415 112.486 252.395C112.305 252.365 112.118 252.377 111.909 252.39C111.817 252.397 111.722 252.403 111.62 252.406C111.642 252.494 111.66 252.573 111.678 252.647C111.716 252.806 111.746 252.937 111.785 253.067C112.593 255.754 113.748 258.293 115.041 260.777C116.831 264.214 118.871 267.459 121.84 270.026C121.966 270.133 122.097 270.234 122.243 270.347C122.3 270.391 122.358 270.437 122.421 270.486C122.591 270.19 122.736 269.941 122.878 269.698L122.984 269.518ZM87.6021 289.887C87.3499 289.598 87.099 289.325 86.8557 289.059C86.3315 288.488 85.8387 287.95 85.4232 287.357C84.996 286.748 84.6468 286.084 84.2935 285.413C84.1383 285.118 83.9825 284.822 83.8191 284.528L83.7487 284.567C83.2457 284.844 82.7092 285.138 82.1433 285.452C82.3955 285.806 82.645 286.156 82.8931 286.505L82.8958 286.51C83.6175 287.524 84.3256 288.519 85.0459 289.506C85.1526 289.653 85.3719 289.781 85.5496 289.797C86.013 289.835 86.4785 289.85 86.9699 289.866C87.1749 289.872 87.3854 289.879 87.6021 289.887ZM78.3167 277.712V277.712C78.5299 277.57 78.7049 277.454 78.8894 277.359C79.2373 277.181 79.2926 276.996 79.1272 276.614C78.78 275.821 78.4944 275 78.2182 274.177C78.0775 273.755 77.9613 273.325 77.8451 272.895V272.895C77.7918 272.698 77.7385 272.5 77.6831 272.304C77.6592 272.302 77.6353 272.299 77.6113 272.297C77.5874 272.295 77.5635 272.292 77.5396 272.29C77.4316 272.511 77.3222 272.732 77.2136 272.953L77.2129 272.953C76.932 273.523 76.6511 274.093 76.3777 274.666C76.3381 274.75 76.3545 274.895 76.3989 274.983C76.7755 275.703 77.1575 276.418 77.5573 277.166C77.6927 277.419 77.83 277.676 77.9702 277.939C78.0986 277.857 78.2121 277.781 78.3167 277.712ZM101.516 258.587C107.732 257.527 113.176 262.121 114.074 267.577C114.954 272.925 111.477 279.087 104.887 280.288C98.3617 281.477 93.3096 276.946 92.4026 271.764C91.2503 265.189 95.4242 259.487 101.516 258.587ZM111.997 267.719C111.736 266.051 111.131 264.494 109.98 263.277C107.416 260.569 104.255 259.714 100.696 260.834C96.4309 262.176 92.4628 266.994 94.5972 273.007C96.2197 277.576 101.585 279.973 106.188 278.158C110.401 276.499 112.708 272.351 111.997 267.719ZM105.37 276.35C108.842 275.103 110.934 271.731 110.47 268.229C110.388 268 110.312 267.767 110.236 267.534C110.072 267.028 109.907 266.521 109.668 266.051C107.442 261.64 101.588 260.715 97.8621 264.192C95.6381 266.269 94.6936 268.789 95.6812 271.772C96.9127 275.499 101.635 277.689 105.37 276.35ZM107.55 270.72C107.015 272.449 105.69 273.319 104.291 273.674C101.086 274.16 98.7963 272.903 97.644 270.211C97.3741 269.583 97.3214 268.93 97.5155 268.26C98.1327 266.11 99.9022 264.666 102.155 264.454C103.831 264.299 105.316 264.71 106.543 265.891C107.972 267.266 108.097 268.949 107.55 270.72Z" fill="#4A5364"/>
<path d="M230.399 267.887C230.399 268.336 230.402 268.681 230.399 269.025C230.352 272.937 230.294 276.849 230.276 280.761C230.276 281.016 230.531 281.478 230.71 281.5C232.265 281.69 233.83 281.798 235.545 281.945C235.66 280.538 235.875 279.182 235.853 277.829C235.81 275.058 235.649 272.291 235.516 269.524C235.44 267.909 235.807 267.557 237.371 267.536C242.801 267.471 248.03 266.444 252.994 264.191C253.152 264.119 253.296 264.026 253.536 263.893C253.421 263.57 253.31 263.261 253.202 262.96C251.444 263.495 249.775 264.112 248.056 264.507C238.617 266.671 229.903 264.733 221.943 259.446C218.968 257.469 216.143 255.179 213.563 252.706C207.602 246.997 204.156 239.919 203.166 231.722C202.646 227.419 203.137 223.217 205.172 219.294C205.291 219.067 205.355 218.817 205.445 218.583C203.277 217.266 202.509 215.289 203.227 212.5C204.408 207.921 207.494 204.892 211.528 202.727C213.06 201.906 214.733 201.504 216.51 201.633C218.02 201.74 219.291 202.25 220.159 203.679C220.475 203.502 220.773 203.345 221.063 203.172C223.282 201.852 225.578 200.667 228.141 200.251C231.209 199.756 234.26 199.085 237.418 199.225C243.695 199.505 249.448 201.41 254.695 204.798C263.394 210.415 269.32 218.12 271.789 228.259C273.343 234.643 272.963 240.934 270.203 246.997C270.098 247.226 270.149 247.735 270.31 247.85C272.633 249.469 272.955 251.737 272.342 254.232C271.322 258.366 268.627 261.302 265.268 263.699C263.466 264.987 261.475 265.87 259.257 266.175C257.771 266.38 256.354 266.222 255.032 265.44C254.831 265.321 254.447 265.282 254.264 265.393C251.163 267.277 247.708 268.102 244.201 268.741C241.879 269.165 239.543 269.51 237.031 269.097C237.189 270.119 237.39 271.045 237.468 271.979C238.107 279.264 237.088 286.284 234.012 292.955C233.61 293.824 233.044 294.618 232.548 295.443C231.181 297.725 228.439 297.908 226.694 297.291C226.508 297.226 226.318 297.166 226.077 297.083C225.019 299.954 223.974 302.786 222.955 305.553C223.935 306.296 224.972 306.959 225.858 307.785C227.089 308.933 227.434 310.365 226.702 311.571C226.254 312.31 225.575 313.1 224.814 313.419C223.196 314.102 221.484 314.736 219.754 314.956C214.593 315.605 209.651 314.65 204.982 312.35C203.758 311.747 202.764 310.868 202.115 309.633C201.476 308.417 201.525 307.186 202.186 306.037C202.617 305.29 202.85 304.627 202.789 303.715C202.696 302.298 202.907 300.862 202.968 299.434C203.022 298.196 203.134 298.135 201.791 297.952C200.18 297.732 198.59 297.363 197.022 297.065C196.86 298.586 196.695 300.051 196.566 301.518C196.548 301.727 196.677 301.964 196.781 302.161C197.872 304.178 197.503 306.009 195.669 307.404C194.021 308.654 192.109 309.303 190.095 309.558C185.286 310.168 180.552 309.748 175.93 308.244C175.431 308.083 174.918 307.964 174.419 307.803C172.168 307.071 170.776 305.054 171.071 302.969C171.379 300.797 173.241 299.247 175.65 299.165C175.88 299.157 176.109 299.165 176.425 299.165C176.476 298.264 176.5 297.395 176.579 296.534C176.834 293.774 177.1 291.014 177.383 288.258C177.441 287.705 177.326 287.447 176.726 287.289C175.137 286.873 174.175 285.714 173.533 284.267C172.546 282.049 172.621 279.713 172.883 277.376C173.36 273.174 174.842 269.305 176.726 265.544C177.218 264.561 177.179 263.305 177.351 262.167C178.13 256.998 179.457 252 181.949 247.373C182.454 246.429 183.132 245.572 183.8 244.728C184.098 244.355 184.54 243.96 184.978 243.863C185.954 243.648 186.086 243.013 186.09 242.212C186.097 239.176 186.327 236.122 186.04 233.114C185.831 230.94 185.512 228.776 185.613 226.59C185.788 222.836 186.302 219.125 188.071 215.755C188.817 214.338 189.89 213.06 190.974 211.861C191.462 211.323 192.317 211.083 193.045 210.813C193.469 210.655 193.645 210.523 193.637 210.038C193.584 206.392 193.558 202.742 193.533 199.095C193.512 195.883 193.476 192.672 193.498 189.459C193.515 186.542 193.584 183.62 193.673 180.702C193.699 179.931 193.444 179.698 192.675 179.715C191.484 179.744 190.289 179.623 189.094 179.597C188.351 179.583 187.891 179.206 187.852 178.513C187.781 177.268 187.755 176.008 187.827 174.763C187.87 174.059 187.705 173.808 186.991 173.694C182.361 172.968 177.875 171.662 173.59 169.81C158.668 163.361 147.689 152.846 141.114 137.894C138.451 131.836 136.93 125.484 136.302 118.887C135.354 108.979 136.678 99.3783 140.568 90.259C148.536 71.5822 162.278 59.2331 182.078 54.3809C207.347 48.1865 232.724 58.7234 246.846 80.7344C251.311 87.6967 254.404 95.2154 255.764 103.391C261.342 136.896 239.629 166.107 209.909 172.86C206.988 173.525 203.984 173.834 201.009 174.257C200.428 174.339 200.216 174.49 200.23 175.104C200.256 176.095 200.216 177.092 200.108 178.075C200.001 179.084 199.239 179.676 198.242 179.661C196.146 179.629 196.089 179.633 196.095 181.628C196.124 187.905 196.207 194.182 196.25 200.459C196.272 203.438 196.365 206.424 196.2 209.392C196.128 210.641 196.311 211.359 197.366 212.138C199.046 213.379 199.943 215.271 200.618 217.23C202.115 221.573 202.344 226.037 202.233 230.606C202.168 233.244 202.595 235.979 203.284 238.541C205.829 248.012 210.871 255.858 219.043 261.495C223.005 264.227 227.394 265.867 232.193 266.38C232.455 266.409 232.771 266.394 232.953 266.538C233.212 266.739 233.549 267.091 233.521 267.342C233.492 267.597 233.079 267.992 232.814 268.013C232.064 268.052 231.306 267.941 230.399 267.887ZM180.509 274.304C180.463 274.692 180.444 274.803 180.438 274.918C180.047 279.684 179.673 284.453 179.257 289.22C178.995 292.213 178.672 295.199 178.37 298.188C178.327 298.626 178.406 298.878 178.937 298.945C183.854 299.563 188.771 300.191 193.684 300.858C194.539 300.973 194.847 300.661 194.886 299.875C194.944 298.741 195.027 297.607 195.102 296.469C195.177 295.353 195.676 294.811 196.677 294.94C198.845 295.224 201.002 295.579 203.159 295.916C204.142 296.071 204.784 296.627 204.838 297.639C204.928 299.297 204.975 300.959 204.956 302.617C204.95 303.256 205.101 303.442 205.757 303.518C210.423 304.034 215.088 304.584 219.743 305.187C220.644 305.305 221.071 305.154 221.387 304.225C223.084 299.232 224.864 294.266 226.616 289.291C226.96 288.308 227.301 287.325 227.7 286.176C211.937 282.214 196.272 278.27 180.509 274.304ZM200.481 232.282C199.43 232.339 198.328 232.408 197.227 232.462C194.37 232.598 191.513 232.73 188.656 232.859C188.2 232.881 187.827 232.878 187.834 233.559C187.867 236.739 187.938 239.919 187.805 243.096C187.576 248.647 186.729 254.12 185.34 259.5C184.701 261.98 184.066 264.481 182.687 266.692C182.34 267.249 181.902 267.751 181.5 268.282C190.056 270.436 198.536 272.571 207.02 274.71C208.441 270.766 209.859 266.879 211.223 262.974C211.32 262.698 211.126 262.203 210.907 261.948C209.35 260.132 207.659 258.423 206.188 256.543C203.97 253.708 202.039 250.675 201.117 247.129C200.711 245.572 200.481 243.91 201.651 242.632C202.319 241.9 202.301 241.333 202.035 240.569C201.967 240.379 201.914 240.177 201.874 239.976C201.422 237.46 200.966 234.941 200.481 232.282ZM164.592 99.4247C164.474 98.6285 164.409 97.6307 164.173 96.6759C162.949 91.7735 158.362 89.5591 153.751 91.6224C151.389 92.6777 149.58 94.3829 148.173 96.5214C145.959 99.884 145.281 103.534 145.844 107.543C146.268 110.547 148.708 113.239 151.741 113.576C154.131 113.842 156.256 113.17 158.158 111.796C162.296 108.799 164.245 104.636 164.592 99.4247ZM234.978 200.607C234.963 200.704 234.953 200.804 234.938 200.9C235.15 200.972 235.354 201.066 235.57 201.116C238.667 201.841 241.553 203.108 244.252 204.752C256.859 212.439 264.966 223.582 269.291 237.594C269.657 238.782 269.919 240.005 270.296 241.466C270.433 240.881 270.522 240.554 270.583 240.217C271.358 235.77 271.161 231.341 269.772 227.071C265.175 212.938 255.596 204.228 241.011 201.17C239.048 200.757 236.991 200.782 234.978 200.607ZM223.594 203.711C223.702 203.732 223.813 203.768 223.92 203.768C227.879 203.84 231.687 204.741 235.326 206.201C246.089 210.533 254.422 217.779 260.437 227.667C263.574 232.82 265.784 238.351 266.549 244.387C266.721 245.733 266.811 247.09 266.965 248.737C267.726 247.427 268.369 246.343 268.986 245.245C269.062 245.112 269.025 244.904 269 244.735C268.875 243.96 268.749 243.182 268.595 242.41C266.294 230.99 260.879 221.261 252.524 213.192C246.39 207.271 239.306 203.108 230.747 201.658C227.944 201.184 225.772 202.243 223.594 203.711ZM200.302 227.563C200.169 223.96 199.685 219.796 197.696 215.982C197.208 215.041 196.551 214.14 195.798 213.397C194.735 212.353 193.379 212.324 192.227 213.261C191.559 213.803 190.906 214.46 190.501 215.202C187.956 219.857 187.048 224.864 187.486 230.136C187.554 230.947 187.906 231.155 188.728 231.097C191.782 230.882 194.843 230.732 197.905 230.613C200.299 230.52 200.299 230.56 200.302 227.563ZM208.733 275.241C215.236 276.877 221.62 278.485 228.195 280.143C228.195 276.709 228.195 273.475 228.195 270.486C226.971 270.529 225.729 270.708 224.52 270.579C223.529 270.471 222.542 270.073 221.613 269.671C218.616 268.372 215.993 266.477 213.524 264.363C213.294 264.169 213.053 263.99 212.748 263.749C211.399 267.611 210.093 271.343 208.733 275.241ZM227.761 284.568C227.864 283.876 227.947 283.337 228.026 282.799C228.162 281.905 227.825 281.489 226.888 281.252C221.659 279.938 216.452 278.543 211.237 277.179C201.626 274.667 192.015 272.155 182.397 269.667C181.884 269.535 181.288 269.592 180.753 269.685C179.917 269.832 179.213 270.568 179.221 271.157C179.224 271.878 180.053 272.843 180.836 273.012C182.088 273.285 183.352 273.508 184.597 273.816C196.279 276.716 207.957 279.63 219.636 282.541C222.287 283.201 224.94 283.865 227.761 284.568ZM216.814 313.294C217.629 313.294 218.472 313.419 219.258 313.269C220.819 312.971 222.42 312.684 223.881 312.088C225.776 311.313 225.927 309.856 224.373 308.496C223.432 307.67 222.434 307.175 221.028 307.049C215.867 306.597 210.728 305.858 205.585 305.208C204.21 305.036 204.21 305.011 203.593 306.292C203.492 306.5 203.399 306.715 203.331 306.938C203.054 307.835 203.525 309.461 204.296 309.942C205.33 310.588 206.385 311.234 207.505 311.704C210.473 312.949 213.613 313.365 216.814 313.294ZM186.115 308.086C187.285 307.935 189.115 307.771 190.917 307.447C192.471 307.168 194.04 306.737 195.084 305.434C195.443 304.989 195.622 304.268 195.597 303.686C195.564 302.947 194.811 303.285 194.384 303.224C188.416 302.355 182.443 301.512 176.476 300.668C174.796 300.431 173.192 301.389 172.815 302.84C172.463 304.192 173.421 305.582 175.101 306.181C178.449 307.376 181.909 307.925 186.115 308.086ZM185.774 245.672C185.702 245.636 185.627 245.604 185.555 245.568C185.34 245.773 185.071 245.945 184.916 246.189C184.339 247.097 183.717 247.99 183.258 248.956C181.252 253.176 180.14 257.666 179.39 262.26C179.192 263.462 179.228 264.786 178.708 265.831C177.071 269.115 175.858 272.524 175.094 276.095C174.627 278.274 174.412 280.48 175.033 282.677C175.309 283.65 175.729 284.539 176.629 285.103C177.387 285.577 177.624 285.466 177.735 284.604C178.187 281.137 178.647 277.674 179.07 274.204C179.102 273.945 178.915 273.612 178.74 273.378C177.441 271.656 177.466 270.5 178.858 268.845C180.753 266.588 182.25 264.115 183.072 261.258C184.35 256.819 185.096 252.283 185.591 247.7C185.667 247.025 185.713 246.347 185.774 245.672ZM254.581 262.199C254.935 263.294 255.546 264.155 256.608 264.367C257.609 264.564 258.747 264.719 259.694 264.438C265.146 262.827 268.764 259.252 270.447 253.808C270.669 253.087 270.637 252.244 270.554 251.475C270.433 250.363 269.776 249.577 268.66 249.114C265.157 254.755 260.531 259.174 254.581 262.199ZM218.763 204.371C218.142 203.783 217.403 203.395 216.477 203.355C214.998 203.295 213.656 203.747 212.386 204.436C208.804 206.385 206.181 209.159 205.097 213.175C204.669 214.757 205.036 216.172 206.335 217.104C208.255 214.85 210.046 212.511 212.092 210.415C214.163 208.297 216.481 206.421 218.763 204.371ZM202.757 243.364C202.649 243.375 202.541 243.389 202.434 243.4C202.434 244.107 202.294 244.854 202.463 245.518C202.807 246.867 203.184 248.234 203.783 249.484C205.98 254.074 209.192 257.921 212.859 261.392C215.687 264.065 218.688 266.545 222.291 268.124C223.493 268.652 224.832 268.95 226.142 269.111C227.333 269.258 227.883 268.659 228.127 267.457C215.551 263.767 207.4 255.42 202.757 243.364ZM226.4 295.493C228.747 296.386 229.953 296.074 231.292 294.24C233.327 291.448 234.278 288.215 235.007 284.899C235.078 284.576 235.107 284.246 235.161 283.89C233.589 283.646 232.121 283.456 230.667 283.176C230.047 283.054 229.867 283.251 229.728 283.815C229.235 285.814 228.715 287.809 228.151 289.79C227.61 291.685 226.996 293.562 226.4 295.493ZM226.469 212.795C226.515 211.728 225.884 210.942 224.947 210.899C224.204 210.867 223.386 210.867 222.711 211.132C219.083 212.564 216.233 215.012 213.979 218.16C213.351 219.035 213.036 220.026 213.372 221.135C213.592 221.842 213.911 222.437 214.722 222.567C215.515 222.692 216.104 222.34 216.481 221.684C218.429 218.26 221.484 216.168 224.965 214.571C225.808 214.187 226.383 213.566 226.469 212.795ZM171.641 81.5306C171.655 79.9409 170.697 78.7995 169.168 78.3655C166.505 77.6117 163.889 79.8623 163.645 82.3275C163.455 84.2514 164.689 85.8233 166.545 86.0311C169.107 86.3182 171.616 84.1004 171.641 81.5306ZM213.477 226.78C213.459 225.463 212.425 224.368 211.198 224.372C210.067 224.372 209.199 225.298 209.217 226.482C209.235 227.821 210.308 228.905 211.604 228.891C212.673 228.88 213.495 227.957 213.477 226.78Z" fill="#4A5364"/>
<path d="M301.726 101.709C297.014 101.658 292.74 100.295 289.036 97.3448C285.069 94.1859 282.661 90.0674 281.862 85.0659C280.935 79.2661 282.346 73.9953 285.713 69.2241C286.902 67.5377 288.326 66.0655 289.951 64.7941C290.416 64.43 290.928 64.1261 291.42 63.7968C291.492 63.7487 291.574 63.7126 291.653 63.6753C292.367 63.3384 293.022 63.7785 292.986 64.5751C292.973 64.8682 292.94 65.1607 292.924 65.4539C292.671 69.952 293.519 74.2044 295.885 78.0755C298.748 82.7585 302.922 85.6386 308.276 86.7923C311.919 87.5776 315.53 87.3097 319.095 86.2899C319.592 86.1478 320.064 85.9181 320.555 85.7507C320.944 85.6174 321.348 85.5142 321.764 85.5395C322.207 85.5662 322.561 85.9988 322.588 86.4977C322.604 86.8053 322.513 87.0889 322.407 87.3691C321.999 88.451 321.518 89.5008 320.925 90.4939C317.362 96.4659 312.163 100.106 305.327 101.398C304.186 101.613 302.933 101.707 301.726 101.709ZM320.993 87.1504C320.881 87.1873 320.818 87.2071 320.756 87.2283C318.812 87.8913 316.824 88.3478 314.775 88.5283C312.286 88.7476 309.822 88.6103 307.39 88.0218C303.25 87.0205 299.724 84.9709 296.887 81.7812C294.316 78.8902 292.728 75.5064 291.961 71.7262C291.545 69.6745 291.416 67.6023 291.526 65.5134C291.53 65.4444 291.526 65.3754 291.526 65.2766C291.468 65.319 291.435 65.3399 291.406 65.3646C291.168 65.5685 290.933 65.7787 290.69 65.9775C287.305 68.7436 284.951 72.2019 283.736 76.4099C282.963 79.0891 282.741 81.8174 283.208 84.5772C283.712 87.5509 284.861 90.2622 286.656 92.6864C288.836 95.6307 291.605 97.8328 295.043 99.1313C298.216 100.33 301.499 100.591 304.842 100.066C312.018 98.9379 318.16 94.0765 320.917 87.3616C320.94 87.3069 320.958 87.2502 320.993 87.1504Z" fill="#4A5364"/>
<path d="M45.7912 39.2586C45.7971 39.7668 45.4927 40.186 44.9074 40.3955C44.3182 40.6051 43.7171 40.789 43.1141 40.955C42.8017 41.0401 42.7068 41.1706 42.7839 41.5028C42.9638 42.2679 43.1181 43.041 43.2505 43.818C43.4047 44.7275 42.7701 45.4156 41.9455 45.2613C41.4572 45.1704 41.1132 44.7809 41.0084 44.164C40.8977 43.4977 40.785 42.8314 40.7178 42.1611C40.6782 41.7558 40.5615 41.6372 40.1444 41.7519C39.6679 41.8824 39.1696 41.9634 38.6773 41.9931C38.1455 42.0247 37.75 41.7242 37.6334 41.309C37.5029 40.8463 37.663 40.3678 38.1513 40.1266C38.7089 39.8498 39.306 39.6422 39.9012 39.4564C40.2571 39.3456 40.3381 39.1776 40.2808 38.8256C40.1938 38.2879 40.1444 37.7401 40.1206 37.1965C40.0989 36.6587 40.3757 36.3028 40.8047 36.2335C41.22 36.1664 41.5976 36.4273 41.7557 36.9394C41.8941 37.3843 42.0187 37.8351 42.0938 38.2938C42.1591 38.6932 42.3272 38.7545 42.6831 38.6378C43.1259 38.4935 43.5787 38.3769 44.0355 38.2879C44.33 38.2305 44.6444 38.1989 44.939 38.2404C45.4412 38.3056 45.7852 38.7564 45.7912 39.2586Z" fill="#4A5364"/>
<path d="M297.302 163.647C297.308 164.155 297.003 164.574 296.418 164.784C295.829 164.993 295.228 165.178 294.625 165.344C294.312 165.428 294.217 165.559 294.295 165.891C294.474 166.656 294.629 167.43 294.761 168.206C294.915 169.116 294.28 169.804 293.456 169.649C292.968 169.559 292.624 169.169 292.519 168.552C292.408 167.886 292.296 167.22 292.229 166.549C292.189 166.144 292.072 166.026 291.655 166.14C291.179 166.27 290.68 166.352 290.188 166.381C289.656 166.413 289.26 166.113 289.144 165.697C289.014 165.234 289.174 164.756 289.662 164.515C290.219 164.238 290.817 164.031 291.412 163.845C291.768 163.734 291.849 163.566 291.791 163.214C291.704 162.676 291.655 162.129 291.631 161.585C291.609 161.047 291.886 160.691 292.315 160.622C292.73 160.555 293.108 160.816 293.266 161.328C293.405 161.773 293.529 162.223 293.604 162.682C293.67 163.081 293.837 163.143 294.194 163.026C294.636 162.882 295.09 162.765 295.546 162.676C295.841 162.619 296.155 162.587 296.45 162.629C296.952 162.694 297.296 163.145 297.302 163.647Z" fill="#4A5364"/>
<path d="M285 320.411C285.006 320.961 284.677 321.415 284.043 321.643C283.404 321.87 282.753 322.068 282.1 322.248C281.761 322.34 281.659 322.482 281.742 322.842C281.937 323.67 282.104 324.508 282.248 325.35C282.415 326.335 281.727 327.081 280.834 326.913C280.305 326.815 279.932 326.393 279.819 325.725C279.699 325.003 279.577 324.281 279.504 323.555C279.461 323.116 279.334 322.988 278.883 323.111C278.367 323.253 277.827 323.341 277.294 323.373C276.717 323.407 276.289 323.082 276.162 322.632C276.021 322.131 276.195 321.613 276.724 321.351C277.328 321.051 277.974 320.827 278.619 320.625C279.005 320.505 279.092 320.323 279.03 319.942C278.937 319.359 278.883 318.766 278.857 318.177C278.833 317.594 279.133 317.208 279.598 317.134C280.048 317.061 280.457 317.344 280.628 317.898C280.778 318.38 280.913 318.869 280.994 319.365C281.066 319.798 281.247 319.864 281.633 319.738C282.113 319.582 282.603 319.456 283.098 319.359C283.417 319.297 283.758 319.263 284.077 319.308C284.621 319.378 284.993 319.866 285 320.411Z" fill="#4A5364"/>
<path d="M45.7911 323.145C45.7975 323.695 45.4676 324.149 44.8336 324.377C44.1953 324.603 43.5442 324.802 42.8909 324.982C42.5525 325.074 42.4496 325.216 42.5331 325.576C42.7281 326.404 42.8952 327.242 43.0387 328.084C43.2057 329.069 42.5182 329.815 41.625 329.647C41.0959 329.549 40.7232 329.127 40.6097 328.459C40.4897 327.737 40.3677 327.015 40.2948 326.289C40.252 325.85 40.1256 325.722 39.6737 325.845C39.1575 325.987 38.6177 326.075 38.0844 326.107C37.5082 326.141 37.0798 325.816 36.9534 325.366C36.812 324.865 36.9855 324.346 37.5146 324.085C38.1186 323.785 38.7655 323.561 39.4102 323.359C39.7958 323.239 39.8836 323.057 39.8215 322.675C39.7272 322.093 39.6737 321.5 39.648 320.911C39.6244 320.328 39.9243 319.942 40.3891 319.868C40.8389 319.795 41.248 320.078 41.4194 320.632C41.5693 321.114 41.7042 321.602 41.7856 322.099C41.8563 322.532 42.0384 322.598 42.4239 322.472C42.9037 322.316 43.3942 322.19 43.889 322.093C44.2081 322.031 44.5487 321.997 44.8679 322.042C45.4119 322.112 45.7847 322.6 45.7911 323.145Z" fill="#4A5364"/>
<path d="M339.453 30.0513C339.282 28.8134 340.717 27.7162 341.822 28.0989C342.81 28.4409 343.38 29.1677 343.602 30.1877C343.647 30.3913 343.757 30.6315 343.914 30.7557C345.143 31.7085 346.397 32.6327 347.635 33.5733C347.873 33.7545 348.073 33.8359 348.397 33.7362C349.392 33.4328 350.355 34.0416 350.577 35.0615C350.77 35.9532 350.137 36.8185 349.162 36.9977C348.26 37.1625 347.348 36.4724 347.25 35.485C347.214 35.1104 347.063 34.8967 346.78 34.689C345.554 33.785 344.347 32.8546 343.118 31.9569C342.979 31.855 342.712 31.8163 342.552 31.8733C341.833 32.1339 341.133 32.3253 340.389 31.9467C340.285 31.8937 340.072 31.9752 339.95 32.0566C337.639 33.5774 335.336 35.1084 333.032 36.6373C332.812 36.7839 332.6 36.9488 332.37 37.075C331.902 37.3315 331.549 37.5962 331.448 38.2232C331.32 39.0172 330.509 39.5221 329.717 39.512C328.903 39.5018 328.223 38.9806 328.026 38.1011C327.928 37.6675 327.704 37.4231 327.368 37.1789C325.623 35.9166 323.899 34.6259 322.152 33.3677C321.987 33.2476 321.692 33.1885 321.501 33.2435C320.505 33.5306 319.461 33.0012 319.221 32.0464C318.976 31.0753 319.701 29.98 320.696 29.8172C321.863 29.6258 322.73 30.4015 322.736 31.5945C322.736 31.798 322.867 32.0729 323.027 32.1909C324.766 33.4878 326.525 34.7582 328.272 36.0469C328.502 36.2159 328.667 36.2627 328.922 36.0794C329.416 35.7232 329.941 35.6478 330.495 36.0082C330.605 36.0794 330.848 36.0693 330.961 35.9939C333.663 34.2248 336.358 32.4455 339.041 30.6498C339.229 30.5256 339.318 30.2549 339.453 30.0513Z" fill="#4A5364"/>
<path d="M355.389 285.239C356.003 284.151 357.81 284.149 358.457 285.123C359.035 285.994 359.048 286.917 358.606 287.863C358.518 288.052 358.46 288.309 358.509 288.504C358.91 290.007 359.347 291.502 359.761 293.001C359.841 293.289 359.95 293.474 360.268 293.591C361.244 293.953 361.64 295.022 361.199 295.968C360.812 296.794 359.784 297.098 358.9 296.65C358.082 296.234 357.775 295.132 358.296 294.288C358.494 293.967 358.504 293.706 358.405 293.369C357.978 291.908 357.582 290.436 357.149 288.977C357.1 288.811 356.911 288.619 356.749 288.566C356.02 288.338 355.346 288.066 354.985 287.314C354.934 287.209 354.715 287.145 354.569 287.135C351.809 286.944 349.05 286.766 346.29 286.584C346.026 286.568 345.757 286.571 345.498 286.532C344.97 286.452 344.53 286.449 344.069 286.886C343.485 287.439 342.535 287.35 341.911 286.862C341.27 286.36 341.045 285.533 341.421 284.714C341.606 284.31 341.576 283.98 341.457 283.582C340.835 281.521 340.245 279.449 339.619 277.389C339.561 277.194 339.362 276.968 339.176 276.895C338.21 276.52 337.701 275.466 338.088 274.561C338.483 273.641 339.723 273.209 340.614 273.683C341.657 274.238 341.877 275.381 341.159 276.333C341.036 276.495 340.972 276.793 341.029 276.984C341.625 279.069 342.254 281.146 342.862 283.23C342.942 283.503 343.046 283.641 343.359 283.65C343.968 283.666 344.432 283.924 344.654 284.546C344.698 284.67 344.897 284.809 345.033 284.818C348.254 285.049 351.477 285.267 354.699 285.466C354.923 285.481 355.158 285.32 355.389 285.239Z" fill="#4A5364"/>
<path d="M29.2134 117.446C27.624 118.577 26.0522 119.695 24.4804 120.814C24.3485 120.906 24.2254 121.014 24.0869 121.094C23.6582 121.335 23.456 121.604 23.4912 122.186C23.5879 123.791 21.9567 124.899 20.4861 124.314C20.3542 124.262 20.2157 124.219 20.075 124.191C19.1824 124.011 18.5867 123.494 18.3779 122.608C18.1712 121.74 18.4768 120.99 19.1605 120.467C19.5693 120.155 19.5474 119.896 19.3935 119.484C18.9186 118.214 18.4636 116.934 18.0349 115.646C17.9118 115.279 17.7689 115.12 17.3513 115.083C16.0455 114.967 15.0167 113.835 15.0364 112.621C15.0584 111.304 16.1268 110.124 17.3733 110.04C18.4263 109.97 19.4726 110.812 19.7584 112.05C19.9607 112.924 19.9826 113.795 19.1803 114.459C19.0989 114.525 19.0835 114.751 19.1253 114.872C19.6749 116.403 20.2311 117.928 20.8136 119.445C20.873 119.598 21.095 119.721 21.2687 119.797C21.6732 119.972 22.0886 120.133 22.5129 120.256C22.6822 120.306 22.935 120.315 23.0625 120.223C24.8541 118.915 26.6326 117.594 28.4 116.253C28.5561 116.134 28.677 115.883 28.6946 115.686C28.8023 114.464 29.5497 113.635 30.6446 113.573C31.7547 113.511 32.6846 114.265 32.8956 115.444C32.955 115.776 33.1133 115.928 33.41 116.04C35.5666 116.851 37.721 117.664 39.8665 118.504C40.2072 118.638 40.3831 118.506 40.6183 118.322C41.4229 117.693 42.5573 117.713 43.4146 118.344C44.2896 118.987 44.6501 120.168 44.2808 121.17C43.9246 122.135 43.0453 122.72 42.0319 122.659C41.4867 122.625 41.0646 122.415 40.7349 121.933C40.3128 121.318 39.761 120.788 39.7478 119.961C39.7456 119.865 39.5346 119.739 39.3983 119.684C37.2989 118.827 35.1929 117.983 33.0935 117.126C32.8297 117.018 32.667 117.018 32.4604 117.268C31.5173 118.4 30.3609 118.467 29.2134 117.446Z" fill="#4A5364"/>
<path d="M32.7681 228.18C33.214 228.612 33.2452 229.292 32.8359 229.73C32.4853 230.108 31.8084 230.069 31.3785 229.644C30.9886 229.26 31.1081 228.645 31.6799 228.085C31.9989 227.772 32.3785 227.806 32.7681 228.18Z" fill="#4A5364"/>
<path d="M48.4337 195.187C49.0538 195.189 49.5473 195.658 49.5562 196.258C49.5651 196.774 49.0494 197.214 48.4447 197.205C47.898 197.199 47.5579 196.672 47.5823 195.871C47.5957 195.424 47.8935 195.187 48.4337 195.187Z" fill="#4A5364"/>
<path d="M107.471 176.331C108.092 176.333 108.585 176.802 108.594 177.403C108.603 177.918 108.087 178.358 107.483 178.349C106.936 178.342 106.596 177.816 106.62 177.016C106.633 176.569 106.931 176.331 107.471 176.331Z" fill="#4A5364"/>
<path d="M112.939 212.554C113.56 212.556 114.053 213.025 114.062 213.625C114.071 214.141 113.555 214.581 112.951 214.572C112.404 214.565 112.064 214.039 112.088 213.239C112.101 212.792 112.399 212.554 112.939 212.554Z" fill="#4A5364"/>
<path d="M99.2691 343.777C99.8897 343.779 100.383 344.248 100.392 344.849C100.401 345.364 99.8849 345.804 99.2808 345.795C98.734 345.788 98.3936 345.262 98.4182 344.462C98.4312 344.015 98.7292 343.777 99.2691 343.777Z" fill="#4A5364"/>
<path d="M134.809 342.41C135.43 342.412 135.923 342.881 135.932 343.482C135.941 343.997 135.425 344.437 134.821 344.428C134.274 344.422 133.934 343.895 133.958 343.095C133.971 342.648 134.269 342.41 134.809 342.41Z" fill="#4A5364"/>
<path d="M194.953 358.129C195.573 358.131 196.067 358.6 196.076 359.201C196.085 359.716 195.569 360.157 194.964 360.148C194.418 360.141 194.077 359.615 194.102 358.814C194.115 358.367 194.413 358.129 194.953 358.129Z" fill="#4A5364"/>
<path d="M229.126 344.46C229.746 344.462 230.24 344.931 230.249 345.532C230.257 346.047 229.741 346.488 229.137 346.479C228.59 346.472 228.25 345.946 228.275 345.145C228.288 344.698 228.586 344.46 229.126 344.46Z" fill="#4A5364"/>
<path d="M299.521 341.727C300.142 341.729 300.635 342.197 300.644 342.798C300.653 343.314 300.137 343.754 299.533 343.745C298.986 343.738 298.646 343.212 298.67 342.411C298.683 341.964 298.981 341.727 299.521 341.727Z" fill="#4A5364"/>
<path d="M334.378 330.792C334.998 330.794 335.492 331.262 335.5 331.863C335.509 332.378 334.993 332.819 334.389 332.81C333.842 332.803 333.502 332.277 333.527 331.476C333.54 331.029 333.838 330.792 334.378 330.792Z" fill="#4A5364"/>
<path d="M300.205 239.892C300.825 239.894 301.319 240.363 301.328 240.964C301.336 241.479 300.82 241.919 300.216 241.91C299.67 241.903 299.329 241.377 299.354 240.577C299.367 240.13 299.665 239.892 300.205 239.892Z" fill="#4A5364"/>
<path d="M332.327 107.302C332.947 107.304 333.441 107.773 333.45 108.374C333.459 108.889 332.943 109.329 332.338 109.32C331.792 109.314 331.451 108.787 331.476 107.987C331.489 107.54 331.787 107.302 332.327 107.302Z" fill="#4A5364"/>
<path d="M352.831 77.23C353.451 77.232 353.945 77.7009 353.954 78.3016C353.962 78.817 353.446 79.2571 352.842 79.2482C352.295 79.2414 351.955 78.7151 351.98 77.9148C351.993 77.4678 352.291 77.23 352.831 77.23Z" fill="#4A5364"/>
<path d="M268.766 27.3379C269.387 27.3401 269.88 27.8091 269.889 28.4093C269.898 28.9249 269.382 29.3651 268.778 29.3562C268.231 29.3495 267.891 28.8227 267.915 28.0225C267.928 27.5757 268.226 27.3379 268.766 27.3379Z" fill="#4A5364"/>
<path d="M102.687 101.151C103.308 101.153 103.801 101.622 103.81 102.223C103.819 102.738 103.303 103.178 102.699 103.169C102.152 103.162 101.812 102.636 101.836 101.836C101.849 101.389 102.147 101.151 102.687 101.151Z" fill="#4A5364"/>
<path d="M97.2193 65.6113C97.8399 65.6136 98.3334 66.0826 98.3423 66.6827C98.3511 67.1984 97.8351 67.6385 97.231 67.6296C96.6842 67.6229 96.3438 67.0961 96.3684 66.2959C96.3814 65.8492 96.6794 65.6113 97.2193 65.6113Z" fill="#4A5364"/>
<path d="M143.601 21.187C144.65 21.1908 145.485 21.9843 145.5 22.9998C145.515 23.8724 144.643 24.6171 143.619 24.602C142.694 24.5907 142.119 23.6994 142.16 22.3454C142.183 21.5894 142.687 21.187 143.601 21.187Z" fill="#4A5364"/>
<path d="M92.4352 19.8203C93.0557 19.8226 93.5492 20.2916 93.5581 20.8917C93.567 21.4074 93.051 21.8475 92.4468 21.8386C91.9 21.8319 91.5597 21.3051 91.5843 20.5049C91.5972 20.0582 91.8952 19.8203 92.4352 19.8203Z" fill="#4A5364"/>
<path d="M334.006 195.483C336.581 195.505 338.718 195.91 340.776 196.717C340.956 196.788 341.09 196.773 341.264 196.681C344.463 194.98 347.738 193.477 351.359 192.906C352.607 192.709 353.857 192.638 355.105 192.928C357.447 193.471 358.796 195.154 358.813 197.557C358.822 198.91 358.5 200.196 358.028 201.451C357.22 203.599 356.077 205.567 354.759 207.434C353.977 208.542 353.139 209.61 352.315 210.689C352.179 210.867 352.14 211.025 352.148 211.256C352.164 211.696 352.12 212.141 352.06 212.58C351.551 216.323 350.295 219.781 348.052 222.842C345.644 226.13 342.536 228.453 338.566 229.53C336.138 230.187 333.686 230.25 331.225 229.713C330.924 229.647 330.624 229.557 330.337 229.444C330.136 229.366 329.979 229.381 329.794 229.484C327.985 230.493 326.125 231.399 324.194 232.152C322.149 232.949 320.053 233.557 317.849 233.712C316.804 233.787 315.772 233.717 314.771 233.382C312.859 232.744 311.713 231.188 311.657 229.17C311.616 227.662 312.014 226.248 312.596 224.883C313.665 222.372 315.054 220.045 316.786 217.933C317.107 217.542 317.495 217.202 317.873 216.861C318.002 216.745 317.971 216.65 317.937 216.53C317.642 215.479 317.467 214.406 317.383 213.317C317.165 210.532 317.62 207.856 318.827 205.346C321.517 199.752 326.002 196.567 332.116 195.647C332.86 195.534 333.618 195.516 334.006 195.483ZM346.766 203.631C346.588 203.524 346.42 203.444 346.279 203.332C346.13 203.213 346.002 203.066 345.87 202.926C342.219 199.014 337.728 197.291 332.41 197.891C326.198 198.594 321.156 203.237 319.871 209.356C319.296 212.095 319.408 214.804 320.39 217.445C320.9 218.817 321.593 220.097 322.413 221.31C322.821 221.913 323.251 222.503 323.627 223.126C323.762 223.351 323.85 223.365 324.063 223.273C325.881 222.48 327.611 221.521 329.253 220.417C333.756 217.387 337.907 213.928 341.698 210.041C343.534 208.159 345.199 206.14 346.606 203.914C346.663 203.824 346.711 203.729 346.766 203.631ZM318.551 218.5C318.493 218.565 318.449 218.602 318.42 218.65C317.438 220.228 316.428 221.79 315.486 223.392C314.86 224.456 314.436 225.618 314.133 226.818C313.937 227.593 313.817 228.377 313.904 229.181C314.032 230.35 314.602 231.036 315.748 231.309C316.176 231.411 316.625 231.463 317.065 231.473C318.567 231.51 320.01 231.163 321.427 230.713C324.43 229.762 327.242 228.386 329.949 226.792C336.269 223.068 341.94 218.524 347.024 213.241C349.493 210.675 351.792 207.974 353.7 204.957C354.709 203.361 355.621 201.712 356.177 199.893C356.41 199.13 356.585 198.355 356.56 197.547C356.516 196.189 355.845 195.38 354.508 195.118C353.5 194.919 352.489 194.971 351.484 195.152C348.744 195.648 346.21 196.72 343.725 197.929C343.669 197.956 343.624 198.003 343.544 198.063C343.815 198.242 344.067 198.389 344.296 198.568C344.476 198.709 344.632 198.704 344.823 198.604C345.069 198.478 345.315 198.325 345.579 198.273C346.443 198.1 347.314 198.085 348.167 198.334C349.112 198.61 349.7 199.232 349.871 200.214C349.979 200.832 349.867 201.432 349.684 202.022C349.067 204.017 348.067 205.796 346.772 207.432C344.443 210.378 341.865 213.089 339.088 215.609C335.856 218.54 332.366 221.124 328.596 223.321C327.218 224.124 325.79 224.822 324.285 225.359C323.176 225.754 322.047 226.015 320.862 225.891C319.983 225.798 319.302 225.403 318.965 224.54C318.782 224.066 318.756 223.574 318.847 223.08C318.981 222.35 319.175 221.643 319.719 221.086C319.756 221.047 319.743 220.917 319.709 220.853C319.544 220.533 319.352 220.227 319.194 219.904C318.974 219.456 318.776 218.994 318.551 218.5ZM332.922 227.652C333.038 227.688 333.089 227.716 333.142 227.719C333.736 227.745 334.332 227.804 334.923 227.786C338.322 227.68 341.271 226.425 343.794 224.182C346.811 221.5 348.582 218.089 349.482 214.192C349.494 214.142 349.484 214.088 349.484 213.977C344.502 219.218 339.028 223.777 332.922 227.652ZM320.55 222.163C320.438 222.533 320.334 222.903 320.42 223.288C320.451 223.427 320.53 223.572 320.628 223.677C320.925 223.993 321.766 224.068 322.139 223.836C321.62 223.289 321.099 222.741 320.55 222.163ZM346.659 200.34C346.652 200.375 346.646 200.409 346.638 200.444C347.024 200.851 347.409 201.257 347.821 201.693C347.96 201.302 348.003 200.95 347.937 200.59C347.903 200.406 347.803 200.244 347.592 200.253C347.28 200.266 346.97 200.31 346.659 200.34Z" fill="#4A5364"/>
</svg>
