<svg width="230" height="305" viewBox="0 0 230 305" fill="none" xmlns="http://www.w3.org/2000/svg">
<path d="M56.4495 76.695C56.3735 75.691 56.2895 74.887 56.2535 74.079C54.7455 38.919 78.5575 8.34704 113.129 1.59904C139.509 -3.54886 162.465 3.88304 182.245 21.727C187.173 26.171 191.245 31.363 195.001 36.835C196.561 39.107 197.725 41.535 198.949 43.955C202.845 51.659 205.349 59.795 206.413 68.371C206.449 68.659 206.521 68.943 206.597 69.347C207.857 69.187 209.093 68.995 210.337 68.875C213.473 68.571 216.565 68.731 219.597 69.707C225.201 71.511 228.289 75.439 229.213 81.131C230.165 87.003 229.001 92.659 227.157 98.207C225.413 103.451 222.793 108.287 220.069 113.067C211.629 127.871 200.685 140.675 188.473 152.459C187.397 153.499 186.241 154.459 185.201 155.531C184.621 156.131 184.105 156.835 183.717 157.571C181.669 161.463 180.465 165.687 180.517 170.023C180.629 179.083 178.329 187.591 175.393 196.011C172.993 202.891 170.009 209.487 165.665 215.383C164.801 216.555 163.821 217.667 162.773 218.679C161.245 220.151 160.513 221.875 160.213 223.975C159.789 226.919 160.117 229.807 160.273 232.727C160.721 241.143 160.201 249.515 158.741 257.811C157.433 265.255 155.177 272.395 151.425 279.007C149.905 281.683 148.021 284.071 145.761 286.179C144.073 287.751 142.585 289.539 140.901 291.119C134.233 297.383 126.581 301.915 117.593 303.955C111.389 305.363 105.197 305.499 99.1575 303.139C90.9255 299.919 86.2495 292.099 87.1455 283.299C87.5535 279.287 88.7775 275.559 90.5895 271.987C92.2335 268.743 93.8495 265.487 95.5055 262.247C95.8735 261.527 96.4095 260.895 96.7695 260.171C97.2415 259.219 97.8095 258.255 98.0015 257.231C98.5255 254.459 98.9575 251.663 99.2695 248.859C99.6375 245.571 99.8375 242.263 100.105 238.991C100.105 238.991 100.017 239.027 99.9815 239.091C94.6135 249.167 89.1135 259.167 82.7615 268.663C79.1455 274.075 75.3935 279.399 70.8015 284.063C70.3455 284.527 70.2055 285.283 69.8095 285.819C64.2455 293.355 57.4695 299.419 48.5415 302.651C41.4975 305.199 34.4655 305.187 27.7855 301.439C22.0215 298.207 18.5575 293.055 16.4415 286.927C14.4655 281.215 14.0855 275.303 14.9775 269.387C15.6455 264.967 16.7855 260.611 17.8655 256.263C20.7455 244.683 23.7175 233.123 26.6375 221.555C29.0335 212.067 31.4055 202.575 33.8095 193.091C34.1495 191.743 34.6175 190.431 35.0575 188.991C30.3535 185.619 26.7415 181.231 24.5215 175.743C22.3095 170.275 21.8015 164.599 22.5175 158.775C19.0895 157.539 16.9095 154.887 14.7695 152.235C9.31746 145.479 4.37745 138.387 0.90145 130.379C0.56545 129.607 0.273451 128.799 0.121451 127.975C-0.174549 126.359 0.0254554 124.907 1.22546 123.551C13.0295 110.227 24.7815 96.855 36.5575 83.503C38.4295 81.379 40.3655 79.311 42.2615 77.211C42.9255 76.475 43.7055 76.263 44.7015 76.307C48.5615 76.483 52.4255 76.567 56.4495 76.695ZM157.593 222.443C157.333 222.487 157.145 222.503 156.965 222.555C153.025 223.635 149.005 224.155 144.937 224.387C138.017 224.783 131.141 224.195 124.297 223.319C107.217 221.139 90.6215 216.939 74.4495 211.059C63.8455 207.203 53.6055 202.567 44.1575 196.327C41.6615 194.675 39.2095 192.947 37.2935 190.587C37.1895 190.463 36.9975 190.411 36.7855 190.287C36.4935 191.679 36.2455 192.983 35.9415 194.275C32.8335 207.303 29.7335 220.331 26.5895 233.351C24.4775 242.107 22.2895 250.847 20.1695 259.599C20.0615 260.051 20.0975 260.691 20.3455 261.047C21.7695 263.063 23.1055 265.187 24.7895 266.971C32.3455 274.975 41.3855 280.607 52.0455 283.535C56.3535 284.719 60.7175 285.275 65.1615 284.383C65.5575 284.303 66.0015 284.155 66.2855 283.891C67.5175 282.735 68.7895 281.603 69.8895 280.327C81.4135 266.923 90.7415 252.091 98.4255 236.203C98.5455 235.951 98.6175 235.679 98.7135 235.411C97.8895 235.095 97.1055 234.867 96.3895 234.503C95.7215 234.163 95.4255 233.543 95.6495 232.775C95.8655 232.035 96.4495 231.771 97.1495 231.771C97.5655 231.771 97.9895 231.871 98.4015 231.955C100.949 232.475 103.493 233.011 106.041 233.531C106.929 233.711 107.869 233.751 108.701 234.079C109.133 234.247 109.645 234.911 109.629 235.331C109.613 235.751 109.025 236.199 108.605 236.527C108.381 236.703 107.981 236.707 107.665 236.695C106.661 236.663 105.645 236.647 104.653 236.507C103.917 236.403 103.541 236.627 103.417 237.335C103.165 238.807 102.797 240.271 102.677 241.751C102.357 245.739 102.269 249.743 101.849 253.719C101.521 256.815 100.993 259.907 99.1215 262.575C98.0575 264.091 98.0295 265.683 98.9375 267.351C101.081 271.299 103.901 274.655 107.457 277.403C113.245 281.871 119.753 284.659 126.977 285.759C129.513 286.143 132.061 286.427 134.609 286.707C135.245 286.775 135.913 286.711 136.549 286.611C139.505 286.151 141.877 284.583 143.945 282.535C147.157 279.355 149.529 275.587 151.305 271.463C155.661 261.347 157.633 250.719 157.741 239.747C157.785 235.227 157.505 230.707 157.413 226.183C157.397 224.955 157.529 223.727 157.593 222.443ZM47.1015 194.695C47.0655 194.751 47.0295 194.807 46.9935 194.867C48.8495 195.923 50.6735 197.035 52.5695 198.023C72.4255 208.359 93.5575 214.823 115.533 218.695C116.045 218.787 116.809 218.555 117.169 218.191C119.873 215.475 122.469 212.647 125.169 209.927C128.457 206.619 130.533 202.619 132.065 198.279C134.721 190.767 136.517 183.043 137.641 175.171C138.621 168.311 139.489 161.431 138.677 154.471C138.585 153.671 138.397 153.307 137.513 153.187C131.865 152.415 126.305 151.211 120.845 149.567C107.025 145.407 94.1335 139.347 82.5815 130.623C78.4495 127.503 74.4855 124.167 71.2495 120.071C70.8935 119.619 70.5895 119.099 70.3815 118.563C69.5455 116.407 68.8535 114.227 68.9215 111.847C68.9575 110.507 67.8615 109.939 66.6735 110.531C61.1815 113.263 56.0215 116.527 51.1695 120.283C41.3375 127.887 33.5295 137.091 28.6975 148.651C25.9135 155.303 24.6935 162.199 25.9775 169.359C27.4775 177.723 32.2615 183.811 39.5815 187.915C48.0455 192.659 57.2775 193.495 66.7375 192.887C68.7455 192.759 70.7375 192.327 72.7415 192.259C73.6655 192.227 74.1335 191.867 74.4895 191.191C74.7295 190.739 74.8295 190.211 74.9975 189.723C76.2815 185.923 75.9615 181.947 76.1215 178.047C76.2615 174.615 76.0055 171.151 75.7295 167.719C75.3215 162.623 74.6255 157.567 72.7415 152.747C72.0375 150.947 72.0935 150.927 70.2095 151.091C69.5935 151.143 68.9775 151.183 68.3615 151.247C66.1655 151.471 63.9695 151.727 61.7695 151.899C61.4495 151.923 61.0975 151.551 60.7615 151.363C60.9615 151.031 61.0855 150.543 61.3815 150.391C62.1575 149.995 62.9855 149.651 63.8295 149.459C70.0015 148.067 76.2135 147.955 82.4215 149.155C87.2575 150.087 91.8215 151.723 95.8415 154.671C99.0695 157.043 101.549 159.999 102.841 163.827C104.645 169.171 103.629 174.163 100.737 178.855C97.2015 184.587 92.0695 188.511 86.0895 191.351C81.1175 193.715 75.9575 195.295 70.3375 195.647C64.7775 195.995 59.2535 196.647 53.6975 195.871C51.4935 195.559 49.3015 195.091 47.1015 194.695ZM121.421 219.543C121.945 219.643 122.221 219.723 122.501 219.747C127.717 220.187 132.925 220.775 138.153 221.007C143.221 221.231 148.305 221.111 153.321 220.135C155.369 219.739 157.493 219.331 158.985 217.791C160.669 216.055 162.305 214.199 163.605 212.171C169.297 203.279 173.285 193.643 175.789 183.379C177.329 177.059 177.697 170.603 178.349 164.171C178.729 160.407 179.849 156.767 182.473 153.835C183.401 152.799 184.433 151.859 185.445 150.895C194.849 141.935 203.361 132.195 210.825 121.559C214.925 115.715 218.637 109.647 221.373 103.023C221.525 102.651 221.633 102.259 221.797 101.771C215.577 101.427 209.633 100.611 204.517 96.667C203.209 101.943 200.889 106.711 198.781 111.571C196.857 116.003 194.013 119.675 190.221 122.631C189.561 123.147 188.897 123.659 188.441 124.015C188.649 125.499 188.933 126.767 188.985 128.047C189.249 134.819 186.949 140.543 181.837 145.063C175.997 150.227 168.881 152.371 161.385 153.439C154.985 154.351 148.541 154.331 142.101 153.755C141.917 153.739 141.729 153.751 141.461 153.751C141.629 154.655 141.809 155.471 141.929 156.295C142.617 161.063 142.477 165.827 141.973 170.603C141.029 179.555 139.273 188.335 136.649 196.955C134.201 204.995 129.985 211.879 123.757 217.523C123.057 218.155 122.333 218.755 121.421 219.543ZM182.841 27.735C182.893 27.679 182.945 27.623 183.001 27.567C182.741 27.283 182.497 26.991 182.221 26.723C164.861 9.75104 144.161 1.99504 119.901 4.45104C105.725 5.88704 93.1255 11.367 82.5615 20.907C64.4215 37.287 58.0415 57.983 61.1935 81.883C62.3415 90.595 65.6135 98.643 69.5535 106.435C69.6535 106.631 69.7975 106.803 69.9855 107.083C71.8335 103.483 74.2655 100.843 78.7455 101.227C78.6615 101.027 78.6255 100.903 78.5615 100.799C74.5215 93.951 72.8895 86.523 73.2615 78.627C73.5295 72.959 75.0695 67.667 78.2255 62.907C81.2735 58.311 85.2655 54.883 90.7015 53.475C92.4135 53.031 94.2295 52.963 95.9975 52.747C96.4295 52.695 96.8015 52.755 96.8775 52.127C97.5535 46.623 100.021 41.919 103.493 37.699C108.365 31.775 114.605 27.707 121.621 24.839C132.385 20.443 143.621 18.955 155.189 19.891C164.729 20.663 173.825 23.035 182.321 27.527C182.485 27.615 182.669 27.667 182.841 27.735ZM79.8255 102.871C79.1535 103.119 78.6175 103.411 78.0495 103.507C76.4495 103.783 75.0775 104.439 73.9975 105.659C72.4095 107.451 71.8095 109.571 71.7735 111.939C71.7295 114.923 72.7575 117.559 74.7055 119.659C80.0055 125.375 86.2135 130.011 92.8415 134.075C106.545 142.475 121.377 147.875 137.249 150.331C146.069 151.695 154.913 152.043 163.753 150.251C168.881 149.211 173.745 147.543 178.045 144.535C182.441 141.459 185.453 137.399 185.977 131.899C186.157 130.023 185.937 128.111 185.893 125.935C185.209 126.347 184.849 126.555 184.501 126.771C175.709 132.263 166.029 135.075 155.793 136.043C149.653 136.627 143.501 136.471 137.397 135.491C130.349 134.363 123.569 132.391 117.325 128.831C116.589 128.411 115.885 127.907 115.101 127.623C111.289 126.227 107.829 124.163 104.329 122.159C99.1215 119.179 94.1015 115.935 89.7815 111.719C89.5295 111.475 89.1895 111.319 88.9055 111.103C87.0015 109.643 85.0135 108.275 83.2255 106.683C81.9215 105.531 80.8815 104.079 79.8255 102.871ZM22.2815 136.439C29.8335 124.295 39.9695 114.963 51.9175 107.403C47.5095 100.095 43.0895 92.763 38.6295 85.371C29.1255 96.215 19.6375 107.035 10.2535 117.739C14.6695 123.803 18.2535 130.259 22.2815 136.439ZM76.6415 80.323C76.6775 88.431 78.5575 94.571 82.2175 100.155C84.8415 104.163 88.2575 107.307 92.6695 109.259C96.0295 110.747 99.5975 111.379 103.149 110.415C108.721 108.903 112.861 105.415 115.589 100.303C118.561 94.735 119.549 88.791 118.921 82.547C118.169 75.043 115.521 68.335 110.373 62.751C106.921 59.007 102.685 56.635 97.5375 56.251C91.5855 55.811 86.8095 58.279 83.0455 62.711C78.4055 68.175 76.8015 74.727 76.6415 80.323ZM95.2935 268.075C95.2295 268.175 95.1615 268.283 95.0895 268.395C91.4655 274.147 89.2375 280.275 89.9415 287.215C90.4335 292.075 92.6335 295.927 96.7255 298.623C100.589 301.167 104.929 302.071 109.469 301.887C119.885 301.467 128.809 297.219 136.893 290.919C137.065 290.783 137.189 290.583 137.317 290.435C135.489 290.291 133.745 290.163 132.005 290.019C130.001 289.851 127.953 289.879 125.997 289.463C118.197 287.795 111.189 284.419 105.101 279.235C101.325 276.015 98.2015 272.211 95.2935 268.075ZM18.6055 263.287C18.5095 263.295 18.4095 263.299 18.3135 263.307C18.0775 264.899 17.8015 266.487 17.6095 268.083C16.8375 274.447 17.3255 280.691 19.6615 286.707C23.6655 297.019 32.8495 302.147 43.5735 299.999C51.3095 298.451 57.4895 294.223 62.7415 288.499C62.8375 288.395 62.8695 288.239 63.0175 287.923C53.7695 288.375 45.6615 285.243 37.9335 280.839C30.1935 276.427 23.5655 270.775 18.6055 263.287ZM77.5175 191.379C77.8655 191.307 78.1135 191.279 78.3495 191.203C83.1935 189.667 87.7215 187.499 91.7615 184.395C94.6815 182.155 97.1695 179.507 98.8895 176.219C100.753 172.659 101.449 168.911 100.297 164.991C99.0575 160.763 96.1455 157.847 92.5055 155.599C88.0655 152.859 83.1575 151.583 78.0055 151.151C76.9855 151.063 75.9655 151.011 74.9215 150.943C78.0895 157.323 78.8095 164.091 79.2415 170.911C79.6855 177.779 79.4575 184.599 77.5175 191.379ZM206.909 72.063C206.909 72.443 206.897 72.699 206.909 72.951C207.273 79.411 206.933 85.823 205.613 92.175C205.049 94.875 205.117 94.959 207.633 96.243C207.777 96.315 207.921 96.399 208.073 96.459C212.565 98.187 217.161 99.367 222.025 99.247C222.701 99.231 223.025 98.959 223.205 98.347C223.425 97.599 223.713 96.871 223.949 96.127C225.293 91.891 226.337 87.615 225.969 83.107C225.537 77.835 222.493 73.843 217.737 72.503C214.197 71.507 210.605 71.643 206.909 72.063ZM8.15746 120.227C8.06546 120.299 7.94945 120.363 7.86945 120.455C6.28145 122.307 4.68146 124.151 3.14146 126.043C2.95346 126.275 2.97746 126.855 3.13346 127.159C4.77746 130.367 6.34946 133.619 8.16946 136.727C11.6615 142.703 15.7935 148.223 20.6975 153.131C21.3935 153.827 22.2255 154.383 23.1135 155.103C23.2775 154.575 23.3655 154.303 23.4495 154.031C23.9295 152.443 24.3215 150.823 24.9215 149.283C25.3255 148.247 25.2495 147.475 24.6455 146.523C19.1335 137.803 13.6815 129.051 8.15746 120.227ZM143.617 31.603C143.613 29.659 141.809 28.399 139.581 28.779C134.429 29.659 129.797 31.843 125.369 34.511C120.909 37.195 116.753 40.275 113.549 44.431C112.405 45.911 111.505 47.591 110.601 49.243C110.029 50.291 110.441 51.535 111.377 52.175C112.313 52.815 113.437 52.707 114.313 51.863C114.641 51.547 114.937 51.199 115.229 50.851C118.249 47.295 121.305 43.779 125.545 41.587C129.269 39.659 132.973 37.683 136.741 35.839C138.093 35.175 139.577 34.743 141.045 34.367C142.565 33.975 143.621 32.963 143.617 31.603ZM53.3495 109.679C52.9775 109.935 52.7255 110.083 52.5015 110.263C49.1215 112.959 45.6575 115.559 42.3815 118.379C36.8015 123.179 31.4695 128.255 27.1775 134.283C26.1015 135.795 25.4175 137.587 24.5695 139.259C24.4735 139.447 24.3855 139.755 24.4695 139.899C25.2535 141.251 26.0815 142.579 26.9575 144.019C33.9055 131.135 43.6655 121.207 55.7895 113.467C54.9415 112.155 54.1735 110.959 53.3495 109.679ZM66.3855 107.787C65.5655 106.295 64.7735 104.951 64.0735 103.563C60.3215 96.119 58.0575 88.215 56.8735 79.991C56.7775 79.315 56.5775 79.039 55.8575 79.055C53.1935 79.107 50.5255 79.091 47.8575 79.123C47.0415 79.131 46.2215 79.219 45.5015 79.263C51.7415 89.155 57.9375 98.979 64.1655 108.855C64.8655 108.511 65.5895 108.167 66.3855 107.787ZM60.9415 110.471C54.8815 100.411 48.8735 90.435 42.8535 80.439C42.1015 81.323 41.2855 82.283 40.5895 83.095C46.6255 92.703 52.6015 102.215 58.6135 111.787C59.4255 111.331 60.2015 110.891 60.9415 110.471ZM150.853 33.355C152.449 33.407 154.149 31.815 154.233 30.187C154.317 28.535 152.865 26.963 151.181 26.891C149.573 26.819 147.989 28.211 147.941 29.743C147.877 31.699 149.169 33.303 150.853 33.355ZM103.065 113.791C100.449 113.791 97.9695 113.791 95.5535 113.791C96.4855 114.887 106.637 121.391 108.141 121.775C106.029 119.267 104.017 116.803 103.065 113.791Z" fill="#4A5364"/>
</svg>
