<svg width="492" height="492" viewBox="0 0 492 492" fill="none" xmlns="http://www.w3.org/2000/svg">
<path fill-rule="evenodd" clip-rule="evenodd" d="M400.453 364.15C403.269 361.373 406.7 359.693 410.603 359.016C415.927 358.092 421.032 358.926 425.886 361.233C426.883 361.709 427.398 361.563 428.204 360.824C429 360.095 429.893 359.473 430.788 358.85C431.383 358.435 431.98 358.019 432.548 357.571C432.946 357.258 433.332 356.715 433.394 356.239C433.651 354.201 435.28 352.88 437.548 353.009C439.658 353.126 441.366 354.783 441.36 356.726C441.355 358.691 439.754 360.236 437.637 360.303C437.542 360.306 437.441 360.314 437.34 360.321C437.008 360.346 436.663 360.372 436.422 360.231C434.364 359.006 432.902 360.05 431.447 361.09C431.125 361.319 430.804 361.549 430.477 361.753C430.155 361.953 429.886 362.242 429.678 362.466C429.6 362.55 429.53 362.625 429.469 362.683C430.167 363.365 430.875 364.022 431.577 364.673C433.117 366.102 434.626 367.503 435.93 369.076C439.3 373.146 441.265 377.832 441.075 383.263C441.058 383.744 441.416 384.332 441.769 384.713C444.283 387.428 446.74 390.188 448.129 393.687C450.503 399.666 447.933 403.999 441.551 404.845C441.371 404.867 441.187 404.884 441.008 404.895C439.367 405.04 438.124 405.533 436.742 406.782C430.158 412.71 419.689 409.038 417.556 401.418C417.399 400.864 416.873 400.259 416.352 399.985C414.312 398.886 412.259 397.813 410.207 396.74H410.206C408.109 395.643 406.012 394.547 403.929 393.424C403.112 392.987 402.446 392.802 401.516 393.071C397.844 394.118 394.3 393.715 390.974 391.806C387.565 389.846 385.146 385.424 387.895 381.342C388.086 381.062 387.867 380.34 387.627 379.959C387.246 379.357 386.826 378.775 386.407 378.194C385.704 377.218 385.001 376.245 384.486 375.178C383.73 373.616 383.142 371.847 383.019 370.129C382.812 367.268 384.307 365.124 386.916 363.959C390.874 362.19 394.994 362.509 399.098 363.394C399.412 363.447 399.694 363.642 400.003 363.855C400.145 363.953 400.293 364.056 400.453 364.15ZM398.829 365.79C395.89 365.448 393.051 365.157 390.241 365.902C386.462 366.898 385.197 369.149 386.921 372.637C388.153 375.128 389.76 377.552 391.663 379.568C398.353 386.65 406.527 391.671 415.311 395.73C421.475 398.574 427.723 401.222 434.541 402.051C437.335 402.392 440.185 402.605 442.928 401.653C445.425 400.791 446.483 399.257 445.973 396.9C445.175 393.202 442.709 390.535 440.245 387.87L440.229 387.853C437.38 389.958 434.357 389.678 431.395 389.107C421.531 387.204 412.898 382.647 405.066 376.488C402.485 374.456 400.049 372.256 398.527 369.244C397.939 368.068 397.508 366.949 398.829 365.79ZM413.598 361.658C409.578 361.77 405.413 362.935 401.987 366.109C400.609 367.38 400.593 367.419 401.824 368.791C409.147 376.959 418.401 382.02 428.736 385.228C430.931 385.91 433.305 386.1 435.624 386.286L435.975 386.314C437.699 386.454 438.102 386.017 438.046 384.253C437.99 382.451 437.844 380.603 437.397 378.868C434.917 369.211 424.66 361.681 413.598 361.658ZM437.341 358.103C437.566 357.886 437.806 357.694 438.027 357.517C438.467 357.166 438.832 356.874 438.858 356.558C438.942 355.478 437.9 355.086 437.083 355.214C436.632 355.288 436.227 355.654 435.821 356.021C435.642 356.182 435.463 356.343 435.28 356.48C435.676 356.791 436.074 357.105 436.539 357.471L436.54 357.472L437.341 358.103ZM409.773 368.151C410.982 368.174 412.018 369.198 411.962 370.318C411.906 371.454 410.853 372.35 409.616 372.322C408.413 372.294 407.422 371.309 407.433 370.15C407.438 369.069 408.547 368.123 409.773 368.151ZM415.071 376.331C415.989 376.359 416.901 375.553 416.935 374.679C416.969 373.834 416.207 373.039 415.306 372.972C414.354 372.905 413.442 373.644 413.386 374.528C413.324 375.441 414.13 376.303 415.071 376.331Z" fill="#4A5364"/>
<path d="M318 409.441C318.009 410.185 317.563 410.798 316.707 411.105C315.845 411.411 314.965 411.681 314.083 411.924C313.626 412.048 313.487 412.239 313.6 412.725C313.863 413.844 314.089 414.976 314.282 416.112C314.508 417.443 313.579 418.45 312.373 418.224C311.659 418.091 311.155 417.521 311.002 416.619C310.84 415.644 310.675 414.669 310.577 413.688C310.519 413.095 310.348 412.922 309.738 413.089C309.041 413.28 308.311 413.399 307.591 413.442C306.813 413.489 306.234 413.049 306.064 412.441C305.873 411.764 306.107 411.064 306.822 410.711C307.637 410.306 308.511 410.003 309.382 409.731C309.903 409.569 310.021 409.323 309.937 408.808C309.81 408.021 309.738 407.22 309.703 406.424C309.671 405.637 310.076 405.116 310.704 405.015C311.311 404.917 311.864 405.299 312.095 406.048C312.298 406.699 312.48 407.358 312.59 408.03C312.686 408.614 312.931 408.704 313.452 408.533C314.1 408.322 314.763 408.151 315.431 408.021C315.862 407.937 316.322 407.891 316.753 407.952C317.488 408.047 317.991 408.707 318 409.441Z" fill="#4A5364"/>
<path d="M449 283.441C449.009 284.185 448.563 284.798 447.707 285.105C446.845 285.411 445.965 285.681 445.083 285.924C444.626 286.048 444.487 286.239 444.6 286.725C444.863 287.844 445.089 288.976 445.282 290.112C445.508 291.443 444.579 292.45 443.373 292.224C442.659 292.091 442.155 291.521 442.002 290.619C441.84 289.644 441.675 288.669 441.577 287.688C441.519 287.095 441.348 286.922 440.738 287.089C440.041 287.28 439.311 287.399 438.591 287.442C437.813 287.489 437.234 287.049 437.064 286.441C436.873 285.764 437.107 285.064 437.822 284.711C438.637 284.306 439.511 284.003 440.382 283.731C440.903 283.569 441.021 283.323 440.937 282.808C440.81 282.021 440.738 281.22 440.703 280.424C440.671 279.637 441.076 279.116 441.704 279.015C442.311 278.917 442.864 279.299 443.095 280.048C443.298 280.699 443.48 281.358 443.59 282.03C443.686 282.614 443.931 282.704 444.452 282.533C445.1 282.322 445.763 282.151 446.431 282.021C446.862 281.937 447.322 281.891 447.753 281.952C448.488 282.047 448.991 282.707 449 283.441Z" fill="#4A5364"/>
<path d="M103.404 104.484C100.737 105.292 98.0987 106.094 95.4605 106.896C95.2398 106.961 95.024 107.051 94.8004 107.095C94.1097 107.228 93.7138 107.5 93.4967 108.305C92.8984 110.523 90.1847 111.283 88.4578 109.822C88.303 109.691 88.1344 109.572 87.9567 109.469C86.8294 108.819 86.257 107.848 86.3766 106.553C86.4913 105.282 87.246 104.406 88.4102 104.007C89.106 103.77 89.1942 103.409 89.1725 102.782C89.1066 100.845 89.0715 98.9046 89.0762 96.9643C89.0762 96.4109 88.9546 96.1315 88.4056 95.891C86.6893 95.1397 85.8098 93.1381 86.3882 91.5029C87.0164 89.7288 89.0005 88.6148 90.7274 89.0681C92.1861 89.4514 93.2212 91.0678 93.0459 92.8746C92.9223 94.152 92.5565 95.3415 91.1675 95.8764C91.0274 95.9288 90.9036 96.2286 90.9052 96.4114C90.9545 98.7343 91.0147 101.054 91.1147 103.374C91.1251 103.609 91.37 103.877 91.5713 104.057C92.0395 104.479 92.5295 104.886 93.0484 105.245C93.2548 105.391 93.5933 105.517 93.8081 105.45C96.8301 104.492 99.8402 103.51 102.844 102.497C103.11 102.407 103.388 102.122 103.501 101.862C104.203 100.255 105.592 99.4722 107.103 99.8864C108.636 100.307 109.553 101.751 109.303 103.444C109.233 103.921 109.378 104.198 109.73 104.485C112.283 106.564 114.832 108.645 117.358 110.758C117.758 111.095 118.057 110.996 118.459 110.853C119.835 110.367 121.363 110.909 122.238 112.153C123.131 113.424 123.083 115.187 122.127 116.378C121.206 117.523 119.748 117.916 118.403 117.372C117.68 117.079 117.204 116.602 116.976 115.8C116.683 114.774 116.177 113.805 116.534 112.679C116.575 112.547 116.346 112.281 116.187 112.145C113.732 110.029 111.262 107.928 108.807 105.812C108.499 105.547 108.278 105.473 107.884 105.718C106.092 106.824 104.495 106.387 103.404 104.484Z" fill="#4A5364"/>
<path d="M62.8365 301.206C62.661 301.898 62.617 302.659 62.2904 303.266C61.1287 305.41 59.8597 307.496 58.6556 309.618C58.497 309.896 58.3983 310.268 58.4253 310.579C58.58 312.271 58.7833 313.958 58.966 315.65C59.0537 316.455 59.0911 317.296 58.2832 317.765C57.4538 318.248 56.5554 318.136 55.7556 317.653C54.3013 316.773 52.8666 315.858 51.4439 314.927C51.0202 314.651 50.6389 314.567 50.1353 314.689C47.5708 315.303 44.9971 315.878 42.4314 316.473C42.1453 316.541 41.8718 316.662 41.5899 316.747C40.9685 316.938 40.4128 316.814 39.9576 316.352C39.4813 315.867 39.3704 315.267 39.6119 314.643C39.744 314.306 39.956 313.991 40.1838 313.704C41.4684 312.079 42.7851 310.484 44.0435 308.84C44.2999 308.502 44.4678 308.001 44.4665 307.575C44.4519 304.844 44.3748 302.112 44.3256 299.379C44.3185 299.06 44.3446 298.736 44.3919 298.423C44.5973 297.094 45.6023 296.563 46.7567 297.255C48.3614 298.218 49.9353 299.234 51.4927 300.273C54.0424 301.977 54.027 301.978 56.9269 300.873C58.0069 300.462 59.1098 300.095 60.2223 299.781C61.4816 299.43 62.3908 299.981 62.6335 301.151C62.6966 301.167 62.7662 301.185 62.8365 301.206ZM47.6481 301.492C47.6683 302.051 47.6776 302.367 47.6906 302.684C47.7758 304.53 47.8639 306.375 47.9432 308.222C47.9754 309.002 47.6916 309.593 47.1059 310.171C46.2165 311.045 45.4752 312.071 44.6686 313.031C44.7273 313.095 44.7854 313.156 44.8441 313.22C45.142 313.149 45.4477 313.099 45.7371 313.005C47.023 312.582 48.304 312.139 49.5929 311.715C50.3325 311.471 50.9788 311.53 51.6597 312.051C52.8896 312.996 54.2123 313.82 55.4946 314.697C55.5592 314.641 55.6209 314.586 55.6863 314.533C55.6695 314.225 55.6586 313.917 55.6323 313.608C55.5185 312.233 55.4047 310.859 55.285 309.485C55.2174 308.713 55.4488 308.073 55.917 307.433C56.7254 306.335 57.4237 305.154 58.1709 304.008C58.1231 303.951 58.0753 303.894 58.0311 303.839C56.8337 304.241 55.6185 304.594 54.4496 305.064C53.7078 305.364 53.0604 305.34 52.4171 304.926C51.9832 304.645 51.5837 304.313 51.1633 304.011C50.0477 303.207 48.9342 302.412 47.6481 301.492Z" fill="#4A5364"/>
<path d="M107.861 431.828C107.07 430.136 108.635 427.935 110.383 427.993C111.944 428.045 113.08 428.831 113.847 430.19C114.001 430.461 114.264 430.756 114.543 430.864C116.72 431.681 118.919 432.447 121.103 433.244C121.523 433.398 121.844 433.426 122.262 433.14C123.55 432.267 125.194 432.711 125.962 434.07C126.632 435.258 126.11 436.774 124.796 437.46C123.581 438.094 121.973 437.511 121.398 436.144C121.18 435.625 120.87 435.387 120.374 435.215C118.225 434.466 116.089 433.67 113.937 432.931C113.694 432.847 113.296 432.909 113.091 433.062C112.18 433.751 111.264 434.334 110.036 434.121C109.864 434.092 109.595 434.302 109.456 434.473C106.828 437.665 104.216 440.869 101.6 444.071C101.35 444.377 101.121 444.706 100.848 444.988C100.292 445.561 99.9065 446.095 100.038 447.035C100.205 448.226 99.2714 449.305 98.1359 449.64C96.9683 449.986 95.7669 449.542 95.0964 448.373C94.7653 447.797 94.3375 447.547 93.7498 447.346C90.7004 446.314 87.6675 445.232 84.6169 444.207C84.3284 444.108 83.8807 444.154 83.6316 444.317C82.3366 445.167 80.6111 444.872 79.8463 443.615C79.0684 442.336 79.6197 440.451 80.9696 439.779C82.5511 438.99 84.1324 439.715 84.6681 441.416C84.7581 441.707 85.0656 442.042 85.3474 442.14C88.4034 443.224 91.4768 444.261 94.5408 445.33C94.944 445.47 95.2002 445.464 95.4827 445.09C96.0319 444.362 96.7488 444.023 97.6989 444.293C97.8874 444.346 98.2289 444.224 98.3584 444.067C101.435 440.346 104.499 436.614 107.538 432.865C107.751 432.604 107.759 432.178 107.861 431.828Z" fill="#4A5364"/>
<path d="M103 255.286C102.988 254.437 103.474 254.009 104.464 254C105.353 253.991 106.104 254.618 106.11 255.378C106.116 256.107 105.326 256.765 104.44 256.771C103.609 256.775 103.016 256.162 103 255.286Z" fill="#4A5364"/>
<path d="M61.0002 382.286C60.9879 381.437 61.4739 381.009 62.4644 381C63.3533 380.991 64.1038 381.618 64.11 382.378C64.1161 383.107 63.3256 383.765 62.4397 383.771C61.6093 383.775 61.0156 383.162 61.0002 382.286Z" fill="#4A5364"/>
<path d="M78.0002 332.286C77.9879 331.437 78.4739 331.009 79.4644 331C80.3533 330.991 81.1038 331.618 81.11 332.378C81.1161 333.107 80.3256 333.765 79.4397 333.771C78.6093 333.775 78.0156 333.162 78.0002 332.286Z" fill="#4A5364"/>
<path d="M198 422.286C197.988 421.437 198.474 421.009 199.464 421C200.353 420.991 201.104 421.618 201.11 422.378C201.116 423.107 200.326 423.765 199.44 423.771C198.609 423.775 198.016 423.162 198 422.286Z" fill="#4A5364"/>
<path d="M334 339.286C333.988 338.437 334.474 338.009 335.464 338C336.353 337.991 337.104 338.618 337.11 339.378C337.116 340.107 336.326 340.765 335.44 340.771C334.609 340.775 334.016 340.162 334 339.286Z" fill="#4A5364"/>
<path d="M372 274.286C371.988 273.437 372.474 273.009 373.464 273C374.353 272.991 375.104 273.618 375.11 274.378C375.116 275.107 374.326 275.765 373.44 275.771C372.609 275.775 372.016 275.162 372 274.286Z" fill="#4A5364"/>
<path d="M432 206.286C431.988 205.437 432.474 205.009 433.464 205C434.353 204.991 435.104 205.618 435.11 206.378C435.116 207.107 434.326 207.765 433.44 207.771C432.609 207.775 432.016 207.162 432 206.286Z" fill="#4A5364"/>
<path d="M414 129.286C413.988 128.437 414.474 128.009 415.464 128C416.353 127.991 417.104 128.618 417.11 129.378C417.116 130.107 416.326 130.765 415.44 130.771C414.609 130.775 414.016 130.162 414 129.286Z" fill="#4A5364"/>
<path d="M354 85.2858C353.988 84.4369 354.474 84.0093 355.464 84.0001C356.353 83.9909 357.104 84.6184 357.11 85.3781C357.116 86.1071 356.326 86.7653 355.44 86.7715C354.609 86.7746 354.016 86.1625 354 85.2858Z" fill="#4A5364"/>
<path d="M212 38.2858C211.988 37.4369 212.474 37.0093 213.464 37.0001C214.353 36.9909 215.104 37.6184 215.11 38.3781C215.116 39.1071 214.326 39.7653 213.44 39.7715C212.609 39.7746 212.016 39.1625 212 38.2858Z" fill="#4A5364"/>
<path d="M139 142.286C138.988 141.437 139.474 141.009 140.464 141C141.353 140.991 142.104 141.618 142.11 142.378C142.116 143.107 141.326 143.765 140.44 143.771C139.609 143.775 139.016 143.162 139 142.286Z" fill="#4A5364"/>
<path d="M43.0002 187.286C42.9879 186.437 43.4739 186.009 44.4644 186C45.3533 185.991 46.1038 186.618 46.11 187.378C46.1161 188.107 45.3256 188.765 44.4397 188.771C43.6093 188.775 43.0156 188.162 43.0002 187.286Z" fill="#4A5364"/>
<path d="M283 43.8115C283.009 44.6169 282.527 45.2814 281.599 45.6136C280.665 45.9458 279.712 46.2372 278.756 46.5005C278.261 46.6352 278.111 46.8421 278.233 47.3686C278.518 48.5815 278.763 49.8069 278.973 51.0385C279.217 52.4802 278.211 53.5708 276.904 53.3263C276.13 53.1822 275.585 52.5648 275.419 51.587C275.243 50.5308 275.065 49.4746 274.958 48.4122C274.895 47.7697 274.71 47.5817 274.049 47.7635C273.294 47.9703 272.504 48.0988 271.724 48.1458C270.881 48.196 270.254 47.7196 270.069 47.0615C269.862 46.3281 270.116 45.5697 270.89 45.1873C271.774 44.7486 272.72 44.4195 273.664 44.1249C274.228 43.9494 274.356 43.683 274.265 43.1252C274.128 42.2727 274.049 41.4046 274.012 40.5428C273.977 39.6903 274.416 39.1262 275.096 39.0165C275.754 38.9099 276.353 39.3236 276.603 40.1353C276.823 40.8405 277.02 41.555 277.139 42.2821C277.243 42.9152 277.509 43.0123 278.073 42.8274C278.775 42.5987 279.493 42.4137 280.217 42.2727C280.684 42.1818 281.182 42.1317 281.649 42.1975C282.445 42.3009 282.99 43.0155 283 43.8115Z" fill="#4A5364"/>
</svg>
