<svg width="80" height="80" viewBox="0 0 80 80" fill="none" xmlns="http://www.w3.org/2000/svg">
<g clip-path="url(#clip0_2549_13821)">
<path d="M80 0H0V80H80V0Z" fill="#FFF6E2"/>
<path d="M9.36625 79.9999C9.30822 79.7509 9.36373 79.6845 9.65389 79.6979C9.62529 79.8022 9.59838 79.9006 9.57147 79.9999C9.50334 79.9999 9.43522 79.9999 9.36625 79.9999Z" fill="#4A5364"/>
<path d="M30.9614 56.6374C30.9614 56.8124 30.9589 56.9882 30.9622 57.1631C30.9732 57.7653 30.9807 58.3675 30.9992 58.9688C31.0068 59.2127 31.0732 59.4583 31.0539 59.6988C31.0026 60.3161 30.6502 60.7779 30.2028 61.1715C29.6039 61.698 28.8882 61.9772 28.1077 62.0832C27.6216 62.1496 27.1288 62.2118 26.6401 62.1992C25.8529 62.179 24.715 61.5928 24.5157 60.4835C24.4761 60.2623 24.5291 60.026 24.5342 59.7964C24.5358 59.7299 24.5417 59.6408 24.5039 59.5987C23.4686 58.4364 22.8731 57.0479 22.4543 55.576C21.9496 53.8048 21.6864 51.9966 21.7369 50.1497C21.7411 49.9916 21.3634 49.7115 21.228 49.7847C21.1734 49.8141 21.1414 49.899 21.1137 49.9646C20.9993 50.2329 20.9185 50.5189 20.7756 50.7695C20.3534 51.5096 19.6259 51.6888 18.8832 51.2506C18.3433 50.9318 17.9547 50.4642 17.6646 49.9192C17.2171 49.0807 16.9497 48.1766 16.7722 47.2464C16.4476 45.5416 16.4097 43.82 16.5292 42.0959C16.6376 40.529 16.9093 38.9908 17.4585 37.5114C17.6881 36.8932 17.9665 36.3003 18.3929 35.7889C18.519 35.6375 18.6629 35.5021 18.8151 35.3423C17.7781 34.7578 16.8958 33.9866 16.1986 33.0354C15.985 33.101 15.7958 33.1842 15.5981 33.2162C15.0775 33.2986 14.6486 33.0833 14.271 32.7494C13.5376 32.101 13.186 31.2524 13.0346 30.3121C12.9303 29.6628 12.9547 29.0135 13.1944 28.392C13.4291 27.7822 13.7941 27.3037 14.4938 27.1826C14.5468 27.1733 14.6116 27.0589 14.62 26.9875C14.7932 25.5577 15.2768 24.2398 16.0489 23.0295C17.1187 21.3533 18.6149 20.191 20.4383 19.4316C20.6923 19.3256 20.6889 19.3273 20.6099 19.0682C20.5039 18.7217 20.3946 18.3761 20.3046 18.0262C20.2684 17.8849 20.2121 17.8496 20.0674 17.8555C19.3399 17.8849 18.8622 17.4366 18.8958 16.7714C18.9253 16.1961 19.477 15.6864 20.0985 15.6595C20.7268 15.6326 21.2137 16.0262 21.2878 16.6343C21.3323 16.9976 21.2003 17.3088 20.9404 17.5594C20.847 17.6494 20.8327 17.7251 20.8723 17.8454C20.9934 18.2078 21.1086 18.5729 21.2104 18.9421C21.2499 19.0867 21.2953 19.1237 21.4492 19.0808C22.3374 18.8336 23.244 18.6948 24.1649 18.7486C27.2995 18.9311 29.7023 20.3256 31.2742 23.0791C31.3003 23.1246 31.3289 23.1691 31.3407 23.1885C31.5518 23.1086 31.741 22.9976 31.9412 22.9698C32.3508 22.9143 32.667 23.1212 32.9202 23.424C33.2936 23.8706 33.4895 24.4004 33.6081 24.9622C33.8403 26.0632 33.799 27.1506 33.4214 28.2154C33.2566 28.6788 33.0236 29.1035 32.609 29.397C32.4139 29.5358 32.2086 29.6174 32.0177 29.4441C31.6721 30.2616 31.3264 31.0791 30.9799 31.8991C31.7873 32.0816 32.3895 32.6594 32.9689 33.2263C35.1842 35.3928 37.0413 37.8385 38.5316 40.5559C38.7864 41.0202 38.9647 41.5282 39.1632 42.0219C39.3356 42.4516 39.5274 42.8797 39.6392 43.3263C39.831 44.0908 39.8268 44.8604 39.466 45.5887C39.0253 46.4785 38.164 46.6795 37.3651 46.0866C36.9942 45.8124 36.7275 45.4508 36.5047 45.0538C36.471 44.9941 36.4365 44.9361 36.3995 44.878C36.3937 44.8688 36.3768 44.8654 36.3348 44.8436C36.3348 45.3557 36.3709 45.8545 36.3213 46.3448C36.2927 46.6291 36.3087 46.836 36.4778 47.0849C36.8243 47.5954 36.9361 48.2069 37.0665 48.8006C37.3508 50.0967 37.5551 51.407 37.6502 52.7308C37.704 53.4802 37.7704 54.2312 37.7578 54.9806C37.7477 55.6055 37.6392 56.2304 37.5551 56.8527C37.5375 56.9873 37.5593 57.0445 37.6746 57.1067C38.1893 57.3801 38.5013 57.7855 38.4214 58.3977C38.3642 58.8368 38.1279 59.19 37.7973 59.4759C37.0261 60.1421 36.1178 60.5138 35.122 60.6896C34.434 60.8107 33.7461 60.8275 33.0732 60.6114C32.8613 60.5432 32.651 60.4465 32.4652 60.3246C31.9841 60.0092 31.8403 59.5474 32.0102 59.0008C32.0354 58.9209 32.0303 58.8141 31.9984 58.7367C31.8823 58.46 31.7494 58.19 31.6216 57.9183C31.4189 57.4869 31.2162 57.0554 31.0135 56.624C30.9992 56.629 30.9807 56.6332 30.9614 56.6374ZM18.9 35.8571C18.8109 35.9639 18.7411 36.0286 18.694 36.1077C18.4963 36.4424 18.2751 36.7679 18.1187 37.122C17.3946 38.7645 17.1212 40.513 17.0085 42.2843C16.9446 43.2918 16.9682 44.3078 17.0043 45.3187C17.043 46.3801 17.2407 47.4222 17.5443 48.4415C17.5838 48.5736 17.6587 48.635 17.7941 48.635C18.0262 48.6333 18.26 48.656 18.4888 48.6299C19.0481 48.566 19.5905 48.4289 20.0943 48.1657C20.1927 48.1144 20.2566 48.0656 20.2053 47.9285C19.8361 46.9445 19.7007 45.9167 19.6671 44.8738C19.6217 43.4491 19.7655 42.0479 20.2171 40.6888C20.2608 40.5585 20.2928 40.3591 20.4745 40.402C20.6856 40.4516 20.5956 40.6476 20.5619 40.7839C20.3542 41.614 20.2137 42.4533 20.1473 43.307C20.0514 44.5509 20.1111 45.7813 20.4139 46.9932C20.6191 47.8158 20.9126 48.6005 21.4879 49.2481C21.72 49.5096 21.9925 49.7149 22.3475 49.7678C22.7251 49.8242 23.1052 49.8873 23.4862 49.9016C25.0598 49.9613 26.6107 49.7569 28.1548 49.4785C28.3802 49.4381 28.6039 49.3885 28.8378 49.3414C27.842 44.8839 26.8529 40.455 25.8622 36.0185C25.858 36.0185 25.8302 36.0135 25.805 36.0194C24.4198 36.3533 23.0195 36.5862 21.5947 36.6493C20.8975 36.6796 20.1986 36.6779 19.5224 36.4643C19.2373 36.3751 19.0001 36.2229 18.9 35.8571ZM29.3407 49.2279C29.408 49.2195 29.4568 49.217 29.5022 49.206C30.8756 48.894 32.2431 48.5551 33.5417 47.9975C34.117 47.7502 34.6754 47.4592 35.2179 47.1463C35.5131 46.9756 35.7637 46.709 35.7713 46.3314C35.7831 45.7451 35.8032 45.1556 35.7511 44.5736C35.6535 43.4861 35.3381 42.4432 34.995 41.4113C34.5947 40.2061 34.1178 39.0379 33.3281 38.0244C33.2019 37.8629 33.043 37.7258 32.9319 37.5551C32.8815 37.4777 32.9109 37.3482 32.9033 37.2422C33.0034 37.2389 33.1119 37.2111 33.2019 37.2397C33.2869 37.2666 33.3676 37.3415 33.4248 37.4147C33.699 37.7628 34.0017 38.0959 34.2263 38.4744C35.1868 40.0866 35.826 41.8259 36.1641 43.6711C36.2061 43.8991 36.3146 43.9907 36.5114 44.0193C36.6317 44.037 36.7603 44.0471 36.8789 44.0261C37.5879 43.9041 38.1666 43.5526 38.6275 43.0025C38.7662 42.8368 38.8175 42.6468 38.7502 42.4466C38.614 42.0395 38.5013 41.6173 38.3053 41.2397C36.741 38.2246 34.6948 35.5677 32.2406 33.2254C31.9176 32.9168 31.5324 32.6661 31.1531 32.4248C30.8655 32.2414 30.8049 32.2894 30.7276 32.6367C30.7839 32.6712 30.8436 32.7048 30.8991 32.7427C31.2036 32.9513 31.2776 33.2381 31.101 33.5627C31.043 33.6695 30.9698 33.778 30.8773 33.8529C30.6393 34.0463 30.4012 34.2448 30.1388 34.4012C29.0489 35.0497 27.8596 35.4542 26.6477 35.8015C26.4988 35.8444 26.3508 35.8865 26.2398 35.9184C27.2768 40.3667 28.3071 44.7897 29.3407 49.2279ZM35.9361 47.2809C35.8672 47.3196 35.8234 47.3381 35.7873 47.3658C35.2313 47.7956 34.6199 48.1354 33.9723 48.3953C32.043 49.1707 30.043 49.7006 27.9892 50.0084C26.9017 50.1715 25.805 50.2783 24.7083 50.365C23.9244 50.4264 23.1355 50.4003 22.3609 50.2245C22.2928 50.2094 22.2188 50.2161 22.1221 50.2111C22.1658 50.8023 22.2011 51.3675 22.2499 51.9318C22.3954 53.6316 22.7655 55.2825 23.4282 56.8544C23.7083 57.518 24.0926 58.1387 24.4408 58.7728C24.4753 58.8359 24.5914 58.9024 24.657 58.8923C26.5451 58.587 28.4307 58.2691 30.3188 57.9646C30.4837 57.9377 30.5308 57.8931 30.5291 57.7283C30.5207 56.9823 30.5257 56.2371 30.5282 55.4911C30.5282 55.4028 30.5274 55.3086 30.5585 55.2287C30.5846 55.1623 30.6468 55.0815 30.7091 55.0655C30.757 55.0529 30.847 55.1152 30.8857 55.169C30.9732 55.2901 31.0438 55.4247 31.1145 55.5567C31.4483 56.1841 31.7806 56.8124 32.1119 57.4415C32.1615 57.5357 32.1977 57.6088 32.3424 57.5601C33.8386 57.0588 35.3373 56.5651 36.8377 56.0756C36.9773 56.0302 37.0387 55.9587 37.0421 55.8174C37.0513 55.4751 37.0892 55.1328 37.0741 54.7922C37.0236 53.7064 36.974 52.6206 36.8848 51.5382C36.7898 50.3784 36.5787 49.2355 36.2347 48.1211C36.1506 47.841 36.0404 47.5702 35.9361 47.2809ZM18.2819 34.3869C18.2894 34.365 18.2953 34.3566 18.2937 34.3541C18.1927 34.2086 18.0876 34.0656 17.9909 33.9176C16.6789 31.9185 16.2054 29.7276 16.5081 27.3634C16.7335 25.6065 17.4173 24.0489 18.6023 22.7276C19.7276 21.4736 21.1246 20.6982 22.8083 20.5165C24.4955 20.334 26.0455 20.7823 27.3701 21.8193C30.339 24.1431 31.244 27.2658 30.736 30.8958C30.7082 31.0968 30.6578 31.2936 30.6182 31.4929C30.6822 31.4643 30.7099 31.4273 30.7335 31.3869C31.598 29.8621 31.9546 28.228 31.8083 26.4795C31.6788 24.9235 31.1632 23.5089 30.1809 22.3003C28.0085 19.6275 25.1834 18.7613 21.8706 19.4888C17.8731 20.3668 14.4064 24.6393 15.2281 29.4012C15.5729 31.4004 16.5418 33.0328 18.1355 34.2902C18.1793 34.3264 18.2306 34.3541 18.2819 34.3869ZM34.016 60.195C34.0202 60.1774 34.0253 60.1597 34.0295 60.1429C35.027 60.1286 35.9622 59.8729 36.8276 59.3801C37.2473 59.1412 37.614 58.8342 37.8487 58.3961C37.9647 58.1791 37.9294 57.9764 37.762 57.8149C37.5896 57.6484 37.3945 57.5003 37.1245 57.5845C35.6577 58.0411 34.1901 58.4978 32.7234 58.9545C32.5114 59.0209 32.4088 59.1648 32.4282 59.3851C32.4542 59.6837 32.6552 59.8654 32.9067 59.9453C33.2667 60.0588 33.6451 60.1143 34.016 60.195ZM30.5282 59.3717C28.7259 59.8485 26.9707 60.2623 25.1002 60.1017C25.1498 60.2716 25.1734 60.4137 25.2305 60.5407C25.408 60.9293 25.7234 61.1824 26.1145 61.3203C27.5375 61.8233 28.8277 61.5567 29.9824 60.6021C30.2187 60.407 30.3802 60.1496 30.4568 59.8502C30.4946 59.7056 30.5022 59.5533 30.5282 59.3717ZM30.3289 32.9395C29.8882 33.2667 29.5047 33.5955 29.0783 33.8554C28.7259 34.0707 28.3331 34.2288 27.9429 34.3701C26.1296 35.0253 24.2625 35.4458 22.3374 35.5888C21.424 35.6569 20.5089 35.7334 19.5981 35.5593C19.4787 35.5366 19.3853 35.5391 19.334 35.6737C19.281 35.8142 19.3475 35.9067 19.4585 35.9597C19.5922 36.0244 19.7352 36.0816 19.8807 36.1102C20.6889 36.2692 21.5031 36.217 22.3121 36.1363C23.9757 35.9706 25.6014 35.6073 27.1961 35.1136C28.1683 34.8133 29.1346 34.4862 30.0152 33.9614C30.2415 33.8259 30.4534 33.6552 30.6426 33.471C30.8394 33.2793 30.7991 33.1523 30.5493 33.0396C30.4576 32.9984 30.3668 32.9563 30.3289 32.9395ZM14.5603 27.651C14.297 27.6712 14.0641 27.7932 13.9118 28.032C13.7848 28.2314 13.6545 28.4458 13.599 28.6721C13.2743 29.9765 13.5308 31.1691 14.3727 32.217C14.5283 32.4113 14.7655 32.561 14.9934 32.6712C15.2844 32.8117 15.5973 32.815 15.8933 32.593C14.9261 31.0774 14.5157 29.4231 14.5603 27.651ZM32.064 29.0211C32.0867 29.0329 32.1094 29.0446 32.1321 29.0564C32.2616 28.9403 32.4172 28.8428 32.5148 28.7049C32.6544 28.5055 32.7814 28.2877 32.8621 28.0589C33.2456 26.9698 33.2549 25.863 32.9605 24.752C32.8478 24.3247 32.6771 23.9269 32.344 23.614C32.1144 23.3996 31.7452 23.392 31.5215 23.5829C32.2944 25.3272 32.4744 27.1447 32.064 29.0211ZM17.7503 49.1362C18.0826 49.8612 18.4635 50.4962 19.1852 50.8435C19.7377 51.1101 20.1793 50.9192 20.3862 50.3381C20.5317 49.9285 20.5291 49.5063 20.477 49.0824C20.4576 48.926 20.419 48.772 20.3853 48.5971C19.5443 49.0235 18.6915 49.1968 17.7503 49.1362ZM19.535 27.3861C19.4593 27.1414 19.4156 26.8504 19.2852 26.6056C19.0304 26.1279 18.3466 26.0413 17.9833 26.4088C17.509 26.8891 17.4476 27.8201 17.8513 28.3609C18.0464 28.6216 18.2852 28.815 18.6284 28.7545C18.9791 28.6931 19.2508 28.4971 19.3635 28.1472C19.4383 27.916 19.4728 27.6721 19.535 27.3861ZM36.6939 44.5324C36.9403 45.0454 37.2557 45.4735 37.7418 45.7468C38.3037 46.0631 38.7906 45.889 39.037 45.2927C39.2263 44.8351 39.2633 44.3532 39.2111 43.8646C39.1876 43.6476 39.1514 43.4323 39.1127 43.1547C38.4828 44.0008 37.7015 44.4457 36.6939 44.5324ZM20.0329 17.387C20.2247 17.3887 20.2508 17.3727 20.5174 17.0935C20.6595 16.9438 20.731 16.768 20.6561 16.5687C20.5796 16.3626 20.4055 16.2533 20.1927 16.2592C20.0422 16.2634 19.8799 16.3004 19.7461 16.3693C19.5064 16.493 19.4005 16.7646 19.4652 16.9934C19.5275 17.2121 19.7772 17.3845 20.0329 17.387ZM19.3618 24.8394C19.3534 24.7865 19.3475 24.6973 19.3264 24.6124C19.2617 24.3516 19.006 24.2314 18.7932 24.3979C18.6612 24.5013 18.5569 24.678 18.5081 24.842C18.4106 25.1691 18.5586 25.4433 18.805 25.4761C19.0598 25.5097 19.3222 25.2625 19.355 24.9563C19.3584 24.9286 19.3584 24.9017 19.3618 24.8394Z" fill="#4A5364"/>
<path d="M56.8611 59.9325C56.8611 60.2723 56.851 60.5793 56.8636 60.8854C56.8855 61.4514 56.925 62.0166 56.9485 62.5826C56.9721 63.1444 56.7358 63.6061 56.3657 64.0056C55.7761 64.6406 55.0217 64.9611 54.1815 65.0847C53.7164 65.1528 53.2387 65.2344 52.777 65.1957C51.9242 65.1251 51.2345 64.7331 50.8678 63.9131C50.7291 63.6028 50.682 63.2714 50.7888 62.9316C50.8064 62.8744 50.7862 62.7786 50.7467 62.7332C49.6483 61.4775 49.0663 59.9737 48.6761 58.385C48.3077 56.8854 48.0916 55.3648 48.1454 53.8139C48.1496 53.6903 47.9225 53.4977 47.7459 53.4767C47.5735 53.4565 47.5903 53.6003 47.5449 53.7029C47.4112 54.0074 47.2959 54.3278 47.1117 54.6003C46.7509 55.1327 46.0571 55.2555 45.4717 54.8669C45.137 54.644 44.83 54.3497 44.5827 54.0318C43.9982 53.2799 43.7568 52.3707 43.5466 51.4641C43.1933 49.9409 43.1387 48.3917 43.2009 46.8341C43.2623 45.3085 43.4835 43.8106 43.9578 42.359C44.1227 41.8543 44.3346 41.359 44.5869 40.893C44.7888 40.5213 45.0848 40.2 45.3489 39.8426C45.3447 39.8392 45.3052 39.8064 45.2615 39.7803C44.3918 39.2656 43.6374 38.6189 43.0277 37.8115C42.9402 37.6954 42.8746 37.6618 42.7291 37.7341C42.3044 37.946 41.867 37.92 41.4768 37.6651C41.206 37.4885 40.9326 37.2774 40.7426 37.0209C39.936 35.9301 39.6702 34.7181 40.0521 33.3952C40.1622 33.0133 40.3632 32.6786 40.6854 32.4339C40.793 32.3523 40.9158 32.2438 41.0378 32.2362C41.4196 32.211 41.4381 31.957 41.4835 31.6694C42.047 28.1092 44.5491 25.3439 48.1445 24.4499C50.6239 23.8334 52.941 24.2749 55.0158 25.8023C55.893 26.4482 56.5852 27.264 57.1109 28.2186C57.147 28.2833 57.184 28.3473 57.2185 28.407C57.2471 28.4028 57.2648 28.4053 57.2732 28.3977C57.7871 27.941 58.454 28.2354 58.7913 28.7215C59.2749 29.4179 59.4363 30.2085 59.47 31.0327C59.5053 31.9116 59.4103 32.7745 58.9704 33.5567C58.8291 33.8073 58.6239 34.0285 58.4153 34.2303C58.2513 34.3893 58.0343 34.4532 57.8451 34.2875C57.5196 35.0596 57.1958 35.8283 56.8771 36.5861C58.1647 37.0806 59.057 38.1117 59.9578 39.1142C61.2126 40.5104 62.3388 42.0099 63.3295 43.6079C63.835 44.4229 64.2782 45.2656 64.6096 46.1731C64.7946 46.6802 65.0343 47.168 65.1049 47.708C65.1857 48.3253 65.1697 48.9384 64.888 49.5154C64.4733 50.3631 63.6466 50.5583 62.8939 49.9906C62.5532 49.734 62.3085 49.3993 62.0982 49.0351C62.0587 48.967 62.0158 48.9006 61.9502 48.7929C61.967 49.4195 62.0209 49.9931 61.8577 50.5557C61.8468 50.5944 61.856 50.6583 61.8821 50.6861C62.2479 51.0805 62.3674 51.5869 62.496 52.0797C62.851 53.4397 63.0444 54.8282 63.1588 56.2277C63.2168 56.9426 63.2774 57.66 63.2664 58.3757C63.2572 58.967 63.1478 59.5574 63.0772 60.147C63.0654 60.2454 63.0402 60.3244 63.1596 60.385C64.2202 60.9224 64.0368 61.9897 63.3118 62.628C62.5944 63.2605 61.7366 63.6019 60.8039 63.7735C60.2336 63.8786 59.6575 63.9157 59.0949 63.7643C58.7896 63.6827 58.4843 63.5548 58.2194 63.3841C57.8072 63.1183 57.6996 62.6844 57.8375 62.2067C57.8653 62.1108 57.8434 61.9855 57.8056 61.8887C57.7122 61.6465 57.5995 61.4119 57.4885 61.1772C57.3051 60.7878 57.1176 60.4001 56.93 60.0124C56.9191 59.988 56.8964 59.9712 56.8611 59.9325ZM61.549 51.0999C61.3598 51.2353 61.2252 51.3396 61.0822 51.4321C60.2782 51.9527 59.4019 52.3118 58.4961 52.6121C56.4027 53.3043 54.2589 53.75 52.0638 53.9493C50.9393 54.0519 49.8123 54.1327 48.6937 53.8829C48.5516 53.8509 48.5096 53.9157 48.5196 54.0494C48.5415 54.3497 48.5575 54.6499 48.576 54.9502C48.6879 56.7584 49.0579 58.5111 49.7425 60.1915C50.0848 61.0309 50.5011 61.8282 51.121 62.5069C51.2875 62.6894 51.4683 62.7861 51.7131 62.7617C52.3994 62.6928 53.089 62.6457 53.7711 62.5498C54.6239 62.4304 55.4734 62.284 56.2892 61.9897C56.4305 61.9384 56.4734 61.8694 56.4708 61.7222C56.4557 60.7651 56.4498 59.8072 56.4422 58.8501C56.4414 58.7819 56.4389 58.7071 56.4658 58.6482C56.4961 58.5809 56.5516 58.4884 56.6079 58.48C56.6626 58.4716 56.7509 58.5414 56.7904 58.5994C56.8939 58.7517 56.9822 58.9148 57.0697 59.0772C57.5036 59.8837 57.9368 60.692 58.3665 61.501C58.4246 61.6095 58.4725 61.6659 58.6172 61.6179C59.7341 61.2504 60.8493 60.877 61.9763 60.5422C62.3505 60.4312 62.4944 60.2411 62.5305 59.8644C62.6449 58.676 62.6508 57.4893 62.56 56.2992C62.4489 54.8442 62.2807 53.3993 61.8568 51.9964C61.7685 51.7046 61.6592 51.4195 61.549 51.0999ZM45.465 40.3665C45.428 40.396 45.4036 40.4086 45.3876 40.4279C45.3304 40.4961 45.2716 40.5633 45.2202 40.6357C44.7989 41.237 44.523 41.9073 44.3237 42.6062C43.7165 44.7315 43.523 46.9023 43.6526 49.1049C43.7139 50.1462 43.8754 51.1705 44.1748 52.1714C44.2102 52.29 44.2463 52.39 44.3918 52.4035C45.179 52.4758 45.9124 52.2883 46.6105 51.9435C46.6618 51.9182 46.7114 51.7921 46.6921 51.7374C46.3582 50.7845 46.2194 49.7988 46.1891 48.7954C46.1496 47.4801 46.3001 46.1874 46.7005 44.9292C46.7249 44.8518 46.7518 44.7702 46.798 44.7055C46.8292 44.6626 46.9116 44.6138 46.9461 44.6281C46.9957 44.6491 47.0461 44.7214 47.0537 44.7778C47.0638 44.856 47.0403 44.9401 47.0209 45.0192C46.571 46.8896 46.4187 48.7685 46.8502 50.6659C47.0327 51.4674 47.2959 52.2319 47.8207 52.8821C48.0537 53.1714 48.327 53.4077 48.708 53.4657C49.0789 53.5221 49.4524 53.5852 49.8266 53.5969C51.449 53.6466 53.0461 53.4254 54.6348 53.1209C54.8131 53.0864 54.856 53.0259 54.8148 52.8493C54.6029 51.9443 54.3985 51.0368 54.1983 50.1293C53.5036 46.9712 52.8123 43.8123 52.1227 40.6533C52.0932 40.5205 52.0579 40.4776 51.9065 40.5078C51.1689 40.6559 50.4313 40.8056 49.6887 40.92C48.6323 41.0814 47.5693 41.1849 46.5028 41.0158C46.084 40.9502 45.6551 40.8653 45.465 40.3665ZM55.3178 52.9603C55.3859 52.9527 55.4271 52.9519 55.4666 52.9426C56.7694 52.6508 58.0604 52.3194 59.295 51.8022C59.7484 51.6121 60.1933 51.3993 60.6289 51.1722C61.179 50.8854 61.4708 50.4254 61.4414 49.7938C61.4178 49.2824 61.4035 48.7677 61.3346 48.2614C61.168 47.0276 60.7812 45.851 60.3421 44.692C60.041 43.8964 59.6676 43.1352 59.1403 42.4591C59.0057 42.2866 58.8459 42.1336 58.724 41.9536C58.6735 41.8796 58.6912 41.7593 58.6786 41.6592C58.7795 41.6567 58.8998 41.6172 58.9754 41.6592C59.1041 41.729 59.2244 41.835 59.3119 41.9536C59.5717 42.3043 59.8451 42.6517 60.0587 43.0301C60.8787 44.4826 61.4456 46.0318 61.7534 47.6735C61.8097 47.9721 61.8905 48.0444 62.1975 48.0579C62.306 48.0629 62.4161 48.0528 62.5238 48.0343C62.9662 47.9578 63.3489 47.7509 63.6979 47.4775C64.2589 47.0385 64.3556 46.7694 64.0789 46.1167C63.8232 45.5145 63.5431 44.9157 63.2109 44.3531C61.8039 41.9645 60.1142 39.7921 58.0966 37.8872C57.7484 37.5583 57.3161 37.3169 56.9166 37.0453C56.8409 36.994 56.7349 36.9721 56.6794 37.1042C56.6306 37.2194 56.6054 37.2993 56.7492 37.3859C57.1167 37.6088 57.1765 37.9233 56.9132 38.269C56.7829 38.4406 56.6231 38.6046 56.4431 38.7206C56.0873 38.9494 55.7164 39.1571 55.3388 39.3472C54.4675 39.7854 53.5373 40.068 52.602 40.3321C52.5196 40.3556 52.4389 40.3851 52.3918 40.401C53.3708 44.5995 54.3422 48.7727 55.3178 52.9603ZM56.5314 36.2724C56.5827 36.2017 56.5995 36.1815 56.613 36.1588C56.6626 36.0772 56.7156 35.9965 56.7593 35.9116C57.5137 34.4641 57.8182 32.9292 57.6357 31.3052C57.3935 29.1504 56.4212 27.3767 54.6626 26.1227C52.0116 24.2312 49.1614 24.1471 46.3296 25.6349C43.3523 27.1992 41.3616 30.5895 42.0033 34.2774C42.3254 36.1277 43.2219 37.6416 44.6862 38.8182C44.74 38.8611 44.8014 38.8947 44.8594 38.9326C44.7938 38.7644 44.6954 38.6357 44.6071 38.5003C43.2396 36.3994 42.8216 34.1092 43.3254 31.6685C43.7173 29.7694 44.6492 28.1706 46.2354 27.0075C47.4574 26.1118 48.8359 25.6955 50.3481 25.8569C52.0327 26.0369 53.4389 26.8124 54.5575 28.0672C56.3211 30.0461 56.9612 32.3943 56.7231 35.0058C56.6853 35.4111 56.602 35.8123 56.5314 36.2724ZM59.7458 63.3093C60.7315 63.2336 61.6491 62.9998 62.4843 62.485C62.8249 62.2756 63.1226 62.0157 63.3287 61.6633C63.4489 61.4573 63.4405 61.2613 63.2875 61.0755C63.1218 60.8736 62.8577 60.7836 62.6331 60.8526C62.2025 60.9863 61.7719 61.12 61.3413 61.2538C60.3951 61.5473 59.4498 61.8408 58.5036 62.1343C58.2479 62.2134 58.1268 62.4935 58.2866 62.7281C58.3884 62.877 58.549 63.0284 58.7147 63.083C59.0469 63.1932 59.401 63.2378 59.7458 63.3093ZM56.4431 62.5372C54.7374 62.9653 53.0823 63.3833 51.2774 63.2193C51.3809 63.4564 51.4414 63.6516 51.5457 63.8189C51.7139 64.0872 51.9671 64.2689 52.2648 64.3749C53.5146 64.8198 54.6727 64.6221 55.7425 63.8576C56.0444 63.6415 56.2766 63.3639 56.3733 62.9972C56.4103 62.8576 56.4178 62.7113 56.4431 62.5372ZM56.2152 37.5676C55.9216 37.8148 55.6584 38.0781 55.3556 38.2808C55.0621 38.4767 54.7374 38.6348 54.4086 38.766C52.6063 39.4885 50.7324 39.9166 48.798 40.0705C47.8914 40.1428 46.9839 40.2227 46.0773 40.0503C46.0201 40.0394 45.9023 40.1025 45.8914 40.1504C45.8737 40.2269 45.8931 40.3632 45.9452 40.3951C46.0874 40.4826 46.2522 40.5726 46.4137 40.5827C47.0125 40.6231 47.6164 40.6836 48.2127 40.6424C49.9587 40.5213 51.6609 40.1487 53.3312 39.6306C54.2143 39.3565 55.0882 39.0562 55.8922 38.5928C56.1487 38.4448 56.3775 38.2404 56.5945 38.0352C56.7265 37.9099 56.687 37.7946 56.5247 37.7089C56.4229 37.6542 56.3144 37.6121 56.2152 37.5676ZM41.3927 32.5701C41.0924 32.613 40.8855 32.7383 40.7619 32.9469C40.6206 33.1849 40.4785 33.4397 40.4188 33.7064C40.1833 34.761 40.3952 35.7492 40.9881 36.6416C41.1563 36.8947 41.4137 37.1016 41.6635 37.2833C41.8847 37.4431 42.1597 37.4658 42.4314 37.3775C42.5886 37.3262 42.6357 37.2623 42.5348 37.0966C41.8468 35.9721 41.4717 34.7467 41.3944 33.4322C41.3784 33.1546 41.3927 32.8754 41.3927 32.5701ZM55.523 33.3363C55.5104 33.3338 55.4977 33.3313 55.4851 33.3287C55.4851 33.2673 55.4952 33.2043 55.4834 33.1445C55.3094 32.2413 55.0562 31.3649 54.5659 30.5735C54.454 30.3927 54.2951 30.2623 54.0781 30.2295C53.8527 30.195 53.6517 30.2539 53.5213 30.4524C53.4002 30.6382 53.4111 30.8435 53.544 31.01C53.9486 31.5171 54.0924 32.1202 54.1925 32.7358C54.2572 33.1319 54.2824 33.5348 54.3245 33.9343C54.3565 34.2379 54.5188 34.4381 54.7677 34.4759C55.0209 34.5146 55.2496 34.375 55.3422 34.0873C55.4221 33.8443 55.4641 33.5878 55.523 33.3363ZM57.8888 33.9074C58.1874 33.7913 58.3749 33.6206 58.5305 33.253C59.0915 31.9267 59.089 30.5937 58.5137 29.2732C58.4271 29.0747 58.2639 28.8973 58.1016 28.7476C57.8905 28.5541 57.6365 28.5718 57.3733 28.761C58.1184 30.4019 58.2606 32.1168 57.8888 33.9074ZM44.3817 52.8711C44.5726 53.3328 44.7922 53.729 45.1252 54.0368C45.3464 54.2412 45.6105 54.4195 45.8847 54.5414C46.2581 54.7071 46.5962 54.5633 46.7787 54.1966C46.8712 54.0099 46.9377 53.8005 46.9662 53.5953C47.0218 53.189 46.994 52.7828 46.862 52.3657C46.0798 52.75 45.2774 52.9367 44.3817 52.8711ZM62.2774 48.5179C62.3817 48.8762 62.7811 49.3774 63.1377 49.6155C63.7332 50.0124 64.2832 49.8333 64.5145 49.1571C64.6575 48.7374 64.6861 48.3018 64.634 47.8619C64.6112 47.671 64.581 47.4809 64.5549 47.2908C64.5381 47.2858 64.5213 47.2807 64.5036 47.2757C63.9502 48.0217 63.2134 48.4397 62.2774 48.5179ZM52.7147 29.9965C53.1227 29.9948 53.454 29.6853 53.4582 29.3027C53.4633 28.8561 53.0781 28.4137 52.687 28.4171C52.2925 28.4204 51.9637 28.7594 51.9645 29.1605C51.9662 29.634 52.2934 29.9991 52.7147 29.9965Z" fill="#4A5364"/>
<path d="M67.2428 12.0362C66.9636 12.2641 66.7172 12.4643 66.4741 12.6686C66.448 12.6905 66.4338 12.7359 66.4304 12.7721C66.4253 12.8369 66.4598 12.9395 66.4304 12.9613C66.3286 13.0345 66.2109 13.1077 66.0906 13.1279C65.9569 13.1506 65.8425 12.9824 65.9064 12.8352C65.9914 12.6384 66.0957 12.4357 66.2403 12.2818C66.6432 11.8545 67.1478 11.5887 67.7104 11.4222C67.8425 11.3835 67.9779 11.3163 68.0822 11.2279C69.1511 10.3238 70.3681 9.65688 71.5986 9.01012C73.5826 7.96723 75.6953 7.30702 77.8879 6.88397C78.0073 6.86127 78.1402 6.83856 78.2529 6.86799C78.3488 6.89323 78.4842 6.98742 78.4926 7.06396C78.5035 7.15815 78.4244 7.30029 78.3412 7.35664C78.2344 7.42897 78.0855 7.44411 77.9518 7.47102C74.9871 8.05722 72.2268 9.15394 69.686 10.7923C69.03 11.2153 68.3942 11.6661 67.8745 12.2616C67.803 12.344 67.6936 12.4155 67.5893 12.4416C67.4127 12.4853 67.3194 12.3793 67.2428 12.0362Z" fill="#4A5364"/>
<path d="M11.4832 60.9837C11.6497 60.9837 11.7532 60.9686 11.8508 60.9862C12.109 61.0333 12.2031 61.2865 12.0047 61.453C11.839 61.591 11.6178 61.6641 11.4185 61.7592C11.3285 61.802 11.2175 61.8105 11.1392 61.8668C9.20989 63.2385 7.421 64.7734 5.78097 66.4808C5.57828 66.6919 5.41176 66.9374 5.22925 67.167C5.19982 67.2049 5.17627 67.2469 5.14347 67.2823C5.02572 67.4101 4.88863 67.469 4.72211 67.3807C4.57661 67.3033 4.51689 67.1275 4.59511 66.9517C4.65566 66.8155 4.73136 66.6792 4.82724 66.5674C5.08964 66.2612 5.35625 65.9576 5.64052 65.6717C7.19308 64.1107 8.87095 62.6978 10.691 61.4555C10.7448 61.4185 10.8037 61.3454 10.8079 61.2856C10.8238 61.0384 10.9332 60.8391 11.0997 60.6692C11.4605 60.3008 11.9054 60.0603 12.373 59.8609C12.4849 59.813 12.6279 59.7852 12.6985 59.9291C12.7767 60.0863 12.6523 60.1637 12.5412 60.2369C12.2561 60.4244 11.9693 60.6111 11.6868 60.8012C11.6262 60.8416 11.5774 60.8979 11.4832 60.9837Z" fill="#4A5364"/>
<path d="M67.4473 37.358C67.4877 36.9862 67.5154 36.6406 67.5676 36.2991C67.5894 36.1536 67.6542 36.0123 67.7147 35.876C67.7812 35.7255 67.8863 35.6145 68.0688 35.6078C68.258 35.601 68.4027 35.6961 68.4591 35.855C68.5701 36.1679 68.6744 36.4892 68.7265 36.8155C68.819 37.3992 68.7963 37.9871 68.6996 38.5716C68.6231 39.0367 68.274 39.2579 67.8215 39.1073C67.6298 39.0434 67.4296 38.961 67.274 38.8365C66.8602 38.5035 66.4523 38.1586 66.0781 37.7835C65.9233 37.6288 65.8199 37.3941 65.7627 37.1771C65.6845 36.8786 65.8602 36.6885 66.1655 36.7247C66.3632 36.7482 66.5566 36.8332 66.7433 36.9097C66.8687 36.961 66.9814 37.0426 67.0966 37.1166C67.211 37.1889 67.3203 37.2697 67.4473 37.358Z" fill="#4A5364"/>
<path d="M16.1969 66.7716C15.9378 66.6404 15.9261 66.4133 15.9866 66.161C16.0741 65.8019 16.2457 65.4865 16.4853 65.2073C16.503 65.1871 16.5232 65.156 16.5451 65.1534C16.6393 65.1408 16.7343 65.1375 16.8293 65.1299C16.8226 65.2157 16.8377 65.3107 16.8058 65.3847C16.6805 65.6707 16.5392 65.9499 16.4063 66.2325C16.3937 66.2602 16.397 66.2956 16.3869 66.3822C16.4811 66.2611 16.5367 66.177 16.6048 66.1046C16.7023 66.0004 16.8251 65.9524 16.953 66.0399C17.085 66.1307 17.0657 66.2594 17.0043 66.3872C16.18 68.1164 15.6763 69.9381 15.434 71.8355C15.3853 72.2148 15.3441 72.5958 15.2877 72.9743C15.2482 73.2383 15.1195 73.3586 14.9311 73.3393C14.7377 73.3191 14.6384 73.1559 14.6712 72.8817C14.8487 71.4217 15.069 69.9709 15.5535 68.5739C15.7604 67.9818 15.9757 67.3914 16.1969 66.7716Z" fill="#4A5364"/>
<path d="M68.9739 17.7494C68.8107 17.8739 68.6736 17.9882 68.5247 18.0858C68.4667 18.1237 68.3835 18.1237 68.3111 18.1405C68.2968 18.0715 68.2615 17.9975 68.2758 17.9344C68.2884 17.8747 68.3456 17.8167 68.3969 17.7755C68.7712 17.4693 69.2026 17.2944 69.6778 17.2187C69.751 17.2069 69.8275 17.196 69.8931 17.1666C70.5407 16.8722 71.222 16.7073 71.9293 16.6535C72.1034 16.6401 72.2842 16.6611 72.4558 16.6964C72.6021 16.7267 72.7308 16.8175 72.7014 16.9958C72.6728 17.1699 72.5348 17.2179 72.3767 17.2086C71.6013 17.1649 70.8721 17.3566 70.1665 17.6518C70.0563 17.6981 69.9545 17.794 69.883 17.8924C69.7325 18.0967 69.5348 18.1968 69.2909 18.2103C69.0866 18.2212 69.0201 18.1262 68.9739 17.7494Z" fill="#4A5364"/>
<path d="M44.1301 10.2626C44.0073 10.2626 43.9132 10.2685 43.819 10.2617C43.5431 10.2407 43.3749 10.0717 43.4178 9.80336C43.4783 9.42657 43.5708 9.05484 43.6667 8.68478C43.7113 8.51152 43.8492 8.42658 44.0309 8.46611C44.2058 8.50395 44.279 8.63936 44.263 8.80421C44.2403 9.0397 44.1957 9.27266 44.1562 9.53423C44.263 9.53423 44.3488 9.53423 44.4354 9.53423C44.7365 9.53507 44.935 9.70328 44.9115 9.9968C44.8686 10.5384 44.7491 11.0641 44.4279 11.5216C44.4043 11.5552 44.3816 11.5956 44.348 11.6141C44.2647 11.6595 44.1756 11.6949 44.0881 11.7335C44.0721 11.652 44.0393 11.5687 44.0444 11.488C44.0671 11.0927 44.099 10.6982 44.1301 10.2626Z" fill="#4A5364"/>
<path d="M36.6319 69.872C36.5991 70.1823 36.4982 70.5179 36.2467 70.7913C35.97 71.0923 35.5882 71.1386 35.2467 70.914C35.0028 70.7534 34.8489 70.5213 34.7673 70.2454C34.7194 70.0831 34.737 69.9233 34.9221 69.8518C35.0978 69.7845 35.2038 69.888 35.2888 70.0276C35.3594 70.1437 35.4233 70.2673 35.5133 70.3665C35.6412 70.5078 35.7698 70.4986 35.8623 70.3337C35.9473 70.1815 35.9952 70.0082 36.0566 69.8426C36.0709 69.8047 36.0735 69.7627 36.0844 69.7231C36.1281 69.5675 36.1735 69.4086 36.3846 69.4296C36.5453 69.4464 36.6369 69.5978 36.6319 69.872Z" fill="#4A5364"/>
<path d="M56.5596 20.249C56.8119 20.2953 56.9447 20.4795 56.8615 20.6948C56.7168 21.069 56.5587 21.4391 56.3922 21.8041C56.3056 21.9933 56.1432 22.0547 55.9919 21.9883C55.8472 21.9244 55.79 21.7621 55.8623 21.5669C55.9952 21.2095 56.1264 20.8504 56.2837 20.5039C56.3316 20.3996 56.4654 20.3331 56.5596 20.249Z" fill="#4A5364"/>
<path d="M57.0498 22.5302C56.9489 22.4419 56.8303 22.3872 56.8093 22.3065C56.7874 22.2224 56.8328 22.0878 56.8967 22.0239C56.9783 21.9415 57.1045 21.8969 57.218 21.8548C57.5435 21.7346 57.8707 21.6194 58.2012 21.5134C58.3442 21.4671 58.4787 21.5075 58.5502 21.6488C58.6234 21.7934 58.5738 21.9448 58.44 22.0003C57.9893 22.1879 57.5292 22.3502 57.0498 22.5302Z" fill="#4A5364"/>
<path d="M54.6721 20.4762C54.6721 20.4148 54.6645 20.3517 54.6738 20.292C54.6948 20.1616 54.7528 20.0565 54.9009 20.0405C55.0455 20.0254 55.1565 20.0994 55.1776 20.2314C55.2272 20.5393 55.2625 20.8504 55.2768 21.1616C55.2835 21.3029 55.2036 21.4291 55.0312 21.4366C54.8605 21.4442 54.7814 21.3307 54.7554 21.1877C54.7125 20.9531 54.6881 20.715 54.6553 20.4787C54.662 20.4779 54.667 20.477 54.6721 20.4762Z" fill="#4A5364"/>
<path d="M73.5874 66.2878C73.6673 65.9607 73.7993 65.6562 74.0365 65.4056C74.0643 65.3762 74.1459 65.3661 74.1812 65.3854C74.2165 65.4048 74.2476 65.4779 74.2392 65.5191C74.2224 65.6041 74.1946 65.6966 74.1408 65.7614C73.9827 65.954 73.8103 66.1348 73.6429 66.3206C73.6244 66.3097 73.6059 66.2988 73.5874 66.2878Z" fill="#4A5364"/>
<path d="M34.2993 67.9037C34.2942 68.0593 34.1748 68.1703 34.0184 68.1661C33.8645 68.1619 33.7518 68.0416 33.756 67.8852C33.7602 67.7338 33.8863 67.6152 34.0369 67.6203C34.1891 67.6245 34.3043 67.749 34.2993 67.9037Z" fill="#4A5364"/>
<path d="M77.1204 50.8246C77.091 51.0391 77.0237 51.1417 76.8631 51.1341C76.7167 51.1266 76.6318 51.034 76.6461 50.8927C76.6595 50.7573 76.673 50.5572 76.8505 50.5782C76.959 50.59 77.0498 50.7557 77.1204 50.8246Z" fill="#4A5364"/>
<path d="M38.8291 0C38.8224 0.177459 38.5558 0.544152 38.4313 0.546675C38.3699 0.548357 38.2757 0.490326 38.2496 0.434817C38.1958 0.318754 38.3733 0.0765345 38.5028 0.0681241C38.5558 0.06476 38.6113 0.0866269 38.6617 0.0773754C38.713 0.067283 38.7593 0.0336416 38.8291 0Z" fill="#4A5364"/>
<path d="M35.9161 67.5055C35.7672 67.4903 35.6697 67.4104 35.668 67.2616C35.6663 67.111 35.7613 67.0227 35.9127 67.021C36.0658 67.0193 36.1583 67.1102 36.1608 67.259C36.1634 67.4104 36.0624 67.4861 35.9161 67.5055Z" fill="#4A5364"/>
<path d="M7.2352 16.9077C7.22763 17.0557 7.15446 17.1483 7.00812 17.1474C6.87523 17.1457 6.79029 17.0616 6.78861 16.9254C6.78692 16.7866 6.85252 16.6857 7.00391 16.679C7.15782 16.6731 7.22006 16.7715 7.2352 16.9077Z" fill="#4A5364"/>
<path d="M59.8787 74.3084C59.8754 74.3421 59.8838 74.385 59.8661 74.4085C59.803 74.4926 59.7324 74.6364 59.6626 74.6373C59.5087 74.6398 59.5524 74.4876 59.5532 74.3833C59.5532 74.3488 59.5432 74.3059 59.56 74.2832C59.6138 74.21 59.6786 74.1453 59.7383 74.0771C59.798 74.1419 59.8577 74.2075 59.9174 74.2723C59.904 74.284 59.8913 74.2958 59.8787 74.3084Z" fill="#4A5364"/>
<path d="M12.1611 48.2538C12.0492 48.3699 11.9508 48.4708 11.8532 48.5726C11.8078 48.5095 11.7103 48.4103 11.7246 48.3892C11.8087 48.2706 11.9188 48.1714 12.0198 48.0654C12.0559 48.1134 12.0921 48.1613 12.1611 48.2538Z" fill="#4A5364"/>
<path d="M66.4524 4.75916C66.4313 4.95849 66.3607 5.06362 66.2143 5.03923C66.1479 5.02829 66.0562 4.93241 66.0461 4.86429C66.0251 4.71795 66.1302 4.63048 66.2715 4.64394C66.343 4.65151 66.4069 4.72804 66.4524 4.75916Z" fill="#4A5364"/>
<path d="M2.41514 65.643C2.29908 65.7414 2.23516 65.8347 2.15946 65.8448C2.11068 65.8516 1.99126 65.7254 2.00051 65.6758C2.01481 65.5959 2.09639 65.505 2.17376 65.4706C2.20909 65.4537 2.29992 65.5572 2.41514 65.643Z" fill="#4A5364"/>
<path d="M20.2965 5.0702C20.257 5.00544 20.172 4.92554 20.188 4.87929C20.2149 4.79771 20.3032 4.73631 20.3663 4.6665C20.4201 4.72454 20.5211 4.78677 20.516 4.83808C20.5084 4.91966 20.4285 4.99367 20.3789 5.07104C20.3512 5.07188 20.3234 5.07104 20.2965 5.0702Z" fill="#4A5364"/>
<path d="M12.8399 65.2988C12.8004 65.4132 12.792 65.4863 12.7533 65.5368C12.7146 65.5881 12.6456 65.6158 12.5901 65.6537C12.5851 65.5948 12.5775 65.5359 12.575 65.4771C12.5733 65.43 12.5649 65.3778 12.5809 65.3366C12.6078 65.266 12.6507 65.202 12.6869 65.1348C12.7415 65.1936 12.7962 65.2517 12.8399 65.2988Z" fill="#4A5364"/>
<path d="M67.4057 23.292C67.3527 23.2205 67.304 23.1684 67.3107 23.1616C67.3763 23.0818 67.4503 23.0086 67.5218 22.9346C67.5554 22.9691 67.6235 23.0271 67.6185 23.0347C67.5613 23.1162 67.494 23.1886 67.4057 23.292Z" fill="#4A5364"/>
<path d="M72.0163 42.4563C71.9507 42.3714 71.8775 42.3184 71.8842 42.2772C71.8935 42.22 71.9616 42.1729 72.0053 42.1216C72.0533 42.1662 72.1349 42.2074 72.1391 42.2553C72.1433 42.3075 72.0751 42.3655 72.0163 42.4563Z" fill="#4A5364"/>
<path d="M5.40288 38.4044C5.30027 38.4633 5.23888 38.5272 5.18925 38.5196C5.13879 38.5112 5.09926 38.433 5.05469 38.3851C5.10431 38.3396 5.15141 38.2631 5.20355 38.2589C5.25233 38.2555 5.307 38.3304 5.40288 38.4044Z" fill="#4A5364"/>
<path d="M75.8938 20.5883C75.8434 20.5092 75.7904 20.431 75.7467 20.3486C75.7441 20.3435 75.8123 20.3006 75.8467 20.2754C75.8964 20.3587 75.9451 20.4419 75.9948 20.526C75.9611 20.547 75.9275 20.5672 75.8938 20.5883Z" fill="#4A5364"/>
<path d="M52.485 49.5189C52.4581 50.2775 52.4228 50.7931 52.1957 51.2632C52.0788 51.5054 51.9291 51.7451 51.7457 51.9411C51.3698 52.3439 50.8349 52.4011 50.3572 52.1261C49.9737 51.9049 49.6894 51.5828 49.4808 51.1984C49.0956 50.4894 48.9005 49.7266 48.8669 48.9226C48.8509 48.5483 48.9198 48.4516 49.2806 48.3524C49.9922 48.1572 50.7054 47.9697 51.4202 47.7855C51.5304 47.7569 51.6507 47.7468 51.7651 47.7544C52.0603 47.7737 52.1738 47.8561 52.2344 48.1471C52.3446 48.6795 52.4312 49.2178 52.485 49.5189Z" fill="#4A5364"/>
<path d="M59.4381 47.8632C59.4339 48.6891 59.3557 49.2593 59.0361 49.7715C58.534 50.5764 57.6845 50.6916 56.9839 50.0482C56.2951 49.4166 55.9831 48.5941 55.8241 47.7043C55.7173 47.108 55.7417 47.0735 56.3136 46.8649C57.0453 46.5983 57.7838 46.3519 58.5188 46.0962C58.5575 46.0827 58.5954 46.0693 58.6332 46.0525C58.878 45.9465 59.0537 46.0171 59.1277 46.2686C59.3027 46.8666 59.4499 47.4705 59.4381 47.8632Z" fill="#4A5364"/>
</g>
<defs>
<clipPath id="clip0_2549_13821">
<path d="M0 16C0 7.16344 7.16344 0 16 0H64C72.8366 0 80 7.16344 80 16V64C80 72.8366 72.8366 80 64 80H16C7.16344 80 0 72.8366 0 64V16Z" fill="white"/>
</clipPath>
</defs>
</svg>
