<svg width="316" height="286" viewBox="0 0 316 286" fill="none" xmlns="http://www.w3.org/2000/svg">
<g clip-path="url(#clip0_2546_13668)">
<path d="M316 0H0V286H316V0Z" fill="#FFF6E2"/>
<path d="M122.247 207.514C122.247 208.192 122.237 208.873 122.25 209.551C122.292 211.885 122.322 214.219 122.393 216.549C122.423 217.495 122.68 218.446 122.605 219.379C122.406 221.771 121.041 223.561 119.306 225.086C116.986 227.127 114.212 228.209 111.187 228.62C109.303 228.877 107.392 229.119 105.499 229.07C102.448 228.991 98.0372 226.719 97.2646 222.42C97.1114 221.563 97.3168 220.647 97.3364 219.757C97.3429 219.499 97.3657 219.154 97.219 218.991C93.2064 214.486 90.8985 209.104 89.2752 203.4C87.3194 196.535 86.2991 189.527 86.4947 182.368C86.511 181.756 85.0474 180.67 84.5226 180.954C84.3107 181.068 84.1869 181.397 84.0793 181.651C83.636 182.691 83.3231 183.799 82.7689 184.771C81.1326 187.639 78.313 188.334 75.4347 186.635C73.342 185.4 71.836 183.588 70.7114 181.475C68.9773 178.225 67.9407 174.721 67.2529 171.116C65.9947 164.509 65.848 157.836 66.3109 151.154C66.7314 145.081 67.7843 139.119 69.9128 133.386C70.8027 130.99 71.8817 128.692 73.5343 126.71C74.0233 126.123 74.5807 125.598 75.1707 124.979C71.1515 122.713 67.7321 119.724 65.0299 116.038C64.2019 116.292 63.4685 116.615 62.7025 116.738C60.6847 117.058 59.0223 116.223 57.5587 114.929C54.7163 112.416 53.3537 109.127 52.767 105.483C52.3628 102.966 52.4573 100.45 53.3863 98.041C54.2958 95.6778 55.7105 93.823 58.4225 93.3536C58.6279 93.3178 58.8789 92.8745 58.9115 92.5974C59.583 87.056 61.4573 81.9481 64.4496 77.2574C68.5959 70.7609 74.3949 66.2561 81.4618 63.3126C82.4462 62.9019 82.4332 62.9084 82.1268 61.9044C81.7161 60.5614 81.2923 59.2217 80.9435 57.8657C80.8034 57.3181 80.585 57.1812 80.0243 57.204C77.2047 57.3181 75.3532 55.5807 75.4836 53.0023C75.5977 50.7727 77.736 48.7973 80.1449 48.693C82.5799 48.5887 84.4672 50.1142 84.7541 52.471C84.9268 53.8791 84.4151 55.0852 83.4078 56.0566C83.046 56.4054 82.9906 56.6987 83.1438 57.1649C83.6132 58.5698 84.0598 59.9845 84.4542 61.4155C84.6074 61.9761 84.7834 62.1196 85.3799 61.9533C88.8221 60.995 92.336 60.4571 95.9054 60.6658C108.054 61.3731 117.367 66.7776 123.459 77.4498C123.56 77.6258 123.671 77.7985 123.717 77.8735C124.535 77.5638 125.268 77.1336 126.044 77.026C127.632 76.8109 128.857 77.6127 129.838 78.7862C131.286 80.5171 132.045 82.5707 132.505 84.7481C133.405 89.015 133.245 93.2298 131.781 97.3565C131.142 99.1526 130.239 100.799 128.632 101.936C127.876 102.474 127.081 102.79 126.341 102.119C125.001 105.287 123.661 108.456 122.318 111.634C125.448 112.341 127.782 114.581 130.027 116.778C138.613 125.174 145.811 134.654 151.587 145.186C152.575 146.985 153.266 148.954 154.035 150.867C154.703 152.533 155.446 154.192 155.88 155.923C156.623 158.886 156.607 161.868 155.208 164.691C153.5 168.14 150.162 168.919 147.066 166.621C145.628 165.558 144.595 164.157 143.731 162.618C143.601 162.387 143.467 162.162 143.324 161.937C143.301 161.901 143.236 161.888 143.073 161.803C143.073 163.788 143.213 165.721 143.021 167.622C142.91 168.724 142.972 169.525 143.627 170.49C144.97 172.469 145.403 174.839 145.909 177.14C147.01 182.163 147.802 187.242 148.171 192.372C148.379 195.277 148.637 198.188 148.588 201.092C148.549 203.514 148.128 205.936 147.802 208.348C147.734 208.87 147.819 209.091 148.265 209.332C150.26 210.392 151.47 211.963 151.16 214.336C150.938 216.038 150.022 217.407 148.741 218.515C145.752 221.097 142.232 222.537 138.372 223.219C135.706 223.688 133.039 223.753 130.432 222.915C129.61 222.651 128.795 222.277 128.075 221.804C126.21 220.581 125.653 218.792 126.311 216.673C126.409 216.363 126.39 215.95 126.266 215.65C125.816 214.577 125.301 213.531 124.806 212.478C124.02 210.806 123.234 209.134 122.449 207.461C122.393 207.481 122.322 207.497 122.247 207.514ZM75.4999 126.974C75.1544 127.388 74.8838 127.639 74.7013 127.945C73.9352 129.243 73.078 130.504 72.4717 131.876C69.6651 138.242 68.6057 145.019 68.1689 151.884C67.9212 155.789 68.0124 159.727 68.1526 163.645C68.3026 167.759 69.0686 171.797 70.2453 175.748C70.3985 176.26 70.6886 176.498 71.2134 176.498C72.1131 176.491 73.0193 176.579 73.9059 176.478C76.0736 176.231 78.1761 175.699 80.1286 174.679C80.51 174.48 80.7577 174.291 80.5589 173.76C79.1279 169.946 78.6031 165.963 78.4727 161.921C78.2967 156.399 78.8541 150.968 80.6045 145.701C80.774 145.195 80.8979 144.423 81.602 144.589C82.4201 144.781 82.0714 145.541 81.941 146.069C81.1358 149.286 80.5915 152.539 80.334 155.848C79.9624 160.669 80.1938 165.438 81.3673 170.135C82.1626 173.323 83.3003 176.364 85.5299 178.874C86.4295 179.888 87.4857 180.683 88.8612 180.889C90.3248 181.107 91.7982 181.351 93.2748 181.407C99.3736 181.638 105.384 180.846 111.369 179.767C112.243 179.611 113.11 179.418 114.016 179.236C110.157 161.96 106.323 144.794 102.483 127.6C102.467 127.6 102.359 127.58 102.262 127.603C96.893 128.897 91.4657 129.8 85.9438 130.044C83.2416 130.162 80.5328 130.155 77.912 129.327C76.807 128.982 75.8878 128.392 75.4999 126.974ZM115.965 178.796C116.226 178.763 116.415 178.754 116.591 178.711C121.914 177.502 127.214 176.188 132.247 174.027C134.477 173.069 136.641 171.941 138.744 170.728C139.888 170.067 140.859 169.033 140.889 167.57C140.934 165.298 141.013 163.013 140.81 160.757C140.432 156.542 139.21 152.5 137.88 148.501C136.328 143.83 134.48 139.302 131.419 135.374C130.93 134.748 130.314 134.217 129.884 133.555C129.688 133.255 129.803 132.753 129.773 132.342C130.161 132.329 130.582 132.222 130.93 132.333C131.26 132.437 131.573 132.727 131.794 133.011C132.857 134.36 134.03 135.651 134.901 137.118C138.623 143.367 141.101 150.108 142.411 157.259C142.574 158.143 142.994 158.498 143.757 158.609C144.223 158.677 144.722 158.716 145.182 158.635C147.93 158.162 150.172 156.8 151.959 154.668C152.496 154.026 152.695 153.289 152.434 152.513C151.906 150.936 151.47 149.299 150.71 147.836C144.647 136.15 136.716 125.852 127.205 116.774C125.953 115.578 124.46 114.607 122.99 113.671C121.875 112.961 121.64 113.146 121.34 114.493C121.559 114.626 121.79 114.757 122.005 114.903C123.185 115.712 123.472 116.823 122.788 118.081C122.563 118.495 122.279 118.916 121.921 119.206C120.998 119.956 120.076 120.725 119.059 121.331C114.834 123.845 110.225 125.412 105.528 126.759C104.951 126.925 104.377 127.088 103.947 127.212C107.966 144.452 111.959 161.595 115.965 178.796ZM141.528 171.25C141.26 171.4 141.091 171.471 140.951 171.579C138.796 173.245 136.426 174.562 133.916 175.569C126.439 178.574 118.687 180.628 110.727 181.821C106.512 182.453 102.262 182.867 98.0111 183.203C94.9731 183.441 91.9155 183.34 88.9134 182.659C88.6494 182.6 88.3625 182.626 87.9876 182.606C88.1571 184.898 88.2941 187.088 88.4831 189.276C89.047 195.863 90.4813 202.262 93.0499 208.355C94.1354 210.926 95.625 213.332 96.9745 215.79C97.1082 216.034 97.558 216.292 97.8123 216.253C105.13 215.069 112.438 213.837 119.756 212.657C120.395 212.553 120.578 212.38 120.571 211.741C120.539 208.85 120.558 205.962 120.568 203.071C120.568 202.728 120.565 202.363 120.685 202.054C120.786 201.796 121.028 201.483 121.269 201.421C121.455 201.372 121.803 201.614 121.953 201.822C122.292 202.292 122.566 202.813 122.84 203.325C124.134 205.757 125.422 208.192 126.706 210.63C126.898 210.995 127.038 211.278 127.599 211.089C133.398 209.147 139.207 207.233 145.022 205.336C145.563 205.16 145.801 204.883 145.814 204.335C145.85 203.009 145.997 201.682 145.938 200.362C145.742 196.154 145.55 191.945 145.204 187.75C144.836 183.255 144.018 178.825 142.685 174.506C142.359 173.421 141.932 172.371 141.528 171.25ZM73.104 121.276C73.1334 121.191 73.1562 121.159 73.1497 121.149C72.7585 120.585 72.3511 120.031 71.9762 119.457C66.8911 111.709 65.0559 103.217 66.2294 94.0545C67.103 87.245 69.7531 81.2081 74.346 76.0872C78.7074 71.2271 84.1217 68.2216 90.6475 67.5176C97.1864 66.8102 103.194 68.5476 108.328 72.5668C119.835 81.5732 123.342 93.6763 121.373 107.745C121.266 108.524 121.07 109.287 120.917 110.059C121.164 109.949 121.272 109.805 121.363 109.649C124.714 103.739 126.096 97.4054 125.529 90.6286C125.027 84.5982 123.029 79.1154 119.222 74.4313C110.802 64.0721 99.8528 60.7146 87.013 63.5343C71.5198 66.9373 58.0835 83.4964 61.2682 101.953C62.6047 109.701 66.3598 116.028 72.5369 120.901C72.7064 121.041 72.9052 121.149 73.104 121.276ZM134.086 221.302C134.102 221.233 134.122 221.165 134.138 221.1C138.004 221.044 141.629 220.053 144.983 218.143C146.609 217.218 148.031 216.028 148.94 214.329C149.39 213.488 149.253 212.703 148.604 212.077C147.936 211.432 147.18 210.858 146.133 211.184C140.449 212.954 134.761 214.724 129.076 216.494C128.254 216.751 127.857 217.309 127.932 218.163C128.033 219.32 128.812 220.024 129.786 220.334C131.181 220.774 132.648 220.989 134.086 221.302ZM120.568 218.111C113.583 219.959 106.78 221.563 99.5301 220.94C99.7224 221.598 99.8137 222.149 100.035 222.642C100.723 224.148 101.946 225.129 103.461 225.663C108.977 227.613 113.977 226.579 118.452 222.88C119.368 222.123 119.994 221.126 120.291 219.965C120.438 219.405 120.467 218.815 120.568 218.111ZM119.795 115.666C118.087 116.934 116.601 118.209 114.948 119.216C113.583 120.05 112.06 120.663 110.548 121.211C103.52 123.75 96.2835 125.38 88.8221 125.934C85.2821 126.198 81.7356 126.495 78.2054 125.82C77.7425 125.732 77.3807 125.742 77.1819 126.263C76.9765 126.808 77.234 127.166 77.6643 127.371C78.1826 127.622 78.7367 127.844 79.3006 127.955C82.4332 128.571 85.5885 128.369 88.7243 128.056C95.1719 127.414 101.473 126.006 107.653 124.092C111.421 122.929 115.167 121.661 118.58 119.627C119.456 119.102 120.278 118.44 121.011 117.726C121.774 116.983 121.618 116.491 120.649 116.054C120.294 115.894 119.942 115.731 119.795 115.666ZM58.68 95.1693C57.6598 95.2475 56.7568 95.7202 56.1668 96.6459C55.6746 97.4184 55.1694 98.2496 54.9542 99.1265C53.696 104.182 54.6902 108.804 57.9531 112.866C58.5562 113.619 59.4754 114.199 60.3588 114.626C61.4866 115.171 62.6992 115.184 63.8466 114.323C60.098 108.449 58.5073 102.037 58.68 95.1693ZM126.52 100.479C126.608 100.525 126.696 100.571 126.784 100.616C127.286 100.166 127.889 99.7882 128.267 99.2536C128.808 98.4811 129.301 97.6368 129.614 96.7502C131.1 92.529 131.136 88.2392 129.995 83.9332C129.558 82.2773 128.896 80.7355 127.606 79.5229C126.716 78.6917 125.285 78.6624 124.418 79.4023C127.413 86.1628 128.111 93.207 126.52 100.479ZM71.0439 178.441C72.3315 181.25 73.8081 183.711 76.6049 185.058C78.7465 186.091 80.4578 185.351 81.2597 183.099C81.8236 181.511 81.8138 179.875 81.6117 178.232C81.5368 177.626 81.3868 177.029 81.2564 176.351C77.9968 178.004 74.6915 178.675 71.0439 178.441ZM77.9609 94.1425C77.6676 93.1939 77.4981 92.0661 76.9928 91.1175C76.0051 89.266 73.355 88.9303 71.9469 90.3547C70.1084 92.216 69.8705 95.8245 71.4351 97.9204C72.1913 98.9309 73.1171 99.6806 74.447 99.4459C75.8063 99.208 76.8592 98.4485 77.296 97.0925C77.5861 96.1961 77.7197 95.2508 77.9609 94.1425ZM144.465 160.597C145.42 162.586 146.642 164.245 148.526 165.304C150.704 166.53 152.591 165.855 153.546 163.544C154.279 161.771 154.423 159.903 154.221 158.009C154.129 157.168 153.989 156.334 153.839 155.258C151.398 158.537 148.37 160.261 144.465 160.597ZM79.8906 55.3884C80.6338 55.3949 80.7349 55.3329 81.7682 54.2507C82.3191 53.6705 82.5962 52.9893 82.3061 52.2167C82.0094 51.4181 81.3347 50.9943 80.51 51.0172C79.9265 51.0335 79.2974 51.1769 78.7791 51.4442C77.8501 51.9233 77.4394 52.9762 77.6904 53.8628C77.9316 54.7104 78.8997 55.3786 79.8906 55.3884ZM77.2894 84.2722C77.2568 84.0669 77.234 83.7213 77.1525 83.3921C76.9015 82.3816 75.9106 81.9155 75.0859 82.5609C74.5741 82.9618 74.1699 83.6464 73.9809 84.282C73.6028 85.55 74.1765 86.6127 75.1315 86.7398C76.1192 86.8702 77.1362 85.9118 77.2634 84.7253C77.2764 84.6177 77.2764 84.5134 77.2894 84.2722Z" fill="#4A5364"/>
<path d="M222.627 220.283C222.627 221.6 222.588 222.789 222.637 223.976C222.722 226.17 222.875 228.36 222.967 230.554C223.058 232.731 222.142 234.521 220.708 236.069C218.423 238.53 215.499 239.772 212.242 240.251C210.44 240.515 208.588 240.832 206.799 240.682C203.493 240.408 200.82 238.889 199.399 235.711C198.861 234.508 198.679 233.224 199.093 231.907C199.161 231.685 199.083 231.313 198.93 231.137C194.673 226.271 192.417 220.442 190.904 214.285C189.477 208.473 188.639 202.579 188.848 196.569C188.864 196.089 187.984 195.343 187.299 195.261C186.631 195.183 186.696 195.741 186.52 196.138C186.002 197.318 185.555 198.56 184.841 199.616C183.443 201.68 180.754 202.156 178.485 200.65C177.188 199.786 175.998 198.645 175.04 197.413C172.774 194.499 171.839 190.975 171.024 187.461C169.655 181.558 169.443 175.554 169.684 169.517C169.922 163.604 170.779 157.798 172.618 152.172C173.257 150.216 174.078 148.296 175.056 146.49C175.838 145.05 176.986 143.804 178.009 142.419C177.993 142.406 177.84 142.279 177.67 142.178C174.3 140.183 171.376 137.676 169.013 134.547C168.674 134.097 168.419 133.967 167.855 134.247C166.209 135.069 164.514 134.968 163.002 133.98C161.952 133.295 160.893 132.477 160.156 131.483C157.03 127.255 156 122.558 157.48 117.431C157.907 115.951 158.686 114.653 159.934 113.705C160.352 113.389 160.828 112.968 161.3 112.939C162.78 112.841 162.852 111.856 163.028 110.742C165.212 96.9435 174.909 86.2258 188.844 82.7607C198.454 80.3714 207.434 82.0827 215.476 88.0023C218.876 90.5057 221.558 93.6676 223.596 97.3673C223.736 97.6183 223.879 97.866 224.013 98.0975C224.124 98.0812 224.192 98.0909 224.225 98.0616C226.216 96.2916 228.801 97.4325 230.108 99.3166C231.983 102.016 232.609 105.08 232.739 108.274C232.876 111.68 232.508 115.025 230.803 118.056C230.255 119.028 229.46 119.885 228.651 120.667C228.016 121.283 227.175 121.531 226.441 120.889C225.18 123.881 223.925 126.861 222.689 129.798C227.68 131.714 231.138 135.711 234.63 139.596C239.493 145.007 243.858 150.819 247.698 157.013C249.657 160.171 251.374 163.437 252.659 166.955C253.376 168.92 254.305 170.811 254.579 172.903C254.892 175.296 254.83 177.672 253.738 179.908C252.131 183.194 248.926 183.95 246.009 181.75C244.689 180.756 243.74 179.459 242.925 178.047C242.772 177.783 242.606 177.526 242.352 177.108C242.417 179.537 242.626 181.76 241.993 183.941C241.951 184.091 241.987 184.338 242.088 184.446C243.506 185.975 243.969 187.937 244.467 189.847C245.843 195.118 246.593 200.5 247.036 205.924C247.261 208.695 247.495 211.475 247.453 214.249C247.417 216.541 246.993 218.829 246.72 221.114C246.674 221.495 246.576 221.802 247.039 222.036C251.15 224.119 250.439 228.256 247.629 230.73C244.849 233.181 241.524 234.505 237.909 235.17C235.699 235.577 233.466 235.72 231.285 235.134C230.102 234.818 228.919 234.322 227.892 233.66C226.295 232.63 225.877 230.948 226.412 229.097C226.52 228.725 226.435 228.24 226.288 227.865C225.926 226.926 225.489 226.016 225.059 225.107C224.349 223.598 223.622 222.095 222.895 220.592C222.852 220.498 222.764 220.433 222.627 220.283ZM240.797 186.05C240.063 186.574 239.542 186.979 238.988 187.337C235.872 189.355 232.475 190.747 228.964 191.911C220.851 194.593 212.542 196.321 204.034 197.093C199.676 197.491 195.308 197.804 190.973 196.836C190.422 196.712 190.259 196.963 190.298 197.481C190.383 198.645 190.445 199.809 190.517 200.972C190.95 207.981 192.384 214.774 195.038 221.287C196.364 224.54 197.978 227.63 200.38 230.26C201.026 230.968 201.727 231.343 202.675 231.248C205.335 230.981 208.008 230.798 210.652 230.427C213.957 229.964 217.249 229.397 220.411 228.256C220.959 228.057 221.125 227.79 221.115 227.219C221.056 223.51 221.034 219.797 221.004 216.087C221.001 215.823 220.991 215.533 221.095 215.305C221.213 215.044 221.428 214.686 221.646 214.653C221.858 214.621 222.2 214.891 222.354 215.116C222.755 215.706 223.097 216.338 223.436 216.968C225.118 220.094 226.797 223.226 228.462 226.362C228.687 226.782 228.873 227.001 229.434 226.815C233.763 225.391 238.085 223.943 242.453 222.646C243.903 222.216 244.461 221.479 244.601 220.019C245.044 215.413 245.067 210.813 244.715 206.201C244.285 200.562 243.633 194.962 241.99 189.524C241.648 188.393 241.224 187.288 240.797 186.05ZM178.459 144.45C178.316 144.564 178.221 144.613 178.159 144.688C177.938 144.952 177.709 145.213 177.511 145.493C175.877 147.824 174.808 150.422 174.036 153.13C171.682 161.368 170.933 169.781 171.434 178.318C171.672 182.353 172.298 186.324 173.459 190.203C173.596 190.662 173.736 191.05 174.3 191.102C177.351 191.382 180.193 190.656 182.899 189.319C183.098 189.221 183.29 188.732 183.215 188.521C181.921 184.827 181.383 181.007 181.266 177.118C181.112 172.02 181.696 167.01 183.248 162.134C183.342 161.834 183.446 161.517 183.626 161.266C183.746 161.1 184.066 160.911 184.199 160.967C184.392 161.048 184.587 161.328 184.617 161.547C184.656 161.85 184.564 162.176 184.489 162.482C182.746 169.732 182.156 177.014 183.828 184.368C184.535 187.474 185.555 190.437 187.589 192.957C188.492 194.078 189.552 194.994 191.028 195.219C192.466 195.438 193.913 195.682 195.364 195.728C201.652 195.92 207.842 195.063 213.999 193.883C214.69 193.749 214.856 193.514 214.697 192.83C213.875 189.322 213.083 185.805 212.307 182.288C209.615 170.048 206.935 157.805 204.263 145.561C204.148 145.046 204.012 144.88 203.425 144.997C200.566 145.571 197.707 146.151 194.829 146.595C190.735 147.221 186.615 147.622 182.482 146.966C180.858 146.712 179.196 146.383 178.459 144.45ZM216.646 193.26C216.91 193.231 217.07 193.227 217.223 193.192C222.272 192.061 227.276 190.776 232.061 188.772C233.818 188.035 235.542 187.21 237.231 186.33C239.363 185.218 240.494 183.435 240.38 180.987C240.288 179.006 240.233 177.011 239.966 175.048C239.32 170.266 237.821 165.706 236.119 161.214C234.952 158.131 233.505 155.181 231.461 152.56C230.94 151.892 230.32 151.298 229.848 150.601C229.652 150.314 229.721 149.848 229.672 149.46C230.063 149.45 230.529 149.297 230.822 149.46C231.321 149.731 231.787 150.141 232.126 150.601C233.133 151.96 234.193 153.306 235.021 154.773C238.199 160.403 240.396 166.407 241.589 172.77C241.807 173.927 242.12 174.207 243.31 174.259C243.731 174.279 244.158 174.24 244.575 174.168C246.289 173.872 247.773 173.07 249.125 172.01C251.3 170.309 251.674 169.266 250.602 166.736C249.611 164.402 248.526 162.081 247.238 159.901C241.785 150.643 235.236 142.224 227.416 134.84C226.066 133.566 224.391 132.63 222.843 131.577C222.549 131.379 222.139 131.294 221.923 131.806C221.734 132.252 221.637 132.562 222.194 132.898C223.618 133.761 223.85 134.981 222.83 136.32C222.324 136.985 221.705 137.621 221.007 138.071C219.629 138.957 218.191 139.762 216.728 140.499C213.351 142.197 209.745 143.293 206.121 144.316C205.801 144.407 205.488 144.522 205.306 144.584C209.1 160.856 212.865 177.03 216.646 193.26ZM221.35 128.582C221.549 128.308 221.614 128.23 221.666 128.142C221.858 127.826 222.064 127.513 222.233 127.183C225.157 121.574 226.337 115.625 225.63 109.33C224.691 100.979 220.923 94.1044 214.107 89.2442C203.832 81.9132 192.785 81.5873 181.81 87.3536C170.271 93.4166 162.555 106.556 165.042 120.85C166.291 128.021 169.766 133.889 175.441 138.449C175.649 138.615 175.887 138.745 176.112 138.892C175.858 138.24 175.476 137.741 175.134 137.217C169.834 129.074 168.214 120.198 170.166 110.738C171.685 103.378 175.297 97.1815 181.445 92.6734C186.181 89.2018 191.524 87.5883 197.385 88.2142C203.914 88.9117 209.364 91.9171 213.699 96.7805C220.535 104.451 223.015 113.552 222.093 123.673C221.946 125.244 221.624 126.799 221.35 128.582ZM233.808 233.37C237.628 233.077 241.185 232.171 244.422 230.176C245.742 229.364 246.896 228.357 247.694 226.991C248.16 226.192 248.128 225.433 247.535 224.713C246.892 223.93 245.869 223.581 244.999 223.849C243.33 224.367 241.661 224.885 239.992 225.404C236.325 226.541 232.661 227.679 228.994 228.816C228.003 229.123 227.533 230.208 228.153 231.118C228.547 231.695 229.17 232.281 229.812 232.493C231.099 232.92 232.472 233.093 233.808 233.37ZM221.007 230.378C214.397 232.037 207.982 233.657 200.987 233.021C201.388 233.941 201.622 234.697 202.026 235.346C202.678 236.385 203.66 237.089 204.813 237.5C209.657 239.225 214.146 238.459 218.292 235.496C219.462 234.658 220.362 233.582 220.737 232.161C220.88 231.62 220.91 231.053 221.007 230.378ZM220.124 133.602C218.986 134.56 217.966 135.58 216.793 136.366C215.655 137.125 214.397 137.738 213.122 138.247C206.137 141.047 198.874 142.706 191.377 143.302C187.863 143.583 184.346 143.892 180.832 143.224C180.61 143.182 180.154 143.426 180.112 143.612C180.043 143.909 180.118 144.437 180.32 144.561C180.871 144.9 181.51 145.248 182.136 145.288C184.457 145.444 186.797 145.679 189.108 145.519C195.875 145.05 202.473 143.606 208.947 141.598C212.369 140.535 215.756 139.371 218.872 137.575C219.867 137.002 220.753 136.209 221.594 135.414C222.106 134.928 221.953 134.482 221.324 134.149C220.929 133.937 220.509 133.774 220.124 133.602ZM162.676 114.233C161.512 114.399 160.71 114.885 160.231 115.693C159.683 116.616 159.133 117.603 158.901 118.637C157.988 122.724 158.81 126.554 161.108 130.013C161.76 130.994 162.757 131.796 163.725 132.5C164.583 133.119 165.649 133.207 166.701 132.865C167.311 132.666 167.494 132.418 167.102 131.776C164.436 127.418 162.982 122.669 162.682 117.574C162.62 116.498 162.676 115.416 162.676 114.233ZM217.441 117.202C217.392 117.193 217.344 117.183 217.295 117.173C217.295 116.935 217.334 116.691 217.288 116.459C216.613 112.958 215.632 109.562 213.732 106.494C213.298 105.794 212.682 105.288 211.841 105.161C210.968 105.028 210.189 105.256 209.683 106.025C209.214 106.745 209.256 107.541 209.771 108.186C211.339 110.152 211.897 112.489 212.285 114.875C212.536 116.41 212.633 117.972 212.796 119.52C212.92 120.697 213.549 121.472 214.514 121.619C215.495 121.769 216.382 121.228 216.741 120.113C217.05 119.171 217.213 118.177 217.441 117.202ZM226.611 119.416C227.768 118.966 228.495 118.304 229.098 116.88C231.272 111.739 231.262 106.573 229.033 101.455C228.697 100.686 228.065 99.9978 227.436 99.4176C226.617 98.6679 225.633 98.7363 224.613 99.4698C227.501 105.829 228.052 112.476 226.611 119.416ZM174.261 192.915C175.001 194.704 175.851 196.239 177.142 197.432C177.999 198.225 179.023 198.916 180.086 199.388C181.533 200.03 182.843 199.473 183.551 198.052C183.909 197.328 184.167 196.516 184.278 195.721C184.493 194.147 184.385 192.572 183.873 190.955C180.842 192.445 177.732 193.169 174.261 192.915ZM243.62 176.043C244.024 177.431 245.572 179.374 246.954 180.296C249.262 181.835 251.394 181.141 252.29 178.52C252.845 176.893 252.955 175.205 252.753 173.5C252.665 172.76 252.548 172.023 252.447 171.287C252.382 171.267 252.317 171.248 252.248 171.228C250.103 174.119 247.248 175.739 243.62 176.043ZM206.557 104.258C208.138 104.252 209.423 103.052 209.439 101.569C209.458 99.8381 207.966 98.1235 206.45 98.1366C204.921 98.1496 203.646 99.4632 203.65 101.018C203.656 102.853 204.924 104.268 206.557 104.258Z" fill="#4A5364"/>
<path d="M262.865 34.6483C261.782 35.5317 260.827 36.3075 259.885 37.0996C259.784 37.1843 259.729 37.3604 259.716 37.5005C259.696 37.7515 259.83 38.1492 259.716 38.234C259.321 38.5176 258.865 38.8011 258.399 38.8794C257.881 38.9674 257.437 38.3155 257.685 37.745C258.014 36.9823 258.418 36.1967 258.979 35.6002C260.54 33.9442 262.496 32.9142 264.677 32.2688C265.189 32.1188 265.713 31.8581 266.118 31.5158C270.261 28.0117 274.977 25.4267 279.746 22.9201C287.436 18.8781 295.624 16.3192 304.122 14.6796C304.585 14.5916 305.1 14.5036 305.537 14.6177C305.908 14.7155 306.433 15.0806 306.466 15.3772C306.508 15.7423 306.202 16.2932 305.879 16.5116C305.465 16.7919 304.888 16.8506 304.37 16.9549C292.88 19.2269 282.181 23.4775 272.334 29.8273C269.791 31.4669 267.327 33.2141 265.313 35.5219C265.035 35.8414 264.612 36.1184 264.208 36.2195C263.523 36.389 263.161 35.9783 262.865 34.6483Z" fill="#4A5364"/>
<path d="M46.7534 224.357C47.3988 224.357 47.7998 224.298 48.1779 224.367C49.1786 224.549 49.5437 225.53 48.7744 226.176C48.1323 226.71 47.275 226.994 46.5024 227.362C46.1537 227.529 45.7234 227.561 45.4202 227.78C37.9426 233.096 31.0093 239.045 24.6529 245.662C23.8673 246.48 23.2219 247.432 22.5146 248.322C22.4005 248.469 22.3092 248.632 22.1821 248.769C21.7258 249.264 21.1944 249.492 20.549 249.15C19.9851 248.85 19.7537 248.169 20.0568 247.488C20.2915 246.959 20.5849 246.431 20.9565 245.998C21.9735 244.811 23.0068 243.635 24.1086 242.526C30.1259 236.476 36.6289 231 43.6828 226.186C43.8915 226.042 44.1196 225.759 44.1359 225.527C44.1979 224.569 44.6216 223.796 45.267 223.138C46.6654 221.71 48.3898 220.778 50.2022 220.005C50.6357 219.82 51.1898 219.712 51.4636 220.269C51.7668 220.879 51.2844 221.179 50.8541 221.462C49.7491 222.189 48.6375 222.913 47.5423 223.65C47.3076 223.806 47.1185 224.024 46.7534 224.357Z" fill="#4A5364"/>
<path d="M263.658 132.791C263.814 131.35 263.922 130.011 264.124 128.687C264.209 128.123 264.46 127.576 264.694 127.047C264.952 126.464 265.359 126.034 266.067 126.008C266.8 125.982 267.361 126.35 267.579 126.966C268.009 128.179 268.413 129.424 268.616 130.689C268.974 132.951 268.886 135.229 268.511 137.495C268.215 139.297 266.862 140.155 265.108 139.571C264.365 139.323 263.589 139.004 262.986 138.522C261.382 137.231 259.801 135.894 258.351 134.44C257.751 133.841 257.35 132.931 257.129 132.09C256.825 130.933 257.507 130.196 258.69 130.336C259.456 130.428 260.206 130.757 260.929 131.054C261.415 131.252 261.852 131.569 262.298 131.855C262.742 132.136 263.165 132.449 263.658 132.791Z" fill="#4A5364"/>
<path d="M65.0239 246.792C64.0199 246.283 63.9743 245.403 64.209 244.425C64.548 243.033 65.213 241.811 66.142 240.729C66.2104 240.65 66.2887 240.53 66.3734 240.52C66.7385 240.471 67.1068 240.458 67.4752 240.429C67.4491 240.761 67.5078 241.13 67.3839 241.416C66.8982 242.525 66.3506 243.607 65.8356 244.702C65.7867 244.81 65.7997 244.947 65.7606 245.282C66.1257 244.813 66.3408 244.487 66.6049 244.207C66.983 243.802 67.4589 243.617 67.9544 243.956C68.4661 244.308 68.3911 244.806 68.1532 245.302C64.9587 252.004 63.0062 259.064 62.0674 266.418C61.8783 267.888 61.7186 269.365 61.5002 270.832C61.347 271.855 60.8483 272.321 60.1181 272.246C59.3684 272.168 58.9838 271.536 59.1109 270.473C59.7987 264.814 60.6527 259.191 62.5303 253.777C63.3321 251.482 64.1666 249.194 65.0239 246.792Z" fill="#4A5364"/>
<path d="M269.574 56.7925C268.942 57.275 268.41 57.7183 267.833 58.0964C267.608 58.2431 267.286 58.2431 267.005 58.3083C266.95 58.041 266.813 57.7541 266.868 57.5097C266.917 57.2782 267.139 57.0533 267.338 56.8936C268.788 55.7071 270.461 55.0291 272.302 54.7357C272.586 54.6901 272.882 54.6477 273.137 54.5336C275.647 53.3927 278.287 52.7538 281.028 52.5452C281.703 52.493 282.404 52.5745 283.069 52.7114C283.636 52.8288 284.135 53.1808 284.021 53.8719C283.91 54.5466 283.375 54.7324 282.763 54.6966C279.757 54.5271 276.931 55.2703 274.196 56.4144C273.769 56.5937 273.375 56.9653 273.098 57.3467C272.514 58.1388 271.748 58.5267 270.803 58.5788C270.011 58.6212 269.753 58.2529 269.574 56.7925Z" fill="#4A5364"/>
<path d="M173.287 27.7761C172.811 27.7761 172.446 27.7989 172.081 27.7728C171.011 27.6913 170.36 27.0361 170.526 25.9963C170.76 24.536 171.119 23.0952 171.491 21.661C171.663 20.9895 172.198 20.6602 172.902 20.8134C173.58 20.9601 173.864 21.4849 173.802 22.1238C173.714 23.0365 173.541 23.9395 173.388 24.9532C173.802 24.9532 174.134 24.9532 174.47 24.9532C175.637 24.9565 176.406 25.6084 176.315 26.746C176.149 28.8452 175.686 30.8825 174.441 32.6558C174.349 32.7862 174.261 32.9426 174.131 33.0144C173.808 33.1904 173.463 33.3273 173.124 33.4772C173.062 33.161 172.935 32.8383 172.954 32.5254C173.042 30.9934 173.166 29.4646 173.287 27.7761Z" fill="#4A5364"/>
<path d="M144.224 258.807C144.097 260.01 143.705 261.311 142.731 262.37C141.658 263.537 140.179 263.716 138.855 262.846C137.91 262.223 137.313 261.324 136.997 260.255C136.811 259.625 136.88 259.006 137.597 258.729C138.278 258.468 138.689 258.869 139.018 259.41C139.292 259.86 139.54 260.339 139.888 260.724C140.384 261.272 140.883 261.236 141.241 260.597C141.57 260.007 141.756 259.335 141.994 258.693C142.05 258.547 142.059 258.384 142.102 258.23C142.271 257.627 142.447 257.011 143.265 257.093C143.888 257.158 144.243 257.745 144.224 258.807Z" fill="#4A5364"/>
<path d="M221.459 66.4805C222.437 66.6598 222.952 67.3736 222.629 68.2081C222.069 69.6586 221.456 71.0929 220.811 72.5076C220.475 73.241 219.846 73.479 219.259 73.2215C218.698 72.9737 218.477 72.3446 218.757 71.5884C219.272 70.203 219.781 68.8111 220.39 67.4681C220.576 67.0639 221.094 66.8064 221.459 66.4805Z" fill="#4A5364"/>
<path d="M223.359 75.3213C222.968 74.979 222.508 74.7671 222.427 74.4542C222.342 74.1282 222.518 73.6067 222.766 73.359C223.082 73.0395 223.571 72.8668 224.011 72.7038C225.273 72.2376 226.541 71.7911 227.822 71.3803C228.376 71.2011 228.897 71.3575 229.174 71.9052C229.458 72.4658 229.266 73.0525 228.747 73.2677C227 73.9946 225.217 74.6237 223.359 75.3213Z" fill="#4A5364"/>
<path d="M214.142 67.3606C214.142 67.1226 214.113 66.8782 214.149 66.6467C214.23 66.1415 214.455 65.734 215.029 65.6721C215.59 65.6134 216.02 65.9003 216.101 66.412C216.294 67.6051 216.431 68.8112 216.486 70.0172C216.512 70.5649 216.202 71.0538 215.534 71.0831C214.873 71.1125 214.566 70.6724 214.465 70.1183C214.299 69.2088 214.204 68.2863 214.077 67.3704C214.103 67.3671 214.123 67.3639 214.142 67.3606Z" fill="#4A5364"/>
<path d="M287.456 244.917C287.766 243.649 288.277 242.469 289.197 241.498C289.304 241.383 289.62 241.344 289.757 241.419C289.894 241.494 290.015 241.778 289.982 241.938C289.917 242.267 289.81 242.625 289.601 242.876C288.988 243.623 288.32 244.324 287.671 245.044C287.599 245.002 287.528 244.959 287.456 244.917Z" fill="#4A5364"/>
<path d="M135.183 251.178C135.164 251.781 134.701 252.211 134.095 252.195C133.498 252.178 133.061 251.712 133.078 251.106C133.094 250.519 133.583 250.06 134.166 250.079C134.756 250.096 135.203 250.578 135.183 251.178Z" fill="#4A5364"/>
<path d="M301.149 184.982C301.035 185.814 300.774 186.211 300.152 186.182C299.585 186.153 299.255 185.794 299.311 185.247C299.363 184.722 299.415 183.946 300.103 184.027C300.523 184.073 300.875 184.715 301.149 184.982Z" fill="#4A5364"/>
<path d="M141.451 249.634C140.874 249.576 140.496 249.266 140.489 248.689C140.483 248.106 140.851 247.763 141.438 247.757C142.031 247.75 142.39 248.102 142.4 248.679C142.409 249.266 142.018 249.56 141.451 249.634Z" fill="#4A5364"/>
<path d="M30.2915 53.5297C30.2622 54.1034 29.9786 54.462 29.4114 54.4587C28.8964 54.4522 28.5672 54.1262 28.5607 53.5981C28.5541 53.0603 28.8084 52.6691 29.3951 52.6431C29.9917 52.6202 30.2329 53.0016 30.2915 53.5297Z" fill="#4A5364"/>
<path d="M234.323 276.002C234.31 276.133 234.343 276.299 234.274 276.39C234.03 276.716 233.756 277.274 233.486 277.277C232.889 277.287 233.059 276.697 233.062 276.292C233.062 276.159 233.023 275.993 233.088 275.905C233.296 275.621 233.547 275.37 233.779 275.106C234.01 275.357 234.242 275.611 234.473 275.862C234.421 275.908 234.372 275.953 234.323 276.002Z" fill="#4A5364"/>
<path d="M49.3818 175.019C48.9483 175.469 48.5669 175.86 48.1888 176.254C48.0128 176.01 47.6346 175.625 47.6901 175.544C48.016 175.084 48.443 174.699 48.8342 174.289C48.9744 174.474 49.1145 174.66 49.3818 175.019Z" fill="#4A5364"/>
<path d="M259.802 6.44598C259.72 7.21852 259.446 7.62598 258.879 7.53145C258.622 7.48907 258.266 7.11747 258.227 6.85344C258.146 6.28626 258.553 5.94725 259.101 5.99941C259.378 6.02874 259.626 6.32537 259.802 6.44598Z" fill="#4A5364"/>
<path d="M11.609 242.416C11.1592 242.797 10.9114 243.159 10.618 243.198C10.429 243.224 9.96611 242.735 10.002 242.543C10.0574 242.233 10.3736 241.881 10.6735 241.748C10.8104 241.683 11.1624 242.083 11.609 242.416Z" fill="#4A5364"/>
<path d="M80.9125 7.65106C80.7593 7.40007 80.4301 7.0904 80.492 6.91112C80.5963 6.59493 80.9386 6.35698 81.1831 6.08643C81.3917 6.31134 81.7829 6.55256 81.7633 6.7514C81.734 7.06758 81.4243 7.35443 81.232 7.65432C81.1244 7.65758 81.0168 7.65432 80.9125 7.65106Z" fill="#4A5364"/>
<path d="M52.0119 241.083C51.8587 241.526 51.8261 241.81 51.6761 242.005C51.5262 242.204 51.2589 242.312 51.0438 242.458C51.0242 242.23 50.9949 242.002 50.9851 241.774C50.9786 241.591 50.946 241.389 51.0079 241.23C51.1122 240.956 51.2785 240.708 51.4186 240.447C51.6305 240.675 51.8424 240.9 52.0119 241.083Z" fill="#4A5364"/>
<path d="M263.495 78.2731C263.289 77.996 263.1 77.7939 263.126 77.7678C263.381 77.4581 263.668 77.1745 263.945 76.8877C264.075 77.0213 264.339 77.2463 264.319 77.2756C264.098 77.5918 263.837 77.8721 263.495 78.2731Z" fill="#4A5364"/>
<path d="M281.366 152.549C281.112 152.22 280.828 152.015 280.854 151.855C280.89 151.633 281.154 151.451 281.324 151.252C281.509 151.425 281.826 151.584 281.842 151.77C281.858 151.972 281.594 152.197 281.366 152.549Z" fill="#4A5364"/>
<path d="M23.1893 136.846C22.7917 137.074 22.5537 137.321 22.3614 137.292C22.1658 137.26 22.0126 136.956 21.8398 136.771C22.0322 136.595 22.2147 136.298 22.4168 136.282C22.6059 136.269 22.8177 136.559 23.1893 136.846Z" fill="#4A5364"/>
<path d="M296.394 67.7951C296.198 67.4887 295.993 67.1856 295.824 66.8661C295.814 66.8466 296.078 66.6803 296.211 66.5825C296.404 66.9052 296.593 67.2279 296.785 67.5539C296.655 67.6354 296.524 67.7136 296.394 67.7951Z" fill="#4A5364"/>
<path d="M205.668 179.923C205.564 182.863 205.427 184.861 204.547 186.683C204.094 187.622 203.513 188.551 202.803 189.311C201.346 190.872 199.273 191.094 197.421 190.028C195.935 189.171 194.833 187.922 194.024 186.432C192.532 183.685 191.775 180.728 191.645 177.612C191.583 176.161 191.85 175.786 193.249 175.402C196.006 174.645 198.77 173.919 201.541 173.205C201.968 173.094 202.434 173.055 202.878 173.084C204.022 173.159 204.462 173.479 204.697 174.606C205.124 176.67 205.459 178.756 205.668 179.923Z" fill="#4A5364"/>
<path d="M232.616 173.505C232.599 176.706 232.296 178.916 231.057 180.901C229.111 184.021 225.819 184.467 223.104 181.974C220.434 179.526 219.225 176.338 218.609 172.889C218.195 170.578 218.289 170.444 220.506 169.636C223.342 168.603 226.204 167.648 229.053 166.657C229.203 166.604 229.349 166.552 229.496 166.487C230.445 166.076 231.126 166.35 231.413 167.325C232.091 169.642 232.661 171.983 232.616 173.505Z" fill="#4A5364"/>
</g>
<defs>
<clipPath id="clip0_2546_13668">
<path d="M0 16C0 7.16345 7.16344 0 16 0H300C308.837 0 316 7.16344 316 16V286H0V16Z" fill="white"/>
</clipPath>
</defs>
</svg>
