<svg width="80" height="80" viewBox="0 0 80 80" fill="none" xmlns="http://www.w3.org/2000/svg">
<g clip-path="url(#clip0_2549_13787)">
<path d="M316 0H0V286H316V0Z" fill="#FFF6E2"/>
<path d="M41.7036 80.0001C41.7196 79.917 41.7355 79.8339 41.7565 79.7256C41.8749 79.8288 41.9739 79.9145 42.0721 80.0001C41.9496 80.0001 41.827 80.0001 41.7036 80.0001Z" fill="#4A5364"/>
<path d="M44.2588 55.7564C44.3066 55.7043 44.3486 55.6447 44.4032 55.6011C45.0478 55.0848 45.6967 54.5728 46.3414 54.0565C48.0446 52.6925 49.6991 51.2764 51.0866 49.5799C52.1821 48.241 52.9098 46.7318 53.1188 45C53.1969 44.3503 53.1113 43.7048 52.9568 43.0702C52.726 42.1217 52.4843 41.1765 52.2702 40.2246C52.2022 39.9216 52.1896 39.6017 52.1812 39.2895C52.1569 38.3569 52.6018 37.609 53.2162 36.976C53.7761 36.4002 54.4116 35.8991 55.0143 35.366C55.12 35.272 55.2292 35.1814 55.3534 35.0756C55.1947 34.964 55.0621 34.8607 54.9202 34.7709C54.0044 34.1942 53.3631 33.3674 52.8217 32.4541C51.7867 30.7098 51.1487 28.8102 50.6896 26.8468C50.0415 24.0775 49.7629 21.2705 49.9198 18.4291C50.0155 16.6965 50.2757 14.9908 51.0018 13.3917C51.3032 12.7269 51.6792 12.1083 52.2803 11.6651C53.0148 11.1228 53.7954 11.1001 54.5962 11.5022C55.3492 11.8799 55.9032 12.4843 56.3875 13.1525C57.3613 14.4947 57.9875 16.0074 58.4911 17.5737C58.9662 19.0519 59.3037 20.5637 59.537 22.099C59.5471 22.1645 59.5647 22.2283 59.5891 22.3357C59.6478 22.2594 59.6865 22.2174 59.7158 22.1687C61.0656 19.9451 62.7092 17.9632 64.6609 16.2449C65.9183 15.1386 67.279 14.1791 68.8865 13.6335C69.5908 13.3943 70.3152 13.2499 71.0623 13.3733C72.2156 13.5638 72.9224 14.2723 73.2489 15.3635C73.5495 16.3683 73.4848 17.3932 73.3127 18.4106C73.0634 19.8846 72.5296 21.2663 71.8815 22.6044C70.5183 25.4198 68.6934 27.8994 66.4152 30.0416C65.6178 30.7912 64.7565 31.4636 63.8315 32.0529C63.0542 32.5473 62.2929 33.0677 61.503 33.5403C60.9901 33.8475 60.4495 34.1153 59.9014 34.3554C59.2584 34.6366 58.6003 34.8859 57.9371 35.1184C57.3034 35.3409 56.6478 35.4105 55.9796 35.2661C55.9099 35.251 55.805 35.2645 55.7555 35.309C55.0487 35.941 54.3352 36.5681 53.6519 37.2254C53.4101 37.4579 53.2297 37.7609 53.0458 38.0471C52.6211 38.7078 52.6244 39.4355 52.7864 40.165C52.9652 40.9708 53.1591 41.775 53.3875 42.5683C53.8407 44.1405 53.7249 45.6707 53.1407 47.1851C52.6244 48.5248 51.8186 49.6681 50.8633 50.7299C49.5119 52.2342 47.985 53.526 46.307 54.6433C45.711 55.0403 45.0848 55.392 44.4712 55.7622C44.4191 55.7933 44.3545 55.8025 44.2957 55.821C44.284 55.8 44.2714 55.7782 44.2588 55.7564ZM70.447 20.9079C70.525 20.8634 70.6921 20.8063 70.8088 20.6964C71.3477 20.1877 71.6851 19.5514 71.9185 18.8564C71.9613 18.7288 72.0024 18.5919 72.0032 18.4601C72.0041 18.2394 71.8597 18.1 71.6692 18.0127C71.4769 17.9246 71.2981 17.9615 71.1739 18.1277C71.0698 18.2671 70.9892 18.4274 70.9137 18.5861C70.8415 18.7397 70.8121 18.9176 70.724 19.0595C70.4965 19.423 70.2505 19.7747 70.0046 20.1256C69.8888 20.2909 69.8073 20.4613 69.8955 20.6586C69.9828 20.8508 70.1641 20.8928 70.447 20.9079ZM72.5707 16.7528C72.5749 16.4229 72.3021 16.1803 71.9143 16.1702C71.6389 16.1627 71.4115 16.4296 71.4022 16.7721C71.3938 17.1011 71.628 17.3504 71.9512 17.3546C72.2878 17.3588 72.5673 17.0877 72.5707 16.7528Z" fill="#4A5364"/>
<path d="M23.08 35.3225C23.0019 35.1882 22.9247 35.069 22.8617 34.9431C21.93 33.0989 21.4884 31.1531 21.7814 29.0932C22.2876 25.5357 24.1939 22.9788 27.46 21.4931C29.3622 20.6285 31.3793 20.4312 33.4342 20.8425C36.5048 21.4561 38.8837 23.1073 40.6028 25.7128C41.4389 26.9795 41.9199 28.3855 42.1322 29.883C42.1616 30.0904 42.2397 30.0963 42.4084 30.0803C42.7198 30.0509 43.0363 30.0207 43.3469 30.0425C44.5464 30.1273 45.254 30.8736 45.291 32.079C45.3204 33.0208 45.0736 33.9064 44.6774 34.75C43.4308 37.4059 41.5992 39.6245 39.4763 41.6164C38.9727 42.089 38.746 42.6456 38.7343 43.3213C38.7125 44.6375 38.3994 45.9 37.9864 47.1407C37.6615 48.1169 37.2561 49.0554 36.6525 49.8956C36.4737 50.1441 36.2488 50.3581 36.0574 50.5982C35.9835 50.6906 35.9071 50.8064 35.8954 50.918C35.8568 51.2832 35.8081 51.6534 35.8341 52.0168C35.9357 53.4161 35.8601 54.8054 35.5655 56.1736C35.3363 57.2389 35.0173 58.294 34.3072 59.1477C33.1992 60.4782 31.919 61.5938 30.173 62.0151C29.1364 62.2653 28.1047 62.3022 27.1511 61.7415C26.2194 61.1934 25.8391 60.3397 25.9122 59.2686C25.9541 58.655 26.1665 58.1009 26.4494 57.5637C26.6811 57.123 26.8632 56.6521 27.1302 56.2358C27.3618 55.874 27.46 55.4878 27.5146 55.0841C27.5683 54.6853 27.5776 54.2816 27.6103 53.8795C27.6271 53.6697 27.6531 53.4615 27.6498 53.2399C27.4844 53.5303 27.314 53.8191 27.1537 54.1129C26.3058 55.6666 25.4186 57.1952 24.324 58.5928C24.2526 58.6843 24.1729 58.7691 24.1015 58.8606C23.8069 59.2342 23.5274 59.6194 23.2185 59.9812C22.4051 60.9348 21.4507 61.6836 20.2066 62C18.6504 62.3962 17.126 61.6584 16.462 60.1953C15.9424 59.0503 15.9013 57.8651 16.1917 56.6681C16.6651 54.7181 17.173 52.7774 17.664 50.8316C17.9746 49.601 18.2802 48.3687 18.5916 47.1381C18.6453 46.9266 18.7234 46.7218 18.7746 46.5094C18.788 46.454 18.7637 46.3592 18.7225 46.3264C17.147 45.0639 16.786 43.4287 17.2569 41.5443C17.6246 40.0736 18.48 38.8934 19.5133 37.8231C20.4979 36.8032 21.6513 36.0242 22.9222 35.4089C22.9717 35.3871 23.0162 35.3594 23.08 35.3225ZM27.5045 52.7236C27.3778 52.6749 27.2729 52.6607 27.2065 52.6019C27.1411 52.544 27.0773 52.4374 27.0865 52.3602C27.0924 52.3081 27.2334 52.2225 27.2997 52.2342C27.8101 52.3224 28.3188 52.4265 28.8249 52.5373C28.882 52.5499 28.9651 52.6388 28.9609 52.6859C28.9551 52.7488 28.8862 52.8411 28.8275 52.8571C28.7057 52.8907 28.5714 52.8957 28.4447 52.8865C28.1324 52.8638 28.1324 52.8571 28.0619 53.1677C28.051 53.2138 28.0434 53.2617 28.0401 53.3095C27.9998 53.8955 27.9671 54.4814 27.9184 55.0664C27.8814 55.5029 27.8227 55.9445 27.5818 56.3189C27.3921 56.6135 27.3778 56.8712 27.5557 57.1734C28.2013 58.2739 29.1775 58.9597 30.3611 59.3366C30.9462 59.5229 31.5782 59.5607 32.1851 59.6807C32.5797 59.7588 32.9305 59.6681 33.2546 59.4524C33.9236 59.0075 34.334 58.3536 34.6446 57.6409C35.2498 56.2517 35.5235 54.7894 35.5235 53.276C35.5235 52.5188 35.5126 51.7617 35.505 51.0045C35.505 50.9877 35.4874 50.9718 35.4748 50.9483C34.3147 51.2597 33.1387 51.2622 31.9551 51.1673C30.3854 51.0406 28.8451 50.7493 27.3207 50.3615C25.5311 49.9057 23.7842 49.3273 22.1121 48.5358C21.1846 48.0968 20.2839 47.6124 19.4814 46.9652C19.3353 46.8477 19.2052 46.7092 19.0533 46.5682C19.0306 46.6294 19.0105 46.6714 19.0004 46.7151C18.7754 47.6712 18.5563 48.6289 18.3263 49.5842C17.8109 51.7205 17.2897 53.8552 16.7759 55.9915C16.7575 56.067 16.7709 56.1745 16.8145 56.2358C17.0051 56.5102 17.1898 56.7931 17.4156 57.0366C18.286 57.9725 19.3303 58.6583 20.5298 59.0973C21.2257 59.3517 21.9417 59.5238 22.6955 59.4306C22.8894 59.4062 23.0649 59.3651 23.2017 59.2048C23.5039 58.8531 23.8329 58.524 24.1217 58.1622C25.1903 56.825 26.1111 55.3896 26.9153 53.8795C27.1142 53.506 27.2997 53.1265 27.5045 52.7236ZM20.5088 47.1793C20.5029 47.191 20.4962 47.2028 20.4904 47.2154C20.5491 47.2565 20.6037 47.3043 20.6666 47.3371C21.1921 47.6132 21.7084 47.9104 22.2473 48.1555C24.6455 49.2468 27.1495 50.0006 29.7466 50.4387C29.8322 50.453 29.9565 50.4152 30.0203 50.3556C30.299 50.0946 30.5634 49.8184 30.8286 49.5439C31.3608 48.9941 31.7898 48.383 32.0374 47.6443C32.4663 46.3625 32.7652 45.0539 32.8835 43.7091C32.9415 43.0518 32.9205 42.3887 32.9347 41.7281C32.9381 41.5778 32.8659 41.5241 32.714 41.5006C32.2825 41.4343 31.851 41.3587 31.4263 41.2597C30.0102 40.929 28.6596 40.4203 27.3694 39.7487C26.0129 39.0428 24.7873 38.1639 23.7465 37.0399C23.6566 36.9434 23.5769 36.8166 23.5458 36.6907C23.4871 36.4557 23.4501 36.2131 23.4342 35.9714C23.4149 35.6809 23.3058 35.5978 23.0573 35.7271C22.8332 35.8438 22.6074 35.9571 22.3908 36.0864C20.7422 37.0718 19.3244 38.2949 18.3725 39.9972C17.8655 40.9029 17.5104 41.8532 17.497 42.9075C17.4852 43.851 17.7446 44.7005 18.3784 45.4165C19.1834 46.3247 20.2402 46.7226 21.4053 46.8871C22.2086 47.0013 23.012 46.9778 23.8136 46.8519C24.1611 46.7973 24.167 46.8007 24.2593 46.4666C24.4491 45.7791 24.4155 45.0723 24.4054 44.3739C24.392 43.4447 24.3106 42.518 24.0092 41.6274C23.8539 41.1699 23.8497 41.1757 23.362 41.2404C23.0649 41.2798 22.7652 41.3075 22.4663 41.3294C22.4202 41.3327 22.3707 41.2782 22.3228 41.2513C22.353 41.211 22.3757 41.1556 22.416 41.1338C22.4991 41.0884 22.5889 41.0448 22.6812 41.0288C23.017 40.9726 23.3536 40.9071 23.6919 40.8828C24.7261 40.8081 25.7225 40.9667 26.6492 41.4528C27.1998 41.7415 27.6548 42.1386 27.9259 42.7102C28.3649 43.6361 28.1526 44.4856 27.5717 45.2646C26.8842 46.1871 25.9315 46.7403 24.8486 47.0592C24.3836 47.1969 23.8892 47.2666 23.404 47.2993C22.7392 47.3438 22.0693 47.3404 21.4028 47.3245C21.1048 47.3195 20.8077 47.2305 20.5088 47.1793ZM33.3393 41.5913C33.3687 42.1033 33.4317 42.5801 33.4157 43.0535C33.3645 44.5074 33.0934 45.926 32.6871 47.3228C32.3312 48.5492 31.705 49.5976 30.717 50.4194C30.6742 50.4555 30.6381 50.5008 30.5693 50.5739C30.7909 50.6007 30.9655 50.6234 31.1409 50.6444C32.2842 50.777 33.4283 50.8156 34.575 50.7006C35.1693 50.641 35.6897 50.4589 36.0658 49.9351C36.8372 48.8631 37.3568 47.6737 37.7681 46.4313C38.1257 45.3535 38.2222 44.2312 38.3196 43.1072C38.3742 42.4768 38.5798 41.8951 39.0407 41.4309C39.6417 40.8257 40.2637 40.239 40.8379 39.6094C41.9543 38.3855 42.9566 37.0735 43.749 35.6121C43.9353 35.2679 44.0914 34.907 44.2828 34.5091C43.3998 34.4638 42.5973 34.3395 41.9106 33.8317C41.7478 34.264 41.6135 34.6946 41.4263 35.1009C41.1845 35.6247 40.9361 36.1535 40.6204 36.6337C40.4123 36.9501 40.0757 37.1801 39.8037 37.4563C39.7533 37.5075 39.7038 37.6007 39.7156 37.6636C39.8952 38.6776 39.6484 39.5607 38.9139 40.291C38.1845 41.0163 37.2544 41.3218 36.2756 41.5048C35.4043 41.6676 34.5212 41.6433 33.6398 41.6131C33.5349 41.6097 33.4283 41.598 33.3393 41.5913ZM38.9189 24.4117C38.9273 24.4008 38.9349 24.3891 38.9433 24.3781C38.8887 24.3194 38.8358 24.2573 38.7779 24.201C37.1218 22.5868 35.1592 21.5879 32.8625 21.274C31.02 21.0221 29.2447 21.2555 27.5406 22.0244C24.0638 23.5941 21.9165 27.1356 22.2876 31.2093C22.4076 32.5213 22.8013 33.7461 23.3872 34.917C23.4367 35.0161 23.4904 35.1126 23.5677 35.2587C23.8094 34.7273 24.1914 34.4512 24.7294 34.3882C24.6933 34.3118 24.6749 34.2673 24.653 34.2262C24.0344 33.0644 23.8556 31.8355 24.1326 30.5529C24.418 29.2342 25.4219 27.8718 27.0941 27.8298C27.1436 27.829 27.2258 27.7551 27.2342 27.7064C27.413 26.616 28.0099 25.7766 28.8359 25.0916C29.9489 24.1691 31.2593 23.694 32.6737 23.4657C34.4801 23.1744 36.2395 23.3431 37.9494 23.9928C38.2776 24.1188 38.5958 24.2715 38.9189 24.4117ZM39.3378 37.8265C38.9962 38.0095 38.6973 38.1874 38.3842 38.336C36.9136 39.0319 35.3565 39.2854 33.7414 39.2006C32.4378 39.1318 31.1887 38.843 30.0371 38.2034C29.912 38.1337 29.7886 38.0581 29.6576 38.0027C28.689 37.5973 27.7967 37.0576 26.9514 36.4397C26.671 36.2349 26.4133 35.9999 26.1455 35.7783C25.8265 35.5139 25.4933 35.2637 25.1919 34.9808C24.9653 34.7685 24.758 34.6803 24.465 34.7953C24.0436 34.9607 23.8623 35.3091 23.8077 35.7338C23.7355 36.2987 23.9899 36.7394 24.3668 37.1247C25.103 37.8768 25.9474 38.4913 26.8481 39.026C28.7679 40.1659 30.837 40.8929 33.0531 41.1808C34.4113 41.3571 35.7678 41.3604 37.0882 40.9315C37.8453 40.6855 38.532 40.3162 39.0037 39.6346C39.3798 39.089 39.4419 38.4921 39.3378 37.8265ZM24.4734 32.1016C24.512 33.1652 24.977 34.3672 26.1254 35.236C26.7029 35.6734 27.366 35.8597 28.0753 35.6943C28.7595 35.5349 29.29 35.1185 29.6644 34.5183C30.1588 33.7234 30.3174 32.8554 30.2368 31.9287C30.1495 30.9248 29.8045 30.0283 29.1414 29.2686C27.931 27.881 26.0439 28.0011 25.0845 29.5238C24.6564 30.2054 24.4675 30.9592 24.4734 32.1016ZM33.6063 24.8608C33.5584 24.8079 33.4871 24.661 33.3763 24.6224C33.226 24.5695 33.0397 24.5645 32.881 24.5972C32.0785 24.7634 31.3692 25.1445 30.701 25.602C30.0597 26.0419 29.4822 26.5489 29.128 27.2641C29.0205 27.4806 29.044 27.6519 29.1985 27.7568C29.3588 27.8659 29.5141 27.829 29.6795 27.6435C29.8793 27.4194 30.0765 27.1927 30.2797 26.9719C30.696 26.5203 31.2324 26.2391 31.7721 25.9789C32.2724 25.7372 32.74 25.414 33.3058 25.3141C33.4871 25.283 33.6004 25.1471 33.6063 24.8608ZM34.1829 24.7206C34.1813 24.9884 34.3575 25.1966 34.5884 25.1974C34.8159 25.1991 35.0392 24.9808 35.0434 24.7534C35.0484 24.5183 34.8335 24.2976 34.6043 24.3001C34.3903 24.3026 34.1846 24.5083 34.1829 24.7206Z" fill="#4A5364"/>
<path d="M55.4132 61.2472C55.4845 60.9156 55.5349 60.6336 55.6088 60.3591C55.639 60.2458 55.7011 60.1274 55.7825 60.0443C56.01 59.8118 56.3298 59.889 56.4197 60.2013C56.4641 60.3549 56.4818 60.5262 56.4658 60.684C56.4129 61.2053 56.2534 61.6946 55.984 62.1471C55.8169 62.4274 55.7011 62.4627 55.3989 62.3385C54.7626 62.0774 54.3723 61.5729 54.0525 60.9971C54.0332 60.9618 54.0063 60.919 54.0114 60.8829C54.0315 60.7494 54.0206 60.5698 54.102 60.4985C54.1826 60.4279 54.3899 60.4128 54.4881 60.4691C54.7333 60.6084 54.9507 60.7981 55.1714 60.9761C55.2529 61.0432 55.3141 61.1347 55.4132 61.2472Z" fill="#4A5364"/>
<path d="M7.07648 60.4151C7.05466 60.4873 7.04626 60.5276 7.03031 60.5645C6.75246 61.1798 6.90272 61.7548 7.19904 62.3139C7.24352 62.397 7.31571 62.47 7.34258 62.5573C7.36104 62.6169 7.34425 62.7202 7.30144 62.7563C7.25947 62.7924 7.15874 62.7907 7.09747 62.7689C7.02444 62.742 6.95896 62.6824 6.90272 62.6236C6.67776 62.3878 6.45447 62.151 6.2379 61.9076C6.04735 61.6936 5.84757 61.5425 5.53027 61.5995C5.32209 61.6373 5.18107 61.4652 5.2818 61.3041C5.5202 60.9221 5.42115 60.5251 5.38001 60.1306C5.35903 59.9283 5.29188 59.7318 5.26418 59.5304C5.25158 59.438 5.2625 59.3306 5.30027 59.2458C5.3775 59.0721 5.48242 59.0502 5.63856 59.1602C5.72753 59.2231 5.80476 59.3012 5.8887 59.3709C6.22867 59.6538 6.57115 59.9333 6.9086 60.2195C6.97827 60.2766 7.02779 60.3564 7.07648 60.4151ZM6.42929 61.3729C6.46286 61.1009 6.49644 60.834 6.52666 60.5662C6.53002 60.5368 6.5233 60.4923 6.504 60.4756C6.26308 60.2724 6.01881 60.0735 5.7737 59.872C5.8098 60.2842 5.84589 60.6854 5.88199 61.095C6.04735 61.179 6.2379 61.2764 6.42929 61.3729Z" fill="#4A5364"/>
<path d="M47.9894 10.6221C47.918 10.6792 47.8601 10.764 47.7904 10.7749C47.5378 10.816 47.4169 10.9906 47.3321 11.1963C47.2196 11.47 47.1667 11.7444 47.2616 12.0491C47.3262 12.2573 47.3229 12.4907 47.3229 12.7123C47.3237 12.8525 47.2095 12.8676 47.0979 12.8248C46.8956 12.7459 46.7991 12.5763 46.7974 12.3765C46.7907 11.6798 46.3953 11.2467 45.8388 10.9159C45.6482 10.8026 45.6197 10.6196 45.8002 10.5416C46.2845 10.3334 46.3961 9.9229 46.4205 9.4587C46.428 9.30845 46.4213 9.15735 46.439 9.00962C46.4457 8.95337 46.496 8.87615 46.5447 8.85936C46.5959 8.84173 46.679 8.87027 46.7277 8.90637C46.7856 8.94918 46.8217 9.02137 46.8671 9.08097C47.2079 9.53173 47.5495 9.98166 47.8886 10.4333C47.9231 10.482 47.9449 10.539 47.9894 10.6221ZM46.355 10.7019C46.507 10.8463 46.6925 11.0225 46.8645 11.1862C47.0173 10.952 47.1676 10.7212 47.3321 10.4702C47.1718 10.2394 46.9913 9.97914 46.8251 9.74075C46.6706 10.0572 46.5162 10.3745 46.355 10.7019Z" fill="#4A5364"/>
<path d="M10.237 21.5123C10.2655 21.3201 10.2798 21.1589 10.3142 21.0028C10.3461 20.8576 10.3738 20.7014 10.4494 20.578C10.5123 20.4756 10.6441 20.3505 10.7432 20.3531C10.8405 20.3547 10.9463 20.4949 11.0269 20.5923C11.0697 20.6443 11.0773 20.7325 11.0831 20.8064C11.1285 21.3159 11.0722 21.8145 10.8993 22.2955C10.7969 22.58 10.6114 22.627 10.357 22.4751C10.2681 22.4222 10.1497 22.4231 10.0507 22.3828C9.59653 22.1964 9.19193 21.9362 8.87043 21.5601C8.75711 21.4275 8.6505 21.2798 8.76634 21.1001C8.87715 20.9289 9.05594 20.9146 9.22215 20.9843C9.49664 21.0993 9.76105 21.2395 10.028 21.373C10.0926 21.4057 10.1489 21.4535 10.237 21.5123Z" fill="#4A5364"/>
<path d="M76.3348 16.417C76.2735 16.417 76.1946 16.4414 76.1543 16.412C76.0704 16.3507 75.9697 16.2701 75.9504 16.1811C75.9395 16.1316 76.0662 16.0116 76.1493 15.9881C76.5413 15.8773 76.9417 15.8815 77.343 15.9511C77.4831 15.9755 77.5125 16.0552 77.4277 16.1434C77.3472 16.2265 77.2347 16.3045 77.1247 16.3272C76.8653 16.3801 76.5992 16.3994 76.3357 16.4321C76.3357 16.4263 76.3357 16.4221 76.3348 16.417Z" fill="#4A5364"/>
<path d="M76.168 15.325C76.0765 15.2629 75.9892 15.2352 75.9682 15.1814C75.943 15.1176 75.9447 15.0018 75.9867 14.9598C76.2527 14.6929 76.5717 14.5191 76.9562 14.5032C77.0964 14.4973 77.1442 14.5964 77.0745 14.7239C77.046 14.776 77.0049 14.8297 76.9562 14.8599C76.6976 15.0177 76.4349 15.168 76.168 15.325Z" fill="#4A5364"/>
<path d="M65.8003 54.9366C65.8062 54.7225 66.0807 54.4186 66.241 54.3926C66.351 54.375 66.4164 54.4379 66.3812 54.5269C66.3081 54.7108 66.2133 54.8887 66.1067 55.0558C66.0823 55.0944 65.9589 55.1061 65.9077 55.0801C65.8473 55.0499 65.8179 54.9626 65.8003 54.9366Z" fill="#4A5364"/>
<path d="M35.0023 1.59778C34.9629 1.67081 34.9142 1.79924 34.8311 1.89829C34.7958 1.94026 34.6674 1.95286 34.6187 1.92096C34.5734 1.89158 34.5449 1.77238 34.5675 1.71614C34.6254 1.57344 34.7127 1.44165 34.7958 1.3107C34.8126 1.28384 34.8655 1.25866 34.8949 1.26453C34.9243 1.27041 34.957 1.31322 34.9662 1.3468C34.9839 1.40975 34.9864 1.47691 35.0023 1.59778Z" fill="#4A5364"/>
<path d="M72.2463 0.517435C72.0994 0.502326 72.0112 0.427618 72.0431 0.289114C72.0666 0.185865 72.1204 0.0742227 72.1959 0.00539043C72.2446 -0.0390987 72.5325 0.204333 72.5224 0.275683C72.5015 0.441049 72.3823 0.493092 72.2463 0.517435Z" fill="#4A5364"/>
<path d="M9.96826 7.54503C10.1118 7.43254 10.1882 7.32678 10.2822 7.30915C10.4207 7.28313 10.5046 7.38805 10.5072 7.53243C10.5105 7.68185 10.44 7.80441 10.2864 7.78174C10.1932 7.76915 10.1143 7.65919 9.96826 7.54503Z" fill="#4A5364"/>
<path d="M4.77881 37.6699C4.78385 37.4895 4.95677 37.293 5.06337 37.3107C5.10198 37.3166 5.15907 37.3862 5.1599 37.4274C5.16326 37.6364 5.04071 37.8294 4.92655 37.7967C4.85939 37.7774 4.80903 37.6976 4.77881 37.6699Z" fill="#4A5364"/>
<path d="M41.821 66.3057C41.9629 66.4458 42.077 66.5508 42.1786 66.6658C42.1962 66.6859 42.1769 66.7741 42.1517 66.7883C42.1047 66.8152 42.0351 66.8295 41.983 66.816C41.8244 66.7766 41.7648 66.6154 41.821 66.3057Z" fill="#4A5364"/>
<path d="M58.0712 73.5544C57.9864 73.6241 57.9251 73.7088 57.8512 73.7214C57.8109 73.729 57.6934 73.5947 57.706 73.5603C57.7505 73.4444 57.837 73.3445 57.9075 73.2388C57.9545 73.3286 58.0007 73.4176 58.0712 73.5544Z" fill="#4A5364"/>
<path d="M21.8141 7.90709C21.6949 7.99942 21.6286 8.09176 21.5639 8.09008C21.5002 8.0884 21.3919 7.99355 21.3902 7.93563C21.3877 7.87435 21.48 7.76858 21.5438 7.75767C21.6068 7.7476 21.6857 7.8307 21.8141 7.90709Z" fill="#4A5364"/>
<path d="M32.1199 74.2135C32.0494 74.2865 32.0024 74.3696 31.9688 74.3638C31.7665 74.3319 31.8546 74.138 31.8034 74.0204C31.7925 73.9961 31.8605 73.9373 31.8924 73.8945C31.9646 73.9953 32.0368 74.096 32.1199 74.2135Z" fill="#4A5364"/>
<path d="M3 74.3743C3.04281 74.2266 3.07471 74.094 3.12256 73.9672C3.13347 73.9378 3.1981 73.9169 3.23839 73.916C3.25518 73.916 3.28372 73.9764 3.2896 74.0117C3.3215 74.2056 3.2258 74.3416 3 74.3743Z" fill="#4A5364"/>
<path d="M63.9353 10.2754C63.8203 10.3753 63.7448 10.4509 63.6566 10.5063C63.644 10.5138 63.5685 10.419 63.5215 10.372C63.6021 10.3023 63.6785 10.2268 63.7658 10.168C63.7834 10.1562 63.8455 10.2158 63.9353 10.2754Z" fill="#4A5364"/>
<path d="M76.5262 8.51854C76.4456 8.59492 76.3877 8.64949 76.3289 8.70489C76.2794 8.65284 76.1804 8.58485 76.1913 8.55211C76.2181 8.46901 76.2945 8.40102 76.3507 8.32715C76.4011 8.38171 76.4515 8.43711 76.5262 8.51854Z" fill="#4A5364"/>
<path d="M75.7903 72.8408C75.8717 72.9332 75.9481 73.0104 75.9439 73.0154C75.8759 73.091 75.802 73.164 75.7172 73.2194C75.703 73.2286 75.5871 73.1237 75.593 73.1128C75.6392 73.028 75.7038 72.9541 75.7903 72.8408Z" fill="#4A5364"/>
<path d="M72.714 44.188C72.6167 44.2711 72.5604 44.3517 72.4916 44.3643C72.4505 44.3719 72.338 44.2426 72.3472 44.2275C72.3925 44.1494 72.4631 44.0823 72.5369 44.0277C72.547 44.021 72.6251 44.1066 72.714 44.188Z" fill="#4A5364"/>
<path d="M13.2541 69.6788C13.412 69.641 13.5035 69.7275 13.5437 69.8693C13.5538 69.9054 13.4934 69.9617 13.4657 70.0087C13.375 69.9214 13.2835 69.8332 13.1929 69.7459C13.2139 69.7233 13.234 69.7006 13.2541 69.6788Z" fill="#4A5364"/>
<path d="M57.9506 14.4069C57.8725 14.2911 57.7928 14.2239 57.802 14.1719C57.8112 14.1148 57.8977 14.0468 57.9607 14.0317C57.9942 14.0241 58.0866 14.1198 58.0882 14.1719C58.0908 14.2298 58.0219 14.2919 57.9506 14.4069Z" fill="#4A5364"/>
<path d="M36.7726 16.3105C36.6735 16.3928 36.6122 16.4549 36.5392 16.4952C36.5275 16.5019 36.4225 16.3852 36.4301 16.3743C36.4796 16.3055 36.5426 16.2434 36.6131 16.1964C36.6265 16.1863 36.6903 16.2501 36.7726 16.3105Z" fill="#4A5364"/>
<path d="M51.716 3.72363C51.7664 3.81597 51.8176 3.86969 51.8159 3.9209C51.8142 3.95951 51.7445 3.9956 51.7051 4.03338C51.6665 3.98637 51.6069 3.94272 51.5977 3.88984C51.5909 3.8529 51.6556 3.80422 51.716 3.72363Z" fill="#4A5364"/>
<path d="M12.8269 33.0293C12.8856 33.099 12.9461 33.1426 12.9394 33.1712C12.9293 33.219 12.8764 33.2576 12.8411 33.2996C12.8059 33.2685 12.7429 33.2383 12.7413 33.2056C12.7396 33.1594 12.7832 33.1124 12.8269 33.0293Z" fill="#4A5364"/>
<path d="M11.0787 47.0009C11.0082 47.0546 10.9587 47.115 10.9335 47.1058C10.8865 47.089 10.8445 47.037 10.8219 46.99C10.8143 46.9749 10.8806 46.8976 10.905 46.901C10.9545 46.9085 10.9982 46.9522 11.0787 47.0009Z" fill="#4A5364"/>
<path d="M29.5177 32.8494C29.5093 33.1986 29.3892 33.7543 29.0401 34.2353C28.4667 35.0252 27.4871 35.1956 26.6897 34.6324C25.9485 34.1086 25.5061 33.3783 25.3189 32.4952C25.1493 31.6961 25.2056 30.9146 25.6085 30.1918C26.1869 29.1535 27.3327 28.9512 28.2493 29.7066C29.0484 30.3664 29.5152 31.435 29.5177 32.8494ZM29.1668 32.4087C29.1274 31.566 28.831 30.7307 28.1142 30.0827C27.7876 29.7881 27.4015 29.6235 26.9516 29.6773C26.3858 29.7453 26.0861 30.1306 25.888 30.6149C25.6522 31.1924 25.6664 31.7901 25.8007 32.3844C25.9669 33.1189 26.2549 33.7887 26.8937 34.2487C27.6483 34.7935 28.4281 34.6105 28.8713 33.7955C29.0913 33.3925 29.1483 32.9577 29.1668 32.4087Z" fill="#4A5364"/>
</g>
<defs>
<clipPath id="clip0_2549_13787">
<path d="M0 16C0 7.16344 7.16344 0 16 0H64C72.8366 0 80 7.16344 80 16V64C80 72.8366 72.8366 80 64 80H16C7.16344 80 0 72.8366 0 64V16Z" fill="white"/>
</clipPath>
</defs>
</svg>
