<svg width="316" height="286" viewBox="0 0 316 286" fill="none" xmlns="http://www.w3.org/2000/svg">
<g clip-path="url(#clip0_2546_13596)">
<path d="M316 0H0V286H316V0Z" fill="#FFF6E2"/>
<path d="M174.09 206.099C174.281 205.89 174.449 205.652 174.668 205.477C177.247 203.412 179.843 201.363 182.423 199.297C189.238 193.839 195.858 188.173 201.41 181.385C205.793 176.027 208.705 169.988 209.542 163.059C209.854 160.459 209.512 157.876 208.894 155.337C207.97 151.542 207.003 147.76 206.146 143.951C205.874 142.738 205.824 141.459 205.79 140.209C205.693 136.478 207.473 133.485 209.931 130.952C212.172 128.648 214.714 126.643 217.126 124.51C217.549 124.134 217.986 123.771 218.483 123.348C217.848 122.901 217.317 122.488 216.75 122.129C213.085 119.821 210.519 116.513 208.353 112.859C204.211 105.879 201.659 98.2782 199.821 90.422C197.229 79.3413 196.113 68.1095 196.741 56.7401C197.124 49.8075 198.166 42.9825 201.071 36.584C202.277 33.9238 203.782 31.4484 206.186 29.675C209.125 27.5052 212.249 27.4145 215.453 29.0234C218.466 30.5348 220.683 32.9531 222.621 35.6267C226.517 40.9974 229.023 47.05 231.038 53.3175C232.939 59.2323 234.289 65.2815 235.223 71.4247C235.263 71.6867 235.334 71.9419 235.431 72.3718C235.666 72.0662 235.821 71.8983 235.939 71.7034C241.339 62.806 247.916 54.8759 255.725 48.0005C260.757 43.5736 266.201 39.7345 272.633 37.5513C275.451 36.5941 278.35 36.0164 281.339 36.5101C285.954 37.2725 288.782 40.1074 290.089 44.4738C291.291 48.4942 291.033 52.5953 290.344 56.6662C289.347 62.5642 287.21 68.0928 284.617 73.4467C279.163 84.712 271.861 94.6339 262.745 103.205C259.554 106.205 256.108 108.895 252.407 111.253C249.296 113.231 246.25 115.314 243.089 117.205C241.037 118.434 238.874 119.506 236.681 120.466C234.108 121.592 231.475 122.589 228.821 123.519C226.285 124.41 223.662 124.688 220.989 124.111C220.71 124.05 220.29 124.104 220.092 124.282C217.264 126.811 214.409 129.32 211.675 131.95C210.707 132.88 209.985 134.093 209.25 135.238C207.55 137.882 207.564 140.794 208.212 143.712C208.927 146.937 209.703 150.155 210.617 153.329C212.43 159.62 211.967 165.743 209.629 171.802C207.563 177.163 204.339 181.737 200.517 185.986C195.109 192.005 189 197.174 182.285 201.645C179.901 203.233 177.395 204.641 174.94 206.122C174.731 206.246 174.473 206.283 174.238 206.357C174.191 206.273 174.14 206.186 174.09 206.099ZM278.877 66.6586C279.19 66.4805 279.858 66.2521 280.325 65.8121C282.481 63.7767 283.831 61.2308 284.765 58.4497C284.936 57.9391 285.101 57.3917 285.104 56.8643C285.108 55.981 284.53 55.4234 283.768 55.0741C282.998 54.7214 282.283 54.8692 281.786 55.5343C281.369 56.0918 281.047 56.7333 280.745 57.3682C280.456 57.9828 280.338 58.6949 279.986 59.2625C279.075 60.7169 278.091 62.1242 277.107 63.5282C276.644 64.1898 276.318 64.8717 276.671 65.661C277.02 66.4302 277.745 66.5981 278.877 66.6586ZM287.375 50.0326C287.392 48.7126 286.3 47.7419 284.748 47.7016C283.647 47.6713 282.736 48.7394 282.7 50.1098C282.666 51.4265 283.603 52.424 284.896 52.4408C286.243 52.4576 287.362 51.3727 287.375 50.0326Z" fill="#4A5364"/>
<path d="M89.3478 124.337C89.0354 123.8 88.7264 123.323 88.4745 122.819C84.7462 115.44 82.9795 107.654 84.1517 99.4117C86.1771 85.1771 93.8049 74.9463 106.874 69.0012C114.485 65.5417 122.556 64.7523 130.778 66.3981C143.065 68.8534 152.584 75.4602 159.462 85.8858C162.808 90.9542 164.732 96.5802 165.582 102.572C165.7 103.402 166.012 103.425 166.687 103.362C167.933 103.244 169.2 103.123 170.442 103.21C175.242 103.55 178.073 106.536 178.221 111.359C178.339 115.127 177.351 118.671 175.766 122.047C170.778 132.674 163.449 141.551 154.955 149.521C152.94 151.412 152.033 153.639 151.986 156.343C151.898 161.61 150.646 166.661 148.993 171.626C147.693 175.532 146.071 179.287 143.656 182.649C142.941 183.643 142.04 184.5 141.275 185.46C140.979 185.83 140.673 186.293 140.626 186.74C140.472 188.201 140.277 189.682 140.381 191.137C140.788 196.736 140.485 202.295 139.306 207.769C138.389 212.032 137.113 216.254 134.272 219.67C129.838 224.993 124.716 229.457 117.73 231.143C113.581 232.144 109.453 232.292 105.638 230.048C101.91 227.855 100.388 224.439 100.68 220.153C100.848 217.698 101.698 215.481 102.83 213.332C103.757 211.568 104.486 209.684 105.554 208.018C106.481 206.57 106.874 205.025 107.092 203.41C107.307 201.814 107.344 200.199 107.475 198.59C107.542 197.75 107.646 196.917 107.633 196.03C106.971 197.193 106.289 198.348 105.648 199.524C102.256 205.741 98.7053 211.857 94.3255 217.449C94.04 217.816 93.7209 218.155 93.4354 218.521C92.2565 220.016 91.138 221.557 89.902 223.005C86.6473 226.82 82.8284 229.817 77.8506 231.083C71.6235 232.668 65.5239 229.716 62.8671 223.861C60.788 219.28 60.6234 214.537 61.7856 209.748C63.6799 201.945 65.712 194.18 67.6769 186.394C68.9196 181.47 70.1422 176.539 71.3883 171.615C71.6033 170.769 71.9157 169.95 72.1206 169.1C72.1743 168.878 72.0769 168.499 71.9123 168.368C65.6079 163.316 64.1636 156.773 66.0479 149.233C67.519 143.348 70.9416 138.625 75.0763 134.343C79.0161 130.262 83.6311 127.145 88.7163 124.683C88.9145 124.596 89.0925 124.485 89.3478 124.337ZM107.052 193.965C106.545 193.77 106.125 193.713 105.86 193.478C105.598 193.246 105.342 192.819 105.379 192.51C105.403 192.302 105.967 191.96 106.232 192.007C108.275 192.359 110.31 192.776 112.335 193.219C112.564 193.27 112.896 193.626 112.879 193.814C112.856 194.066 112.58 194.435 112.345 194.499C111.858 194.633 111.321 194.653 110.814 194.616C109.564 194.526 109.564 194.499 109.282 195.742C109.238 195.926 109.208 196.118 109.195 196.309C109.034 198.654 108.903 200.998 108.708 203.339C108.56 205.086 108.325 206.853 107.361 208.351C106.602 209.529 106.545 210.561 107.257 211.77C109.84 216.173 113.746 218.917 118.482 220.425C120.823 221.171 123.352 221.322 125.781 221.802C127.359 222.115 128.763 221.752 130.06 220.889C132.737 219.109 134.379 216.492 135.622 213.641C138.043 208.082 139.138 202.231 139.138 196.175C139.138 193.145 139.095 190.116 139.065 187.086C139.065 187.019 138.994 186.955 138.944 186.861C134.302 188.107 129.596 188.117 124.86 187.738C118.579 187.23 112.416 186.065 106.316 184.513C99.1554 182.689 92.1658 180.375 85.4751 177.208C81.7636 175.451 78.1597 173.513 74.9487 170.924C74.3642 170.453 73.8436 169.899 73.2357 169.335C73.145 169.58 73.0644 169.748 73.0241 169.923C72.1239 173.748 71.2473 177.581 70.327 181.403C68.2647 189.951 66.1789 198.492 64.1233 207.041C64.0494 207.343 64.1031 207.773 64.2778 208.018C65.0402 209.116 65.7792 210.248 66.6827 211.222C70.1657 214.967 74.3441 217.711 79.1438 219.468C81.9282 220.486 84.7933 221.174 87.8095 220.802C88.5853 220.704 89.2873 220.54 89.8348 219.898C91.044 218.491 92.3606 217.174 93.516 215.726C97.7918 210.376 101.476 204.632 104.694 198.59C105.49 197.095 106.232 195.577 107.052 193.965ZM79.0598 171.78C79.0363 171.827 79.0094 171.874 78.9859 171.924C79.221 172.089 79.4394 172.281 79.6913 172.412C81.7939 173.517 83.8595 174.706 86.0159 175.686C95.6119 180.053 105.631 183.069 116.023 184.822C116.366 184.879 116.863 184.728 117.118 184.49C118.233 183.445 119.291 182.34 120.353 181.242C122.482 179.042 124.199 176.597 125.189 173.641C126.906 168.512 128.101 163.276 128.575 157.895C128.807 155.265 128.723 152.611 128.78 149.968C128.793 149.367 128.504 149.152 127.897 149.058C126.17 148.793 124.444 148.49 122.744 148.094C117.078 146.771 111.674 144.735 106.511 142.048C101.083 139.223 96.1795 135.707 92.0146 131.209C91.6553 130.823 91.3362 130.316 91.2119 129.812C90.9768 128.872 90.829 127.901 90.7652 126.934C90.6879 125.771 90.2513 125.439 89.2571 125.956C88.3603 126.423 87.4568 126.876 86.5902 127.394C79.9936 131.337 74.3206 136.231 70.5117 143.042C68.483 146.666 67.0622 150.469 67.0085 154.687C66.9615 158.462 67.9993 161.862 70.5352 164.727C73.7563 168.361 77.985 169.953 82.647 170.611C85.8613 171.068 89.0757 170.974 92.2833 170.47C93.6739 170.252 93.6974 170.265 94.0669 168.928C94.8259 166.178 94.6916 163.35 94.6513 160.555C94.5976 156.837 94.2718 153.129 93.0659 149.565C92.4446 147.735 92.4278 147.758 90.4763 148.017C89.2873 148.175 88.0882 148.285 86.8925 148.373C86.7078 148.386 86.5096 148.168 86.3181 148.06C86.4391 147.899 86.5297 147.677 86.691 147.59C87.0235 147.409 87.3829 147.234 87.7523 147.17C89.0959 146.945 90.4427 146.683 91.7963 146.586C95.9343 146.287 99.9212 146.922 103.629 148.866C105.833 150.022 107.653 151.611 108.738 153.898C110.495 157.603 109.645 161.002 107.321 164.119C104.57 167.81 100.758 170.023 96.4247 171.3C94.564 171.851 92.5856 172.129 90.6443 172.26C87.9841 172.438 85.3038 172.425 82.6369 172.361C81.4445 172.341 80.2555 171.985 79.0598 171.78ZM130.399 149.421C130.516 151.469 130.768 153.377 130.704 155.272C130.5 161.089 129.415 166.765 127.789 172.354C126.365 177.262 123.859 181.457 119.906 184.745C119.735 184.889 119.59 185.071 119.315 185.363C120.202 185.47 120.9 185.561 121.602 185.645C126.177 186.176 130.755 186.33 135.343 185.87C137.721 185.632 139.803 184.903 141.308 182.807C144.395 178.518 146.474 173.758 148.12 168.787C149.551 164.475 149.937 159.984 150.327 155.487C150.545 152.964 151.368 150.636 153.212 148.779C155.617 146.357 158.105 144.01 160.403 141.491C164.87 136.593 168.88 131.344 172.051 125.496C172.797 124.119 173.422 122.675 174.187 121.083C170.654 120.901 167.443 120.404 164.695 118.372C164.044 120.102 163.506 121.825 162.757 123.45C161.79 125.546 160.796 127.662 159.533 129.584C158.7 130.85 157.353 131.77 156.265 132.875C156.063 133.08 155.865 133.453 155.912 133.705C156.631 137.762 155.643 141.296 152.705 144.218C149.786 147.12 146.064 148.342 142.148 149.075C138.661 149.726 135.128 149.629 131.601 149.508C131.181 149.495 130.755 149.447 130.399 149.421ZM152.725 80.6797C152.758 80.636 152.789 80.589 152.822 80.5454C152.604 80.3102 152.392 80.0617 152.16 79.8367C145.534 73.3777 137.681 69.3808 128.491 68.1246C121.119 67.1169 114.015 68.0507 107.196 71.1273C93.2843 77.4083 84.6925 91.579 86.1771 107.879C86.6574 113.129 88.2327 118.029 90.5771 122.715C90.7753 123.111 90.9902 123.498 91.2992 124.082C92.2666 121.956 93.7948 120.851 95.9478 120.599C95.8034 120.293 95.7295 120.115 95.6421 119.951C93.1667 115.302 92.4513 110.385 93.5597 105.253C94.7017 99.9759 98.7188 94.5246 105.409 94.3567C105.608 94.3533 105.937 94.0578 105.97 93.8629C106.686 89.4999 109.074 86.1411 112.379 83.4003C116.833 79.709 122.076 77.8079 127.735 76.8944C134.963 75.7289 142.003 76.404 148.845 79.0037C150.159 79.5075 151.432 80.1188 152.725 80.6797ZM154.401 134.356C153.034 135.089 151.838 135.801 150.585 136.395C144.701 139.18 138.47 140.194 132.008 139.855C126.792 139.579 121.794 138.424 117.185 135.865C116.685 135.586 116.191 135.283 115.667 135.062C111.791 133.44 108.221 131.28 104.838 128.808C103.717 127.988 102.686 127.048 101.614 126.161C100.338 125.103 99.0043 124.102 97.7985 122.97C96.8916 122.12 96.062 121.768 94.8898 122.228C93.2037 122.89 92.4782 124.283 92.2598 125.983C91.971 128.243 92.9887 130.007 94.4968 131.549C97.4424 134.558 100.821 137.017 104.425 139.156C112.107 143.717 120.386 146.626 129.253 147.778C134.688 148.484 140.116 148.497 145.399 146.781C148.429 145.796 151.176 144.319 153.064 141.591C154.569 139.408 154.817 137.02 154.401 134.356ZM94.9234 111.45C95.0779 115.705 96.9386 120.515 101.533 123.991C103.844 125.741 106.498 126.487 109.336 125.825C112.073 125.187 114.196 123.521 115.694 121.119C117.672 117.939 118.307 114.466 117.985 110.758C117.635 106.741 116.255 103.153 113.602 100.114C108.758 94.5616 101.208 95.0419 97.3685 101.135C95.6556 103.862 94.8998 106.878 94.9234 111.45ZM131.467 82.4767C131.275 82.2651 130.99 81.6773 130.547 81.5228C129.945 81.3112 129.2 81.291 128.565 81.422C125.354 82.087 122.516 83.6119 119.842 85.4425C117.276 87.2025 114.965 89.2312 113.548 92.0929C113.118 92.9594 113.212 93.6446 113.83 94.0645C114.471 94.5011 115.093 94.3533 115.755 93.611C116.554 92.7142 117.343 91.8074 118.156 90.924C119.822 89.117 121.968 87.9918 124.128 86.9506C126.13 85.9832 128.001 84.6901 130.264 84.2904C130.99 84.1661 131.443 83.622 131.467 82.4767ZM133.774 81.9157C133.768 82.9872 134.473 83.8202 135.397 83.8235C136.307 83.8302 137.2 82.957 137.217 82.0467C137.237 81.1063 136.377 80.2229 135.461 80.233C134.604 80.2431 133.781 81.066 133.774 81.9157Z" fill="#4A5364"/>
<path d="M218.722 228.07C219.007 226.744 219.209 225.615 219.505 224.517C219.626 224.063 219.874 223.59 220.2 223.257C221.11 222.327 222.39 222.636 222.749 223.885C222.927 224.5 222.998 225.185 222.934 225.817C222.722 227.902 222.084 229.86 221.006 231.671C220.338 232.793 219.874 232.934 218.665 232.437C216.119 231.392 214.557 229.373 213.277 227.069C213.2 226.928 213.093 226.757 213.113 226.613C213.193 226.078 213.15 225.36 213.476 225.074C213.798 224.792 214.628 224.732 215.021 224.957C216.001 225.514 216.871 226.273 217.755 226.985C218.08 227.254 218.326 227.62 218.722 228.07Z" fill="#4A5364"/>
<path d="M25.3132 224.739C25.2259 225.028 25.1923 225.189 25.1285 225.337C24.0167 227.799 24.618 230.1 25.8036 232.336C25.9816 232.669 26.2705 232.961 26.378 233.311C26.4519 233.549 26.3847 233.962 26.2134 234.107C26.0454 234.251 25.6424 234.244 25.3972 234.157C25.105 234.049 24.843 233.811 24.618 233.576C23.7178 232.632 22.8244 231.685 21.9578 230.711C21.1954 229.854 20.396 229.25 19.1263 229.478C18.2934 229.629 17.7291 228.941 18.1321 228.296C19.086 226.768 18.6897 225.179 18.5251 223.6C18.4411 222.791 18.1724 222.005 18.0616 221.199C18.0112 220.829 18.0549 220.399 18.206 220.06C18.515 219.365 18.9349 219.278 19.5596 219.718C19.9157 219.969 20.2247 220.282 20.5605 220.561C21.9208 221.692 23.2912 222.811 24.6415 223.956C24.9202 224.185 25.1184 224.504 25.3132 224.739ZM22.7236 228.571C22.8579 227.483 22.9923 226.415 23.1132 225.343C23.1267 225.226 23.0998 225.048 23.0225 224.981C22.0586 224.168 21.0812 223.372 20.1004 222.566C20.2448 224.215 20.3892 225.82 20.5337 227.46C21.1954 227.795 21.9578 228.185 22.7236 228.571Z" fill="#4A5364"/>
<path d="M189.017 25.5021C188.732 25.7305 188.5 26.0698 188.221 26.1134C187.21 26.278 186.726 26.9766 186.387 27.7995C185.937 28.8945 185.726 29.9928 186.105 31.2121C186.364 32.045 186.35 32.9788 186.35 33.8655C186.354 34.4264 185.897 34.4869 185.45 34.3156C184.641 33.9999 184.254 33.3214 184.248 32.522C184.221 29.7342 182.639 28.0011 180.412 26.6777C179.65 26.2243 179.535 25.4921 180.257 25.1797C182.195 24.3467 182.642 22.7043 182.74 20.8468C182.77 20.2456 182.743 19.641 182.813 19.0499C182.84 18.8249 183.042 18.5158 183.237 18.4487C183.442 18.3781 183.774 18.4923 183.969 18.6368C184.201 18.8081 184.345 19.0969 184.526 19.3354C185.89 21.1391 187.257 22.9394 188.614 24.7464C188.752 24.9412 188.839 25.1696 189.017 25.5021ZM182.478 25.8212C183.086 26.3989 183.828 27.1043 184.516 27.7592C185.128 26.8221 185.729 25.8985 186.387 24.8942C185.746 23.9705 185.024 22.9293 184.359 21.9754C183.741 23.2417 183.123 24.5113 182.478 25.8212Z" fill="#4A5364"/>
<path d="M37.9569 69.0781C38.0711 68.3089 38.1282 67.664 38.2659 67.0393C38.3935 66.4582 38.5044 65.8335 38.8066 65.3398C39.0586 64.93 39.5859 64.4295 39.9822 64.4396C40.3718 64.4463 40.795 65.0072 41.1175 65.3969C41.2888 65.6051 41.319 65.9578 41.3425 66.2533C41.5239 68.2921 41.2989 70.2872 40.607 72.2118C40.1972 73.3505 39.4549 73.5386 38.4372 72.9306C38.0811 72.719 37.6076 72.7224 37.2112 72.5611C35.3941 71.8155 33.7752 70.7743 32.4888 69.2695C32.0353 68.7388 31.6088 68.1477 32.0723 67.4289C32.5156 66.7437 33.2311 66.6866 33.8961 66.9654C34.9944 67.4256 36.0524 67.9865 37.1205 68.5205C37.3792 68.6515 37.6042 68.843 37.9569 69.0781Z" fill="#4A5364"/>
<path d="M302.437 48.6897C302.192 48.6897 301.877 48.7872 301.715 48.6696C301.379 48.4244 300.976 48.102 300.899 47.7459C300.855 47.5478 301.363 47.0675 301.695 46.9734C303.264 46.53 304.866 46.5468 306.471 46.8256C307.032 46.923 307.15 47.2421 306.811 47.5948C306.488 47.9273 306.038 48.2397 305.598 48.3304C304.56 48.542 303.495 48.6192 302.441 48.7502C302.441 48.7267 302.441 48.7099 302.437 48.6897Z" fill="#4A5364"/>
<path d="M301.769 44.32C301.403 44.0715 301.053 43.9606 300.969 43.7457C300.869 43.4904 300.875 43.0269 301.043 42.8589C302.108 41.7908 303.384 41.0956 304.923 41.0318C305.484 41.0082 305.675 41.4046 305.396 41.9151C305.282 42.1234 305.118 42.3383 304.923 42.4592C303.888 43.0907 302.837 43.6919 301.769 44.32Z" fill="#4A5364"/>
<path d="M260.284 202.819C260.308 201.963 261.406 200.747 262.048 200.643C262.488 200.572 262.75 200.824 262.608 201.18C262.316 201.916 261.937 202.628 261.51 203.296C261.413 203.451 260.919 203.498 260.714 203.394C260.472 203.273 260.355 202.923 260.284 202.819Z" fill="#4A5364"/>
<path d="M36.8828 13.1907C37.4572 12.7406 37.7628 12.3174 38.139 12.2469C38.6932 12.1427 39.0291 12.5626 39.0392 13.1403C39.0526 13.7382 38.7704 14.2285 38.1558 14.1379C37.783 14.0875 37.4672 13.6475 36.8828 13.1907Z" fill="#4A5364"/>
<path d="M16.1182 133.73C16.1383 133.008 16.8302 132.222 17.2568 132.293C17.4113 132.316 17.6397 132.595 17.6431 132.759C17.6565 133.596 17.1661 134.368 16.7093 134.237C16.4406 134.16 16.2391 133.841 16.1182 133.73Z" fill="#4A5364"/>
<path d="M164.337 248.31C164.904 248.871 165.361 249.291 165.768 249.751C165.838 249.832 165.761 250.184 165.66 250.241C165.472 250.349 165.193 250.406 164.985 250.352C164.35 250.194 164.112 249.549 164.337 248.31Z" fill="#4A5364"/>
<path d="M229.357 277.316C229.018 277.594 228.773 277.934 228.477 277.984C228.316 278.014 227.846 277.477 227.896 277.339C228.074 276.876 228.42 276.476 228.702 276.053C228.891 276.412 229.075 276.768 229.357 277.316Z" fill="#4A5364"/>
<path d="M84.2823 14.6378C83.8054 15.0073 83.54 15.3768 83.2814 15.37C83.0261 15.3633 82.5929 14.9838 82.5861 14.752C82.5761 14.5068 82.9455 14.0836 83.2008 14.04C83.4527 13.9996 83.7684 14.3322 84.2823 14.6378Z" fill="#4A5364"/>
<path d="M125.519 279.952C125.237 280.244 125.049 280.577 124.914 280.553C124.105 280.426 124.458 279.65 124.253 279.18C124.209 279.082 124.481 278.847 124.609 278.676C124.898 279.079 125.186 279.482 125.519 279.952Z" fill="#4A5364"/>
<path d="M9 280.595C9.1713 280.004 9.29893 279.473 9.49038 278.966C9.53405 278.849 9.79267 278.765 9.9539 278.761C10.0211 278.761 10.1353 279.003 10.1588 279.144C10.2864 279.92 9.90351 280.464 9 280.595Z" fill="#4A5364"/>
<path d="M252.822 24.1166C252.362 24.5163 252.059 24.8186 251.707 25.0402C251.656 25.0705 251.354 24.6909 251.166 24.5028C251.488 24.224 251.794 23.9218 252.143 23.6866C252.214 23.6396 252.463 23.8781 252.822 24.1166Z" fill="#4A5364"/>
<path d="M303.202 17.0856C302.879 17.3913 302.648 17.6096 302.413 17.8313C302.214 17.623 301.818 17.351 301.862 17.22C301.969 16.8875 302.275 16.6154 302.5 16.3198C302.701 16.5381 302.903 16.7598 303.202 17.0856Z" fill="#4A5364"/>
<path d="M300.257 274.46C300.583 274.83 300.888 275.139 300.872 275.159C300.6 275.461 300.304 275.754 299.965 275.975C299.908 276.012 299.444 275.592 299.468 275.549C299.652 275.209 299.911 274.914 300.257 274.46Z" fill="#4A5364"/>
<path d="M287.947 159.811C287.558 160.144 287.333 160.466 287.057 160.517C286.893 160.547 286.443 160.03 286.48 159.969C286.661 159.657 286.943 159.388 287.239 159.17C287.279 159.143 287.591 159.486 287.947 159.811Z" fill="#4A5364"/>
<path d="M50.0294 261.807C50.6608 261.656 51.0269 262.002 51.1882 262.569C51.2285 262.714 50.9866 262.939 50.8758 263.127C50.513 262.778 50.1469 262.425 49.7842 262.076C49.8681 261.985 49.9488 261.894 50.0294 261.807Z" fill="#4A5364"/>
<path d="M228.876 40.6476C228.563 40.1841 228.244 39.9154 228.281 39.7071C228.318 39.4787 228.664 39.2067 228.916 39.1462C229.05 39.116 229.42 39.4989 229.427 39.7071C229.437 39.9389 229.161 40.1874 228.876 40.6476Z" fill="#4A5364"/>
<path d="M144.136 48.2623C143.739 48.5915 143.494 48.84 143.202 49.0012C143.155 49.0281 142.735 48.5612 142.765 48.5176C142.963 48.2421 143.215 47.9936 143.497 47.8055C143.551 47.7652 143.806 48.0205 144.136 48.2623Z" fill="#4A5364"/>
<path d="M48.3213 115.161C48.5564 115.44 48.7982 115.615 48.7714 115.729C48.7311 115.92 48.5195 116.075 48.3784 116.243C48.2373 116.118 47.9854 115.997 47.9787 115.866C47.972 115.682 48.1466 115.494 48.3213 115.161Z" fill="#4A5364"/>
<path d="M41.3251 171.065C41.043 171.28 40.8448 171.522 40.744 171.485C40.5559 171.418 40.388 171.21 40.2973 171.021C40.2671 170.961 40.5324 170.652 40.6298 170.665C40.828 170.696 41.0027 170.87 41.3251 171.065Z" fill="#4A5364"/>
<path d="M115.106 114.441C115.072 115.838 114.592 118.061 113.195 119.986C110.9 123.147 106.981 123.828 103.79 121.575C100.824 119.479 99.0541 116.557 98.3051 113.023C97.6266 109.826 97.8516 106.699 99.4638 103.807C101.778 99.6518 106.363 98.8424 110.031 101.865C113.228 104.505 115.096 108.781 115.106 114.441ZM113.702 112.677C113.544 109.305 112.358 105.963 109.49 103.37C108.183 102.191 106.638 101.533 104.838 101.748C102.574 102.02 101.375 103.561 100.582 105.499C99.6385 107.81 99.6956 110.202 100.233 112.58C100.898 115.519 102.05 118.199 104.606 120.04C107.626 122.22 110.746 121.487 112.519 118.226C113.399 116.614 113.628 114.874 113.702 112.677Z" fill="#4A5364"/>
</g>
<defs>
<clipPath id="clip0_2546_13596">
<path d="M0 16C0 7.16345 7.16344 0 16 0H300C308.837 0 316 7.16344 316 16V286H0V16Z" fill="white"/>
</clipPath>
</defs>
</svg>
