<svg width="80" height="80" viewBox="0 0 80 80" fill="none" xmlns="http://www.w3.org/2000/svg">
<g clip-path="url(#clip0_2549_13878)">
<path d="M79.96 0.0400391H0.0400391V79.96H79.96V0.0400391Z" fill="#FFF6E2"/>
<path d="M80.0002 60.6249C80.0002 66.9268 80.0002 73.1801 80.0002 79.4294C79.6998 79.516 26.1663 79.5379 25.6821 79.4472C25.7396 79.2407 25.7663 79.0229 25.8586 78.8375C26.1097 78.3347 26.3396 77.8108 26.6667 77.359C27.6392 76.0157 28.8343 74.908 30.3363 74.1663C30.8699 73.9024 31.427 73.7105 32.0359 73.7502C32.1784 73.7591 32.2545 73.6991 32.329 73.589C35.1888 69.3624 38.9799 66.1446 43.3004 63.5107C43.6818 63.2783 43.9676 63.0046 44.2081 62.6378C44.7312 61.8419 45.3053 61.0783 45.8186 60.2767C46.1611 59.7423 46.638 59.4322 47.2242 59.2775C48.7894 58.8646 50.3554 58.4581 51.9278 58.0727C52.595 57.9091 53.2881 57.8225 53.9488 58.0735C54.6865 58.3529 55.4095 58.6767 56.1204 59.0184C56.3245 59.1164 56.4743 59.1399 56.6791 59.0605C57.5228 58.7326 58.4038 58.5747 59.3026 58.4913C61.879 58.2517 64.4191 58.5326 66.9429 59.029C69.1315 59.4597 71.2651 60.0856 73.3525 60.8686C73.6011 60.9617 73.8149 60.9666 74.0351 60.8208C74.3476 60.6144 74.6594 60.4071 74.9784 60.2103C75.4343 59.9294 75.895 59.6573 76.3541 59.382C76.5419 59.2694 76.7403 59.2727 76.9346 59.3537C77.95 59.7715 78.9638 60.1941 80.0002 60.6249ZM66.2109 70.5883C67.1032 70.5324 67.985 70.4644 68.8514 70.2595C69.7712 70.0425 70.6546 69.7348 71.4473 69.2069C71.8189 68.9591 72.1517 68.6693 72.3995 68.292C72.7987 67.6822 72.7995 67.0661 72.338 66.5041C72.1031 66.2191 71.8084 65.9705 71.5023 65.7592C70.9566 65.3819 70.3323 65.1649 69.6927 64.9989C68.1907 64.6094 66.6676 64.5681 65.1381 64.7738C64.1916 64.9009 63.2701 65.1414 62.4013 65.5527C61.8507 65.8126 61.3398 66.13 60.9268 66.5859C60.203 67.3859 60.1981 68.3154 60.9884 69.0498C61.8094 69.8134 62.7689 70.3267 63.9341 70.3356C64.0142 70.3364 64.0936 70.3535 64.1737 70.3624C64.8531 70.4385 65.5316 70.513 66.2109 70.5883ZM45.7206 71.8085C43.9628 71.9559 42.5976 72.6627 41.6575 74.1064C41.3677 74.5518 41.2195 75.04 41.2333 75.5898C41.2519 76.3307 41.575 76.8732 42.1879 77.2554C42.7077 77.5792 43.2891 77.6845 43.8883 77.6367C45.1603 77.5371 46.2316 76.9987 47.1085 76.0772C47.5506 75.6125 47.8712 75.074 48.025 74.4457C48.3052 73.3024 47.774 72.3421 46.6477 71.9907C46.3311 71.8919 45.9935 71.8603 45.7206 71.8085Z" fill="#4A5364"/>
<path d="M39.5283 39.9557C39.4368 40.1103 39.3737 40.2107 39.3178 40.3144C38.4709 41.8706 37.6563 43.4455 36.7689 44.9782C36.0919 46.1483 35.4069 47.324 34.4021 48.2673C33.339 49.2656 32.1576 50.0583 30.7301 50.4292C29.0184 50.8737 27.4047 50.6688 25.9189 49.6705C25.8743 49.6405 25.829 49.6106 25.7812 49.5887C25.761 49.579 25.731 49.5895 25.667 49.5927C25.667 49.7174 25.663 49.8454 25.6678 49.9725C25.7213 51.3449 25.6597 52.7052 25.3925 54.0599C25.2055 55.0088 24.6841 55.5708 23.7537 55.8266C22.2209 56.2477 20.7028 56.2704 19.2064 55.7141C18.7983 55.5627 18.3967 55.3384 18.0591 55.0655C17.0947 54.2874 17.1255 53.2291 18.1279 52.5069C18.4599 52.268 18.8599 52.1222 19.2323 51.9417C19.3514 51.8842 19.4833 51.8518 19.6647 51.7887C19.5433 51.3636 19.4234 50.9474 19.2923 50.4867C19.1813 50.549 19.1052 50.5895 19.0307 50.6332C18.5862 50.8907 18.102 50.9887 17.5975 50.9506C16.1619 50.8421 14.9312 50.2737 13.911 49.2591C13.6041 48.9539 13.3579 48.6033 13.2308 48.1798C13.0219 47.4843 13.2915 46.8713 13.9644 46.6025C14.2211 46.4997 14.5077 46.4689 14.7822 46.413C14.8842 46.392 14.9911 46.3928 15.1417 46.379C15.0867 46.1888 15.0381 46.026 14.9911 45.8624C14.2405 43.2738 14.3021 40.7216 15.3474 38.2189C15.7126 37.3444 16.2008 36.5436 16.9004 35.891C17.6162 35.2238 18.4461 34.8165 19.4469 34.8967C19.7878 34.9242 20.123 35.044 20.4574 35.1347C20.5829 35.1687 20.6995 35.2383 20.8226 35.2926C21.9845 33.8659 23.5221 33.0489 25.2071 32.4335C25.1399 32.2473 24.9691 32.2562 24.846 32.2117C23.025 31.5485 21.2663 30.7534 19.6566 29.6644C19.136 29.3121 18.6315 28.9243 18.1765 28.4935C17.8923 28.2247 17.6656 27.8676 17.4971 27.5097C17.1911 26.8579 17.3919 26.2652 17.9943 25.8677C18.4421 25.5729 18.953 25.4588 19.4736 25.3835C20.6428 25.215 21.8031 25.347 22.9618 25.5049C25.446 25.8426 27.837 26.5373 30.186 27.394C30.2823 27.4288 30.3835 27.4506 30.4888 27.4806C30.5908 26.1673 30.6718 26.0531 31.6936 25.8183C31.6264 25.6822 31.5657 25.5551 31.5009 25.4296C30.8499 24.156 30.458 22.8062 30.4281 21.3771C30.3763 18.8751 31.2726 16.7286 33.0054 14.9383C34.6588 13.2298 36.7041 12.2639 39.0271 11.8469C40.172 11.6412 41.3291 11.5861 42.4781 11.7084C44.8473 11.961 47.0132 12.7796 48.9249 14.2209C50.8099 15.6428 52.1775 17.4435 52.8819 19.7164C53.3775 21.3171 53.4277 22.9349 53.0325 24.5657C53.0074 24.6701 52.988 24.7754 52.9669 24.8798C52.9645 24.892 52.971 24.9057 52.9742 24.9187C52.9791 24.9308 52.9807 24.9478 52.9896 24.9551C53.9799 25.7422 54.141 26.7948 53.8779 27.9373C53.4681 29.7113 52.4325 31.0303 50.822 31.8805C50.1411 32.24 49.4091 32.3882 48.6391 32.2408C48.1039 32.138 47.6812 31.8392 47.3176 31.3947C46.4254 32.0125 45.4497 32.4028 44.3825 32.6287C44.4108 32.7129 44.4214 32.7777 44.4529 32.8295C45.6626 34.8343 46.6982 36.9217 47.4893 39.1282C48.1063 40.8496 48.6286 42.5969 48.8763 44.4131C49.0334 45.562 49.0342 46.7159 48.8318 47.8624C48.7589 48.2762 48.6269 48.6689 48.3905 49.0203C47.9954 49.6065 47.3873 49.8284 46.7031 49.6389C46.2683 49.5191 45.8837 49.298 45.5395 49.0154C45.2181 48.7523 44.9136 48.4673 44.6181 48.1741C44.044 47.6057 43.5752 46.9628 43.1768 46.2535C42.0522 44.2528 40.8902 42.273 39.7421 40.286C39.6862 40.1937 39.6255 40.1071 39.5283 39.9557ZM24.8986 51.7101C24.9245 51.647 24.9553 51.6 24.9618 51.5514C24.9772 51.4186 24.9869 51.2842 24.9901 51.1506C25.0347 49.5361 24.8768 47.9328 24.7359 46.328C24.7286 46.2479 24.7075 46.1685 24.7083 46.0884C24.7083 45.9499 24.7294 45.8066 24.893 45.7718C25.0614 45.7361 25.1383 45.8584 25.1804 45.992C25.229 46.145 25.2719 46.3021 25.2946 46.46C25.3974 47.1628 25.4946 47.8673 25.5885 48.5717C25.6104 48.7361 25.6403 48.8713 25.8031 48.9733C26.3391 49.3102 26.8808 49.6267 27.4945 49.8033C28.9649 50.2267 30.3633 49.983 31.7163 49.345C33.177 48.6559 34.2871 47.562 35.2223 46.273C35.4021 46.0244 35.5551 45.7572 35.743 45.4633C35.394 44.9062 35.075 44.3475 34.709 43.8204C33.8839 42.6325 32.8483 41.635 31.7835 40.6674C29.6119 38.695 27.2322 37.031 24.527 35.8715C23.7173 35.5242 22.8582 35.2926 22.025 34.9962C21.8242 34.925 21.6882 34.9825 21.5667 35.1298C21.4509 35.2707 21.3392 35.414 21.2485 35.5274C21.6639 36.0278 22.0452 36.4885 22.4371 36.9598C22.5027 36.946 22.5805 36.9258 22.6582 36.9128C23.9359 36.6982 25.0444 37.061 26.0071 37.9031C26.131 38.0116 26.331 38.1427 26.1958 38.3306C26.0622 38.5176 25.8857 38.3662 25.7342 38.2885C25.3302 38.0796 24.9375 37.8399 24.5173 37.6699C23.3456 37.197 22.2809 37.3994 21.3529 38.261C20.8023 38.7719 20.4194 39.3994 20.1271 40.086C19.4922 41.5783 19.2615 43.154 19.1951 44.758C19.1238 46.4713 19.3441 48.1588 19.6987 49.8324C19.757 50.1069 19.8744 50.2308 20.1473 50.3101C21.6282 50.7377 23.1019 51.1903 24.578 51.6332C24.68 51.6631 24.7836 51.6826 24.8986 51.7101ZM36.0928 44.8179C36.2004 44.6398 36.2855 44.5086 36.3616 44.3726C37.1348 42.9904 37.9049 41.6066 38.6814 40.2261C38.8652 39.899 39.066 39.5808 39.2676 39.2634C39.4676 38.9484 39.6611 38.9435 39.8846 39.2447C39.972 39.363 40.0457 39.4917 40.1202 39.6196C41.168 41.4172 42.2149 43.2147 43.2627 45.0123C43.355 45.171 43.4521 45.3264 43.5501 45.4884C44.9744 44.7094 46.4828 44.4746 48.0521 44.4698C48.0585 44.3936 48.0699 44.3418 48.0658 44.2916C48.0561 44.171 48.0431 44.0511 48.0229 43.9321C47.6253 41.537 46.9225 39.2326 45.963 37.0059C45.3727 35.6367 44.6869 34.3145 43.9064 33.0424C43.708 32.7186 43.6991 32.7242 43.3121 32.8141C43.2991 32.9242 43.2861 33.0424 43.27 33.1598C43.1663 33.9129 42.3825 34.5898 41.6627 34.5209C41.2101 34.4772 40.7575 34.4116 40.3121 34.3193C38.7761 34.0019 37.3365 33.4238 35.9624 32.6748C35.8353 32.6052 35.7065 32.5372 35.5932 32.4765C35.3025 32.7153 35.0418 32.9453 34.7657 33.155C32.9365 34.542 31.1042 35.925 29.2726 37.3096C29.1601 37.3946 29.0492 37.4828 28.8905 37.6067C31.8135 39.5152 34.3697 41.7095 36.0928 44.8179ZM35.113 32.1931C34.7519 31.9364 34.4118 31.7226 34.1033 31.4692C33.5236 30.9931 32.9746 30.4789 32.3892 30.0109C31.8046 29.5429 31.3074 29.0061 30.9463 28.3518C30.8273 28.1364 30.6653 28.0166 30.4435 27.9251C29.2524 27.4328 28.0403 27.0037 26.7949 26.6725C25.2889 26.2717 23.7634 25.9778 22.208 25.858C21.9448 25.8377 21.6793 25.8547 21.4258 25.8547C21.0266 27.0531 20.638 28.2199 20.2356 29.4287C20.2623 29.4457 20.3052 29.4781 20.3522 29.5032C20.787 29.7421 21.2161 29.9923 21.659 30.2158C23.1837 30.9858 24.7812 31.5728 26.4071 32.0862C26.68 32.1728 26.7593 32.2562 26.7172 32.4263C26.6662 32.6311 26.5229 32.6886 26.3213 32.6813C26.178 32.6756 26.0249 32.6918 25.8889 32.7356C24.761 33.1015 23.6962 33.606 22.6889 34.2303C22.5683 34.3056 22.459 34.3995 22.2647 34.5436C23.4233 34.823 24.4565 35.1914 25.4395 35.6804C26.4225 36.1695 27.3852 36.6974 28.3731 37.2164C30.59 35.5638 32.8256 33.8975 35.113 32.1931ZM43.4116 12.6995C43.4052 12.723 43.3979 12.7464 43.3914 12.7691C43.5201 12.829 43.6473 12.893 43.7784 12.9473C45.1193 13.5035 46.2602 14.3399 47.1703 15.4646C49.0836 17.8289 49.6739 20.5366 49.0593 23.4847C48.1873 27.6668 44.9274 30.772 41.151 31.5712C41.019 31.5995 40.8894 31.6433 40.6983 31.6975C40.8085 31.7631 40.8498 31.8028 40.8967 31.8125C41.9607 32.0254 43.0206 32.2586 44.1145 31.989C45.0448 31.7599 45.9379 31.4489 46.7573 30.9413C46.9816 30.8028 47.0934 30.6587 47.0456 30.3583C46.9622 29.8271 46.9946 29.2887 47.1444 28.7632C47.6278 27.0685 48.6844 25.8385 50.2188 25.0126C50.7063 24.7503 51.2415 24.6118 51.8074 24.641C51.9111 24.6466 52.0164 24.6288 52.1686 24.6183C52.2463 24.173 52.3516 23.7422 52.3929 23.3058C52.5872 21.2524 52.0989 19.3593 50.9694 17.6411C49.3298 15.1472 46.9978 13.625 44.1428 12.859C43.9023 12.795 43.6554 12.7521 43.4116 12.6995ZM21.9019 37.1646C21.5716 36.6999 21.2412 36.3015 20.8145 35.9906C19.8032 35.2545 18.7781 35.2343 17.7554 35.9517C17.4834 36.1428 17.234 36.3752 17.0048 36.6173C16.5482 37.099 16.2032 37.6626 15.9498 38.2739C15.1336 40.2439 14.9061 42.2852 15.2332 44.3912C15.2607 44.5685 15.3393 44.6714 15.5166 44.7361C16.4615 45.0803 17.4016 45.439 18.3441 45.7879C18.4226 45.8171 18.5117 45.8155 18.6315 45.8341C18.6315 45.46 18.6299 45.1264 18.6315 44.792C18.6404 43.456 18.8145 42.1443 19.204 40.8625C19.4801 39.9532 19.9157 39.1273 20.4801 38.3662C20.8453 37.8731 21.3157 37.499 21.9019 37.1646ZM24.9059 52.3805C23.246 51.8316 21.6266 51.2955 19.97 50.7474C19.9821 50.8607 19.9781 50.9417 20.0015 51.0138C20.1044 51.332 20.2121 51.6494 20.3222 51.9652C20.4364 52.2923 20.3044 52.4656 19.9684 52.4243C19.8906 52.4146 19.8056 52.3797 19.736 52.3984C19.187 52.549 18.6647 52.7595 18.2688 53.1886C17.906 53.5805 17.9158 54.0348 18.3174 54.3943C18.5336 54.587 18.7943 54.7416 19.0574 54.868C19.6574 55.1562 20.3084 55.2607 20.9651 55.3173C22.1092 55.4169 23.2104 55.2485 24.2598 54.7675C24.4047 54.7012 24.4978 54.6097 24.5513 54.4599C24.7853 53.7959 24.8622 53.1077 24.9059 52.3805ZM41.4287 33.7461C41.5089 33.7461 41.5898 33.7493 41.67 33.7453C42.0465 33.7283 42.4181 33.4619 42.5372 33.1266C42.636 32.8481 42.5518 32.7169 42.2619 32.7056C42.0878 32.6991 41.9121 32.7113 41.7396 32.6935C40.5769 32.5736 39.4992 32.1655 38.4538 31.6748C36.9405 30.9647 35.564 30.0336 34.2879 28.9567C33.7349 28.4903 33.1916 28.0101 32.7835 27.3988C32.5754 27.0871 32.3406 26.7932 32.1293 26.4838C32.0345 26.3454 31.9285 26.296 31.76 26.3122C31.2426 26.3616 30.99 26.666 31.1455 27.1608C31.2596 27.5259 31.4378 27.8798 31.6386 28.2069C32.0135 28.819 32.5689 29.2757 33.0831 29.764C34.9292 31.5178 37.1348 32.6457 39.5356 33.4173C40.1453 33.6141 40.7801 33.7355 41.4287 33.7461ZM15.4518 45.2908C15.4818 45.4268 15.4956 45.5305 15.5279 45.6284C15.6211 45.9078 15.7263 46.1839 15.8194 46.4632C15.9352 46.8114 15.8389 46.9402 15.4786 46.9377C15.2243 46.9361 14.9668 46.9183 14.715 46.9483C14.5061 46.9725 14.2907 47.0276 14.1021 47.1183C13.7547 47.2859 13.6138 47.6009 13.7652 47.9555C13.8883 48.2446 14.0583 48.5369 14.2778 48.7571C15.1328 49.617 16.2024 50.0462 17.3903 50.2033C18 50.2842 18.574 50.1336 19.1522 49.9085C19.1174 49.7288 19.0728 49.5466 19.0469 49.362C18.9303 48.5401 18.8186 47.7175 18.7076 46.894C18.6825 46.7086 18.6874 46.5313 18.4574 46.4406C17.4971 46.0641 16.5433 45.6705 15.5871 45.2851C15.5652 45.2754 15.5352 45.2859 15.4518 45.2908ZM53.1305 27.0547C53.1305 26.934 53.141 26.8126 53.1289 26.6928C53.0414 25.8523 52.4609 25.3154 51.6188 25.3454C51.2771 25.3576 50.9176 25.4191 50.6026 25.547C49.2156 26.1098 48.3314 27.168 47.7792 28.5292C47.6059 28.9551 47.5136 29.3996 47.516 29.8627C47.5201 30.6846 48.2213 31.4117 49.0342 31.44C49.4755 31.4554 49.8868 31.3502 50.2755 31.155C51.4658 30.5591 52.2925 29.6206 52.8325 28.4174C53.0261 27.985 53.1491 27.534 53.1305 27.0547ZM43.8521 46.094C44.172 46.5232 44.427 46.9175 44.7347 47.2648C45.1412 47.7248 45.5695 48.1693 46.027 48.5774C46.2488 48.7758 46.546 48.9077 46.831 49.0122C47.2561 49.1685 47.597 49.043 47.8334 48.6575C47.9638 48.4438 48.0618 48.2025 48.1306 47.9604C48.3549 47.1742 48.333 46.3726 48.2375 45.5693C48.1921 45.1863 48.1905 45.171 47.7962 45.1564C46.5598 45.111 45.3752 45.3491 44.2408 45.839C44.1234 45.8892 44.0238 45.979 43.8521 46.094ZM20.872 25.8426C20.0323 25.862 19.2631 25.9179 18.5489 26.2571C17.9271 26.5527 17.8113 26.9794 18.1894 27.5656C18.5716 28.1583 19.0882 28.6239 19.6671 29.0215C19.6833 29.0328 19.7165 29.0198 19.7594 29.0166C20.1222 27.9802 20.4874 26.9389 20.872 25.8426ZM33.5713 17.5034C33.5746 17.833 33.7543 18.0767 33.9738 18.0953C34.2288 18.1164 34.2523 17.9026 34.3333 17.7366C34.4677 17.4613 34.5843 17.1666 34.7721 16.931C35.2005 16.3942 35.7114 15.9383 36.33 15.6217C36.7697 15.3966 37.2174 15.1861 37.6603 14.9666C37.815 14.8905 37.934 14.7845 37.883 14.5901C37.8377 14.4161 37.7211 14.3067 37.5373 14.3124C37.3923 14.3165 37.2433 14.3343 37.1057 14.3772C36.0029 14.7237 35.0895 15.3666 34.3333 16.2265C34.0798 16.5148 33.8855 16.8581 33.6798 17.186C33.6134 17.2945 33.594 17.4338 33.5713 17.5034ZM39.0741 13.6274C38.8061 13.6282 38.5891 13.8363 38.5802 14.1011C38.5713 14.391 38.7818 14.6015 39.0789 14.5982C39.3615 14.595 39.5907 14.365 39.5826 14.0922C39.5761 13.8485 39.3332 13.6266 39.0741 13.6274Z" fill="#4A5364"/>
<path d="M49.7062 5.4624C49.6212 5.72313 49.4746 5.80572 49.3013 5.83972C49.2544 5.84863 49.1645 5.79762 49.1483 5.7547C49.1321 5.71098 49.171 5.60653 49.2098 5.59195C49.3515 5.53851 49.5038 5.5126 49.7062 5.4624Z" fill="#4A5364"/>
<path d="M75.7993 17.9055C75.9596 17.8084 76.12 17.7112 76.303 17.6011C76.3256 17.9792 76.2236 18.0472 75.7993 17.9055Z" fill="#4A5364"/>
<path d="M1.49125 70.9663C1.58599 71.1104 1.66696 71.1817 1.68153 71.2651C1.70501 71.4027 1.61028 71.4902 1.47425 71.4853C1.35279 71.4805 1.27911 71.3857 1.30421 71.2699C1.32202 71.1849 1.39733 71.1129 1.49125 70.9663Z" fill="#4A5364"/>
<path d="M55.6109 12.1105C55.5048 12.1939 55.4076 12.2951 55.2886 12.351C55.2384 12.3744 55.1429 12.3016 55.0684 12.2724C55.1056 12.2125 55.1307 12.1218 55.1841 12.0991C55.2983 12.0498 55.4279 12.036 55.5509 12.0068C55.5704 12.0408 55.5906 12.0757 55.6109 12.1105Z" fill="#4A5364"/>
<path d="M69.8833 11.383C70.0396 11.2859 70.195 11.1895 70.378 11.0762C70.3829 11.4608 70.3181 11.5061 69.8833 11.383Z" fill="#4A5364"/>
<path d="M0.153019 29.0576C0.33844 29.2268 0.358683 29.371 0.233989 29.5062C0.20403 29.5394 0.0582835 29.5305 0.038041 29.4973C-0.0639815 29.3297 0.0615223 29.2147 0.153019 29.0576Z" fill="#4A5364"/>
<path d="M78.5464 51.6517C78.429 51.7335 78.3594 51.8072 78.2768 51.8266C78.2419 51.8355 78.1796 51.7319 78.1294 51.6793C78.1966 51.6161 78.2557 51.5376 78.3351 51.4979C78.3626 51.4849 78.4387 51.5708 78.5464 51.6517Z" fill="#4A5364"/>
<path d="M36.4621 6.46533C36.5374 6.60946 36.6135 6.69529 36.6175 6.78435C36.6208 6.84427 36.5212 6.90905 36.4677 6.9714C36.4167 6.91067 36.3236 6.84832 36.3252 6.78921C36.3285 6.69853 36.3965 6.61027 36.4621 6.46533Z" fill="#4A5364"/>
<path d="M64.9627 3.83243C64.8809 3.72878 64.791 3.65348 64.804 3.62433C64.842 3.5385 64.9214 3.4713 64.9845 3.396C65.0445 3.45187 65.1611 3.51988 65.1522 3.56118C65.1343 3.64619 65.0493 3.71745 64.9627 3.83243Z" fill="#4A5364"/>
<path d="M6.16657 35.6207C6.18114 35.7276 6.21596 35.8377 6.20139 35.9405C6.19491 35.9899 6.09613 36.0272 6.03864 36.0693C5.99815 36.0118 5.91637 35.9454 5.92609 35.8984C5.94795 35.7956 6.01596 35.7017 6.06536 35.6045C6.09936 35.6094 6.13256 35.615 6.16657 35.6207Z" fill="#4A5364"/>
<path d="M15.33 74.6816C15.4879 74.8177 15.4936 74.9472 15.3519 75.0581C15.313 75.0881 15.1673 75.063 15.1487 75.025C15.0596 74.842 15.2086 74.7756 15.33 74.6816Z" fill="#4A5364"/>
<path d="M70.8693 10.3616C70.7884 10.2523 70.7106 10.1956 70.7114 10.1406C70.7147 10.0037 70.8094 9.91225 70.9479 9.93249C70.9964 9.93978 71.0766 10.0564 71.0637 10.0985C71.0377 10.1819 70.9568 10.2499 70.8693 10.3616Z" fill="#4A5364"/>
<path d="M21.5466 15.5269C21.5256 15.6152 21.5296 15.7253 21.4762 15.7836C21.43 15.8346 21.3199 15.8273 21.2381 15.846C21.2406 15.7634 21.2195 15.6686 21.2535 15.6022C21.2835 15.5439 21.3766 15.518 21.4414 15.4775C21.4762 15.4945 21.5118 15.5107 21.5466 15.5269Z" fill="#4A5364"/>
<path d="M15.5706 8.96338C15.5965 9.02896 15.6329 9.07917 15.6208 9.09536C15.5576 9.18281 15.4872 9.26621 15.407 9.33746C15.3924 9.35042 15.2945 9.31236 15.2815 9.27916C15.224 9.13747 15.3188 9.06054 15.4289 9.00143C15.4613 8.98443 15.5009 8.982 15.5706 8.96338Z" fill="#4A5364"/>
<path d="M61.3931 1.65479C61.3389 1.7892 61.3324 1.87259 61.2895 1.89932C61.2093 1.95033 61.1097 1.97543 61.015 1.99486C60.9996 1.9981 60.9365 1.89446 60.947 1.8815C61.0004 1.81511 61.0644 1.75195 61.1364 1.70742C61.1858 1.67827 61.2555 1.68151 61.3931 1.65479Z" fill="#4A5364"/>
<path d="M59.4029 45.9868C59.394 46.2573 59.3641 46.433 59.1487 46.5682C59.0442 46.2896 59.2086 46.1739 59.4029 45.9868Z" fill="#4A5364"/>
<path d="M64.9863 52.9901C65.073 52.8444 65.1604 52.6995 65.2471 52.5537C65.3232 52.7926 65.2981 52.9748 65.0884 53.0646C65.0543 53.0403 65.0203 53.0152 64.9863 52.9901Z" fill="#4A5364"/>
<path d="M30.5772 0.00566789C30.6168 0.0963545 30.6784 0.185422 30.6865 0.278537C30.6905 0.328739 30.6014 0.387038 30.5545 0.441288C30.5043 0.395944 30.412 0.348172 30.4136 0.305258C30.4185 0.202425 30.4678 0.102022 30.5002 0C30.5253 0.0016194 30.5512 0.00404848 30.5772 0.00566789Z" fill="#4A5364"/>
<path d="M76.6744 0.322754C76.6889 0.389959 76.6954 0.402914 76.693 0.41506C76.6703 0.55028 76.6363 0.682261 76.4582 0.65878C76.4258 0.654732 76.3756 0.57781 76.3796 0.540564C76.3999 0.381862 76.5189 0.344616 76.6744 0.322754Z" fill="#4A5364"/>
<path d="M72.4153 44.8979C72.4736 45.0105 72.5432 45.0834 72.5279 45.1279C72.5036 45.1984 72.4226 45.2494 72.3659 45.3093C72.3181 45.2453 72.2315 45.1789 72.2339 45.1174C72.2364 45.0542 72.3287 44.9959 72.4153 44.8979Z" fill="#4A5364"/>
<path d="M32.0644 60.7132C32.0401 60.765 32.0361 60.799 32.0183 60.8087C31.9316 60.8565 31.8426 60.8986 31.7511 60.9359C31.7454 60.9383 31.6952 60.8476 31.6968 60.8468C31.7867 60.7861 31.8782 60.7286 31.9737 60.6776C31.9875 60.6703 32.0199 60.6954 32.0644 60.7132Z" fill="#4A5364"/>
<path d="M16.2399 2.63135C16.2569 2.73418 16.2892 2.80139 16.2706 2.84997C16.2471 2.91312 16.188 2.96656 16.1346 3.01353C16.1233 3.02324 16.0431 2.98843 16.0423 2.97142C16.0382 2.90017 16.0366 2.82082 16.065 2.75928C16.0868 2.71232 16.1573 2.68884 16.2399 2.63135Z" fill="#4A5364"/>
<path d="M62.2266 34.0373C62.3764 33.8988 62.4687 33.8138 62.5723 33.7183C62.6217 34.0243 62.6144 34.0324 62.2266 34.0373Z" fill="#4A5364"/>
<path d="M68.1436 40.5726C68.2998 40.4325 68.3897 40.3507 68.4966 40.2544C68.533 40.5443 68.533 40.5443 68.1436 40.5726Z" fill="#4A5364"/>
<path d="M2.4183 7.05908C2.4847 7.15301 2.5349 7.21859 2.57377 7.29066C2.577 7.29713 2.47984 7.37649 2.47012 7.3692C2.40859 7.32305 2.35272 7.26475 2.31142 7.20078C2.30252 7.18782 2.36324 7.13034 2.4183 7.05908Z" fill="#4A5364"/>
<path d="M8.90967 53.3629C9.0125 53.3273 9.11614 53.2925 9.21897 53.2568C9.23193 53.2933 9.24488 53.3297 9.25784 53.367C9.1542 53.405 9.05137 53.4431 8.94772 53.4811C8.93558 53.4423 8.92262 53.4026 8.90967 53.3629Z" fill="#4A5364"/>
<path d="M16.9557 29.8677C16.9152 29.7843 16.8698 29.7325 16.8812 29.7041C16.9006 29.6555 16.9565 29.6215 16.9961 29.5811C17.0229 29.6183 17.0755 29.6604 17.0698 29.692C17.0609 29.7414 17.0131 29.7843 16.9557 29.8677Z" fill="#4A5364"/>
<path d="M3.12061 11.4232C3.16757 11.3681 3.19834 11.3325 3.22911 11.2969C3.26797 11.3366 3.32222 11.3714 3.33842 11.4191C3.3457 11.441 3.28336 11.509 3.24449 11.5171C3.21534 11.5236 3.17405 11.4661 3.12061 11.4232Z" fill="#4A5364"/>
<path d="M14.811 59.9579C14.9195 59.8373 15.0013 59.7652 15.1689 59.8324C15.0871 59.9887 14.9851 60.0081 14.811 59.9579Z" fill="#4A5364"/>
<path d="M9.17885 17.7661C9.22096 17.8479 9.2663 17.8957 9.25658 17.9248C9.24039 17.9734 9.18857 18.0098 9.15213 18.0511C9.12217 18.0155 9.06549 17.9766 9.06954 17.9459C9.07602 17.8965 9.12298 17.8519 9.17885 17.7661Z" fill="#4A5364"/>
<path d="M39.7832 53.2458C39.7832 53.177 39.7832 53.1074 39.7832 53.0385C39.8083 53.0369 39.8326 53.0353 39.8577 53.0337C39.8609 53.1058 39.865 53.1786 39.8682 53.2507C39.8399 53.2499 39.8115 53.2483 39.7832 53.2458Z" fill="#4A5364"/>
<path d="M54.239 39.2197C54.2836 39.2821 54.3111 39.3217 54.3394 39.3606C54.3111 39.3784 54.2771 39.4157 54.2568 39.4092C54.2228 39.3979 54.1864 39.3639 54.1742 39.3307C54.167 39.3112 54.205 39.2748 54.239 39.2197Z" fill="#4A5364"/>
<path d="M2.47511 43.078C2.43867 43.027 2.40061 42.9938 2.3909 42.9541C2.38604 42.9363 2.44758 42.878 2.45972 42.8837C2.49859 42.8999 2.53745 42.9323 2.55608 42.9695C2.56336 42.9841 2.51559 43.0254 2.47511 43.078Z" fill="#4A5364"/>
<path d="M8.48143 49.4666C8.45147 49.5087 8.43123 49.5371 8.41098 49.5662C8.38426 49.5452 8.33892 49.5265 8.33487 49.5022C8.33082 49.4755 8.35835 49.4269 8.38345 49.4164C8.40289 49.4075 8.44013 49.4439 8.48143 49.4666Z" fill="#4A5364"/>
<path d="M18.3539 65.8293C18.3304 65.8488 18.3037 65.8755 18.3004 65.8731C18.2745 65.8528 18.2527 65.8261 18.23 65.8018C18.251 65.7832 18.2729 65.7637 18.2939 65.7451C18.3134 65.7735 18.3336 65.8018 18.3539 65.8293Z" fill="#4A5364"/>
<path d="M28.9705 48.6455C28.7292 48.6196 28.4102 48.5864 28.0904 48.5499C27.7252 48.5086 27.496 48.307 27.4394 47.9451C27.2782 46.9127 27.1187 45.8795 26.9794 44.8439C26.9268 44.4528 27.0871 44.3613 27.4782 44.4358C27.8304 44.503 28.1964 44.5549 28.5527 44.5395C30.1891 44.4698 31.8134 44.3055 33.3753 43.7622C33.6789 43.6569 33.823 43.7168 33.9388 44.0286C34.1016 44.4674 34.2514 44.9136 34.3712 45.3654C34.4068 45.5006 34.3672 45.6974 34.287 45.8148C34.0522 46.1556 33.8158 46.5087 33.5162 46.7888C32.2636 47.9572 30.7713 48.5775 28.9705 48.6455ZM27.5519 45.0925C27.7325 46.0018 27.9009 46.8536 28.0693 47.7054C28.1049 47.8844 28.228 47.9467 28.3916 47.9402C28.9519 47.9167 29.5195 47.9378 30.0701 47.852C31.4377 47.639 32.5907 46.9969 33.5502 45.9961C33.7947 45.7411 33.917 45.4974 33.7728 45.1403C33.6611 44.8642 33.6085 44.5646 33.5307 44.2779C31.5818 44.9994 29.6183 45.2245 27.5519 45.0925Z" fill="#4A5364"/>
<path d="M52.0006 27.963C51.9917 28.6658 51.6548 29.2966 51.1715 29.8577C50.7885 30.3023 50.3286 30.6423 49.7431 30.7832C48.9683 30.9694 48.4063 30.5411 48.4703 29.75C48.5731 28.4715 49.2557 27.5566 50.365 26.9469C50.4792 26.8837 50.6168 26.8513 50.7472 26.8311C51.5148 26.7096 51.9917 27.1185 52.0006 27.963ZM51.3026 27.9768C51.3132 27.5225 51.1051 27.3606 50.7132 27.4861C50.2533 27.6335 49.8881 27.925 49.578 28.2869C49.2678 28.6488 49.0581 29.0667 48.9423 29.5282C48.8298 29.9784 49.1091 30.244 49.5464 30.1087C49.6484 30.0772 49.7496 30.0375 49.8411 29.984C50.5148 29.5889 50.9796 29.0181 51.2411 28.2837C51.2816 28.1711 51.2897 28.0472 51.3026 27.9768Z" fill="#4A5364"/>
</g>
<defs>
<clipPath id="clip0_2549_13878">
<path d="M0 16C0 7.16344 7.16344 0 16 0H64C72.8366 0 80 7.16344 80 16V64C80 72.8366 72.8366 80 64 80H16C7.16344 80 0 72.8366 0 64V16Z" fill="white"/>
</clipPath>
</defs>
</svg>
