<svg width="316" height="286" viewBox="0 0 316 286" fill="none" xmlns="http://www.w3.org/2000/svg">
<g clip-path="url(#clip0_2546_13702)">
<path d="M315.842 0.143066H0.158203V285.857H315.842V0.143066Z" fill="#FFF6E2"/>
<path d="M315.781 216.145C315.781 239.445 315.781 262.565 315.781 285.67C314.67 285.99 116.743 286.071 114.953 285.736C115.166 284.972 115.264 284.167 115.606 283.481C116.534 281.622 117.384 279.686 118.593 278.015C122.189 273.049 126.608 268.953 132.161 266.211C134.134 265.235 136.193 264.526 138.444 264.672C138.971 264.705 139.253 264.484 139.528 264.077C150.102 248.45 164.118 236.553 180.092 226.814C181.503 225.955 182.559 224.943 183.448 223.587C185.382 220.644 187.505 217.821 189.403 214.857C190.669 212.882 192.432 211.735 194.6 211.163C200.387 209.637 206.176 208.134 211.99 206.709C214.457 206.104 217.019 205.784 219.462 206.712C222.19 207.745 224.863 208.942 227.491 210.205C228.246 210.568 228.8 210.654 229.557 210.361C232.676 209.149 235.933 208.565 239.256 208.256C248.782 207.37 258.174 208.409 267.505 210.244C275.597 211.837 283.485 214.151 291.203 217.046C292.122 217.39 292.912 217.408 293.726 216.869C294.882 216.106 296.035 215.339 297.214 214.612C298.899 213.573 300.603 212.567 302.3 211.549C302.995 211.133 303.728 211.145 304.447 211.445C308.201 212.989 311.949 214.552 315.781 216.145ZM264.798 252.982C268.098 252.775 271.358 252.524 274.561 251.767C277.962 250.964 281.228 249.827 284.159 247.875C285.533 246.959 286.763 245.887 287.679 244.492C289.155 242.238 289.158 239.959 287.452 237.882C286.583 236.828 285.494 235.909 284.362 235.128C282.344 233.733 280.036 232.93 277.671 232.317C272.118 230.877 266.487 230.724 260.832 231.484C257.332 231.954 253.925 232.844 250.713 234.364C248.678 235.325 246.789 236.499 245.262 238.184C242.585 241.142 242.567 244.579 245.489 247.294C248.525 250.117 252.072 252.015 256.38 252.048C256.677 252.051 256.97 252.114 257.266 252.147C259.778 252.428 262.287 252.704 264.798 252.982ZM189.041 257.493C182.541 258.038 177.494 260.652 174.018 265.989C172.947 267.636 172.399 269.441 172.45 271.474C172.518 274.213 173.713 276.219 175.979 277.632C177.901 278.829 180.051 279.219 182.266 279.042C186.969 278.674 190.93 276.683 194.172 273.276C195.806 271.558 196.992 269.567 197.561 267.244C198.596 263.017 196.633 259.466 192.468 258.167C191.298 257.802 190.049 257.685 189.041 257.493Z" fill="#4A5364"/>
<path d="M166.146 139.726C165.807 140.298 165.574 140.669 165.367 141.052C162.236 146.806 159.224 152.629 155.943 158.296C153.44 162.622 150.908 166.969 147.193 170.456C143.262 174.147 138.894 177.078 133.616 178.449C127.288 180.093 121.321 179.335 115.828 175.644C115.663 175.533 115.496 175.423 115.319 175.342C115.244 175.306 115.133 175.345 114.897 175.357C114.897 175.818 114.882 176.291 114.9 176.761C115.097 181.835 114.87 186.864 113.882 191.873C113.19 195.381 111.263 197.459 107.823 198.405C102.156 199.962 96.5426 200.046 91.0103 197.989C89.5015 197.429 88.0166 196.6 86.7683 195.591C83.2028 192.714 83.3166 188.801 87.0227 186.131C88.2501 185.248 89.729 184.709 91.1061 184.041C91.5462 183.829 92.0341 183.709 92.7047 183.476C92.2557 181.904 91.8126 180.365 91.3276 178.662C90.9175 178.892 90.6361 179.042 90.3607 179.204C88.7171 180.156 86.9269 180.518 85.0619 180.377C79.7541 179.976 75.2037 177.874 71.4317 174.123C70.2971 172.995 69.387 171.699 68.917 170.133C68.1446 167.561 69.1415 165.295 71.6293 164.301C72.5783 163.921 73.638 163.807 74.6529 163.601C75.0301 163.523 75.4252 163.526 75.9821 163.475C75.7785 162.771 75.5989 162.17 75.4252 161.565C72.6501 151.994 72.8776 142.558 76.7425 133.305C78.0926 130.071 79.8978 127.111 82.4843 124.698C85.1307 122.231 88.1992 120.725 91.8994 121.022C93.1598 121.123 94.3991 121.566 95.6355 121.902C96.0995 122.027 96.5306 122.285 96.9857 122.486C101.282 117.211 106.967 114.19 113.196 111.915C112.948 111.226 112.316 111.259 111.861 111.095C105.128 108.643 98.6262 105.703 92.6748 101.676C90.7499 100.374 88.8848 98.9403 87.2024 97.3476C86.1516 96.3537 85.3133 95.0335 84.6907 93.7103C83.559 91.3004 84.3015 89.109 86.5288 87.6391C88.1843 86.5494 90.0733 86.1273 91.9982 85.8489C96.3211 85.2262 100.611 85.7142 104.895 86.298C114.08 87.5463 122.92 90.1149 131.605 93.2822C131.961 93.4109 132.335 93.4918 132.724 93.6025C133.101 88.7468 133.401 88.3247 137.179 87.4565C136.93 86.9536 136.706 86.4836 136.466 86.0196C134.059 81.3105 132.61 76.3201 132.5 71.0362C132.308 61.7858 135.622 53.8495 142.028 47.2305C148.142 40.9139 155.704 37.3424 164.292 35.8007C168.526 35.0403 172.803 34.8367 177.051 35.2888C185.811 36.2228 193.819 39.2494 200.887 44.5781C207.856 49.835 212.913 56.493 215.517 64.8962C217.349 70.8147 217.535 76.7961 216.074 82.8253C215.981 83.2115 215.909 83.6007 215.832 83.9869C215.823 84.0318 215.847 84.0827 215.859 84.1306C215.876 84.1755 215.882 84.2383 215.915 84.2653C219.577 87.1751 220.172 91.0669 219.199 95.291C217.685 101.85 213.856 106.727 207.901 109.87C205.384 111.199 202.677 111.747 199.83 111.202C197.852 110.822 196.289 109.717 194.945 108.074C191.646 110.358 188.038 111.801 184.093 112.636C184.197 112.948 184.236 113.187 184.353 113.379C188.826 120.791 192.655 128.509 195.579 136.667C197.861 143.031 199.791 149.491 200.708 156.206C201.288 160.454 201.291 164.72 200.543 168.959C200.273 170.489 199.785 171.941 198.911 173.24C197.45 175.408 195.202 176.228 192.672 175.527C191.065 175.084 189.643 174.267 188.371 173.222C187.182 172.249 186.056 171.196 184.964 170.112C182.841 168.01 181.108 165.633 179.635 163.011C175.477 155.614 171.181 148.294 166.936 140.947C166.729 140.606 166.505 140.286 166.146 139.726ZM112.056 183.185C112.152 182.952 112.265 182.778 112.289 182.598C112.346 182.108 112.382 181.611 112.394 181.117C112.559 175.147 111.975 169.22 111.454 163.286C111.427 162.99 111.349 162.697 111.352 162.4C111.352 161.888 111.43 161.358 112.035 161.23C112.658 161.098 112.942 161.55 113.098 162.044C113.277 162.61 113.436 163.19 113.52 163.774C113.9 166.373 114.259 168.977 114.606 171.582C114.687 172.189 114.798 172.689 115.4 173.067C117.382 174.312 119.384 175.483 121.654 176.135C127.09 177.701 132.26 176.8 137.263 174.441C142.663 171.893 146.767 167.849 150.225 163.083C150.89 162.164 151.456 161.176 152.15 160.089C150.86 158.029 149.68 155.964 148.327 154.015C145.277 149.623 141.448 145.935 137.511 142.358C129.482 135.065 120.684 128.913 110.682 124.626C107.688 123.342 104.512 122.486 101.431 121.39C100.689 121.126 100.186 121.339 99.7369 121.884C99.3088 122.405 98.8956 122.935 98.5604 123.354C100.096 125.204 101.506 126.907 102.955 128.649C103.198 128.599 103.485 128.524 103.772 128.476C108.496 127.683 112.595 129.024 116.154 132.137C116.612 132.538 117.352 133.023 116.852 133.718C116.358 134.409 115.705 133.849 115.145 133.562C113.651 132.79 112.2 131.904 110.646 131.275C106.314 129.527 102.377 130.275 98.9465 133.46C96.9108 135.349 95.4948 137.669 94.4141 140.208C92.0671 145.725 91.2139 151.551 90.9684 157.482C90.7049 163.816 91.5192 170.055 92.8305 176.243C93.046 177.258 93.4801 177.716 94.489 178.009C99.9644 179.59 105.413 181.263 110.87 182.901C111.248 183.012 111.631 183.083 112.056 183.185ZM153.443 157.703C153.842 157.044 154.156 156.56 154.437 156.057C157.296 150.946 160.143 145.83 163.014 140.726C163.694 139.517 164.436 138.34 165.182 137.166C165.921 136.002 166.637 135.984 167.463 137.098C167.786 137.535 168.058 138.011 168.334 138.484C172.208 145.13 176.079 151.776 179.952 158.422C180.294 159.008 180.653 159.583 181.015 160.182C186.281 157.302 191.858 156.434 197.66 156.416C197.684 156.134 197.726 155.943 197.711 155.757C197.675 155.311 197.627 154.868 197.552 154.428C196.082 145.573 193.484 137.053 189.936 128.82C187.754 123.758 185.218 118.869 182.332 114.166C181.599 112.969 181.566 112.99 180.135 113.322C180.087 113.729 180.039 114.166 179.979 114.6C179.596 117.384 176.698 119.887 174.037 119.633C172.363 119.471 170.69 119.228 169.043 118.887C163.364 117.714 158.042 115.576 152.961 112.807C152.491 112.549 152.015 112.298 151.596 112.074C150.522 112.957 149.558 113.807 148.537 114.582C141.774 119.71 134.999 124.824 128.228 129.943C127.812 130.257 127.401 130.583 126.815 131.041C137.622 138.098 147.073 146.21 153.443 157.703ZM149.821 111.026C148.486 110.077 147.229 109.286 146.088 108.349C143.944 106.589 141.915 104.688 139.75 102.958C137.589 101.227 135.751 99.2426 134.416 96.8237C133.976 96.0274 133.377 95.5844 132.557 95.2461C128.153 93.4259 123.671 91.8393 119.067 90.6149C113.499 89.133 107.859 88.0463 102.108 87.6032C101.135 87.5284 100.153 87.5912 99.216 87.5912C97.7401 92.0219 96.3031 96.3358 94.8153 100.805C94.9141 100.868 95.0727 100.988 95.2464 101.081C96.854 101.964 98.4406 102.889 100.078 103.715C105.715 106.562 111.622 108.733 117.633 110.631C118.642 110.951 118.935 111.259 118.78 111.888C118.591 112.645 118.061 112.858 117.316 112.831C116.786 112.81 116.22 112.87 115.717 113.031C111.547 114.385 107.61 116.25 103.886 118.558C103.44 118.836 103.036 119.183 102.317 119.716C106.601 120.749 110.421 122.111 114.056 123.919C117.69 125.728 121.249 127.68 124.902 129.598C133.098 123.488 141.364 117.327 149.821 111.026ZM180.503 38.953C180.479 39.0398 180.452 39.1266 180.428 39.2105C180.904 39.432 181.374 39.6685 181.859 39.8691C186.817 41.9257 191.035 45.0182 194.4 49.1764C201.474 57.9179 203.656 67.9288 201.384 78.8288C198.16 94.2911 186.107 105.772 172.145 108.727C171.657 108.831 171.178 108.993 170.471 109.194C170.879 109.436 171.031 109.583 171.205 109.619C175.139 110.406 179.057 111.268 183.102 110.271C186.541 109.424 189.843 108.275 192.873 106.398C193.702 105.886 194.115 105.353 193.939 104.242C193.63 102.278 193.75 100.287 194.304 98.3445C196.091 92.0788 199.998 87.5314 205.671 84.4778C207.473 83.5079 209.452 82.996 211.545 83.1037C211.928 83.1247 212.317 83.0588 212.88 83.0199C213.167 81.3734 213.556 79.7807 213.709 78.1671C214.428 70.5752 212.622 63.576 208.446 57.2234C202.384 48.0029 193.762 42.3748 183.206 39.5428C182.317 39.3063 181.404 39.1476 180.503 38.953ZM100.976 129.407C99.7548 127.689 98.5334 126.216 96.9557 125.066C93.2166 122.345 89.4266 122.27 85.6456 124.922C84.6398 125.629 83.7177 126.488 82.8705 127.383C81.1821 129.164 79.9068 131.248 78.9697 133.508C75.9521 140.792 75.1109 148.339 76.3203 156.125C76.4221 156.781 76.7125 157.161 77.3681 157.401C80.8617 158.673 84.3374 159.999 87.822 161.29C88.1124 161.397 88.4417 161.391 88.8848 161.46C88.8848 160.077 88.8788 158.844 88.8848 157.607C88.9177 152.668 89.5614 147.818 91.0013 143.079C92.0222 139.717 93.6328 136.664 95.7193 133.849C97.0695 132.026 98.8088 130.643 100.976 129.407ZM112.083 185.664C105.946 183.634 99.9584 181.652 93.8333 179.626C93.8782 180.045 93.8633 180.344 93.9501 180.611C94.3303 181.787 94.7284 182.961 95.1356 184.128C95.5577 185.338 95.0697 185.978 93.8274 185.826C93.54 185.79 93.2256 185.661 92.9682 185.73C90.9385 186.287 89.0075 187.065 87.5436 188.652C86.2025 190.101 86.2384 191.78 87.7232 193.109C88.5226 193.822 89.4865 194.394 90.4595 194.861C92.6778 195.926 95.0847 196.313 97.5126 196.522C101.743 196.89 105.814 196.268 109.694 194.489C110.23 194.244 110.574 193.906 110.772 193.352C111.637 190.897 111.921 188.352 112.083 185.664ZM173.172 116.768C173.468 116.768 173.767 116.78 174.064 116.765C175.456 116.702 176.83 115.717 177.27 114.477C177.635 113.448 177.324 112.963 176.252 112.921C175.609 112.897 174.959 112.942 174.321 112.876C170.022 112.433 166.038 110.924 162.173 109.11C156.578 106.484 151.489 103.042 146.77 99.06C144.726 97.3356 142.717 95.5604 141.208 93.3002C140.439 92.1476 139.571 91.0609 138.789 89.9173C138.439 89.4054 138.047 89.2228 137.424 89.2827C135.511 89.4653 134.577 90.5909 135.152 92.42C135.574 93.7702 136.233 95.0784 136.975 96.2879C138.361 98.5511 140.415 100.24 142.316 102.045C149.141 108.529 157.296 112.699 166.172 115.552C168.427 116.28 170.774 116.729 173.172 116.768ZM77.1286 159.451C77.2394 159.954 77.2903 160.338 77.41 160.7C77.7543 161.733 78.1435 162.753 78.4878 163.786C78.9159 165.074 78.5596 165.55 77.2274 165.541C76.2874 165.535 75.3354 165.469 74.4044 165.579C73.632 165.669 72.8357 165.873 72.1382 166.208C70.8539 166.828 70.333 167.992 70.8928 169.304C71.3478 170.372 71.9765 171.453 72.7878 172.267C75.9491 175.447 79.9038 177.033 84.2955 177.614C86.5497 177.913 88.6722 177.357 90.8097 176.524C90.681 175.86 90.5163 175.186 90.4206 174.504C89.9895 171.465 89.5763 168.423 89.1662 165.379C89.0734 164.693 89.0914 164.038 88.2412 163.702C84.6907 162.31 81.1641 160.855 77.6286 159.43C77.5477 159.395 77.437 159.433 77.1286 159.451ZM216.436 92.0279C216.436 91.5818 216.475 91.1328 216.43 90.6897C216.107 87.5823 213.961 85.5975 210.847 85.7082C209.584 85.7531 208.255 85.9806 207.09 86.4536C201.962 88.5343 198.693 92.447 196.651 97.4793C196.01 99.054 195.669 100.698 195.678 102.41C195.693 105.449 198.286 108.137 201.291 108.242C202.923 108.298 204.444 107.909 205.881 107.188C210.281 104.984 213.338 101.515 215.335 97.0662C216.05 95.4676 216.505 93.8001 216.436 92.0279ZM182.132 162.421C183.314 164.008 184.257 165.466 185.395 166.75C186.898 168.45 188.481 170.094 190.173 171.603C190.993 172.336 192.092 172.824 193.146 173.21C194.717 173.788 195.978 173.324 196.852 171.899C197.334 171.109 197.696 170.217 197.95 169.322C198.78 166.415 198.699 163.451 198.346 160.481C198.178 159.065 198.172 159.008 196.714 158.954C192.143 158.787 187.763 159.667 183.569 161.478C183.135 161.664 182.766 161.996 182.132 162.421ZM97.1683 87.5463C94.0638 87.6182 91.2199 87.8247 88.5794 89.0791C86.2803 90.1718 85.8522 91.7495 87.2502 93.9169C88.6633 96.1082 90.5732 97.8296 92.7137 99.2995C92.7736 99.3414 92.8963 99.2935 93.055 99.2815C94.3961 95.4496 95.7463 91.5998 97.1683 87.5463ZM144.121 56.7145C144.133 57.9329 144.798 58.834 145.609 58.9029C146.552 58.9807 146.639 58.1904 146.938 57.5767C147.435 56.5588 147.866 55.4691 148.561 54.598C150.144 52.6132 152.033 50.9277 154.321 49.7572C155.946 48.9249 157.602 48.1466 159.239 47.3353C159.811 47.0539 160.251 46.6617 160.062 45.9432C159.895 45.2996 159.464 44.8955 158.784 44.9164C158.248 44.9314 157.697 44.9972 157.188 45.1559C153.111 46.4372 149.734 48.8142 146.938 51.9935C146.001 53.0592 145.283 54.3285 144.522 55.541C144.277 55.9421 144.205 56.457 144.121 56.7145ZM164.466 42.3838C163.475 42.3868 162.673 43.1561 162.64 44.1351C162.607 45.2068 163.385 45.9852 164.484 45.9732C165.529 45.9612 166.376 45.111 166.346 44.1021C166.322 43.201 165.424 42.3808 164.466 42.3838Z" fill="#4A5364"/>
<path d="M203.776 12.1958C203.461 13.1598 202.92 13.4651 202.279 13.5909C202.105 13.6238 201.773 13.4352 201.713 13.2765C201.653 13.1149 201.797 12.7287 201.941 12.6748C202.465 12.4772 203.027 12.3814 203.776 12.1958Z" fill="#4A5364"/>
<path d="M300.25 58.2008C300.843 57.8416 301.436 57.4823 302.112 57.0752C302.196 58.4732 301.819 58.7247 300.25 58.2008Z" fill="#4A5364"/>
<path d="M25.5143 254.38C25.8646 254.913 26.1639 255.177 26.2178 255.485C26.3046 255.994 25.9544 256.317 25.4515 256.299C25.0024 256.281 24.73 255.931 24.8228 255.503C24.8886 255.189 25.1671 254.922 25.5143 254.38Z" fill="#4A5364"/>
<path d="M225.607 36.7753C225.215 37.0836 224.856 37.4578 224.416 37.6644C224.23 37.7512 223.877 37.4818 223.602 37.374C223.739 37.1525 223.832 36.8172 224.03 36.7334C224.452 36.5508 224.931 36.4999 225.386 36.3921C225.458 36.5178 225.532 36.6466 225.607 36.7753Z" fill="#4A5364"/>
<path d="M278.377 34.0867C278.955 33.7275 279.53 33.3713 280.206 32.9521C280.224 34.3741 279.985 34.5418 278.377 34.0867Z" fill="#4A5364"/>
<path d="M20.5657 99.4326C21.2513 100.058 21.3261 100.591 20.8651 101.091C20.7544 101.214 20.2155 101.181 20.1406 101.058C19.7634 100.438 20.2275 100.013 20.5657 99.4326Z" fill="#4A5364"/>
<path d="M310.406 182.97C309.972 183.272 309.714 183.544 309.409 183.616C309.28 183.649 309.05 183.266 308.864 183.071C309.113 182.838 309.331 182.548 309.625 182.401C309.726 182.353 310.008 182.67 310.406 182.97Z" fill="#4A5364"/>
<path d="M154.81 15.9033C155.088 16.4362 155.37 16.7535 155.384 17.0828C155.396 17.3044 155.028 17.5439 154.831 17.7744C154.642 17.5498 154.298 17.3193 154.304 17.1008C154.316 16.7655 154.567 16.4392 154.81 15.9033Z" fill="#4A5364"/>
<path d="M260.183 6.16926C259.881 5.78606 259.549 5.50765 259.596 5.39988C259.737 5.08255 260.031 4.83408 260.264 4.55566C260.486 4.76223 260.917 5.0137 260.884 5.16637C260.818 5.48071 260.504 5.74415 260.183 6.16926Z" fill="#4A5364"/>
<path d="M42.8003 123.7C42.8541 124.095 42.9829 124.502 42.929 124.882C42.905 125.065 42.5398 125.202 42.3273 125.358C42.1776 125.145 41.8752 124.9 41.9111 124.726C41.992 124.346 42.2434 123.999 42.4261 123.64C42.5518 123.658 42.6745 123.679 42.8003 123.7Z" fill="#4A5364"/>
<path d="M76.6789 268.118C77.2627 268.621 77.2836 269.1 76.7597 269.51C76.616 269.62 76.0772 269.528 76.0083 269.387C75.679 268.71 76.2299 268.465 76.6789 268.118Z" fill="#4A5364"/>
<path d="M282.022 30.3099C281.723 29.9058 281.436 29.6962 281.438 29.4926C281.45 28.9867 281.801 28.6484 282.313 28.7232C282.492 28.7502 282.789 29.1813 282.741 29.337C282.645 29.6453 282.346 29.8968 282.022 30.3099Z" fill="#4A5364"/>
<path d="M99.6641 49.4067C99.5862 49.733 99.6012 50.1402 99.4036 50.3557C99.233 50.5443 98.8258 50.5174 98.5235 50.5862C98.5325 50.2809 98.4546 49.9306 98.5804 49.6851C98.6911 49.4696 99.0354 49.3738 99.2749 49.2241C99.4036 49.287 99.5353 49.3469 99.6641 49.4067Z" fill="#4A5364"/>
<path d="M77.5684 25.1392C77.6642 25.3816 77.7989 25.5673 77.754 25.6271C77.5205 25.9504 77.2601 26.2588 76.9637 26.5222C76.9098 26.5701 76.5476 26.4294 76.4997 26.3067C76.2871 25.7828 76.6374 25.4984 77.0445 25.2799C77.1643 25.217 77.311 25.208 77.5684 25.1392Z" fill="#4A5364"/>
<path d="M239.626 162.026C239.594 163.026 239.483 163.675 238.686 164.175C238.3 163.146 238.908 162.717 239.626 162.026Z" fill="#4A5364"/>
<path d="M260.271 187.918C260.592 187.379 260.915 186.843 261.235 186.304C261.517 187.187 261.424 187.861 260.649 188.193C260.523 188.103 260.397 188.011 260.271 187.918Z" fill="#4A5364"/>
<path d="M287.738 158C287.954 158.416 288.211 158.685 288.154 158.85C288.064 159.11 287.765 159.299 287.556 159.52C287.379 159.284 287.059 159.038 287.068 158.811C287.077 158.577 287.418 158.362 287.738 158Z" fill="#4A5364"/>
<path d="M138.552 216.472C138.462 216.664 138.447 216.79 138.381 216.826C138.061 217.002 137.731 217.158 137.393 217.296C137.372 217.305 137.187 216.969 137.193 216.966C137.525 216.742 137.863 216.529 138.216 216.341C138.267 216.314 138.387 216.407 138.552 216.472Z" fill="#4A5364"/>
<path d="M80.0425 1.72852C80.1053 2.10871 80.2251 2.35719 80.1562 2.53681C80.0694 2.77031 79.8509 2.9679 79.6533 3.14153C79.6114 3.17745 79.315 3.04873 79.312 2.98586C79.297 2.72242 79.2911 2.42904 79.3958 2.20152C79.4767 2.02788 79.7371 1.94107 80.0425 1.72852Z" fill="#4A5364"/>
<path d="M250.068 117.845C250.622 117.333 250.963 117.019 251.347 116.666C251.529 117.797 251.502 117.827 250.068 117.845Z" fill="#4A5364"/>
<path d="M271.944 142.007C272.522 141.489 272.854 141.186 273.25 140.83C273.384 141.902 273.384 141.902 271.944 142.007Z" fill="#4A5364"/>
<path d="M28.9423 18.0996C29.1878 18.4469 29.3734 18.6894 29.5171 18.9558C29.5291 18.9797 29.1699 19.2731 29.1339 19.2462C28.9064 19.0755 28.6999 18.86 28.5472 18.6235C28.5143 18.5756 28.7388 18.3631 28.9423 18.0996Z" fill="#4A5364"/>
<path d="M52.9414 189.295C53.3216 189.164 53.7048 189.035 54.085 188.903C54.1329 189.038 54.1808 189.173 54.2287 189.31C53.8455 189.451 53.4653 189.592 53.0821 189.733C53.0372 189.589 52.9893 189.442 52.9414 189.295Z" fill="#4A5364"/>
<path d="M82.6902 102.428C82.5405 102.12 82.3728 101.928 82.4147 101.823C82.4866 101.644 82.6931 101.518 82.8398 101.368C82.9386 101.506 83.1332 101.662 83.1123 101.778C83.0793 101.961 82.9027 102.12 82.6902 102.428Z" fill="#4A5364"/>
<path d="M31.5381 34.2341C31.7117 34.0305 31.8255 33.8988 31.9392 33.7671C32.0829 33.9138 32.2835 34.0425 32.3434 34.2191C32.3703 34.3 32.1398 34.5514 31.9961 34.5814C31.8883 34.6053 31.7357 34.3928 31.5381 34.2341Z" fill="#4A5364"/>
<path d="M74.7607 213.679C75.1619 213.233 75.4643 212.966 76.0839 213.215C75.7816 213.793 75.4044 213.865 74.7607 213.679Z" fill="#4A5364"/>
<path d="M53.9362 57.6851C54.0918 57.9874 54.2595 58.164 54.2236 58.2718C54.1637 58.4514 53.9721 58.5862 53.8374 58.7388C53.7266 58.6071 53.517 58.4634 53.532 58.3497C53.556 58.167 53.7296 58.0024 53.9362 57.6851Z" fill="#4A5364"/>
<path d="M167.088 188.864C167.088 188.609 167.088 188.352 167.088 188.098C167.181 188.092 167.27 188.086 167.363 188.08C167.375 188.346 167.39 188.615 167.402 188.882C167.297 188.879 167.193 188.873 167.088 188.864Z" fill="#4A5364"/>
<path d="M220.536 137.005C220.7 137.236 220.802 137.383 220.907 137.526C220.802 137.592 220.677 137.73 220.602 137.706C220.476 137.664 220.341 137.538 220.296 137.416C220.269 137.344 220.41 137.209 220.536 137.005Z" fill="#4A5364"/>
<path d="M29.1522 151.27C29.0175 151.081 28.8768 150.958 28.8409 150.812C28.8229 150.746 29.0504 150.53 29.0953 150.551C29.239 150.611 29.3827 150.731 29.4516 150.869C29.4785 150.922 29.3019 151.075 29.1522 151.27Z" fill="#4A5364"/>
<path d="M51.3578 174.89C51.247 175.046 51.1722 175.151 51.0973 175.259C50.9985 175.181 50.8309 175.112 50.8159 175.022C50.801 174.923 50.9027 174.744 50.9955 174.705C51.0674 174.672 51.2051 174.807 51.3578 174.89Z" fill="#4A5364"/>
<path d="M87.8584 235.389C87.7716 235.46 87.6728 235.559 87.6608 235.55C87.565 235.475 87.4842 235.377 87.4004 235.287C87.4782 235.218 87.5591 235.146 87.6369 235.077C87.7087 235.182 87.7836 235.287 87.8584 235.389Z" fill="#4A5364"/>
<path d="M127.112 171.855C126.22 171.759 125.041 171.637 123.858 171.502C122.508 171.349 121.661 170.604 121.451 169.266C120.855 165.449 120.266 161.629 119.751 157.8C119.556 156.354 120.149 156.016 121.595 156.291C122.897 156.54 124.25 156.731 125.567 156.674C131.618 156.417 137.623 155.809 143.398 153.8C144.52 153.411 145.053 153.633 145.481 154.785C146.083 156.408 146.637 158.057 147.08 159.728C147.212 160.228 147.065 160.955 146.769 161.389C145.901 162.65 145.026 163.955 143.919 164.991C139.288 169.311 133.77 171.604 127.112 171.855ZM121.867 158.719C122.535 162.081 123.158 165.23 123.78 168.379C123.912 169.041 124.367 169.272 124.972 169.248C127.043 169.161 129.142 169.239 131.178 168.921C136.234 168.134 140.497 165.76 144.044 162.06C144.949 161.117 145.401 160.216 144.868 158.896C144.455 157.875 144.26 156.767 143.973 155.707C136.767 158.375 129.507 159.207 121.867 158.719Z" fill="#4A5364"/>
<path d="M212.259 95.3859C212.226 97.9844 210.981 100.316 209.194 102.391C207.778 104.035 206.077 105.292 203.913 105.813C201.048 106.501 198.97 104.918 199.207 101.993C199.587 97.2659 202.111 93.883 206.212 91.6288C206.634 91.3953 207.143 91.2755 207.625 91.2007C210.463 90.7517 212.226 92.2635 212.259 95.3859ZM209.679 95.4368C209.718 93.7573 208.948 93.1586 207.499 93.6226C205.799 94.1674 204.449 95.2452 203.302 96.5833C202.156 97.9215 201.38 99.4662 200.952 101.173C200.536 102.837 201.569 103.819 203.185 103.319C203.563 103.202 203.937 103.056 204.275 102.858C206.766 101.397 208.484 99.2866 209.451 96.5714C209.601 96.1552 209.631 95.6972 209.679 95.4368Z" fill="#4A5364"/>
</g>
<defs>
<clipPath id="clip0_2546_13702">
<path d="M0 16C0 7.16345 7.16344 0 16 0H300C308.837 0 316 7.16344 316 16V286H0V16Z" fill="white"/>
</clipPath>
</defs>
</svg>
