<svg width="316" height="286" viewBox="0 0 316 286" fill="none" xmlns="http://www.w3.org/2000/svg">
<g clip-path="url(#clip0_2549_13970)">
<path d="M315.842 0.143066H0.158203V285.857H315.842V0.143066Z" fill="#FFF6E2"/>
<path d="M15.0083 282.832C15.0088 281.911 15.416 281.043 16.1391 280.472C16.7989 279.951 17.4515 279.423 18.0029 278.804C31.7993 263.323 47.6777 250.442 65.8355 240.395C72.768 236.56 79.9407 233.237 87.3194 230.363C88 230.097 88.2574 229.751 88.2059 229.03C88.1202 227.823 88.0858 226.613 88.083 225.403C88.0687 219.426 88.0801 213.446 88.063 207.469C88.0286 194.905 87.9743 182.341 87.9457 169.778C87.94 167.59 88.0286 165.405 88.0658 163.217C88.0858 162.076 88.0315 162.027 86.9104 162.013C82.0456 161.956 77.1837 161.921 72.319 161.827C71.1407 161.804 69.9595 161.618 68.7898 161.441C67.866 161.301 67.4085 160.491 67.7802 159.613C68.0291 159.024 68.3665 158.438 68.7927 157.963C81.8626 143.363 94.9354 128.766 108.034 114.195C121.836 98.8453 135.667 83.5189 149.489 68.1896C150.627 66.9283 151.808 65.7071 152.961 64.4573C153.427 63.9511 153.962 63.6623 154.674 63.6709C155.103 63.6766 155.578 63.4306 155.955 63.545C156.55 63.7252 157.211 63.9969 157.622 64.4373C161.12 68.1438 164.578 71.8846 168.024 75.6397C171.816 79.7695 175.592 83.9164 179.361 88.0662C185.072 94.3523 190.772 100.647 196.472 106.939C201.065 112.01 205.658 117.077 210.245 122.154C217.452 130.127 224.651 138.112 231.864 146.083C235.19 149.758 238.536 153.413 241.874 157.077C242.451 157.711 242.837 158.366 242.451 159.279C242.005 160.334 241.313 160.877 240.109 160.886C235.293 160.912 230.477 160.992 225.658 161.055C224.505 161.069 224.468 161.155 224.454 162.307C224.339 170.707 224.213 179.107 224.085 187.506C224.039 190.532 223.979 193.555 223.91 196.581C223.73 204.329 223.541 212.073 223.353 219.821C223.278 222.867 223.201 225.913 223.107 228.958C223.092 229.433 223.333 229.596 223.716 229.751C227.356 231.235 231.026 232.653 234.621 234.244C247.882 240.118 260.306 247.445 271.966 256.071C282.362 263.764 291.894 272.412 300.585 281.99C300.822 282.254 300.997 282.568 300.997 282.922C300.997 283.164 300.997 283.407 300.997 283.649C300.997 284.791 300.07 285.667 298.929 285.728C298.415 285.758 297.939 285.997 297.424 285.997C228.895 285.997 160.363 285.997 91.8337 285.997C91.7233 285.997 91.6065 285.972 91.5047 285.929C91.0725 285.747 90.8882 285.247 91.1017 284.83C91.43 284.187 91.7716 283.528 91.9896 282.831C93.4625 278.121 90.2022 273.771 85.4003 273.974C82.2201 274.108 79.1485 276.379 78.0617 279.376C77.3496 281.344 77.5155 283.257 78.3649 285.139C78.489 285.411 78.2705 285.718 77.9714 285.714C77.5599 285.71 77.1718 285.706 76.7862 285.731C76.3384 285.761 75.9333 286 75.4844 286C56.3774 286 37.2703 286 18.1633 286C16.4191 286 15.0073 284.577 15.0083 282.832ZM155.08 91.807C154.834 91.5704 154.45 91.6499 154.259 91.9326C154.213 92.0003 154.165 92.0638 154.11 92.1216C151.599 94.8385 149.063 97.5326 146.563 100.261C130.522 117.755 114.495 135.264 98.4474 152.752C96.0737 155.341 93.6141 157.849 91.2175 160.42C90.9915 160.66 90.8342 161.075 90.8428 161.407C90.9429 166.663 91.1631 171.92 91.186 177.176C91.2518 192.037 91.2403 206.897 91.2575 221.757C91.2604 223.828 91.2461 225.898 91.2489 227.969C91.2489 228.383 91.7061 228.651 92.0988 228.52C92.1149 228.514 92.1309 228.509 92.1469 228.504C95.679 227.334 99.1824 226.073 102.743 225.012C111.629 222.363 120.663 220.376 129.855 219.12C131.54 218.891 131.517 218.874 131.465 217.184C131.325 212.579 131.159 207.975 131.082 203.37C130.954 195.483 130.876 187.595 130.799 179.707C130.779 177.708 130.788 175.703 130.865 173.704C130.925 172.191 131.588 171.588 133.096 171.499C134.86 171.396 136.625 171.279 138.392 171.23C144.184 171.07 149.975 170.91 155.769 170.804C162.61 170.681 169.448 170.618 176.289 170.53C177.854 170.51 178.669 171.23 178.792 172.803C178.86 173.661 178.906 174.522 178.903 175.383C178.886 183.294 178.875 191.207 178.826 199.118C178.786 205.238 178.7 211.358 178.62 217.476C178.603 218.697 178.62 218.731 179.841 218.911C183.062 219.389 186.291 219.818 189.499 220.376C198.703 221.974 207.732 224.277 216.597 227.222C217.282 227.451 217.97 227.676 218.688 227.911C219.148 228.062 219.674 227.762 219.695 227.28C219.889 222.166 220.132 217.055 220.252 211.939C220.447 203.82 220.544 195.7 220.707 187.581C220.844 180.694 221.007 173.81 221.182 166.923C221.225 165.205 221.245 163.469 221.491 161.773C221.625 160.846 221.439 160.28 220.81 159.636C210.609 149.237 200.387 138.856 190.254 128.391C178.486 116.237 166.8 104.005 155.08 91.807ZM175.775 196.089C175.775 196.032 175.821 195.986 175.877 195.986C175.934 195.986 175.98 195.94 175.98 195.883C175.98 191.916 175.949 187.95 175.989 183.983C176.02 180.82 176.138 177.657 176.229 174.494C176.244 173.996 176.041 173.747 175.549 173.736C175.245 173.727 174.942 173.724 174.642 173.73C170.758 173.816 166.874 173.919 162.991 173.987C160.897 174.025 158.804 174.005 156.71 174.022C155.855 174.027 155.766 174.156 155.789 175.014C155.961 181.106 156.178 187.198 156.275 193.289C156.401 201.011 156.424 208.736 156.496 216.46C156.504 217.316 156.599 217.404 157.474 217.419C159.499 217.45 161.526 217.41 163.543 217.524C167.326 217.739 171.107 218.033 174.888 218.317C175.489 218.362 175.786 218.257 175.786 217.556C175.769 210.4 175.774 203.245 175.775 196.089ZM153.156 195.779C153.155 195.751 153.178 195.729 153.206 195.729C153.233 195.729 153.255 195.706 153.255 195.679C153.255 188.949 153.25 182.219 153.261 175.492C153.264 174.082 153.293 174.093 151.857 174.093C146.18 174.09 140.503 174.093 134.829 174.068C133.399 174.062 133.393 174.016 133.433 175.457C133.55 179.876 133.716 184.292 133.785 188.71C133.931 197.922 134.028 207.131 134.139 216.343C134.142 216.692 134.142 217.044 134.088 217.387C133.919 218.397 133.919 218.397 134.929 218.342C140.689 218.039 146.449 217.736 152.209 217.45C153.335 217.393 153.387 217.39 153.375 216.246C153.304 209.425 153.23 202.6 153.156 195.779ZM217.921 251.149C217.112 251.226 215.857 251.286 214.618 251.478C211.51 251.952 208.621 252.996 206.193 255.07C203.256 257.575 202.029 260.707 202.884 264.542C202.967 264.919 203.121 265.3 203.327 265.626C203.722 266.252 204.194 266.83 204.608 267.447C205.961 269.467 207.609 271.2 209.728 272.41C215.499 275.707 221.622 277.031 228.194 275.472C231.143 274.775 233.803 273.471 235.925 271.24C237.944 269.118 238.839 266.647 238.241 263.701C237.669 260.875 236.111 258.65 233.986 256.829C229.501 252.988 224.219 251.277 217.921 251.149ZM131.328 259.946C131.952 259.889 132.584 259.872 133.201 259.766C137.114 259.105 140.397 257.378 142.556 253.94C145.468 249.307 143.732 243.647 138.681 241.554C133.956 239.595 129.463 240.367 125.462 243.441C122.159 245.978 120.086 249.753 122.276 255.018C122.823 256.328 123.729 257.515 124.993 258.198C126.95 259.254 129.04 259.983 131.328 259.946Z" fill="#4A5364"/>
<path d="M123.982 0C124.681 0 124.898 0.981475 124.272 1.29128C119.965 3.42267 115.844 5.89643 111.749 8.40537C104.296 12.9698 97.3259 18.1978 90.7223 23.9291C82.3741 31.1762 74.0803 38.4834 66.613 46.6542C63.5414 50.0175 60.6786 53.5724 57.7186 57.0387C57.464 57.3361 57.2667 57.8881 56.7719 57.5592C56.6547 57.4791 56.8034 56.7813 57.0036 56.4839C57.71 55.4486 58.4536 54.4304 59.2515 53.4638C65.0543 46.414 71.2804 39.7561 77.9984 33.57C85.3399 26.8091 92.7071 20.0711 100.786 14.1767C107.899 8.98594 115.401 4.41861 123.217 0.366073C123.362 0.291714 123.497 0.197963 123.634 0.105289C123.736 0.0355372 123.858 0 123.982 0Z" fill="#4A5364"/>
<path d="M298.991 285.992C298.828 285.992 298.776 285.732 298.938 285.722C299.494 285.692 300.053 285.703 300.611 285.709C300.757 285.71 300.872 285.977 300.726 285.977C300.147 285.993 299.569 285.993 298.991 285.992Z" fill="white"/>
<path d="M54.9396 69.5978C54.8558 69.5545 54.8222 69.4533 54.8535 69.3643C54.9313 69.1424 54.992 68.9036 55.1419 68.756C56.9208 67.0172 58.6196 65.1754 60.5415 63.6081C67.1937 58.1714 74.2148 53.2351 81.3132 48.3989C92.1438 41.0232 103.249 34.0849 114.737 27.7873C124.441 22.4707 134.251 17.34 144.484 13.0872C153.784 9.22059 163.125 5.45691 172.631 2.11935C173.348 1.8675 174.05 1.56585 174.758 1.28465C174.813 1.26311 174.874 1.28562 174.901 1.3376C174.929 1.39391 174.909 1.46368 174.855 1.49633C174.693 1.59389 174.536 1.69901 174.364 1.77044C170.981 3.16895 167.595 4.56174 164.212 5.9574C154.376 10.0157 144.489 13.9538 134.926 18.6355C116.242 27.7816 98.2956 38.2061 81.1416 49.9719C74.335 54.6422 67.6942 59.5584 61.0448 64.4518C59.1401 65.8532 57.4642 67.5634 55.6824 69.1278C55.5056 69.2825 55.3204 69.4287 55.1358 69.5774C55.0802 69.6222 55.003 69.6306 54.9396 69.5978Z" fill="#4A5364"/>
<path d="M42.0466 79.0633C42.2071 77.7795 41.2147 76.6726 39.9217 76.6266C39.6042 76.6152 39.2611 76.5608 38.9836 76.415C38.3745 76.0975 38.3087 75.331 38.8893 74.8363C39.4326 74.373 40.0304 73.9268 40.6767 73.638C41.9809 73.0517 42.5986 72.1908 42.3126 70.7208C42.1982 70.1374 42.2669 69.5139 42.2669 68.9105C42.2669 68.0639 42.9046 67.5863 43.5939 68.0553C44.3203 68.5473 44.8894 69.2794 45.49 69.9372C45.8865 70.3711 46.4405 70.6216 46.9489 70.3265C47.2854 70.1311 47.6155 69.9344 47.9353 69.7227C48.3385 69.4567 48.7217 69.2594 49.1279 69.634C49.5139 69.9915 49.4367 70.4234 49.2194 70.8495C48.8991 71.4701 48.6073 72.105 48.2527 72.7056C48.0039 73.126 48.001 73.3891 48.4586 73.6608C49.1164 74.0527 49.7342 74.5102 50.3748 74.9364C50.9268 75.3053 51.3529 75.7486 51.2213 76.4807C51.1041 77.1299 50.5721 77.5818 49.7313 77.6133C48.6188 77.6533 47.4977 77.6333 46.388 77.5561C45.9848 77.5275 45.8446 77.619 45.6473 77.9479C45.1954 78.7001 44.6949 79.4293 44.1487 80.1157C43.7769 80.5848 43.2221 80.7792 42.6444 80.5047C42.0495 80.2187 41.978 79.6438 42.0466 79.0633Z" fill="#4A5364"/>
<path d="M261.17 92.0375C259.631 91.6132 257.897 92.4522 256.359 92.0213C256.145 91.9613 255.83 92.0986 255.616 92.2301C251.478 94.8098 247.348 97.4038 243.218 99.9949C242.746 100.289 242.289 100.615 241.802 100.881C241.187 101.219 240.75 101.571 240.756 102.403C240.761 103.187 239.898 103.664 239.117 103.464C238.408 103.284 238.001 102.446 238.245 101.665C238.491 100.87 239.346 100.404 240.075 100.813C240.621 101.116 240.95 100.942 241.373 100.673C246.012 97.7098 250.654 94.7555 255.301 91.804C255.633 91.5952 255.868 91.4322 255.799 90.9431C255.693 90.1853 256.119 89.6905 256.846 89.5475C257.618 89.3959 258.278 89.6791 258.476 90.3797C258.599 90.823 258.856 90.966 259.225 91.0633C264.773 92.5247 270.319 93.9918 275.87 95.4476C276.087 95.5048 276.373 95.5877 276.536 95.4962C276.991 95.2425 277.407 95.2019 277.805 95.3601C278.181 95.5098 278.638 95.5477 278.922 95.2588C282.168 91.9556 285.411 88.6495 288.657 85.3491C288.974 85.0259 289.223 84.7857 288.969 84.2309C288.617 83.4644 289.332 82.512 290.296 82.2947C291.099 82.1145 291.768 82.5521 291.889 83.3386C292.032 84.2652 291.348 85.1546 290.376 85.0974C289.735 85.0602 289.4 85.3462 289.017 85.7295C285.682 89.0756 282.336 92.4103 279.016 95.7707C278.793 95.9967 278.65 96.3913 278.638 96.7145C278.613 97.5067 278.255 98.0501 277.583 98.1273C276.951 98.1988 276.227 97.7269 276.21 97.0177C276.19 96.174 275.733 96.031 275.078 95.8537C270.45 94.5975 265.826 93.3208 261.17 92.0375Z" fill="#4A5364"/>
<path d="M255.055 58.3973C255.701 58.383 256.233 58.872 256.251 59.4955C256.268 60.1104 255.75 60.6481 255.118 60.6681C254.48 60.691 253.957 60.199 253.94 59.5584C253.925 58.9063 254.4 58.4116 255.055 58.3973Z" fill="#4A5364"/>
<path d="M35.5999 34.8486C36.1032 34.8515 36.5007 35.2433 36.4922 35.7267C36.4836 36.21 36.0718 36.5904 35.5684 36.5618C35.0565 36.5303 34.7447 36.2615 34.7219 35.7324C34.6961 35.2405 35.1022 34.8458 35.5999 34.8486Z" fill="#4A5364"/>
<path d="M28.387 208.928C27.9265 208.87 27.5662 208.625 27.5976 208.047C27.6291 207.478 28.0009 207.232 28.5357 207.249C29.0562 207.266 29.345 207.569 29.3622 208.09C29.3794 208.584 28.9761 208.942 28.387 208.928Z" fill="#4A5364"/>
<path d="M266.258 17.623C266.144 17.2748 266.163 16.8511 266.355 16.5389C266.463 16.3645 266.675 16.15 266.85 16.1414C267.027 16.1328 267.336 16.3244 267.373 16.4817C267.473 16.8907 267.527 17.3426 267.456 17.7515C267.419 17.9575 267.055 18.2577 266.864 18.2406C266.652 18.2206 266.432 17.9117 266.286 17.6829C266.274 17.6647 266.265 17.6447 266.258 17.623Z" fill="#4A5364"/>
<path d="M283.255 134.732C282.622 134.741 282.162 134.346 282.159 133.871C282.156 133.305 282.56 133.153 282.997 133.162C283.489 133.173 283.929 133.362 283.947 133.963C283.964 134.489 283.635 134.701 283.255 134.732Z" fill="#4A5364"/>
<path d="M267.598 214.434C266.973 214.15 267.202 212.822 267.882 212.734C268.471 212.66 268.529 213.232 268.549 213.664C268.566 214.078 268.42 214.487 267.905 214.49C267.782 214.491 267.682 214.472 267.598 214.434Z" fill="#4A5364"/>
<path d="M211.956 25.7424C212.187 25.9353 212.255 26.3477 212.037 26.555C211.868 26.7156 211.724 26.8369 211.561 26.8751C211.415 26.9094 210.963 26.4404 211.003 26.3174C211.061 26.1452 211.178 25.9928 211.309 25.8445C211.489 25.6413 211.748 25.5685 211.956 25.7424Z" fill="#4A5364"/>
<path d="M89.6728 96.0226C90.0191 95.7918 90.0378 96.7655 89.7198 97.0341C89.5943 97.1402 89.4715 97.2314 89.3382 97.3039C88.973 97.5102 89.0408 96.5259 89.3619 96.2562C89.4619 96.1723 89.5647 96.093 89.6728 96.0226Z" fill="#4A5364"/>
<path d="M44.2003 140.973C44.1791 141.032 44.1391 141.082 44.086 141.115C43.7455 141.326 43.41 141.547 43.0499 141.722C42.7966 141.848 42.9011 141.191 43.1335 141.029C43.3655 140.867 43.5993 140.709 43.845 140.572C43.89 140.548 43.9558 140.561 44.0289 140.587C44.179 140.64 44.2543 140.823 44.2003 140.973Z" fill="#4A5364"/>
<path d="M211.011 68.6423C211.753 68.385 211.088 70.0774 210.697 69.3967C210.609 69.2394 210.769 68.7447 210.932 68.6732C210.959 68.6614 210.985 68.6511 211.011 68.6423Z" fill="#4A5364"/>
<path d="M159.524 197.63C159.519 196.701 160.156 196.009 161.049 195.983C162.018 195.954 162.851 196.841 162.845 197.899C162.839 198.892 162.096 199.675 161.166 199.664C160.191 199.652 159.53 198.834 159.524 197.63Z" fill="#4A5364"/>
<path d="M148.928 196.227C149.941 196.229 150.727 196.999 150.719 197.977C150.71 198.981 149.832 199.801 148.791 199.779C147.816 199.759 147.038 199.001 147.029 198.06C147.018 197.065 147.89 196.224 148.928 196.227Z" fill="#4A5364"/>
</g>
<defs>
<clipPath id="clip0_2549_13970">
<path d="M0 16C0 7.16345 7.16344 0 16 0H300C308.837 0 316 7.16344 316 16V286H0V16Z" fill="white"/>
</clipPath>
</defs>
</svg>
