<svg width="80" height="80" viewBox="0 0 80 80" fill="none" xmlns="http://www.w3.org/2000/svg">
<g clip-path="url(#clip0_2549_13921)">
<path d="M80 0.279785H0V80.2798H80V0.279785Z" fill="#FFF6E2"/>
<path d="M-0.00638906 78.6913C0.274411 78.4521 0.588011 78.2425 0.831211 77.9697C4.69041 73.6393 9.13201 70.0361 14.2112 67.2257C16.1504 66.1529 18.1568 65.2233 20.2208 64.4193C20.4112 64.3449 20.4832 64.2481 20.4688 64.0465C20.4448 63.7089 20.4352 63.3705 20.4344 63.0321C20.4304 61.3601 20.4336 59.6873 20.4288 58.0153C20.4192 54.5009 20.404 50.9865 20.396 47.4721C20.3944 46.8601 20.4192 46.2489 20.4296 45.6369C20.4352 45.3177 20.42 45.3041 20.1064 45.3001C18.7456 45.2841 17.3856 45.2745 16.0248 45.2481C15.6952 45.2417 15.3648 45.1897 15.0376 45.1401C14.7792 45.1009 14.6512 44.8745 14.7552 44.6289C14.8248 44.4641 14.9192 44.3001 15.0384 44.1673C18.6944 40.0833 22.3512 36.0001 26.0152 31.9241C29.876 27.6305 33.7448 23.3433 37.6112 19.0553C37.9296 18.7025 38.26 18.3609 38.5824 18.0113C38.7128 17.8697 38.8624 17.7889 39.0616 17.7913C39.1816 17.7929 39.3144 17.7241 39.42 17.7561C39.5864 17.8065 39.7712 17.8825 39.8864 18.0057C40.8648 19.0425 41.832 20.0889 42.796 21.1393C43.8568 22.2945 44.9128 23.4545 45.9672 24.6153C47.5648 26.3737 49.1592 28.1345 50.7536 29.8945C52.0384 31.3129 53.3232 32.7305 54.6064 34.1505C56.6224 36.3809 58.636 38.6145 60.6536 40.8441C61.584 41.8721 62.52 42.8945 63.4536 43.9193C63.6152 44.0969 63.7232 44.2801 63.6152 44.5353C63.4904 44.8305 63.2968 44.9825 62.96 44.9849C61.6128 44.9921 60.2656 45.0145 58.9176 45.0321C58.5952 45.0361 58.5848 45.0601 58.5808 45.3825C58.5488 47.7321 58.5136 50.0817 58.4776 52.4313C58.4648 53.2777 58.448 54.1233 58.4288 54.9697C58.3784 57.1369 58.3256 59.3033 58.2728 61.4705C58.252 62.3225 58.2304 63.1745 58.204 64.0265C58.2 64.1593 58.2672 64.2049 58.3744 64.2481C59.3928 64.6633 60.4192 65.0601 61.4248 65.5049C65.1344 67.1481 68.6096 69.1977 71.8712 71.6105C74.7792 73.7625 77.4456 76.1817 79.8768 78.8609C79.9112 78.8993 79.9536 78.9313 79.992 78.9657C79.992 79.2785 79.992 79.5905 79.992 79.9033C79.7992 79.9033 79.6064 79.8961 79.4136 79.9065C79.3448 79.9105 79.2784 79.9553 79.2104 79.9817C59.9528 79.9817 40.6944 79.9817 21.4368 79.9817C21.344 79.9425 21.252 79.9041 21.172 79.8705C21.288 79.6225 21.4416 79.3697 21.5272 79.0961C21.9392 77.7785 21.0272 76.5617 19.684 76.6185C18.7944 76.6561 17.9352 77.2913 17.6312 78.1297C17.432 78.6801 17.4784 79.2153 17.716 79.7417C17.7368 79.7873 17.7528 79.8345 17.7808 79.9041C17.5976 79.9041 17.4352 79.8969 17.2744 79.9073C17.2152 79.9113 17.1584 79.9561 17.1008 79.9825C11.3976 79.9825 5.69441 79.9825 -0.00878906 79.9825C-0.00638906 79.5497 -0.00638906 79.1201 -0.00638906 78.6913ZM39.0392 25.5409C38.9896 25.6185 38.9568 25.6937 38.904 25.7497C38.2016 26.5097 37.492 27.2633 36.7928 28.0265C32.3056 32.9201 27.8224 37.8177 23.3336 42.7097C22.6696 43.4337 21.9816 44.1353 21.3112 44.8545C21.248 44.9217 21.204 45.0377 21.2064 45.1305C21.2344 46.6009 21.296 48.0713 21.3024 49.5417C21.3208 53.6985 21.3176 57.8553 21.3224 62.0121C21.3232 62.5913 21.3192 63.1705 21.32 63.7497C21.32 63.8169 21.3344 63.8841 21.344 63.9729C21.4376 63.9425 21.5048 63.9217 21.5712 63.8993C22.5592 63.5721 23.5392 63.2193 24.5352 62.9225C27.0208 62.1817 29.548 61.6257 32.1192 61.2745C32.5904 61.2105 32.584 61.2057 32.5696 60.7329C32.5304 59.4449 32.484 58.1569 32.4624 56.8689C32.4264 54.6625 32.4048 52.4561 32.3832 50.2497C32.3776 49.6905 32.38 49.1297 32.4016 48.5705C32.4184 48.1473 32.604 47.9785 33.0256 47.9537C33.5192 47.9249 34.0128 47.8921 34.5072 47.8785C36.1272 47.8337 37.7472 47.7889 39.368 47.7593C41.2816 47.7249 43.1944 47.7073 45.108 47.6825C45.5456 47.6769 45.7736 47.8785 45.808 48.3185C45.8272 48.5585 45.84 48.7993 45.8392 49.0401C45.8344 51.2529 45.8312 53.4665 45.8176 55.6793C45.8064 57.3913 45.7824 59.1033 45.76 60.8145C45.7552 61.1561 45.76 61.1657 46.1016 61.2161C47.0024 61.3497 47.9056 61.4697 48.8032 61.6257C51.3776 62.0729 53.9032 62.7169 56.3832 63.5409C56.652 63.6305 56.9224 63.7185 57.2152 63.8145C57.2296 63.7065 57.2464 63.6321 57.2496 63.5569C57.304 62.1265 57.372 60.6969 57.4056 59.2657C57.46 56.9945 57.4872 54.7233 57.5328 52.4521C57.5712 50.5257 57.6168 48.6001 57.6656 46.6737C57.6776 46.1929 57.6832 45.7073 57.752 45.2329C57.7896 44.9737 57.7376 44.8153 57.5616 44.6353C54.708 41.7265 51.8488 38.8225 49.0144 35.8953C45.7224 32.4953 42.4536 29.0737 39.1752 25.6617C39.1536 25.6409 39.1288 25.6209 39.0392 25.5409ZM44.964 54.8033C44.9832 54.8033 45.0024 54.8033 45.0216 54.8033C45.0216 53.6841 45.0128 52.5649 45.024 51.4457C45.0328 50.5609 45.0656 49.6761 45.0912 48.7913C45.0952 48.6521 45.0384 48.5825 44.9008 48.5793C44.816 48.5769 44.7312 48.5761 44.6472 48.5777C43.5608 48.6017 42.4744 48.6305 41.388 48.6497C40.8024 48.6601 40.2168 48.6545 39.6312 48.6593C39.392 48.6609 39.3672 48.6969 39.3736 48.9369C39.4216 50.6409 39.4824 52.3449 39.5096 54.0489C39.5448 56.2089 39.5512 58.3697 39.5712 60.5305C39.5736 60.7697 39.6 60.7945 39.8448 60.7985C40.4112 60.8073 40.9784 60.7961 41.5424 60.8281C42.6008 60.8881 43.6584 60.9705 44.716 61.0497C44.884 61.0625 44.9672 61.0329 44.9672 60.8369C44.9624 58.8257 44.964 56.8145 44.964 54.8033ZM38.6368 54.7313C38.6464 54.7313 38.6552 54.7313 38.6648 54.7313C38.6648 52.8441 38.6632 50.9569 38.6664 49.0705C38.6672 48.6761 38.6752 48.6793 38.2736 48.6793C36.6856 48.6785 35.0976 48.6793 33.5104 48.6721C33.1104 48.6705 33.1088 48.6577 33.12 49.0609C33.1528 50.2969 33.1992 51.5321 33.2184 52.7681C33.2592 55.3449 33.2864 57.9209 33.3176 60.4977C33.3184 60.5953 33.3184 60.6937 33.3032 60.7897C33.256 61.0721 33.256 61.0721 33.5384 61.0569C35.1496 60.9721 36.7608 60.8873 38.372 60.8073C38.6872 60.7913 38.7016 60.7905 38.6984 60.4705C38.6784 58.5577 38.6576 56.6441 38.6368 54.7313ZM56.7536 70.2337C56.5272 70.2553 56.176 70.2721 55.8296 70.3257C54.96 70.4585 54.152 70.7505 53.4728 71.3305C52.6512 72.0313 52.308 72.9073 52.5472 73.9801C52.5704 74.0857 52.6136 74.1921 52.6712 74.2833C52.7816 74.4585 52.9136 74.6201 53.0296 74.7929C53.408 75.3577 53.8688 75.8425 54.4616 76.1809C56.076 77.1033 57.7888 77.4737 59.6272 77.0377C60.452 76.8425 61.196 76.4777 61.7896 75.8537C62.3544 75.2601 62.6048 74.5689 62.4376 73.7449C62.2776 72.9545 61.8416 72.3321 61.2472 71.8225C59.9928 70.7481 58.5152 70.2697 56.7536 70.2337ZM32.5312 72.6945C32.7056 72.6785 32.8824 72.6737 33.0552 72.6441C34.1496 72.4593 35.068 71.9761 35.672 71.0145C36.4864 69.7185 36.0008 68.1353 34.588 67.5497C33.2664 67.0017 32.0096 67.2177 30.8904 68.0777C29.9664 68.7873 29.3864 69.8433 29.9992 71.3161C30.152 71.6825 30.4056 72.0145 30.7592 72.2057C31.3064 72.5009 31.8912 72.7049 32.5312 72.6945Z" fill="#4A5364"/>
<path d="M31.3217 -0.019043C29.8361 0.648957 28.4401 1.48336 27.0545 2.33216C24.9697 3.60896 23.0201 5.07136 21.1729 6.67456C18.8377 8.70176 16.5177 10.7458 14.4289 13.0314C13.5697 13.9722 12.7689 14.9666 11.9409 15.9362C11.8697 16.0194 11.8145 16.1738 11.6761 16.0818C11.6433 16.0594 11.6849 15.8642 11.7409 15.781C11.9385 15.4914 12.1465 15.2066 12.3697 14.9362C13.9929 12.9642 15.7345 11.1018 17.6137 9.37136C19.6673 7.48016 21.7281 5.59536 23.9881 3.94656C25.9777 2.49456 28.0761 1.21696 30.2625 0.083357C30.3185 0.054557 30.3697 0.015357 30.4233 -0.019043C30.7233 -0.019043 31.0225 -0.019043 31.3217 -0.019043Z" fill="#4A5364"/>
<path d="M79.2129 79.9802C79.2801 79.9538 79.3473 79.909 79.4161 79.905C79.6081 79.8946 79.8017 79.9018 79.9945 79.9018C79.9681 79.9282 79.9433 79.9762 79.9161 79.9762C79.6817 79.9826 79.4473 79.9802 79.2129 79.9802Z" fill="white"/>
<path d="M11.1226 19.4272C11.1546 19.3552 11.1682 19.2648 11.2202 19.2136C11.7178 18.7272 12.193 18.212 12.7306 17.7736C14.5914 16.2528 16.5554 14.872 18.541 13.5192C21.5706 11.456 24.677 9.51519 27.8906 7.75359C30.605 6.26639 33.349 4.83119 36.2114 3.64159C38.813 2.55999 41.4258 1.50719 44.085 0.57359C44.2946 0.49999 44.4994 0.41119 44.7066 0.32959C44.7162 0.34719 44.725 0.36559 44.7346 0.38319C44.6794 0.41439 44.6274 0.45199 44.5698 0.47599C43.6234 0.86719 42.6762 1.25679 41.7298 1.64719C38.9786 2.78239 36.213 3.88399 33.5378 5.19359C28.3114 7.75199 23.2914 10.668 18.493 13.9592C16.589 15.2656 14.7314 16.6408 12.8714 18.0096C12.3386 18.4016 11.8698 18.88 11.3714 19.3176C11.3138 19.368 11.253 19.4152 11.193 19.464C11.169 19.452 11.1458 19.44 11.1226 19.4272Z" fill="#4A5364"/>
<path d="M7.65529 21.4178C7.41289 21.4178 7.18729 21.4234 6.96249 21.4154C6.87369 21.4122 6.77769 21.3971 6.70009 21.3563C6.52969 21.2675 6.51129 21.053 6.67369 20.9146C6.82569 20.785 6.99289 20.6602 7.17369 20.5794C7.53849 20.4154 7.71129 20.1746 7.63129 19.7634C7.59929 19.6002 7.61849 19.4258 7.61849 19.257C7.61849 19.0202 7.79689 18.8866 7.98969 19.0178C8.19289 19.1554 8.35209 19.3602 8.52009 19.5442C8.57929 19.609 8.61049 19.6994 8.66889 19.8034C8.85289 19.6946 9.03369 19.597 9.20409 19.4842C9.31689 19.4098 9.42409 19.3546 9.53769 19.4594C9.64569 19.5594 9.62409 19.6802 9.56329 19.7994C9.47369 19.973 9.39209 20.1506 9.29289 20.3186C9.22329 20.4362 9.22249 20.5099 9.35049 20.5859C9.53449 20.6955 9.70729 20.8234 9.88649 20.9426C10.0409 21.0458 10.1601 21.1698 10.1233 21.3746C10.0905 21.5562 9.94169 21.6827 9.70649 21.6915C9.39529 21.7027 9.08169 21.697 8.77129 21.6754C8.65849 21.6674 8.61929 21.693 8.56409 21.785C8.43769 21.9954 8.29769 22.1995 8.14489 22.3915C8.04089 22.5227 7.88569 22.577 7.72409 22.5002C7.55769 22.4202 7.53769 22.2594 7.55689 22.097C7.58569 21.8666 7.62329 21.6378 7.65529 21.4178Z" fill="#4A5364"/>
<path d="M68.1406 25.5306C67.923 25.8058 67.8566 25.8202 67.5054 25.7218C67.4454 25.705 67.3574 25.7434 67.2974 25.7802C66.1398 26.5018 64.9846 27.2274 63.8294 27.9522C63.6974 28.0346 63.5694 28.1258 63.4334 28.2002C63.2614 28.2946 63.139 28.393 63.1406 28.6258C63.1422 28.845 62.9006 28.9786 62.6822 28.9226C62.4838 28.8722 62.3702 28.6378 62.4382 28.4194C62.507 28.197 62.7462 28.0666 62.9502 28.181C63.103 28.2658 63.195 28.217 63.3134 28.1418C64.611 27.313 65.9094 26.4866 67.2094 25.661C67.3022 25.6026 67.3678 25.557 67.3486 25.4202C67.319 25.2082 67.4382 25.0698 67.6414 25.0298C67.8574 24.9874 68.0422 25.0666 68.0974 25.2626C68.1318 25.3866 68.2038 25.4266 68.307 25.4538C69.859 25.8626 71.4102 26.273 72.963 26.6802C73.0238 26.6962 73.1038 26.7194 73.1494 26.6938C73.3414 26.5866 73.5094 26.6154 73.671 26.7666C73.7254 26.7154 73.7726 26.6722 73.8166 26.6274C74.7246 25.7034 75.6318 24.7786 76.5398 23.8554C76.6286 23.765 76.6982 23.6978 76.627 23.5426C76.5286 23.3282 76.7286 23.0618 76.9982 23.001C77.223 22.9506 77.4102 23.073 77.4438 23.293C77.4838 23.5522 77.2926 23.801 77.0206 23.785C76.8414 23.7746 76.7478 23.8546 76.6406 23.9618C75.7078 24.8978 74.7718 25.8306 73.843 26.7706C73.7806 26.8338 73.7406 26.9442 73.7374 27.0346C73.7302 27.2562 73.6302 27.4082 73.4422 27.4298C73.2654 27.4498 73.063 27.3178 73.0582 27.1194C73.0526 26.8834 72.9246 26.8434 72.7414 26.7938C71.2118 26.3786 69.6838 25.9554 68.1406 25.5306Z" fill="#4A5364"/>
<path d="M67.1407 16.316C67.3215 16.312 67.4703 16.4488 67.4751 16.6232C67.4799 16.7952 67.3351 16.9456 67.1583 16.9512C66.9799 16.9576 66.8335 16.82 66.8287 16.6408C66.8247 16.4584 66.9575 16.32 67.1407 16.316Z" fill="#4A5364"/>
<path d="M5.75374 9.72901C5.89454 9.72981 6.00574 9.83941 6.00334 9.97461C6.00094 10.1098 5.88574 10.2162 5.74494 10.2082C5.60174 10.1994 5.51454 10.1242 5.50814 9.97621C5.50094 9.83861 5.61454 9.72821 5.75374 9.72901Z" fill="#4A5364"/>
<path d="M3.73598 58.4234C3.60718 58.4074 3.50638 58.3387 3.51518 58.1771C3.52398 58.0179 3.62798 57.949 3.77758 57.9538C3.92318 57.9586 4.00398 58.0434 4.00878 58.189C4.01358 58.3274 3.90078 58.4274 3.73598 58.4234Z" fill="#4A5364"/>
<path d="M70.2697 4.75697C70.2769 4.71777 70.2737 4.65297 70.3017 4.60737C70.3321 4.55857 70.3913 4.49857 70.4401 4.49617C70.4897 4.49377 70.5761 4.54737 70.5865 4.59137C70.6145 4.70577 70.6297 4.83217 70.6097 4.94657C70.5993 5.00417 70.4977 5.08817 70.4441 5.08337C70.3849 5.07777 70.3233 4.99137 70.2825 4.92737C70.2585 4.89057 70.2737 4.82737 70.2697 4.75697Z" fill="#4A5364"/>
<path d="M75.0291 37.6688C74.8523 37.6712 74.7235 37.5608 74.7227 37.428C74.7219 37.2696 74.8347 37.2272 74.9571 37.2296C75.0947 37.2328 75.2179 37.2856 75.2227 37.4536C75.2275 37.6008 75.1355 37.66 75.0291 37.6688Z" fill="#4A5364"/>
<path d="M70.5088 59.6986C70.5816 59.625 70.648 59.4986 70.7288 59.4882C70.8936 59.4674 70.9096 59.6274 70.9152 59.7482C70.92 59.8642 70.8792 59.9786 70.7352 59.9794C70.58 59.981 70.5528 59.8626 70.5088 59.6986Z" fill="#4A5364"/>
<path d="M55.2258 7.29942C55.1154 7.39302 55.053 7.48022 54.9746 7.49862C54.9338 7.50822 54.8074 7.37702 54.8186 7.34262C54.8482 7.25462 54.933 7.18502 54.9962 7.10742C55.057 7.15862 55.1178 7.20902 55.2258 7.29942Z" fill="#4A5364"/>
<path d="M21.0606 26.9722C20.9502 27.069 20.8766 27.1498 20.7854 27.1994C20.767 27.2098 20.6846 27.1042 20.6318 27.0514C20.7126 26.9794 20.7894 26.8994 20.879 26.841C20.8958 26.8298 20.967 26.9034 21.0606 26.9722Z" fill="#4A5364"/>
<path d="M8.15028 39.44C8.04708 39.5032 7.94628 39.5712 7.83748 39.624C7.82468 39.6304 7.77188 39.5536 7.73828 39.5152C7.84468 39.4432 7.94788 39.3648 8.05988 39.3024C8.08788 39.2872 8.14468 39.324 8.18868 39.3368C8.17508 39.3712 8.16228 39.4056 8.15028 39.44Z" fill="#4A5364"/>
<path d="M55.0615 19.4066C54.9375 19.481 54.8159 19.5378 54.7327 19.393C54.7079 19.349 54.7527 19.2106 54.7983 19.1906C54.9807 19.1122 55.0071 19.2722 55.0615 19.4066Z" fill="#4A5364"/>
<path d="M40.4185 55.2632C40.4169 55.0032 40.5953 54.8096 40.8449 54.8024C41.1161 54.7944 41.3489 55.0424 41.3473 55.3384C41.3457 55.616 41.1377 55.8352 40.8777 55.832C40.6049 55.8288 40.4201 55.6 40.4185 55.2632Z" fill="#4A5364"/>
<path d="M37.4546 54.8706C37.7378 54.8714 37.9578 55.0866 37.9554 55.3602C37.953 55.641 37.7074 55.8706 37.4162 55.8642C37.1434 55.8586 36.9258 55.6466 36.9234 55.3834C36.9202 55.105 37.1642 54.8698 37.4546 54.8706Z" fill="#4A5364"/>
</g>
<defs>
<clipPath id="clip0_2549_13921">
<path d="M0 16C0 7.16344 7.16344 0 16 0H64C72.8366 0 80 7.16344 80 16V64C80 72.8366 72.8366 80 64 80H16C7.16344 80 0 72.8366 0 64V16Z" fill="white"/>
</clipPath>
</defs>
</svg>
