<svg width="316" height="286" viewBox="0 0 316 286" fill="none" xmlns="http://www.w3.org/2000/svg">
<g clip-path="url(#clip0_2546_13631)">
<path d="M316 0H0V286H316V0Z" fill="#FFF6E2"/>
<path d="M287.061 125.952C287.031 126.252 286.977 126.555 286.977 126.855C286.938 137.852 286.875 148.85 286.902 159.844C286.905 161.156 286.521 162.053 285.599 162.926C283.073 165.312 280.612 167.766 278.134 170.203C277.969 170.365 277.867 170.593 277.744 170.797C277.393 171.385 276.888 171.628 276.204 171.568C274.536 171.424 272.871 171.235 271.199 171.187C268.82 171.118 266.437 171.136 264.058 171.154C255.968 171.211 247.881 171.286 239.791 171.343C237.436 171.358 235.077 171.304 232.721 171.325C216.701 171.463 200.677 171.61 184.657 171.763C176.699 171.838 168.741 171.928 160.786 172.015C156.894 172.057 153.005 172.105 149.114 172.147C148.51 172.153 147.904 172.147 147.223 172.147C147.313 172.438 147.382 172.684 147.466 172.927C148.453 175.874 149.264 178.86 149.663 181.953C149.894 183.745 150.416 185.509 150.536 187.304C150.779 190.997 150.119 194.511 147.61 197.425C145.231 200.191 141.678 200.248 139.184 197.578C138.518 196.867 137.912 196.062 137.45 195.207C136.901 194.196 136.538 193.086 136.097 192.018C136.016 191.826 135.953 191.624 135.761 191.435C135.644 192.219 135.533 192.999 135.409 193.782C135.139 195.516 134.71 197.203 133.936 198.79C133.852 198.964 133.783 199.255 133.867 199.387C134.878 200.954 135.091 202.733 135.271 204.518C135.698 208.728 135.62 212.95 135.352 217.16C135.076 221.496 134.743 225.838 134.185 230.147C133.651 234.267 132.595 238.291 130.917 242.12C130.764 242.468 130.791 242.66 131.101 242.885C131.434 243.128 131.734 243.422 132.025 243.716C134.146 245.841 133.939 248.448 132.577 250.471C131.713 251.755 130.527 252.685 129.147 253.342C123.371 256.1 117.42 256.592 111.305 254.633C109.73 254.129 108.298 253.324 107.137 252.112C105.418 250.321 105.196 248.343 106.426 246.18C106.552 245.958 106.66 245.646 106.609 245.412C106.192 243.515 105.76 241.622 105.277 239.74C104.911 238.309 104.463 236.899 103.929 235.482C103.752 236.506 103.581 237.529 103.401 238.552C103.008 240.767 102.612 242.978 102.222 245.193C102.195 245.343 102.177 245.499 102.186 245.649C102.366 248.655 100.983 250.897 98.7232 252.697C96.5447 254.435 94.0211 255.368 91.2785 255.695C88.1338 256.067 84.9771 255.929 81.9014 255.239C78.9547 254.576 76.6862 252.79 75.1829 250.168C74.1236 248.319 73.8596 246.303 74.4987 244.22C74.5257 244.136 74.5377 244.037 74.5917 243.977C75.2819 243.239 74.8708 242.624 74.4657 241.913C72.2242 237.967 71.0059 233.67 70.2648 229.223C69.1575 222.582 69.1035 215.906 69.8537 209.232C70.1567 206.526 70.7269 203.849 71.171 201.161C71.195 201.017 71.234 200.789 71.159 200.729C70.6399 200.302 70.1207 199.87 69.5386 199.543C69.4036 199.468 68.9025 199.735 68.8064 199.951C68.2243 201.239 67.4471 202.373 66.4959 203.42C64.5995 205.509 61.9109 205.926 59.4953 204.44C57.7579 203.372 56.6147 201.788 55.6725 200.035C54.5232 197.893 53.9171 195.588 53.56 193.185C53.1159 190.193 52.8128 187.195 52.9719 184.174C53.0979 181.731 53.347 179.298 53.545 176.858C53.563 176.645 53.578 176.432 53.599 176.18C53.398 176.165 53.2509 176.141 53.1069 176.141C46.6794 176.201 40.255 176.264 33.8275 176.315C33.2634 176.318 32.6903 176.264 32.1322 176.18C31.1299 176.027 30.6918 175.529 30.6438 174.503C30.5898 173.302 30.5628 172.099 30.5418 170.896C30.4338 165.366 30.3438 159.835 30.2267 154.305C29.9897 142.918 29.7376 131.533 29.4946 120.145C29.3835 114.942 29.2905 109.742 29.1825 104.539C28.9304 92.3441 28.6664 80.1463 28.4293 67.9516C28.3183 62.1813 28.2493 56.411 28.1743 50.6377C28.1653 49.8965 28.2343 49.1553 28.2433 48.4112C28.2463 48.2071 28.1923 47.9881 28.1113 47.796C27.8742 47.2139 28.0122 46.8118 28.5614 46.5598C31.499 45.2184 34.4367 43.8832 37.3683 42.5298C38.5956 41.9627 39.8409 41.4166 41.0112 40.7414C41.6623 40.3664 42.1784 39.8082 43.0156 39.7842C44.786 39.7362 46.5504 39.5922 48.3208 39.5472C56.5607 39.3461 64.7975 39.1721 73.0374 38.974C84.0079 38.713 94.9783 38.4369 105.949 38.1699C113.159 37.9958 120.373 37.8308 127.584 37.6657C137.681 37.4377 147.778 37.2186 157.873 36.9936C165.368 36.8256 172.864 36.6575 180.36 36.4865C190.217 36.2614 200.071 36.0394 209.928 35.8113C217.271 35.6433 224.614 35.4632 231.956 35.3072C242.819 35.0762 253.681 34.8601 264.544 34.6441C269.222 34.551 273.9 34.488 278.575 34.392C280.738 34.347 282.899 34.263 285.062 34.197C285.506 34.182 285.896 34.233 286.007 34.7761C286.028 34.8781 286.137 34.9771 286.23 35.0522C286.5 35.2712 286.782 35.4783 287.058 35.6913C287.061 65.7821 287.061 95.8669 287.061 125.952ZM123.8 133.492C125.711 134.18 127.068 135.479 128.259 136.937C129.681 138.681 131.113 140.43 132.355 142.299C137.852 150.578 142.224 159.445 145.909 168.66C146.02 168.936 146.134 169.209 146.188 169.341C147.307 169.26 148.3 169.128 149.297 169.122C162.305 169.041 175.312 168.99 188.317 168.906C210.396 168.765 232.475 168.621 254.554 168.444C261.066 168.393 267.574 168.213 274.086 168.126C274.773 168.117 274.911 167.886 274.899 167.25C274.791 162.113 274.689 156.979 274.638 151.842C274.533 141.087 274.461 130.33 274.377 119.575C274.296 108.995 274.2 98.4145 274.137 87.8311C274.059 74.124 274.005 60.4169 273.945 46.7098C273.939 45.6926 273.945 45.6806 272.904 45.6896C262.215 45.7916 251.524 45.8846 240.835 46.0106C226.561 46.1757 212.287 46.3737 198.013 46.5478C190.34 46.6408 182.667 46.7098 174.994 46.8028C164.741 46.9258 154.491 47.0639 144.237 47.1959C133.789 47.3279 123.341 47.466 112.892 47.586C99.0113 47.745 85.1301 47.9071 71.249 48.0391C57.848 48.1681 44.4499 48.2641 31.0489 48.3752C30.8839 48.3752 30.7188 48.4142 30.5598 48.4322C30.6918 52.5041 30.8539 56.519 30.9499 60.5369C31.1899 70.7002 31.4 80.8635 31.622 91.0238C31.7901 98.7595 31.9641 106.498 32.1322 114.234C32.3602 124.832 32.5853 135.434 32.8103 146.035C32.9603 153.159 33.1044 160.285 33.2514 167.409C33.2904 169.287 33.3474 171.169 33.3624 173.047C33.3654 173.566 33.5365 173.755 34.0556 173.698C34.6197 173.638 35.1898 173.611 35.757 173.602C40.39 173.515 45.0231 173.428 49.6561 173.356C50.9014 173.338 52.1497 173.344 53.392 173.413C53.9021 173.44 54.0641 173.314 54.1511 172.816C55.1414 167.235 56.5247 161.756 58.5291 156.448C60.1465 152.163 62.0789 148.034 64.6595 144.232C66.3279 141.771 68.2123 139.515 70.9189 138.104C70.9639 138.08 70.9819 138.002 71.0149 137.945C70.9669 137.885 70.9369 137.825 70.8889 137.783C67.2191 134.669 64.3444 130.939 62.256 126.606C62.0699 126.222 61.8779 126.177 61.4908 126.303C60.0085 126.786 58.5591 126.66 57.1698 125.958C55.2674 124.994 54.0371 123.383 53.0949 121.556C51.3005 118.078 50.8804 114.357 51.4115 110.525C51.7776 107.891 52.6238 105.412 54.3822 103.354C55.8015 101.694 57.5239 100.59 59.8404 100.725C60.0175 100.734 60.2965 100.452 60.3865 100.245C61.2717 98.1804 61.9649 96.0169 63.0211 94.0455C69.9227 81.1636 80.8602 74.292 95.2664 72.9087C102.555 72.2095 109.496 73.7429 115.923 77.3077C124.025 81.8027 129.537 88.4612 132.382 97.2982C132.46 97.5383 132.544 97.7783 132.628 98.0214C132.763 97.9914 132.826 97.9854 132.883 97.9614C135.25 96.8871 137.33 97.4662 138.665 99.7198C139.235 100.683 139.685 101.763 139.965 102.846C140.955 106.69 140.616 110.525 139.616 114.312C138.827 117.298 137.63 120.097 135.557 122.45C134.707 123.413 133.726 124.205 132.508 124.661C131.416 125.069 130.941 124.946 130.134 124.016C128.52 127.506 126.293 130.54 123.8 133.492ZM70.9939 140.112C70.7089 140.322 70.5198 140.427 70.3758 140.577C69.4906 141.48 68.5364 142.332 67.7532 143.317C64.1494 147.842 61.9199 153.084 59.9965 158.47C57.5029 165.453 55.8765 172.636 55.1984 180.021C54.8593 183.706 54.8233 187.394 55.2134 191.081C55.2584 191.51 55.4084 191.79 55.8375 191.874C57.0348 192.105 58.2231 192.441 59.4293 192.525C61.6588 192.678 63.8823 192.522 66.0398 191.841C66.4479 191.712 66.661 191.543 66.5769 191.051C66.0788 188.147 66.0668 185.224 66.3039 182.295C66.874 175.25 68.6474 168.537 71.8581 162.227C72.1852 161.588 72.5483 160.958 72.9834 160.387C73.1334 160.192 73.6165 160.06 73.8266 160.159C74.0216 160.249 74.1326 160.685 74.1386 160.97C74.1446 161.234 73.9736 161.504 73.8656 161.768C72.9714 163.949 71.9722 166.092 71.198 168.312C68.8184 175.13 67.6212 182.127 68.3743 189.371C68.6624 192.132 69.3046 194.793 70.6699 197.242C71.495 198.721 72.5933 199.909 74.2467 200.428C76.2631 201.062 78.2706 201.776 80.338 202.19C86.8735 203.498 93.505 203.84 100.155 203.834C101.091 203.834 101.106 203.822 101.076 202.859C100.827 194.34 100.53 185.821 100.335 177.302C100.104 167.187 99.9565 157.072 99.7704 146.956C99.7674 146.788 99.7374 146.62 99.7194 146.434C98.8792 146.434 98.078 146.422 97.2769 146.437C90.4683 146.563 83.6808 146.341 77.0433 144.64C75.498 144.244 74.0156 143.533 72.5813 142.815C71.6151 142.338 70.9909 141.462 70.9939 140.112ZM72.7433 201.968C72.6773 202.253 72.6203 202.439 72.5963 202.631C72.2662 205.386 71.8611 208.131 71.6271 210.895C71.0269 218.015 71.399 225.088 72.9744 232.071C73.7546 235.536 74.8528 238.888 76.7252 241.955C77.2894 242.879 78.0155 243.413 79.0628 243.518C81.9524 243.809 84.8361 244.181 87.7317 244.343C91.7676 244.568 95.8095 244.637 99.8335 244.043C100.371 243.962 100.617 243.776 100.701 243.212C101.022 241.052 101.349 238.891 101.766 236.749C102.213 234.435 102.759 232.137 103.272 229.835C103.368 229.403 103.5 228.965 104.073 228.947C104.65 228.929 104.779 229.361 104.923 229.784C105.028 230.093 105.148 230.399 105.244 230.711C106.6 235.089 107.956 239.47 109.31 243.851C109.424 244.22 109.49 244.523 110.036 244.448C112.112 244.169 114.198 243.95 116.28 243.704C119.794 243.287 123.305 242.843 126.825 242.468C127.683 242.375 128.133 242.012 128.415 241.214C130.218 236.098 131.29 230.813 131.893 225.442C132.334 221.517 132.637 217.571 132.868 213.628C133.099 209.626 132.868 205.635 132.142 201.68C132.106 201.479 132.016 201.287 131.941 201.059C131.707 201.152 131.542 201.203 131.389 201.278C128.715 202.625 125.876 203.507 122.963 204.089C117.465 205.188 111.893 205.71 106.3 205.902C98.3781 206.175 90.4773 205.875 82.6426 204.608C79.5009 204.098 76.3591 203.519 73.4425 202.136C73.2444 202.052 73.0194 202.037 72.7433 201.968ZM103.209 203.636C104.902 203.636 106.477 203.693 108.043 203.624C112.652 203.423 117.246 203.018 121.765 202.043C123.875 201.587 125.987 201.098 128.04 200.44C130.443 199.675 132.091 198.163 132.628 195.501C133.132 193.005 133.495 190.508 133.591 187.973C133.789 182.73 133.198 177.542 132.346 172.381C131.686 168.375 130.638 164.48 128.808 160.835C128.397 160.015 127.89 159.247 127.452 158.443C127.218 158.014 127.149 157.534 127.59 157.195C128.013 156.871 128.466 156.982 128.847 157.315C129.075 157.516 129.276 157.753 129.462 157.993C130.683 159.568 131.467 161.375 132.118 163.235C134.734 170.71 136.007 178.413 135.932 186.334C135.92 187.49 136.109 187.748 137.204 188.114C137.45 188.195 137.708 188.264 137.966 188.297C141.048 188.681 143.709 187.613 146.203 185.926C147.307 185.179 147.664 184.135 147.589 182.878C147.559 182.355 147.517 181.83 147.433 181.314C146.899 177.974 145.852 174.776 144.685 171.619C140.574 160.522 135.28 150.026 128.4 140.379C127.23 138.738 125.765 137.291 124.322 135.869C123.41 134.972 123.269 135.074 122.495 136.067C122.435 136.145 122.381 136.226 122.315 136.322C122.498 136.484 122.645 136.61 122.792 136.739C124.208 138.005 124.259 139.485 122.927 140.835C122.699 141.066 122.441 141.276 122.173 141.465C120.433 142.698 118.429 143.338 116.412 143.914C111.917 145.192 107.314 145.834 102.663 146.185C102.144 146.224 101.436 146.131 101.172 146.422C100.92 146.701 101.133 147.401 101.142 147.917C101.142 147.938 101.145 147.962 101.148 147.983C101.448 154.641 101.796 161.3 102.036 167.961C102.399 178.097 102.681 188.234 103.002 198.37C103.059 200.149 103.143 201.935 103.209 203.636ZM284.462 35.5893C284.45 35.5443 284.438 35.5023 284.423 35.4572C284.129 35.4572 283.835 35.4482 283.541 35.4572C278.713 35.6073 273.888 35.7663 269.06 35.9073C261.567 36.1294 254.074 36.3545 246.579 36.5585C238.123 36.7895 229.667 37.0026 221.211 37.2186C212.647 37.4377 204.08 37.6507 195.516 37.8728C187.147 38.0888 178.778 38.3109 170.412 38.5299C162.001 38.749 153.588 38.968 145.177 39.1871C136.742 39.4061 128.307 39.6282 119.872 39.8412C111.089 40.0633 102.303 40.2793 93.52 40.4984C84.56 40.7204 75.603 40.9575 66.6429 41.1555C58.9942 41.3266 51.3455 41.4496 43.6968 41.6026C43.4777 41.6056 43.2407 41.6987 43.0426 41.8037C42.6405 42.0167 42.2805 42.3048 41.8694 42.4938C39.4478 43.6041 37.0173 44.6933 34.5927 45.7916C34.4367 45.8636 34.2926 45.9686 34.1456 46.0586C34.4547 46.1817 34.7127 46.1847 34.9708 46.1817C44.2609 46.0286 53.548 45.8636 62.8381 45.7286C72.9804 45.5815 83.1227 45.4615 93.262 45.3295C103.293 45.2004 113.327 45.0654 123.359 44.9394C134.134 44.8044 144.91 44.6753 155.685 44.5433C169.869 44.3693 184.056 44.1892 198.241 44.0152C208.974 43.8831 219.705 43.7691 230.438 43.6281C244.25 43.4481 258.065 43.25 271.877 43.04C272.288 43.034 272.747 42.8989 273.099 42.6829C276.726 40.4504 280.339 38.1909 283.955 35.9374C284.129 35.8293 284.291 35.7063 284.462 35.5893ZM276.189 43.055C276.381 44.1382 276.66 45.0474 276.681 45.9626C276.831 52.4321 276.96 58.9015 277.038 65.371C277.194 78.4209 277.315 91.4709 277.45 104.521C277.528 112.086 277.624 119.647 277.684 127.212C277.792 140.373 277.879 153.534 277.978 166.692C277.981 166.914 278.002 167.136 278.02 167.436C278.191 167.325 278.272 167.289 278.329 167.232C280.372 165.165 282.419 163.1 284.444 161.012C284.63 160.82 284.723 160.474 284.735 160.192C284.78 159.079 284.786 157.963 284.792 156.85C284.882 138.507 284.936 120.166 285.068 101.823C285.221 80.4434 285.443 59.0636 285.635 37.6868C285.638 37.4617 285.635 37.2366 285.635 36.8826C282.35 39.0311 279.196 41.0925 276.189 43.055ZM122.834 131.638C122.912 131.704 122.99 131.77 123.068 131.836C123.188 131.632 123.278 131.398 123.434 131.224C125.327 129.108 126.879 126.744 128.151 124.226C131.143 118.306 132.466 112.017 131.926 105.382C131.347 98.2734 128.778 91.921 124.07 86.5948C115.554 76.9626 104.71 73.5869 92.1487 75.3663C86.0603 76.2275 80.6861 78.844 75.798 82.5019C71.195 85.9466 67.4771 90.1716 64.8846 95.3208C61.6588 101.733 60.3745 108.509 61.2807 115.662C62.1179 122.27 64.7735 128.064 69.1365 133.084C69.2745 133.243 69.4426 133.375 69.5986 133.519C69.6106 133.234 69.5356 133.033 69.4396 132.841C67.2671 128.424 66.1178 123.719 65.8358 118.837C65.3317 110.105 67.2731 101.946 72.0592 94.5616C75.4199 89.3764 79.7769 85.2445 85.4002 82.5739C91.3325 79.7533 97.5259 78.9551 103.905 80.6985C111.272 82.7119 116.931 87.1709 120.874 93.6104C127.8 104.92 128.295 116.872 123.842 129.183C123.545 130.018 123.173 130.822 122.834 131.638ZM120.295 137.171C119.839 137.435 119.332 137.63 118.951 137.963C117.468 139.26 115.662 139.842 113.832 140.355C108.853 141.75 103.731 142.104 98.6002 142.299C93.9881 142.473 89.3881 142.311 84.8031 141.711C81.1182 141.228 77.4304 140.808 73.9496 139.401C73.5025 139.221 73.2204 139.275 72.9474 139.659C72.6563 140.064 72.6743 140.46 73.0074 140.784C73.3315 141.099 73.6975 141.42 74.1086 141.585C75.2999 142.065 76.4972 142.569 77.7365 142.879C81.7394 143.869 85.8323 144.211 89.9402 144.334C96.1486 144.52 102.342 144.265 108.502 143.422C111.944 142.951 115.383 142.419 118.645 141.171C119.692 140.772 120.679 140.175 121.615 139.548C122.267 139.113 122.204 138.603 121.588 138.104C121.174 137.78 120.739 137.492 120.295 137.171ZM59.6844 102.621C58.6041 102.612 57.7549 102.918 57.0108 103.492C55.8555 104.383 55.0573 105.562 54.5142 106.891C52.9058 110.828 52.8098 114.84 54.0761 118.882C54.6372 120.676 55.4624 122.333 57.0018 123.524C57.932 124.244 58.9702 124.658 60.1675 124.52C61.1547 124.406 61.2117 124.301 60.8787 123.395C58.8082 117.763 58.2291 111.975 59.0812 106.042C59.2433 104.926 59.4713 103.819 59.6844 102.621ZM130.812 122.717C131.269 122.549 131.626 122.456 131.944 122.294C133.342 121.58 134.26 120.385 135.013 119.062C137.291 115.062 138.218 110.732 138.032 106.162C137.951 104.191 137.633 102.246 136.445 100.566C135.758 99.5937 134.848 99.2096 133.666 99.3867C133.141 99.4647 132.979 99.5997 133.105 100.176C134.53 106.732 134.167 113.193 131.995 119.545C131.647 120.571 131.242 121.574 130.812 122.717ZM80.4041 104.017C80.335 103.627 80.26 102.975 80.104 102.345C79.5429 100.107 76.0231 98.7745 74.1326 100.941C72.6833 102.6 71.9571 104.47 72.2212 106.657C72.3892 108.044 72.9504 109.286 74.1536 110.093C75.552 111.032 77.6974 110.549 78.8317 109.067C79.9059 107.66 80.317 106.024 80.4041 104.017ZM81.8114 94.2615C81.8684 93.6494 81.7454 93.0222 81.0222 92.7132C80.275 92.3921 79.6089 92.6081 79.0237 93.1153C78.3186 93.7244 78.0635 94.5526 77.9795 95.4408C77.9195 96.0619 78.0665 96.6261 78.6247 96.9861C79.2128 97.3672 79.8309 97.3402 80.4191 96.9831C81.3973 96.386 81.8534 95.4978 81.8114 94.2615Z" fill="#4A5364"/>
<path d="M259.665 202.595C259.665 203.126 259.32 203.504 258.834 203.483C258.33 203.462 258.087 203.15 258.054 202.682C258.018 202.187 258.51 201.659 258.963 201.662C259.386 201.668 259.668 202.04 259.665 202.595Z" fill="#4A5364"/>
<path d="M164.264 255.266C164.696 255.293 165.059 255.452 165.134 255.947C165.188 256.313 164.612 256.796 164.138 256.787C163.673 256.781 163.391 256.514 163.4 256.058C163.412 255.548 163.733 255.284 164.264 255.266Z" fill="#4A5364"/>
<path d="M40.3992 259.694C40.0001 259.997 39.7601 260.325 39.475 260.367C39.0009 260.436 38.8359 260.036 38.9109 259.622C38.9829 259.208 39.0429 258.614 39.571 258.665C39.8351 258.692 40.0541 259.244 40.3992 259.694Z" fill="#4A5364"/>
<path d="M206.643 31.2352C206.538 31.6973 206.508 32.0543 206.367 32.3604C206.292 32.5194 206.013 32.6695 205.833 32.6635C205.716 32.6605 205.524 32.3634 205.518 32.1954C205.506 31.8323 205.545 31.4512 205.662 31.1121C205.719 30.9531 206.04 30.752 206.184 30.7911C206.379 30.8451 206.52 31.1061 206.643 31.2352Z" fill="#4A5364"/>
<path d="M34.4308 223.671C35.133 223.71 35.376 223.989 35.373 224.437C35.37 224.86 35.139 225.13 34.6799 225.112C34.2028 225.094 33.9237 224.779 33.9747 224.362C34.0077 224.079 34.3138 223.833 34.4308 223.671Z" fill="#4A5364"/>
<path d="M162.52 206.412C162.346 206.177 162.058 205.961 162.022 205.706C161.962 205.277 162.217 204.89 162.691 204.959C162.92 204.992 163.271 205.352 163.262 205.55C163.253 205.841 162.968 206.12 162.8 206.406C162.706 206.409 162.613 206.412 162.52 206.412Z" fill="#4A5364"/>
<path d="M251.772 19.7516C251.895 19.9377 252.162 20.1987 252.111 20.2917C251.946 20.5978 251.67 20.8439 251.436 21.1139C251.259 20.9369 250.899 20.7028 250.935 20.5948C251.037 20.2767 251.295 20.0127 251.493 19.7246C251.586 19.7336 251.679 19.7426 251.772 19.7516Z" fill="#4A5364"/>
<path d="M98.8345 266.626C98.6095 266.569 98.2944 266.584 98.1804 266.44C97.9914 266.203 97.9343 265.861 97.8203 265.564C98.0064 265.516 98.3004 265.378 98.3544 265.441C98.5975 265.729 98.7715 266.074 98.9726 266.398C98.9246 266.473 98.8796 266.548 98.8345 266.626Z" fill="#4A5364"/>
<path d="M193.467 233.367C193.245 233.511 193.02 233.769 192.801 233.766C192.618 233.763 192.438 233.454 192.258 233.28C192.459 233.094 192.633 232.811 192.867 232.751C193.026 232.709 193.263 232.98 193.467 233.109C193.467 233.199 193.467 233.283 193.467 233.367Z" fill="#4A5364"/>
<path d="M143.257 23.3224C142.938 23.5955 142.782 23.8385 142.605 23.8565C142.158 23.9015 142.077 23.5265 142.122 23.1964C142.149 22.9893 142.341 22.8063 142.461 22.6143C142.683 22.8123 142.908 23.0103 143.257 23.3224Z" fill="#4A5364"/>
<path d="M81.418 31.0189C81.097 31.277 80.8929 31.442 80.6859 31.6101C80.5568 31.394 80.3138 31.169 80.3288 30.9649C80.3498 30.7129 80.5868 30.4788 80.7309 30.2388C80.9289 30.4638 81.124 30.6859 81.418 31.0189Z" fill="#4A5364"/>
<path d="M204.098 204.302C203.828 204.464 203.576 204.671 203.284 204.758C203.191 204.785 203.002 204.485 202.858 204.335C203.08 204.146 203.281 203.9 203.54 203.792C203.66 203.741 203.894 203.951 204.074 204.041C204.08 204.128 204.089 204.215 204.098 204.302Z" fill="#4A5364"/>
<path d="M224.611 227.47C224.389 227.281 224.263 227.17 224.134 227.062C224.428 226.885 224.707 226.678 225.019 226.549C225.091 226.519 225.271 226.75 225.4 226.861C225.154 227.053 224.905 227.245 224.611 227.47Z" fill="#4A5364"/>
<path d="M193.302 178.542C193.269 178.05 193.227 177.716 193.236 177.386C193.239 177.302 193.395 177.203 193.5 177.152C193.545 177.131 193.701 177.212 193.707 177.26C193.761 177.662 193.944 178.101 193.302 178.542Z" fill="#4A5364"/>
<path d="M40.0689 197.698C39.9069 197.428 39.7058 197.218 39.7478 197.143C39.8559 196.951 40.0719 196.821 40.2429 196.668C40.345 196.806 40.552 196.975 40.525 197.077C40.474 197.266 40.285 197.422 40.0689 197.698Z" fill="#4A5364"/>
<path d="M61.1275 233.385C60.9564 233.595 60.8484 233.73 60.7374 233.868C60.6293 233.733 60.4463 233.607 60.4313 233.463C60.4193 233.322 60.5813 233.166 60.6653 233.019C60.7974 233.124 60.9324 233.229 61.1275 233.385Z" fill="#4A5364"/>
<path d="M210.817 130.654C210.232 130.768 209.725 130.879 209.212 130.96C208.98 130.996 208.692 131.059 208.509 130.963C208.227 130.813 207.864 130.564 207.813 130.303C207.765 130.045 207.987 129.564 208.218 129.45C209.899 128.631 211.657 128.058 213.566 128.172C214.124 128.205 214.547 128.472 214.61 129.063C214.673 129.664 214.283 129.976 213.758 130.141C213.512 130.216 213.259 130.276 212.989 130.348C213.121 131.494 213.235 132.616 213.4 133.732C213.425 133.885 213.704 134.063 213.896 134.12C214.958 134.423 215.843 134.993 216.581 135.8C216.77 136.007 216.935 136.25 217.055 136.499C217.271 136.94 217.301 137.402 216.917 137.771C216.524 138.149 216.062 138.065 215.648 137.813C215.219 137.555 214.829 137.234 214.418 136.946C214.196 136.79 213.965 136.646 213.605 136.406C213.668 137.777 213.725 138.987 213.776 140.196C213.812 141.048 213.848 141.897 213.869 142.749C213.875 143.011 213.869 143.281 213.803 143.53C213.653 144.1 213.337 144.538 212.683 144.541C212.038 144.544 211.645 144.136 211.549 143.554C211.399 142.653 211.312 141.735 211.27 140.823C211.126 137.66 211.015 134.495 210.889 131.332C210.886 131.146 210.85 130.954 210.817 130.654Z" fill="#4A5364"/>
<path d="M185.805 102.324C185.947 103.512 186.106 104.698 186.22 105.889C186.286 106.582 186.319 107.284 186.301 107.98C186.277 108.803 185.823 109.34 185.199 109.391C184.569 109.442 184.032 108.998 183.936 108.155C183.69 106.009 183.492 103.858 183.315 101.703C183.21 100.425 183.174 99.1375 183.105 97.7722C182.352 97.9132 181.656 98.0452 180.956 98.1683C180.083 98.3213 179.516 98.1593 179.435 97.6821C179.306 96.917 179.933 96.7399 180.452 96.5389C181.587 96.1008 182.724 95.6507 183.885 95.2996C184.65 95.0686 185.46 94.9755 186.256 94.8645C186.802 94.7895 187.276 94.9635 187.414 95.5697C187.543 96.1308 187.207 96.4729 186.751 96.7189C186.58 96.812 186.391 96.878 186.205 96.938C185.304 97.238 185.349 97.235 185.394 98.2043C185.436 99.1315 185.691 99.6806 186.664 100.14C187.768 100.662 188.674 101.637 189.589 102.498C190.12 102.999 190.093 103.635 189.685 104.02C189.199 104.476 188.668 104.365 188.191 104.02C187.663 103.635 187.177 103.191 186.67 102.777C186.439 102.591 186.199 102.414 185.962 102.234C185.911 102.264 185.86 102.294 185.805 102.324Z" fill="#4A5364"/>
<path d="M238.242 130.041C237.921 130.02 237.657 130.026 237.405 129.978C236.967 129.897 236.625 129.681 236.568 129.189C236.514 128.712 236.736 128.289 237.177 128.232C238.509 128.058 239.854 127.944 241.195 127.887C241.426 127.878 241.819 128.217 241.87 128.451C241.918 128.676 241.666 129.027 241.456 129.228C241.216 129.456 240.676 129.531 240.622 129.759C240.496 130.29 240.583 130.873 240.583 131.437C240.949 131.494 241.297 131.485 241.585 131.611C241.855 131.728 242.209 131.962 242.254 132.196C242.299 132.436 242.077 132.808 241.864 133C241.597 133.237 241.21 133.336 240.889 133.519C240.733 133.609 240.502 133.747 240.49 133.876C240.406 134.89 240.367 135.911 240.31 137.003C240.712 136.973 241.006 136.94 241.306 136.931C241.915 136.913 242.53 136.85 243.133 136.916C243.68 136.979 244.13 137.273 244.163 137.921C244.196 138.557 243.8 138.887 243.257 139.037C242.818 139.16 242.359 139.22 241.906 139.28C240.628 139.455 239.353 139.62 238.071 139.779C237.768 139.818 237.462 139.842 237.156 139.842C236.319 139.848 235.797 139.491 235.725 138.89C235.653 138.296 236.067 137.801 236.928 137.69C237.69 137.591 237.966 137.276 237.927 136.514C237.891 135.806 237.993 135.089 238.038 134.317C237.771 134.35 237.603 134.371 237.435 134.389C236.979 134.443 236.529 134.32 236.433 133.867C236.364 133.54 236.484 133.087 236.688 132.817C236.892 132.547 237.285 132.379 237.63 132.271C238.089 132.127 238.251 131.845 238.245 131.404C238.236 130.975 238.242 130.543 238.242 130.041Z" fill="#4A5364"/>
<path d="M157.77 62.6552C157.473 62.7543 157.254 62.8353 157.032 62.8983C156.567 63.0303 156.141 62.9613 155.886 62.5232C155.622 62.0671 155.748 61.641 156.111 61.2779C156.171 61.2149 156.237 61.1549 156.312 61.1099C157.536 60.3177 158.85 59.7416 160.306 59.5615C160.816 59.4985 161.398 59.4445 161.635 60.0926C161.824 60.6088 161.536 61.0679 160.846 61.4189C159.871 61.9171 159.907 61.9141 159.961 63.0123C160.015 64.1166 160.042 65.0378 161.527 65.3078C162.574 65.4999 163.424 66.3581 164 67.3363C164.27 67.7894 164.444 68.2965 163.973 68.7076C163.529 69.0947 163.069 68.8546 162.661 68.5666C162.145 68.2005 161.641 67.8134 161.125 67.4503C160.918 67.3063 160.687 67.1983 160.324 66.9912C160.444 68.2635 160.534 69.3827 160.657 70.499C160.744 71.3002 160.879 72.0984 160.975 72.8995C161.101 73.9378 160.813 74.5229 160.144 74.6369C159.427 74.76 158.826 74.3039 158.664 73.3166C158.43 71.8973 158.256 70.466 158.148 69.0317C158.001 67.0722 157.941 65.1068 157.839 63.1443C157.83 63.0183 157.803 62.8893 157.77 62.6552Z" fill="#4A5364"/>
<path d="M197.398 101.874C197.239 101.874 197.176 101.865 197.113 101.874C196.647 101.949 196.152 102.03 195.939 101.472C195.723 100.902 196.083 100.521 196.548 100.329C197.314 100.008 197.584 99.4797 197.482 98.6846C197.437 98.3215 197.473 97.9494 197.473 97.4783C197.095 97.5863 196.776 97.6793 196.458 97.7724C195.984 97.9104 195.561 97.8234 195.336 97.3703C195.105 96.9082 195.282 96.452 195.72 96.257C196.989 95.6929 198.274 95.1618 199.582 94.6997C200.017 94.5466 200.524 94.7087 200.713 95.2308C200.875 95.6749 200.731 96.155 200.296 96.275C199.348 96.5331 199.498 97.1932 199.579 97.8594C199.603 98.0484 199.639 98.2345 199.672 98.4295C200.086 98.3725 200.467 98.2284 200.803 98.3005C201.139 98.3725 201.608 98.6065 201.689 98.8736C201.773 99.1437 201.533 99.6148 201.289 99.8548C201.01 100.131 200.584 100.281 200.203 100.434C199.846 100.578 199.699 100.794 199.714 101.178C199.735 101.826 199.72 102.474 199.72 103.192C200.236 103.126 200.617 103.054 201.001 103.033C201.86 102.985 202.349 103.243 202.43 103.753C202.517 104.293 202.172 104.689 201.364 104.95C200.41 105.259 199.453 105.553 198.502 105.865C198.172 105.973 197.86 106.21 197.53 106.225C197.227 106.24 196.749 106.117 196.647 105.91C196.524 105.655 196.59 105.079 196.785 104.941C197.455 104.47 197.479 103.87 197.407 103.171C197.362 102.744 197.398 102.312 197.398 101.874Z" fill="#4A5364"/>
<path d="M181.722 62.7092C181.413 62.7392 181.167 62.8382 180.999 62.7632C180.69 62.6252 180.264 62.4331 180.186 62.1721C180.108 61.914 180.315 61.3649 180.543 61.2569C181.404 60.8548 182.316 60.5517 183.228 60.2786C183.444 60.2126 183.88 60.3386 183.964 60.5037C184.069 60.7107 183.931 61.0528 183.874 61.3319C183.847 61.4729 183.705 61.6109 183.724 61.737C183.826 62.4691 183.958 63.1953 184.09 63.9785C184.432 63.9455 184.78 63.8464 185.107 63.8975C185.419 63.9485 185.905 64.0985 185.962 64.2995C186.046 64.6086 185.917 65.0707 185.71 65.3378C185.455 65.6678 184.999 65.8329 184.687 66.13C184.483 66.325 184.264 66.6251 184.252 66.8861C184.222 67.5103 184.312 68.1434 184.36 68.8666C184.612 68.7946 184.807 68.7285 185.005 68.6865C185.365 68.6145 185.731 68.4975 186.091 68.5035C186.901 68.5155 187.282 69.2777 186.796 69.9378C186.571 70.2439 186.25 70.5319 185.905 70.682C184.771 71.1801 183.609 71.6212 182.454 72.0653C182.259 72.1403 182.022 72.1463 181.809 72.1313C181.335 72.0983 180.885 71.8733 180.876 71.3871C180.87 71.0421 181.095 70.5229 181.371 70.3789C181.968 70.0668 182.109 69.6888 181.995 69.0766C181.905 68.6085 181.947 68.1134 181.851 67.6453C181.788 67.3392 181.641 67.0092 181.428 66.7841C181.038 66.373 180.87 65.8629 181.26 65.5118C181.8 65.0257 181.719 64.4766 181.719 63.9005C181.722 63.5194 181.722 63.1353 181.722 62.7092Z" fill="#4A5364"/>
<path d="M224.929 137.985C225.469 137.949 225.889 137.853 226.285 137.916C226.564 137.961 226.939 138.171 227.029 138.402C227.122 138.642 226.987 139.035 226.831 139.287C226.693 139.509 226.414 139.695 226.159 139.782C225.151 140.121 224.134 140.448 223.104 140.709C222.624 140.832 222.117 140.703 221.859 140.208C221.565 139.644 221.859 139.227 222.336 138.957C222.738 138.729 222.849 138.438 222.789 137.997C222.735 137.588 222.747 137.168 222.75 136.754C222.756 136.271 222.756 135.848 222.267 135.509C221.838 135.212 221.958 134.639 222.333 134.18C222.543 133.922 222.72 133.565 222.744 133.24C222.804 132.487 222.762 131.725 222.762 130.957C222.393 130.879 222.036 130.9 221.817 130.735C221.532 130.525 221.223 130.189 221.169 129.868C221.1 129.448 221.451 129.196 221.901 129.109C222.777 128.938 223.644 128.721 224.521 128.541C224.752 128.493 225.004 128.475 225.235 128.514C225.874 128.622 226.075 129.169 225.685 129.679C225.646 129.73 225.607 129.802 225.553 129.82C224.32 130.237 224.674 131.194 224.785 132.067C224.824 132.367 224.863 132.664 224.908 133.003C225.238 132.982 225.547 132.904 225.826 132.964C226.075 133.018 226.402 133.18 226.489 133.382C226.576 133.583 226.477 133.946 226.333 134.147C226.15 134.402 225.868 134.633 225.58 134.756C224.989 135.008 224.878 135.431 224.917 136.013C224.962 136.652 224.929 137.306 224.929 137.985Z" fill="#4A5364"/>
<path d="M213.676 103.534C214.03 103.489 214.399 103.372 214.741 103.423C215.045 103.468 215.477 103.642 215.561 103.867C215.648 104.104 215.456 104.527 215.258 104.758C215.042 105.007 214.699 105.205 214.375 105.292C213.226 105.607 212.065 105.88 210.898 106.129C210.613 106.189 210.24 106.183 210.003 106.045C209.721 105.88 209.367 105.541 209.364 105.277C209.361 105.025 209.73 104.65 210.015 104.545C210.661 104.308 211.357 104.206 211.9 104.077C211.771 103.113 211.669 102.234 211.519 101.367C211.489 101.193 211.279 101.037 211.129 100.902C210.889 100.686 210.454 100.518 210.418 100.281C210.373 99.9868 210.607 99.6117 210.802 99.3296C210.976 99.0746 211.429 98.9185 211.459 98.6815C211.543 98.0183 211.486 97.3342 211.441 96.659C211.435 96.566 211.186 96.464 211.036 96.407C210.58 96.2329 210.267 95.9539 210.364 95.4288C210.454 94.9306 210.853 94.8376 211.294 94.7746C211.939 94.6816 212.569 94.4865 213.217 94.4235C213.541 94.3905 214.03 94.4445 214.186 94.6516C214.456 95.0117 214.186 95.4258 213.826 95.6388C213.313 95.9389 213.217 96.314 213.424 96.8391C213.502 97.0401 213.544 97.2652 213.547 97.4782C213.553 97.9943 213.754 98.2194 214.303 98.1534C214.693 98.1054 215.21 98.1354 215.24 98.6185C215.258 98.9216 214.973 99.4137 214.702 99.5277C213.865 99.8788 213.697 100.446 213.763 101.277C213.817 102 213.712 102.741 213.676 103.534Z" fill="#4A5364"/>
<path d="M168.846 69.188C167.651 68.777 167.486 68.0988 168.414 67.2586C168.78 66.9285 168.921 66.5835 168.888 66.1154C168.864 65.7883 168.876 65.4582 168.897 65.1341C168.933 64.591 169.017 64.1049 168.252 63.8979C167.732 63.7568 167.669 62.9706 168.132 62.5836C168.942 61.9024 169.872 61.3983 170.949 61.3263C171.213 61.3083 171.606 61.5183 171.738 61.7434C171.849 61.9294 171.768 62.4305 171.6 62.5536C170.478 63.3547 171.093 64.441 170.991 65.4702C171.207 65.4702 171.366 65.4342 171.495 65.4792C171.78 65.5782 172.2 65.6563 172.29 65.8633C172.387 66.0853 172.263 66.5925 172.071 66.7185C170.655 67.6457 171.147 68.99 171.177 70.3013C171.477 70.2623 171.726 70.2113 171.978 70.2023C172.681 70.1783 173.08 70.7394 172.693 71.3305C172.017 72.3628 171.024 73.0619 169.86 73.437C169.224 73.6411 168.792 73.1009 168.825 72.4708C168.888 71.3785 168.846 70.2803 168.846 69.188Z" fill="#4A5364"/>
<path d="M231.02 132.376C231.077 131.71 231.122 131.149 231.179 130.587C231.254 129.84 231.599 129.42 232.151 129.393C232.73 129.363 233.21 129.78 233.216 130.554C233.231 132.121 233.162 133.69 233.072 135.256C233.024 136.124 232.889 136.991 232.745 137.849C232.607 138.671 232.148 139.091 231.53 139.049C230.891 139.004 230.501 138.491 230.531 137.612C230.558 136.829 230.636 136.046 230.738 135.268C230.786 134.902 230.705 134.707 230.36 134.557C229.88 134.353 229.409 134.119 228.964 133.846C228.478 133.546 228.196 133.099 228.451 132.517C228.706 131.944 229.202 131.83 229.769 131.989C230.159 132.097 230.546 132.226 231.02 132.376Z" fill="#4A5364"/>
<path d="M175.748 65.7191C175.748 65.008 175.715 64.2938 175.757 63.5826C175.814 62.5984 176.12 62.1723 176.684 62.1633C177.281 62.1513 177.621 62.5954 177.654 63.6127C177.717 65.5091 177.735 67.4055 177.753 69.3019C177.756 69.602 177.753 69.9471 177.614 70.1961C177.455 70.4872 177.143 70.8983 176.903 70.8953C176.606 70.8893 176.141 70.5652 176.057 70.2832C175.85 69.605 175.823 68.8728 175.724 68.1617C175.703 68.0146 175.685 67.8646 175.664 67.6906C174.824 67.5705 174.2 67.1234 173.738 66.4543C173.441 66.0252 173.357 65.5541 173.732 65.128C174.101 64.7109 174.545 64.7379 174.95 65.077C175.178 65.269 175.358 65.5211 175.556 65.7461C175.622 65.7401 175.685 65.7281 175.748 65.7191Z" fill="#4A5364"/>
<path d="M205.218 98.3871C205.269 97.892 205.302 97.4569 205.362 97.0248C205.434 96.4907 205.647 96.0106 206.25 95.9746C206.871 95.9355 207.177 96.3796 207.189 96.9318C207.228 98.9782 207.225 101.028 207.225 103.074C207.225 103.242 207.189 103.464 207.081 103.566C206.814 103.815 206.502 104.166 206.199 104.178C205.935 104.187 205.485 103.824 205.419 103.554C205.254 102.864 205.197 102.135 205.215 101.421C205.233 100.71 205.194 100.173 204.347 99.9565C203.855 99.8304 203.579 99.3773 203.684 98.8192C203.81 98.141 204.413 97.949 205.218 98.3871Z" fill="#4A5364"/>
<path d="M259.41 233.256C259.188 233.043 259.062 232.92 258.933 232.797C259.227 232.596 259.506 232.368 259.818 232.221C259.89 232.188 260.07 232.446 260.199 232.572C259.953 232.788 259.704 233.004 259.41 233.256Z" fill="#4A5364"/>
<path d="M274.712 252.949C274.49 252.76 274.364 252.649 274.235 252.541C274.529 252.364 274.808 252.157 275.121 252.028C275.193 251.998 275.373 252.229 275.502 252.34C275.256 252.532 275.007 252.721 274.712 252.949Z" fill="#4A5364"/>
<path d="M31.4423 20.5348C31.4423 21.0659 31.0973 21.444 30.6111 21.423C30.107 21.402 29.864 21.0899 29.831 20.6218C29.795 20.1267 30.2871 19.5986 30.7402 19.6016C31.1633 19.6076 31.4423 19.9767 31.4423 20.5348Z" fill="#4A5364"/>
<path d="M288 13.9332C288 14.4643 287.655 14.8424 287.169 14.8214C286.665 14.8004 286.422 14.4883 286.389 14.0202C286.353 13.5251 286.845 12.997 287.298 13C287.721 13.006 288 13.3751 288 13.9332Z" fill="#4A5364"/>
<path d="M251.691 272.292C251.691 272.823 251.346 273.201 250.86 273.18C250.356 273.159 250.113 272.847 250.08 272.379C250.044 271.884 250.536 271.355 250.989 271.358C251.412 271.364 251.691 271.733 251.691 272.292Z" fill="#4A5364"/>
<path d="M210.06 265.501C209.838 265.645 209.613 265.903 209.394 265.9C209.211 265.897 209.031 265.588 208.851 265.414C209.052 265.228 209.226 264.946 209.46 264.886C209.619 264.844 209.856 265.114 210.06 265.243C210.06 265.33 210.06 265.417 210.06 265.501Z" fill="#4A5364"/>
</g>
<defs>
<clipPath id="clip0_2546_13631">
<path d="M0 16C0 7.16345 7.16344 0 16 0H300C308.837 0 316 7.16344 316 16V286H0V16Z" fill="white"/>
</clipPath>
</defs>
</svg>
