<svg width="80" height="80" viewBox="0 0 80 80" fill="none" xmlns="http://www.w3.org/2000/svg">
<g clip-path="url(#clip0_2549_13749)">
<path d="M80 0H0V80H80V0Z" fill="#FFF6E2"/>
<path d="M72.7652 35.238C72.7577 35.3131 72.7442 35.3888 72.7442 35.4638C72.7344 38.2132 72.7187 40.9626 72.7254 43.7112C72.7262 44.039 72.6301 44.2633 72.3998 44.4816C71.7682 45.078 71.1531 45.6916 70.5334 46.3008C70.4922 46.3413 70.4667 46.3983 70.4359 46.4493C70.3481 46.5964 70.2221 46.6571 70.0511 46.6421C69.634 46.6061 69.2176 46.5588 68.7998 46.5468C68.2049 46.5296 67.6093 46.5341 67.0144 46.5386C64.9919 46.5528 62.9702 46.5716 60.9478 46.5859C60.3589 46.5896 59.7692 46.5761 59.1804 46.5813C55.1752 46.6159 51.1693 46.6526 47.1642 46.6909C45.1747 46.7096 43.1852 46.7321 41.1966 46.7539C40.2236 46.7644 39.2514 46.7764 38.2784 46.7869C38.1276 46.7884 37.9761 46.7869 37.8058 46.7869C37.8283 46.8597 37.8455 46.9212 37.8666 46.9819C38.1134 47.7186 38.3159 48.465 38.4157 49.2384C38.4734 49.6863 38.604 50.1274 38.634 50.576C38.6947 51.4995 38.5297 52.3779 37.9026 53.1063C37.3077 53.798 36.4195 53.8122 35.7961 53.1446C35.6295 52.9668 35.478 52.7657 35.3625 52.5519C35.2252 52.2991 35.1344 52.0216 35.0242 51.7545C35.0039 51.7065 34.9881 51.6562 34.9401 51.609C34.9109 51.8048 34.8831 51.9998 34.8524 52.1956C34.7849 52.6292 34.6776 53.0508 34.484 53.4476C34.463 53.4912 34.4458 53.5639 34.4668 53.5969C34.7196 53.9885 34.7729 54.4334 34.8179 54.8797C34.9244 55.9322 34.9049 56.9877 34.8381 58.0402C34.7691 59.1242 34.6858 60.2097 34.5463 61.2869C34.4128 62.3169 34.1487 63.3229 33.7294 64.2801C33.6911 64.3671 33.6979 64.4151 33.7751 64.4714C33.8584 64.5322 33.9334 64.6057 34.0062 64.6792C34.5366 65.2103 34.4848 65.8622 34.1442 66.3678C33.9282 66.6889 33.6318 66.9214 33.2868 67.0857C31.8427 67.7751 30.3551 67.8982 28.8263 67.4083C28.4324 67.2823 28.0746 67.0812 27.7843 66.7782C27.3544 66.3303 27.2989 65.8359 27.6065 65.2951C27.638 65.2396 27.665 65.1615 27.6522 65.103C27.548 64.6289 27.4399 64.1556 27.3192 63.6852C27.2276 63.3274 27.1159 62.9748 26.9823 62.6207C26.9381 62.8765 26.8953 63.1323 26.8503 63.3881C26.752 63.9418 26.653 64.4946 26.5555 65.0483C26.5487 65.0858 26.5442 65.1248 26.5465 65.1623C26.5915 65.914 26.2457 66.4743 25.6808 66.9244C25.1362 67.3588 24.5053 67.5921 23.8196 67.6739C23.0335 67.7669 22.2443 67.7324 21.4753 67.5598C20.7387 67.394 20.1716 66.9477 19.7957 66.292C19.5309 65.8299 19.4649 65.3258 19.6247 64.8052C19.6314 64.7842 19.6344 64.7595 19.6479 64.7444C19.8205 64.5599 19.7177 64.4061 19.6164 64.2283C19.0561 63.2419 18.7515 62.1676 18.5662 61.0559C18.2894 59.3957 18.2759 57.7266 18.4634 56.0582C18.5392 55.3816 18.6817 54.7124 18.7927 54.0403C18.7987 54.0043 18.8085 53.9473 18.7897 53.9323C18.66 53.8257 18.5302 53.7177 18.3847 53.6359C18.3509 53.6172 18.2256 53.684 18.2016 53.738C18.0561 54.0598 17.8618 54.3433 17.624 54.6052C17.1499 55.1273 16.4777 55.2316 15.8738 54.8602C15.4395 54.5932 15.1537 54.1971 14.9181 53.759C14.6308 53.2234 14.4793 52.6472 14.39 52.0463C14.279 51.2984 14.2032 50.549 14.243 49.7936C14.2745 49.1829 14.3367 48.5745 14.3862 47.9647C14.3907 47.9114 14.3945 47.8581 14.3998 47.7951C14.3495 47.7914 14.3127 47.7854 14.2767 47.7854C12.6699 47.8004 11.0637 47.8161 9.45689 47.8289C9.31585 47.8296 9.17257 47.8161 9.03304 47.7951C8.78248 47.7569 8.67296 47.6323 8.66096 47.3758C8.64745 47.0757 8.6407 46.7749 8.63545 46.4741C8.60844 45.0915 8.58594 43.709 8.55668 42.3264C8.49742 39.4795 8.4344 36.6334 8.37364 33.7865C8.34588 32.4857 8.32263 31.1856 8.29562 29.8848C8.23261 26.8361 8.16659 23.7867 8.10733 20.738C8.07957 19.2954 8.06232 17.8529 8.04357 16.4095C8.04132 16.2242 8.05857 16.039 8.06082 15.8529C8.06157 15.8019 8.04807 15.7471 8.02781 15.6991C7.96855 15.5536 8.00306 15.4531 8.14034 15.3901C8.87475 15.0547 9.60917 14.7209 10.3421 14.3826C10.6489 14.2408 10.9602 14.1043 11.2528 13.9355C11.4156 13.8417 11.5446 13.7022 11.7539 13.6962C12.1965 13.6842 12.6376 13.6482 13.0802 13.6369C15.1402 13.5867 17.1994 13.5431 19.2593 13.4936C22.002 13.4284 24.7446 13.3594 27.4872 13.2926C29.2899 13.2491 31.0933 13.2078 32.8959 13.1666C35.4202 13.1095 37.9446 13.0548 40.4681 12.9985C42.3421 12.9565 44.216 12.9145 46.0899 12.8717C48.5542 12.8155 51.0178 12.76 53.4821 12.703C55.3177 12.6609 57.1534 12.6159 58.9891 12.5769C61.7047 12.5192 64.4203 12.4652 67.1359 12.4111C68.3054 12.3879 69.4749 12.3721 70.6437 12.3481C71.1846 12.3369 71.7247 12.3159 72.2656 12.2994C72.3766 12.2956 72.4741 12.3084 72.5019 12.4441C72.5071 12.4697 72.5341 12.4944 72.5574 12.5132C72.6249 12.5679 72.6954 12.6197 72.7644 12.6729C72.7652 20.1956 72.7652 27.7168 72.7652 35.238ZM31.95 37.1232C32.4278 37.295 32.7669 37.6198 33.0647 37.9844C33.4203 38.4203 33.7781 38.8576 34.0887 39.325C35.463 41.3947 36.556 43.6114 37.4772 45.9152C37.505 45.9842 37.5335 46.0525 37.547 46.0855C37.8268 46.0652 38.0751 46.0322 38.3242 46.0307C41.5761 46.0105 44.8281 45.9977 48.0794 45.9767C53.5991 45.9415 59.1188 45.9054 64.6386 45.8612C66.2665 45.8484 67.8936 45.8034 69.5215 45.7817C69.6932 45.7794 69.7277 45.7217 69.7247 45.5626C69.6977 44.2783 69.6722 42.9948 69.6595 41.7105C69.6332 39.0219 69.6152 36.3325 69.5942 33.6439C69.574 30.9988 69.55 28.3537 69.5342 25.7079C69.5147 22.2811 69.5012 18.8543 69.4862 15.4276C69.4847 15.1733 69.4862 15.1703 69.2259 15.1725C66.5538 15.198 63.8809 15.2213 61.2088 15.2528C57.6403 15.294 54.0717 15.3435 50.5032 15.3871C48.585 15.4103 46.6668 15.4276 44.7486 15.4508C42.1853 15.4816 39.6227 15.5161 37.0594 15.5491C34.4473 15.5821 31.8352 15.6166 29.2231 15.6466C25.7528 15.6864 22.2825 15.7269 18.8122 15.7599C15.462 15.7922 12.1125 15.8162 8.76223 15.8439C8.72097 15.8439 8.67971 15.8537 8.63995 15.8582C8.67296 16.8761 8.71347 17.8799 8.73747 18.8843C8.79749 21.4252 8.85 23.966 8.90551 26.5061C8.94752 28.44 8.99103 30.3747 9.03304 32.3086C9.09005 34.9582 9.14632 37.6086 9.20258 40.2589C9.24009 42.0398 9.27609 43.8215 9.31285 45.6024C9.32261 46.072 9.33686 46.5423 9.34061 47.0119C9.34136 47.1417 9.38412 47.189 9.5139 47.1747C9.65493 47.1597 9.79746 47.153 9.93924 47.1507C11.0975 47.129 12.2558 47.1072 13.414 47.0892C13.7253 47.0847 14.0374 47.0862 14.348 47.1035C14.4755 47.1102 14.516 47.0787 14.5378 46.9542C14.7853 45.5589 15.1312 44.1891 15.6323 42.862C16.0366 41.7908 16.5197 40.7585 17.1649 39.8081C17.582 39.1929 18.0531 38.6288 18.7297 38.2762C18.741 38.2702 18.7455 38.2507 18.7537 38.2365C18.7417 38.2215 18.7342 38.2065 18.7222 38.196C17.8048 37.4173 17.0861 36.4848 16.564 35.4016C16.5175 35.3056 16.4695 35.2943 16.3727 35.3258C16.0021 35.4466 15.6398 35.4151 15.2925 35.2395C14.8168 34.9987 14.5093 34.5959 14.2737 34.139C13.8251 33.2696 13.7201 32.3394 13.8529 31.3814C13.9444 30.7228 14.1559 30.1031 14.5955 29.5885C14.9504 29.1737 15.381 28.8976 15.9601 28.9314C16.0044 28.9336 16.0741 28.8631 16.0966 28.8113C16.3179 28.2952 16.4912 27.7544 16.7553 27.2615C18.4807 24.041 21.215 22.3231 24.8166 21.9773C26.6388 21.8025 28.3739 22.1858 29.9808 23.077C32.0062 24.2008 33.3843 25.8654 34.0955 28.0747C34.115 28.1347 34.136 28.1947 34.157 28.2555C34.1907 28.248 34.2065 28.2465 34.2207 28.2405C34.8126 27.9719 35.3325 28.1167 35.6663 28.6801C35.8088 28.9209 35.9214 29.1909 35.9911 29.4617C36.2387 30.4227 36.1539 31.3814 35.9041 32.3281C35.7068 33.0746 35.4075 33.7745 34.8891 34.3626C34.6768 34.6034 34.4315 34.8014 34.127 34.9155C33.8539 35.0175 33.7354 34.9867 33.5336 34.7542C33.13 35.6266 32.5734 36.385 31.95 37.1232ZM18.7485 38.7781C18.6772 38.8306 18.63 38.8569 18.5939 38.8944C18.3726 39.1202 18.1341 39.3332 17.9383 39.5793C17.0373 40.7105 16.48 42.0211 15.9991 43.3676C15.3757 45.1133 14.9691 46.9092 14.7996 48.7553C14.7148 49.6765 14.7058 50.5985 14.8033 51.5205C14.8146 51.6277 14.8521 51.6975 14.9594 51.7185C15.2587 51.7763 15.5558 51.8603 15.8573 51.8813C16.4147 51.9196 16.9706 51.8805 17.51 51.7103C17.612 51.678 17.6652 51.636 17.6442 51.513C17.5197 50.7868 17.5167 50.0561 17.576 49.324C17.7185 47.5626 18.1619 45.8844 18.9645 44.3068C19.0463 44.1471 19.1371 43.9895 19.2458 43.847C19.2834 43.7982 19.4041 43.7652 19.4566 43.79C19.5054 43.8125 19.5332 43.9213 19.5347 43.9925C19.5362 44.0585 19.4934 44.126 19.4664 44.1921C19.2428 44.7374 18.993 45.2731 18.7995 45.8282C18.2046 47.5326 17.9053 49.282 18.0936 51.0929C18.1656 51.783 18.3261 52.4484 18.6675 53.0606C18.8738 53.4304 19.1483 53.7275 19.5617 53.8572C20.0658 54.0155 20.5676 54.1941 21.0845 54.2976C22.7184 54.6247 24.3763 54.7102 26.0386 54.7087C26.2727 54.7087 26.2764 54.7057 26.2689 54.4649C26.2067 52.3351 26.1324 50.2054 26.0836 48.0757C26.0259 45.5469 25.9891 43.018 25.9426 40.4892C25.9419 40.4472 25.9344 40.4052 25.9299 40.3587C25.7198 40.3587 25.5195 40.3557 25.3192 40.3594C23.6171 40.391 21.9202 40.3354 20.2608 39.9101C19.8745 39.8111 19.5039 39.6333 19.1453 39.454C18.9038 39.3347 18.7477 39.1157 18.7485 38.7781ZM19.1858 54.2421C19.1693 54.3133 19.1551 54.3599 19.1491 54.4079C19.0666 55.0965 18.9653 55.7829 18.9068 56.4738C18.7567 58.254 18.8498 60.0221 19.2436 61.7678C19.4386 62.6342 19.7132 63.4722 20.1813 64.2388C20.3223 64.4699 20.5039 64.6034 20.7657 64.6297C21.4881 64.7024 22.209 64.7955 22.9329 64.836C23.9419 64.8922 24.9524 64.9095 25.9584 64.761C26.0926 64.7407 26.1542 64.6942 26.1752 64.5532C26.2554 64.013 26.3372 63.4729 26.4415 62.9373C26.5532 62.3589 26.6898 61.7843 26.8181 61.2089C26.8421 61.1009 26.8751 60.9913 27.0183 60.9869C27.1624 60.9823 27.1946 61.0904 27.2306 61.1961C27.2569 61.2734 27.2869 61.3499 27.3109 61.4279C27.65 62.5224 27.9891 63.6177 28.3274 64.7129C28.3559 64.8052 28.3724 64.881 28.5089 64.8622C29.0281 64.7925 29.5494 64.7377 30.07 64.6762C30.9485 64.5719 31.8262 64.4609 32.7061 64.3671C32.9207 64.3439 33.0332 64.2531 33.1037 64.0535C33.5546 62.7745 33.8224 61.4535 33.9732 60.1107C34.0834 59.1294 34.1592 58.143 34.217 57.1572C34.2747 56.1565 34.217 55.1588 34.0354 54.1701C34.0264 54.1198 34.0039 54.0718 33.9852 54.0148C33.9267 54.038 33.8854 54.0508 33.8471 54.0695C33.1787 54.4064 32.4691 54.6269 31.7407 54.7724C30.3664 55.047 28.9733 55.1775 27.575 55.2256C25.5945 55.2938 23.6193 55.2188 21.6606 54.9022C20.8752 54.7747 20.0898 54.6299 19.3606 54.2841C19.3111 54.2631 19.2548 54.2593 19.1858 54.2421ZM26.8023 54.6592C27.2254 54.6592 27.6192 54.6734 28.0108 54.6562C29.1631 54.6059 30.3116 54.5046 31.4414 54.2608C31.9687 54.1468 32.4968 54.0245 33.01 53.8602C33.6108 53.6689 34.0227 53.2909 34.157 52.6255C34.283 52.0013 34.3738 51.3772 34.3978 50.7433C34.4473 49.4327 34.2995 48.1357 34.0864 46.8454C33.9214 45.8439 33.6596 44.8702 33.202 43.9588C33.0992 43.754 32.9724 43.5619 32.8629 43.3609C32.8044 43.2536 32.7872 43.1336 32.8974 43.0488C33.0032 42.9678 33.1165 42.9955 33.2117 43.0788C33.2688 43.1291 33.319 43.1883 33.3655 43.2483C33.6709 43.6422 33.8666 44.0938 34.0294 44.5589C34.6836 46.4276 35.0017 48.3532 34.9829 50.3337C34.9799 50.6225 35.0272 50.687 35.301 50.7785C35.3625 50.7988 35.427 50.8161 35.4915 50.8243C36.2619 50.9203 36.9273 50.6533 37.5507 50.2317C37.8268 50.0449 37.9161 49.7838 37.8973 49.4695C37.8898 49.339 37.8793 49.2077 37.8583 49.0787C37.7248 48.2437 37.463 47.444 37.1711 46.6549C36.1434 43.8807 34.8201 41.2566 33.1 38.8449C32.8074 38.4345 32.4413 38.0729 32.0805 37.7174C31.8524 37.493 31.8172 37.5186 31.6236 37.7669C31.6086 37.7864 31.5951 37.8066 31.5786 37.8306C31.6244 37.8711 31.6611 37.9026 31.6979 37.9349C32.052 38.2515 32.0647 38.6213 31.7317 38.9589C31.6747 39.0166 31.6101 39.0692 31.5434 39.1164C31.1083 39.4247 30.6072 39.5845 30.103 39.7286C28.9793 40.0481 27.8285 40.2087 26.6658 40.2964C26.536 40.3062 26.359 40.2829 26.2929 40.3557C26.2299 40.4255 26.2832 40.6003 26.2854 40.7293C26.2854 40.7345 26.2862 40.7405 26.2869 40.7458C26.362 42.4104 26.449 44.075 26.509 45.7404C26.5998 48.2745 26.6703 50.8086 26.7505 53.3426C26.7648 53.7875 26.7858 54.2338 26.8023 54.6592ZM72.1155 12.6474C72.1125 12.6362 72.1095 12.6257 72.1058 12.6144C72.0323 12.6144 71.9587 12.6122 71.8852 12.6144C70.6782 12.6519 69.4719 12.6917 68.2649 12.727C66.3917 12.7825 64.5186 12.8387 62.6446 12.8897C60.5307 12.9475 58.4167 13.0008 56.3027 13.0548C54.1617 13.1095 52.02 13.1628 49.879 13.2183C47.7868 13.2723 45.6946 13.3278 43.6031 13.3826C41.5004 13.4374 39.3969 13.4921 37.2942 13.5469C35.1854 13.6017 33.0767 13.6572 30.968 13.7104C28.7722 13.7659 26.5758 13.82 24.38 13.8747C22.14 13.9302 19.9007 13.9895 17.6607 14.039C15.7486 14.0818 13.8364 14.1125 11.9242 14.1508C11.8694 14.1515 11.8102 14.1748 11.7607 14.201C11.6601 14.2543 11.5701 14.3263 11.4673 14.3736C10.862 14.6511 10.2543 14.9235 9.64818 15.198C9.60917 15.216 9.57316 15.2423 9.5364 15.2648C9.61367 15.2955 9.67819 15.2963 9.7427 15.2955C12.0652 15.2573 14.387 15.216 16.7095 15.1823C19.2451 15.1455 21.7807 15.1155 24.3155 15.0825C26.8233 15.0502 29.3319 15.0165 31.8397 14.985C34.5335 14.9512 37.2274 14.919 39.9213 14.8859C43.4673 14.8424 47.0141 14.7974 50.5602 14.7539C53.2435 14.7209 55.9261 14.6924 58.6095 14.6571C62.0625 14.6121 65.5163 14.5626 68.9693 14.5101C69.0721 14.5086 69.1869 14.4749 69.2746 14.4208C70.1816 13.8627 71.0848 13.2978 71.9888 12.7345C72.0323 12.7075 72.0728 12.6767 72.1155 12.6474ZM70.0473 14.5139C70.0953 14.7847 70.1651 15.012 70.1703 15.2408C70.2079 16.8581 70.2401 18.4755 70.2596 20.0929C70.2986 23.3554 70.3286 26.6178 70.3624 29.8803C70.3819 31.7715 70.4059 33.6619 70.4209 35.5531C70.4479 38.8434 70.4697 42.1336 70.4944 45.4231C70.4952 45.4786 70.5004 45.5341 70.5049 45.6091C70.5477 45.5814 70.5679 45.5724 70.5822 45.5581C71.0931 45.0413 71.6047 44.5251 72.111 44.003C72.1575 43.955 72.1808 43.8687 72.1838 43.7982C72.1951 43.5199 72.1965 43.2408 72.1981 42.9625C72.2206 38.3767 72.2341 33.7917 72.2671 29.2059C72.3053 23.861 72.3608 18.516 72.4089 13.1718C72.4096 13.1155 72.4089 13.0593 72.4089 12.9708C71.5874 13.5079 70.799 14.0233 70.0473 14.5139ZM31.7084 36.6596C31.7279 36.6761 31.7474 36.6926 31.7669 36.7091C31.7969 36.6581 31.8194 36.5996 31.8584 36.5561C32.3318 36.0272 32.7196 35.4361 33.0377 34.8067C33.7856 33.3266 34.1165 31.7543 33.9814 30.0956C33.8366 28.3185 33.1945 26.7304 32.0175 25.3988C29.8885 22.9908 27.1774 22.1468 24.0372 22.5917C22.5151 22.807 21.1715 23.4611 19.9495 24.3756C18.7987 25.2368 17.8693 26.293 17.2211 27.5803C16.4147 29.1834 16.0936 30.8773 16.3202 32.6657C16.5295 34.3176 17.1934 35.7662 18.2841 37.0212C18.3186 37.061 18.3606 37.094 18.3997 37.13C18.4027 37.0587 18.3839 37.0084 18.3599 36.9604C17.8168 35.8562 17.5295 34.6799 17.4589 33.4594C17.3329 31.2764 17.8183 29.2367 19.0148 27.3905C19.855 26.0942 20.9442 25.0612 22.35 24.3936C23.8331 23.6884 25.3815 23.4889 26.9763 23.9247C28.818 24.4281 30.2328 25.5429 31.2185 27.1527C32.9499 29.9801 33.0737 32.968 31.9605 36.046C31.8862 36.2545 31.7932 36.4556 31.7084 36.6596ZM31.0738 38.0429C30.9597 38.1089 30.833 38.1577 30.7377 38.241C30.3671 38.565 29.9155 38.7106 29.4579 38.8389C28.2134 39.1877 26.9328 39.2762 25.65 39.325C24.497 39.3685 23.347 39.328 22.2008 39.1779C21.2796 39.0572 20.3576 38.9521 19.4874 38.6003C19.3756 38.5553 19.3051 38.5688 19.2368 38.6648C19.1641 38.7661 19.1686 38.8651 19.2518 38.9461C19.3329 39.0249 19.4244 39.1052 19.5272 39.1464C19.825 39.2664 20.1243 39.3925 20.4341 39.4697C21.4348 39.7173 22.4581 39.8028 23.4851 39.8336C25.0372 39.8801 26.5855 39.8163 28.1256 39.6055C28.986 39.4877 29.8457 39.355 30.6612 39.0429C30.923 38.9431 31.1698 38.7938 31.4038 38.6371C31.5666 38.5283 31.5509 38.4008 31.3971 38.2762C31.2936 38.1952 31.1848 38.1232 31.0738 38.0429ZM15.9211 29.4055C15.651 29.4032 15.4387 29.4797 15.2527 29.623C14.9639 29.8458 14.7643 30.1406 14.6286 30.473C14.2265 31.4572 14.2025 32.4602 14.519 33.4706C14.6593 33.9192 14.8656 34.3333 15.2504 34.6312C15.483 34.8112 15.7426 34.9147 16.0419 34.8802C16.2887 34.8517 16.3029 34.8254 16.2197 34.5989C15.702 33.1908 15.5573 31.7438 15.7703 30.2607C15.8108 29.9816 15.8678 29.7048 15.9211 29.4055ZM33.7031 34.4294C33.8171 34.3873 33.9064 34.3641 33.9859 34.3236C34.3355 34.145 34.5651 33.8465 34.7533 33.5156C35.3227 32.5157 35.5545 31.4332 35.508 30.2907C35.4878 29.7978 35.4082 29.3117 35.1112 28.8916C34.9394 28.6486 34.7121 28.5525 34.4165 28.5968C34.2852 28.6163 34.2447 28.6501 34.2762 28.7941C34.6326 30.4332 34.5418 32.0483 33.9987 33.6364C33.9117 33.893 33.8104 34.1435 33.7031 34.4294ZM21.101 29.7543C21.0838 29.6568 21.065 29.494 21.026 29.3365C20.8857 28.7768 20.0058 28.4438 19.5332 28.9854C19.1708 29.4002 18.9893 29.8676 19.0553 30.4145C19.0973 30.761 19.2376 31.0716 19.5384 31.2734C19.888 31.5082 20.4244 31.3874 20.7079 31.0168C20.9765 30.665 21.0793 30.2562 21.101 29.7543ZM21.4528 27.3155C21.4671 27.1625 21.4363 27.0057 21.2555 26.9284C21.0688 26.8481 20.9022 26.9022 20.7559 27.0289C20.5796 27.1812 20.5159 27.3883 20.4949 27.6103C20.4799 27.7656 20.5166 27.9066 20.6562 27.9967C20.8032 28.0919 20.9577 28.0852 21.1048 27.9959C21.3493 27.8466 21.4633 27.6246 21.4528 27.3155Z" fill="#4A5364"/>
<path d="M65.916 54.3988C65.916 54.5316 65.8297 54.6261 65.7082 54.6209C65.5822 54.6156 65.5214 54.5376 65.5132 54.4206C65.5042 54.2968 65.6272 54.1648 65.7405 54.1655C65.8462 54.167 65.9168 54.2601 65.916 54.3988Z" fill="#4A5364"/>
<path d="M42.0657 67.5664C42.1737 67.5732 42.2645 67.6129 42.2833 67.7367C42.2968 67.8282 42.1527 67.949 42.0342 67.9467C41.9179 67.9452 41.8474 67.8785 41.8497 67.7644C41.8527 67.6369 41.9329 67.5709 42.0657 67.5664Z" fill="#4A5364"/>
<path d="M11.1 68.6736C11.0003 68.7494 10.9403 68.8311 10.869 68.8416C10.7505 68.8589 10.7092 68.7591 10.728 68.6556C10.746 68.5521 10.761 68.4035 10.893 68.4163C10.959 68.423 11.0138 68.5611 11.1 68.6736Z" fill="#4A5364"/>
<path d="M52.6607 11.5585C52.6345 11.6741 52.627 11.7633 52.5917 11.8399C52.573 11.8796 52.5032 11.9171 52.4582 11.9156C52.4289 11.9149 52.3809 11.8406 52.3794 11.7986C52.3764 11.7078 52.3862 11.6126 52.4154 11.5278C52.4297 11.488 52.51 11.4378 52.546 11.4475C52.5947 11.461 52.63 11.5263 52.6607 11.5585Z" fill="#4A5364"/>
<path d="M9.60771 59.668C9.78325 59.6777 9.84401 59.7475 9.84326 59.8593C9.84251 59.965 9.78475 60.0326 9.66997 60.028C9.55069 60.0235 9.48093 59.9448 9.49368 59.8405C9.50193 59.77 9.57845 59.7085 9.60771 59.668Z" fill="#4A5364"/>
<path d="M41.6306 55.3529C41.5871 55.2944 41.5151 55.2404 41.5061 55.1766C41.4911 55.0693 41.5548 54.9725 41.6734 54.9898C41.7304 54.9981 41.8181 55.0881 41.8159 55.1376C41.8136 55.2104 41.7424 55.2801 41.7004 55.3514C41.6771 55.3521 41.6539 55.3529 41.6306 55.3529Z" fill="#4A5364"/>
<path d="M63.9433 8.6879C63.9741 8.73441 64.0408 8.79968 64.0281 8.82293C63.9868 8.89945 63.9178 8.96097 63.8593 9.02848C63.815 8.98422 63.725 8.92571 63.734 8.8987C63.7595 8.81918 63.8241 8.75317 63.8736 8.68115C63.8968 8.6834 63.9201 8.68565 63.9433 8.6879Z" fill="#4A5364"/>
<path d="M25.7086 70.4068C25.6524 70.3926 25.5736 70.3963 25.5451 70.3603C25.4978 70.301 25.4836 70.2155 25.4551 70.1413C25.5016 70.1292 25.5751 70.0947 25.5886 70.1105C25.6494 70.1825 25.6929 70.2688 25.7431 70.3498C25.7311 70.3685 25.7199 70.3873 25.7086 70.4068Z" fill="#4A5364"/>
<path d="M49.3668 62.0919C49.3113 62.1279 49.255 62.1924 49.2002 62.1917C49.1545 62.1909 49.1095 62.1136 49.0645 62.0701C49.1147 62.0236 49.1582 61.9531 49.2167 61.9381C49.2565 61.9276 49.3158 61.9951 49.3668 62.0274C49.3668 62.0499 49.3668 62.0709 49.3668 62.0919Z" fill="#4A5364"/>
<path d="M36.8136 9.58036C36.7341 9.64863 36.6951 9.70939 36.6509 9.71389C36.5391 9.72514 36.5188 9.63137 36.5301 9.54885C36.5368 9.49709 36.5848 9.45133 36.6149 9.40332C36.6704 9.45283 36.7266 9.50234 36.8136 9.58036Z" fill="#4A5364"/>
<path d="M21.3545 11.5046C21.2742 11.5691 21.2232 11.6104 21.1715 11.6524C21.1392 11.5984 21.0784 11.5421 21.0822 11.4911C21.0874 11.4281 21.1467 11.3696 21.1827 11.3096C21.2322 11.3658 21.281 11.4213 21.3545 11.5046Z" fill="#4A5364"/>
<path d="M52.0247 54.8258C51.9571 54.8663 51.8941 54.9181 51.8214 54.9398C51.7981 54.9466 51.7509 54.8715 51.7148 54.834C51.7704 54.7868 51.8206 54.7253 51.8851 54.6983C51.9151 54.6855 51.9737 54.738 52.0187 54.7605C52.0202 54.7823 52.0224 54.804 52.0247 54.8258Z" fill="#4A5364"/>
<path d="M57.1525 60.6177C57.097 60.5704 57.0655 60.5427 57.0332 60.5157C57.1067 60.4714 57.1765 60.4196 57.2545 60.3874C57.2725 60.3799 57.3175 60.4376 57.3498 60.4654C57.2883 60.5134 57.226 60.5614 57.1525 60.6177Z" fill="#4A5364"/>
<path d="M49.3254 48.3853C49.3172 48.2623 49.3067 48.179 49.3089 48.0965C49.3097 48.0755 49.3487 48.0507 49.3749 48.038C49.3862 48.0327 49.4252 48.053 49.4267 48.065C49.4402 48.1655 49.4859 48.275 49.3254 48.3853Z" fill="#4A5364"/>
<path d="M11.0172 53.1743C10.9767 53.1068 10.9265 53.0543 10.937 53.0355C10.964 52.9875 11.018 52.9553 11.0607 52.917C11.0862 52.9515 11.138 52.9935 11.1313 53.019C11.1185 53.0663 11.0712 53.1053 11.0172 53.1743Z" fill="#4A5364"/>
<path d="M16.2816 62.0964C16.2389 62.1489 16.2119 62.1827 16.1841 62.2172C16.1571 62.1834 16.1113 62.1519 16.1076 62.1159C16.1046 62.0806 16.1451 62.0416 16.1661 62.0049C16.1991 62.0311 16.2329 62.0574 16.2816 62.0964Z" fill="#4A5364"/>
<path d="M53.7037 36.4136C53.5575 36.4421 53.4307 36.4698 53.3024 36.4901C53.2446 36.4991 53.1726 36.5148 53.1269 36.4908C53.0563 36.4533 52.9656 36.391 52.9528 36.3258C52.9408 36.2613 52.9963 36.1412 53.0541 36.1127C53.4742 35.9079 53.9138 35.7647 54.3909 35.7932C54.5304 35.8014 54.6362 35.8682 54.652 36.016C54.6677 36.166 54.5702 36.244 54.4389 36.2853C54.3774 36.304 54.3144 36.319 54.2469 36.337C54.2799 36.6236 54.3084 36.9042 54.3496 37.1832C54.3556 37.2215 54.4254 37.2657 54.4734 37.28C54.739 37.3558 54.9603 37.4983 55.1448 37.7001C55.1921 37.7519 55.2333 37.8126 55.2633 37.8749C55.3174 37.9852 55.3249 38.1007 55.2288 38.193C55.1306 38.2875 55.015 38.2665 54.9115 38.2035C54.8042 38.1389 54.7067 38.0587 54.6039 37.9867C54.5484 37.9477 54.4907 37.9116 54.4006 37.8516C54.4164 38.1945 54.4307 38.4968 54.4434 38.7991C54.4524 39.0121 54.4614 39.2244 54.4667 39.4375C54.4682 39.5028 54.4667 39.5703 54.4502 39.6325C54.4126 39.7751 54.3339 39.8846 54.1703 39.8853C54.0091 39.8861 53.9108 39.7841 53.8868 39.6385C53.8493 39.4135 53.8275 39.1839 53.817 38.9559C53.781 38.1652 53.7533 37.3738 53.7217 36.5831C53.721 36.5366 53.712 36.4886 53.7037 36.4136Z" fill="#4A5364"/>
<path d="M47.4514 29.3309C47.4866 29.628 47.5264 29.9243 47.5549 30.2221C47.5714 30.3954 47.5797 30.571 47.5752 30.745C47.5692 30.9505 47.4559 31.0848 47.2998 31.0976C47.1423 31.1103 47.008 30.9993 46.984 30.7885C46.9225 30.2521 46.873 29.7143 46.8287 29.1756C46.8025 28.8561 46.7935 28.5342 46.7762 28.1929C46.5879 28.2282 46.4139 28.2612 46.2391 28.2919C46.0208 28.3302 45.879 28.2897 45.8588 28.1704C45.8265 27.9791 45.9833 27.9349 46.1131 27.8846C46.3966 27.7751 46.681 27.6625 46.9713 27.5748C47.1626 27.517 47.3651 27.4938 47.5639 27.466C47.7004 27.4473 47.819 27.4908 47.8535 27.6423C47.8857 27.7826 47.8017 27.8681 47.6877 27.9296C47.6449 27.9529 47.5977 27.9694 47.5511 27.9844C47.3261 28.0594 47.3373 28.0586 47.3486 28.3009C47.3591 28.5327 47.4229 28.67 47.6659 28.7848C47.942 28.9153 48.1685 29.1591 48.3973 29.3744C48.5301 29.4997 48.5234 29.6588 48.4213 29.7548C48.2998 29.8688 48.167 29.841 48.0478 29.7548C47.9157 29.6588 47.7942 29.5477 47.6674 29.4442C47.6097 29.3977 47.5496 29.3534 47.4904 29.3084C47.4776 29.3159 47.4649 29.3234 47.4514 29.3309Z" fill="#4A5364"/>
<path d="M60.5611 36.2603C60.4808 36.2551 60.4148 36.2566 60.3518 36.2446C60.2423 36.2243 60.1567 36.1703 60.1425 36.0473C60.129 35.928 60.1845 35.8222 60.2948 35.808C60.6279 35.7645 60.9639 35.736 61.2993 35.7217C61.357 35.7195 61.4553 35.8042 61.468 35.8628C61.48 35.919 61.417 36.0068 61.3645 36.057C61.3045 36.1141 61.1695 36.1328 61.156 36.1898C61.1245 36.3226 61.1462 36.4681 61.1462 36.6092C61.2377 36.6234 61.3248 36.6212 61.3968 36.6527C61.4643 36.6819 61.5528 36.7405 61.5641 36.799C61.5753 36.859 61.5198 36.952 61.4665 37C61.3998 37.0593 61.303 37.084 61.2227 37.1298C61.1837 37.1523 61.126 37.1868 61.123 37.2191C61.102 37.4726 61.0922 37.7277 61.078 38.0007C61.1785 37.9932 61.252 37.985 61.327 37.9827C61.4793 37.9782 61.6331 37.9625 61.7839 37.979C61.9204 37.9947 62.0329 38.0683 62.0412 38.2303C62.0494 38.3893 61.9504 38.4718 61.8146 38.5094C61.7051 38.5401 61.5903 38.5551 61.477 38.5701C61.1575 38.6136 60.8386 38.6549 60.5183 38.6946C60.4426 38.7044 60.366 38.7104 60.2895 38.7104C60.0802 38.7119 59.9497 38.6226 59.9317 38.4726C59.9137 38.3241 60.0172 38.2003 60.2325 38.1725C60.4231 38.1478 60.4921 38.069 60.4823 37.8785C60.4733 37.7014 60.4988 37.5221 60.5101 37.3293C60.4433 37.3376 60.4013 37.3428 60.3593 37.3473C60.2453 37.3608 60.1327 37.3301 60.1087 37.2168C60.0915 37.135 60.1215 37.0218 60.1725 36.9543C60.2235 36.8867 60.3218 36.8447 60.4081 36.8177C60.5228 36.7817 60.5633 36.7112 60.5618 36.6009C60.5596 36.4936 60.5611 36.3856 60.5611 36.2603Z" fill="#4A5364"/>
<path d="M40.4428 19.4137C40.3685 19.4384 40.3138 19.4587 40.2583 19.4744C40.142 19.5075 40.0355 19.4902 39.9717 19.3807C39.9057 19.2667 39.9372 19.1601 40.028 19.0694C40.043 19.0536 40.0595 19.0386 40.0782 19.0273C40.3843 18.8293 40.7129 18.6853 41.0767 18.6403C41.2042 18.6245 41.3498 18.611 41.409 18.773C41.4563 18.9021 41.3843 19.0168 41.2117 19.1046C40.9679 19.2291 40.9769 19.2284 40.9904 19.503C41.0039 19.779 41.0107 20.0093 41.382 20.0768C41.6438 20.1248 41.8561 20.3394 42.0002 20.5839C42.0677 20.6972 42.1112 20.824 41.9934 20.9268C41.8824 21.0235 41.7676 20.9635 41.6656 20.8915C41.5365 20.8 41.4105 20.7032 41.2815 20.6125C41.2297 20.5764 41.172 20.5494 41.0812 20.4977C41.1112 20.8158 41.1337 21.0956 41.1645 21.3746C41.1862 21.5749 41.22 21.7745 41.244 21.9748C41.2755 22.2343 41.2035 22.3806 41.0362 22.4091C40.8569 22.4399 40.7069 22.3258 40.6664 22.079C40.6078 21.7242 40.5643 21.3664 40.5373 21.0078C40.5006 20.5179 40.4856 20.0266 40.4601 19.536C40.4578 19.5045 40.4511 19.4722 40.4428 19.4137Z" fill="#4A5364"/>
<path d="M50.3494 29.2186C50.3096 29.2186 50.2939 29.2163 50.2781 29.2186C50.1619 29.2373 50.0381 29.2576 49.9848 29.118C49.9308 28.9755 50.0208 28.8802 50.1371 28.8322C50.3284 28.752 50.3959 28.6199 50.3704 28.4211C50.3591 28.3304 50.3681 28.2373 50.3681 28.1196C50.2736 28.1466 50.1941 28.1698 50.1146 28.1931C49.9961 28.2276 49.8903 28.2058 49.834 28.0926C49.7763 27.977 49.8205 27.863 49.93 27.8143C50.2474 27.6732 50.5684 27.5404 50.8955 27.4249C51.0043 27.3867 51.1311 27.4272 51.1783 27.5577C51.2188 27.6687 51.1828 27.7887 51.0741 27.8188C50.837 27.8833 50.8745 28.0483 50.8948 28.2148C50.9008 28.2621 50.9098 28.3086 50.918 28.3574C51.0215 28.3431 51.1168 28.3071 51.2008 28.3251C51.2849 28.3431 51.4019 28.4016 51.4221 28.4684C51.4431 28.5359 51.3831 28.6537 51.3224 28.7137C51.2526 28.7827 51.1461 28.8202 51.0508 28.8585C50.9615 28.8945 50.9248 28.9485 50.9285 29.0445C50.9338 29.2066 50.93 29.3686 50.93 29.5479C51.0591 29.5314 51.1543 29.5134 51.2503 29.5081C51.4649 29.4961 51.5872 29.5606 51.6074 29.6882C51.6292 29.8232 51.5429 29.9222 51.3411 29.9875C51.1026 30.0648 50.8633 30.1383 50.6255 30.2163C50.5429 30.2433 50.4649 30.3026 50.3824 30.3063C50.3066 30.3101 50.1874 30.2793 50.1619 30.2275C50.1311 30.1638 50.1476 30.0197 50.1964 29.9852C50.3636 29.8675 50.3697 29.7174 50.3516 29.5426C50.3404 29.4361 50.3494 29.3281 50.3494 29.2186Z" fill="#4A5364"/>
<path d="M46.4303 19.4275C46.353 19.435 46.2915 19.4598 46.2495 19.441C46.1722 19.4065 46.0657 19.3585 46.0462 19.2933C46.0267 19.2287 46.0784 19.0915 46.1355 19.0645C46.3508 18.9639 46.5788 18.8882 46.8069 18.8199C46.8609 18.8034 46.9696 18.8349 46.9906 18.8762C47.0169 18.9279 46.9824 19.0134 46.9681 19.0832C46.9614 19.1185 46.9261 19.153 46.9306 19.1845C46.9561 19.3675 46.9891 19.5491 47.0222 19.7449C47.1077 19.7366 47.1947 19.7119 47.2765 19.7246C47.3545 19.7374 47.476 19.7749 47.4903 19.8251C47.5113 19.9024 47.479 20.0179 47.4272 20.0847C47.3635 20.1672 47.2495 20.2085 47.1714 20.2827C47.1204 20.3315 47.0657 20.4065 47.0627 20.4718C47.0552 20.6278 47.0777 20.7861 47.0897 20.9669C47.1527 20.9489 47.2014 20.9324 47.251 20.9219C47.341 20.9039 47.4325 20.8746 47.5225 20.8761C47.7251 20.8791 47.8203 21.0697 47.6988 21.2347C47.6425 21.3112 47.5623 21.3832 47.476 21.4207C47.1924 21.5453 46.9021 21.6555 46.6133 21.7666C46.5646 21.7853 46.5053 21.7868 46.452 21.7831C46.3335 21.7748 46.221 21.7186 46.2187 21.597C46.2172 21.5108 46.2735 21.381 46.3425 21.345C46.4918 21.267 46.527 21.1724 46.4985 21.0194C46.476 20.9024 46.4865 20.7786 46.4625 20.6616C46.4468 20.5851 46.41 20.5025 46.3568 20.4463C46.2592 20.3435 46.2172 20.216 46.3147 20.1282C46.4498 20.0067 46.4295 19.8694 46.4295 19.7254C46.4303 19.6301 46.4303 19.5341 46.4303 19.4275Z" fill="#4A5364"/>
<path d="M57.2322 38.2459C57.3672 38.2369 57.4722 38.2129 57.5713 38.2286C57.641 38.2399 57.7348 38.2924 57.7573 38.3502C57.7805 38.4102 57.7468 38.5085 57.7078 38.5715C57.6733 38.627 57.6035 38.6735 57.5397 38.6952C57.2877 38.78 57.0334 38.8618 56.7761 38.927C56.656 38.9578 56.5293 38.9255 56.4647 38.8018C56.3912 38.6607 56.4647 38.5565 56.584 38.489C56.6845 38.4319 56.7123 38.3592 56.6973 38.2489C56.6838 38.1469 56.6868 38.0418 56.6875 37.9383C56.689 37.8175 56.689 37.7118 56.5668 37.627C56.4595 37.5527 56.4895 37.4095 56.5833 37.2947C56.6358 37.2302 56.68 37.1409 56.6861 37.0599C56.7011 36.8716 56.6906 36.681 56.6906 36.489C56.5983 36.4695 56.509 36.4747 56.4542 36.4335C56.383 36.381 56.3057 36.297 56.2922 36.2167C56.275 36.1117 56.3627 36.0486 56.4752 36.0269C56.6943 35.9841 56.9111 35.9301 57.1302 35.8851C57.1879 35.8731 57.2509 35.8686 57.3087 35.8784C57.4685 35.9054 57.5187 36.0419 57.4212 36.1694C57.4115 36.1822 57.4017 36.2002 57.3882 36.2047C57.0799 36.309 57.1684 36.5483 57.1962 36.7666C57.2059 36.8416 57.2157 36.9158 57.2269 37.0006C57.3094 36.9954 57.3867 36.9759 57.4565 36.9909C57.5187 37.0044 57.6005 37.0449 57.6223 37.0951C57.644 37.1454 57.6193 37.2362 57.5833 37.2864C57.5375 37.3502 57.467 37.408 57.395 37.4387C57.2472 37.5017 57.2194 37.6075 57.2292 37.753C57.2404 37.9128 57.2322 38.0764 57.2322 38.2459Z" fill="#4A5364"/>
<path d="M54.4188 29.6333C54.5073 29.622 54.5996 29.5928 54.6851 29.6055C54.7609 29.6168 54.8689 29.6603 54.8899 29.7165C54.9117 29.7758 54.8637 29.8816 54.8142 29.9393C54.7601 30.0016 54.6746 30.0511 54.5936 30.0729C54.3063 30.1516 54.016 30.2199 53.7242 30.2822C53.6529 30.2972 53.5599 30.2957 53.5006 30.2612C53.4301 30.2199 53.3416 30.1351 53.3408 30.0691C53.3401 30.0061 53.4323 29.9123 53.5036 29.8861C53.6649 29.8268 53.8389 29.8013 53.9747 29.7691C53.9425 29.5282 53.917 29.3085 53.8794 29.0917C53.8719 29.0481 53.8194 29.0091 53.7819 28.9754C53.7219 28.9214 53.6131 28.8794 53.6041 28.8201C53.5929 28.7466 53.6514 28.6528 53.7002 28.5823C53.7437 28.5185 53.8569 28.4795 53.8644 28.4203C53.8854 28.2545 53.8712 28.0834 53.8599 27.9146C53.8584 27.8914 53.7962 27.8659 53.7587 27.8516C53.6446 27.8081 53.5666 27.7383 53.5906 27.6071C53.6131 27.4825 53.7129 27.4593 53.8232 27.4435C53.9845 27.4203 54.142 27.3715 54.304 27.3558C54.3851 27.3475 54.5073 27.361 54.5463 27.4128C54.6139 27.5028 54.5463 27.6063 54.4563 27.6596C54.328 27.7346 54.304 27.8284 54.3558 27.9596C54.3753 28.0099 54.3858 28.0662 54.3866 28.1194C54.3881 28.2485 54.4383 28.3047 54.5756 28.2882C54.6731 28.2762 54.8022 28.2837 54.8097 28.4045C54.8142 28.4803 54.7429 28.6033 54.6754 28.6318C54.4661 28.7196 54.4241 28.8614 54.4406 29.0691C54.4541 29.2499 54.4278 29.4352 54.4188 29.6333Z" fill="#4A5364"/>
<path d="M43.2119 21.0468C42.9133 20.944 42.8721 20.7745 43.1039 20.5644C43.1954 20.4819 43.2307 20.3956 43.2224 20.2786C43.2164 20.1968 43.2194 20.1143 43.2247 20.0333C43.2337 19.8975 43.2547 19.776 43.0634 19.7242C42.9336 19.689 42.9179 19.4924 43.0334 19.3956C43.2359 19.2254 43.4685 19.0993 43.7378 19.0813C43.8038 19.0768 43.9021 19.1293 43.9351 19.1856C43.9628 19.2321 43.9426 19.3574 43.9006 19.3881C43.62 19.5884 43.7738 19.86 43.7483 20.1173C43.8023 20.1173 43.8421 20.1083 43.8743 20.1196C43.9456 20.1443 44.0506 20.1638 44.0731 20.2156C44.0971 20.2711 44.0664 20.3979 44.0183 20.4294C43.6643 20.6612 43.7873 20.9973 43.7948 21.3251C43.8698 21.3153 43.9321 21.3026 43.9951 21.3003C44.1706 21.2943 44.2704 21.4346 44.1736 21.5824C44.0048 21.8404 43.7565 22.0152 43.4655 22.109C43.3064 22.16 43.1984 22.025 43.2067 21.8675C43.2224 21.5944 43.2119 21.3198 43.2119 21.0468Z" fill="#4A5364"/>
<path d="M58.755 36.8442C58.7692 36.6777 58.7805 36.5374 58.7947 36.3971C58.8135 36.2103 58.8998 36.1053 59.0378 36.0985C59.1826 36.091 59.3026 36.1953 59.3041 36.3888C59.3079 36.7804 59.2906 37.1728 59.2681 37.5644C59.2561 37.7812 59.2223 37.998 59.1863 38.2125C59.1518 38.418 59.037 38.5231 58.8825 38.5126C58.7227 38.5013 58.6252 38.373 58.6327 38.1532C58.6395 37.9574 58.659 37.7616 58.6845 37.5674C58.6965 37.4758 58.6762 37.4271 58.5899 37.3896C58.4699 37.3386 58.3521 37.28 58.2411 37.2118C58.1196 37.1368 58.0491 37.025 58.1128 36.8794C58.1766 36.7362 58.3004 36.7077 58.4422 36.7474C58.5397 36.7744 58.6365 36.8067 58.755 36.8442Z" fill="#4A5364"/>
<path d="M44.9368 20.1795C44.9368 20.0017 44.9285 19.8232 44.939 19.6454C44.9533 19.3994 45.0298 19.2928 45.1708 19.2906C45.3201 19.2876 45.4049 19.3986 45.4131 19.6529C45.4289 20.127 45.4334 20.6011 45.4379 21.0752C45.4386 21.1503 45.4379 21.2365 45.4034 21.2988C45.3636 21.3716 45.2856 21.4743 45.2256 21.4736C45.1513 21.4721 45.035 21.3911 45.014 21.3205C44.9623 21.151 44.9555 20.968 44.9308 20.7902C44.9255 20.7534 44.921 20.7159 44.9158 20.6724C44.7057 20.6424 44.5497 20.5306 44.4342 20.3633C44.3599 20.2561 44.3389 20.1383 44.4327 20.0318C44.5249 19.9275 44.636 19.9342 44.7372 20.019C44.7942 20.067 44.8393 20.13 44.8888 20.1863C44.9053 20.1848 44.921 20.1818 44.9368 20.1795Z" fill="#4A5364"/>
<path d="M52.3039 28.3469C52.3167 28.2231 52.3249 28.1143 52.3399 28.0063C52.3579 27.8728 52.4112 27.7528 52.562 27.7438C52.7173 27.734 52.7938 27.845 52.7968 27.9831C52.8065 28.4947 52.8058 29.007 52.8058 29.5187C52.8058 29.5607 52.7968 29.6162 52.7698 29.6417C52.703 29.704 52.625 29.7917 52.5492 29.7947C52.4832 29.797 52.3707 29.7062 52.3542 29.6387C52.3129 29.4662 52.2987 29.2839 52.3032 29.1053C52.3077 28.9275 52.2979 28.7932 52.0864 28.7392C51.9633 28.7077 51.8943 28.5945 51.9206 28.4549C51.9521 28.2854 52.1029 28.2374 52.3039 28.3469Z" fill="#4A5364"/>
<path d="M65.8527 62.0637C65.7972 62.0105 65.7657 61.9797 65.7334 61.949C65.8069 61.8987 65.8767 61.8417 65.9547 61.8049C65.9727 61.7967 66.0177 61.8612 66.05 61.8927C65.9885 61.9467 65.9262 62.0007 65.8527 62.0637Z" fill="#4A5364"/>
<path d="M69.6779 66.9873C69.6224 66.9401 69.5909 66.9123 69.5586 66.8853C69.6321 66.841 69.7019 66.7893 69.7799 66.757C69.7979 66.7495 69.8429 66.8073 69.8752 66.835C69.8136 66.883 69.7514 66.9303 69.6779 66.9873Z" fill="#4A5364"/>
<path d="M8.86034 8.8837C8.86034 9.01648 8.77407 9.111 8.65254 9.10575C8.52651 9.1005 8.46575 9.02248 8.4575 8.90545C8.4485 8.78167 8.57152 8.64964 8.6848 8.65039C8.79057 8.65189 8.86034 8.74417 8.86034 8.8837Z" fill="#4A5364"/>
<path d="M73 7.23331C73 7.36609 72.9137 7.46061 72.7922 7.45536C72.6662 7.45011 72.6054 7.37209 72.5971 7.25506C72.5881 7.13128 72.7112 6.99925 72.8244 7C72.9302 7.0015 73 7.09377 73 7.23331Z" fill="#4A5364"/>
<path d="M63.9228 71.8231C63.9228 71.9559 63.8366 72.0504 63.715 72.0452C63.589 72.0399 63.5282 71.9619 63.52 71.8449C63.511 71.7211 63.634 71.5891 63.7473 71.5898C63.8531 71.5913 63.9228 71.6836 63.9228 71.8231Z" fill="#4A5364"/>
<path d="M53.5152 70.1251C53.4597 70.1611 53.4034 70.2256 53.3487 70.2249C53.3029 70.2241 53.2579 70.1469 53.2129 70.1033C53.2632 70.0568 53.3067 69.9863 53.3652 69.9713C53.4049 69.9608 53.4642 70.0283 53.5152 70.0606C53.5152 70.0823 53.5152 70.1041 53.5152 70.1251Z" fill="#4A5364"/>
</g>
<defs>
<clipPath id="clip0_2549_13749">
<path d="M0 16C0 7.16344 7.16344 0 16 0H64C72.8366 0 80 7.16344 80 16V64C80 72.8366 72.8366 80 64 80H16C7.16344 80 0 72.8366 0 64V16Z" fill="white"/>
</clipPath>
</defs>
</svg>
