<svg width="80" height="80" viewBox="0 0 80 80" fill="none" xmlns="http://www.w3.org/2000/svg">
<g clip-path="url(#clip0_2549_13855)">
<path d="M80 0H0V80H80V0Z" fill="#FFF6E2"/>
<path d="M79.9988 62.3993C79.5002 62.7111 79.0056 63.0293 78.5032 63.333C75.2585 65.2976 71.8195 66.8195 68.2673 68.0802C63.985 69.5996 59.6098 70.7479 55.1542 71.5811C52.8192 72.0182 50.4716 72.3686 48.1132 72.6369C45.285 72.9591 42.4491 73.1544 39.6054 73.2331C37.1416 73.3014 34.6794 73.2805 32.2187 73.1464C27.6337 72.8965 23.097 72.3083 18.6476 71.1022C15.9849 70.3798 13.3971 69.4494 10.9598 68.1123C9.39481 67.2542 7.93277 66.2449 6.67825 64.9416C5.6141 63.8352 4.76995 62.5825 4.32213 61.0783C3.77211 59.2294 3.94999 57.4247 4.67633 55.6626C5.32543 54.0869 6.31469 52.7507 7.46388 51.5325C9.25204 49.637 11.3218 48.1224 13.5297 46.7966C13.8746 46.5893 14.2288 46.3981 14.579 46.1996C14.6235 46.1747 14.6703 46.1337 14.7156 46.1353C14.7827 46.1377 14.849 46.1715 14.9161 46.1915C14.8903 46.2526 14.881 46.3362 14.8365 46.3715C14.7156 46.4647 14.5798 46.5395 14.448 46.6182C12.659 47.6957 10.9302 48.8616 9.35424 50.2549C7.93433 51.51 6.66499 52.9009 5.72176 54.5803C5.0157 55.8362 4.54838 57.1732 4.50547 58.638C4.45164 60.4636 5.075 62.0538 6.14227 63.4792C7.1799 64.8661 8.48825 65.9348 9.92298 66.8492C12.102 68.2369 14.4597 69.2051 16.8993 69.9757C19.4317 70.776 22.0164 71.3368 24.6331 71.7482C27.1383 72.142 29.6559 72.3935 32.186 72.5349C35.0664 72.6964 37.9483 72.7261 40.8279 72.5847C42.8111 72.4875 44.7959 72.3581 46.7713 72.1564C53.746 71.4429 60.5982 70.0914 67.2617 67.8166C70.845 66.5937 74.323 65.1136 77.6099 63.1859C78.3596 62.7464 79.0829 62.2603 79.8186 61.7959C79.8771 61.7589 79.9395 61.726 79.9996 61.6914C79.9988 61.9292 79.9988 62.1639 79.9988 62.3993Z" fill="#4A5364"/>
<path d="M79.9983 41.9582C78.3389 41.1185 76.6123 40.454 74.8413 39.9173C74.1369 39.7035 73.4191 39.538 72.7068 39.354C72.4852 39.2969 72.3729 39.1451 72.4213 38.9482C72.4649 38.7706 72.6335 38.6887 72.8543 38.7546C75.2299 39.4593 77.5985 40.184 79.8399 41.2832C79.8891 41.3073 79.946 41.3154 79.9998 41.3306C79.9983 41.5396 79.9983 41.7493 79.9983 41.9582Z" fill="#4A5364"/>
<path d="M50.8842 33.8141C50.9989 33.7972 51.0707 33.7828 51.144 33.7764C52.6872 33.6357 54.1726 33.8631 55.5005 34.7092C56.3111 35.2259 56.9009 35.9965 57.3565 36.8707C58.4254 38.9229 59.1236 41.1157 59.69 43.3583C60.0785 44.897 60.3672 46.4551 60.5232 48.0372C60.5716 48.5305 60.5513 49.0311 60.6091 49.5229C60.7183 50.4526 60.2798 51.1131 59.6315 51.6482C58.6461 52.4606 57.5118 52.8398 56.2432 52.6984C55.9335 52.6638 55.6331 52.5393 55.3047 52.4501C55.2828 52.5634 55.254 52.7 55.2306 52.8374C55.1174 53.4987 54.8077 54.0507 54.3841 54.5561C53.9464 55.0776 53.4955 55.5774 52.9447 55.9759C51.9109 56.7232 50.7649 57.1555 49.5166 57.3363C48.1575 57.5324 46.8211 57.4303 45.4979 57.0784C45.4433 57.0639 45.384 57.0511 45.3294 57.0567C44.4821 57.1354 43.6575 56.9852 42.843 56.7771C41.8405 56.5207 40.8387 56.2524 39.9056 55.7751C39.8432 55.7429 39.7808 55.7124 39.7176 55.6827C39.7083 55.6786 39.6934 55.6851 39.6661 55.6891C39.7176 55.943 39.7785 56.1945 39.8183 56.4492C39.9119 57.0446 39.7051 57.5235 39.223 57.8498C39.0701 57.9526 38.8532 57.9896 38.6644 57.9952C37.4653 58.0305 36.2654 58.049 35.0655 58.0731C33.8593 58.0972 32.6539 58.127 31.4478 58.1454C30.8556 58.1543 30.2814 58.0659 29.7759 57.7148C29.6347 57.6167 29.4981 57.5066 29.378 57.3821C29.2781 57.2776 29.1876 57.2495 29.0433 57.2752C28.1001 57.4416 27.1592 57.4536 26.2386 57.1443C25.5435 56.9104 24.9771 56.5047 24.6798 55.7807C24.2648 54.7715 24.6658 52.966 26.2706 52.4967C27.4681 52.1464 28.5541 52.4453 29.5442 53.1749C29.6651 53.2633 29.7384 53.2842 29.85 53.1821C29.9296 53.109 30.0271 53.0576 30.0989 53.0094C29.74 50.9499 29.7299 48.8945 29.9171 46.8191C29.8617 46.8086 29.8141 46.7949 29.7665 46.7901C28.2007 46.6463 27.252 45.4482 27.4533 43.8396C27.6172 42.5299 28.324 41.5504 29.2976 40.7485C29.4131 40.6537 29.4786 40.558 29.5145 40.4054C29.6815 39.6951 30.1004 39.1439 30.6489 38.7116C30.9828 38.4488 31.3737 38.2632 31.7388 38.0438C31.7708 38.0246 31.8051 38.0093 31.8683 37.9755C31.7716 37.9185 31.6975 37.8735 31.6226 37.8309C30.0474 36.943 28.7624 35.7209 27.8044 34.1661C27.3628 33.4485 27.0437 32.6506 26.6802 31.8833C26.6256 31.7676 26.5819 31.7274 26.4578 31.7523C26.0919 31.8238 25.7822 31.6977 25.5193 31.4381C25.1245 31.05 24.9131 30.5567 24.7726 30.0271C24.4699 28.8829 24.4738 27.7283 24.6704 26.568C24.7945 25.836 24.9732 25.1209 25.3695 24.4901C25.5224 24.2466 25.7315 24.0401 25.9133 23.8143C25.9554 23.7613 26.0116 23.7035 26.0201 23.6416C26.3057 21.583 27.2637 19.8924 28.686 18.4557C30.0794 17.0479 31.7302 16.074 33.5636 15.4136C35.4204 14.7442 37.3389 14.4132 39.3002 14.4389C42.7494 14.4839 45.9582 15.3927 48.8199 17.4304C50.2382 18.4404 51.4116 19.6931 52.2589 21.2519C52.3073 21.3411 52.3548 21.3941 52.468 21.3572C53.9924 20.8518 55.4162 21.7115 56.1114 23.0317C56.5264 23.8216 56.6965 24.6717 56.6754 25.5628C56.6458 26.8388 56.2588 27.987 55.4654 28.9769C54.9216 29.6559 54.2335 30.0938 53.3894 30.269C53.3152 30.2843 53.2279 30.3534 53.1927 30.4225C52.5983 31.6028 51.8352 32.6595 50.9895 33.6574C50.9599 33.6928 50.9365 33.737 50.8842 33.8141ZM43.2463 40.8208C43.5194 40.2109 43.8588 39.6766 44.3011 39.2194C44.4384 39.0772 44.5999 38.9574 44.7583 38.8393C44.8465 38.7742 44.9651 38.7839 44.9939 38.8964C45.0111 38.9647 44.9534 39.0796 44.8956 39.1366C44.3152 39.7063 43.8908 40.3797 43.6122 41.1502C43.5046 41.4483 43.2978 41.5038 43.0614 41.2884C42.9241 41.1639 42.7814 41.0402 42.6238 40.9453C41.5752 40.3114 40.4206 39.9948 39.2402 39.7529C38.9702 39.6975 38.7822 39.7907 38.6137 40.0044C37.9903 40.7903 37.5058 41.6548 37.1384 42.5974C37.0011 42.9493 37.0268 43.1912 37.2679 43.5013C37.9638 44.3964 38.7182 45.2152 39.6669 45.8283C40.9534 46.6592 42.3452 47.0376 43.8611 46.8158C45.4566 46.582 46.7634 45.7817 47.8205 44.5531C49.0672 43.1036 49.7592 41.3841 50.0604 39.4861C50.0947 39.2684 50.2265 39.1447 50.3997 39.1792C50.562 39.2122 50.6478 39.3729 50.6065 39.5794C50.4434 40.4062 50.2437 41.2209 49.9347 42.006C49.2872 43.65 48.3338 45.0585 46.949 46.1369C46.9163 46.1618 46.8913 46.1971 46.85 46.2429C46.9022 46.2638 46.935 46.2807 46.9693 46.2903C47.2736 46.3803 47.5833 46.4559 47.8829 46.5603C49.3013 47.0521 50.6088 47.7672 51.8079 48.6856C52.9735 49.5775 54.0189 50.5892 54.7 51.9407C54.7094 51.9592 54.7375 51.968 54.7874 52.0017C54.8116 51.7752 54.8561 51.5751 54.8498 51.3766C54.8132 50.1818 54.7554 48.9877 54.7234 47.7929C54.6993 46.9107 54.5378 46.0525 54.3107 45.208C53.8551 43.5174 53.1748 41.924 52.2924 40.4247C51.3375 38.8024 50.2024 37.3392 48.7146 36.1917C48.5609 36.0728 48.4657 36.0672 48.3104 36.1877C46.2648 37.7739 44.0023 38.8803 41.487 39.4154C41.2202 39.4725 40.9519 39.5231 40.6843 39.5761C41.5822 39.8984 42.4615 40.2238 43.2463 40.8208ZM27.0898 23.6986C27.4034 23.2101 27.6928 22.6846 28.0517 22.2137C30.2073 19.3845 33.0893 18.0202 36.5322 17.8402C38.1495 17.7558 39.7301 18.0073 41.2319 18.6308C44.8605 20.1366 47.2798 22.7657 48.1817 26.7504C48.5796 28.5093 48.4985 30.2674 47.9289 31.9716C46.7985 35.3512 44.518 37.5633 41.2709 38.7445C40.7194 38.9454 40.1452 39.0812 39.6029 39.2403C41.0977 39.4026 45.1804 37.8317 47.5053 36.1829C49.6679 34.649 51.4077 32.7237 52.624 30.3445C52.3392 30.2224 52.0771 30.1035 51.8111 29.9958C50.9224 29.6374 50.3459 28.9577 49.9816 28.0778C49.4713 26.846 49.4729 25.5845 49.8497 24.3189C50.1563 23.2904 50.7071 22.4299 51.5716 21.8015C51.6636 21.7348 51.7588 21.6738 51.8501 21.6111C51.8415 21.5765 51.8407 21.5556 51.8321 21.5396C51.7962 21.4705 51.7588 21.4022 51.7198 21.3347C50.9061 19.9229 49.8185 18.7731 48.5187 17.8354C46.1377 16.1182 43.4687 15.2553 40.5883 15.0407C38.9788 14.921 37.3802 15.0038 35.7965 15.3477C33.7649 15.7896 31.8824 16.5827 30.205 17.8563C28.6189 19.0599 27.4237 20.5786 26.748 22.5022C26.6302 22.8365 26.546 23.1836 26.4508 23.5098C26.6872 23.5797 26.8893 23.6392 27.0898 23.6986ZM48.3822 56.9329C48.7075 56.8887 49.3192 56.8526 49.9098 56.7184C51.8797 56.2708 53.4947 55.2889 54.441 53.3661C54.4871 53.2721 54.5073 53.1403 54.4863 53.0383C54.3365 52.3183 53.976 51.7028 53.5282 51.1444C51.6519 48.8013 49.2225 47.3767 46.3967 46.619C46.328 46.6005 46.2336 46.6246 46.1673 46.6608C45.2295 47.179 44.2372 47.4836 43.1668 47.49C43.0466 47.4908 42.9936 47.539 42.9452 47.6523C42.7665 48.0709 42.5801 48.4855 42.3842 48.8953C41.7055 50.3128 41.0236 51.7285 40.3379 53.1427C40.2723 53.2777 40.2825 53.3621 40.3948 53.4609C40.7755 53.7968 41.1336 54.1608 41.5268 54.479C43.4554 56.0378 45.6422 56.867 48.3822 56.9329ZM60.1308 49.5478C60.07 48.7684 60.038 48.2332 59.9841 47.7013C59.8484 46.361 59.5948 45.0425 59.2843 43.7343C58.8482 41.8983 58.3099 40.0984 57.5703 38.3644C57.1857 37.4637 56.7339 36.6047 56.1402 35.8309C56.0942 35.7707 56.0404 35.6919 55.9764 35.6743C55.6542 35.5851 55.3281 35.4541 55.0012 35.4461C53.9004 35.4204 52.9251 35.8133 52.0654 36.5091C51.6972 36.8072 51.3976 37.1688 51.2408 37.6373C51.1986 37.7634 51.2064 37.8663 51.2954 37.9796C52.4173 39.405 53.3082 40.9743 54.0229 42.652C54.7788 44.4254 55.2742 46.2711 55.3702 48.2091C55.4256 49.3308 55.403 50.4566 55.4162 51.5807C55.4178 51.7294 55.3749 51.9214 55.4474 52.0138C55.5294 52.1183 55.7182 52.1335 55.8617 52.1841C55.9031 52.1986 55.9475 52.2058 55.992 52.2123C57.2247 52.3947 58.3122 52.0395 59.2843 51.2641C59.91 50.7675 60.2525 50.144 60.1308 49.5478ZM42.4771 47.482C39.9634 47.1605 38.1409 45.7608 36.7335 43.6781C36.4986 43.8035 36.3278 43.9923 36.1788 44.2052C35.674 44.922 35.4001 45.7439 35.1942 46.5884C34.7393 48.4526 34.62 50.3529 34.6605 52.2677C34.6621 52.3432 34.673 52.418 34.6785 52.4847C36.4331 52.2372 38.1229 52.3111 39.7527 53.1652C40.6523 51.2898 41.5573 49.4008 42.4771 47.482ZM34.6356 57.5942C34.6356 57.5886 34.6356 57.583 34.6356 57.5782C35.7653 57.5782 36.895 57.583 38.0239 57.5749C38.3469 57.5725 38.687 57.5565 38.9507 57.3435C39.3346 57.0334 39.3946 56.6043 39.269 56.1383C39.0592 55.3604 39.1341 54.5987 39.3946 53.8498C39.4383 53.7229 39.4102 53.6433 39.3065 53.5919C39.1473 53.5132 38.9866 53.428 38.8181 53.3774C37.5175 52.9877 36.1928 52.8712 34.8454 53.011C34.7253 53.023 34.7035 53.076 34.7089 53.1885C34.7237 53.481 34.7393 53.7751 34.7276 54.0676C34.7144 54.4235 34.5303 54.5698 34.1963 54.4726C33.9553 54.4027 33.7134 54.303 33.5012 54.168C33.2001 53.9768 32.9278 53.7381 32.6391 53.5252C32.2248 53.2199 31.7591 53.0833 31.2559 53.1476C30.3017 53.2697 29.6667 53.8298 29.3343 54.7417C28.9419 55.8201 29.4123 56.9868 30.4047 57.4118C30.7238 57.5484 31.0601 57.6408 31.4182 57.6207C31.7981 57.5999 32.1788 57.5966 32.5595 57.5942C33.2523 57.591 33.9443 57.5942 34.6356 57.5942ZM34.0622 52.0379C34.0676 51.9535 34.0739 51.8965 34.0739 51.8394C34.07 50.2541 34.1792 48.6792 34.5201 47.1292C34.7503 46.0822 35.0288 45.0513 35.6022 44.1337C35.6319 44.0863 35.6256 43.9826 35.5944 43.9336C35.0522 43.0956 34.3157 42.5226 33.3421 42.37C32.2163 42.1932 31.6787 42.5218 31.2652 43.4435C30.7964 44.488 30.5912 45.6033 30.4663 46.7363C30.329 47.9785 30.2846 49.2248 30.3587 50.4743C30.386 50.9419 30.4273 51.4087 30.4624 51.8893C31.6889 51.5598 32.8677 51.6378 34.0622 52.0379ZM55.9795 25.7179C55.985 24.4347 55.7322 23.4921 55.0714 22.7039C54.5105 22.0353 53.7958 21.7268 52.9314 21.869C52.3127 21.9711 51.8072 22.3013 51.3757 22.7545C50.0752 24.1205 49.7249 26.4523 50.5878 28.1461C51.0098 28.9745 51.5848 29.6246 52.5889 29.6704C53.3706 29.7057 54.0314 29.4245 54.5955 28.8886C55.5652 27.9661 55.9499 26.7898 55.9795 25.7179ZM29.3203 53.6417C29.2898 53.612 29.2688 53.5879 29.2446 53.5678C28.4168 52.8872 27.4892 52.6679 26.4594 52.933C25.6519 53.1411 25.0114 53.8458 24.9903 54.708C24.9693 55.5597 25.4132 56.2291 26.2714 56.5625C26.9899 56.8421 27.7326 56.8598 28.4839 56.7754C28.6181 56.7602 28.7507 56.7345 28.8857 56.7136C28.5198 55.2166 28.5393 55.0792 29.3203 53.6417ZM35.3869 39.3512C35.3175 39.3222 35.2792 39.3038 35.2387 39.2893C34.4476 39.0105 33.6588 38.7252 32.8646 38.4601C32.6914 38.4022 32.4846 38.3612 32.313 38.4022C31.3144 38.6384 30.5662 39.2338 30.0669 40.1563C30.0349 40.2157 30.0037 40.3001 30.0201 40.358C30.0872 40.5878 30.1465 40.8264 30.258 41.0337C30.4851 41.4588 30.8346 41.7722 31.2176 42.0502C31.4111 42.1908 31.5828 42.2736 31.7825 42.0727C31.8215 42.0333 31.8792 42.0044 31.9331 41.9915C32.3075 41.9023 32.682 41.8123 33.0596 41.7384C33.1704 41.7167 33.2157 41.6717 33.25 41.5648C33.5566 40.6063 34.1651 39.9273 35.0561 39.5127C35.1591 39.4645 35.2597 39.413 35.3869 39.3512ZM29.6199 41.0353C29.5886 41.057 29.566 41.0691 29.5481 41.086C28.7375 41.83 28.1828 42.7195 28.015 43.8468C27.8286 45.1019 28.6275 46.1513 29.8484 46.2269C29.9561 46.2333 30.0123 46.2068 30.0287 46.087C30.0583 45.8677 30.0973 45.6491 30.1394 45.4314C30.3119 44.5515 30.5381 43.691 31.0031 42.9172C31.0444 42.8481 31.0764 42.7725 31.1115 42.7026C30.1504 42.014 30.1504 42.014 29.6199 41.0353ZM38.1854 39.7489C37.8382 39.7232 37.4551 39.7264 37.0845 39.6589C36.6515 39.5794 36.2427 39.6203 35.8324 39.7577C35.1006 40.0036 34.4296 40.3507 34.0036 41.045C33.8874 41.2338 33.8523 41.4797 33.7977 41.7039C33.7696 41.8188 33.8359 41.8855 33.9545 41.9256C34.7815 42.2061 35.4485 42.7147 35.9634 43.4378C35.9954 43.4828 36.0321 43.5246 36.0649 43.5664C36.1873 43.4893 36.2981 43.4274 36.4011 43.3519C36.4425 43.3213 36.4838 43.2675 36.4947 43.2177C36.6274 42.5934 36.8637 42.0084 37.1696 41.458C37.4894 40.8819 37.8405 40.3258 38.1854 39.7489ZM54.8982 34.9471C54.8295 34.8981 54.8116 34.8804 54.7905 34.8707C53.5274 34.3059 52.2168 34.0528 50.8405 34.2392C50.5456 34.2794 50.296 34.3959 50.0775 34.6281C49.7701 34.9559 49.4237 35.2452 49.0937 35.5513C49.0438 35.5979 48.9939 35.6453 48.972 35.6662C49.6102 36.2399 50.2375 36.804 50.8694 37.3721C51.1596 36.5573 51.7931 36.0399 52.5163 35.6172C53.2364 35.1962 54.0197 34.9832 54.8982 34.9471ZM26.4383 31.1818C25.7557 28.7399 25.9273 26.376 26.9439 24.0747C26.7005 23.9879 26.4976 24.02 26.3065 24.1534C26.0342 24.3439 25.8586 24.6138 25.7206 24.9111C25.3796 25.6456 25.2072 26.4258 25.151 27.2341C25.08 28.2465 25.1222 29.2501 25.467 30.2111C25.5723 30.5044 25.7525 30.7752 25.9328 31.0307C26.0357 31.177 26.2128 31.2493 26.4383 31.1818ZM27.9464 28.1204C27.9464 28.2883 27.9425 28.4249 27.9472 28.5623C27.9628 29.001 28.0267 29.4317 28.2077 29.8335C28.2826 30.0006 28.4129 30.1011 28.6017 30.0778C28.8139 30.0512 28.9895 29.9179 28.9957 29.7202C29.0035 29.4703 29.0004 29.2043 28.9263 28.9705C28.6797 28.1959 28.7585 27.4358 28.9692 26.6797C29.0456 26.4057 29.1939 26.1526 29.2688 25.8778C29.2984 25.7693 29.2485 25.603 29.1775 25.509C29.0901 25.3932 28.9395 25.382 28.7944 25.4527C28.5417 25.5756 28.4418 25.8183 28.3412 26.057C28.0619 26.7239 27.9191 27.4205 27.9464 28.1204ZM43.5116 56.4323C43.5194 56.405 43.528 56.3785 43.5358 56.3512C42.204 55.71 41.0104 54.8687 39.9961 53.7341C39.8019 54.0885 39.7083 54.4372 39.6349 54.7948C39.5741 55.0929 39.56 55.1114 39.8292 55.2303C40.2645 55.4231 40.7038 55.6168 41.1563 55.759C41.9356 56.0041 42.726 56.2106 43.5116 56.4323ZM34.1979 54.0266C34.1628 53.575 34.1253 53.1998 34.1082 52.8237C34.1019 52.6879 34.0497 52.6277 33.9342 52.5859C32.9442 52.2259 31.9346 52.0708 30.8892 52.2629C30.496 52.3352 30.4921 52.336 30.5841 52.7394C30.5865 52.7506 30.5997 52.7587 30.6161 52.7763C30.6723 52.7627 30.7324 52.7474 30.794 52.7337C31.5297 52.569 32.2155 52.6663 32.8326 53.1395C33.0667 53.3187 33.3046 53.4923 33.5504 53.653C33.7438 53.7807 33.9514 53.886 34.1979 54.0266ZM29.0878 24.662C29.0893 24.9505 29.3125 25.1699 29.6035 25.1683C29.8734 25.1675 30.1012 24.9449 30.1012 24.6813C30.1012 24.4057 29.8594 24.1751 29.5746 24.1783C29.2867 24.1815 29.0862 24.3808 29.0878 24.662Z" fill="#4A5364"/>
<path d="M39.7793 63.0841C37.5566 63.1002 35.3363 63.0408 33.1198 62.864C30.035 62.6173 26.9759 62.1995 23.9816 61.3694C22.2317 60.8849 20.5294 60.2678 18.9573 59.3189C18.2474 58.8906 17.5866 58.3956 17.0373 57.7576C16.5224 57.1598 16.1433 56.4905 16.0301 55.6854C15.9326 54.9919 16.0481 54.333 16.3328 53.7015C16.7424 52.7919 17.3783 52.0655 18.1147 51.4331C18.5477 51.0619 19.0197 50.7389 19.4746 50.395C19.5003 50.3757 19.5269 50.3484 19.5557 50.3452C19.6462 50.3355 19.782 50.297 19.8186 50.3412C19.9021 50.4416 19.8062 50.5211 19.7211 50.5902C19.2007 51.0185 18.6663 51.4307 18.1686 51.8855C17.5803 52.4223 17.0888 53.0474 16.7557 53.7891C16.2595 54.8931 16.3508 55.9465 17.0397 56.9364C17.5866 57.7223 18.3207 58.2912 19.1165 58.7797C20.506 59.6322 22.0148 60.1859 23.5611 60.6415C25.4725 61.2047 27.4214 61.5832 29.3898 61.8604C31.1764 62.1119 32.97 62.2718 34.7699 62.3722C37.2438 62.5104 39.7193 62.5185 42.194 62.4285C44.5852 62.3409 46.9717 62.1673 49.3497 61.8861C53.2038 61.4313 57.0211 60.7652 60.773 59.7391C63.4607 59.0039 66.0984 58.1184 68.6114 56.8738C69.9993 56.1868 71.3279 55.3977 72.5083 54.3676C73.1465 53.8108 73.7168 53.1904 74.1147 52.4215C74.7435 51.2065 74.653 50.0479 73.8409 48.9551C73.2144 48.1122 72.3843 47.5248 71.4941 47.021C70.0734 46.2167 68.5568 45.6575 66.9917 45.2533C65.7762 44.9391 64.542 44.6973 63.3132 44.4361C62.9793 44.3654 62.6345 44.3445 62.2959 44.2979C62.2147 44.2867 62.1305 44.2738 62.0571 44.2401C61.93 44.1814 61.8559 44.0713 61.8855 43.9243C61.9159 43.774 62.0166 43.672 62.1695 43.6888C62.4145 43.7153 62.6579 43.7628 62.9013 43.8086C64.911 44.1838 66.9075 44.6137 68.8431 45.2999C70.0999 45.745 71.3186 46.277 72.4389 47.0242C73.1574 47.5039 73.8151 48.056 74.316 48.7815C75.1476 49.986 75.2374 51.2523 74.5929 52.5701C74.1623 53.45 73.5194 54.1531 72.8009 54.7862C71.5222 55.9136 70.0648 56.7476 68.5505 57.4804C65.8542 58.7837 63.03 59.7118 60.1496 60.4663C57.1779 61.2449 54.1688 61.8226 51.1308 62.2421C47.3626 62.7635 43.5803 63.0544 39.7793 63.0841Z" fill="#4A5364"/>
<path d="M9.69495 31.8595C9.34777 31.8595 9.0318 31.8611 8.71583 31.8586C8.45993 31.857 8.35851 31.7502 8.36241 31.4874C8.37021 30.9587 8.37958 30.43 8.38894 29.9013C8.38972 29.8362 8.3905 29.7695 8.40298 29.7068C8.42951 29.5742 8.4927 29.473 8.64483 29.4843C8.78917 29.4947 8.83754 29.5975 8.83988 29.7269C8.84846 30.1769 8.85236 30.6277 8.85782 31.0784C8.8586 31.1491 8.85782 31.219 8.85782 31.3356C9.23933 31.3147 9.59898 31.3155 9.95318 31.2681C10.2325 31.2311 10.4088 31.35 10.3604 31.6313C10.2403 32.3375 10.1061 33.0414 9.97191 33.7445C9.95162 33.8514 9.91261 33.9606 9.85878 34.0539C9.82601 34.1101 9.74878 34.1655 9.68948 34.168C9.65438 34.1696 9.60757 34.0707 9.57948 34.0113C9.56154 33.9727 9.5631 33.9213 9.56544 33.8763C9.59586 33.3106 9.62785 32.7441 9.66062 32.1784C9.66764 32.0828 9.68168 31.9872 9.69495 31.8595Z" fill="#4A5364"/>
<path d="M25.916 3.44102C25.7421 3.47477 25.6063 3.51012 25.469 3.52539C25.1156 3.56556 24.8183 3.50128 24.8714 2.99024C24.9291 2.42698 25.0048 1.86532 25.0805 1.30446C25.0992 1.16545 25.1577 1.03689 25.3153 1.00555C25.5143 0.966182 25.6539 1.14055 25.6172 1.38803C25.5681 1.7231 25.508 2.05736 25.462 2.39323C25.4386 2.56599 25.437 2.74115 25.4222 2.9565C25.6344 2.90186 25.8154 2.85766 25.9956 2.80704C26.3498 2.70741 26.5449 2.84802 26.509 3.21603C26.4349 3.9842 26.2827 4.73709 26.0097 5.45945C25.998 5.48999 25.9902 5.52454 25.9691 5.54704C25.9254 5.59525 25.8755 5.63623 25.8279 5.68042C25.806 5.61935 25.7616 5.55668 25.7655 5.49722C25.7904 5.07377 25.8248 4.65112 25.856 4.22847C25.8747 3.97696 25.8942 3.72466 25.916 3.44102Z" fill="#4A5364"/>
<path d="M66.6822 21.0954C66.4646 21.0954 66.2531 21.1203 66.0503 21.0889C65.771 21.0464 65.6446 20.8704 65.6571 20.5803C65.6735 20.1954 65.7 19.8114 65.7328 19.4281C65.7515 19.2087 65.8615 19.0922 66.0136 19.0994C66.1634 19.1067 66.2758 19.236 66.282 19.4458C66.2914 19.7776 66.2844 20.1103 66.2844 20.4887C66.431 20.4606 66.5722 20.4469 66.7049 20.406C67.0965 20.2854 67.2939 20.4068 67.3204 20.8278C67.354 21.3646 67.3446 21.9045 67.148 22.4099C67.0645 22.6253 66.8983 22.8085 66.7571 22.9965C66.7259 23.0375 66.6385 23.0343 66.5769 23.0511C66.5715 22.9861 66.5473 22.9145 66.5636 22.8559C66.7189 22.3023 66.7267 21.7366 66.7064 21.1677C66.7056 21.1484 66.6947 21.1307 66.6822 21.0954Z" fill="#4A5364"/>
<path d="M60.5889 68.381C60.5155 68.295 60.4235 68.2332 60.4258 68.1769C60.4297 68.1118 60.5062 68.0178 60.5702 67.9961C60.6669 67.9632 60.7816 67.9712 60.8869 67.9825C60.9938 67.9945 61.0117 68.0837 60.9415 68.1472C60.8471 68.2324 60.7293 68.2902 60.5889 68.381Z" fill="#4A5364"/>
<path d="M73.5362 56.3638C73.5081 56.3461 73.427 56.3172 73.4277 56.2899C73.4293 56.2377 73.4636 56.1629 73.5065 56.1396C73.6228 56.0753 73.7492 56.0296 73.874 55.9854C73.9036 55.9749 73.9622 55.9837 73.9754 56.0046C73.9949 56.0352 73.9973 56.089 73.9848 56.1252C73.9153 56.3341 73.7281 56.3261 73.5362 56.3638Z" fill="#4A5364"/>
<path d="M64.8936 11.1973C64.9497 11.2728 65.0418 11.3435 65.0535 11.4255C65.073 11.5709 64.9482 11.6014 64.8343 11.5998C64.7219 11.5982 64.6088 11.5717 64.6104 11.4214C64.6119 11.2648 64.7282 11.2407 64.8936 11.1973Z" fill="#4A5364"/>
<path d="M42.8976 4.22998C42.9865 4.43488 42.9514 4.65102 42.825 4.7378C42.7829 4.76673 42.6776 4.77316 42.6612 4.74825C42.6253 4.69441 42.5933 4.58996 42.6206 4.54657C42.6916 4.43327 42.7954 4.34247 42.8976 4.22998Z" fill="#4A5364"/>
<path d="M39.9399 67.8577C39.9243 68.0241 39.7831 68.1438 39.6341 68.1309C39.517 68.1205 39.4663 68.049 39.4757 67.9333C39.4866 67.7951 39.6013 67.7356 39.8486 67.7782C39.7636 67.8192 39.7129 67.8441 39.6622 67.8682C39.6739 67.8859 39.6848 67.9035 39.6965 67.9204C39.7363 67.9051 39.7745 67.8859 39.8151 67.8754C39.8541 67.865 39.8962 67.8634 39.9399 67.8577Z" fill="#4A5364"/>
<path d="M65.6162 39.9103C65.5569 39.8508 65.482 39.8099 65.4711 39.7552C65.4641 39.7191 65.5468 39.6628 65.5897 39.6162C65.5928 39.613 65.6014 39.6138 65.6077 39.6138C65.6958 39.6122 65.7848 39.605 65.8714 39.6154C65.8838 39.617 65.908 39.7335 65.8901 39.748C65.816 39.8066 65.727 39.8468 65.6162 39.9103Z" fill="#4A5364"/>
<path d="M12.2813 22.3051C12.1885 22.3967 12.1277 22.457 12.0668 22.5172C12.0114 22.4505 11.9147 22.3846 11.9131 22.3164C11.9115 22.2521 11.9997 22.1548 12.0684 22.1307C12.1066 22.1163 12.1846 22.2215 12.2813 22.3051Z" fill="#4A5364"/>
<path d="M20.2178 38.0559C20.3036 37.982 20.3613 37.9321 20.4191 37.8823C20.4565 37.9297 20.533 37.9868 20.5244 38.0213C20.5033 38.1049 20.4425 38.178 20.398 38.256C20.3481 38.2005 20.2981 38.1459 20.2178 38.0559Z" fill="#4A5364"/>
<path d="M75.9287 24.5679C75.9942 24.6988 76.0512 24.8041 76.0972 24.9134C76.1081 24.9399 76.0925 25.0066 76.0754 25.0122C76.0418 25.0235 75.9817 25.0194 75.963 24.9961C75.8694 24.8764 75.814 24.7454 75.9287 24.5679Z" fill="#4A5364"/>
<path d="M15.2451 4.0919C15.3629 4.05092 15.4753 3.95771 15.565 4.10717C15.5829 4.1369 15.5314 4.25662 15.4917 4.26948C15.359 4.31367 15.2818 4.23734 15.2451 4.0919Z" fill="#4A5364"/>
<path d="M9.85337 71.1352C9.77067 71.1433 9.68719 71.1505 9.60449 71.1585C9.60761 71.12 9.60527 71.0484 9.61385 71.0468C9.69109 71.034 9.77067 71.034 9.84869 71.0308C9.85025 71.0653 9.85181 71.0999 9.85337 71.1352Z" fill="#4A5364"/>
<path d="M11.1633 54.1753C11.1087 54.1914 11.0533 54.2244 11.001 54.2187C10.9667 54.2155 10.9074 54.1528 10.9113 54.1263C10.9191 54.0797 10.9612 54.0323 11.0018 54.0018C11.0127 53.9938 11.0674 54.0476 11.1017 54.0733C11.122 54.1079 11.1422 54.1416 11.1633 54.1753Z" fill="#4A5364"/>
<path d="M55.3257 25.2555C55.3015 26.3089 55.0745 27.1566 54.4605 27.8565C54.1024 28.2647 53.6756 28.5845 53.1256 28.6078C52.3267 28.6415 51.74 28.2165 51.3468 27.5439C50.5838 26.2398 50.8764 24.223 51.9452 23.1728C52.8323 22.301 54.0665 22.407 54.7601 23.4476C54.9668 23.7585 55.1002 24.1322 55.2126 24.4946C55.3 24.7758 55.3023 25.0844 55.3257 25.2555ZM54.6376 25.2651C54.6353 24.8039 54.512 24.2238 54.1375 23.728C53.6881 23.1326 53.0156 23.0426 52.4515 23.5191C52.2495 23.6894 52.0599 23.9 51.9273 24.1298C51.4709 24.922 51.3437 25.7794 51.5645 26.6753C51.687 27.1719 51.9125 27.6146 52.3298 27.9248C52.3899 27.969 52.4609 28.0108 52.5319 28.0228C53.199 28.1305 53.7092 27.8677 54.0813 27.3029C54.4543 26.7348 54.6337 26.104 54.6376 25.2651Z" fill="#4A5364"/>
</g>
<defs>
<clipPath id="clip0_2549_13855">
<path d="M0 16C0 7.16344 7.16344 0 16 0H64C72.8366 0 80 7.16344 80 16V64C80 72.8366 72.8366 80 64 80H16C7.16344 80 0 72.8366 0 64V16Z" fill="white"/>
</clipPath>
</defs>
</svg>
