<svg width="316" height="286" viewBox="0 0 316 286" fill="none" xmlns="http://www.w3.org/2000/svg">
<g clip-path="url(#clip0_2546_13548)">
<path d="M316 0H0V286H316V0Z" fill="#FFF6E2"/>
<path d="M315.752 229.977C313.779 231.211 311.822 232.47 309.834 233.672C296.993 241.447 283.384 247.469 269.327 252.459C252.38 258.472 235.066 263.015 217.434 266.313C208.194 268.043 198.904 269.429 189.57 270.491C178.379 271.766 167.156 272.539 155.902 272.85C146.152 273.121 136.408 273.038 126.671 272.507C108.526 271.518 90.573 269.191 72.9656 264.418C62.4283 261.559 52.1874 257.877 42.5424 252.586C36.349 249.19 30.5633 245.196 25.5987 240.038C21.3875 235.66 18.0469 230.702 16.2748 224.75C14.0982 217.433 14.8021 210.291 17.6765 203.318C20.2452 197.083 24.16 191.795 28.7077 186.974C35.784 179.473 43.9749 173.479 52.7122 168.232C54.0769 167.412 55.4785 166.655 56.8648 165.87C57.0408 165.771 57.226 165.609 57.4051 165.615C57.6706 165.625 57.933 165.759 58.1985 165.838C58.0967 166.08 58.0596 166.41 57.8836 166.55C57.4051 166.919 56.8679 167.215 56.3461 167.526C49.2667 171.791 42.425 176.404 36.1885 181.918C30.5694 186.885 25.5462 192.389 21.8136 199.035C19.0195 204.005 17.1701 209.296 17.0003 215.093C16.7873 222.317 19.2541 228.61 23.4777 234.251C27.5839 239.739 32.7615 243.969 38.4392 247.587C47.0623 253.079 56.3924 256.91 66.0467 259.96C76.0684 263.127 86.2969 265.346 96.6521 266.974C106.566 268.532 116.529 269.528 126.541 270.087C137.94 270.726 149.345 270.844 160.74 270.284C168.588 269.9 176.443 269.388 184.26 268.59C211.861 265.766 238.978 260.418 265.347 251.416C279.528 246.576 293.291 240.719 306.299 233.09C309.266 231.351 312.128 229.427 315.039 227.589C315.271 227.443 315.518 227.313 315.755 227.176C315.752 228.117 315.752 229.046 315.752 229.977Z" fill="#4A5364"/>
<path d="M315.752 149.086C309.185 145.763 302.353 143.133 295.345 141.009C292.557 140.163 289.716 139.508 286.898 138.78C286.021 138.554 285.576 137.953 285.768 137.174C285.94 136.472 286.607 136.147 287.481 136.408C296.882 139.197 306.256 142.065 315.126 146.415C315.32 146.51 315.546 146.542 315.759 146.602C315.752 147.429 315.752 148.259 315.752 149.086Z" fill="#4A5364"/>
<path d="M200.54 116.855C200.994 116.789 201.278 116.731 201.568 116.706C207.675 116.15 213.554 117.049 218.808 120.398C222.016 122.442 224.35 125.492 226.153 128.951C230.383 137.073 233.146 145.75 235.388 154.625C236.925 160.714 238.067 166.88 238.685 173.141C238.876 175.093 238.796 177.074 239.025 179.02C239.457 182.699 237.722 185.313 235.156 187.431C231.257 190.646 226.768 192.146 221.747 191.587C220.522 191.45 219.333 190.957 218.033 190.604C217.947 191.053 217.833 191.593 217.74 192.137C217.292 194.754 216.067 196.938 214.39 198.938C212.658 201.002 210.874 202.98 208.694 204.557C204.603 207.514 200.068 209.225 195.128 209.94C189.75 210.716 184.461 210.312 179.225 208.92C179.009 208.863 178.774 208.812 178.558 208.834C175.205 209.146 171.942 208.551 168.718 207.727C164.751 206.713 160.787 205.651 157.094 203.762C156.847 203.635 156.6 203.514 156.35 203.396C156.313 203.381 156.255 203.406 156.146 203.422C156.35 204.427 156.591 205.422 156.748 206.43C157.119 208.786 156.301 210.681 154.393 211.972C153.788 212.379 152.929 212.526 152.182 212.548C147.437 212.688 142.688 212.761 137.94 212.856C133.167 212.952 128.397 213.069 123.624 213.143C121.28 213.177 119.008 212.828 117.008 211.438C116.449 211.05 115.908 210.615 115.433 210.122C115.038 209.708 114.68 209.597 114.108 209.699C110.376 210.357 106.652 210.405 103.009 209.18C100.258 208.255 98.0169 206.649 96.8406 203.784C95.1982 199.791 96.7851 192.646 103.136 190.789C107.875 189.402 112.173 190.585 116.091 193.472C116.569 193.822 116.859 193.905 117.301 193.501C117.616 193.212 118.002 193.008 118.286 192.817C116.866 184.668 116.825 176.534 117.566 168.32C117.347 168.279 117.159 168.225 116.97 168.206C110.774 167.637 107.02 162.896 107.816 156.53C108.465 151.347 111.262 147.47 115.115 144.297C115.572 143.922 115.831 143.543 115.973 142.939C116.634 140.128 118.292 137.947 120.462 136.236C121.784 135.196 123.331 134.462 124.775 133.594C124.902 133.518 125.038 133.457 125.288 133.324C124.905 133.098 124.612 132.92 124.315 132.751C118.082 129.238 112.997 124.401 109.206 118.248C107.458 115.409 106.195 112.251 104.757 109.214C104.541 108.757 104.368 108.598 103.877 108.696C102.429 108.979 101.203 108.48 100.163 107.453C98.6005 105.917 97.7638 103.965 97.208 101.869C96.0101 97.3411 96.0256 92.7717 96.8036 88.1801C97.2945 85.2834 98.0015 82.4534 99.5699 79.9572C100.175 78.9937 101.002 78.1765 101.722 77.283C101.889 77.0732 102.111 76.8442 102.145 76.5994C103.275 68.4528 107.066 61.7625 112.694 56.077C118.209 50.506 124.741 46.6521 131.997 44.0384C139.345 41.3896 146.937 40.0795 154.698 40.1813C168.348 40.3594 181.046 43.9557 192.371 52.0196C197.984 56.0166 202.627 60.9739 205.98 67.1427C206.172 67.4956 206.36 67.7055 206.808 67.5592C212.84 65.5591 218.475 68.9615 221.226 74.1859C222.868 77.3116 223.541 80.6758 223.458 84.2022C223.341 89.2517 221.809 93.7956 218.669 97.7131C216.517 100.4 213.794 102.133 210.454 102.826C210.16 102.887 209.815 103.16 209.676 103.434C207.323 108.105 204.304 112.286 200.957 116.235C200.84 116.375 200.747 116.55 200.54 116.855ZM170.315 144.583C171.395 142.17 172.738 140.055 174.489 138.246C175.032 137.683 175.671 137.209 176.298 136.742C176.647 136.484 177.116 136.522 177.23 136.968C177.298 137.238 177.07 137.693 176.841 137.918C174.544 140.173 172.865 142.837 171.763 145.887C171.336 147.067 170.518 147.286 169.583 146.434C169.039 145.941 168.474 145.451 167.851 145.076C163.701 142.567 159.132 141.314 154.461 140.357C153.392 140.138 152.648 140.507 151.982 141.353C149.515 144.462 147.597 147.884 146.143 151.614C145.6 153.006 145.702 153.964 146.656 155.191C149.41 158.733 152.395 161.973 156.15 164.4C161.241 167.687 166.749 169.185 172.747 168.308C179.061 167.382 184.233 164.215 188.416 159.353C193.35 153.617 196.088 146.812 197.28 139.302C197.416 138.44 197.937 137.95 198.623 138.087C199.265 138.217 199.605 138.853 199.441 139.67C198.796 142.942 198.005 146.167 196.783 149.273C194.22 155.779 190.447 161.353 184.967 165.621C184.838 165.719 184.739 165.859 184.575 166.04C184.782 166.123 184.912 166.19 185.048 166.228C186.252 166.584 187.477 166.883 188.663 167.296C194.276 169.242 199.45 172.072 204.196 175.707C208.808 179.236 212.945 183.24 215.641 188.588C215.678 188.661 215.789 188.696 215.986 188.83C216.082 187.933 216.258 187.141 216.233 186.356C216.088 181.628 215.86 176.902 215.733 172.174C215.638 168.683 214.998 165.287 214.1 161.945C212.297 155.255 209.605 148.949 206.113 143.016C202.334 136.596 197.842 130.805 191.954 126.264C191.346 125.794 190.969 125.772 190.355 126.249C182.26 132.525 173.306 136.904 163.352 139.022C162.297 139.247 161.234 139.448 160.176 139.658C163.729 140.933 167.209 142.221 170.315 144.583ZM106.378 76.8251C107.619 74.8918 108.764 72.8122 110.184 70.9489C118.715 59.7529 130.12 54.3536 143.744 53.6413C150.145 53.3074 156.4 54.3027 162.343 56.7702C176.702 62.7291 186.276 73.1334 189.845 88.902C191.42 95.8625 191.099 102.82 188.845 109.564C184.371 122.938 175.347 131.692 162.497 136.367C160.314 137.162 158.042 137.699 155.896 138.329C161.812 138.971 177.968 132.754 187.169 126.229C195.727 120.159 202.612 112.54 207.425 103.125C206.298 102.642 205.261 102.171 204.208 101.745C200.691 100.327 198.41 97.6368 196.968 94.155C194.949 89.2803 194.955 84.2881 196.446 79.2799C197.66 75.2098 199.839 71.8043 203.26 69.3177C203.624 69.0537 204.001 68.8121 204.362 68.564C204.328 68.4273 204.325 68.3446 204.291 68.281C204.149 68.0076 204.001 67.7373 203.847 67.4702C200.627 61.8833 196.323 57.333 191.179 53.6222C181.756 46.827 171.194 43.4119 159.796 42.5629C153.426 42.0892 147.1 42.4167 140.833 43.7776C132.793 45.5265 125.343 48.665 118.706 53.7049C112.429 58.4682 107.699 64.478 105.025 72.0904C104.559 73.4132 104.226 74.7869 103.849 76.0779C104.785 76.3545 105.584 76.5898 106.378 76.8251ZM190.639 208.344C191.926 208.169 194.347 208.026 196.684 207.495C204.48 205.724 210.871 201.838 214.616 194.229C214.798 193.857 214.878 193.336 214.795 192.932C214.202 190.083 212.775 187.647 211.003 185.437C203.578 176.165 193.964 170.527 182.781 167.529C182.51 167.455 182.136 167.551 181.874 167.694C178.163 169.745 174.236 170.95 170 170.975C169.524 170.979 169.314 171.169 169.123 171.618C168.416 173.274 167.678 174.915 166.903 176.537C164.217 182.146 161.519 187.749 158.805 193.345C158.545 193.879 158.586 194.213 159.03 194.604C160.537 195.934 161.954 197.374 163.51 198.633C171.142 204.802 179.796 208.083 190.639 208.344ZM237.132 179.119C236.891 176.034 236.765 173.917 236.552 171.812C236.014 166.508 235.011 161.29 233.782 156.113C232.056 148.847 229.926 141.725 226.999 134.863C225.477 131.298 223.689 127.899 221.34 124.837C221.158 124.598 220.945 124.287 220.692 124.217C219.416 123.864 218.126 123.345 216.832 123.314C212.476 123.212 208.617 124.767 205.214 127.52C203.757 128.7 202.572 130.131 201.951 131.985C201.784 132.484 201.815 132.891 202.167 133.339C206.607 138.98 210.133 145.191 212.961 151.83C215.952 158.848 217.913 166.152 218.293 173.821C218.512 178.26 218.422 182.715 218.475 187.164C218.481 187.752 218.311 188.512 218.598 188.878C218.923 189.291 219.67 189.351 220.238 189.552C220.401 189.609 220.577 189.638 220.753 189.663C225.631 190.385 229.935 188.979 233.782 185.911C236.258 183.946 237.614 181.478 237.132 179.119ZM167.27 170.944C157.323 169.672 150.111 164.132 144.541 155.89C143.612 156.387 142.935 157.134 142.346 157.976C140.348 160.813 139.265 164.066 138.45 167.408C136.65 174.785 136.177 182.305 136.338 189.882C136.344 190.181 136.387 190.477 136.409 190.741C143.352 189.762 150.04 190.054 156.489 193.434C160.049 186.013 163.63 178.537 167.27 170.944ZM136.239 210.961C136.239 210.939 136.239 210.917 136.239 210.898C140.709 210.898 145.18 210.917 149.647 210.885C150.926 210.875 152.272 210.812 153.315 209.969C154.834 208.742 155.072 207.044 154.575 205.199C153.744 202.121 154.041 199.107 155.072 196.143C155.245 195.641 155.134 195.326 154.723 195.123C154.093 194.811 153.457 194.474 152.79 194.274C147.644 192.731 142.401 192.27 137.069 192.824C136.594 192.871 136.508 193.081 136.529 193.526C136.588 194.684 136.65 195.848 136.603 197.005C136.551 198.414 135.822 198.992 134.501 198.608C133.547 198.331 132.59 197.937 131.75 197.403C130.558 196.646 129.481 195.701 128.338 194.859C126.699 193.65 124.856 193.11 122.864 193.364C119.088 193.848 116.575 196.064 115.26 199.673C113.707 203.94 115.569 208.557 119.496 210.239C120.759 210.78 122.089 211.146 123.507 211.066C125.01 210.983 126.517 210.971 128.023 210.961C130.765 210.948 133.503 210.961 136.239 210.961ZM133.97 188.973C133.991 188.639 134.016 188.413 134.016 188.188C134.001 181.914 134.433 175.681 135.782 169.548C136.693 165.404 137.795 161.325 140.064 157.693C140.182 157.506 140.157 157.096 140.033 156.902C137.888 153.585 134.973 151.318 131.12 150.714C126.665 150.014 124.538 151.315 122.901 154.962C121.046 159.096 120.234 163.509 119.74 167.993C119.196 172.909 119.021 177.841 119.314 182.785C119.422 184.636 119.586 186.483 119.724 188.385C124.578 187.081 129.243 187.389 133.97 188.973ZM220.704 84.8159C220.726 79.7378 219.725 76.0079 217.11 72.8886C214.89 70.243 212.062 69.0219 208.641 69.5848C206.193 69.9886 204.193 71.2955 202.485 73.0889C197.339 78.4945 195.952 87.7223 199.367 94.4252C201.037 97.7036 203.313 100.276 207.286 100.457C210.38 100.597 212.995 99.4843 215.227 97.3634C219.065 93.713 220.587 89.0578 220.704 84.8159ZM115.204 195.32C115.084 195.202 115.001 195.107 114.905 195.027C111.629 192.334 107.958 191.466 103.883 192.515C100.688 193.339 98.1528 196.127 98.0694 199.539C97.9861 202.91 99.7428 205.559 103.139 206.878C105.982 207.985 108.922 208.055 111.895 207.721C112.426 207.661 112.951 207.559 113.485 207.476C112.037 201.552 112.114 201.008 115.204 195.32ZM139.212 138.767C138.937 138.653 138.786 138.58 138.625 138.522C135.495 137.419 132.374 136.29 129.231 135.241C128.545 135.012 127.727 134.85 127.048 135.012C123.096 135.947 120.135 138.303 118.159 141.953C118.033 142.189 117.909 142.523 117.974 142.752C118.239 143.661 118.474 144.605 118.916 145.426C119.814 147.108 121.197 148.348 122.713 149.448C123.479 150.005 124.158 150.332 124.948 149.537C125.103 149.381 125.331 149.267 125.544 149.216C127.026 148.863 128.508 148.507 130.002 148.214C130.441 148.129 130.62 147.951 130.756 147.528C131.969 143.734 134.377 141.047 137.903 139.406C138.311 139.216 138.709 139.012 139.212 138.767ZM116.39 145.432C116.267 145.518 116.177 145.566 116.106 145.633C112.898 148.577 110.703 152.097 110.039 156.558C109.301 161.525 112.463 165.678 117.295 165.977C117.721 166.002 117.943 165.897 118.008 165.423C118.125 164.555 118.28 163.69 118.446 162.829C119.129 159.347 120.024 155.941 121.864 152.879C122.028 152.606 122.154 152.307 122.293 152.03C118.489 149.305 118.489 149.305 116.39 145.432ZM150.287 140.341C148.913 140.24 147.397 140.252 145.93 139.985C144.217 139.67 142.599 139.833 140.975 140.376C138.079 141.349 135.424 142.723 133.738 145.47C133.278 146.218 133.139 147.191 132.923 148.078C132.812 148.532 133.074 148.796 133.544 148.955C136.816 150.065 139.456 152.078 141.494 154.94C141.62 155.118 141.765 155.283 141.895 155.449C142.38 155.143 142.818 154.898 143.226 154.6C143.389 154.479 143.553 154.266 143.596 154.068C144.121 151.598 145.057 149.283 146.267 147.105C147.533 144.825 148.922 142.624 150.287 140.341ZM216.425 121.339C216.153 121.145 216.082 121.075 215.999 121.037C211 118.801 205.813 117.8 200.367 118.538C199.2 118.697 198.212 119.158 197.348 120.077C196.131 121.374 194.761 122.519 193.455 123.73C193.257 123.915 193.059 124.102 192.973 124.185C195.498 126.455 197.981 128.687 200.481 130.936C201.63 127.711 204.137 125.663 206.999 123.991C209.849 122.325 212.948 121.482 216.425 121.339ZM103.8 106.438C101.098 96.7751 101.777 87.4202 105.8 78.3133C104.837 77.9698 104.034 78.097 103.278 78.6249C102.2 79.3785 101.506 80.4469 100.959 81.6234C99.61 84.5297 98.9277 87.6173 98.7054 90.8162C98.4245 94.8227 98.5912 98.7943 99.9558 102.597C100.373 103.758 101.086 104.829 101.799 105.841C102.207 106.419 102.907 106.706 103.8 106.438ZM109.768 94.3235C109.768 94.9881 109.752 95.5286 109.771 96.0724C109.832 97.8085 110.086 99.5129 110.802 101.103C111.098 101.764 111.614 102.162 112.361 102.069C113.201 101.965 113.895 101.437 113.92 100.654C113.951 99.6655 113.939 98.613 113.645 97.6877C112.67 94.6224 112.982 91.6143 113.815 88.6221C114.118 87.5378 114.704 86.5362 115.001 85.4487C115.118 85.0194 114.92 84.3612 114.639 83.9892C114.294 83.5313 113.698 83.4868 113.124 83.7666C112.123 84.2531 111.728 85.2134 111.33 86.1578C110.225 88.797 109.66 91.5539 109.768 94.3235ZM171.364 206.363C171.395 206.255 171.429 206.15 171.46 206.042C166.19 203.505 161.466 200.175 157.452 195.685C156.684 197.088 156.313 198.468 156.023 199.883C155.782 201.063 155.727 201.136 156.792 201.606C158.514 202.369 160.253 203.136 162.043 203.699C165.128 204.668 168.255 205.486 171.364 206.363ZM134.507 196.843C134.368 195.056 134.22 193.571 134.152 192.083C134.127 191.545 133.92 191.307 133.463 191.142C129.545 189.717 125.55 189.103 121.413 189.863C119.857 190.149 119.842 190.153 120.206 191.749C120.215 191.793 120.268 191.825 120.333 191.895C120.555 191.841 120.793 191.781 121.037 191.727C123.948 191.075 126.662 191.46 129.104 193.332C130.03 194.042 130.972 194.728 131.944 195.364C132.71 195.87 133.531 196.286 134.507 196.843ZM114.284 80.6377C114.291 81.7792 115.174 82.6473 116.325 82.641C117.393 82.6378 118.295 81.757 118.295 80.714C118.295 79.6233 117.338 78.7107 116.211 78.7235C115.072 78.7362 114.278 79.5248 114.284 80.6377Z" fill="#4A5364"/>
<path d="M156.597 232.689C147.801 232.752 139.014 232.517 130.243 231.817C118.035 230.841 105.929 229.188 94.0799 225.903C87.1549 223.986 80.4182 221.543 74.1971 217.788C71.3876 216.093 68.7726 214.135 66.599 211.61C64.5613 209.244 63.0609 206.595 62.6132 203.409C62.2273 200.665 62.6842 198.058 63.8111 195.558C65.432 191.959 67.9482 189.084 70.8627 186.582C72.5762 185.113 74.4441 183.834 76.2441 182.473C76.3459 182.397 76.4509 182.289 76.5651 182.276C76.9233 182.238 77.4605 182.086 77.6056 182.26C77.9359 182.658 77.5562 182.973 77.2197 183.246C75.1604 184.941 73.0455 186.572 71.0758 188.372C68.7479 190.496 66.8028 192.97 65.4845 195.905C63.5209 200.274 63.8821 204.443 66.6083 208.36C68.7726 211.47 71.6778 213.721 74.8269 215.654C80.3256 219.028 86.2966 221.219 92.4158 223.022C99.98 225.251 107.692 226.749 115.482 227.846C122.552 228.841 129.65 229.474 136.772 229.871C146.563 230.418 156.359 230.45 166.152 230.094C175.615 229.747 185.059 229.06 194.47 227.948C209.721 226.148 224.828 223.512 239.675 219.451C250.311 216.542 260.75 213.038 270.694 208.112C276.187 205.393 281.445 202.271 286.116 198.194C288.642 195.991 290.898 193.536 292.473 190.493C294.961 185.685 294.603 181.1 291.389 176.775C288.91 173.44 285.625 171.115 282.102 169.122C276.48 165.939 270.478 163.725 264.285 162.126C259.475 160.883 254.591 159.926 249.728 158.892C248.407 158.612 247.042 158.53 245.702 158.345C245.381 158.301 245.047 158.25 244.757 158.116C244.254 157.884 243.961 157.449 244.078 156.867C244.198 156.272 244.597 155.868 245.202 155.935C246.171 156.04 247.135 156.228 248.098 156.409C256.051 157.894 263.952 159.595 271.611 162.31C276.585 164.072 281.408 166.177 285.841 169.134C288.685 171.033 291.287 173.217 293.27 176.088C296.561 180.855 296.916 185.866 294.366 191.081C292.661 194.563 290.117 197.345 287.274 199.851C282.214 204.312 276.446 207.613 270.454 210.513C259.784 215.67 248.607 219.343 237.209 222.329C225.449 225.41 213.541 227.696 201.518 229.356C186.606 231.42 171.638 232.571 156.597 232.689Z" fill="#4A5364"/>
<path d="M37.5413 109.123C36.1674 109.123 34.917 109.129 33.6666 109.119C32.6539 109.113 32.2526 108.69 32.268 107.65C32.2989 105.558 32.3359 103.466 32.373 101.373C32.3761 101.116 32.3792 100.852 32.4285 100.604C32.5335 100.079 32.7836 99.6786 33.3856 99.7231C33.9568 99.7644 34.1482 100.171 34.1575 100.683C34.1915 102.464 34.2069 104.248 34.2285 106.032C34.2316 106.312 34.2285 106.588 34.2285 107.049C35.7382 106.967 37.1615 106.97 38.5632 106.782C39.6685 106.636 40.3662 107.107 40.1748 108.219C39.6994 111.015 39.1683 113.8 38.6373 116.582C38.557 117.005 38.4027 117.438 38.1896 117.807C38.06 118.029 37.7543 118.249 37.5197 118.258C37.3807 118.264 37.1955 117.873 37.0843 117.638C37.0133 117.485 37.0195 117.282 37.0288 117.104C37.1492 114.865 37.2758 112.623 37.4054 110.385C37.4332 110.007 37.4888 109.628 37.5413 109.123Z" fill="#4A5364"/>
<path d="M101.728 -3.34009C101.039 -3.20654 100.502 -3.06663 99.9587 -3.00621C98.5601 -2.84722 97.3838 -3.10161 97.5937 -5.12395C97.8222 -7.35298 98.1217 -9.57565 98.4211 -11.7951C98.4952 -12.3452 98.7268 -12.854 99.3504 -12.978C100.138 -13.1338 100.69 -12.4438 100.545 -11.4644C100.351 -10.1385 100.113 -8.81568 99.9309 -7.48653C99.8383 -6.80288 99.8321 -6.10968 99.7734 -5.2575C100.613 -5.47373 101.329 -5.64861 102.043 -5.84894C103.444 -6.24323 104.216 -5.68677 104.074 -4.23043C103.781 -1.19056 103.179 1.7889 102.098 4.64753C102.052 4.76836 102.021 4.90509 101.938 4.99412C101.765 5.18491 101.567 5.34708 101.379 5.52197C101.292 5.28031 101.116 5.03228 101.132 4.79698C101.231 3.12123 101.367 1.44867 101.49 -0.223902C101.564 -1.21917 101.641 -2.21763 101.728 -3.34009Z" fill="#4A5364"/>
<path d="M263.053 66.5258C262.192 66.5258 261.355 66.6244 260.553 66.5004C259.447 66.3319 258.947 65.6355 258.996 64.4876C259.061 62.9645 259.166 61.4445 259.296 59.9278C259.37 59.0597 259.805 58.5986 260.407 58.6272C261 58.6559 261.445 59.1678 261.469 59.9977C261.507 61.311 261.479 62.6274 261.479 64.1251C262.059 64.0138 262.618 63.9597 263.143 63.7976C264.693 63.3206 265.474 63.8007 265.579 65.467C265.712 67.5911 265.675 69.7279 264.896 71.728C264.566 72.5801 263.909 73.3051 263.35 74.0492C263.226 74.2114 262.88 74.1986 262.637 74.2654C262.615 74.0079 262.519 73.7249 262.584 73.4927C263.198 71.3019 263.229 69.0633 263.149 66.812C263.146 66.7357 263.103 66.6657 263.053 66.5258Z" fill="#4A5364"/>
<path d="M238.941 253.649C238.651 253.309 238.287 253.064 238.296 252.842C238.312 252.584 238.614 252.212 238.867 252.126C239.25 251.996 239.704 252.028 240.121 252.072C240.544 252.12 240.615 252.473 240.337 252.724C239.963 253.061 239.497 253.29 238.941 253.649Z" fill="#4A5364"/>
<path d="M290.176 206.093C290.065 206.023 289.744 205.909 289.747 205.801C289.753 205.594 289.889 205.298 290.059 205.206C290.519 204.952 291.019 204.77 291.513 204.596C291.63 204.554 291.862 204.589 291.914 204.672C291.992 204.793 292.001 205.006 291.951 205.149C291.677 205.976 290.936 205.944 290.176 206.093Z" fill="#4A5364"/>
<path d="M255.974 27.3545C256.197 27.6534 256.561 27.9332 256.607 28.2575C256.684 28.8331 256.19 28.9539 255.74 28.9476C255.295 28.9412 254.847 28.8363 254.854 28.2417C254.86 27.6216 255.32 27.5262 255.974 27.3545Z" fill="#4A5364"/>
<path d="M168.931 -0.217773C169.283 0.593072 169.144 1.44843 168.643 1.79185C168.477 1.90632 168.06 1.93176 167.995 1.83319C167.853 1.62014 167.726 1.20677 167.835 1.03506C168.115 0.586713 168.526 0.227396 168.931 -0.217773Z" fill="#4A5364"/>
<path d="M157.227 251.576C157.165 252.235 156.606 252.708 156.017 252.658C155.554 252.616 155.353 252.333 155.39 251.875C155.433 251.328 155.887 251.093 156.866 251.262C156.529 251.424 156.329 251.522 156.128 251.618C156.174 251.688 156.217 251.758 156.264 251.824C156.421 251.764 156.573 251.688 156.733 251.646C156.887 251.605 157.054 251.599 157.227 251.576Z" fill="#4A5364"/>
<path d="M258.839 140.98C258.604 140.745 258.308 140.582 258.264 140.366C258.237 140.223 258.564 140.001 258.734 139.816C258.746 139.803 258.78 139.807 258.805 139.807C259.154 139.8 259.505 139.772 259.848 139.813C259.898 139.819 259.993 140.28 259.922 140.338C259.629 140.57 259.277 140.729 258.839 140.98Z" fill="#4A5364"/>
<path d="M47.7786 71.3086C47.4112 71.6711 47.1704 71.9096 46.9296 72.1481C46.7104 71.8842 46.3275 71.6234 46.3214 71.3531C46.3152 71.0987 46.6641 70.714 46.9358 70.6186C47.087 70.5614 47.3958 70.9779 47.7786 71.3086Z" fill="#4A5364"/>
<path d="M79.1748 133.641C79.5144 133.348 79.7429 133.151 79.9714 132.954C80.1195 133.142 80.4221 133.367 80.3881 133.504C80.3048 133.835 80.064 134.124 79.888 134.433C79.6904 134.213 79.4928 133.997 79.1748 133.641Z" fill="#4A5364"/>
<path d="M299.643 80.2666C299.902 80.7849 300.127 81.2015 300.31 81.6339C300.353 81.7388 300.291 82.0028 300.223 82.025C300.09 82.0695 299.853 82.0536 299.778 81.9614C299.408 81.4876 299.189 80.9693 299.643 80.2666Z" fill="#4A5364"/>
<path d="M59.4932 -0.761207C59.9594 -0.923376 60.4039 -1.29223 60.759 -0.70079C60.83 -0.583138 60.6262 -0.109351 60.4688 -0.0584744C59.9439 0.116414 59.6383 -0.185666 59.4932 -0.761207Z" fill="#4A5364"/>
<path d="M38.1587 264.547C37.8314 264.579 37.5011 264.608 37.1738 264.639C37.1862 264.487 37.1769 264.204 37.2109 264.197C37.5165 264.147 37.8314 264.147 38.1402 264.134C38.1464 264.271 38.1525 264.407 38.1587 264.547Z" fill="#4A5364"/>
<path d="M43.3446 197.434C43.1285 197.498 42.9093 197.628 42.7025 197.606C42.5666 197.593 42.332 197.345 42.3474 197.24C42.3783 197.056 42.545 196.868 42.7055 196.747C42.7488 196.716 42.9649 196.929 43.1007 197.03C43.181 197.167 43.2613 197.301 43.3446 197.434Z" fill="#4A5364"/>
<path d="M218.113 82.9872C218.017 87.1559 217.119 90.5106 214.689 93.2802C213.272 94.8955 211.583 96.161 209.406 96.2533C206.245 96.3868 203.923 94.7047 202.367 92.0432C199.348 86.8824 200.505 78.9012 204.735 74.7452C208.245 71.2951 213.13 71.7149 215.874 75.8327C216.693 77.0633 217.221 78.5419 217.665 79.9759C218.011 81.0889 218.02 82.3099 218.113 82.9872ZM215.39 83.0253C215.38 81.2002 214.893 78.9043 213.411 76.9424C211.632 74.5862 208.971 74.2301 206.739 76.1157C205.939 76.7898 205.189 77.6229 204.664 78.5323C202.858 81.6676 202.355 85.0604 203.228 88.6059C203.713 90.571 204.605 92.323 206.257 93.5504C206.495 93.7253 206.776 93.8907 207.057 93.9384C209.697 94.3645 211.716 93.3247 213.188 91.0893C214.664 88.8412 215.374 86.345 215.39 83.0253Z" fill="#4A5364"/>
</g>
<defs>
<clipPath id="clip0_2546_13548">
<path d="M0 16C0 7.16345 7.16344 0 16 0H300C308.837 0 316 7.16344 316 16V286H0V16Z" fill="white"/>
</clipPath>
</defs>
</svg>
