<svg width="328" height="416" viewBox="0 0 328 416" fill="none" xmlns="http://www.w3.org/2000/svg">
<g clip-path="url(#clip0_2805_13616)">
<mask id="mask0_2805_13616" style="mask-type:luminance" maskUnits="userSpaceOnUse" x="0" y="0" width="328" height="416">
<path d="M328 0H0V416H328V0Z" fill="white"/>
</mask>
<g mask="url(#mask0_2805_13616)">
<mask id="mask1_2805_13616" style="mask-type:luminance" maskUnits="userSpaceOnUse" x="0" y="0" width="328" height="416">
<path d="M312 0H16C7.16344 0 0 7.18071 0 16.0386V399.961C0 408.819 7.16344 416 16 416H312C320.837 416 328 408.819 328 399.961V16.0386C328 7.18071 320.837 0 312 0Z" fill="white"/>
</mask>
<g mask="url(#mask1_2805_13616)">
<path d="M312 0H16C7.16344 0 0 7.18071 0 16.0386V399.961C0 408.819 7.16344 416 16 416H312C320.837 416 328 408.819 328 399.961V16.0386C328 7.18071 320.837 0 312 0Z" fill="#FFF9EB"/>
<path d="M226.5 148.857H101.5C80.7893 148.857 64 165.687 64 186.448V487.171C64 507.932 80.7893 524.761 101.5 524.761H226.5C247.211 524.761 264 507.932 264 487.171V186.448C264 165.687 247.211 148.857 226.5 148.857Z" fill="#FFFDFA" stroke="#4A5364" stroke-width="3" stroke-linecap="round" stroke-linejoin="round"/>
<path d="M101.5 148.857H120.25C121.908 148.857 123.497 149.297 124.669 150.08C125.842 150.864 126.5 151.927 126.5 153.034C126.5 155.25 127.817 157.374 130.161 158.941C132.505 160.507 135.685 161.388 139 161.388H189C192.315 161.388 195.495 160.507 197.839 158.941C200.183 157.374 201.5 155.25 201.5 153.034C201.5 151.927 202.158 150.864 203.331 150.08C204.503 149.297 206.092 148.857 207.75 148.857H226.5" fill="#4A5364"/>
<path d="M101.5 148.857H120.25C121.908 148.857 123.497 149.297 124.669 150.08C125.842 150.864 126.5 151.927 126.5 153.034C126.5 155.25 127.817 157.374 130.161 158.941C132.505 160.507 135.685 161.388 139 161.388H189C192.315 161.388 195.495 160.507 197.839 158.941C200.183 157.374 201.5 155.25 201.5 153.034C201.5 151.927 202.158 150.864 203.331 150.08C204.503 149.297 206.092 148.857 207.75 148.857H226.5" stroke="#4A5364" stroke-width="2" stroke-linecap="round" stroke-linejoin="round"/>
<path d="M101.5 148.857H120.25C121.908 148.857 123.497 149.297 124.669 150.08C125.842 150.864 126.5 151.927 126.5 153.034C126.5 155.25 127.817 157.374 130.161 158.941C132.505 160.507 135.685 161.388 139 161.388H189C192.315 161.388 195.495 160.507 197.839 158.941C200.183 157.374 201.5 155.25 201.5 153.034C201.5 151.927 202.158 150.864 203.331 150.08C204.503 149.297 206.092 148.857 207.75 148.857H226.5" fill="#4A5364"/>
<path d="M101.5 148.857H120.25C121.908 148.857 123.497 149.297 124.669 150.08C125.842 150.864 126.5 151.927 126.5 153.034C126.5 155.25 127.817 157.374 130.161 158.941C132.505 160.507 135.685 161.388 139 161.388H189C192.315 161.388 195.495 160.507 197.839 158.941C200.183 157.374 201.5 155.25 201.5 153.034C201.5 151.927 202.158 150.864 203.331 150.08C204.503 149.297 206.092 148.857 207.75 148.857H226.5" stroke="#4A5364" stroke-width="2" stroke-linecap="round" stroke-linejoin="round"/>
<path d="M200 262.13H131C116.917 262.13 105.5 273.574 105.5 287.691C105.5 301.809 116.917 313.253 131 313.253H200C214.083 313.253 225.5 301.809 225.5 287.691C225.5 273.574 214.083 262.13 200 262.13Z" fill="white"/>
<path d="M142.008 288.545C142.32 288.545 142.587 288.662 142.809 288.897C143.043 289.119 143.16 289.386 143.16 289.7V289.719C143.16 290.033 143.043 290.306 142.809 290.542C142.587 290.763 142.32 290.875 142.008 290.875H135.406C135.315 290.875 135.27 290.92 135.27 291.011V294.145C135.27 294.849 135.165 295.384 134.957 295.749C134.762 296.115 134.43 296.389 133.961 296.571C133.336 296.807 132.242 296.937 130.68 296.963C130.667 296.963 130.66 296.963 130.66 296.963C130.335 296.963 130.042 296.865 129.781 296.67C129.508 296.461 129.306 296.194 129.176 295.867C129.137 295.789 129.098 295.703 129.059 295.612C129.02 295.508 129 295.411 129 295.318C129 295.188 129.033 295.064 129.098 294.947C129.228 294.738 129.417 294.634 129.664 294.634C129.664 294.634 129.671 294.634 129.684 294.634C130.413 294.647 131.233 294.653 132.145 294.653C132.379 294.64 132.542 294.595 132.633 294.516C132.737 294.437 132.789 294.301 132.789 294.105V291.011C132.789 290.92 132.737 290.875 132.633 290.875H126.031C125.719 290.875 125.445 290.763 125.211 290.542C124.99 290.306 124.879 290.033 124.879 289.719V289.7C124.879 289.386 124.99 289.119 125.211 288.897C125.445 288.662 125.719 288.545 126.031 288.545H132.633C132.737 288.545 132.789 288.492 132.789 288.388V286.352C132.789 286.248 132.737 286.196 132.633 286.196H127.398C127.073 286.196 126.799 286.084 126.578 285.863C126.357 285.64 126.246 285.374 126.246 285.06C126.246 284.733 126.357 284.459 126.578 284.238C126.799 284.015 127.073 283.905 127.398 283.905H132.633C132.737 283.905 132.789 283.859 132.789 283.768V281.732C132.789 281.628 132.737 281.581 132.633 281.594C131.122 281.712 129.488 281.816 127.73 281.907C127.704 281.907 127.685 281.907 127.672 281.907C127.398 281.907 127.145 281.816 126.91 281.634C126.676 281.438 126.513 281.183 126.422 280.87C126.396 280.778 126.383 280.694 126.383 280.615C126.383 280.459 126.428 280.308 126.52 280.165C126.663 279.943 126.865 279.826 127.125 279.813C131.852 279.578 135.647 279.148 138.512 278.521C138.655 278.481 138.798 278.462 138.941 278.462C139.137 278.462 139.332 278.495 139.527 278.56C139.866 278.664 140.152 278.847 140.387 279.108L140.582 279.362C140.699 279.493 140.758 279.637 140.758 279.793C140.758 279.871 140.745 279.95 140.719 280.028C140.641 280.276 140.478 280.433 140.23 280.498C138.863 280.786 137.255 281.04 135.406 281.262C135.315 281.275 135.27 281.327 135.27 281.418V283.768C135.27 283.859 135.315 283.905 135.406 283.905H140.836C141.161 283.905 141.435 284.015 141.656 284.238C141.878 284.459 141.988 284.733 141.988 285.06C141.988 285.374 141.878 285.64 141.656 285.863C141.435 286.084 141.161 286.196 140.836 286.196H135.406C135.315 286.196 135.27 286.248 135.27 286.352V288.388C135.27 288.492 135.315 288.545 135.406 288.545H142.008ZM146.719 281.438C146.719 281.124 146.829 280.857 147.051 280.635C147.285 280.401 147.559 280.282 147.871 280.282H162.07C162.383 280.282 162.65 280.401 162.871 280.635C163.092 280.857 163.203 281.124 163.203 281.438V281.516C163.06 286.398 162.897 289.811 162.715 291.756C162.533 293.688 162.227 294.934 161.797 295.495C161.497 295.913 161.185 296.207 160.859 296.376C160.547 296.558 160.15 296.69 159.668 296.768C159.264 296.833 158.717 296.865 158.027 296.865C157.832 296.865 157.617 296.859 157.383 296.846C157.07 296.846 156.79 296.729 156.543 296.493C156.309 296.272 156.139 295.997 156.035 295.671C155.996 295.515 155.951 295.365 155.898 295.221C155.859 295.13 155.84 295.038 155.84 294.947C155.84 294.816 155.879 294.692 155.957 294.575C156.074 294.366 156.243 294.262 156.465 294.262C156.478 294.262 156.491 294.262 156.504 294.262C157.09 294.288 157.773 294.301 158.555 294.301C158.958 294.301 159.271 294.184 159.492 293.948C159.805 293.622 160.046 292.591 160.215 290.855C160.384 289.146 160.521 286.476 160.625 282.847C160.625 282.756 160.573 282.71 160.469 282.71H155.039C154.948 282.71 154.902 282.756 154.902 282.847C154.85 283.8 154.779 284.655 154.688 285.413C154.596 286.209 154.447 287.09 154.238 288.055C154.043 289.021 153.763 289.902 153.398 290.698C153.047 291.494 152.611 292.291 152.09 293.087C151.569 293.883 150.911 294.627 150.117 295.318C149.609 295.763 149.043 296.181 148.418 296.571C148.236 296.677 148.047 296.729 147.852 296.729C147.747 296.729 147.65 296.716 147.559 296.69C147.259 296.611 146.999 296.441 146.777 296.181C146.673 296.05 146.562 295.926 146.445 295.809C146.289 295.638 146.211 295.443 146.211 295.221C146.211 295.182 146.211 295.143 146.211 295.104C146.25 294.842 146.38 294.647 146.602 294.516C147.135 294.203 147.624 293.87 148.066 293.517C148.783 292.931 149.368 292.297 149.824 291.619C150.293 290.927 150.684 290.241 150.996 289.563C151.309 288.884 151.543 288.127 151.699 287.292C151.868 286.443 151.986 285.686 152.051 285.021C152.116 284.394 152.168 283.676 152.207 282.867C152.207 282.762 152.161 282.71 152.07 282.71H147.871C147.559 282.71 147.285 282.6 147.051 282.377C146.829 282.143 146.719 281.868 146.719 281.555V281.438ZM182.113 285.863C182.217 285.863 182.27 285.817 182.27 285.725V284.746C182.27 284.655 182.217 284.61 182.113 284.61H177.953C177.849 284.61 177.797 284.655 177.797 284.746V285.725C177.797 285.817 177.849 285.863 177.953 285.863H182.113ZM182.113 288.78C182.217 288.78 182.27 288.728 182.27 288.623V287.644C182.27 287.54 182.217 287.488 182.113 287.488H177.953C177.849 287.488 177.797 287.54 177.797 287.644V288.623C177.797 288.728 177.849 288.78 177.953 288.78H182.113ZM182.113 291.697C182.217 291.697 182.27 291.652 182.27 291.559V290.561C182.27 290.47 182.217 290.425 182.113 290.425H177.953C177.849 290.425 177.797 290.47 177.797 290.561V291.559C177.797 291.652 177.849 291.697 177.953 291.697H182.113ZM174.418 290.131C174.34 290.379 174.184 290.561 173.949 290.678C173.793 290.771 173.63 290.816 173.461 290.816C173.383 290.816 173.311 290.81 173.246 290.797C173.012 290.744 172.829 290.62 172.699 290.425C172.621 290.28 172.582 290.137 172.582 289.994C172.582 289.915 172.595 289.837 172.621 289.758C172.738 289.315 172.868 288.806 173.012 288.231C173.025 288.14 172.986 288.094 172.895 288.094H171.996C171.892 288.094 171.84 288.14 171.84 288.231V294.888C171.84 295.476 171.775 295.926 171.645 296.239C171.514 296.565 171.273 296.82 170.922 297.002C170.466 297.211 169.822 297.342 168.988 297.394C168.962 297.394 168.943 297.394 168.93 297.394C168.63 297.394 168.363 297.296 168.129 297.101C167.868 296.891 167.686 296.624 167.582 296.298C167.569 296.259 167.556 296.226 167.543 296.2C167.517 296.108 167.504 296.017 167.504 295.926C167.504 295.77 167.549 295.619 167.641 295.476C167.797 295.253 168.005 295.143 168.266 295.143H169.184C169.327 295.143 169.418 295.123 169.457 295.084C169.509 295.032 169.535 294.954 169.535 294.849V288.231C169.535 288.14 169.49 288.094 169.398 288.094H167.621C167.335 288.094 167.087 287.99 166.879 287.781C166.684 287.573 166.586 287.324 166.586 287.038C166.586 286.75 166.684 286.502 166.879 286.293C167.087 286.084 167.335 285.98 167.621 285.98H170.707C170.733 285.98 170.746 285.973 170.746 285.96C170.759 285.934 170.759 285.915 170.746 285.902C170.017 285.367 169.19 284.844 168.266 284.335C168.044 284.218 167.901 284.035 167.836 283.787C167.823 283.722 167.816 283.656 167.816 283.591C167.816 283.422 167.875 283.258 167.992 283.102C168.161 282.881 168.383 282.736 168.656 282.671C168.76 282.645 168.858 282.632 168.949 282.632C169.118 282.632 169.288 282.671 169.457 282.749C169.73 282.894 170.01 283.043 170.297 283.2C170.375 283.239 170.447 283.226 170.512 283.16C170.941 282.678 171.312 282.208 171.625 281.751C171.638 281.725 171.638 281.699 171.625 281.673C171.612 281.647 171.586 281.634 171.547 281.634H168.09C167.803 281.634 167.556 281.535 167.348 281.34C167.152 281.131 167.055 280.89 167.055 280.615C167.055 280.328 167.152 280.087 167.348 279.891C167.556 279.682 167.803 279.578 168.09 279.578H173.129C173.168 279.578 173.201 279.572 173.227 279.559C173.318 279.532 173.402 279.519 173.48 279.519C173.637 279.519 173.78 279.565 173.91 279.656L174.867 280.381C174.893 280.394 174.913 280.394 174.926 280.381C174.952 280.367 174.965 280.347 174.965 280.321C174.965 280.1 175.043 279.91 175.199 279.754C175.355 279.598 175.551 279.519 175.785 279.519H184.125C184.398 279.519 184.633 279.617 184.828 279.813C185.023 280.009 185.121 280.243 185.121 280.518C185.121 280.792 185.023 281.027 184.828 281.223C184.633 281.418 184.398 281.516 184.125 281.516H181.508C181.404 281.516 181.339 281.561 181.312 281.654C181.208 282.018 181.098 282.371 180.98 282.71C180.967 282.736 180.974 282.769 181 282.808C181.026 282.834 181.052 282.847 181.078 282.847H183.383C183.708 282.847 183.982 282.959 184.203 283.18C184.424 283.402 184.535 283.676 184.535 284.002V292.284C184.535 292.611 184.424 292.885 184.203 293.106C183.982 293.329 183.708 293.439 183.383 293.439H176.801C176.475 293.439 176.202 293.329 175.98 293.106C175.759 292.885 175.648 292.611 175.648 292.284V284.002C175.648 283.676 175.759 283.402 175.98 283.18C176.202 282.959 176.475 282.847 176.801 282.847H178.422C178.513 282.847 178.565 282.795 178.578 282.691C178.63 282.442 178.682 282.104 178.734 281.673C178.747 281.568 178.708 281.516 178.617 281.516H175.746C175.525 281.516 175.336 281.444 175.18 281.301C175.036 281.144 174.965 280.955 174.965 280.733C174.965 280.72 174.952 280.713 174.926 280.713C174.913 280.713 174.906 280.713 174.906 280.713C174.086 282.031 173.194 283.193 172.23 284.199C172.152 284.264 172.159 284.329 172.25 284.394C172.406 284.498 172.556 284.61 172.699 284.727C172.882 284.87 172.986 285.053 173.012 285.275C173.025 285.314 173.031 285.353 173.031 285.393C173.031 285.575 172.973 285.745 172.855 285.902C172.842 285.915 172.842 285.934 172.855 285.96C172.868 285.973 172.882 285.98 172.895 285.98H173.715C173.741 285.98 173.767 285.98 173.793 285.98C173.988 285.941 174.177 285.941 174.359 285.98L174.809 286.078C175.004 286.13 175.154 286.241 175.258 286.411C175.362 286.58 175.388 286.763 175.336 286.959C175.01 288.172 174.704 289.23 174.418 290.131ZM176.703 294.203C176.977 294.007 177.283 293.896 177.621 293.87C177.66 293.857 177.699 293.851 177.738 293.851C178.025 293.851 178.292 293.929 178.539 294.085L178.559 294.105C178.819 294.275 178.949 294.523 178.949 294.849C178.949 295.097 178.845 295.305 178.637 295.476C177.855 296.063 176.983 296.591 176.02 297.062C175.824 297.153 175.616 297.198 175.395 297.198C175.29 297.198 175.186 297.185 175.082 297.159C174.757 297.094 174.47 296.937 174.223 296.69C174.079 296.558 174.008 296.396 174.008 296.2C174.008 296.16 174.014 296.115 174.027 296.063C174.066 295.815 174.203 295.638 174.438 295.534C175.271 295.143 176.026 294.699 176.703 294.203ZM181.332 295.417C181.137 295.26 181.039 295.058 181.039 294.81C181.039 294.549 181.143 294.346 181.352 294.203C181.625 294.02 181.918 293.929 182.23 293.929C182.556 293.929 182.849 294.02 183.109 294.203C183.747 294.634 184.301 295.038 184.77 295.417C184.978 295.586 185.082 295.809 185.082 296.082C185.082 296.409 184.958 296.664 184.711 296.846H184.691C184.457 297.016 184.203 297.101 183.93 297.101C183.878 297.101 183.832 297.094 183.793 297.081C183.467 297.055 183.181 296.93 182.934 296.709C182.478 296.317 181.944 295.887 181.332 295.417ZM188.309 291.442C188.348 291.181 188.471 290.966 188.68 290.797C188.849 290.678 189.031 290.62 189.227 290.62C189.279 290.62 189.337 290.62 189.402 290.62C189.676 290.672 189.897 290.81 190.066 291.031C190.197 291.214 190.262 291.416 190.262 291.639C190.262 291.691 190.262 291.743 190.262 291.795C190.079 293.035 189.839 294.112 189.539 295.025C189.461 295.273 189.292 295.443 189.031 295.534C188.927 295.573 188.816 295.593 188.699 295.593C188.556 295.593 188.419 295.56 188.289 295.495C188.042 295.378 187.866 295.195 187.762 294.947C187.71 294.803 187.684 294.66 187.684 294.516C187.684 294.398 187.697 294.281 187.723 294.164C187.97 293.42 188.165 292.513 188.309 291.442ZM193.211 291.756C193.172 291.652 193.152 291.546 193.152 291.442C193.152 291.325 193.185 291.201 193.25 291.07C193.354 290.849 193.523 290.698 193.758 290.62C193.862 290.581 193.966 290.561 194.07 290.561C194.214 290.561 194.357 290.594 194.5 290.659C194.734 290.763 194.904 290.94 195.008 291.188C195.255 291.827 195.477 292.48 195.672 293.145C195.711 293.25 195.73 293.348 195.73 293.439C195.73 293.609 195.685 293.772 195.594 293.929C195.464 294.177 195.268 294.346 195.008 294.437C194.904 294.477 194.806 294.496 194.715 294.496C194.572 294.496 194.428 294.457 194.285 294.379C194.064 294.249 193.921 294.052 193.855 293.792C193.686 293.165 193.471 292.487 193.211 291.756ZM199.168 281.986C199.155 282.012 199.155 282.045 199.168 282.084C199.194 282.11 199.227 282.123 199.266 282.123H204.793C205.105 282.123 205.372 282.234 205.594 282.456C205.815 282.678 205.926 282.939 205.926 283.239C205.926 286.437 205.763 289.596 205.438 292.715C205.255 294.543 204.956 295.717 204.539 296.239C204.279 296.605 204.005 296.859 203.719 297.002C203.432 297.159 203.068 297.27 202.625 297.335C202.26 297.4 201.72 297.434 201.004 297.434C200.887 297.434 200.77 297.427 200.652 297.413C200.327 297.413 200.04 297.303 199.793 297.081C199.546 296.872 199.37 296.598 199.266 296.259C199.253 296.181 199.227 296.102 199.188 296.023C199.161 295.932 199.148 295.848 199.148 295.77C199.148 295.625 199.188 295.489 199.266 295.358C199.396 295.162 199.578 295.064 199.812 295.064C199.826 295.064 199.839 295.064 199.852 295.064C200.372 295.091 200.971 295.104 201.648 295.104C202 295.104 202.28 294.993 202.488 294.77C202.775 294.457 203.003 293.524 203.172 291.971C203.341 290.405 203.484 287.925 203.602 284.531C203.602 284.426 203.549 284.374 203.445 284.374H198.23C198.126 284.374 198.055 284.42 198.016 284.511C197.69 285.086 197.378 285.595 197.078 286.039C196.896 286.3 196.648 286.45 196.336 286.489C196.271 286.502 196.212 286.508 196.16 286.508C195.913 286.508 195.678 286.43 195.457 286.274C195.171 286.078 194.891 285.895 194.617 285.725C194.604 285.712 194.591 285.712 194.578 285.725C194.565 285.738 194.565 285.758 194.578 285.785C195.086 286.711 195.49 287.599 195.789 288.447C195.828 288.564 195.848 288.681 195.848 288.799C195.848 288.943 195.809 289.086 195.73 289.23C195.613 289.491 195.424 289.687 195.164 289.817C195.047 289.869 194.93 289.895 194.812 289.895C194.695 289.895 194.578 289.869 194.461 289.817C194.24 289.7 194.09 289.517 194.012 289.269C193.986 289.191 193.934 289.159 193.855 289.172L192.977 289.23C192.885 289.23 192.84 289.282 192.84 289.386V296.415C192.84 296.716 192.736 296.963 192.527 297.159C192.332 297.368 192.085 297.473 191.785 297.473C191.499 297.473 191.251 297.368 191.043 297.159C190.835 296.963 190.73 296.716 190.73 296.415V289.544C190.73 289.438 190.685 289.393 190.594 289.406L188.816 289.524C188.79 289.524 188.764 289.524 188.738 289.524C188.478 289.524 188.25 289.438 188.055 289.269C187.833 289.086 187.71 288.845 187.684 288.545C187.684 288.519 187.684 288.486 187.684 288.447C187.684 288.212 187.762 287.997 187.918 287.8C188.1 287.592 188.335 287.481 188.621 287.468L188.914 287.449C189.005 287.449 189.083 287.409 189.148 287.331C189.435 286.965 189.682 286.633 189.891 286.333C189.956 286.254 189.956 286.169 189.891 286.078C189.487 285.504 188.953 284.864 188.289 284.16C188.081 283.95 187.964 283.703 187.938 283.415C187.938 283.376 187.938 283.337 187.938 283.298C187.938 283.063 188.003 282.84 188.133 282.632L188.387 282.28C188.465 282.162 188.576 282.097 188.719 282.084C188.875 282.058 189.012 282.091 189.129 282.182C189.168 282.221 189.194 282.221 189.207 282.182C189.611 281.373 189.962 280.583 190.262 279.813C190.379 279.512 190.574 279.297 190.848 279.167C191.004 279.088 191.16 279.049 191.316 279.049C191.447 279.049 191.57 279.075 191.688 279.128C191.961 279.219 192.156 279.401 192.273 279.676C192.312 279.793 192.332 279.91 192.332 280.028C192.332 280.185 192.293 280.334 192.215 280.479C191.551 281.732 190.997 282.71 190.555 283.415C190.503 283.493 190.509 283.572 190.574 283.65C190.73 283.833 190.9 284.035 191.082 284.257C191.147 284.335 191.206 284.335 191.258 284.257C191.714 283.552 192.137 282.827 192.527 282.084C192.671 281.81 192.885 281.615 193.172 281.496C193.315 281.444 193.452 281.418 193.582 281.418C193.738 281.418 193.888 281.451 194.031 281.516C194.292 281.621 194.467 281.81 194.559 282.084C194.585 282.188 194.598 282.286 194.598 282.377C194.598 282.547 194.546 282.71 194.441 282.867C193.322 284.564 192.28 286.026 191.316 287.252C191.29 287.279 191.284 287.305 191.297 287.331C191.31 287.357 191.336 287.37 191.375 287.37L193.094 287.292C193.133 287.292 193.159 287.279 193.172 287.252C193.185 287.226 193.185 287.194 193.172 287.155C193.107 287.011 193.042 286.867 192.977 286.724C192.911 286.593 192.879 286.463 192.879 286.333C192.879 286.228 192.892 286.13 192.918 286.039C192.996 285.804 193.152 285.634 193.387 285.53L193.992 285.255C194.148 285.19 194.266 285.229 194.344 285.374C194.357 285.4 194.37 285.4 194.383 285.374C195.607 284.054 196.596 282.208 197.352 279.832C197.443 279.532 197.625 279.297 197.898 279.128C198.094 279.01 198.302 278.951 198.523 278.951C198.615 278.951 198.699 278.958 198.777 278.971L198.973 279.01C199.285 279.075 199.52 279.245 199.676 279.519C199.78 279.676 199.832 279.845 199.832 280.028C199.832 280.133 199.812 280.243 199.773 280.361C199.604 280.883 199.402 281.425 199.168 281.986ZM200.926 290.209C201.004 290.379 201.043 290.548 201.043 290.718C201.043 290.849 201.023 290.985 200.984 291.129C200.867 291.429 200.659 291.658 200.359 291.814L200.34 291.834C200.184 291.912 200.027 291.951 199.871 291.951C199.754 291.951 199.637 291.931 199.52 291.892C199.233 291.775 199.031 291.579 198.914 291.305C198.536 290.457 198.055 289.57 197.469 288.642C197.365 288.473 197.312 288.304 197.312 288.133C197.312 288.042 197.326 287.958 197.352 287.88C197.417 287.605 197.573 287.402 197.82 287.272C198.003 287.181 198.191 287.135 198.387 287.135C198.491 287.135 198.595 287.148 198.699 287.174C198.999 287.239 199.233 287.402 199.402 287.664C200.04 288.577 200.548 289.425 200.926 290.209Z" fill="#4A5364"/>
<path d="M200 262.13H131C116.917 262.13 105.5 273.574 105.5 287.691C105.5 301.809 116.917 313.253 131 313.253H200C214.083 313.253 225.5 301.809 225.5 287.691C225.5 273.574 214.083 262.13 200 262.13Z" stroke="#4A5364" stroke-width="3"/>
<path d="M228.333 351.177V343.158C228.333 340.322 227.21 337.602 225.209 335.598C223.209 333.593 220.496 332.466 217.667 332.466H215C214.293 332.466 213.614 332.184 213.114 331.683C212.614 331.182 212.333 330.501 212.333 329.793V313.754C212.333 312.337 211.771 310.976 210.771 309.974C209.771 308.972 208.414 308.408 207 308.408C205.586 308.408 204.229 308.972 203.229 309.974C202.229 310.976 201.667 312.337 201.667 313.754V340.485L195.267 331.931C194.77 331.267 194.126 330.728 193.385 330.357C192.645 329.986 191.828 329.793 191 329.793H189.981C187.597 329.793 185.667 331.728 185.667 334.118C185.667 334.789 185.821 335.451 186.12 336.053L193.667 351.177" fill="white"/>
<path d="M228.333 351.177V343.158C228.333 340.322 227.21 337.602 225.209 335.598C223.209 333.593 220.496 332.466 217.667 332.466H215C214.293 332.466 213.614 332.184 213.114 331.683C212.614 331.182 212.333 330.501 212.333 329.793V313.754C212.333 312.337 211.771 310.976 210.771 309.974C209.771 308.972 208.414 308.408 207 308.408C205.586 308.408 204.229 308.972 203.229 309.974C202.229 310.976 201.667 312.337 201.667 313.754V340.485L195.267 331.931C194.77 331.267 194.126 330.728 193.385 330.357C192.645 329.986 191.828 329.793 191 329.793H189.981C187.597 329.793 185.667 331.728 185.667 334.118C185.667 334.789 185.821 335.451 186.12 336.053L193.667 351.177" stroke="#4A5364" stroke-width="4" stroke-linecap="round" stroke-linejoin="round"/>
<path d="M100.938 260.499L99.3042 258.386M93.3189 270.964L90.6738 270.629M112.946 255.708L113.281 253.057" stroke="#4A5364" stroke-width="3" stroke-linecap="round" stroke-linejoin="round"/>
</g>
<path d="M312 1.25293H16C7.8538 1.25293 1.25 7.87264 1.25 16.0385V399.961C1.25 408.127 7.8538 414.747 16 414.747H312C320.146 414.747 326.75 408.127 326.75 399.961V16.0385C326.75 7.87264 320.146 1.25293 312 1.25293Z" stroke="#F4E6C0" stroke-width="2.5"/>
<path d="M133.037 47.4932C133.131 47.4932 133.178 47.4521 133.178 47.3701V46.8779C133.178 46.7842 133.131 46.7373 133.037 46.7373H130.348C130.16 46.7373 130.002 46.6729 129.873 46.5439C129.744 46.415 129.68 46.2568 129.68 46.0693C129.68 45.8818 129.744 45.7236 129.873 45.5947C130.002 45.4541 130.16 45.3838 130.348 45.3838H133.951C134.232 45.3838 134.473 45.4893 134.672 45.7002C134.883 45.8994 134.988 46.1396 134.988 46.4209V47.8271C134.988 48.1084 134.883 48.3545 134.672 48.5654C134.473 48.7646 134.232 48.8643 133.951 48.8643H131.895C131.812 48.8643 131.771 48.9111 131.771 49.0049V49.2334C131.771 49.4209 131.801 49.5439 131.859 49.6025C131.93 49.6611 132.076 49.6904 132.299 49.6904H133.758C133.934 49.6904 134.051 49.6494 134.109 49.5674C134.297 49.333 134.479 49.2158 134.654 49.2158C134.713 49.2158 134.766 49.2275 134.812 49.251C134.871 49.2744 134.93 49.292 134.988 49.3037C135.211 49.3857 135.387 49.5205 135.516 49.708C135.586 49.8135 135.621 49.9248 135.621 50.042C135.621 50.124 135.604 50.2061 135.568 50.2881C135.439 50.5928 135.252 50.8037 135.006 50.9209C134.76 51.0381 134.42 51.0967 133.986 51.0967H132.053C131.244 51.0967 130.699 50.9678 130.418 50.71C130.148 50.4521 130.014 49.9658 130.014 49.251V48.5303C130.014 48.249 130.113 48.0088 130.312 47.8096C130.523 47.5986 130.77 47.4932 131.051 47.4932H133.037ZM127.131 47.4932C127.225 47.4932 127.271 47.4521 127.271 47.3701V46.8779C127.271 46.7842 127.225 46.7373 127.131 46.7373H124.547C124.359 46.7373 124.195 46.6729 124.055 46.5439C123.926 46.415 123.861 46.2568 123.861 46.0693C123.861 45.8818 123.926 45.7236 124.055 45.5947C124.195 45.4541 124.359 45.3838 124.547 45.3838H128.027C128.32 45.3838 128.566 45.4893 128.766 45.7002C128.965 45.8994 129.064 46.1396 129.064 46.4209V47.8271C129.064 48.1084 128.965 48.3545 128.766 48.5654C128.566 48.7646 128.32 48.8643 128.027 48.8643H126.006C125.924 48.8643 125.883 48.9111 125.883 49.0049V49.251C125.883 49.4385 125.912 49.5615 125.971 49.6201C126.041 49.667 126.193 49.6904 126.428 49.6904H127.799C127.975 49.6904 128.098 49.6494 128.168 49.5674C128.332 49.3447 128.502 49.2334 128.678 49.2334C128.736 49.2334 128.789 49.2451 128.836 49.2686C128.895 49.292 128.959 49.3096 129.029 49.3213C129.252 49.4033 129.422 49.5381 129.539 49.7256C129.609 49.8311 129.645 49.9424 129.645 50.0596C129.645 50.1299 129.627 50.2061 129.592 50.2881C129.463 50.5928 129.275 50.8037 129.029 50.9209C128.783 51.0381 128.455 51.0967 128.045 51.0967H126.146C125.361 51.0967 124.822 50.9678 124.529 50.71C124.248 50.4521 124.107 49.9658 124.107 49.251V48.5303C124.107 48.249 124.207 48.0088 124.406 47.8096C124.617 47.5986 124.863 47.4932 125.145 47.4932H127.131ZM122.736 47.3701C122.865 47.5342 122.93 47.7158 122.93 47.915C122.93 47.9854 122.924 48.0615 122.912 48.1436C122.842 48.4248 122.684 48.6416 122.438 48.7939L122.35 48.8467C122.186 48.9521 122.016 49.0049 121.84 49.0049C121.77 49.0049 121.693 48.9932 121.611 48.9697C121.342 48.9111 121.125 48.7646 120.961 48.5303C120.645 48.0732 120.252 47.5869 119.783 47.0713C119.643 46.9072 119.572 46.7197 119.572 46.5088C119.572 46.4736 119.572 46.4385 119.572 46.4033C119.596 46.1455 119.719 45.9463 119.941 45.8057C120.152 45.665 120.381 45.5947 120.627 45.5947C120.662 45.5947 120.703 45.6006 120.75 45.6123C121.055 45.6357 121.307 45.7529 121.506 45.9639C121.998 46.4678 122.408 46.9365 122.736 47.3701ZM128.678 53.751C128.584 53.751 128.537 53.792 128.537 53.874V54.8057C128.537 54.8877 128.584 54.9287 128.678 54.9287H130.506C130.588 54.9287 130.629 54.8877 130.629 54.8057V53.874C130.629 53.792 130.588 53.751 130.506 53.751H128.678ZM127.658 56.5107C127.635 56.5107 127.623 56.5166 127.623 56.5283C127.623 56.54 127.629 56.5518 127.641 56.5635L128.098 56.7217C128.32 56.792 128.455 56.9385 128.502 57.1611C128.502 57.208 128.502 57.249 128.502 57.2842C128.502 57.46 128.426 57.6006 128.273 57.7061C127.488 58.2568 126.586 58.749 125.566 59.1826C125.555 59.1943 125.549 59.2119 125.549 59.2354C125.549 59.2471 125.561 59.2529 125.584 59.2529C125.971 59.3467 126.416 59.3994 126.92 59.4111C127.635 59.4463 128.531 59.4639 129.609 59.4639C129.973 59.4639 130.354 59.4639 130.752 59.4639C132.346 59.4404 133.775 59.3936 135.041 59.3232C135.053 59.3232 135.064 59.3232 135.076 59.3232C135.287 59.3232 135.463 59.4111 135.604 59.5869C135.686 59.7158 135.727 59.8506 135.727 59.9912C135.727 60.0615 135.715 60.1377 135.691 60.2197C135.691 60.2197 135.691 60.2256 135.691 60.2373C135.598 60.542 135.434 60.7881 135.199 60.9756C134.965 61.1748 134.701 61.2803 134.408 61.292C132.943 61.3506 131.572 61.3799 130.295 61.3799C129.088 61.3799 127.963 61.3564 126.92 61.3096C125.83 61.2627 124.916 61.0928 124.178 60.7998C123.439 60.5068 122.812 60.0381 122.297 59.3936C122.238 59.3232 122.18 59.3174 122.121 59.376C121.629 59.8916 121.16 60.3604 120.715 60.7822C120.574 60.9229 120.404 60.9932 120.205 60.9932C120.158 60.9932 120.105 60.9873 120.047 60.9756C119.801 60.9287 119.619 60.7881 119.502 60.5537L119.414 60.3779C119.32 60.2021 119.273 60.0205 119.273 59.833C119.273 59.7393 119.291 59.6396 119.326 59.5342C119.396 59.2529 119.549 59.0186 119.783 58.8311C120.24 58.4912 120.639 58.1689 120.979 57.8643C121.037 57.8057 121.066 57.7295 121.066 57.6357V53.9268C121.066 53.8447 121.025 53.8037 120.943 53.8037H120.205C119.936 53.8037 119.701 53.71 119.502 53.5225C119.314 53.3232 119.221 53.0889 119.221 52.8193C119.221 52.5498 119.314 52.3213 119.502 52.1338C119.701 51.9346 119.936 51.835 120.205 51.835H122.016C122.309 51.835 122.555 51.9404 122.754 52.1514C122.953 52.3506 123.053 52.5908 123.053 52.8721V57.46C123.053 57.5537 123.076 57.6357 123.123 57.7061C123.58 58.4326 124.289 58.9248 125.25 59.1826C125.262 59.1826 125.273 59.1768 125.285 59.165C125.297 59.1533 125.297 59.1416 125.285 59.1299C125.109 58.9658 124.91 58.7842 124.688 58.585C124.547 58.4678 124.477 58.3271 124.477 58.1631C124.477 58.1279 124.482 58.0928 124.494 58.0576C124.529 57.8467 124.646 57.7002 124.846 57.6182C125.748 57.29 126.445 56.9502 126.938 56.5986C126.961 56.5869 126.967 56.5693 126.955 56.5459C126.955 56.5225 126.943 56.5107 126.92 56.5107H124.424C124.201 56.5107 124.014 56.4346 123.861 56.2822C123.709 56.1299 123.633 55.9482 123.633 55.7373C123.633 55.5146 123.709 55.3271 123.861 55.1748C124.014 55.0107 124.201 54.9287 124.424 54.9287H126.428C126.521 54.9287 126.568 54.8877 126.568 54.8057V53.874C126.568 53.792 126.521 53.751 126.428 53.751H124.934C124.723 53.751 124.541 53.6748 124.389 53.5225C124.236 53.3584 124.16 53.1709 124.16 52.96C124.16 52.749 124.236 52.5674 124.389 52.415C124.541 52.251 124.723 52.1689 124.934 52.1689H126.463C126.533 52.1689 126.568 52.1338 126.568 52.0635C126.568 51.8291 126.65 51.6299 126.814 51.4658C126.979 51.3018 127.178 51.2197 127.412 51.2197H127.693C127.928 51.2197 128.127 51.3018 128.291 51.4658C128.455 51.6299 128.537 51.8291 128.537 52.0635C128.537 52.1338 128.578 52.1689 128.66 52.1689H130.523C130.594 52.1689 130.629 52.1338 130.629 52.0635C130.629 51.8291 130.711 51.6299 130.875 51.4658C131.039 51.3018 131.238 51.2197 131.473 51.2197H131.824C132.059 51.2197 132.258 51.3018 132.422 51.4658C132.586 51.6299 132.668 51.8291 132.668 52.0635C132.668 52.1338 132.703 52.1689 132.773 52.1689H134.355C134.566 52.1689 134.748 52.251 134.9 52.415C135.053 52.5674 135.129 52.749 135.129 52.96C135.129 53.1709 135.053 53.3584 134.9 53.5225C134.748 53.6748 134.566 53.751 134.355 53.751H132.791C132.709 53.751 132.668 53.792 132.668 53.874V54.8057C132.668 54.8877 132.709 54.9287 132.791 54.9287H134.9C135.123 54.9287 135.311 55.0107 135.463 55.1748C135.615 55.3271 135.691 55.5146 135.691 55.7373C135.691 55.9482 135.615 56.1299 135.463 56.2822C135.311 56.4346 135.123 56.5107 134.9 56.5107H132.316C132.293 56.5107 132.281 56.5225 132.281 56.5459C132.281 56.5576 132.287 56.5635 132.299 56.5635C133.225 57.0088 134.051 57.4541 134.777 57.8994C134.941 57.9932 135.023 58.1279 135.023 58.3037C135.023 58.5615 134.906 58.7314 134.672 58.8135L134.443 58.9014C134.221 58.9834 134.004 59.0244 133.793 59.0244C133.395 59.0244 133.014 58.8955 132.65 58.6377C132.205 58.333 131.742 58.0459 131.262 57.7764C131.062 57.6592 130.963 57.4893 130.963 57.2666C130.963 57.0439 131.057 56.8799 131.244 56.7744L131.596 56.5811C131.607 56.5693 131.613 56.5576 131.613 56.5459C131.613 56.5225 131.602 56.5107 131.578 56.5107H127.658ZM141.58 52.6611C141.662 52.6377 141.744 52.626 141.826 52.626C141.979 52.626 142.125 52.6729 142.266 52.7666C142.488 52.9072 142.617 53.1064 142.652 53.3643C142.652 53.4111 142.652 53.4639 142.652 53.5225C142.652 53.7334 142.594 53.9326 142.477 54.1201C142.324 54.3662 142.119 54.5303 141.861 54.6123C141.615 54.6826 141.387 54.7471 141.176 54.8057C141.094 54.8291 141.053 54.8818 141.053 54.9639V59.3936C141.053 59.9092 141 60.3076 140.895 60.5889C140.801 60.8701 140.619 61.0986 140.35 61.2744C140.01 61.4854 139.518 61.6084 138.873 61.6436C138.85 61.6436 138.826 61.6436 138.803 61.6436C138.545 61.6436 138.311 61.5557 138.1 61.3799C137.877 61.1924 137.725 60.9521 137.643 60.6592C137.631 60.5889 137.625 60.5186 137.625 60.4482C137.625 60.2959 137.672 60.1494 137.766 60.0088C137.918 59.8096 138.111 59.71 138.346 59.71C138.557 59.71 138.709 59.7041 138.803 59.6924C138.908 59.6924 138.984 59.6748 139.031 59.6396C139.078 59.5928 139.102 59.5107 139.102 59.3936V55.5439C139.102 55.5088 139.09 55.4854 139.066 55.4736C139.043 55.4502 139.014 55.4443 138.979 55.4561C138.803 55.5029 138.609 55.5615 138.398 55.6318C138.305 55.6553 138.211 55.667 138.117 55.667C137.953 55.667 137.789 55.6201 137.625 55.5264C137.379 55.374 137.227 55.1631 137.168 54.8936V54.8584C137.145 54.7764 137.133 54.7002 137.133 54.6299C137.133 54.4307 137.186 54.249 137.291 54.085C137.443 53.8389 137.66 53.6807 137.941 53.6104C138.059 53.5869 138.229 53.5459 138.451 53.4873C138.686 53.4287 138.861 53.3877 138.979 53.3643C139.061 53.3408 139.102 53.2822 139.102 53.1885V50.3408C139.102 50.2588 139.061 50.2178 138.979 50.2178H138.205C137.936 50.2178 137.701 50.124 137.502 49.9365C137.314 49.7373 137.221 49.5029 137.221 49.2334C137.221 48.9639 137.314 48.7354 137.502 48.5479C137.701 48.3486 137.936 48.249 138.205 48.249H138.979C139.061 48.249 139.102 48.208 139.102 48.126V45.8408C139.102 45.5713 139.195 45.3428 139.383 45.1553C139.582 44.9678 139.816 44.874 140.086 44.874C140.355 44.874 140.584 44.9678 140.771 45.1553C140.959 45.3428 141.053 45.5713 141.053 45.8408V48.126C141.053 48.208 141.1 48.249 141.193 48.249H141.703C141.984 48.249 142.219 48.3486 142.406 48.5479C142.594 48.7354 142.688 48.9639 142.688 49.2334C142.688 49.5029 142.594 49.7373 142.406 49.9365C142.219 50.124 141.984 50.2178 141.703 50.2178H141.193C141.1 50.2178 141.053 50.2588 141.053 50.3408V52.6787C141.053 52.7139 141.064 52.7432 141.088 52.7666C141.123 52.7783 141.152 52.7783 141.176 52.7666L141.58 52.6611ZM149.561 55.5264C149.479 55.5029 149.455 55.4561 149.49 55.3857C149.643 55.0107 149.777 54.6475 149.895 54.2959C149.906 54.2725 149.9 54.249 149.877 54.2256C149.865 54.1904 149.842 54.1729 149.807 54.1729H146.854C146.818 54.1729 146.789 54.1904 146.766 54.2256C146.754 54.249 146.76 54.2725 146.783 54.2959C146.9 54.6006 146.994 54.8643 147.064 55.0869C147.088 55.1807 147.076 55.2686 147.029 55.3506C146.982 55.4326 146.906 55.4854 146.801 55.5088C146.801 55.5088 146.801 55.5146 146.801 55.5264H149.561ZM146.01 48.0908C146.104 48.0908 146.15 48.0439 146.15 47.9502V47.0361C146.15 46.9424 146.104 46.8955 146.01 46.8955H145.219C145.125 46.8955 145.078 46.9424 145.078 47.0361V47.9502C145.078 48.0439 145.125 48.0908 145.219 48.0908H146.01ZM147.908 46.8955C147.814 46.8955 147.768 46.9424 147.768 47.0361V47.9502C147.768 48.0439 147.814 48.0908 147.908 48.0908H148.734C148.816 48.0908 148.857 48.0439 148.857 47.9502V47.0361C148.857 46.9424 148.816 46.8955 148.734 46.8955H147.908ZM150.615 46.8955C150.533 46.8955 150.492 46.9424 150.492 47.0361V47.9502C150.492 48.0439 150.533 48.0908 150.615 48.0908H151.477C151.559 48.0908 151.6 48.0439 151.6 47.9502V47.0361C151.6 46.9424 151.559 46.8955 151.477 46.8955H150.615ZM153.604 52.8193C153.768 52.9717 153.85 53.1592 153.85 53.3818C153.85 53.5928 153.768 53.7803 153.604 53.9443C153.451 54.0967 153.27 54.1729 153.059 54.1729H152.18C152.098 54.1729 152.033 54.2139 151.986 54.2959C151.729 54.7178 151.512 55.0869 151.336 55.4033C151.324 55.4385 151.324 55.4678 151.336 55.4912C151.359 55.5146 151.383 55.5264 151.406 55.5264H152.865C153.076 55.5264 153.258 55.6025 153.41 55.7549C153.574 55.9072 153.656 56.0947 153.656 56.3174C153.656 56.54 153.574 56.7275 153.41 56.8799C153.258 57.0322 153.076 57.1084 152.865 57.1084H149.367C149.285 57.1084 149.244 57.1553 149.244 57.249V57.8115C149.244 57.8936 149.285 57.9346 149.367 57.9346H152.461C152.684 57.9346 152.865 58.0107 153.006 58.1631C153.158 58.3154 153.234 58.4971 153.234 58.708C153.234 58.9189 153.158 59.1006 153.006 59.2529C152.865 59.4053 152.684 59.4814 152.461 59.4814H149.367C149.285 59.4814 149.244 59.5283 149.244 59.6221V60.7295C149.244 61.0107 149.145 61.251 148.945 61.4502C148.746 61.6494 148.506 61.749 148.225 61.749C147.943 61.749 147.703 61.6494 147.504 61.4502C147.305 61.251 147.205 61.0107 147.205 60.7295V59.6221C147.205 59.5283 147.164 59.4814 147.082 59.4814H144.146C143.936 59.4814 143.754 59.4053 143.602 59.2529C143.449 59.1006 143.373 58.9189 143.373 58.708C143.373 58.4971 143.449 58.3154 143.602 58.1631C143.754 58.0107 143.936 57.9346 144.146 57.9346H147.082C147.164 57.9346 147.205 57.8936 147.205 57.8115V57.249C147.205 57.1553 147.164 57.1084 147.082 57.1084H143.707C143.484 57.1084 143.297 57.0322 143.145 56.8799C142.992 56.7275 142.916 56.54 142.916 56.3174C142.916 56.0947 142.992 55.9072 143.145 55.7549C143.297 55.6025 143.484 55.5264 143.707 55.5264H145.113C145.148 55.5264 145.178 55.5146 145.201 55.4912C145.225 55.4561 145.23 55.4268 145.219 55.4033C145.16 55.1924 145.09 54.9639 145.008 54.7178C144.973 54.6006 144.984 54.4893 145.043 54.3838C145.102 54.2783 145.189 54.2139 145.307 54.1904C145.307 54.1904 145.307 54.1846 145.307 54.1729H143.566C143.344 54.1729 143.15 54.0967 142.986 53.9443C142.834 53.7803 142.758 53.5928 142.758 53.3818C142.758 53.1592 142.834 52.9717 142.986 52.8193C143.15 52.6553 143.344 52.5732 143.566 52.5732H147.082C147.164 52.5732 147.205 52.5264 147.205 52.4326V51.8701C147.205 51.7881 147.164 51.7471 147.082 51.7471H144.41C144.199 51.7471 144.018 51.6709 143.865 51.5186C143.725 51.3662 143.654 51.1846 143.654 50.9736C143.654 50.7627 143.725 50.5869 143.865 50.4463C144.018 50.2939 144.199 50.2178 144.41 50.2178H147.082C147.164 50.2178 147.205 50.1709 147.205 50.0771V49.6377C147.205 49.5557 147.164 49.5146 147.082 49.5146H144.463C144.182 49.5146 143.936 49.415 143.725 49.2158C143.525 49.0049 143.426 48.7588 143.426 48.4775V46.5264C143.426 46.2334 143.525 45.9873 143.725 45.7881C143.936 45.5889 144.182 45.4893 144.463 45.4893H152.303C152.596 45.4893 152.842 45.5889 153.041 45.7881C153.24 45.9873 153.34 46.2334 153.34 46.5264V48.4775C153.34 48.7588 153.24 49.0049 153.041 49.2158C152.842 49.415 152.596 49.5146 152.303 49.5146H149.367C149.285 49.5146 149.244 49.5557 149.244 49.6377V50.0771C149.244 50.1709 149.285 50.2178 149.367 50.2178H152.32C152.531 50.2178 152.707 50.2939 152.848 50.4463C153 50.5869 153.076 50.7627 153.076 50.9736C153.076 51.1846 153 51.3662 152.848 51.5186C152.707 51.6709 152.531 51.7471 152.32 51.7471H149.367C149.285 51.7471 149.244 51.7881 149.244 51.8701V52.4326C149.244 52.5264 149.285 52.5732 149.367 52.5732H153.059C153.27 52.5732 153.451 52.6553 153.604 52.8193ZM171.322 47.5986C171.521 47.7979 171.621 48.0439 171.621 48.3369C171.621 48.6182 171.521 48.8584 171.322 49.0576C171.123 49.2568 170.883 49.3564 170.602 49.3564H163.043C162.949 49.3564 162.896 49.3975 162.885 49.4795C162.826 50.3936 162.773 51.0908 162.727 51.5713C162.715 51.6533 162.75 51.6943 162.832 51.6943H168.615C168.896 51.6943 169.131 51.7939 169.318 51.9932C169.494 52.1807 169.582 52.4033 169.582 52.6611C169.582 54.29 169.395 56.0771 169.02 58.0225C168.809 59.1709 168.521 59.9443 168.158 60.3428C167.701 60.8232 167.057 61.0986 166.225 61.1689C165.932 61.1924 165.527 61.2041 165.012 61.2041C164.754 61.2041 164.479 61.2041 164.186 61.2041C163.904 61.1924 163.652 61.0869 163.43 60.8877C163.207 60.7002 163.049 60.4541 162.955 60.1494C162.932 60.0908 162.908 60.0322 162.885 59.9736C162.85 59.8916 162.832 59.8096 162.832 59.7275C162.832 59.6104 162.867 59.499 162.938 59.3936C163.043 59.2178 163.195 59.1299 163.395 59.1299C163.406 59.1299 163.418 59.1299 163.43 59.1299C164.027 59.165 164.689 59.1826 165.416 59.1826C165.826 59.1826 166.113 59.1064 166.277 58.9541C166.723 58.5674 167.062 56.8623 167.297 53.8389C167.309 53.7568 167.273 53.7158 167.191 53.7158H162.48C162.398 53.7158 162.346 53.7568 162.322 53.8389C162.088 54.8818 161.766 55.8252 161.355 56.6689C160.945 57.5479 160.336 58.4092 159.527 59.2529C158.941 59.8623 158.268 60.4014 157.506 60.8701C157.33 60.9639 157.16 61.0107 156.996 61.0107C156.902 61.0107 156.809 60.999 156.715 60.9756C156.445 60.9053 156.217 60.7529 156.029 60.5186C155.971 60.4365 155.906 60.3604 155.836 60.29C155.695 60.1377 155.625 59.9619 155.625 59.7627C155.625 59.7275 155.625 59.6865 155.625 59.6396C155.66 59.3936 155.783 59.2119 155.994 59.0947C156.322 58.8955 156.621 58.6904 156.891 58.4795C157.43 58.0693 157.881 57.6592 158.244 57.249C158.619 56.8271 158.941 56.3467 159.211 55.8076C159.48 55.2568 159.691 54.7529 159.844 54.2959C159.996 53.8389 160.125 53.2939 160.23 52.6611C160.336 52.0283 160.406 51.4834 160.441 51.0264C160.477 50.6045 160.512 50.0947 160.547 49.4971C160.547 49.4033 160.5 49.3564 160.406 49.3564H156.434C156.141 49.3564 155.895 49.2568 155.695 49.0576C155.496 48.8584 155.396 48.6182 155.396 48.3369C155.396 48.0439 155.496 47.7979 155.695 47.5986C155.895 47.3994 156.141 47.2998 156.434 47.2998H162.164C162.246 47.2998 162.287 47.2529 162.287 47.1592V45.4189C162.287 45.1377 162.387 44.8975 162.586 44.6982C162.797 44.4873 163.043 44.3818 163.324 44.3818H163.465C163.746 44.3818 163.986 44.4873 164.186 44.6982C164.396 44.8975 164.502 45.1377 164.502 45.4189V47.1592C164.502 47.2529 164.543 47.2998 164.625 47.2998H170.602C170.883 47.2998 171.123 47.3994 171.322 47.5986ZM179.795 50.833C179.713 50.833 179.643 50.8682 179.584 50.9385L179.25 51.3604C179.238 51.3838 179.238 51.4072 179.25 51.4307C179.262 51.4541 179.279 51.4717 179.303 51.4834C180.322 51.6709 181.354 51.8994 182.396 52.1689C182.49 52.1807 182.572 52.1689 182.643 52.1338C183.111 51.8174 183.498 51.4189 183.803 50.9385C183.826 50.915 183.826 50.8916 183.803 50.8682C183.791 50.8447 183.773 50.833 183.75 50.833H179.795ZM189.41 56.1064C189.586 56.2822 189.674 56.4932 189.674 56.7393C189.674 56.9736 189.586 57.1787 189.41 57.3545C189.246 57.5303 189.041 57.6182 188.795 57.6182H184.277C184.254 57.6182 184.242 57.6299 184.242 57.6533C184.242 57.665 184.248 57.6709 184.26 57.6709C185.619 58.4561 187.248 59.0537 189.146 59.4639C189.357 59.5107 189.498 59.6396 189.568 59.8506C189.604 59.9209 189.621 59.9912 189.621 60.0615C189.621 60.1904 189.574 60.3135 189.48 60.4307C189.445 60.4893 189.404 60.542 189.357 60.5889C189.17 60.8467 188.936 61.0342 188.654 61.1514C188.49 61.21 188.326 61.2393 188.162 61.2393C188.033 61.2393 187.91 61.2217 187.793 61.1865C185.801 60.5771 184.072 59.6865 182.607 58.5146C182.584 58.5029 182.561 58.5029 182.537 58.5146C182.514 58.5264 182.502 58.5439 182.502 58.5674V60.6064C182.502 60.8994 182.402 61.1455 182.203 61.3447C182.004 61.5439 181.758 61.6436 181.465 61.6436H181.43C181.137 61.6436 180.891 61.5439 180.691 61.3447C180.492 61.1455 180.393 60.8994 180.393 60.6064V58.6729C180.393 58.6494 180.375 58.6318 180.34 58.6201C180.316 58.6084 180.299 58.6143 180.287 58.6377C178.881 59.751 177.199 60.6064 175.242 61.2041C175.125 61.2393 175.002 61.2568 174.873 61.2568C174.709 61.2568 174.545 61.2275 174.381 61.1689C174.1 61.0518 173.865 60.8643 173.678 60.6064C173.654 60.583 173.631 60.5596 173.607 60.5361C173.525 60.4189 173.484 60.29 173.484 60.1494C173.484 60.0908 173.496 60.0205 173.52 59.9385C173.59 59.7275 173.73 59.5986 173.941 59.5518C175.852 59.1064 177.457 58.4854 178.758 57.6885C178.781 57.6768 178.787 57.665 178.775 57.6533C178.775 57.6299 178.764 57.6182 178.74 57.6182H174.258C174.023 57.6182 173.818 57.5303 173.643 57.3545C173.467 57.1787 173.379 56.9736 173.379 56.7393C173.379 56.4932 173.467 56.2822 173.643 56.1064C173.818 55.9307 174.023 55.8428 174.258 55.8428H180.252C180.346 55.8428 180.393 55.8018 180.393 55.7197V54.8584C180.393 54.7764 180.346 54.7412 180.252 54.7529C179.092 55.0107 177.592 55.2158 175.752 55.3682C175.729 55.3682 175.699 55.3682 175.664 55.3682C175.453 55.3682 175.254 55.3037 175.066 55.1748C174.844 55.0225 174.68 54.8232 174.574 54.5771C174.539 54.4951 174.521 54.4072 174.521 54.3135C174.521 54.2197 174.551 54.1201 174.609 54.0146C174.703 53.8389 174.855 53.7451 175.066 53.7334C176.977 53.6045 178.506 53.417 179.654 53.1709C179.678 53.1709 179.689 53.165 179.689 53.1533C179.689 53.1299 179.678 53.1182 179.654 53.1182C179.607 53.1064 179.391 53.0596 179.004 52.9775C178.617 52.8838 178.33 52.8193 178.143 52.7842C178.107 52.7725 178.084 52.7783 178.072 52.8018C177.967 52.9189 177.844 52.9775 177.703 52.9775C177.656 52.9775 177.609 52.9717 177.562 52.96L176.824 52.749C176.602 52.6904 176.455 52.5498 176.385 52.3271C176.361 52.2568 176.35 52.1865 176.35 52.1162C176.35 51.9639 176.402 51.8232 176.508 51.6943C176.625 51.5654 176.836 51.3076 177.141 50.9209C177.164 50.9092 177.17 50.8916 177.158 50.8682C177.146 50.8447 177.129 50.833 177.105 50.833H174.521C174.287 50.833 174.088 50.751 173.924 50.5869C173.771 50.4229 173.695 50.2236 173.695 49.9893C173.695 49.7549 173.771 49.5557 173.924 49.3916C174.088 49.2275 174.287 49.1455 174.521 49.1455H178.389C178.471 49.1455 178.535 49.1104 178.582 49.04C179.086 48.3604 179.361 47.9912 179.408 47.9326C179.42 47.9092 179.42 47.8857 179.408 47.8623C179.396 47.8389 179.379 47.8271 179.355 47.8271H175.91C175.828 47.8271 175.787 47.8623 175.787 47.9326C175.787 48.1787 175.699 48.3896 175.523 48.5654C175.359 48.7295 175.154 48.8115 174.908 48.8115H174.803C174.533 48.8115 174.299 48.7178 174.1 48.5303C173.912 48.3311 173.818 48.0967 173.818 47.8271V47.0889C173.818 46.8076 173.918 46.5674 174.117 46.3682C174.316 46.1572 174.562 46.0518 174.855 46.0518H180.287C180.381 46.0518 180.428 46.0107 180.428 45.9287V45.9111C180.428 45.6182 180.527 45.3721 180.727 45.1729C180.926 44.9736 181.172 44.874 181.465 44.874H181.518C181.811 44.874 182.057 44.9736 182.256 45.1729C182.455 45.3721 182.555 45.6182 182.555 45.9111V45.9287C182.555 46.0107 182.602 46.0518 182.695 46.0518H188.18C188.473 46.0518 188.719 46.1572 188.918 46.3682C189.117 46.5674 189.217 46.8076 189.217 47.0889V47.7744C189.217 48.0557 189.117 48.3018 188.918 48.5127C188.719 48.7119 188.473 48.8115 188.18 48.8115H188.039C187.793 48.8115 187.582 48.7295 187.406 48.5654C187.242 48.3896 187.16 48.1787 187.16 47.9326C187.16 47.8623 187.119 47.8271 187.037 47.8271H180.041C180.029 47.8271 180.023 47.833 180.023 47.8447C180.023 47.8447 180.029 47.8506 180.041 47.8623L180.674 48.0381C180.885 48.1084 181.025 48.249 181.096 48.46C181.131 48.542 181.148 48.6182 181.148 48.6885C181.148 48.8174 181.102 48.9404 181.008 49.0576C180.996 49.0811 180.996 49.1045 181.008 49.1279C181.02 49.1396 181.037 49.1455 181.061 49.1455H188.514C188.748 49.1455 188.941 49.2275 189.094 49.3916C189.258 49.5557 189.34 49.7549 189.34 49.9893C189.34 50.2236 189.258 50.4229 189.094 50.5869C188.941 50.751 188.748 50.833 188.514 50.833H186.316C186.223 50.833 186.158 50.874 186.123 50.9561C185.818 51.624 185.408 52.1982 184.893 52.6787C184.869 52.7021 184.857 52.7314 184.857 52.7666C184.869 52.79 184.893 52.8018 184.928 52.8018C185.982 53.1064 186.891 53.3877 187.652 53.6455C187.887 53.7275 188.033 53.8799 188.092 54.1025C188.115 54.1729 188.127 54.2373 188.127 54.2959C188.127 54.46 188.068 54.6064 187.951 54.7354C187.764 54.958 187.523 55.1045 187.23 55.1748C187.125 55.1982 187.014 55.21 186.896 55.21C186.721 55.21 186.551 55.1807 186.387 55.1221C185.438 54.7705 184.301 54.4014 182.977 54.0146C182.895 53.9912 182.812 53.9971 182.73 54.0322C182.215 54.2432 181.623 54.4307 180.955 54.5947C180.955 54.5947 180.955 54.6006 180.955 54.6123C180.955 54.624 180.961 54.6299 180.973 54.6299H181.465C181.758 54.6299 182.004 54.7295 182.203 54.9287C182.402 55.1279 182.502 55.374 182.502 55.667V55.7197C182.502 55.8018 182.549 55.8428 182.643 55.8428H188.795C189.041 55.8428 189.246 55.9307 189.41 56.1064ZM193.928 45.6826C194.115 45.4482 194.35 45.29 194.631 45.208C194.76 45.1729 194.889 45.1553 195.018 45.1553C195.17 45.1553 195.322 45.1846 195.475 45.2432C195.709 45.3369 195.861 45.5068 195.932 45.7529C195.955 45.8232 195.967 45.8936 195.967 45.9639C195.967 46.1162 195.914 46.2627 195.809 46.4033C194.883 47.54 193.904 48.542 192.873 49.4092C192.709 49.5381 192.533 49.6025 192.346 49.6025C192.299 49.6025 192.246 49.5967 192.188 49.585C191.941 49.5381 191.742 49.4092 191.59 49.1982C191.461 49.0225 191.396 48.835 191.396 48.6357C191.396 48.5889 191.402 48.542 191.414 48.4951C191.449 48.2256 191.566 48.0088 191.766 47.8447C192.586 47.1768 193.307 46.4561 193.928 45.6826ZM194.35 49.5674C194.502 49.3213 194.713 49.1514 194.982 49.0576C195.123 49.0107 195.258 48.9873 195.387 48.9873C195.516 48.9873 195.65 49.0107 195.791 49.0576C196.037 49.1514 196.207 49.3213 196.301 49.5674C196.336 49.6611 196.354 49.7549 196.354 49.8486C196.354 49.9893 196.312 50.1299 196.23 50.2705C195.984 50.6689 195.721 51.0732 195.439 51.4834C195.381 51.5537 195.352 51.6299 195.352 51.7119V60.6943C195.352 60.9756 195.252 61.21 195.053 61.3975C194.865 61.5967 194.631 61.6963 194.35 61.6963C194.08 61.6963 193.846 61.5967 193.646 61.3975C193.459 61.21 193.365 60.9756 193.365 60.6943V54.1201C193.365 54.0967 193.354 54.085 193.33 54.085C193.307 54.0732 193.289 54.0732 193.277 54.085C193.102 54.2725 192.92 54.4541 192.732 54.6299C192.58 54.7705 192.416 54.8408 192.24 54.8408C192.182 54.8408 192.123 54.835 192.064 54.8232C191.807 54.7764 191.619 54.6357 191.502 54.4014C191.467 54.3311 191.432 54.2666 191.396 54.208C191.291 54.0205 191.238 53.8213 191.238 53.6104C191.238 53.54 191.244 53.4697 191.256 53.3994C191.303 53.1064 191.432 52.8662 191.643 52.6787C192.697 51.7412 193.6 50.7041 194.35 49.5674ZM200.133 55.7549C200.121 55.7549 200.109 55.7607 200.098 55.7725C200.098 55.7725 200.098 55.7783 200.098 55.79C200.52 56.3643 201.076 56.915 201.768 57.4424C201.838 57.501 201.908 57.501 201.979 57.4424C202.6 56.9619 203.115 56.4346 203.525 55.8604C203.549 55.8369 203.549 55.8135 203.525 55.79C203.514 55.7666 203.496 55.7549 203.473 55.7549H200.133ZM204.756 54.1553C204.826 54.1318 204.896 54.1201 204.967 54.1201C205.096 54.1201 205.225 54.1494 205.354 54.208L205.723 54.3838C205.91 54.4658 206.045 54.6006 206.127 54.7881C206.162 54.8818 206.18 54.9697 206.18 55.0518C206.18 55.1455 206.156 55.2451 206.109 55.3506C205.547 56.5342 204.762 57.5771 203.754 58.4795C203.695 58.5381 203.701 58.585 203.771 58.6201C204.791 59.0889 205.904 59.4463 207.111 59.6924C207.334 59.7393 207.486 59.8682 207.568 60.0791C207.592 60.1611 207.604 60.2432 207.604 60.3252C207.604 60.4424 207.562 60.5596 207.48 60.6768C207.445 60.7236 207.416 60.7705 207.393 60.8174C207.217 61.0869 206.988 61.2861 206.707 61.415C206.531 61.4854 206.35 61.5205 206.162 61.5205C206.057 61.5205 205.951 61.5088 205.846 61.4854C204.404 61.1104 203.127 60.583 202.014 59.9033C201.932 59.8564 201.855 59.8506 201.785 59.8857C200.625 60.5537 199.301 61.0928 197.812 61.5029C197.707 61.5264 197.602 61.5381 197.496 61.5381C197.32 61.5381 197.15 61.4971 196.986 61.415C196.717 61.2861 196.506 61.0869 196.354 60.8174C196.354 60.8057 196.354 60.7998 196.354 60.7998C196.283 60.6826 196.248 60.5596 196.248 60.4307C196.248 60.3369 196.266 60.2432 196.301 60.1494C196.395 59.9268 196.559 59.7861 196.793 59.7275C198 59.458 199.096 59.0771 200.08 58.585C200.162 58.5498 200.168 58.5029 200.098 58.4443C199.629 57.999 199.213 57.542 198.85 57.0732C198.803 57.0029 198.744 56.9912 198.674 57.0381C198.451 57.2139 198.234 57.3721 198.023 57.5127C197.836 57.6416 197.637 57.7061 197.426 57.7061C197.367 57.7061 197.303 57.7002 197.232 57.6885C196.951 57.6416 196.711 57.501 196.512 57.2666C196.5 57.2666 196.494 57.2607 196.494 57.249C196.354 57.085 196.283 56.9033 196.283 56.7041C196.283 56.6689 196.283 56.6279 196.283 56.5811C196.33 56.3232 196.459 56.124 196.67 55.9834C197.9 55.2217 198.914 54.3193 199.711 53.2764C199.723 53.2529 199.723 53.2295 199.711 53.2061C199.699 53.1826 199.682 53.1709 199.658 53.1709L197.145 53.2412C197.133 53.2412 197.121 53.2412 197.109 53.2412C196.852 53.2412 196.629 53.1592 196.441 52.9951C196.242 52.8193 196.125 52.5967 196.09 52.3271C196.09 52.292 196.09 52.2627 196.09 52.2393C196.09 52.0283 196.166 51.835 196.318 51.6592C196.494 51.4717 196.705 51.3779 196.951 51.3779C197.572 51.3779 198.141 51.3721 198.656 51.3604C198.738 51.3604 198.814 51.3311 198.885 51.2725C199.107 51.085 199.295 50.9209 199.447 50.7803C199.518 50.71 199.523 50.6455 199.465 50.5869C198.82 49.9541 198.053 49.3096 197.162 48.6533C196.963 48.5127 196.846 48.3193 196.811 48.0732C196.811 48.0381 196.811 48.0029 196.811 47.9678C196.811 47.7686 196.881 47.5928 197.021 47.4404C197.209 47.2295 197.438 47.1123 197.707 47.0889C197.754 47.0771 197.807 47.0713 197.865 47.0713C198.076 47.0713 198.27 47.1299 198.445 47.2471C198.48 47.2705 198.516 47.2939 198.551 47.3174C198.621 47.3643 198.686 47.3525 198.744 47.2822C199.213 46.7314 199.635 46.1865 200.01 45.6475C200.186 45.4131 200.414 45.2549 200.695 45.1729C200.801 45.1494 200.9 45.1377 200.994 45.1377C201.17 45.1377 201.34 45.1787 201.504 45.2607C201.75 45.3779 201.896 45.5654 201.943 45.8232C201.955 45.8936 201.961 45.9521 201.961 45.999C201.961 46.1982 201.896 46.374 201.768 46.5264C201.193 47.1709 200.643 47.7627 200.115 48.3018C200.057 48.3604 200.057 48.4189 200.115 48.4775C200.467 48.7588 200.748 48.999 200.959 49.1982C201.018 49.2686 201.076 49.2686 201.135 49.1982C201.908 48.4482 202.629 47.6865 203.297 46.9131C203.484 46.6904 203.725 46.5498 204.018 46.4912C204.1 46.4678 204.182 46.4561 204.264 46.4561C204.475 46.4561 204.674 46.5088 204.861 46.6143L204.932 46.6494C205.154 46.7783 205.289 46.9717 205.336 47.2295C205.336 47.2764 205.336 47.3232 205.336 47.3701C205.336 47.5693 205.26 47.7451 205.107 47.8975C203.924 49.1162 202.729 50.2295 201.521 51.2373C201.51 51.2607 201.504 51.2842 201.504 51.3076C201.516 51.3193 201.533 51.3252 201.557 51.3252L204.51 51.2725C204.545 51.2725 204.568 51.2607 204.58 51.2373C204.592 51.2139 204.592 51.1904 204.58 51.167C204.498 51.0615 204.422 50.9619 204.352 50.8682C204.234 50.7158 204.176 50.5518 204.176 50.376C204.176 50.3174 204.182 50.2588 204.193 50.2002C204.24 49.9658 204.369 49.79 204.58 49.6729C204.756 49.5674 204.943 49.5146 205.143 49.5146C205.201 49.5146 205.271 49.5205 205.354 49.5322C205.623 49.5791 205.846 49.708 206.021 49.9189C206.678 50.7393 207.223 51.5127 207.656 52.2393C207.75 52.3916 207.797 52.5557 207.797 52.7314C207.797 52.8252 207.779 52.9248 207.744 53.0303C207.662 53.2998 207.492 53.5049 207.234 53.6455C207.094 53.7275 206.941 53.7686 206.777 53.7686C206.684 53.7686 206.584 53.751 206.479 53.7158C206.221 53.6338 206.027 53.4697 205.898 53.2236C205.863 53.1768 205.834 53.1299 205.811 53.083C205.764 53.001 205.699 52.9658 205.617 52.9775C204.914 53.001 203.807 53.0361 202.295 53.083C202.213 53.0947 202.148 53.1357 202.102 53.2061C201.914 53.5107 201.727 53.792 201.539 54.0498C201.527 54.0732 201.527 54.0967 201.539 54.1201C201.551 54.1436 201.568 54.1553 201.592 54.1553H204.686C204.709 54.1553 204.732 54.1553 204.756 54.1553ZM97.2481 74.8447C97.2481 74.833 97.2423 74.8271 97.2306 74.8271C97.2189 74.8271 97.213 74.833 97.213 74.8447V77.6045C97.213 77.6982 97.254 77.7451 97.336 77.7451H98.5841C98.6778 77.7451 98.7247 77.6982 98.7247 77.6045V73.9658C98.7247 73.8721 98.6778 73.8252 98.5841 73.8252H97.336C97.254 73.8252 97.213 73.8721 97.213 73.9658V74.4932C97.213 74.5518 97.2422 74.5752 97.3008 74.5635C97.3828 74.54 97.4649 74.5283 97.547 74.5283C97.6642 74.5283 97.7872 74.5576 97.9161 74.6162C98.1036 74.7217 98.2267 74.8799 98.2853 75.0908C98.4142 75.5596 98.5079 76.0049 98.5665 76.4268C98.5899 76.5674 98.5606 76.7021 98.4786 76.8311C98.3966 76.9482 98.2911 77.0303 98.1622 77.0771C98.0333 77.1123 97.9161 77.0947 97.8106 77.0244C97.7052 76.9424 97.6466 76.8428 97.6349 76.7256C97.5528 76.0811 97.4239 75.4541 97.2481 74.8447ZM101.467 74.5811C101.537 74.6045 101.572 74.5811 101.572 74.5107V73.9658C101.572 73.8721 101.525 73.8252 101.432 73.8252H100.148C100.066 73.8252 100.025 73.8721 100.025 73.9658V76.6729C100.025 76.6846 100.031 76.6904 100.043 76.6904C100.055 76.6904 100.061 76.6846 100.061 76.6729C100.236 76.1455 100.389 75.624 100.518 75.1084C100.576 74.8975 100.699 74.7393 100.887 74.6338C100.992 74.5752 101.104 74.5459 101.221 74.5459C101.303 74.5459 101.385 74.5576 101.467 74.5811ZM100.025 77.6045C100.025 77.6982 100.066 77.7451 100.148 77.7451H101.432C101.525 77.7451 101.572 77.6982 101.572 77.6045V75.3193C101.572 75.2959 101.561 75.2842 101.537 75.2842C101.525 75.2842 101.52 75.29 101.52 75.3018C101.273 75.9463 101.109 76.374 101.027 76.585C100.957 76.7725 100.828 76.9072 100.641 76.9893C100.465 77.0596 100.283 77.0596 100.096 76.9893C100.049 76.9658 100.025 76.9893 100.025 77.0596V77.6045ZM96.1583 84.3018C96.1466 84.3018 96.1349 84.3018 96.1231 84.3018C95.8888 84.3018 95.6896 84.2256 95.5255 84.0732C95.338 83.8975 95.2442 83.6748 95.2442 83.4053C95.2442 83.1709 95.3262 82.9717 95.4902 82.8076C95.6543 82.6201 95.8595 82.5264 96.1056 82.5264C96.2931 82.5146 97.0196 82.4912 98.2853 82.4561C98.3673 82.4561 98.4083 82.4092 98.4083 82.3154V81.7178C98.4083 81.6357 98.3673 81.5947 98.2853 81.5947H96.4571C96.2345 81.5947 96.0411 81.5186 95.8771 81.3662C95.7247 81.2021 95.6485 81.0088 95.6485 80.7861C95.6485 80.5518 95.7247 80.3584 95.8771 80.2061C96.0411 80.042 96.2345 79.96 96.4571 79.96H98.2853C98.3673 79.96 98.4083 79.9189 98.4083 79.8369V79.3096C98.4083 79.2158 98.3673 79.1689 98.2853 79.1689H96.6505C96.3575 79.1689 96.1114 79.0693 95.9122 78.8701C95.713 78.6709 95.6133 78.4248 95.6133 78.1318V73.4209C95.6133 73.1396 95.713 72.8994 95.9122 72.7002C96.1114 72.4893 96.3575 72.3838 96.6505 72.3838H102.188C102.469 72.3838 102.709 72.4893 102.908 72.7002C103.119 72.8994 103.225 73.1396 103.225 73.4209V78.1318C103.225 78.4248 103.119 78.6709 102.908 78.8701C102.709 79.0693 102.469 79.1689 102.188 79.1689H100.43C100.348 79.1689 100.307 79.2158 100.307 79.3096V79.8369C100.307 79.9189 100.348 79.96 100.43 79.96H102.381C102.604 79.96 102.791 80.042 102.943 80.2061C103.107 80.3584 103.189 80.5518 103.189 80.7861C103.189 81.0088 103.107 81.2021 102.943 81.3662C102.791 81.5186 102.604 81.5947 102.381 81.5947H100.43C100.348 81.5947 100.307 81.6357 100.307 81.7178V82.2451C100.307 82.3389 100.348 82.3799 100.43 82.3682C100.652 82.3682 100.887 82.3623 101.133 82.3506C101.379 82.3389 101.648 82.3271 101.941 82.3154C102.246 82.3037 102.48 82.292 102.645 82.2803C102.656 82.2803 102.668 82.2803 102.68 82.2803C102.891 82.2803 103.072 82.3564 103.225 82.5088C103.377 82.6611 103.453 82.8486 103.453 83.0713C103.453 83.3057 103.371 83.5107 103.207 83.6865C103.043 83.8506 102.844 83.9443 102.609 83.9678C100.266 84.1084 98.1153 84.2197 96.1583 84.3018ZM96.6505 88.0283C96.545 88.2158 96.3751 88.3389 96.1407 88.3975C96.0704 88.4092 96.006 88.415 95.9474 88.415C95.795 88.415 95.6485 88.3799 95.5079 88.3096C95.3321 88.2158 95.2208 88.0693 95.1739 87.8701C95.1622 87.7998 95.1562 87.7354 95.1562 87.6768C95.1562 87.5479 95.1915 87.4189 95.2618 87.29C95.5313 86.7861 95.7481 86.1885 95.9122 85.4971C95.9474 85.2979 96.047 85.1455 96.211 85.04C96.3868 84.9346 96.5685 84.9111 96.756 84.9697C96.9669 85.0283 97.1251 85.1514 97.2306 85.3389C97.3126 85.4678 97.3536 85.6084 97.3536 85.7607C97.3536 85.8193 97.3478 85.8721 97.336 85.9189C97.1603 86.8096 96.9317 87.5127 96.6505 88.0283ZM97.7228 85.5146C97.711 85.4795 97.7052 85.4443 97.7052 85.4092C97.7052 85.2686 97.7462 85.1455 97.8282 85.04C97.9454 84.8877 98.0919 84.7998 98.2677 84.7764C98.4552 84.7529 98.6192 84.7998 98.7599 84.917C98.9122 85.0225 99.006 85.1689 99.0411 85.3564C99.1466 85.9541 99.2228 86.5518 99.2696 87.1494C99.2813 87.3486 99.2228 87.5244 99.0939 87.6768C98.9649 87.8291 98.8009 87.917 98.6017 87.9404C98.4259 87.9521 98.2677 87.8936 98.1271 87.7646C97.9864 87.6475 97.9103 87.501 97.8985 87.3252C97.8751 86.7627 97.8165 86.1592 97.7228 85.5146ZM99.6036 85.4092C99.5919 85.3506 99.586 85.292 99.586 85.2334C99.586 85.1279 99.6095 85.0283 99.6562 84.9346C99.7501 84.7939 99.879 84.7061 100.043 84.6709C100.23 84.6357 100.4 84.665 100.553 84.7588C100.717 84.8525 100.828 84.9873 100.887 85.1631C101.074 85.7607 101.227 86.3291 101.344 86.8682C101.379 87.0557 101.344 87.2256 101.238 87.3779C101.133 87.5303 100.986 87.624 100.799 87.6592C100.623 87.6943 100.459 87.6592 100.307 87.5537C100.166 87.46 100.078 87.3193 100.043 87.1318C99.9376 86.5811 99.7911 86.0068 99.6036 85.4092ZM101.484 85.2158C101.438 85.1221 101.414 85.0283 101.414 84.9346C101.414 84.876 101.426 84.8115 101.449 84.7412C101.508 84.5771 101.619 84.46 101.783 84.3896C101.889 84.3545 101.988 84.3369 102.082 84.3369C102.176 84.3369 102.27 84.3545 102.363 84.3896C102.551 84.4482 102.691 84.5654 102.785 84.7412C103.09 85.2568 103.348 85.7666 103.559 86.2705C103.605 86.3525 103.629 86.4404 103.629 86.5342C103.629 86.6396 103.605 86.7393 103.559 86.833C103.477 87.0205 103.336 87.1553 103.137 87.2373C102.961 87.3076 102.785 87.3018 102.609 87.2197C102.434 87.1377 102.311 87.0029 102.24 86.8154C102.029 86.2881 101.777 85.7549 101.484 85.2158ZM108.99 86.0244C109.084 86.0244 109.131 85.9775 109.131 85.8838V82.3857C109.131 82.3037 109.084 82.2627 108.99 82.2627H105.932C105.838 82.2627 105.791 82.3037 105.791 82.3857V85.8838C105.791 85.9775 105.838 86.0244 105.932 86.0244H108.99ZM111.469 75.8643C111.668 76.0518 111.768 76.2803 111.768 76.5498C111.768 76.8193 111.668 77.0537 111.469 77.2529C111.281 77.4404 111.053 77.5342 110.783 77.5342H108.428C108.346 77.5342 108.305 77.5811 108.305 77.6748V80.1709C108.305 80.2646 108.346 80.3115 108.428 80.3115H110.133C110.426 80.3115 110.672 80.417 110.871 80.6279C111.07 80.8271 111.17 81.0674 111.17 81.3486V87.5537C111.17 87.835 111.07 88.0752 110.871 88.2744C110.672 88.4736 110.432 88.5732 110.15 88.5732H109.676C109.523 88.5732 109.395 88.5146 109.289 88.3975C109.184 88.292 109.131 88.1631 109.131 88.0107C109.131 87.9639 109.107 87.9404 109.061 87.9404H105.879C105.82 87.9404 105.791 87.9697 105.791 88.0283C105.791 88.1924 105.727 88.333 105.598 88.4502C105.48 88.5791 105.34 88.6436 105.176 88.6436H104.824C104.555 88.6436 104.326 88.5498 104.139 88.3623C103.951 88.1748 103.857 87.9463 103.857 87.6768V81.3486C103.857 81.0674 103.957 80.8271 104.156 80.6279C104.355 80.417 104.602 80.3115 104.895 80.3115H106.072C106.166 80.3115 106.213 80.2646 106.213 80.1709V72.9111C106.213 72.6182 106.312 72.3721 106.512 72.1729C106.711 71.9736 106.957 71.874 107.25 71.874H107.268C107.549 71.874 107.789 71.9736 107.988 72.1729C108.199 72.3721 108.305 72.6182 108.305 72.9111V75.4248C108.305 75.5186 108.346 75.5654 108.428 75.5654H110.783C111.053 75.5654 111.281 75.665 111.469 75.8643ZM126.92 74.4932C127.014 74.4932 127.061 74.4521 127.061 74.3701V73.8779C127.061 73.7842 127.014 73.7373 126.92 73.7373H124.23C124.043 73.7373 123.885 73.6729 123.756 73.5439C123.627 73.415 123.562 73.2568 123.562 73.0693C123.562 72.8818 123.627 72.7236 123.756 72.5947C123.885 72.4541 124.043 72.3838 124.23 72.3838H127.834C128.115 72.3838 128.355 72.4893 128.555 72.7002C128.766 72.8994 128.871 73.1396 128.871 73.4209V74.8271C128.871 75.1084 128.766 75.3545 128.555 75.5654C128.355 75.7646 128.115 75.8643 127.834 75.8643H125.777C125.695 75.8643 125.654 75.9111 125.654 76.0049V76.2334C125.654 76.4209 125.684 76.5439 125.742 76.6025C125.812 76.6611 125.959 76.6904 126.182 76.6904H127.641C127.816 76.6904 127.934 76.6494 127.992 76.5674C128.18 76.333 128.361 76.2158 128.537 76.2158C128.596 76.2158 128.648 76.2275 128.695 76.251C128.754 76.2744 128.812 76.292 128.871 76.3037C129.094 76.3857 129.27 76.5205 129.398 76.708C129.469 76.8135 129.504 76.9248 129.504 77.042C129.504 77.124 129.486 77.2061 129.451 77.2881C129.322 77.5928 129.135 77.8037 128.889 77.9209C128.643 78.0381 128.303 78.0967 127.869 78.0967H125.936C125.127 78.0967 124.582 77.9678 124.301 77.71C124.031 77.4521 123.896 76.9658 123.896 76.251V75.5303C123.896 75.249 123.996 75.0088 124.195 74.8096C124.406 74.5986 124.652 74.4932 124.934 74.4932H126.92ZM121.014 74.4932C121.107 74.4932 121.154 74.4521 121.154 74.3701V73.8779C121.154 73.7842 121.107 73.7373 121.014 73.7373H118.43C118.242 73.7373 118.078 73.6729 117.938 73.5439C117.809 73.415 117.744 73.2568 117.744 73.0693C117.744 72.8818 117.809 72.7236 117.938 72.5947C118.078 72.4541 118.242 72.3838 118.43 72.3838H121.91C122.203 72.3838 122.449 72.4893 122.648 72.7002C122.848 72.8994 122.947 73.1396 122.947 73.4209V74.8271C122.947 75.1084 122.848 75.3545 122.648 75.5654C122.449 75.7646 122.203 75.8643 121.91 75.8643H119.889C119.807 75.8643 119.766 75.9111 119.766 76.0049V76.251C119.766 76.4385 119.795 76.5615 119.854 76.6201C119.924 76.667 120.076 76.6904 120.311 76.6904H121.682C121.857 76.6904 121.98 76.6494 122.051 76.5674C122.215 76.3447 122.385 76.2334 122.561 76.2334C122.619 76.2334 122.672 76.2451 122.719 76.2686C122.777 76.292 122.842 76.3096 122.912 76.3213C123.135 76.4033 123.305 76.5381 123.422 76.7256C123.492 76.8311 123.527 76.9424 123.527 77.0596C123.527 77.1299 123.51 77.2061 123.475 77.2881C123.346 77.5928 123.158 77.8037 122.912 77.9209C122.666 78.0381 122.338 78.0967 121.928 78.0967H120.029C119.244 78.0967 118.705 77.9678 118.412 77.71C118.131 77.4521 117.99 76.9658 117.99 76.251V75.5303C117.99 75.249 118.09 75.0088 118.289 74.8096C118.5 74.5986 118.746 74.4932 119.027 74.4932H121.014ZM116.619 74.3701C116.748 74.5342 116.812 74.7158 116.812 74.915C116.812 74.9854 116.807 75.0615 116.795 75.1436C116.725 75.4248 116.566 75.6416 116.32 75.7939L116.232 75.8467C116.068 75.9521 115.898 76.0049 115.723 76.0049C115.652 76.0049 115.576 75.9932 115.494 75.9697C115.225 75.9111 115.008 75.7646 114.844 75.5303C114.527 75.0732 114.135 74.5869 113.666 74.0713C113.525 73.9072 113.455 73.7197 113.455 73.5088C113.455 73.4736 113.455 73.4385 113.455 73.4033C113.479 73.1455 113.602 72.9463 113.824 72.8057C114.035 72.665 114.264 72.5947 114.51 72.5947C114.545 72.5947 114.586 72.6006 114.633 72.6123C114.938 72.6357 115.189 72.7529 115.389 72.9639C115.881 73.4678 116.291 73.9365 116.619 74.3701ZM122.561 80.751C122.467 80.751 122.42 80.792 122.42 80.874V81.8057C122.42 81.8877 122.467 81.9287 122.561 81.9287H124.389C124.471 81.9287 124.512 81.8877 124.512 81.8057V80.874C124.512 80.792 124.471 80.751 124.389 80.751H122.561ZM121.541 83.5107C121.518 83.5107 121.506 83.5166 121.506 83.5283C121.506 83.54 121.512 83.5518 121.523 83.5635L121.98 83.7217C122.203 83.792 122.338 83.9385 122.385 84.1611C122.385 84.208 122.385 84.249 122.385 84.2842C122.385 84.46 122.309 84.6006 122.156 84.7061C121.371 85.2568 120.469 85.749 119.449 86.1826C119.438 86.1943 119.432 86.2119 119.432 86.2354C119.432 86.2471 119.443 86.2529 119.467 86.2529C119.854 86.3467 120.299 86.3994 120.803 86.4111C121.518 86.4463 122.414 86.4639 123.492 86.4639C123.855 86.4639 124.236 86.4639 124.635 86.4639C126.229 86.4404 127.658 86.3936 128.924 86.3232C128.936 86.3232 128.947 86.3232 128.959 86.3232C129.17 86.3232 129.346 86.4111 129.486 86.5869C129.568 86.7158 129.609 86.8506 129.609 86.9912C129.609 87.0615 129.598 87.1377 129.574 87.2197C129.574 87.2197 129.574 87.2256 129.574 87.2373C129.48 87.542 129.316 87.7881 129.082 87.9756C128.848 88.1748 128.584 88.2803 128.291 88.292C126.826 88.3506 125.455 88.3799 124.178 88.3799C122.971 88.3799 121.846 88.3564 120.803 88.3096C119.713 88.2627 118.799 88.0928 118.061 87.7998C117.322 87.5068 116.695 87.0381 116.18 86.3936C116.121 86.3232 116.062 86.3174 116.004 86.376C115.512 86.8916 115.043 87.3604 114.598 87.7822C114.457 87.9229 114.287 87.9932 114.088 87.9932C114.041 87.9932 113.988 87.9873 113.93 87.9756C113.684 87.9287 113.502 87.7881 113.385 87.5537L113.297 87.3779C113.203 87.2021 113.156 87.0205 113.156 86.833C113.156 86.7393 113.174 86.6396 113.209 86.5342C113.279 86.2529 113.432 86.0186 113.666 85.8311C114.123 85.4912 114.521 85.1689 114.861 84.8643C114.92 84.8057 114.949 84.7295 114.949 84.6357V80.9268C114.949 80.8447 114.908 80.8037 114.826 80.8037H114.088C113.818 80.8037 113.584 80.71 113.385 80.5225C113.197 80.3232 113.104 80.0889 113.104 79.8193C113.104 79.5498 113.197 79.3213 113.385 79.1338C113.584 78.9346 113.818 78.835 114.088 78.835H115.898C116.191 78.835 116.438 78.9404 116.637 79.1514C116.836 79.3506 116.936 79.5908 116.936 79.8721V84.46C116.936 84.5537 116.959 84.6357 117.006 84.7061C117.463 85.4326 118.172 85.9248 119.133 86.1826C119.145 86.1826 119.156 86.1768 119.168 86.165C119.18 86.1533 119.18 86.1416 119.168 86.1299C118.992 85.9658 118.793 85.7842 118.57 85.585C118.43 85.4678 118.359 85.3271 118.359 85.1631C118.359 85.1279 118.365 85.0928 118.377 85.0576C118.412 84.8467 118.529 84.7002 118.729 84.6182C119.631 84.29 120.328 83.9502 120.82 83.5986C120.844 83.5869 120.85 83.5693 120.838 83.5459C120.838 83.5225 120.826 83.5107 120.803 83.5107H118.307C118.084 83.5107 117.896 83.4346 117.744 83.2822C117.592 83.1299 117.516 82.9482 117.516 82.7373C117.516 82.5146 117.592 82.3271 117.744 82.1748C117.896 82.0107 118.084 81.9287 118.307 81.9287H120.311C120.404 81.9287 120.451 81.8877 120.451 81.8057V80.874C120.451 80.792 120.404 80.751 120.311 80.751H118.816C118.605 80.751 118.424 80.6748 118.271 80.5225C118.119 80.3584 118.043 80.1709 118.043 79.96C118.043 79.749 118.119 79.5674 118.271 79.415C118.424 79.251 118.605 79.1689 118.816 79.1689H120.346C120.416 79.1689 120.451 79.1338 120.451 79.0635C120.451 78.8291 120.533 78.6299 120.697 78.4658C120.861 78.3018 121.061 78.2197 121.295 78.2197H121.576C121.811 78.2197 122.01 78.3018 122.174 78.4658C122.338 78.6299 122.42 78.8291 122.42 79.0635C122.42 79.1338 122.461 79.1689 122.543 79.1689H124.406C124.477 79.1689 124.512 79.1338 124.512 79.0635C124.512 78.8291 124.594 78.6299 124.758 78.4658C124.922 78.3018 125.121 78.2197 125.355 78.2197H125.707C125.941 78.2197 126.141 78.3018 126.305 78.4658C126.469 78.6299 126.551 78.8291 126.551 79.0635C126.551 79.1338 126.586 79.1689 126.656 79.1689H128.238C128.449 79.1689 128.631 79.251 128.783 79.415C128.936 79.5674 129.012 79.749 129.012 79.96C129.012 80.1709 128.936 80.3584 128.783 80.5225C128.631 80.6748 128.449 80.751 128.238 80.751H126.674C126.592 80.751 126.551 80.792 126.551 80.874V81.8057C126.551 81.8877 126.592 81.9287 126.674 81.9287H128.783C129.006 81.9287 129.193 82.0107 129.346 82.1748C129.498 82.3271 129.574 82.5146 129.574 82.7373C129.574 82.9482 129.498 83.1299 129.346 83.2822C129.193 83.4346 129.006 83.5107 128.783 83.5107H126.199C126.176 83.5107 126.164 83.5225 126.164 83.5459C126.164 83.5576 126.17 83.5635 126.182 83.5635C127.107 84.0088 127.934 84.4541 128.66 84.8994C128.824 84.9932 128.906 85.1279 128.906 85.3037C128.906 85.5615 128.789 85.7314 128.555 85.8135L128.326 85.9014C128.104 85.9834 127.887 86.0244 127.676 86.0244C127.277 86.0244 126.896 85.8955 126.533 85.6377C126.088 85.333 125.625 85.0459 125.145 84.7764C124.945 84.6592 124.846 84.4893 124.846 84.2666C124.846 84.0439 124.939 83.8799 125.127 83.7744L125.479 83.5811C125.49 83.5693 125.496 83.5576 125.496 83.5459C125.496 83.5225 125.484 83.5107 125.461 83.5107H121.541ZM138.029 83.2646C137.748 83.2646 137.502 83.165 137.291 82.9658C137.092 82.7549 136.992 82.5088 136.992 82.2275V72.8057C136.992 72.5127 137.092 72.2666 137.291 72.0674C137.502 71.8682 137.748 71.7686 138.029 71.7686H141.984C142.254 71.7686 142.482 71.8623 142.67 72.0498C142.857 72.2373 142.951 72.4658 142.951 72.7354C142.951 73.0049 142.857 73.2334 142.67 73.4209C142.482 73.6084 142.254 73.7021 141.984 73.7021H139.26C139.166 73.7021 139.119 73.749 139.119 73.8428V82.2275C139.119 82.5088 139.02 82.7549 138.82 82.9658C138.621 83.165 138.375 83.2646 138.082 83.2646H138.029ZM163.746 80.6631C164.027 80.6631 164.268 80.7686 164.467 80.9795C164.678 81.1787 164.783 81.4189 164.783 81.7002V81.7178C164.783 81.999 164.678 82.2451 164.467 82.4561C164.268 82.6553 164.027 82.7549 163.746 82.7549H157.805C157.723 82.7549 157.682 82.7959 157.682 82.8779V85.6904C157.682 86.3232 157.588 86.8037 157.4 87.1318C157.225 87.46 156.926 87.7061 156.504 87.8701C155.941 88.0811 154.957 88.1982 153.551 88.2217C153.539 88.2217 153.533 88.2217 153.533 88.2217C153.24 88.2217 152.977 88.1338 152.742 87.958C152.496 87.7705 152.314 87.5303 152.197 87.2373C152.162 87.167 152.127 87.0908 152.092 87.0088C152.057 86.915 152.039 86.8271 152.039 86.7451C152.039 86.6279 152.068 86.5166 152.127 86.4111C152.244 86.2236 152.414 86.1299 152.637 86.1299C152.637 86.1299 152.643 86.1299 152.654 86.1299C153.311 86.1416 154.049 86.1475 154.869 86.1475C155.08 86.1357 155.227 86.0947 155.309 86.0244C155.402 85.9541 155.449 85.8311 155.449 85.6553V82.8779C155.449 82.7959 155.402 82.7549 155.309 82.7549H149.367C149.086 82.7549 148.84 82.6553 148.629 82.4561C148.43 82.2451 148.33 81.999 148.33 81.7178V81.7002C148.33 81.4189 148.43 81.1787 148.629 80.9795C148.84 80.7686 149.086 80.6631 149.367 80.6631H155.309C155.402 80.6631 155.449 80.6162 155.449 80.5225V78.6943C155.449 78.6006 155.402 78.5537 155.309 78.5537H150.598C150.305 78.5537 150.059 78.4541 149.859 78.2549C149.66 78.0557 149.561 77.8154 149.561 77.5342C149.561 77.2412 149.66 76.9951 149.859 76.7959C150.059 76.5967 150.305 76.4971 150.598 76.4971H155.309C155.402 76.4971 155.449 76.4561 155.449 76.374V74.5459C155.449 74.4521 155.402 74.4111 155.309 74.4229C153.949 74.5283 152.479 74.6221 150.896 74.7041C150.873 74.7041 150.855 74.7041 150.844 74.7041C150.598 74.7041 150.369 74.6221 150.158 74.458C149.947 74.2822 149.801 74.0537 149.719 73.7725C149.695 73.6904 149.684 73.6143 149.684 73.5439C149.684 73.4033 149.725 73.2686 149.807 73.1396C149.936 72.9404 150.117 72.835 150.352 72.8232C154.605 72.6123 158.021 72.2256 160.6 71.6631C160.729 71.6279 160.857 71.6104 160.986 71.6104C161.162 71.6104 161.338 71.6396 161.514 71.6982C161.818 71.792 162.076 71.9561 162.287 72.1904L162.463 72.4189C162.568 72.5361 162.621 72.665 162.621 72.8057C162.621 72.876 162.609 72.9463 162.586 73.0166C162.516 73.2393 162.369 73.3799 162.146 73.4385C160.916 73.6963 159.469 73.9248 157.805 74.124C157.723 74.1357 157.682 74.1826 157.682 74.2646V76.374C157.682 76.4561 157.723 76.4971 157.805 76.4971H162.691C162.984 76.4971 163.23 76.5967 163.43 76.7959C163.629 76.9951 163.729 77.2412 163.729 77.5342C163.729 77.8154 163.629 78.0557 163.43 78.2549C163.23 78.4541 162.984 78.5537 162.691 78.5537H157.805C157.723 78.5537 157.682 78.6006 157.682 78.6943V80.5225C157.682 80.6162 157.723 80.6631 157.805 80.6631H163.746ZM167.086 74.2822C167.086 74.001 167.186 73.7607 167.385 73.5615C167.596 73.3506 167.842 73.2451 168.123 73.2451H180.902C181.184 73.2451 181.424 73.3506 181.623 73.5615C181.822 73.7607 181.922 74.001 181.922 74.2822V74.3525C181.793 78.7354 181.646 81.7998 181.482 83.5459C181.318 85.2803 181.043 86.3994 180.656 86.9033C180.387 87.2783 180.105 87.542 179.812 87.6943C179.531 87.8584 179.174 87.9756 178.74 88.0459C178.377 88.1045 177.885 88.1338 177.264 88.1338C177.088 88.1338 176.895 88.1279 176.684 88.1162C176.402 88.1162 176.15 88.0107 175.928 87.7998C175.717 87.6006 175.564 87.3545 175.471 87.0615C175.436 86.9209 175.395 86.7861 175.348 86.6572C175.312 86.5752 175.295 86.4932 175.295 86.4111C175.295 86.2939 175.33 86.1826 175.4 86.0771C175.506 85.8896 175.658 85.7959 175.857 85.7959C175.869 85.7959 175.881 85.7959 175.893 85.7959C176.42 85.8193 177.035 85.8311 177.738 85.8311C178.102 85.8311 178.383 85.7256 178.582 85.5146C178.863 85.2217 179.08 84.2959 179.232 82.7373C179.385 81.2021 179.508 78.8057 179.602 75.5479C179.602 75.4658 179.555 75.4248 179.461 75.4248H174.574C174.492 75.4248 174.451 75.4658 174.451 75.5479C174.404 76.4033 174.34 77.1709 174.258 77.8506C174.176 78.5654 174.041 79.3564 173.854 80.2236C173.678 81.0908 173.426 81.8818 173.098 82.5967C172.781 83.3115 172.389 84.0264 171.92 84.7412C171.451 85.4561 170.859 86.124 170.145 86.7451C169.688 87.1436 169.178 87.5186 168.615 87.8701C168.451 87.9639 168.281 88.0107 168.105 88.0107C168.012 88.0107 167.924 87.999 167.842 87.9756C167.572 87.9053 167.338 87.7529 167.139 87.5186C167.045 87.4014 166.945 87.29 166.84 87.1846C166.699 87.0322 166.629 86.8564 166.629 86.6572C166.629 86.6221 166.629 86.5869 166.629 86.5518C166.664 86.3174 166.781 86.1416 166.98 86.0244C167.461 85.7432 167.9 85.4443 168.299 85.1279C168.943 84.6006 169.471 84.0322 169.881 83.4229C170.303 82.8018 170.654 82.1865 170.936 81.5771C171.217 80.9678 171.428 80.2881 171.568 79.5381C171.721 78.7764 171.826 78.0967 171.885 77.499C171.943 76.9365 171.99 76.292 172.025 75.5654C172.025 75.4717 171.984 75.4248 171.902 75.4248H168.123C167.842 75.4248 167.596 75.3252 167.385 75.126C167.186 74.915 167.086 74.6689 167.086 74.3877V74.2822ZM198.041 78.2549C198.135 78.2549 198.182 78.2139 198.182 78.1318V77.2529C198.182 77.1709 198.135 77.1299 198.041 77.1299H194.297C194.203 77.1299 194.156 77.1709 194.156 77.2529V78.1318C194.156 78.2139 194.203 78.2549 194.297 78.2549H198.041ZM198.041 80.874C198.135 80.874 198.182 80.8271 198.182 80.7334V79.8545C198.182 79.7607 198.135 79.7139 198.041 79.7139H194.297C194.203 79.7139 194.156 79.7607 194.156 79.8545V80.7334C194.156 80.8271 194.203 80.874 194.297 80.874H198.041ZM198.041 83.4932C198.135 83.4932 198.182 83.4521 198.182 83.3701V82.4736C198.182 82.3916 198.135 82.3506 198.041 82.3506H194.297C194.203 82.3506 194.156 82.3916 194.156 82.4736V83.3701C194.156 83.4521 194.203 83.4932 194.297 83.4932H198.041ZM191.115 82.0869C191.045 82.3096 190.904 82.4736 190.693 82.5791C190.553 82.6611 190.406 82.7021 190.254 82.7021C190.184 82.7021 190.119 82.6963 190.061 82.6846C189.85 82.6377 189.686 82.5264 189.568 82.3506C189.498 82.2217 189.463 82.0928 189.463 81.9639C189.463 81.8936 189.475 81.8232 189.498 81.7529C189.604 81.3545 189.721 80.8975 189.85 80.3818C189.861 80.2998 189.826 80.2588 189.744 80.2588H188.936C188.842 80.2588 188.795 80.2998 188.795 80.3818V86.3584C188.795 86.8857 188.736 87.29 188.619 87.5713C188.502 87.8643 188.285 88.0928 187.969 88.2568C187.559 88.4443 186.979 88.5615 186.229 88.6084C186.205 88.6084 186.188 88.6084 186.176 88.6084C185.906 88.6084 185.666 88.5205 185.455 88.3447C185.221 88.1572 185.057 87.917 184.963 87.624C184.951 87.5889 184.939 87.5596 184.928 87.5361C184.904 87.4541 184.893 87.3721 184.893 87.29C184.893 87.1494 184.934 87.0146 185.016 86.8857C185.156 86.6865 185.344 86.5869 185.578 86.5869H186.404C186.533 86.5869 186.615 86.5693 186.65 86.5342C186.697 86.4873 186.721 86.417 186.721 86.3232V80.3818C186.721 80.2998 186.68 80.2588 186.598 80.2588H184.998C184.74 80.2588 184.518 80.165 184.33 79.9775C184.154 79.79 184.066 79.5674 184.066 79.3096C184.066 79.0518 184.154 78.8291 184.33 78.6416C184.518 78.4541 184.74 78.3604 184.998 78.3604H187.775C187.799 78.3604 187.811 78.3545 187.811 78.3428C187.822 78.3193 187.822 78.3018 187.811 78.29C187.154 77.8096 186.41 77.3408 185.578 76.8838C185.379 76.7783 185.25 76.6143 185.191 76.3916C185.18 76.333 185.174 76.2744 185.174 76.2158C185.174 76.0635 185.227 75.917 185.332 75.7764C185.484 75.5771 185.684 75.4482 185.93 75.3896C186.023 75.3662 186.111 75.3545 186.193 75.3545C186.346 75.3545 186.498 75.3896 186.65 75.46C186.896 75.5889 187.148 75.7236 187.406 75.8643C187.477 75.8994 187.541 75.8877 187.6 75.8291C187.986 75.3955 188.32 74.9736 188.602 74.5635C188.613 74.54 188.613 74.5166 188.602 74.4932C188.59 74.4697 188.566 74.458 188.531 74.458H185.42C185.162 74.458 184.939 74.3701 184.752 74.1943C184.576 74.0068 184.488 73.79 184.488 73.5439C184.488 73.2861 184.576 73.0693 184.752 72.8936C184.939 72.7061 185.162 72.6123 185.42 72.6123H189.955C189.99 72.6123 190.02 72.6064 190.043 72.5947C190.125 72.5713 190.201 72.5596 190.271 72.5596C190.412 72.5596 190.541 72.6006 190.658 72.6826L191.52 73.333C191.543 73.3447 191.561 73.3447 191.572 73.333C191.596 73.3213 191.607 73.3037 191.607 73.2803C191.607 73.0811 191.678 72.9111 191.818 72.7705C191.959 72.6299 192.135 72.5596 192.346 72.5596H199.852C200.098 72.5596 200.309 72.6475 200.484 72.8232C200.66 72.999 200.748 73.21 200.748 73.4561C200.748 73.7021 200.66 73.9131 200.484 74.0889C200.309 74.2646 200.098 74.3525 199.852 74.3525H197.496C197.402 74.3525 197.344 74.3936 197.32 74.4756C197.227 74.8037 197.127 75.1201 197.021 75.4248C197.01 75.4482 197.016 75.4775 197.039 75.5127C197.062 75.5361 197.086 75.5479 197.109 75.5479H199.184C199.477 75.5479 199.723 75.6475 199.922 75.8467C200.121 76.0459 200.221 76.292 200.221 76.585V84.0205C200.221 84.3135 200.121 84.5596 199.922 84.7588C199.723 84.958 199.477 85.0576 199.184 85.0576H193.26C192.967 85.0576 192.721 84.958 192.521 84.7588C192.322 84.5596 192.223 84.3135 192.223 84.0205V76.585C192.223 76.292 192.322 76.0459 192.521 75.8467C192.721 75.6475 192.967 75.5479 193.26 75.5479H194.719C194.801 75.5479 194.848 75.501 194.859 75.4072C194.906 75.1846 194.953 74.8799 195 74.4932C195.012 74.3994 194.977 74.3525 194.895 74.3525H192.311C192.111 74.3525 191.941 74.2881 191.801 74.1592C191.672 74.0186 191.607 73.8486 191.607 73.6494C191.607 73.6377 191.596 73.6318 191.572 73.6318C191.561 73.6318 191.555 73.6318 191.555 73.6318C190.816 74.8154 190.014 75.8584 189.146 76.7607C189.076 76.8193 189.082 76.8779 189.164 76.9365C189.305 77.0303 189.439 77.1299 189.568 77.2354C189.732 77.3643 189.826 77.5283 189.85 77.7275C189.861 77.7627 189.867 77.7979 189.867 77.833C189.867 77.9971 189.814 78.1494 189.709 78.29C189.697 78.3018 189.697 78.3193 189.709 78.3428C189.721 78.3545 189.732 78.3604 189.744 78.3604H190.482C190.506 78.3604 190.529 78.3604 190.553 78.3604C190.729 78.3252 190.898 78.3252 191.062 78.3604L191.467 78.4482C191.643 78.4951 191.777 78.5947 191.871 78.7471C191.965 78.8994 191.988 79.0635 191.941 79.2393C191.648 80.3291 191.373 81.2783 191.115 82.0869ZM193.172 85.7432C193.418 85.5674 193.693 85.4678 193.998 85.4443C194.033 85.4326 194.068 85.4268 194.104 85.4268C194.361 85.4268 194.602 85.4971 194.824 85.6377L194.842 85.6553C195.076 85.8076 195.193 86.0303 195.193 86.3232C195.193 86.5459 195.1 86.7334 194.912 86.8857C194.209 87.4131 193.424 87.8877 192.557 88.3096C192.381 88.3916 192.193 88.4326 191.994 88.4326C191.9 88.4326 191.807 88.4209 191.713 88.3975C191.42 88.3389 191.162 88.1982 190.939 87.9756C190.811 87.8584 190.746 87.7119 190.746 87.5361C190.746 87.501 190.752 87.46 190.764 87.4131C190.799 87.1904 190.922 87.0322 191.133 86.9385C191.883 86.5869 192.562 86.1885 193.172 85.7432ZM197.338 86.833C197.162 86.6924 197.074 86.5107 197.074 86.2881C197.074 86.0537 197.168 85.8721 197.355 85.7432C197.602 85.5791 197.865 85.4971 198.146 85.4971C198.439 85.4971 198.703 85.5791 198.938 85.7432C199.512 86.1299 200.01 86.4932 200.432 86.833C200.619 86.9854 200.713 87.1846 200.713 87.4307C200.713 87.7236 200.602 87.9521 200.379 88.1162H200.361C200.15 88.2686 199.922 88.3447 199.676 88.3447C199.629 88.3447 199.588 88.3389 199.553 88.3271C199.26 88.3037 199.002 88.1924 198.779 87.9932C198.369 87.6416 197.889 87.2549 197.338 86.833ZM202.717 83.2646C202.752 83.0303 202.863 82.8369 203.051 82.6846C203.203 82.5791 203.367 82.5264 203.543 82.5264C203.59 82.5264 203.643 82.5264 203.701 82.5264C203.947 82.5732 204.146 82.6963 204.299 82.8955C204.416 83.0596 204.475 83.2412 204.475 83.4404C204.475 83.4873 204.475 83.5342 204.475 83.5811C204.311 84.6943 204.094 85.6611 203.824 86.4814C203.754 86.7041 203.602 86.8564 203.367 86.9385C203.273 86.9736 203.174 86.9912 203.068 86.9912C202.939 86.9912 202.816 86.9619 202.699 86.9033C202.477 86.7979 202.318 86.6338 202.225 86.4111C202.178 86.2822 202.154 86.1533 202.154 86.0244C202.154 85.9189 202.166 85.8135 202.189 85.708C202.412 85.04 202.588 84.2256 202.717 83.2646ZM207.129 83.5459C207.094 83.4521 207.076 83.3584 207.076 83.2646C207.076 83.1592 207.105 83.0479 207.164 82.9307C207.258 82.7314 207.41 82.5967 207.621 82.5264C207.715 82.4912 207.809 82.4736 207.902 82.4736C208.031 82.4736 208.16 82.5029 208.289 82.5615C208.5 82.6553 208.652 82.8135 208.746 83.0361C208.969 83.6104 209.168 84.1963 209.344 84.7939C209.379 84.8877 209.396 84.9756 209.396 85.0576C209.396 85.21 209.355 85.3564 209.273 85.4971C209.156 85.7197 208.98 85.8721 208.746 85.9541C208.652 85.9893 208.564 86.0068 208.482 86.0068C208.354 86.0068 208.225 85.9717 208.096 85.9014C207.896 85.7842 207.768 85.6084 207.709 85.374C207.557 84.8115 207.363 84.2021 207.129 83.5459ZM212.49 74.7744C212.479 74.7979 212.479 74.8271 212.49 74.8623C212.514 74.8857 212.543 74.8975 212.578 74.8975H217.553C217.834 74.8975 218.074 74.9971 218.273 75.1963C218.473 75.3955 218.572 75.6299 218.572 75.8994C218.572 78.7705 218.426 81.6064 218.133 84.4072C217.969 86.0479 217.699 87.1025 217.324 87.5713C217.09 87.8994 216.844 88.1279 216.586 88.2568C216.328 88.3975 216 88.4971 215.602 88.5557C215.273 88.6143 214.787 88.6436 214.143 88.6436C214.037 88.6436 213.932 88.6377 213.826 88.626C213.533 88.626 213.275 88.5264 213.053 88.3271C212.83 88.1396 212.672 87.8936 212.578 87.5889C212.566 87.5186 212.543 87.4482 212.508 87.3779C212.484 87.2959 212.473 87.2197 212.473 87.1494C212.473 87.0205 212.508 86.8975 212.578 86.7803C212.695 86.6045 212.859 86.5166 213.07 86.5166C213.082 86.5166 213.094 86.5166 213.105 86.5166C213.574 86.54 214.113 86.5518 214.723 86.5518C215.039 86.5518 215.291 86.4521 215.479 86.2529C215.736 85.9717 215.941 85.1338 216.094 83.7393C216.246 82.333 216.375 80.1064 216.48 77.0596C216.48 76.9658 216.434 76.9189 216.34 76.9189H211.646C211.553 76.9189 211.488 76.96 211.453 77.042C211.16 77.5576 210.879 78.0146 210.609 78.4131C210.445 78.6475 210.223 78.7822 209.941 78.8174C209.883 78.8291 209.83 78.835 209.783 78.835C209.561 78.835 209.35 78.7646 209.15 78.624C208.893 78.4482 208.641 78.2842 208.395 78.1318C208.383 78.1201 208.371 78.1201 208.359 78.1318C208.348 78.1436 208.348 78.1611 208.359 78.1846C208.816 79.0166 209.18 79.8135 209.449 80.5752C209.484 80.6807 209.502 80.7861 209.502 80.8916C209.502 81.0205 209.467 81.1494 209.396 81.2783C209.291 81.5127 209.121 81.6885 208.887 81.8057C208.781 81.8525 208.676 81.876 208.57 81.876C208.465 81.876 208.359 81.8525 208.254 81.8057C208.055 81.7002 207.92 81.5361 207.85 81.3135C207.826 81.2432 207.779 81.2139 207.709 81.2256L206.918 81.2783C206.836 81.2783 206.795 81.3252 206.795 81.4189V87.7295C206.795 87.999 206.701 88.2217 206.514 88.3975C206.338 88.585 206.115 88.6787 205.846 88.6787C205.588 88.6787 205.365 88.585 205.178 88.3975C204.99 88.2217 204.896 87.999 204.896 87.7295V81.5596C204.896 81.4658 204.855 81.4248 204.773 81.4365L203.174 81.542C203.15 81.542 203.127 81.542 203.104 81.542C202.869 81.542 202.664 81.4658 202.488 81.3135C202.289 81.1494 202.178 80.9326 202.154 80.6631C202.154 80.6396 202.154 80.6104 202.154 80.5752C202.154 80.3643 202.225 80.1709 202.365 79.9951C202.529 79.8076 202.74 79.708 202.998 79.6963L203.262 79.6787C203.344 79.6787 203.414 79.6436 203.473 79.5732C203.73 79.2451 203.953 78.9463 204.141 78.6768C204.199 78.6064 204.199 78.5303 204.141 78.4482C203.777 77.9326 203.297 77.3584 202.699 76.7256C202.512 76.5381 202.406 76.3154 202.383 76.0576C202.383 76.0225 202.383 75.9873 202.383 75.9521C202.383 75.7412 202.441 75.542 202.559 75.3545L202.787 75.0381C202.857 74.9326 202.957 74.874 203.086 74.8623C203.227 74.8389 203.35 74.8682 203.455 74.9502C203.49 74.9854 203.514 74.9854 203.525 74.9502C203.889 74.2236 204.205 73.5146 204.475 72.8232C204.58 72.5537 204.756 72.3604 205.002 72.2432C205.143 72.1729 205.283 72.1377 205.424 72.1377C205.541 72.1377 205.652 72.1611 205.758 72.208C206.004 72.29 206.18 72.4541 206.285 72.7002C206.32 72.8057 206.338 72.9111 206.338 73.0166C206.338 73.1572 206.303 73.292 206.232 73.4209C205.635 74.5459 205.137 75.4248 204.738 76.0576C204.691 76.1279 204.697 76.1982 204.756 76.2686C204.896 76.4326 205.049 76.6143 205.213 76.8135C205.271 76.8838 205.324 76.8838 205.371 76.8135C205.781 76.1807 206.162 75.5303 206.514 74.8623C206.643 74.6162 206.836 74.4404 207.094 74.335C207.223 74.2881 207.346 74.2646 207.463 74.2646C207.604 74.2646 207.738 74.2939 207.867 74.3525C208.102 74.4463 208.26 74.6162 208.342 74.8623C208.365 74.9561 208.377 75.0439 208.377 75.126C208.377 75.2783 208.33 75.4248 208.236 75.5654C207.229 77.0889 206.291 78.4014 205.424 79.5029C205.4 79.5264 205.395 79.5498 205.406 79.5732C205.418 79.5967 205.441 79.6084 205.477 79.6084L207.023 79.5381C207.059 79.5381 207.082 79.5264 207.094 79.5029C207.105 79.4795 207.105 79.4502 207.094 79.415C207.035 79.2861 206.977 79.1572 206.918 79.0283C206.859 78.9111 206.83 78.7939 206.83 78.6768C206.83 78.583 206.842 78.4951 206.865 78.4131C206.936 78.2021 207.076 78.0498 207.287 77.9561L207.832 77.71C207.973 77.6514 208.078 77.6865 208.148 77.8154C208.16 77.8389 208.172 77.8389 208.184 77.8154C209.285 76.6318 210.176 74.9736 210.855 72.8408C210.938 72.5713 211.102 72.3604 211.348 72.208C211.523 72.1025 211.711 72.0498 211.91 72.0498C211.992 72.0498 212.068 72.0557 212.139 72.0674L212.314 72.1025C212.596 72.1611 212.807 72.3135 212.947 72.5596C213.041 72.7002 213.088 72.8525 213.088 73.0166C213.088 73.1104 213.07 73.21 213.035 73.3154C212.883 73.7842 212.701 74.2705 212.49 74.7744ZM214.072 82.1572C214.143 82.3096 214.178 82.4619 214.178 82.6143C214.178 82.7314 214.16 82.8545 214.125 82.9834C214.02 83.2529 213.832 83.458 213.562 83.5986L213.545 83.6162C213.404 83.6865 213.264 83.7217 213.123 83.7217C213.018 83.7217 212.912 83.7041 212.807 83.6689C212.549 83.5635 212.367 83.3877 212.262 83.1416C211.922 82.3799 211.488 81.583 210.961 80.751C210.867 80.5986 210.82 80.4463 210.82 80.2939C210.82 80.2119 210.832 80.1357 210.855 80.0654C210.914 79.8193 211.055 79.6377 211.277 79.5205C211.441 79.4385 211.611 79.3975 211.787 79.3975C211.881 79.3975 211.975 79.4092 212.068 79.4326C212.338 79.4912 212.549 79.6377 212.701 79.8721C213.275 80.6924 213.732 81.4541 214.072 82.1572ZM229.066 77.2529C229.348 77.2529 229.588 77.3525 229.787 77.5518C229.998 77.751 230.104 77.9971 230.104 78.29V87.7119C230.104 88.0049 229.998 88.251 229.787 88.4502C229.588 88.6494 229.348 88.749 229.066 88.749H225.094C224.824 88.749 224.596 88.6553 224.408 88.4678C224.221 88.2803 224.127 88.0518 224.127 87.7822C224.127 87.5127 224.221 87.2842 224.408 87.0967C224.596 86.9092 224.824 86.8154 225.094 86.8154H227.818C227.912 86.8154 227.959 86.7686 227.959 86.6748V78.29C227.959 77.9971 228.059 77.751 228.258 77.5518C228.457 77.3525 228.703 77.2529 228.996 77.2529H229.066Z" fill="#4A5364"/>
</g>
</g>
<defs>
<clipPath id="clip0_2805_13616">
<rect width="328" height="416" fill="white"/>
</clipPath>
</defs>
</svg>
