<svg width="328" height="416" viewBox="0 0 328 416" fill="none" xmlns="http://www.w3.org/2000/svg">
<g clip-path="url(#clip0_2645_13688)">
<mask id="mask0_2645_13688" style="mask-type:luminance" maskUnits="userSpaceOnUse" x="0" y="0" width="328" height="416">
<path d="M312 0H16C7.16344 0 0 7.16344 0 16V400C0 408.837 7.16344 416 16 416H312C320.837 416 328 408.837 328 400V16C328 7.16344 320.837 0 312 0Z" fill="white"/>
</mask>
<g mask="url(#mask0_2645_13688)">
<path d="M312 0H16C7.16344 0 0 7.16344 0 16V400C0 408.837 7.16344 416 16 416H312C320.837 416 328 408.837 328 400V16C328 7.16344 320.837 0 312 0Z" fill="#FFF9EB"/>
<path d="M164 576C260.65 576 339 497.65 339 401C339 304.35 260.65 226 164 226C67.3502 226 -11 304.35 -11 401C-11 497.65 67.3502 576 164 576Z" fill="#FFFDFA"/>
<path d="M86.8671 68.1328C86.8671 68.2148 86.914 68.2559 87.0077 68.2559H89.7499C89.8319 68.2559 89.8729 68.2148 89.8729 68.1328V67.2188C89.8729 67.125 89.8319 67.0781 89.7499 67.0781H87.0077C86.914 67.0781 86.8671 67.125 86.8671 67.2188V68.1328ZM89.8729 64.5117C89.8729 64.4297 89.8319 64.3887 89.7499 64.3887H87.0077C86.914 64.3887 86.8671 64.4297 86.8671 64.5117V65.373C86.8671 65.4551 86.914 65.4961 87.0077 65.4961H89.7499C89.8319 65.4961 89.8729 65.4551 89.8729 65.373V64.5117ZM90.9101 62.5781C91.1913 62.5781 91.4315 62.6836 91.6308 62.8945C91.8417 63.0938 91.9473 63.334 91.9473 63.6152V71.4375C91.9473 71.918 91.8886 72.2871 91.7714 72.5449C91.6542 72.8145 91.4491 73.0254 91.1561 73.1777C90.8163 73.3535 90.3065 73.459 89.6269 73.4941C89.6034 73.4941 89.58 73.4941 89.5565 73.4941C89.3104 73.4941 89.0819 73.4121 88.871 73.248C88.6366 73.084 88.4667 72.8613 88.3612 72.5801C88.3378 72.498 88.3261 72.416 88.3261 72.334C88.3261 72.2168 88.3612 72.1055 88.4315 72C88.5487 71.8125 88.7187 71.7188 88.9413 71.7188H89.0995C89.3222 71.7188 89.4862 71.7188 89.5917 71.7188C89.6972 71.7188 89.7675 71.6953 89.8026 71.6484C89.8495 71.6016 89.8729 71.5254 89.8729 71.4199V69.9609C89.8729 69.8672 89.8319 69.8203 89.7499 69.8203H87.0077C86.914 69.8203 86.8671 69.8672 86.8671 69.9609V72.4395C86.8671 72.7207 86.7675 72.9609 86.5683 73.1602C86.369 73.3594 86.1288 73.459 85.8476 73.459C85.5663 73.459 85.3261 73.3594 85.1269 73.1602C84.9276 72.9609 84.828 72.7207 84.828 72.4395V63.6152C84.828 63.334 84.9276 63.0938 85.1269 62.8945C85.3378 62.6836 85.5839 62.5781 85.8651 62.5781H90.9101ZM97.08 71.1738V63.2988C97.08 63.0176 97.1796 62.7773 97.3788 62.5781C97.578 62.3672 97.8241 62.2617 98.1171 62.2617H98.1522C98.4335 62.2617 98.6737 62.3672 98.8729 62.5781C99.0839 62.7773 99.1894 63.0176 99.1894 63.2988V71.209C99.1894 71.7598 99.119 72.1758 98.9784 72.457C98.8495 72.7383 98.6093 72.9668 98.2577 73.1426C97.8241 73.3418 97.1854 73.459 96.3417 73.4941C96.33 73.4941 96.3183 73.4941 96.3065 73.4941C96.0253 73.4941 95.7733 73.4062 95.5507 73.2305C95.3046 73.043 95.1229 72.7969 95.0058 72.4922C95.0058 72.4688 94.9999 72.4453 94.9882 72.4219C94.953 72.3281 94.9354 72.2402 94.9354 72.1582C94.9354 72.0293 94.9706 71.9062 95.0409 71.7891C95.1581 71.6016 95.3339 71.5078 95.5683 71.5078C95.7558 71.5078 95.9257 71.5078 96.078 71.5078C96.3476 71.5078 96.5526 71.502 96.6933 71.4902C96.8456 71.4902 96.9452 71.4727 96.9921 71.4375C97.0507 71.3906 97.08 71.3027 97.08 71.1738ZM93.7753 63.0527C93.9745 62.8652 94.2089 62.7715 94.4784 62.7715C94.7479 62.7715 94.9765 62.8652 95.164 63.0527C95.3632 63.2402 95.4628 63.4688 95.4628 63.7383V69.1348C95.4628 69.4043 95.3632 69.6328 95.164 69.8203C94.9765 70.0078 94.7479 70.1016 94.4784 70.1016C94.2089 70.1016 93.9745 70.0078 93.7753 69.8203C93.5878 69.6328 93.494 69.4043 93.494 69.1348V63.7383C93.494 63.4688 93.5878 63.2402 93.7753 63.0527ZM96.5526 59.3086C96.5409 59.332 96.5409 59.3555 96.5526 59.3789C96.5644 59.4023 96.5819 59.4141 96.6054 59.4141H99.1718C99.4413 59.4141 99.6698 59.5078 99.8573 59.6953C100.045 59.8828 100.139 60.1113 100.139 60.3809C100.139 60.6504 100.045 60.8789 99.8573 61.0664C99.6698 61.2539 99.4413 61.3477 99.1718 61.3477H84.8104C84.5409 61.3477 84.3124 61.2539 84.1249 61.0664C83.9374 60.8789 83.8438 60.6504 83.8438 60.3809C83.8438 60.1113 83.9374 59.8828 84.1249 59.6953C84.3124 59.5078 84.5409 59.4141 84.8104 59.4141H87.5526C87.5761 59.4141 87.5937 59.4023 87.6054 59.3789C87.6288 59.3555 87.6347 59.332 87.6229 59.3086C87.4354 58.9688 87.2128 58.6172 86.955 58.2539C86.8612 58.125 86.8144 57.9785 86.8144 57.8145C86.8144 57.7441 86.8261 57.668 86.8495 57.5859C86.9198 57.3398 87.0722 57.1758 87.3065 57.0938L87.3769 57.0762C87.5526 57.0176 87.7227 56.9883 87.8867 56.9883C88.0273 56.9883 88.162 57.0059 88.2909 57.041C88.5956 57.123 88.8476 57.2812 89.0468 57.5156C89.246 57.7734 89.4219 58.0254 89.5742 58.2715C89.6561 58.3887 89.6973 58.5176 89.6973 58.6582C89.6973 58.7402 89.6796 58.8281 89.6444 58.9219C89.5507 59.1445 89.3866 59.2969 89.1522 59.3789C89.1522 59.3789 89.1522 59.3848 89.1522 59.3965C89.1522 59.4082 89.1581 59.4141 89.1698 59.4141H93.9159C94.0097 59.4141 94.08 59.3789 94.1269 59.3086C94.455 58.793 94.7714 58.2363 95.0761 57.6387C95.2167 57.3691 95.4218 57.1758 95.6913 57.0586C95.8554 56.9766 96.0194 56.9355 96.1835 56.9355C96.3007 56.9355 96.412 56.9531 96.5175 56.9883L96.8515 57.0938C97.1093 57.1641 97.2792 57.3223 97.3612 57.5684C97.3964 57.6621 97.414 57.7559 97.414 57.8496C97.414 57.9902 97.3729 58.125 97.2909 58.2539C97.08 58.5703 96.8339 58.9219 96.5526 59.3086ZM104.709 57.6035C104.908 57.3691 105.154 57.2109 105.447 57.1289C105.576 57.0938 105.699 57.0762 105.816 57.0762C105.98 57.0762 106.145 57.1055 106.309 57.1641L106.396 57.1992C106.643 57.293 106.801 57.4688 106.871 57.7266C106.883 57.7969 106.889 57.8672 106.889 57.9375C106.889 58.1016 106.836 58.2598 106.73 58.4121C105.758 59.5957 104.668 60.6387 103.461 61.541C103.297 61.6582 103.127 61.7168 102.951 61.7168C102.869 61.7168 102.793 61.7051 102.723 61.6816C102.453 61.623 102.248 61.4707 102.107 61.2246C102.107 61.2246 102.107 61.2188 102.107 61.207C102.002 61.0312 101.949 60.8496 101.949 60.6621C101.949 60.5801 101.955 60.498 101.967 60.416C102.025 60.1465 102.166 59.9238 102.389 59.748C103.291 59.0801 104.064 58.3652 104.709 57.6035ZM105.324 61.4355C105.5 61.1895 105.729 61.0195 106.01 60.9258C106.139 60.8906 106.262 60.873 106.379 60.873C106.543 60.873 106.701 60.9023 106.854 60.9609C107.1 61.0664 107.264 61.248 107.346 61.5059C107.381 61.5996 107.398 61.6875 107.398 61.7695C107.398 61.9336 107.346 62.0859 107.24 62.2266C106.936 62.6602 106.602 63.1113 106.238 63.5801C106.18 63.6504 106.15 63.7266 106.15 63.8086V72.5273C106.15 72.8203 106.045 73.0664 105.834 73.2656C105.635 73.4648 105.395 73.5645 105.113 73.5645C104.832 73.5645 104.586 73.4648 104.375 73.2656C104.176 73.0664 104.076 72.8203 104.076 72.5273V66.0762C104.076 66.0527 104.064 66.041 104.041 66.041C104.018 66.0293 104 66.0293 103.988 66.041C103.742 66.2754 103.508 66.4922 103.285 66.6914C103.145 66.8203 102.98 66.8848 102.793 66.8848C102.734 66.8848 102.676 66.8789 102.617 66.8672C102.359 66.8086 102.166 66.6621 102.037 66.4277C102.002 66.3457 101.961 66.2637 101.914 66.1816C101.809 65.9941 101.756 65.8008 101.756 65.6016C101.756 65.5312 101.762 65.4551 101.773 65.373C101.832 65.0918 101.973 64.8633 102.195 64.6875C103.414 63.7031 104.457 62.6191 105.324 61.4355ZM113.955 70.8574C113.955 70.9512 114.002 70.998 114.096 70.998H117.383C117.664 70.998 117.904 71.0977 118.104 71.2969C118.303 71.4961 118.402 71.7363 118.402 72.0176C118.402 72.2988 118.303 72.5391 118.104 72.7383C117.904 72.9375 117.664 73.0371 117.383 73.0371H108.189C107.896 73.0371 107.65 72.9375 107.451 72.7383C107.252 72.5391 107.152 72.2988 107.152 72.0176C107.152 71.7363 107.252 71.4961 107.451 71.2969C107.65 71.0977 107.896 70.998 108.189 70.998H111.547C111.629 70.998 111.67 70.9512 111.67 70.8574V67.7109C111.67 67.6172 111.629 67.5703 111.547 67.5703H109.227C108.957 67.5703 108.723 67.4766 108.523 67.2891C108.336 67.0898 108.242 66.8555 108.242 66.5859C108.242 66.3047 108.336 66.0703 108.523 65.8828C108.723 65.6836 108.957 65.584 109.227 65.584H111.547C111.629 65.584 111.67 65.543 111.67 65.4609V62.5078C111.67 62.4141 111.629 62.3672 111.547 62.3672H108.857C108.588 62.3672 108.354 62.2734 108.154 62.0859C107.955 61.8867 107.855 61.6465 107.855 61.3652C107.855 61.084 107.955 60.8438 108.154 60.6445C108.354 60.4453 108.588 60.3457 108.857 60.3457H113.094C113.117 60.3457 113.129 60.3398 113.129 60.3281C113.141 60.3047 113.141 60.2871 113.129 60.2754C112.461 59.7246 111.67 59.1855 110.756 58.6582C110.545 58.5293 110.422 58.3418 110.387 58.0957C110.375 58.0488 110.369 58.0078 110.369 57.9727C110.369 57.7734 110.445 57.6035 110.598 57.4629C110.82 57.2402 111.084 57.1113 111.389 57.0762C111.459 57.0645 111.529 57.0586 111.6 57.0586C111.822 57.0586 112.033 57.1113 112.232 57.2168C113.029 57.6387 113.738 58.0723 114.359 58.5176C114.605 58.6816 114.729 58.916 114.729 59.2207C114.729 59.4785 114.635 59.6953 114.447 59.8711L114.043 60.2578C114.02 60.2812 114.014 60.3047 114.025 60.3281C114.037 60.3398 114.055 60.3457 114.078 60.3457H116.732C117.014 60.3457 117.248 60.4453 117.436 60.6445C117.635 60.8438 117.734 61.084 117.734 61.3652C117.734 61.6465 117.635 61.8867 117.436 62.0859C117.248 62.2734 117.014 62.3672 116.732 62.3672H114.096C114.002 62.3672 113.955 62.4141 113.955 62.5078V65.4609C113.955 65.543 114.002 65.584 114.096 65.584H116.451C116.721 65.584 116.949 65.6836 117.137 65.8828C117.336 66.0703 117.436 66.3047 117.436 66.5859C117.436 66.8555 117.336 67.0898 117.137 67.2891C116.949 67.4766 116.721 67.5703 116.451 67.5703H114.096C114.002 67.5703 113.955 67.6172 113.955 67.7109V70.8574ZM123.869 60.7676C123.963 60.7676 124.01 60.7266 124.01 60.6445V59.2383C124.01 59.1562 123.963 59.1152 123.869 59.1152H122.357C122.264 59.1152 122.217 59.1562 122.217 59.2383V60.6445C122.217 60.7266 122.264 60.7676 122.357 60.7676H123.869ZM123.869 64.0371C123.963 64.0371 124.01 63.9961 124.01 63.9141V62.5078C124.01 62.4141 123.963 62.3672 123.869 62.3672H122.357C122.264 62.3672 122.217 62.4141 122.217 62.5078V63.9141C122.217 63.9961 122.264 64.0371 122.357 64.0371H123.869ZM123.869 67.3242C123.963 67.3242 124.01 67.2773 124.01 67.1836V65.7598C124.01 65.6777 123.963 65.6367 123.869 65.6367H122.357C122.264 65.6367 122.217 65.6777 122.217 65.7598V67.1836C122.217 67.2773 122.264 67.3242 122.357 67.3242H123.869ZM124.836 57.4277C125.129 57.4277 125.375 57.5273 125.574 57.7266C125.773 57.9258 125.873 58.1719 125.873 58.4648V67.9922C125.873 68.2734 125.773 68.5195 125.574 68.7305C125.375 68.9297 125.129 69.0293 124.836 69.0293H121.443C121.15 69.0293 120.904 68.9297 120.705 68.7305C120.506 68.5195 120.406 68.2734 120.406 67.9922V58.4648C120.406 58.1719 120.506 57.9258 120.705 57.7266C120.904 57.5273 121.15 57.4277 121.443 57.4277H124.836ZM120.951 70.0664C121.057 69.8086 121.227 69.6152 121.461 69.4863C121.625 69.3926 121.795 69.3457 121.971 69.3457C122.053 69.3457 122.129 69.3516 122.199 69.3633C122.457 69.4219 122.65 69.5625 122.779 69.7852C122.85 69.9141 122.885 70.043 122.885 70.1719C122.885 70.2656 122.861 70.3652 122.814 70.4707C122.475 71.3496 122.059 72.1406 121.566 72.8438C121.426 73.0547 121.221 73.1777 120.951 73.2129C120.904 73.2246 120.857 73.2305 120.811 73.2305C120.6 73.2305 120.406 73.1719 120.23 73.0547C120.031 72.9141 119.908 72.7207 119.861 72.4746C119.85 72.4277 119.844 72.375 119.844 72.3164C119.844 72.1406 119.902 71.9766 120.02 71.8242C120.383 71.2969 120.693 70.7109 120.951 70.0664ZM123.799 70.5234C123.74 70.4062 123.711 70.2832 123.711 70.1543C123.711 70.0723 123.723 69.9902 123.746 69.9082C123.816 69.6973 123.957 69.5449 124.168 69.4512C124.297 69.3926 124.426 69.3633 124.555 69.3633C124.66 69.3633 124.766 69.3809 124.871 69.416C125.105 69.4863 125.287 69.6328 125.416 69.8555C125.686 70.3125 125.926 70.752 126.137 71.1738C126.195 71.3027 126.225 71.4316 126.225 71.5605C126.225 71.666 126.207 71.7773 126.172 71.8945C126.078 72.1289 125.914 72.3047 125.68 72.4219C125.562 72.4805 125.445 72.5098 125.328 72.5098C125.223 72.5098 125.117 72.4863 125.012 72.4395C124.789 72.3574 124.625 72.1992 124.52 71.9648C124.32 71.5078 124.08 71.0273 123.799 70.5234ZM132.184 69.0469C132.184 69.1289 132.225 69.1699 132.307 69.1699H133.449C133.531 69.1699 133.572 69.1289 133.572 69.0469V68.4141C133.572 68.3203 133.531 68.2734 133.449 68.2734H132.307C132.225 68.2734 132.184 68.3203 132.184 68.4141V69.0469ZM129.09 68.2734C128.996 68.2734 128.949 68.3203 128.949 68.4141V69.0469C128.949 69.1289 128.996 69.1699 129.09 69.1699H130.197C130.279 69.1699 130.32 69.1289 130.32 69.0469V68.4141C130.32 68.3203 130.279 68.2734 130.197 68.2734H129.09ZM130.32 66.2695C130.32 66.1758 130.279 66.1289 130.197 66.1289H129.09C128.996 66.1289 128.949 66.1758 128.949 66.2695V66.832C128.949 66.9141 128.996 66.9551 129.09 66.9551H130.197C130.279 66.9551 130.32 66.9141 130.32 66.832V66.2695ZM133.572 66.2695C133.572 66.1758 133.531 66.1289 133.449 66.1289H132.307C132.225 66.1289 132.184 66.1758 132.184 66.2695V66.832C132.184 66.9141 132.225 66.9551 132.307 66.9551H133.449C133.531 66.9551 133.572 66.9141 133.572 66.832V66.2695ZM130.461 61.7344C130.367 61.7344 130.32 61.7812 130.32 61.875V62.3145C130.32 62.3965 130.367 62.4375 130.461 62.4375H132.025C132.119 62.4375 132.166 62.3965 132.166 62.3145V61.875C132.166 61.7812 132.119 61.7344 132.025 61.7344H130.461ZM130.461 59.6602C130.367 59.6602 130.32 59.7012 130.32 59.7832V60.1875C130.32 60.2695 130.367 60.3105 130.461 60.3105H132.025C132.119 60.3105 132.166 60.2695 132.166 60.1875V59.7832C132.166 59.7012 132.119 59.6602 132.025 59.6602H130.461ZM135.611 69.1699C135.822 69.1699 135.998 69.2461 136.139 69.3984C136.279 69.5391 136.35 69.709 136.35 69.9082V69.9258C136.35 70.1367 136.279 70.3125 136.139 70.4531C135.998 70.5938 135.822 70.6641 135.611 70.6641C135.553 70.6641 135.523 70.6992 135.523 70.7695V71.6133C135.523 72.082 135.465 72.4395 135.348 72.6855C135.242 72.9316 135.043 73.125 134.75 73.2656C134.387 73.4414 133.818 73.541 133.045 73.5645C133.033 73.5645 133.021 73.5645 133.01 73.5645C132.764 73.5645 132.547 73.4824 132.359 73.3184C132.148 73.1543 132.002 72.9434 131.92 72.6855C131.896 72.6152 131.885 72.5449 131.885 72.4746C131.885 72.3574 131.92 72.2402 131.99 72.123C132.107 71.959 132.271 71.877 132.482 71.877H133.273C133.391 71.877 133.467 71.8594 133.502 71.8242C133.549 71.7773 133.572 71.7012 133.572 71.5957V70.8047C133.572 70.7109 133.531 70.6641 133.449 70.6641H129.09C128.996 70.6641 128.949 70.7109 128.949 70.8047V72.6504C128.949 72.9082 128.855 73.125 128.668 73.3008C128.492 73.4883 128.275 73.582 128.018 73.582C127.76 73.582 127.537 73.4883 127.35 73.3008C127.174 73.125 127.086 72.9082 127.086 72.6504V70.7695C127.086 70.6992 127.051 70.6641 126.98 70.6641H126.857C126.646 70.6641 126.465 70.5938 126.312 70.4531C126.172 70.3008 126.102 70.125 126.102 69.9258C126.102 69.7148 126.172 69.5391 126.312 69.3984C126.465 69.2461 126.646 69.1699 126.857 69.1699H126.98C127.051 69.1699 127.086 69.1348 127.086 69.0645V65.6719C127.086 65.3906 127.186 65.1504 127.385 64.9512C127.584 64.7402 127.83 64.6348 128.123 64.6348H130.197C130.279 64.6348 130.32 64.5938 130.32 64.5117V64.0898C130.32 63.9961 130.279 63.9492 130.197 63.9492H126.963C126.752 63.9492 126.57 63.8789 126.418 63.7383C126.277 63.5859 126.207 63.4043 126.207 63.1934C126.207 62.9824 126.277 62.8066 126.418 62.666C126.57 62.5137 126.752 62.4375 126.963 62.4375H128.316C128.41 62.4375 128.457 62.3965 128.457 62.3145V61.875C128.457 61.7812 128.41 61.7344 128.316 61.7344H127.631C127.432 61.7344 127.262 61.6699 127.121 61.541C126.992 61.4004 126.928 61.2305 126.928 61.0312C126.928 60.832 126.992 60.6621 127.121 60.5215C127.262 60.3809 127.432 60.3105 127.631 60.3105H128.316C128.41 60.3105 128.457 60.2695 128.457 60.1875V59.7832C128.457 59.7012 128.41 59.6602 128.316 59.6602H127.262C127.051 59.6602 126.869 59.584 126.717 59.4316C126.576 59.2793 126.506 59.1035 126.506 58.9043C126.506 58.6934 126.576 58.5176 126.717 58.377C126.869 58.2246 127.051 58.1484 127.262 58.1484H128.316C128.41 58.1484 128.457 58.1016 128.457 58.0078V57.709C128.457 57.4512 128.545 57.2344 128.721 57.0586C128.908 56.8711 129.131 56.7773 129.389 56.7773C129.646 56.7773 129.863 56.8711 130.039 57.0586C130.227 57.2344 130.32 57.4512 130.32 57.709V58.0078C130.32 58.1016 130.367 58.1484 130.461 58.1484H132.025C132.119 58.1484 132.166 58.1016 132.166 58.0078V57.7266C132.166 57.457 132.254 57.2344 132.43 57.0586C132.617 56.8711 132.84 56.7773 133.098 56.7773C133.367 56.7773 133.596 56.8711 133.783 57.0586C133.971 57.2344 134.064 57.457 134.064 57.7266V58.0078C134.064 58.1016 134.111 58.1484 134.205 58.1484H135.26C135.459 58.1484 135.635 58.2246 135.787 58.377C135.939 58.5176 136.016 58.6934 136.016 58.9043C136.016 59.1035 135.939 59.2793 135.787 59.4316C135.635 59.584 135.459 59.6602 135.26 59.6602H134.205C134.111 59.6602 134.064 59.7012 134.064 59.7832V60.1875C134.064 60.2695 134.111 60.3105 134.205 60.3105H135.031C135.23 60.3105 135.395 60.3809 135.523 60.5215C135.664 60.6621 135.734 60.832 135.734 61.0312C135.734 61.2305 135.664 61.4004 135.523 61.541C135.395 61.6699 135.23 61.7344 135.031 61.7344H134.205C134.111 61.7344 134.064 61.7812 134.064 61.875V62.3145C134.064 62.3965 134.111 62.4375 134.205 62.4375H135.576C135.787 62.4375 135.963 62.5137 136.104 62.666C136.256 62.8066 136.332 62.9824 136.332 63.1934C136.332 63.4043 136.256 63.5859 136.104 63.7383C135.963 63.8789 135.787 63.9492 135.576 63.9492H132.307C132.225 63.9492 132.184 63.9961 132.184 64.0898V64.5117C132.184 64.5938 132.225 64.6348 132.307 64.6348H134.486C134.768 64.6348 135.008 64.7402 135.207 64.9512C135.418 65.1504 135.523 65.3906 135.523 65.6719V69.082C135.523 69.1406 135.553 69.1699 135.611 69.1699ZM143.434 64.9512C143.516 64.9277 143.598 64.916 143.68 64.916C143.832 64.916 143.984 64.9629 144.137 65.0566C144.348 65.1973 144.471 65.3906 144.506 65.6367C144.518 65.6953 144.523 65.7539 144.523 65.8125C144.523 66.0117 144.465 66.2051 144.348 66.3926C144.195 66.6152 143.99 66.7676 143.732 66.8496C143.24 67.0137 142.941 67.1074 142.836 67.1309C142.754 67.166 142.713 67.2246 142.713 67.3066V72.5977C142.713 72.8672 142.613 73.0957 142.414 73.2832C142.227 73.4824 141.998 73.582 141.729 73.582C141.459 73.582 141.225 73.4824 141.025 73.2832C140.838 73.0957 140.744 72.8672 140.744 72.5977V67.9043C140.744 67.8691 140.732 67.8457 140.709 67.834C140.686 67.8105 140.656 67.7988 140.621 67.7988C140.457 67.8574 140.199 67.9395 139.848 68.0449C139.496 68.1504 139.227 68.2266 139.039 68.2734C138.945 68.3086 138.852 68.3262 138.758 68.3262C138.582 68.3262 138.418 68.2793 138.266 68.1855C138.02 68.0449 137.861 67.834 137.791 67.5527L137.773 67.5352C137.75 67.4414 137.738 67.3535 137.738 67.2715C137.738 67.0957 137.791 66.9258 137.896 66.7617C138.049 66.5156 138.26 66.3574 138.529 66.2871C139.127 66.1465 139.824 65.9648 140.621 65.7422C140.703 65.7188 140.744 65.6602 140.744 65.5664V62.4023C140.744 62.3086 140.697 62.2617 140.604 62.2617H139.672C139.578 62.2617 139.525 62.3027 139.514 62.3848C139.396 62.877 139.279 63.3164 139.162 63.7031C139.104 63.9258 138.963 64.0664 138.74 64.125C138.658 64.1602 138.582 64.1777 138.512 64.1777C138.383 64.1777 138.254 64.1367 138.125 64.0547C137.914 63.9141 137.762 63.7207 137.668 63.4746C137.621 63.334 137.598 63.1934 137.598 63.0527C137.598 62.9473 137.615 62.8359 137.65 62.7188C137.932 61.6875 138.148 60.3398 138.301 58.6758C138.324 58.4414 138.436 58.248 138.635 58.0957C138.787 57.9785 138.951 57.9199 139.127 57.9199C139.174 57.9199 139.227 57.9258 139.285 57.9375C139.531 57.9727 139.73 58.0957 139.883 58.3066C140.012 58.4707 140.076 58.6582 140.076 58.8691C140.076 58.9043 140.076 58.9453 140.076 58.9922C140.029 59.3438 139.977 59.7129 139.918 60.0996C139.906 60.1816 139.941 60.2227 140.023 60.2227H140.604C140.697 60.2227 140.744 60.1816 140.744 60.0996V57.7617C140.744 57.4805 140.838 57.2461 141.025 57.0586C141.225 56.8711 141.459 56.7773 141.729 56.7773C141.998 56.7773 142.227 56.8711 142.414 57.0586C142.613 57.2461 142.713 57.4805 142.713 57.7617V60.0996C142.713 60.1816 142.754 60.2227 142.836 60.2227H143.188C143.469 60.2227 143.709 60.3223 143.908 60.5215C144.107 60.7207 144.207 60.9609 144.207 61.2422C144.207 61.5234 144.107 61.7637 143.908 61.9629C143.709 62.1621 143.469 62.2617 143.188 62.2617H142.836C142.754 62.2617 142.713 62.3086 142.713 62.4023V65.0215C142.713 65.0566 142.725 65.0859 142.748 65.1094C142.771 65.1328 142.801 65.1387 142.836 65.127L143.434 64.9512ZM147.6 59.4141C147.6 59.4492 147.605 59.4785 147.617 59.502C147.641 59.5254 147.67 59.5371 147.705 59.5371H153.295C153.576 59.5371 153.816 59.6426 154.016 59.8535C154.203 60.041 154.297 60.2695 154.297 60.5391C154.297 61.207 154.209 62.918 154.033 65.6719C153.951 67.0312 153.857 68.1855 153.752 69.1348C153.646 70.0723 153.529 70.793 153.4 71.2969C153.271 71.7891 153.119 72.1523 152.943 72.3867C152.744 72.668 152.539 72.873 152.328 73.002C152.117 73.1426 151.854 73.248 151.537 73.3184C151.291 73.3652 150.963 73.3887 150.553 73.3887C150.541 73.3887 150.535 73.3887 150.535 73.3887C150.254 73.3887 150.002 73.2891 149.779 73.0898C149.557 72.8906 149.404 72.6445 149.322 72.3516C149.311 72.3164 149.299 72.2812 149.287 72.2461C149.275 72.1758 149.27 72.1055 149.27 72.0352C149.27 71.8828 149.311 71.7422 149.393 71.6133C149.533 71.4375 149.715 71.3496 149.938 71.3496C149.938 71.3496 149.943 71.3496 149.955 71.3496C150.107 71.3496 150.295 71.3496 150.518 71.3496C150.775 71.3496 150.998 71.2383 151.186 71.0156C151.42 70.7109 151.619 69.8438 151.783 68.4141C151.947 66.9727 152.1 64.6934 152.24 61.5762C152.24 61.541 152.223 61.5234 152.188 61.5234C152.164 61.5234 152.152 61.5352 152.152 61.5586C151.719 63.7734 151.092 65.8418 150.271 67.7637C149.451 69.6738 148.455 71.2266 147.283 72.4219C147.084 72.6328 146.832 72.7383 146.527 72.7383C146.223 72.7383 145.953 72.6504 145.719 72.4746C145.695 72.4629 145.678 72.4512 145.666 72.4395C145.443 72.2871 145.332 72.0703 145.332 71.7891C145.332 71.5781 145.414 71.3965 145.578 71.2441C146.715 70.2012 147.682 68.8418 148.479 67.166C149.275 65.4902 149.891 63.6504 150.324 61.6465C150.348 61.5645 150.312 61.5234 150.219 61.5234H149.639C149.557 61.5234 149.504 61.5645 149.48 61.6465C149.117 62.959 148.637 64.2422 148.039 65.4961C147.453 66.75 146.803 67.8047 146.088 68.6602C145.912 68.8711 145.678 68.9824 145.385 68.9941C145.361 68.9941 145.344 68.9941 145.332 68.9941C145.062 68.9941 144.822 68.9121 144.611 68.748C144.389 68.584 144.277 68.3613 144.277 68.0801C144.277 67.8574 144.354 67.6699 144.506 67.5176C145.174 66.8145 145.783 65.9473 146.334 64.916C146.885 63.8848 147.336 62.7949 147.688 61.6465C147.699 61.623 147.693 61.5996 147.67 61.5762C147.658 61.541 147.635 61.5234 147.6 61.5234H146.949C146.855 61.5234 146.791 61.5645 146.756 61.6465C146.393 62.502 145.988 63.2637 145.543 63.9316C145.402 64.1543 145.191 64.2832 144.91 64.3184C144.875 64.3184 144.834 64.3184 144.787 64.3184C144.564 64.3184 144.359 64.248 144.172 64.1074C143.961 63.9551 143.832 63.7441 143.785 63.4746C143.785 63.416 143.785 63.3633 143.785 63.3164C143.785 63.1055 143.844 62.918 143.961 62.7539C144.852 61.4648 145.555 59.7891 146.07 57.7266C146.141 57.457 146.287 57.2461 146.51 57.0938C146.686 56.9766 146.873 56.918 147.072 56.918C147.131 56.918 147.195 56.9238 147.266 56.9355C147.523 56.9824 147.729 57.1172 147.881 57.3398C147.986 57.5039 148.039 57.668 148.039 57.832C148.039 57.9141 148.027 57.9961 148.004 58.0781C147.887 58.4883 147.752 58.9336 147.6 59.4141ZM159.693 66.0234C159.693 66.1055 159.734 66.1465 159.816 66.1465H162.699C162.781 66.1465 162.822 66.1055 162.822 66.0234V65.1797C162.822 65.0859 162.781 65.0391 162.699 65.0391H159.816C159.734 65.0391 159.693 65.0859 159.693 65.1797V66.0234ZM159.816 62.3496C159.734 62.3496 159.693 62.3906 159.693 62.4727V63.3164C159.693 63.3984 159.734 63.4395 159.816 63.4395H162.699C162.781 63.4395 162.822 63.3984 162.822 63.3164V62.4727C162.822 62.3906 162.781 62.3496 162.699 62.3496H159.816ZM168.184 62.4727C168.184 62.3906 168.137 62.3496 168.043 62.3496H165.16C165.066 62.3496 165.02 62.3906 165.02 62.4727V63.3164C165.02 63.3984 165.066 63.4395 165.16 63.4395H168.043C168.137 63.4395 168.184 63.3984 168.184 63.3164V62.4727ZM168.043 66.1465C168.137 66.1465 168.184 66.1055 168.184 66.0234V65.1797C168.184 65.0859 168.137 65.0391 168.043 65.0391H165.16C165.066 65.0391 165.02 65.0859 165.02 65.1797V66.0234C165.02 66.1055 165.066 66.1465 165.16 66.1465H168.043ZM171.242 68.8184C171.512 68.8184 171.74 68.9121 171.928 69.0996C172.115 69.2871 172.209 69.5156 172.209 69.7852C172.209 70.0547 172.115 70.2832 171.928 70.4707C171.74 70.6582 171.512 70.752 171.242 70.752H165.16C165.066 70.752 165.02 70.793 165.02 70.875V72.1406C165.02 72.4219 164.914 72.6621 164.703 72.8613C164.504 73.0723 164.264 73.1777 163.982 73.1777H163.859C163.578 73.1777 163.332 73.0723 163.121 72.8613C162.922 72.6621 162.822 72.4219 162.822 72.1406V70.875C162.822 70.793 162.781 70.752 162.699 70.752H156.828C156.559 70.752 156.33 70.6582 156.143 70.4707C155.955 70.2832 155.861 70.0547 155.861 69.7852C155.861 69.5156 155.955 69.2871 156.143 69.0996C156.33 68.9121 156.559 68.8184 156.828 68.8184H162.699C162.781 68.8184 162.822 68.7773 162.822 68.6953V67.9922C162.822 67.8984 162.781 67.8516 162.699 67.8516H158.691C158.41 67.8516 158.164 67.752 157.953 67.5527C157.754 67.3418 157.654 67.0957 157.654 66.8145V61.6641C157.654 61.3828 157.754 61.1426 157.953 60.9434C158.164 60.7324 158.41 60.627 158.691 60.627H162.699C162.781 60.627 162.822 60.5859 162.822 60.5039V59.9062C162.822 59.8125 162.781 59.7656 162.699 59.7656H157.268C156.998 59.7656 156.77 59.6719 156.582 59.4844C156.395 59.2969 156.301 59.0684 156.301 58.7988C156.301 58.5293 156.395 58.3008 156.582 58.1133C156.77 57.9258 156.998 57.832 157.268 57.832H162.699C162.781 57.832 162.822 57.7852 162.822 57.6914V57.4102C162.822 57.1289 162.922 56.8887 163.121 56.6895C163.332 56.4785 163.578 56.373 163.859 56.373H163.982C164.264 56.373 164.504 56.4785 164.703 56.6895C164.914 56.8887 165.02 57.1289 165.02 57.4102V57.6914C165.02 57.7852 165.066 57.832 165.16 57.832H170.715C170.984 57.832 171.213 57.9258 171.4 58.1133C171.588 58.3008 171.682 58.5293 171.682 58.7988C171.682 59.0684 171.588 59.2969 171.4 59.4844C171.213 59.6719 170.984 59.7656 170.715 59.7656H165.16C165.066 59.7656 165.02 59.8125 165.02 59.9062V60.5039C165.02 60.5859 165.066 60.627 165.16 60.627H169.291C169.572 60.627 169.812 60.7324 170.012 60.9434C170.223 61.1426 170.328 61.3828 170.328 61.6641V66.8145C170.328 67.0957 170.223 67.3418 170.012 67.5527C169.812 67.752 169.572 67.8516 169.291 67.8516H165.16C165.066 67.8516 165.02 67.8984 165.02 67.9922V68.6953C165.02 68.7773 165.066 68.8184 165.16 68.8184H171.242ZM176.621 60.5039C176.539 60.5039 176.498 60.5449 176.498 60.627V61.7168C176.498 61.998 176.393 62.2441 176.182 62.4551C175.982 62.6543 175.742 62.7539 175.461 62.7539H175.355C175.062 62.7539 174.816 62.6543 174.617 62.4551C174.418 62.2441 174.318 61.998 174.318 61.7168V59.5371C174.318 59.2559 174.418 59.0156 174.617 58.8164C174.816 58.6055 175.062 58.5 175.355 58.5H180.682C180.764 58.5 180.805 58.4531 180.805 58.3594V57.8145C180.805 57.5215 180.904 57.2754 181.104 57.0762C181.314 56.877 181.561 56.7773 181.842 56.7773H182.035C182.328 56.7773 182.574 56.877 182.773 57.0762C182.973 57.2754 183.072 57.5215 183.072 57.8145V58.3594C183.072 58.4531 183.119 58.5 183.213 58.5H188.645C188.938 58.5 189.184 58.6055 189.383 58.8164C189.582 59.0156 189.682 59.2559 189.682 59.5371V61.7168C189.682 61.998 189.582 62.2441 189.383 62.4551C189.184 62.6543 188.938 62.7539 188.645 62.7539H188.434C188.152 62.7539 187.906 62.6543 187.695 62.4551C187.496 62.2441 187.396 61.998 187.396 61.7168V60.627C187.396 60.5449 187.355 60.5039 187.273 60.5039H176.621ZM186.307 62.1211C186.494 62.3086 186.588 62.5371 186.588 62.8066C186.588 63.0762 186.494 63.3047 186.307 63.4922C186.119 63.6797 185.891 63.7734 185.621 63.7734H178.291C178.021 63.7734 177.793 63.6797 177.605 63.4922C177.418 63.3047 177.324 63.0762 177.324 62.8066C177.324 62.5371 177.418 62.3086 177.605 62.1211C177.793 61.9219 178.021 61.8223 178.291 61.8223H185.621C185.891 61.8223 186.119 61.9219 186.307 62.1211ZM185.85 71.3496H187.643C187.877 71.3496 188.041 71.2793 188.135 71.1387C188.229 70.9863 188.293 70.6816 188.328 70.2246C188.352 69.9902 188.463 69.8203 188.662 69.7148C188.779 69.6445 188.902 69.6094 189.031 69.6094C189.125 69.6094 189.219 69.627 189.312 69.6621C189.324 69.6738 189.33 69.6797 189.33 69.6797C189.623 69.7969 189.852 69.9785 190.016 70.2246C190.145 70.4238 190.209 70.6289 190.209 70.8398C190.209 70.8984 190.203 70.9629 190.191 71.0332C190.051 71.9004 189.805 72.4922 189.453 72.8086C189.113 73.1367 188.574 73.3008 187.836 73.3008H185.533C184.502 73.3008 183.811 73.1191 183.459 72.7559C183.107 72.4043 182.932 71.7305 182.932 70.7344V67.2188C182.932 67.125 182.891 67.0781 182.809 67.0781H180.734C180.641 67.0781 180.588 67.125 180.576 67.2188C180.482 67.9805 180.348 68.6426 180.172 69.2051C179.996 69.7559 179.732 70.3008 179.381 70.8398C179.029 71.3672 178.549 71.8359 177.939 72.2461C177.342 72.6562 176.604 73.0078 175.725 73.3008C175.607 73.3477 175.49 73.3711 175.373 73.3711C175.209 73.3711 175.051 73.3359 174.898 73.2656C174.629 73.1367 174.412 72.9434 174.248 72.6855C174.213 72.627 174.172 72.5684 174.125 72.5098C174.043 72.3691 174.002 72.2285 174.002 72.0879C174.002 71.9473 174.043 71.8184 174.125 71.7012C174.219 71.5723 174.342 71.4844 174.494 71.4375C175.197 71.2266 175.783 70.9863 176.252 70.7168C176.732 70.4355 177.102 70.1074 177.359 69.7324C177.629 69.3574 177.822 68.9824 177.939 68.6074C178.068 68.2207 178.168 67.7578 178.238 67.2188C178.25 67.125 178.215 67.0781 178.133 67.0781H175.004C174.723 67.0781 174.482 66.9844 174.283 66.7969C174.084 66.5977 173.984 66.3574 173.984 66.0762C173.984 65.7949 174.084 65.5605 174.283 65.373C174.482 65.1738 174.723 65.0742 175.004 65.0742H189.014C189.295 65.0742 189.535 65.1738 189.734 65.373C189.934 65.5605 190.033 65.7949 190.033 66.0762C190.033 66.3574 189.934 66.5977 189.734 66.7969C189.535 66.9844 189.295 67.0781 189.014 67.0781H185.234C185.141 67.0781 185.094 67.125 185.094 67.2188V70.6992C185.094 70.9922 185.135 71.1738 185.217 71.2441C185.311 71.3145 185.521 71.3496 185.85 71.3496ZM204.816 63.4746C204.91 63.2051 205.086 63 205.344 62.8594C205.508 62.7539 205.684 62.7012 205.871 62.7012C205.953 62.7012 206.041 62.7129 206.135 62.7363L206.258 62.7715C206.539 62.8418 206.744 63 206.873 63.2461C206.955 63.3867 206.996 63.5332 206.996 63.6855C206.996 63.791 206.979 63.8965 206.943 64.002C206.252 65.8887 205.355 67.582 204.254 69.082C204.207 69.1523 204.195 69.2285 204.219 69.3105C204.758 70.5996 205.303 71.2441 205.854 71.2441C206.193 71.2441 206.422 70.541 206.539 69.1348C206.551 68.9238 206.65 68.7773 206.838 68.6953C206.92 68.6602 206.996 68.6426 207.066 68.6426C207.184 68.6426 207.289 68.6777 207.383 68.748C207.418 68.7715 207.453 68.7949 207.488 68.8184C207.758 68.9941 207.969 69.2168 208.121 69.4863C208.238 69.6855 208.297 69.8965 208.297 70.1191C208.297 70.1895 208.291 70.2598 208.279 70.3301C208.092 71.5254 207.799 72.3398 207.4 72.7734C207.014 73.207 206.439 73.4238 205.678 73.4238C204.518 73.4238 203.521 72.668 202.689 71.1562C202.643 71.0859 202.59 71.0801 202.531 71.1387C201.887 71.7949 201.195 72.3867 200.457 72.9141C200.27 73.043 200.07 73.1074 199.859 73.1074C199.789 73.1074 199.725 73.1016 199.666 73.0898C199.373 73.043 199.133 72.9082 198.945 72.6855C198.887 72.6152 198.822 72.5449 198.752 72.4746C198.611 72.3105 198.541 72.1289 198.541 71.9297C198.541 71.8828 198.541 71.8418 198.541 71.8066C198.576 71.5488 198.705 71.3438 198.928 71.1914C199.924 70.5469 200.82 69.7852 201.617 68.9062C201.676 68.8477 201.693 68.7773 201.67 68.6953C201.131 66.832 200.732 64.5 200.475 61.6992C200.475 61.6055 200.428 61.5586 200.334 61.5586H195.377C195.295 61.5586 195.254 61.6055 195.254 61.6992V63.3516C195.254 63.4453 195.295 63.4922 195.377 63.4922H198.664C198.945 63.4922 199.186 63.5918 199.385 63.791C199.572 63.9902 199.666 64.2305 199.666 64.5117C199.666 66.0938 199.613 67.4531 199.508 68.5898C199.438 69.4102 199.303 69.9492 199.104 70.207C198.822 70.5938 198.406 70.834 197.855 70.9277C197.621 70.9629 197.275 70.9805 196.818 70.9805C196.537 70.9805 196.285 70.8867 196.062 70.6992C195.84 70.5 195.688 70.2539 195.605 69.9609C195.605 69.9492 195.6 69.9375 195.588 69.9258C195.576 69.8555 195.57 69.7852 195.57 69.7148C195.57 69.5742 195.611 69.4395 195.693 69.3105C195.822 69.123 195.992 69.0293 196.203 69.0293C196.215 69.0293 196.221 69.0293 196.221 69.0293C196.432 69.041 196.607 69.0469 196.748 69.0469C196.994 69.0469 197.17 68.9766 197.275 68.8359C197.428 68.6133 197.533 67.5293 197.592 65.584C197.592 65.4902 197.545 65.4434 197.451 65.4434H195.377C195.295 65.4434 195.248 65.4902 195.236 65.584C195.143 68.7129 194.674 71.1445 193.83 72.8789C193.725 73.1133 193.537 73.248 193.268 73.2832C193.221 73.2949 193.174 73.3008 193.127 73.3008C192.916 73.3008 192.729 73.2246 192.564 73.0723C192.494 73.0254 192.424 72.9727 192.354 72.9141C192.131 72.7383 191.984 72.5098 191.914 72.2285C191.891 72.123 191.879 72.0176 191.879 71.9121C191.879 71.748 191.914 71.5781 191.984 71.4023C192.664 69.8906 193.004 67.6523 193.004 64.6875V60.4688C193.004 60.1875 193.104 59.9473 193.303 59.748C193.502 59.5371 193.748 59.4316 194.041 59.4316H200.211C200.293 59.4316 200.334 59.3906 200.334 59.3086C200.299 58.4414 200.281 57.9316 200.281 57.7793C200.281 57.5098 200.381 57.2754 200.58 57.0762C200.779 56.877 201.02 56.7773 201.301 56.7773H201.477C201.77 56.7773 202.016 56.877 202.215 57.0762C202.414 57.2754 202.514 57.5215 202.514 57.8145C202.514 58.2715 202.525 58.7695 202.549 59.3086C202.549 59.3906 202.596 59.4316 202.689 59.4316H205.186C205.197 59.4316 205.209 59.4258 205.221 59.4141C205.232 59.3906 205.227 59.373 205.203 59.3613C204.828 59.0566 204.354 58.7227 203.779 58.3594C203.58 58.2305 203.469 58.0488 203.445 57.8145C203.445 57.791 203.445 57.7617 203.445 57.7266C203.445 57.5391 203.516 57.375 203.656 57.2344C203.844 57.0352 204.072 56.918 204.342 56.8828C204.4 56.8711 204.459 56.8652 204.518 56.8652C204.729 56.8652 204.922 56.918 205.098 57.0234C205.578 57.3047 206.023 57.5859 206.434 57.8672C206.68 58.043 206.803 58.2891 206.803 58.6055C206.803 58.8633 206.709 59.0859 206.521 59.2734L206.469 59.3438C206.445 59.3555 206.439 59.373 206.451 59.3965C206.463 59.4199 206.48 59.4316 206.504 59.4316H207.207C207.488 59.4316 207.729 59.5371 207.928 59.748C208.139 59.9473 208.244 60.1875 208.244 60.4688V60.5215C208.244 60.8145 208.139 61.0605 207.928 61.2598C207.729 61.459 207.488 61.5586 207.207 61.5586H202.812C202.73 61.5586 202.689 61.6055 202.689 61.6992C202.854 63.375 203.082 64.9277 203.375 66.3574C203.375 66.3809 203.387 66.3984 203.41 66.4102C203.434 66.4102 203.451 66.3984 203.463 66.375C204.002 65.4492 204.453 64.4824 204.816 63.4746ZM210.178 68.168C210.213 67.9336 210.324 67.7402 210.512 67.5879C210.664 67.4824 210.828 67.4297 211.004 67.4297C211.051 67.4297 211.104 67.4297 211.162 67.4297C211.408 67.4766 211.607 67.5996 211.76 67.7988C211.877 67.9629 211.936 68.1445 211.936 68.3438C211.936 68.3906 211.936 68.4375 211.936 68.4844C211.771 69.5977 211.555 70.5645 211.285 71.3848C211.215 71.6074 211.062 71.7598 210.828 71.8418C210.734 71.877 210.635 71.8945 210.529 71.8945C210.4 71.8945 210.277 71.8652 210.16 71.8066C209.938 71.7012 209.779 71.5371 209.686 71.3145C209.639 71.1855 209.615 71.0566 209.615 70.9277C209.615 70.8223 209.627 70.7168 209.65 70.6113C209.873 69.9434 210.049 69.1289 210.178 68.168ZM214.59 68.4492C214.555 68.3555 214.537 68.2617 214.537 68.168C214.537 68.0625 214.566 67.9512 214.625 67.834C214.719 67.6348 214.871 67.5 215.082 67.4297C215.176 67.3945 215.27 67.377 215.363 67.377C215.492 67.377 215.621 67.4062 215.75 67.4648C215.961 67.5586 216.113 67.7168 216.207 67.9395C216.43 68.5137 216.629 69.0996 216.805 69.6973C216.84 69.791 216.857 69.8789 216.857 69.9609C216.857 70.1133 216.816 70.2598 216.734 70.4004C216.617 70.623 216.441 70.7754 216.207 70.8574C216.113 70.8926 216.025 70.9102 215.943 70.9102C215.814 70.9102 215.686 70.875 215.557 70.8047C215.357 70.6875 215.229 70.5117 215.17 70.2773C215.018 69.7148 214.824 69.1055 214.59 68.4492ZM214.555 64.3008C214.496 64.1719 214.438 64.0488 214.379 63.9316C214.32 63.8145 214.291 63.6973 214.291 63.5801C214.291 63.4863 214.303 63.3984 214.326 63.3164C214.396 63.1055 214.537 62.9531 214.748 62.8594C214.865 62.8125 214.988 62.7891 215.117 62.7891C215.211 62.7891 215.305 62.8008 215.398 62.8242C215.621 62.9062 215.791 63.0469 215.908 63.2461C216.33 64.043 216.664 64.7871 216.91 65.4785C216.945 65.584 216.963 65.6895 216.963 65.7949C216.963 65.9238 216.934 66.0527 216.875 66.1816C216.758 66.416 216.582 66.5918 216.348 66.709C216.242 66.7559 216.137 66.7793 216.031 66.7793C215.926 66.7793 215.82 66.7559 215.715 66.709C215.516 66.6035 215.381 66.4395 215.311 66.2168C215.287 66.1465 215.24 66.1172 215.17 66.1289L214.379 66.1816C214.297 66.1816 214.256 66.2285 214.256 66.3223V72.6328C214.256 72.9023 214.162 73.125 213.975 73.3008C213.799 73.4883 213.576 73.582 213.307 73.582C213.049 73.582 212.826 73.4883 212.639 73.3008C212.451 73.125 212.357 72.9023 212.357 72.6328V66.4629C212.357 66.3691 212.316 66.3281 212.234 66.3398C211.824 66.3633 211.291 66.3984 210.635 66.4453C210.611 66.4453 210.588 66.4453 210.564 66.4453C210.33 66.4453 210.125 66.3691 209.949 66.2168C209.75 66.0527 209.639 65.8359 209.615 65.5664C209.615 65.543 209.615 65.5137 209.615 65.4785C209.615 65.2676 209.686 65.0742 209.826 64.8984C209.99 64.7109 210.201 64.6113 210.459 64.5996L210.723 64.582C210.805 64.582 210.875 64.5469 210.934 64.4766C211.191 64.1484 211.414 63.8496 211.602 63.5801C211.66 63.5098 211.66 63.4336 211.602 63.3516C211.238 62.8359 210.758 62.2617 210.16 61.6289C209.973 61.4414 209.867 61.2188 209.844 60.9609C209.844 60.9258 209.844 60.8906 209.844 60.8555C209.844 60.6445 209.902 60.4453 210.02 60.2578L210.248 59.9414C210.318 59.8359 210.418 59.7773 210.547 59.7656C210.688 59.7422 210.811 59.7715 210.916 59.8535C210.951 59.8887 210.975 59.8887 210.986 59.8535C211.326 59.1738 211.643 58.459 211.936 57.709C212.041 57.4512 212.217 57.2637 212.463 57.1465C212.604 57.0762 212.744 57.041 212.885 57.041C213.002 57.041 213.113 57.0645 213.219 57.1113C213.465 57.1934 213.641 57.3574 213.746 57.6035C213.781 57.709 213.799 57.8145 213.799 57.9199C213.799 58.0605 213.764 58.1953 213.693 58.3242C213.096 59.4492 212.598 60.3281 212.199 60.9609C212.152 61.0312 212.158 61.1016 212.217 61.1719C212.357 61.3359 212.51 61.5176 212.674 61.7168C212.732 61.7871 212.785 61.7871 212.832 61.7168C213.242 61.084 213.623 60.4336 213.975 59.7656C214.104 59.5195 214.297 59.3438 214.555 59.2383C214.684 59.1914 214.807 59.168 214.924 59.168C215.064 59.168 215.199 59.1973 215.328 59.2559C215.562 59.3496 215.721 59.5195 215.803 59.7656C215.826 59.8594 215.838 59.9473 215.838 60.0293C215.838 60.1816 215.791 60.3281 215.697 60.4688C214.689 61.9922 213.752 63.3047 212.885 64.4062C212.861 64.4297 212.855 64.4531 212.867 64.4766C212.879 64.5 212.902 64.5117 212.938 64.5117L214.484 64.4238C214.52 64.4238 214.543 64.4121 214.555 64.3887C214.566 64.3652 214.566 64.3359 214.555 64.3008ZM223.502 68.4844C223.502 68.3906 223.461 68.3438 223.379 68.3438H219.617C219.535 68.3438 219.494 68.3906 219.494 68.4844V70.752C219.494 70.8457 219.535 70.8926 219.617 70.8926H223.379C223.461 70.8926 223.502 70.8457 223.502 70.752V68.4844ZM218.51 73.5469C218.24 73.5469 218.006 73.4473 217.807 73.248C217.619 73.0605 217.525 72.832 217.525 72.5625V67.4824C217.525 67.1895 217.625 66.9434 217.824 66.7441C218.035 66.5449 218.281 66.4453 218.562 66.4453H224.539C224.832 66.4453 225.078 66.5449 225.277 66.7441C225.477 66.9434 225.576 67.1895 225.576 67.4824V72.4922C225.576 72.7852 225.477 73.0312 225.277 73.2305C225.078 73.4297 224.832 73.5293 224.539 73.5293H224.17C223.982 73.5293 223.824 73.4648 223.695 73.3359C223.566 73.207 223.502 73.0547 223.502 72.8789C223.502 72.8203 223.479 72.791 223.432 72.791H219.582C219.523 72.791 219.494 72.8203 219.494 72.8789C219.494 73.0664 219.43 73.2246 219.301 73.3535C219.172 73.4824 219.014 73.5469 218.826 73.5469H218.51ZM226.104 59.3613C226.291 59.5488 226.385 59.7773 226.385 60.0469C226.385 60.3164 226.291 60.5449 226.104 60.7324C225.916 60.9199 225.688 61.0137 225.418 61.0137H222.57C222.488 61.0137 222.447 61.0605 222.447 61.1543V62.8418C222.447 62.9355 222.488 62.9824 222.57 62.9824H224.996C225.266 62.9824 225.494 63.0762 225.682 63.2637C225.881 63.4512 225.98 63.6797 225.98 63.9492C225.98 64.2188 225.881 64.4531 225.682 64.6523C225.494 64.8398 225.266 64.9336 224.996 64.9336H217.947C217.678 64.9336 217.449 64.8398 217.262 64.6523C217.074 64.4531 216.98 64.2188 216.98 63.9492C216.98 63.6797 217.074 63.4512 217.262 63.2637C217.449 63.0762 217.678 62.9824 217.947 62.9824H220.145C220.227 62.9824 220.268 62.9355 220.268 62.8418V61.1543C220.268 61.0605 220.227 61.0137 220.145 61.0137H217.438C217.168 61.0137 216.939 60.9199 216.752 60.7324C216.564 60.5449 216.471 60.3164 216.471 60.0469C216.471 59.7773 216.564 59.5488 216.752 59.3613C216.939 59.1738 217.168 59.0801 217.438 59.0801H220.145C220.227 59.0801 220.268 59.0332 220.268 58.9395V57.7969C220.268 57.5039 220.367 57.2578 220.566 57.0586C220.777 56.8594 221.023 56.7598 221.305 56.7598H221.41C221.691 56.7598 221.932 56.8594 222.131 57.0586C222.342 57.2578 222.447 57.5039 222.447 57.7969V58.9395C222.447 59.0332 222.488 59.0801 222.57 59.0801H225.418C225.688 59.0801 225.916 59.1738 226.104 59.3613ZM232.08 67.7109C232.08 67.793 232.121 67.834 232.203 67.834H232.766C232.848 67.834 232.889 67.7754 232.889 67.6582V62.0684C232.889 61.9863 232.842 61.9453 232.748 61.9453H232.203C232.121 61.9453 232.08 61.9863 232.08 62.0684V67.7109ZM233.381 60.0645C233.662 60.0645 233.902 60.1699 234.102 60.3809C234.312 60.5801 234.418 60.8203 234.418 61.1016V67.7109C234.418 68.5078 234.266 69.0176 233.961 69.2402C233.832 69.3457 233.703 69.4277 233.574 69.4863C233.48 69.5215 233.387 69.5391 233.293 69.5391C233.129 69.5391 232.977 69.4805 232.836 69.3633C232.602 69.1758 232.443 68.9238 232.361 68.6074C232.291 68.373 232.215 68.168 232.133 67.9922C232.121 67.9805 232.109 67.9805 232.098 67.9922C232.086 67.9922 232.08 67.998 232.08 68.0098V72.668C232.08 72.9141 231.992 73.125 231.816 73.3008C231.641 73.4766 231.424 73.5645 231.166 73.5645C230.92 73.5645 230.709 73.4766 230.533 73.3008C230.357 73.125 230.27 72.9141 230.27 72.668V62.0684C230.27 61.9863 230.229 61.9453 230.146 61.9453H229.637C229.543 61.9453 229.496 61.9863 229.496 62.0684V69.0645C229.496 69.2754 229.42 69.457 229.268 69.6094C229.115 69.7617 228.928 69.8379 228.705 69.8379C228.494 69.8379 228.312 69.7617 228.16 69.6094C228.008 69.457 227.932 69.2754 227.932 69.0645V61.1016C227.932 60.8203 228.031 60.5801 228.23 60.3809C228.441 60.1699 228.688 60.0645 228.969 60.0645H230.146C230.229 60.0645 230.27 60.0234 230.27 59.9414V57.6738C230.27 57.4277 230.357 57.2168 230.533 57.041C230.709 56.8652 230.92 56.7773 231.166 56.7773C231.424 56.7773 231.641 56.8652 231.816 57.041C231.992 57.2168 232.08 57.4277 232.08 57.6738V59.9414C232.08 60.0234 232.121 60.0645 232.203 60.0645H233.381ZM237.705 66.5332C237.611 66.5332 237.564 66.5742 237.564 66.6562V70.8574C237.564 70.9512 237.611 70.9922 237.705 70.9805C237.857 70.957 238.619 70.8398 239.99 70.6289C240.072 70.6172 240.096 70.5762 240.061 70.5059C239.475 69.4629 239.012 68.1797 238.672 66.6562C238.66 66.5742 238.607 66.5332 238.514 66.5332H237.705ZM242.363 67.3418C242.562 67.1543 242.791 67.0605 243.049 67.0605C243.061 67.0605 243.072 67.0605 243.084 67.0605C243.33 67.0605 243.547 67.1426 243.734 67.3066C243.922 67.4707 244.016 67.6816 244.016 67.9395C244.016 68.1973 243.916 68.4023 243.717 68.5547C243.225 68.9531 242.697 69.3398 242.135 69.7148C242.064 69.7617 242.059 69.8203 242.117 69.8906C242.586 70.4531 243.119 70.9102 243.717 71.2617C243.939 71.3906 244.074 71.5781 244.121 71.8242C244.145 71.8945 244.156 71.959 244.156 72.0176C244.156 72.1934 244.098 72.3516 243.98 72.4922C243.934 72.5625 243.887 72.627 243.84 72.6855C243.664 72.9316 243.441 73.0957 243.172 73.1777C243.078 73.2012 242.99 73.2129 242.908 73.2129C242.732 73.2129 242.557 73.1602 242.381 73.0547C241.549 72.4922 240.852 71.7598 240.289 70.8574C240.277 70.834 240.26 70.8281 240.236 70.8398C240.225 70.8398 240.219 70.8516 240.219 70.875L240.254 71.332C240.277 71.625 240.195 71.8887 240.008 72.123C239.82 72.3574 239.586 72.498 239.305 72.5449C238.473 72.6973 237.166 72.9258 235.385 73.2305C235.326 73.2305 235.268 73.2305 235.209 73.2305C235.01 73.2305 234.822 73.1777 234.646 73.0723C234.424 72.92 234.283 72.709 234.225 72.4395C234.201 72.3691 234.189 72.2988 234.189 72.2285C234.189 72.0645 234.242 71.9004 234.348 71.7363C234.5 71.5254 234.705 71.4023 234.963 71.3672C235.127 71.3438 235.291 71.3203 235.455 71.2969C235.537 71.2852 235.578 71.2383 235.578 71.1562V66.6387C235.578 66.5684 235.543 66.5332 235.473 66.5332C235.227 66.5332 235.016 66.4512 234.84 66.2871C234.676 66.1113 234.594 65.9004 234.594 65.6543C234.594 65.4082 234.676 65.2031 234.84 65.0391C235.016 64.8633 235.227 64.7754 235.473 64.7754H235.49C235.561 64.7754 235.596 64.7402 235.596 64.6699V58.4473C235.596 58.1543 235.695 57.9082 235.895 57.709C236.105 57.5098 236.352 57.4102 236.633 57.4102H242.75C242.984 57.4102 243.184 57.4922 243.348 57.6562C243.523 57.8203 243.611 58.0254 243.611 58.2715C243.611 58.5059 243.523 58.7109 243.348 58.8867C243.184 59.0508 242.984 59.1328 242.75 59.1328H237.723C237.629 59.1328 237.582 59.1738 237.582 59.2559V59.8184C237.582 59.9121 237.629 59.959 237.723 59.959H242.258C242.469 59.959 242.65 60.0352 242.803 60.1875C242.955 60.3398 243.031 60.5273 243.031 60.75C243.031 60.9609 242.955 61.1426 242.803 61.2949C242.65 61.4473 242.469 61.5234 242.258 61.5234H237.723C237.629 61.5234 237.582 61.5703 237.582 61.6641V62.2266C237.582 62.3086 237.629 62.3496 237.723 62.3496H242.24C242.463 62.3496 242.65 62.4316 242.803 62.5957C242.955 62.748 243.031 62.9355 243.031 63.1582C243.031 63.3691 242.955 63.5508 242.803 63.7031C242.65 63.8555 242.463 63.9316 242.24 63.9316H237.723C237.629 63.9316 237.582 63.9785 237.582 64.0723V64.6523C237.582 64.7344 237.629 64.7754 237.723 64.7754H243.365C243.611 64.7754 243.816 64.8633 243.98 65.0391C244.156 65.2031 244.244 65.4082 244.244 65.6543C244.244 65.9004 244.156 66.1113 243.98 66.2871C243.816 66.4512 243.611 66.5332 243.365 66.5332H240.588C240.564 66.5332 240.541 66.5449 240.518 66.5684C240.494 66.5918 240.488 66.6211 240.5 66.6562C240.652 67.1953 240.852 67.7168 241.098 68.2207C241.133 68.3027 241.186 68.3203 241.256 68.2734C241.643 67.9688 242.012 67.6582 242.363 67.3418Z" fill="#4A5364"/>
<path d="M180.892 248.622L177 217H234.371C235.117 217 235.6 217.787 235.262 218.453L219.778 248.953C219.607 249.288 219.263 249.5 218.886 249.5H181.884C181.379 249.5 180.954 249.123 180.892 248.622Z" fill="#FFFDFA"/>
<path d="M170 211.5L177 217M177 217L180.892 248.622C180.954 249.123 181.379 249.5 181.884 249.5H218.886C219.263 249.5 219.607 249.288 219.778 248.953L235.262 218.453C235.6 217.787 235.117 217 234.371 217H177Z" stroke="#4A5364" stroke-width="4"/>
<path d="M182.5 248L179.5 219.5H233L218.5 248H182.5Z" fill="#FFFDFA"/>
<path d="M65.4863 272.487L262.479 270.743" stroke="#4A5364" stroke-width="3" stroke-linecap="round"/>
<path d="M84.5 179.5H103.5" stroke="#4A5364" stroke-width="3" stroke-linecap="round"/>
<path d="M78.5 188.5H97.5" stroke="#4A5364" stroke-width="3" stroke-linecap="round"/>
<path d="M84.5 197.5H103.5" stroke="#4A5364" stroke-width="3" stroke-linecap="round"/>
<path d="M131.155 183.1C132.83 179.063 136.385 178.5 138 178.5C140.8 178.5 143.693 180.888 144.5 182.5C144.867 183.235 145.235 184.511 145.404 185.732C145.517 186.552 145.757 187.363 146.236 188.039L154 199C154.755 200.26 155.419 200.924 155.889 201.244C156.257 201.493 156.714 201.574 157.133 201.719L169.473 205.974C170.478 206.32 171.462 206.879 171.799 207.887C172.134 208.887 172.227 210.303 171.5 212C170.3 214.8 165.666 214.167 163.5 213.5L152.5 210C150.1 209.6 148.166 207.5 147.5 206.5L143.5 200.5L141.5 216C141.1 218.4 141.666 219.667 142 220L154 236.5C156.4 238.9 157 241.167 157 242L162 265C162.166 266.167 161.6 268.8 158 270C154.4 271.2 151.833 268.167 151 266.5L146.405 246.282C146.137 245.106 145.637 243.996 144.932 243.017L137 232L132.819 248.259C132.607 249.081 132.267 249.864 131.809 250.579L124.5 262L119 269.5C117 271.5 115.2 271.5 112 269.5C108.8 267.5 110 263.667 111 262L121.797 245.1C122.262 244.372 122.607 243.572 122.816 242.733L128 222C128.166 221.5 128 220.5 127.5 219.5C126.75 218 126.833 214.833 127 213L130.942 183.926C130.98 183.643 131.046 183.363 131.155 183.1Z" fill="#4A5364"/>
</g>
<path d="M312 1.25H16C7.8538 1.25 1.25 7.8538 1.25 16V400C1.25 408.146 7.8538 414.75 16 414.75H312C320.146 414.75 326.75 408.146 326.75 400V16C326.75 7.8538 320.146 1.25 312 1.25Z" stroke="#F4E6C0" stroke-width="2.5"/>
<circle cx="146" cy="166" r="12" fill="#4A5364"/>
<circle cx="183" cy="260" r="5" stroke="#4A5364" stroke-width="4"/>
<circle cx="218" cy="260" r="5" stroke="#4A5364" stroke-width="4"/>
</g>
<defs>
<clipPath id="clip0_2645_13688">
<rect width="328" height="416" fill="white"/>
</clipPath>
</defs>
</svg>
