<svg width="280" height="360" viewBox="0 0 280 360" fill="none" xmlns="http://www.w3.org/2000/svg">
<g clip-path="url(#clip0_1970_14597)">
<mask id="mask0_1970_14597" style="mask-type:luminance" maskUnits="userSpaceOnUse" x="0" y="0" width="280" height="360">
<path d="M266.341 0H13.6585C6.11513 0 0 6.21407 0 13.8795V346.12C0 353.786 6.11513 360 13.6585 360H266.341C273.885 360 280 353.786 280 346.12V13.8795C280 6.21407 273.885 0 266.341 0Z" fill="white"/>
</mask>
<g mask="url(#mask0_1970_14597)">
<path d="M266.341 0H13.6585C6.11513 0 0 6.21407 0 13.8795V346.12C0 353.786 6.11513 360 13.6585 360H266.341C273.885 360 280 353.786 280 346.12V13.8795C280 6.21407 273.885 0 266.341 0Z" fill="#FFF9EB"/>
<path d="M193.354 128.819H86.6463C68.9665 128.819 54.6342 143.383 54.6342 161.349V421.59C54.6342 439.557 68.9665 454.121 86.6463 454.121H193.354C211.034 454.121 225.366 439.557 225.366 421.59V161.349C225.366 143.383 211.034 128.819 193.354 128.819Z" fill="#FFFDFA" stroke="#4A5364" stroke-width="3" stroke-linecap="round" stroke-linejoin="round"/>
<path d="M86.6464 128.819H102.652C104.068 128.819 105.424 129.2 106.425 129.878C107.426 130.556 107.988 131.476 107.988 132.434C107.988 134.351 109.112 136.189 111.113 137.545C113.114 138.901 115.829 139.663 118.659 139.663H161.341C164.171 139.663 166.886 138.901 168.887 137.545C170.888 136.189 172.012 134.351 172.012 132.434C172.012 131.476 172.574 130.556 173.575 129.878C174.576 129.2 175.932 128.819 177.348 128.819H193.354" fill="#4A5364"/>
<path d="M86.6464 128.819H102.652C104.068 128.819 105.424 129.2 106.425 129.878C107.426 130.556 107.988 131.476 107.988 132.434C107.988 134.351 109.112 136.189 111.113 137.545C113.114 138.901 115.829 139.663 118.659 139.663H161.341C164.171 139.663 166.886 138.901 168.887 137.545C170.888 136.189 172.012 134.351 172.012 132.434C172.012 131.476 172.574 130.556 173.575 129.878C174.576 129.2 175.932 128.819 177.348 128.819H193.354" stroke="#4A5364" stroke-width="2" stroke-linecap="round" stroke-linejoin="round"/>
<path d="M86.6464 128.819H102.652C104.068 128.819 105.424 129.2 106.425 129.878C107.426 130.556 107.988 131.476 107.988 132.434C107.988 134.351 109.112 136.189 111.113 137.545C113.114 138.901 115.829 139.663 118.659 139.663H161.341C164.171 139.663 166.886 138.901 168.887 137.545C170.888 136.189 172.012 134.351 172.012 132.434C172.012 131.476 172.574 130.556 173.575 129.878C174.576 129.2 175.932 128.819 177.348 128.819H193.354" fill="#4A5364"/>
<path d="M86.6464 128.819H102.652C104.068 128.819 105.424 129.2 106.425 129.878C107.426 130.556 107.988 131.476 107.988 132.434C107.988 134.351 109.112 136.189 111.113 137.545C113.114 138.901 115.829 139.663 118.659 139.663H161.341C164.171 139.663 166.886 138.901 168.887 137.545C170.888 136.189 172.012 134.351 172.012 132.434C172.012 131.476 172.574 130.556 173.575 129.878C174.576 129.2 175.932 128.819 177.348 128.819H193.354" stroke="#4A5364" stroke-width="2" stroke-linecap="round" stroke-linejoin="round"/>
<path d="M170.732 226.843H111.829C99.807 226.843 90.061 236.747 90.061 248.964C90.061 261.181 99.807 271.084 111.829 271.084H170.732C182.754 271.084 192.5 261.181 192.5 248.964C192.5 236.747 182.754 226.843 170.732 226.843Z" fill="white"/>
<path d="M121.226 249.703C121.493 249.703 121.721 249.804 121.91 250.007C122.11 250.199 122.21 250.431 122.21 250.702V250.719C122.21 250.99 122.11 251.227 121.91 251.431C121.721 251.623 121.493 251.719 121.226 251.719H115.59C115.513 251.719 115.474 251.758 115.474 251.837V254.549C115.474 255.158 115.385 255.621 115.207 255.937C115.041 256.254 114.757 256.491 114.357 256.649C113.823 256.853 112.889 256.965 111.556 256.988C111.545 256.988 111.539 256.988 111.539 256.988C111.262 256.988 111.011 256.903 110.789 256.734C110.556 256.553 110.383 256.322 110.272 256.039C110.239 255.971 110.206 255.898 110.172 255.819C110.139 255.728 110.122 255.644 110.122 255.564C110.122 255.452 110.15 255.344 110.206 255.243C110.317 255.062 110.478 254.972 110.689 254.972C110.689 254.972 110.695 254.972 110.706 254.972C111.328 254.983 112.028 254.988 112.807 254.988C113.006 254.977 113.146 254.938 113.223 254.87C113.312 254.802 113.356 254.684 113.356 254.514V251.837C113.356 251.758 113.312 251.719 113.223 251.719H107.587C107.321 251.719 107.087 251.623 106.887 251.431C106.699 251.227 106.604 250.99 106.604 250.719V250.702C106.604 250.431 106.699 250.199 106.887 250.007C107.087 249.804 107.321 249.703 107.587 249.703H113.223C113.312 249.703 113.356 249.657 113.356 249.567V247.805C113.356 247.715 113.312 247.67 113.223 247.67H108.754C108.477 247.67 108.243 247.573 108.054 247.382C107.866 247.189 107.771 246.958 107.771 246.687C107.771 246.404 107.866 246.167 108.054 245.975C108.243 245.783 108.477 245.687 108.754 245.687H113.223C113.312 245.687 113.356 245.648 113.356 245.569V243.807C113.356 243.717 113.312 243.677 113.223 243.688C111.933 243.789 110.539 243.88 109.038 243.959C109.016 243.959 108.999 243.959 108.988 243.959C108.754 243.959 108.538 243.88 108.338 243.722C108.138 243.553 107.999 243.332 107.921 243.061C107.899 242.982 107.888 242.909 107.888 242.84C107.888 242.705 107.926 242.575 108.005 242.451C108.127 242.259 108.299 242.158 108.521 242.146C112.557 241.943 115.796 241.57 118.242 241.028C118.364 240.994 118.486 240.977 118.608 240.977C118.775 240.977 118.942 241.006 119.108 241.062C119.398 241.152 119.642 241.31 119.843 241.537L120.009 241.756C120.109 241.87 120.159 241.994 120.159 242.129C120.159 242.197 120.148 242.264 120.126 242.332C120.059 242.547 119.92 242.683 119.709 242.739C118.542 242.988 117.169 243.208 115.59 243.4C115.513 243.411 115.474 243.456 115.474 243.535V245.569C115.474 245.648 115.513 245.687 115.59 245.687H120.226C120.503 245.687 120.737 245.783 120.926 245.975C121.115 246.167 121.209 246.404 121.209 246.687C121.209 246.958 121.115 247.189 120.926 247.382C120.737 247.573 120.503 247.67 120.226 247.67H115.59C115.513 247.67 115.474 247.715 115.474 247.805V249.567C115.474 249.657 115.513 249.703 115.59 249.703H121.226ZM125.248 243.553C125.248 243.281 125.342 243.049 125.531 242.858C125.731 242.655 125.965 242.552 126.231 242.552H138.352C138.62 242.552 138.848 242.655 139.036 242.858C139.225 243.049 139.32 243.281 139.32 243.553V243.62C139.198 247.845 139.058 250.799 138.903 252.481C138.748 254.153 138.486 255.231 138.119 255.717C137.863 256.079 137.597 256.333 137.319 256.48C137.052 256.637 136.713 256.751 136.302 256.819C135.957 256.875 135.49 256.903 134.901 256.903C134.735 256.903 134.551 256.898 134.351 256.886C134.084 256.886 133.845 256.785 133.634 256.581C133.434 256.389 133.289 256.152 133.201 255.87C133.167 255.734 133.129 255.604 133.084 255.48C133.05 255.401 133.034 255.322 133.034 255.243C133.034 255.13 133.067 255.022 133.134 254.921C133.234 254.74 133.378 254.65 133.568 254.65C133.579 254.65 133.59 254.65 133.601 254.65C134.101 254.673 134.684 254.684 135.352 254.684C135.696 254.684 135.963 254.582 136.152 254.379C136.419 254.097 136.625 253.204 136.769 251.702C136.913 250.223 137.03 247.912 137.119 244.772C137.119 244.693 137.074 244.653 136.986 244.653H132.35C132.273 244.653 132.233 244.693 132.233 244.772C132.189 245.596 132.128 246.336 132.051 246.992C131.972 247.681 131.845 248.443 131.667 249.279C131.5 250.115 131.261 250.877 130.949 251.566C130.65 252.255 130.278 252.945 129.833 253.633C129.388 254.322 128.826 254.966 128.149 255.564C127.715 255.949 127.232 256.31 126.698 256.649C126.543 256.74 126.382 256.785 126.215 256.785C126.125 256.785 126.043 256.774 125.965 256.751C125.709 256.683 125.487 256.536 125.297 256.31C125.209 256.198 125.114 256.09 125.014 255.989C124.881 255.841 124.814 255.672 124.814 255.48C124.814 255.446 124.814 255.413 124.814 255.379C124.848 255.152 124.959 254.983 125.148 254.87C125.603 254.599 126.02 254.311 126.398 254.006C127.01 253.498 127.509 252.95 127.899 252.363C128.299 251.764 128.633 251.171 128.899 250.583C129.166 249.996 129.366 249.341 129.499 248.619C129.643 247.884 129.744 247.229 129.8 246.653C129.855 246.111 129.899 245.49 129.933 244.79C129.933 244.698 129.894 244.653 129.816 244.653H126.231C125.965 244.653 125.731 244.558 125.531 244.365C125.342 244.162 125.248 243.925 125.248 243.654V243.553ZM155.462 247.382C155.551 247.382 155.596 247.342 155.596 247.263V246.415C155.596 246.336 155.551 246.297 155.462 246.297H151.911C151.822 246.297 151.778 246.336 151.778 246.415V247.263C151.778 247.342 151.822 247.382 151.911 247.382H155.462ZM155.462 249.906C155.551 249.906 155.596 249.861 155.596 249.771V248.923C155.596 248.833 155.551 248.788 155.462 248.788H151.911C151.822 248.788 151.778 248.833 151.778 248.923V249.771C151.778 249.861 151.822 249.906 151.911 249.906H155.462ZM155.462 252.43C155.551 252.43 155.596 252.391 155.596 252.311V251.447C155.596 251.368 155.551 251.329 155.462 251.329H151.911C151.822 251.329 151.778 251.368 151.778 251.447V252.311C151.778 252.391 151.822 252.43 151.911 252.43H155.462ZM148.893 251.075C148.827 251.29 148.694 251.447 148.493 251.549C148.36 251.629 148.221 251.668 148.076 251.668C148.01 251.668 147.948 251.663 147.893 251.651C147.693 251.606 147.537 251.499 147.426 251.329C147.359 251.205 147.326 251.08 147.326 250.956C147.326 250.889 147.337 250.821 147.359 250.753C147.459 250.369 147.57 249.928 147.693 249.431C147.704 249.352 147.671 249.313 147.593 249.313H146.826C146.737 249.313 146.693 249.352 146.693 249.431V255.192C146.693 255.701 146.637 256.09 146.526 256.361C146.414 256.644 146.209 256.864 145.909 257.022C145.52 257.202 144.97 257.316 144.258 257.361C144.236 257.361 144.22 257.361 144.209 257.361C143.952 257.361 143.724 257.276 143.525 257.107C143.302 256.925 143.147 256.694 143.058 256.412C143.047 256.378 143.036 256.349 143.024 256.327C143.002 256.248 142.991 256.169 142.991 256.09C142.991 255.955 143.03 255.825 143.108 255.701C143.241 255.508 143.419 255.413 143.642 255.413H144.425C144.547 255.413 144.625 255.395 144.658 255.361C144.703 255.316 144.725 255.249 144.725 255.158V249.431C144.725 249.352 144.687 249.313 144.608 249.313H143.091C142.847 249.313 142.635 249.222 142.458 249.042C142.291 248.861 142.208 248.646 142.208 248.398C142.208 248.149 142.291 247.935 142.458 247.754C142.635 247.573 142.847 247.483 143.091 247.483H145.725C145.748 247.483 145.759 247.477 145.759 247.466C145.77 247.443 145.77 247.427 145.759 247.415C145.136 246.952 144.43 246.5 143.642 246.06C143.452 245.958 143.33 245.8 143.275 245.585C143.264 245.529 143.258 245.472 143.258 245.416C143.258 245.269 143.308 245.128 143.408 244.993C143.552 244.801 143.742 244.676 143.975 244.62C144.063 244.597 144.147 244.586 144.225 244.586C144.369 244.586 144.514 244.62 144.658 244.687C144.891 244.812 145.13 244.941 145.375 245.078C145.442 245.111 145.504 245.1 145.559 245.043C145.925 244.626 146.242 244.219 146.509 243.823C146.52 243.801 146.52 243.778 146.509 243.756C146.498 243.733 146.476 243.722 146.443 243.722H143.491C143.246 243.722 143.036 243.637 142.858 243.468C142.691 243.287 142.608 243.078 142.608 242.84C142.608 242.592 142.691 242.383 142.858 242.214C143.036 242.033 143.246 241.943 143.491 241.943H147.793C147.826 241.943 147.854 241.937 147.877 241.926C147.954 241.904 148.026 241.892 148.093 241.892C148.227 241.892 148.349 241.931 148.46 242.01L149.277 242.637C149.299 242.649 149.316 242.649 149.327 242.637C149.349 242.626 149.36 242.609 149.36 242.586C149.36 242.395 149.427 242.231 149.56 242.095C149.693 241.96 149.861 241.892 150.06 241.892H157.18C157.413 241.892 157.614 241.976 157.78 242.146C157.946 242.316 158.03 242.519 158.03 242.756C158.03 242.993 157.946 243.197 157.78 243.366C157.614 243.535 157.413 243.62 157.18 243.62H154.946C154.857 243.62 154.802 243.659 154.779 243.739C154.69 244.055 154.596 244.36 154.495 244.653C154.484 244.676 154.49 244.705 154.512 244.738C154.534 244.761 154.557 244.772 154.579 244.772H156.546C156.824 244.772 157.058 244.869 157.246 245.06C157.435 245.252 157.53 245.49 157.53 245.772V252.939C157.53 253.221 157.435 253.458 157.246 253.65C157.058 253.843 156.824 253.938 156.546 253.938H150.928C150.649 253.938 150.416 253.843 150.227 253.65C150.038 253.458 149.943 253.221 149.943 252.939V245.772C149.943 245.49 150.038 245.252 150.227 245.06C150.416 244.869 150.649 244.772 150.928 244.772H152.311C152.389 244.772 152.434 244.727 152.445 244.637C152.489 244.422 152.533 244.129 152.578 243.756C152.589 243.665 152.556 243.62 152.478 243.62H150.027C149.838 243.62 149.677 243.558 149.544 243.434C149.421 243.298 149.36 243.134 149.36 242.943C149.36 242.931 149.349 242.925 149.327 242.925C149.316 242.925 149.31 242.925 149.31 242.925C148.61 244.066 147.849 245.072 147.026 245.942C146.959 245.998 146.965 246.054 147.043 246.111C147.176 246.201 147.304 246.297 147.426 246.399C147.582 246.523 147.671 246.681 147.693 246.873C147.704 246.907 147.709 246.941 147.709 246.975C147.709 247.133 147.66 247.28 147.559 247.415C147.548 247.427 147.548 247.443 147.559 247.466C147.57 247.477 147.582 247.483 147.593 247.483H148.293C148.315 247.483 148.338 247.483 148.36 247.483C148.526 247.449 148.688 247.449 148.843 247.483L149.227 247.568C149.394 247.613 149.522 247.709 149.61 247.856C149.699 248.003 149.721 248.161 149.677 248.331C149.399 249.38 149.138 250.295 148.893 251.075ZM150.844 254.599C151.078 254.43 151.339 254.333 151.628 254.311C151.661 254.3 151.694 254.294 151.728 254.294C151.973 254.294 152.2 254.362 152.411 254.497L152.428 254.514C152.65 254.661 152.761 254.876 152.761 255.158C152.761 255.373 152.673 255.553 152.495 255.701C151.827 256.209 151.083 256.666 150.261 257.073C150.094 257.152 149.916 257.191 149.727 257.191C149.638 257.191 149.549 257.18 149.46 257.157C149.183 257.101 148.938 256.965 148.727 256.751C148.604 256.637 148.543 256.497 148.543 256.327C148.543 256.293 148.549 256.254 148.56 256.209C148.593 255.994 148.71 255.841 148.91 255.751C149.622 255.413 150.266 255.028 150.844 254.599ZM154.796 255.649C154.629 255.514 154.545 255.339 154.545 255.125C154.545 254.898 154.634 254.723 154.813 254.599C155.046 254.441 155.296 254.362 155.562 254.362C155.84 254.362 156.091 254.441 156.313 254.599C156.857 254.972 157.33 255.322 157.73 255.649C157.908 255.796 157.997 255.989 157.997 256.225C157.997 256.508 157.891 256.729 157.68 256.886H157.663C157.463 257.033 157.246 257.107 157.013 257.107C156.969 257.107 156.93 257.101 156.896 257.089C156.618 257.067 156.374 256.959 156.163 256.768C155.774 256.428 155.318 256.056 154.796 255.649ZM160.752 252.21C160.785 251.984 160.89 251.798 161.068 251.651C161.213 251.549 161.368 251.499 161.535 251.499C161.58 251.499 161.629 251.499 161.685 251.499C161.919 251.544 162.107 251.663 162.251 251.854C162.363 252.012 162.419 252.187 162.419 252.38C162.419 252.425 162.419 252.47 162.419 252.515C162.263 253.588 162.058 254.52 161.802 255.31C161.735 255.525 161.591 255.672 161.368 255.751C161.279 255.785 161.184 255.802 161.084 255.802C160.962 255.802 160.845 255.773 160.734 255.717C160.524 255.616 160.373 255.458 160.285 255.243C160.24 255.119 160.218 254.994 160.218 254.87C160.218 254.768 160.229 254.667 160.251 254.565C160.462 253.921 160.629 253.136 160.752 252.21ZM164.936 252.481C164.903 252.391 164.886 252.3 164.886 252.21C164.886 252.108 164.914 252.001 164.969 251.888C165.058 251.696 165.203 251.566 165.403 251.499C165.492 251.465 165.581 251.447 165.67 251.447C165.792 251.447 165.914 251.476 166.037 251.532C166.236 251.623 166.381 251.775 166.47 251.99C166.681 252.543 166.871 253.108 167.037 253.684C167.07 253.775 167.087 253.859 167.087 253.938C167.087 254.085 167.048 254.226 166.97 254.362C166.859 254.576 166.692 254.723 166.47 254.802C166.381 254.837 166.298 254.853 166.22 254.853C166.098 254.853 165.975 254.819 165.853 254.752C165.664 254.639 165.542 254.469 165.486 254.243C165.342 253.701 165.158 253.114 164.936 252.481ZM170.021 244.027C170.01 244.05 170.01 244.077 170.021 244.111C170.044 244.134 170.072 244.145 170.105 244.145H174.823C175.09 244.145 175.318 244.241 175.507 244.433C175.696 244.626 175.79 244.851 175.79 245.111C175.79 247.879 175.651 250.612 175.374 253.312C175.218 254.893 174.962 255.91 174.606 256.361C174.384 256.677 174.151 256.898 173.906 257.022C173.661 257.157 173.351 257.253 172.973 257.31C172.661 257.366 172.2 257.395 171.589 257.395C171.489 257.395 171.389 257.389 171.288 257.377C171.011 257.377 170.766 257.282 170.555 257.089C170.344 256.909 170.194 256.671 170.105 256.378C170.094 256.31 170.072 256.243 170.039 256.174C170.015 256.095 170.004 256.022 170.004 255.955C170.004 255.83 170.039 255.712 170.105 255.598C170.216 255.429 170.371 255.344 170.571 255.344C170.583 255.344 170.594 255.344 170.605 255.344C171.049 255.368 171.561 255.379 172.139 255.379C172.439 255.379 172.678 255.283 172.856 255.09C173.101 254.819 173.295 254.012 173.439 252.668C173.584 251.312 173.706 249.166 173.807 246.23C173.807 246.138 173.761 246.093 173.673 246.093H169.221C169.132 246.093 169.071 246.133 169.038 246.212C168.76 246.709 168.493 247.15 168.237 247.534C168.082 247.76 167.87 247.89 167.604 247.924C167.548 247.935 167.498 247.94 167.454 247.94C167.243 247.94 167.042 247.873 166.854 247.737C166.609 247.568 166.37 247.409 166.136 247.263C166.125 247.251 166.114 247.251 166.103 247.263C166.092 247.274 166.092 247.291 166.103 247.314C166.537 248.115 166.882 248.884 167.137 249.618C167.17 249.719 167.187 249.821 167.187 249.922C167.187 250.047 167.154 250.171 167.087 250.295C166.987 250.522 166.825 250.691 166.603 250.804C166.504 250.849 166.404 250.871 166.303 250.871C166.203 250.871 166.103 250.849 166.003 250.804C165.815 250.702 165.687 250.544 165.62 250.329C165.598 250.262 165.553 250.234 165.486 250.245L164.736 250.295C164.658 250.295 164.619 250.341 164.619 250.431V256.513C164.619 256.774 164.531 256.988 164.352 257.157C164.186 257.338 163.975 257.429 163.719 257.429C163.475 257.429 163.263 257.338 163.085 257.157C162.908 256.988 162.818 256.774 162.818 256.513V250.567C162.818 250.476 162.78 250.437 162.702 250.448L161.184 250.55C161.162 250.55 161.14 250.55 161.118 250.55C160.896 250.55 160.701 250.476 160.535 250.329C160.345 250.171 160.24 249.962 160.218 249.703C160.218 249.68 160.218 249.652 160.218 249.618C160.218 249.415 160.285 249.228 160.418 249.058C160.573 248.878 160.774 248.782 161.018 248.77L161.268 248.754C161.346 248.754 161.412 248.72 161.468 248.652C161.713 248.336 161.924 248.048 162.102 247.788C162.158 247.72 162.158 247.647 162.102 247.568C161.757 247.071 161.301 246.518 160.734 245.908C160.557 245.726 160.457 245.512 160.435 245.263C160.435 245.229 160.435 245.196 160.435 245.162C160.435 244.959 160.49 244.766 160.601 244.586L160.818 244.281C160.885 244.179 160.979 244.123 161.102 244.111C161.235 244.089 161.352 244.117 161.452 244.196C161.485 244.23 161.507 244.23 161.518 244.196C161.863 243.496 162.163 242.813 162.419 242.146C162.519 241.886 162.685 241.7 162.919 241.587C163.052 241.519 163.185 241.485 163.319 241.485C163.43 241.485 163.535 241.508 163.636 241.553C163.869 241.632 164.036 241.79 164.135 242.028C164.169 242.129 164.186 242.231 164.186 242.332C164.186 242.468 164.153 242.597 164.086 242.722C163.519 243.807 163.046 244.653 162.669 245.263C162.624 245.331 162.63 245.399 162.685 245.467C162.818 245.625 162.963 245.8 163.119 245.992C163.174 246.06 163.225 246.06 163.269 245.992C163.658 245.382 164.019 244.755 164.352 244.111C164.475 243.874 164.658 243.705 164.903 243.603C165.025 243.558 165.142 243.535 165.253 243.535C165.386 243.535 165.514 243.564 165.636 243.62C165.859 243.71 166.008 243.874 166.087 244.111C166.109 244.201 166.12 244.286 166.12 244.365C166.12 244.512 166.076 244.653 165.986 244.79C165.031 246.257 164.141 247.523 163.319 248.584C163.296 248.607 163.291 248.63 163.302 248.652C163.313 248.675 163.336 248.686 163.369 248.686L164.836 248.619C164.87 248.619 164.892 248.607 164.903 248.584C164.914 248.561 164.914 248.534 164.903 248.5C164.847 248.376 164.792 248.251 164.736 248.127C164.68 248.014 164.653 247.901 164.653 247.788C164.653 247.697 164.664 247.613 164.686 247.534C164.753 247.33 164.886 247.184 165.086 247.094L165.603 246.856C165.736 246.8 165.837 246.833 165.903 246.958C165.914 246.981 165.926 246.981 165.937 246.958C166.982 245.817 167.826 244.219 168.471 242.163C168.549 241.904 168.704 241.7 168.937 241.553C169.105 241.452 169.282 241.4 169.471 241.4C169.549 241.4 169.621 241.406 169.688 241.418L169.855 241.452C170.121 241.508 170.322 241.655 170.455 241.892C170.544 242.028 170.588 242.174 170.588 242.332C170.588 242.423 170.571 242.519 170.538 242.621C170.394 243.072 170.221 243.541 170.021 244.027ZM171.522 251.143C171.589 251.29 171.622 251.436 171.622 251.584C171.622 251.696 171.605 251.814 171.572 251.939C171.472 252.199 171.294 252.396 171.038 252.532L171.022 252.549C170.889 252.617 170.755 252.651 170.622 252.651C170.522 252.651 170.422 252.633 170.322 252.599C170.077 252.498 169.904 252.329 169.805 252.091C169.482 251.357 169.071 250.589 168.571 249.787C168.482 249.64 168.437 249.494 168.437 249.346C168.437 249.267 168.449 249.195 168.471 249.127C168.527 248.889 168.66 248.714 168.871 248.601C169.027 248.522 169.187 248.482 169.355 248.482C169.444 248.482 169.532 248.494 169.621 248.516C169.877 248.573 170.077 248.714 170.221 248.94C170.766 249.731 171.199 250.465 171.522 251.143Z" fill="#4A5364"/>
<path d="M170.732 226.843H111.829C99.807 226.843 90.061 236.747 90.061 248.964C90.061 261.181 99.807 271.084 111.829 271.084H170.732C182.754 271.084 192.5 261.181 192.5 248.964C192.5 236.747 182.754 226.843 170.732 226.843Z" stroke="#4A5364" stroke-width="3"/>
<path d="M194.918 303.903V296.964C194.918 294.509 193.96 292.156 192.252 290.421C190.544 288.686 188.228 287.711 185.813 287.711H183.537C182.933 287.711 182.353 287.467 181.927 287.034C181.5 286.6 181.26 286.011 181.26 285.398V271.518C181.26 270.291 180.78 269.114 179.926 268.247C179.073 267.379 177.914 266.892 176.707 266.892C175.5 266.892 174.342 267.379 173.488 268.247C172.635 269.114 172.155 270.291 172.155 271.518V294.651L166.691 287.248C166.267 286.674 165.717 286.207 165.085 285.886C164.453 285.565 163.756 285.398 163.049 285.398H162.179C160.144 285.398 158.496 287.073 158.496 289.141C158.496 289.721 158.628 290.294 158.883 290.815L165.325 303.903" fill="white"/>
<path d="M194.918 303.903V296.964C194.918 294.509 193.96 292.156 192.252 290.421C190.544 288.686 188.228 287.711 185.813 287.711H183.537C182.933 287.711 182.353 287.467 181.927 287.034C181.5 286.6 181.26 286.011 181.26 285.398V271.518C181.26 270.291 180.78 269.114 179.926 268.247C179.073 267.379 177.914 266.892 176.707 266.892C175.5 266.892 174.342 267.379 173.488 268.247C172.635 269.114 172.155 270.291 172.155 271.518V294.651L166.691 287.248C166.267 286.674 165.717 286.207 165.085 285.886C164.453 285.565 163.756 285.398 163.049 285.398H162.179C160.144 285.398 158.496 287.073 158.496 289.141C158.496 289.721 158.628 290.294 158.883 290.815L165.325 303.903" stroke="#4A5364" stroke-width="4" stroke-linecap="round" stroke-linejoin="round"/>
<path d="M86.1666 225.431L84.7715 223.603M79.6621 234.487L77.4041 234.198M96.4173 221.285L96.7033 218.991" stroke="#4A5364" stroke-width="3" stroke-linecap="round" stroke-linejoin="round"/>
</g>
<path d="M266.341 1.08435H13.6585C6.70447 1.08435 1.06708 6.81295 1.06708 13.8795V346.121C1.06708 353.187 6.70447 358.916 13.6585 358.916H266.341C273.296 358.916 278.933 353.187 278.933 346.121V13.8795C278.933 6.81295 273.296 1.08435 266.341 1.08435Z" stroke="#F4E6C0" stroke-width="2.5"/>
<path d="M110.037 42.3965C110.131 42.3965 110.178 42.3555 110.178 42.2734V41.7812C110.178 41.6875 110.131 41.6406 110.037 41.6406H107.348C107.16 41.6406 107.002 41.5762 106.873 41.4473C106.744 41.3184 106.68 41.1602 106.68 40.9727C106.68 40.7852 106.744 40.627 106.873 40.498C107.002 40.3574 107.16 40.2871 107.348 40.2871H110.951C111.232 40.2871 111.473 40.3926 111.672 40.6035C111.883 40.8027 111.988 41.043 111.988 41.3242V42.7305C111.988 43.0117 111.883 43.2578 111.672 43.4688C111.473 43.668 111.232 43.7676 110.951 43.7676H108.895C108.812 43.7676 108.771 43.8145 108.771 43.9082V44.1367C108.771 44.3242 108.801 44.4473 108.859 44.5059C108.93 44.5645 109.076 44.5938 109.299 44.5938H110.758C110.934 44.5938 111.051 44.5527 111.109 44.4707C111.297 44.2363 111.479 44.1191 111.654 44.1191C111.713 44.1191 111.766 44.1309 111.812 44.1543C111.871 44.1777 111.93 44.1953 111.988 44.207C112.211 44.2891 112.387 44.4238 112.516 44.6113C112.586 44.7168 112.621 44.8281 112.621 44.9453C112.621 45.0273 112.604 45.1094 112.568 45.1914C112.439 45.4961 112.252 45.707 112.006 45.8242C111.76 45.9414 111.42 46 110.986 46H109.053C108.244 46 107.699 45.8711 107.418 45.6133C107.148 45.3555 107.014 44.8691 107.014 44.1543V43.4336C107.014 43.1523 107.113 42.9121 107.312 42.7129C107.523 42.502 107.77 42.3965 108.051 42.3965H110.037ZM104.131 42.3965C104.225 42.3965 104.271 42.3555 104.271 42.2734V41.7812C104.271 41.6875 104.225 41.6406 104.131 41.6406H101.547C101.359 41.6406 101.195 41.5762 101.055 41.4473C100.926 41.3184 100.861 41.1602 100.861 40.9727C100.861 40.7852 100.926 40.627 101.055 40.498C101.195 40.3574 101.359 40.2871 101.547 40.2871H105.027C105.32 40.2871 105.566 40.3926 105.766 40.6035C105.965 40.8027 106.064 41.043 106.064 41.3242V42.7305C106.064 43.0117 105.965 43.2578 105.766 43.4688C105.566 43.668 105.32 43.7676 105.027 43.7676H103.006C102.924 43.7676 102.883 43.8145 102.883 43.9082V44.1543C102.883 44.3418 102.912 44.4648 102.971 44.5234C103.041 44.5703 103.193 44.5938 103.428 44.5938H104.799C104.975 44.5938 105.098 44.5527 105.168 44.4707C105.332 44.248 105.502 44.1367 105.678 44.1367C105.736 44.1367 105.789 44.1484 105.836 44.1719C105.895 44.1953 105.959 44.2129 106.029 44.2246C106.252 44.3066 106.422 44.4414 106.539 44.6289C106.609 44.7344 106.645 44.8457 106.645 44.9629C106.645 45.0332 106.627 45.1094 106.592 45.1914C106.463 45.4961 106.275 45.707 106.029 45.8242C105.783 45.9414 105.455 46 105.045 46H103.146C102.361 46 101.822 45.8711 101.529 45.6133C101.248 45.3555 101.107 44.8691 101.107 44.1543V43.4336C101.107 43.1523 101.207 42.9121 101.406 42.7129C101.617 42.502 101.863 42.3965 102.145 42.3965H104.131ZM99.7363 42.2734C99.8652 42.4375 99.9297 42.6191 99.9297 42.8184C99.9297 42.8887 99.9238 42.9648 99.9121 43.0469C99.8418 43.3281 99.6836 43.5449 99.4375 43.6973L99.3496 43.75C99.1855 43.8555 99.0156 43.9082 98.8398 43.9082C98.7695 43.9082 98.6934 43.8965 98.6113 43.873C98.3418 43.8145 98.125 43.668 97.9609 43.4336C97.6445 42.9766 97.252 42.4902 96.7832 41.9746C96.6426 41.8105 96.5723 41.623 96.5723 41.4121C96.5723 41.377 96.5723 41.3418 96.5723 41.3066C96.5957 41.0488 96.7188 40.8496 96.9414 40.709C97.1523 40.5684 97.3809 40.498 97.627 40.498C97.6621 40.498 97.7031 40.5039 97.75 40.5156C98.0547 40.5391 98.3066 40.6562 98.5059 40.8672C98.998 41.3711 99.4082 41.8398 99.7363 42.2734ZM105.678 48.6543C105.584 48.6543 105.537 48.6953 105.537 48.7773V49.709C105.537 49.791 105.584 49.832 105.678 49.832H107.506C107.588 49.832 107.629 49.791 107.629 49.709V48.7773C107.629 48.6953 107.588 48.6543 107.506 48.6543H105.678ZM104.658 51.4141C104.635 51.4141 104.623 51.4199 104.623 51.4316C104.623 51.4434 104.629 51.4551 104.641 51.4668L105.098 51.625C105.32 51.6953 105.455 51.8418 105.502 52.0645C105.502 52.1113 105.502 52.1523 105.502 52.1875C105.502 52.3633 105.426 52.5039 105.273 52.6094C104.488 53.1602 103.586 53.6523 102.566 54.0859C102.555 54.0977 102.549 54.1152 102.549 54.1387C102.549 54.1504 102.561 54.1562 102.584 54.1562C102.971 54.25 103.416 54.3027 103.92 54.3145C104.635 54.3496 105.531 54.3672 106.609 54.3672C106.973 54.3672 107.354 54.3672 107.752 54.3672C109.346 54.3438 110.775 54.2969 112.041 54.2266C112.053 54.2266 112.064 54.2266 112.076 54.2266C112.287 54.2266 112.463 54.3145 112.604 54.4902C112.686 54.6191 112.727 54.7539 112.727 54.8945C112.727 54.9648 112.715 55.041 112.691 55.123C112.691 55.123 112.691 55.1289 112.691 55.1406C112.598 55.4453 112.434 55.6914 112.199 55.8789C111.965 56.0781 111.701 56.1836 111.408 56.1953C109.943 56.2539 108.572 56.2832 107.295 56.2832C106.088 56.2832 104.963 56.2598 103.92 56.2129C102.83 56.166 101.916 55.9961 101.178 55.7031C100.439 55.4102 99.8125 54.9414 99.2969 54.2969C99.2383 54.2266 99.1797 54.2207 99.1211 54.2793C98.6289 54.7949 98.1602 55.2637 97.7148 55.6855C97.5742 55.8262 97.4043 55.8965 97.2051 55.8965C97.1582 55.8965 97.1055 55.8906 97.0469 55.8789C96.8008 55.832 96.6191 55.6914 96.502 55.457L96.4141 55.2812C96.3203 55.1055 96.2734 54.9238 96.2734 54.7363C96.2734 54.6426 96.291 54.543 96.3262 54.4375C96.3965 54.1562 96.5488 53.9219 96.7832 53.7344C97.2402 53.3945 97.6387 53.0723 97.9785 52.7676C98.0371 52.709 98.0664 52.6328 98.0664 52.5391V48.8301C98.0664 48.748 98.0254 48.707 97.9434 48.707H97.2051C96.9355 48.707 96.7012 48.6133 96.502 48.4258C96.3145 48.2266 96.2207 47.9922 96.2207 47.7227C96.2207 47.4531 96.3145 47.2246 96.502 47.0371C96.7012 46.8379 96.9355 46.7383 97.2051 46.7383H99.0156C99.3086 46.7383 99.5547 46.8438 99.7539 47.0547C99.9531 47.2539 100.053 47.4941 100.053 47.7754V52.3633C100.053 52.457 100.076 52.5391 100.123 52.6094C100.58 53.3359 101.289 53.8281 102.25 54.0859C102.262 54.0859 102.273 54.0801 102.285 54.0684C102.297 54.0566 102.297 54.0449 102.285 54.0332C102.109 53.8691 101.91 53.6875 101.688 53.4883C101.547 53.3711 101.477 53.2305 101.477 53.0664C101.477 53.0312 101.482 52.9961 101.494 52.9609C101.529 52.75 101.646 52.6035 101.846 52.5215C102.748 52.1934 103.445 51.8535 103.938 51.502C103.961 51.4902 103.967 51.4727 103.955 51.4492C103.955 51.4258 103.943 51.4141 103.92 51.4141H101.424C101.201 51.4141 101.014 51.3379 100.861 51.1855C100.709 51.0332 100.633 50.8516 100.633 50.6406C100.633 50.418 100.709 50.2305 100.861 50.0781C101.014 49.9141 101.201 49.832 101.424 49.832H103.428C103.521 49.832 103.568 49.791 103.568 49.709V48.7773C103.568 48.6953 103.521 48.6543 103.428 48.6543H101.934C101.723 48.6543 101.541 48.5781 101.389 48.4258C101.236 48.2617 101.16 48.0742 101.16 47.8633C101.16 47.6523 101.236 47.4707 101.389 47.3184C101.541 47.1543 101.723 47.0723 101.934 47.0723H103.463C103.533 47.0723 103.568 47.0371 103.568 46.9668C103.568 46.7324 103.65 46.5332 103.814 46.3691C103.979 46.2051 104.178 46.123 104.412 46.123H104.693C104.928 46.123 105.127 46.2051 105.291 46.3691C105.455 46.5332 105.537 46.7324 105.537 46.9668C105.537 47.0371 105.578 47.0723 105.66 47.0723H107.523C107.594 47.0723 107.629 47.0371 107.629 46.9668C107.629 46.7324 107.711 46.5332 107.875 46.3691C108.039 46.2051 108.238 46.123 108.473 46.123H108.824C109.059 46.123 109.258 46.2051 109.422 46.3691C109.586 46.5332 109.668 46.7324 109.668 46.9668C109.668 47.0371 109.703 47.0723 109.773 47.0723H111.355C111.566 47.0723 111.748 47.1543 111.9 47.3184C112.053 47.4707 112.129 47.6523 112.129 47.8633C112.129 48.0742 112.053 48.2617 111.9 48.4258C111.748 48.5781 111.566 48.6543 111.355 48.6543H109.791C109.709 48.6543 109.668 48.6953 109.668 48.7773V49.709C109.668 49.791 109.709 49.832 109.791 49.832H111.9C112.123 49.832 112.311 49.9141 112.463 50.0781C112.615 50.2305 112.691 50.418 112.691 50.6406C112.691 50.8516 112.615 51.0332 112.463 51.1855C112.311 51.3379 112.123 51.4141 111.9 51.4141H109.316C109.293 51.4141 109.281 51.4258 109.281 51.4492C109.281 51.4609 109.287 51.4668 109.299 51.4668C110.225 51.9121 111.051 52.3574 111.777 52.8027C111.941 52.8965 112.023 53.0312 112.023 53.207C112.023 53.4648 111.906 53.6348 111.672 53.7168L111.443 53.8047C111.221 53.8867 111.004 53.9277 110.793 53.9277C110.395 53.9277 110.014 53.7988 109.65 53.541C109.205 53.2363 108.742 52.9492 108.262 52.6797C108.062 52.5625 107.963 52.3926 107.963 52.1699C107.963 51.9473 108.057 51.7832 108.244 51.6777L108.596 51.4844C108.607 51.4727 108.613 51.4609 108.613 51.4492C108.613 51.4258 108.602 51.4141 108.578 51.4141H104.658ZM118.58 47.5645C118.662 47.541 118.744 47.5293 118.826 47.5293C118.979 47.5293 119.125 47.5762 119.266 47.6699C119.488 47.8105 119.617 48.0098 119.652 48.2676C119.652 48.3145 119.652 48.3672 119.652 48.4258C119.652 48.6367 119.594 48.8359 119.477 49.0234C119.324 49.2695 119.119 49.4336 118.861 49.5156C118.615 49.5859 118.387 49.6504 118.176 49.709C118.094 49.7324 118.053 49.7852 118.053 49.8672V54.2969C118.053 54.8125 118 55.2109 117.895 55.4922C117.801 55.7734 117.619 56.002 117.35 56.1777C117.01 56.3887 116.518 56.5117 115.873 56.5469C115.85 56.5469 115.826 56.5469 115.803 56.5469C115.545 56.5469 115.311 56.459 115.1 56.2832C114.877 56.0957 114.725 55.8555 114.643 55.5625C114.631 55.4922 114.625 55.4219 114.625 55.3516C114.625 55.1992 114.672 55.0527 114.766 54.9121C114.918 54.7129 115.111 54.6133 115.346 54.6133C115.557 54.6133 115.709 54.6074 115.803 54.5957C115.908 54.5957 115.984 54.5781 116.031 54.543C116.078 54.4961 116.102 54.4141 116.102 54.2969V50.4473C116.102 50.4121 116.09 50.3887 116.066 50.377C116.043 50.3535 116.014 50.3477 115.979 50.3594C115.803 50.4062 115.609 50.4648 115.398 50.5352C115.305 50.5586 115.211 50.5703 115.117 50.5703C114.953 50.5703 114.789 50.5234 114.625 50.4297C114.379 50.2773 114.227 50.0664 114.168 49.7969V49.7617C114.145 49.6797 114.133 49.6035 114.133 49.5332C114.133 49.334 114.186 49.1523 114.291 48.9883C114.443 48.7422 114.66 48.584 114.941 48.5137C115.059 48.4902 115.229 48.4492 115.451 48.3906C115.686 48.332 115.861 48.291 115.979 48.2676C116.061 48.2441 116.102 48.1855 116.102 48.0918V45.2441C116.102 45.1621 116.061 45.1211 115.979 45.1211H115.205C114.936 45.1211 114.701 45.0273 114.502 44.8398C114.314 44.6406 114.221 44.4062 114.221 44.1367C114.221 43.8672 114.314 43.6387 114.502 43.4512C114.701 43.252 114.936 43.1523 115.205 43.1523H115.979C116.061 43.1523 116.102 43.1113 116.102 43.0293V40.7441C116.102 40.4746 116.195 40.2461 116.383 40.0586C116.582 39.8711 116.816 39.7773 117.086 39.7773C117.355 39.7773 117.584 39.8711 117.771 40.0586C117.959 40.2461 118.053 40.4746 118.053 40.7441V43.0293C118.053 43.1113 118.1 43.1523 118.193 43.1523H118.703C118.984 43.1523 119.219 43.252 119.406 43.4512C119.594 43.6387 119.688 43.8672 119.688 44.1367C119.688 44.4062 119.594 44.6406 119.406 44.8398C119.219 45.0273 118.984 45.1211 118.703 45.1211H118.193C118.1 45.1211 118.053 45.1621 118.053 45.2441V47.582C118.053 47.6172 118.064 47.6465 118.088 47.6699C118.123 47.6816 118.152 47.6816 118.176 47.6699L118.58 47.5645ZM126.561 50.4297C126.479 50.4062 126.455 50.3594 126.49 50.2891C126.643 49.9141 126.777 49.5508 126.895 49.1992C126.906 49.1758 126.9 49.1523 126.877 49.1289C126.865 49.0938 126.842 49.0762 126.807 49.0762H123.854C123.818 49.0762 123.789 49.0938 123.766 49.1289C123.754 49.1523 123.76 49.1758 123.783 49.1992C123.9 49.5039 123.994 49.7676 124.064 49.9902C124.088 50.084 124.076 50.1719 124.029 50.2539C123.982 50.3359 123.906 50.3887 123.801 50.4121C123.801 50.4121 123.801 50.418 123.801 50.4297H126.561ZM123.01 42.9941C123.104 42.9941 123.15 42.9473 123.15 42.8535V41.9395C123.15 41.8457 123.104 41.7988 123.01 41.7988H122.219C122.125 41.7988 122.078 41.8457 122.078 41.9395V42.8535C122.078 42.9473 122.125 42.9941 122.219 42.9941H123.01ZM124.908 41.7988C124.814 41.7988 124.768 41.8457 124.768 41.9395V42.8535C124.768 42.9473 124.814 42.9941 124.908 42.9941H125.734C125.816 42.9941 125.857 42.9473 125.857 42.8535V41.9395C125.857 41.8457 125.816 41.7988 125.734 41.7988H124.908ZM127.615 41.7988C127.533 41.7988 127.492 41.8457 127.492 41.9395V42.8535C127.492 42.9473 127.533 42.9941 127.615 42.9941H128.477C128.559 42.9941 128.6 42.9473 128.6 42.8535V41.9395C128.6 41.8457 128.559 41.7988 128.477 41.7988H127.615ZM130.604 47.7227C130.768 47.875 130.85 48.0625 130.85 48.2852C130.85 48.4961 130.768 48.6836 130.604 48.8477C130.451 49 130.27 49.0762 130.059 49.0762H129.18C129.098 49.0762 129.033 49.1172 128.986 49.1992C128.729 49.6211 128.512 49.9902 128.336 50.3066C128.324 50.3418 128.324 50.3711 128.336 50.3945C128.359 50.418 128.383 50.4297 128.406 50.4297H129.865C130.076 50.4297 130.258 50.5059 130.41 50.6582C130.574 50.8105 130.656 50.998 130.656 51.2207C130.656 51.4434 130.574 51.6309 130.41 51.7832C130.258 51.9355 130.076 52.0117 129.865 52.0117H126.367C126.285 52.0117 126.244 52.0586 126.244 52.1523V52.7148C126.244 52.7969 126.285 52.8379 126.367 52.8379H129.461C129.684 52.8379 129.865 52.9141 130.006 53.0664C130.158 53.2188 130.234 53.4004 130.234 53.6113C130.234 53.8223 130.158 54.0039 130.006 54.1562C129.865 54.3086 129.684 54.3848 129.461 54.3848H126.367C126.285 54.3848 126.244 54.4316 126.244 54.5254V55.6328C126.244 55.9141 126.145 56.1543 125.945 56.3535C125.746 56.5527 125.506 56.6523 125.225 56.6523C124.943 56.6523 124.703 56.5527 124.504 56.3535C124.305 56.1543 124.205 55.9141 124.205 55.6328V54.5254C124.205 54.4316 124.164 54.3848 124.082 54.3848H121.146C120.936 54.3848 120.754 54.3086 120.602 54.1562C120.449 54.0039 120.373 53.8223 120.373 53.6113C120.373 53.4004 120.449 53.2188 120.602 53.0664C120.754 52.9141 120.936 52.8379 121.146 52.8379H124.082C124.164 52.8379 124.205 52.7969 124.205 52.7148V52.1523C124.205 52.0586 124.164 52.0117 124.082 52.0117H120.707C120.484 52.0117 120.297 51.9355 120.145 51.7832C119.992 51.6309 119.916 51.4434 119.916 51.2207C119.916 50.998 119.992 50.8105 120.145 50.6582C120.297 50.5059 120.484 50.4297 120.707 50.4297H122.113C122.148 50.4297 122.178 50.418 122.201 50.3945C122.225 50.3594 122.23 50.3301 122.219 50.3066C122.16 50.0957 122.09 49.8672 122.008 49.6211C121.973 49.5039 121.984 49.3926 122.043 49.2871C122.102 49.1816 122.189 49.1172 122.307 49.0938C122.307 49.0938 122.307 49.0879 122.307 49.0762H120.566C120.344 49.0762 120.15 49 119.986 48.8477C119.834 48.6836 119.758 48.4961 119.758 48.2852C119.758 48.0625 119.834 47.875 119.986 47.7227C120.15 47.5586 120.344 47.4766 120.566 47.4766H124.082C124.164 47.4766 124.205 47.4297 124.205 47.3359V46.7734C124.205 46.6914 124.164 46.6504 124.082 46.6504H121.41C121.199 46.6504 121.018 46.5742 120.865 46.4219C120.725 46.2695 120.654 46.0879 120.654 45.877C120.654 45.666 120.725 45.4902 120.865 45.3496C121.018 45.1973 121.199 45.1211 121.41 45.1211H124.082C124.164 45.1211 124.205 45.0742 124.205 44.9805V44.541C124.205 44.459 124.164 44.418 124.082 44.418H121.463C121.182 44.418 120.936 44.3184 120.725 44.1191C120.525 43.9082 120.426 43.6621 120.426 43.3809V41.4297C120.426 41.1367 120.525 40.8906 120.725 40.6914C120.936 40.4922 121.182 40.3926 121.463 40.3926H129.303C129.596 40.3926 129.842 40.4922 130.041 40.6914C130.24 40.8906 130.34 41.1367 130.34 41.4297V43.3809C130.34 43.6621 130.24 43.9082 130.041 44.1191C129.842 44.3184 129.596 44.418 129.303 44.418H126.367C126.285 44.418 126.244 44.459 126.244 44.541V44.9805C126.244 45.0742 126.285 45.1211 126.367 45.1211H129.32C129.531 45.1211 129.707 45.1973 129.848 45.3496C130 45.4902 130.076 45.666 130.076 45.877C130.076 46.0879 130 46.2695 129.848 46.4219C129.707 46.5742 129.531 46.6504 129.32 46.6504H126.367C126.285 46.6504 126.244 46.6914 126.244 46.7734V47.3359C126.244 47.4297 126.285 47.4766 126.367 47.4766H130.059C130.27 47.4766 130.451 47.5586 130.604 47.7227ZM148.322 42.502C148.521 42.7012 148.621 42.9473 148.621 43.2402C148.621 43.5215 148.521 43.7617 148.322 43.9609C148.123 44.1602 147.883 44.2598 147.602 44.2598H140.043C139.949 44.2598 139.896 44.3008 139.885 44.3828C139.826 45.2969 139.773 45.9941 139.727 46.4746C139.715 46.5566 139.75 46.5977 139.832 46.5977H145.615C145.896 46.5977 146.131 46.6973 146.318 46.8965C146.494 47.084 146.582 47.3066 146.582 47.5645C146.582 49.1934 146.395 50.9805 146.02 52.9258C145.809 54.0742 145.521 54.8477 145.158 55.2461C144.701 55.7266 144.057 56.002 143.225 56.0723C142.932 56.0957 142.527 56.1074 142.012 56.1074C141.754 56.1074 141.479 56.1074 141.186 56.1074C140.904 56.0957 140.652 55.9902 140.43 55.791C140.207 55.6035 140.049 55.3574 139.955 55.0527C139.932 54.9941 139.908 54.9355 139.885 54.877C139.85 54.7949 139.832 54.7129 139.832 54.6309C139.832 54.5137 139.867 54.4023 139.938 54.2969C140.043 54.1211 140.195 54.0332 140.395 54.0332C140.406 54.0332 140.418 54.0332 140.43 54.0332C141.027 54.0684 141.689 54.0859 142.416 54.0859C142.826 54.0859 143.113 54.0098 143.277 53.8574C143.723 53.4707 144.062 51.7656 144.297 48.7422C144.309 48.6602 144.273 48.6191 144.191 48.6191H139.48C139.398 48.6191 139.346 48.6602 139.322 48.7422C139.088 49.7852 138.766 50.7285 138.355 51.5723C137.945 52.4512 137.336 53.3125 136.527 54.1562C135.941 54.7656 135.268 55.3047 134.506 55.7734C134.33 55.8672 134.16 55.9141 133.996 55.9141C133.902 55.9141 133.809 55.9023 133.715 55.8789C133.445 55.8086 133.217 55.6562 133.029 55.4219C132.971 55.3398 132.906 55.2637 132.836 55.1934C132.695 55.041 132.625 54.8652 132.625 54.666C132.625 54.6309 132.625 54.5898 132.625 54.543C132.66 54.2969 132.783 54.1152 132.994 53.998C133.322 53.7988 133.621 53.5938 133.891 53.3828C134.43 52.9727 134.881 52.5625 135.244 52.1523C135.619 51.7305 135.941 51.25 136.211 50.7109C136.48 50.1602 136.691 49.6562 136.844 49.1992C136.996 48.7422 137.125 48.1973 137.23 47.5645C137.336 46.9316 137.406 46.3867 137.441 45.9297C137.477 45.5078 137.512 44.998 137.547 44.4004C137.547 44.3066 137.5 44.2598 137.406 44.2598H133.434C133.141 44.2598 132.895 44.1602 132.695 43.9609C132.496 43.7617 132.396 43.5215 132.396 43.2402C132.396 42.9473 132.496 42.7012 132.695 42.502C132.895 42.3027 133.141 42.2031 133.434 42.2031H139.164C139.246 42.2031 139.287 42.1562 139.287 42.0625V40.3223C139.287 40.041 139.387 39.8008 139.586 39.6016C139.797 39.3906 140.043 39.2852 140.324 39.2852H140.465C140.746 39.2852 140.986 39.3906 141.186 39.6016C141.396 39.8008 141.502 40.041 141.502 40.3223V42.0625C141.502 42.1562 141.543 42.2031 141.625 42.2031H147.602C147.883 42.2031 148.123 42.3027 148.322 42.502ZM156.795 45.7363C156.713 45.7363 156.643 45.7715 156.584 45.8418L156.25 46.2637C156.238 46.2871 156.238 46.3105 156.25 46.334C156.262 46.3574 156.279 46.375 156.303 46.3867C157.322 46.5742 158.354 46.8027 159.396 47.0723C159.49 47.084 159.572 47.0723 159.643 47.0371C160.111 46.7207 160.498 46.3223 160.803 45.8418C160.826 45.8184 160.826 45.7949 160.803 45.7715C160.791 45.748 160.773 45.7363 160.75 45.7363H156.795ZM166.41 51.0098C166.586 51.1855 166.674 51.3965 166.674 51.6426C166.674 51.877 166.586 52.082 166.41 52.2578C166.246 52.4336 166.041 52.5215 165.795 52.5215H161.277C161.254 52.5215 161.242 52.5332 161.242 52.5566C161.242 52.5684 161.248 52.5742 161.26 52.5742C162.619 53.3594 164.248 53.957 166.146 54.3672C166.357 54.4141 166.498 54.543 166.568 54.7539C166.604 54.8242 166.621 54.8945 166.621 54.9648C166.621 55.0938 166.574 55.2168 166.48 55.334C166.445 55.3926 166.404 55.4453 166.357 55.4922C166.17 55.75 165.936 55.9375 165.654 56.0547C165.49 56.1133 165.326 56.1426 165.162 56.1426C165.033 56.1426 164.91 56.125 164.793 56.0898C162.801 55.4805 161.072 54.5898 159.607 53.418C159.584 53.4062 159.561 53.4062 159.537 53.418C159.514 53.4297 159.502 53.4473 159.502 53.4707V55.5098C159.502 55.8027 159.402 56.0488 159.203 56.248C159.004 56.4473 158.758 56.5469 158.465 56.5469H158.43C158.137 56.5469 157.891 56.4473 157.691 56.248C157.492 56.0488 157.393 55.8027 157.393 55.5098V53.5762C157.393 53.5527 157.375 53.5352 157.34 53.5234C157.316 53.5117 157.299 53.5176 157.287 53.541C155.881 54.6543 154.199 55.5098 152.242 56.1074C152.125 56.1426 152.002 56.1602 151.873 56.1602C151.709 56.1602 151.545 56.1309 151.381 56.0723C151.1 55.9551 150.865 55.7676 150.678 55.5098C150.654 55.4863 150.631 55.4629 150.607 55.4395C150.525 55.3223 150.484 55.1934 150.484 55.0527C150.484 54.9941 150.496 54.9238 150.52 54.8418C150.59 54.6309 150.73 54.502 150.941 54.4551C152.852 54.0098 154.457 53.3887 155.758 52.5918C155.781 52.5801 155.787 52.5684 155.775 52.5566C155.775 52.5332 155.764 52.5215 155.74 52.5215H151.258C151.023 52.5215 150.818 52.4336 150.643 52.2578C150.467 52.082 150.379 51.877 150.379 51.6426C150.379 51.3965 150.467 51.1855 150.643 51.0098C150.818 50.834 151.023 50.7461 151.258 50.7461H157.252C157.346 50.7461 157.393 50.7051 157.393 50.623V49.7617C157.393 49.6797 157.346 49.6445 157.252 49.6562C156.092 49.9141 154.592 50.1191 152.752 50.2715C152.729 50.2715 152.699 50.2715 152.664 50.2715C152.453 50.2715 152.254 50.207 152.066 50.0781C151.844 49.9258 151.68 49.7266 151.574 49.4805C151.539 49.3984 151.521 49.3105 151.521 49.2168C151.521 49.123 151.551 49.0234 151.609 48.918C151.703 48.7422 151.855 48.6484 152.066 48.6367C153.977 48.5078 155.506 48.3203 156.654 48.0742C156.678 48.0742 156.689 48.0684 156.689 48.0566C156.689 48.0332 156.678 48.0215 156.654 48.0215C156.607 48.0098 156.391 47.9629 156.004 47.8809C155.617 47.7871 155.33 47.7227 155.143 47.6875C155.107 47.6758 155.084 47.6816 155.072 47.7051C154.967 47.8223 154.844 47.8809 154.703 47.8809C154.656 47.8809 154.609 47.875 154.562 47.8633L153.824 47.6523C153.602 47.5938 153.455 47.4531 153.385 47.2305C153.361 47.1602 153.35 47.0898 153.35 47.0195C153.35 46.8672 153.402 46.7266 153.508 46.5977C153.625 46.4688 153.836 46.2109 154.141 45.8242C154.164 45.8125 154.17 45.7949 154.158 45.7715C154.146 45.748 154.129 45.7363 154.105 45.7363H151.521C151.287 45.7363 151.088 45.6543 150.924 45.4902C150.771 45.3262 150.695 45.127 150.695 44.8926C150.695 44.6582 150.771 44.459 150.924 44.2949C151.088 44.1309 151.287 44.0488 151.521 44.0488H155.389C155.471 44.0488 155.535 44.0137 155.582 43.9434C156.086 43.2637 156.361 42.8945 156.408 42.8359C156.42 42.8125 156.42 42.7891 156.408 42.7656C156.396 42.7422 156.379 42.7305 156.355 42.7305H152.91C152.828 42.7305 152.787 42.7656 152.787 42.8359C152.787 43.082 152.699 43.293 152.523 43.4688C152.359 43.6328 152.154 43.7148 151.908 43.7148H151.803C151.533 43.7148 151.299 43.6211 151.1 43.4336C150.912 43.2344 150.818 43 150.818 42.7305V41.9922C150.818 41.7109 150.918 41.4707 151.117 41.2715C151.316 41.0605 151.562 40.9551 151.855 40.9551H157.287C157.381 40.9551 157.428 40.9141 157.428 40.832V40.8145C157.428 40.5215 157.527 40.2754 157.727 40.0762C157.926 39.877 158.172 39.7773 158.465 39.7773H158.518C158.811 39.7773 159.057 39.877 159.256 40.0762C159.455 40.2754 159.555 40.5215 159.555 40.8145V40.832C159.555 40.9141 159.602 40.9551 159.695 40.9551H165.18C165.473 40.9551 165.719 41.0605 165.918 41.2715C166.117 41.4707 166.217 41.7109 166.217 41.9922V42.6777C166.217 42.959 166.117 43.2051 165.918 43.416C165.719 43.6152 165.473 43.7148 165.18 43.7148H165.039C164.793 43.7148 164.582 43.6328 164.406 43.4688C164.242 43.293 164.16 43.082 164.16 42.8359C164.16 42.7656 164.119 42.7305 164.037 42.7305H157.041C157.029 42.7305 157.023 42.7363 157.023 42.748C157.023 42.748 157.029 42.7539 157.041 42.7656L157.674 42.9414C157.885 43.0117 158.025 43.1523 158.096 43.3633C158.131 43.4453 158.148 43.5215 158.148 43.5918C158.148 43.7207 158.102 43.8438 158.008 43.9609C157.996 43.9844 157.996 44.0078 158.008 44.0312C158.02 44.043 158.037 44.0488 158.061 44.0488H165.514C165.748 44.0488 165.941 44.1309 166.094 44.2949C166.258 44.459 166.34 44.6582 166.34 44.8926C166.34 45.127 166.258 45.3262 166.094 45.4902C165.941 45.6543 165.748 45.7363 165.514 45.7363H163.316C163.223 45.7363 163.158 45.7773 163.123 45.8594C162.818 46.5273 162.408 47.1016 161.893 47.582C161.869 47.6055 161.857 47.6348 161.857 47.6699C161.869 47.6934 161.893 47.7051 161.928 47.7051C162.982 48.0098 163.891 48.291 164.652 48.5488C164.887 48.6309 165.033 48.7832 165.092 49.0059C165.115 49.0762 165.127 49.1406 165.127 49.1992C165.127 49.3633 165.068 49.5098 164.951 49.6387C164.764 49.8613 164.523 50.0078 164.23 50.0781C164.125 50.1016 164.014 50.1133 163.896 50.1133C163.721 50.1133 163.551 50.084 163.387 50.0254C162.438 49.6738 161.301 49.3047 159.977 48.918C159.895 48.8945 159.812 48.9004 159.73 48.9355C159.215 49.1465 158.623 49.334 157.955 49.498C157.955 49.498 157.955 49.5039 157.955 49.5156C157.955 49.5273 157.961 49.5332 157.973 49.5332H158.465C158.758 49.5332 159.004 49.6328 159.203 49.832C159.402 50.0312 159.502 50.2773 159.502 50.5703V50.623C159.502 50.7051 159.549 50.7461 159.643 50.7461H165.795C166.041 50.7461 166.246 50.834 166.41 51.0098ZM170.928 40.5859C171.115 40.3516 171.35 40.1934 171.631 40.1113C171.76 40.0762 171.889 40.0586 172.018 40.0586C172.17 40.0586 172.322 40.0879 172.475 40.1465C172.709 40.2402 172.861 40.4102 172.932 40.6562C172.955 40.7266 172.967 40.7969 172.967 40.8672C172.967 41.0195 172.914 41.166 172.809 41.3066C171.883 42.4434 170.904 43.4453 169.873 44.3125C169.709 44.4414 169.533 44.5059 169.346 44.5059C169.299 44.5059 169.246 44.5 169.188 44.4883C168.941 44.4414 168.742 44.3125 168.59 44.1016C168.461 43.9258 168.396 43.7383 168.396 43.5391C168.396 43.4922 168.402 43.4453 168.414 43.3984C168.449 43.1289 168.566 42.9121 168.766 42.748C169.586 42.0801 170.307 41.3594 170.928 40.5859ZM171.35 44.4707C171.502 44.2246 171.713 44.0547 171.982 43.9609C172.123 43.9141 172.258 43.8906 172.387 43.8906C172.516 43.8906 172.65 43.9141 172.791 43.9609C173.037 44.0547 173.207 44.2246 173.301 44.4707C173.336 44.5645 173.354 44.6582 173.354 44.752C173.354 44.8926 173.312 45.0332 173.23 45.1738C172.984 45.5723 172.721 45.9766 172.439 46.3867C172.381 46.457 172.352 46.5332 172.352 46.6152V55.5977C172.352 55.8789 172.252 56.1133 172.053 56.3008C171.865 56.5 171.631 56.5996 171.35 56.5996C171.08 56.5996 170.846 56.5 170.646 56.3008C170.459 56.1133 170.365 55.8789 170.365 55.5977V49.0234C170.365 49 170.354 48.9883 170.33 48.9883C170.307 48.9766 170.289 48.9766 170.277 48.9883C170.102 49.1758 169.92 49.3574 169.732 49.5332C169.58 49.6738 169.416 49.7441 169.24 49.7441C169.182 49.7441 169.123 49.7383 169.064 49.7266C168.807 49.6797 168.619 49.5391 168.502 49.3047C168.467 49.2344 168.432 49.1699 168.396 49.1113C168.291 48.9238 168.238 48.7246 168.238 48.5137C168.238 48.4434 168.244 48.373 168.256 48.3027C168.303 48.0098 168.432 47.7695 168.643 47.582C169.697 46.6445 170.6 45.6074 171.35 44.4707ZM177.133 50.6582C177.121 50.6582 177.109 50.6641 177.098 50.6758C177.098 50.6758 177.098 50.6816 177.098 50.6934C177.52 51.2676 178.076 51.8184 178.768 52.3457C178.838 52.4043 178.908 52.4043 178.979 52.3457C179.6 51.8652 180.115 51.3379 180.525 50.7637C180.549 50.7402 180.549 50.7168 180.525 50.6934C180.514 50.6699 180.496 50.6582 180.473 50.6582H177.133ZM181.756 49.0586C181.826 49.0352 181.896 49.0234 181.967 49.0234C182.096 49.0234 182.225 49.0527 182.354 49.1113L182.723 49.2871C182.91 49.3691 183.045 49.5039 183.127 49.6914C183.162 49.7852 183.18 49.873 183.18 49.9551C183.18 50.0488 183.156 50.1484 183.109 50.2539C182.547 51.4375 181.762 52.4805 180.754 53.3828C180.695 53.4414 180.701 53.4883 180.771 53.5234C181.791 53.9922 182.904 54.3496 184.111 54.5957C184.334 54.6426 184.486 54.7715 184.568 54.9824C184.592 55.0645 184.604 55.1465 184.604 55.2285C184.604 55.3457 184.562 55.4629 184.48 55.5801C184.445 55.627 184.416 55.6738 184.393 55.7207C184.217 55.9902 183.988 56.1895 183.707 56.3184C183.531 56.3887 183.35 56.4238 183.162 56.4238C183.057 56.4238 182.951 56.4121 182.846 56.3887C181.404 56.0137 180.127 55.4863 179.014 54.8066C178.932 54.7598 178.855 54.7539 178.785 54.7891C177.625 55.457 176.301 55.9961 174.812 56.4062C174.707 56.4297 174.602 56.4414 174.496 56.4414C174.32 56.4414 174.15 56.4004 173.986 56.3184C173.717 56.1895 173.506 55.9902 173.354 55.7207C173.354 55.709 173.354 55.7031 173.354 55.7031C173.283 55.5859 173.248 55.4629 173.248 55.334C173.248 55.2402 173.266 55.1465 173.301 55.0527C173.395 54.8301 173.559 54.6895 173.793 54.6309C175 54.3613 176.096 53.9805 177.08 53.4883C177.162 53.4531 177.168 53.4062 177.098 53.3477C176.629 52.9023 176.213 52.4453 175.85 51.9766C175.803 51.9062 175.744 51.8945 175.674 51.9414C175.451 52.1172 175.234 52.2754 175.023 52.416C174.836 52.5449 174.637 52.6094 174.426 52.6094C174.367 52.6094 174.303 52.6035 174.232 52.5918C173.951 52.5449 173.711 52.4043 173.512 52.1699C173.5 52.1699 173.494 52.1641 173.494 52.1523C173.354 51.9883 173.283 51.8066 173.283 51.6074C173.283 51.5723 173.283 51.5312 173.283 51.4844C173.33 51.2266 173.459 51.0273 173.67 50.8867C174.9 50.125 175.914 49.2227 176.711 48.1797C176.723 48.1562 176.723 48.1328 176.711 48.1094C176.699 48.0859 176.682 48.0742 176.658 48.0742L174.145 48.1445C174.133 48.1445 174.121 48.1445 174.109 48.1445C173.852 48.1445 173.629 48.0625 173.441 47.8984C173.242 47.7227 173.125 47.5 173.09 47.2305C173.09 47.1953 173.09 47.166 173.09 47.1426C173.09 46.9316 173.166 46.7383 173.318 46.5625C173.494 46.375 173.705 46.2812 173.951 46.2812C174.572 46.2812 175.141 46.2754 175.656 46.2637C175.738 46.2637 175.814 46.2344 175.885 46.1758C176.107 45.9883 176.295 45.8242 176.447 45.6836C176.518 45.6133 176.523 45.5488 176.465 45.4902C175.82 44.8574 175.053 44.2129 174.162 43.5566C173.963 43.416 173.846 43.2227 173.811 42.9766C173.811 42.9414 173.811 42.9062 173.811 42.8711C173.811 42.6719 173.881 42.4961 174.021 42.3438C174.209 42.1328 174.438 42.0156 174.707 41.9922C174.754 41.9805 174.807 41.9746 174.865 41.9746C175.076 41.9746 175.27 42.0332 175.445 42.1504C175.48 42.1738 175.516 42.1973 175.551 42.2207C175.621 42.2676 175.686 42.2559 175.744 42.1855C176.213 41.6348 176.635 41.0898 177.01 40.5508C177.186 40.3164 177.414 40.1582 177.695 40.0762C177.801 40.0527 177.9 40.041 177.994 40.041C178.17 40.041 178.34 40.082 178.504 40.1641C178.75 40.2812 178.896 40.4688 178.943 40.7266C178.955 40.7969 178.961 40.8555 178.961 40.9023C178.961 41.1016 178.896 41.2773 178.768 41.4297C178.193 42.0742 177.643 42.666 177.115 43.2051C177.057 43.2637 177.057 43.3223 177.115 43.3809C177.467 43.6621 177.748 43.9023 177.959 44.1016C178.018 44.1719 178.076 44.1719 178.135 44.1016C178.908 43.3516 179.629 42.5898 180.297 41.8164C180.484 41.5938 180.725 41.4531 181.018 41.3945C181.1 41.3711 181.182 41.3594 181.264 41.3594C181.475 41.3594 181.674 41.4121 181.861 41.5176L181.932 41.5527C182.154 41.6816 182.289 41.875 182.336 42.1328C182.336 42.1797 182.336 42.2266 182.336 42.2734C182.336 42.4727 182.26 42.6484 182.107 42.8008C180.924 44.0195 179.729 45.1328 178.521 46.1406C178.51 46.1641 178.504 46.1875 178.504 46.2109C178.516 46.2227 178.533 46.2285 178.557 46.2285L181.51 46.1758C181.545 46.1758 181.568 46.1641 181.58 46.1406C181.592 46.1172 181.592 46.0938 181.58 46.0703C181.498 45.9648 181.422 45.8652 181.352 45.7715C181.234 45.6191 181.176 45.4551 181.176 45.2793C181.176 45.2207 181.182 45.1621 181.193 45.1035C181.24 44.8691 181.369 44.6934 181.58 44.5762C181.756 44.4707 181.943 44.418 182.143 44.418C182.201 44.418 182.271 44.4238 182.354 44.4355C182.623 44.4824 182.846 44.6113 183.021 44.8223C183.678 45.6426 184.223 46.416 184.656 47.1426C184.75 47.2949 184.797 47.459 184.797 47.6348C184.797 47.7285 184.779 47.8281 184.744 47.9336C184.662 48.2031 184.492 48.4082 184.234 48.5488C184.094 48.6309 183.941 48.6719 183.777 48.6719C183.684 48.6719 183.584 48.6543 183.479 48.6191C183.221 48.5371 183.027 48.373 182.898 48.127C182.863 48.0801 182.834 48.0332 182.811 47.9863C182.764 47.9043 182.699 47.8691 182.617 47.8809C181.914 47.9043 180.807 47.9395 179.295 47.9863C179.213 47.998 179.148 48.0391 179.102 48.1094C178.914 48.4141 178.727 48.6953 178.539 48.9531C178.527 48.9766 178.527 49 178.539 49.0234C178.551 49.0469 178.568 49.0586 178.592 49.0586H181.686C181.709 49.0586 181.732 49.0586 181.756 49.0586ZM74.248 69.748C74.248 69.7363 74.2422 69.7305 74.2305 69.7305C74.2188 69.7305 74.2129 69.7363 74.2129 69.748V72.5078C74.2129 72.6016 74.2539 72.6484 74.3359 72.6484H75.584C75.6777 72.6484 75.7246 72.6016 75.7246 72.5078V68.8691C75.7246 68.7754 75.6777 68.7285 75.584 68.7285H74.3359C74.2539 68.7285 74.2129 68.7754 74.2129 68.8691V69.3965C74.2129 69.4551 74.2422 69.4785 74.3008 69.4668C74.3828 69.4434 74.4648 69.4316 74.5469 69.4316C74.6641 69.4316 74.7871 69.4609 74.916 69.5195C75.1035 69.625 75.2266 69.7832 75.2852 69.9941C75.4141 70.4629 75.5078 70.9082 75.5664 71.3301C75.5898 71.4707 75.5605 71.6055 75.4785 71.7344C75.3965 71.8516 75.291 71.9336 75.1621 71.9805C75.0332 72.0156 74.916 71.998 74.8105 71.9277C74.7051 71.8457 74.6465 71.7461 74.6348 71.6289C74.5527 70.9844 74.4238 70.3574 74.248 69.748ZM78.4668 69.4844C78.5371 69.5078 78.5723 69.4844 78.5723 69.4141V68.8691C78.5723 68.7754 78.5254 68.7285 78.4316 68.7285H77.1484C77.0664 68.7285 77.0254 68.7754 77.0254 68.8691V71.5762C77.0254 71.5879 77.0312 71.5938 77.043 71.5938C77.0547 71.5938 77.0605 71.5879 77.0605 71.5762C77.2363 71.0488 77.3887 70.5273 77.5176 70.0117C77.5762 69.8008 77.6992 69.6426 77.8867 69.5371C77.9922 69.4785 78.1035 69.4492 78.2207 69.4492C78.3027 69.4492 78.3848 69.4609 78.4668 69.4844ZM77.0254 72.5078C77.0254 72.6016 77.0664 72.6484 77.1484 72.6484H78.4316C78.5254 72.6484 78.5723 72.6016 78.5723 72.5078V70.2227C78.5723 70.1992 78.5605 70.1875 78.5371 70.1875C78.5254 70.1875 78.5195 70.1934 78.5195 70.2051C78.2734 70.8496 78.1094 71.2773 78.0273 71.4883C77.957 71.6758 77.8281 71.8105 77.6406 71.8926C77.4648 71.9629 77.2832 71.9629 77.0957 71.8926C77.0488 71.8691 77.0254 71.8926 77.0254 71.9629V72.5078ZM73.1582 79.2051C73.1465 79.2051 73.1348 79.2051 73.123 79.2051C72.8887 79.2051 72.6895 79.1289 72.5254 78.9766C72.3379 78.8008 72.2441 78.5781 72.2441 78.3086C72.2441 78.0742 72.3262 77.875 72.4902 77.7109C72.6543 77.5234 72.8594 77.4297 73.1055 77.4297C73.293 77.418 74.0195 77.3945 75.2852 77.3594C75.3672 77.3594 75.4082 77.3125 75.4082 77.2188V76.6211C75.4082 76.5391 75.3672 76.498 75.2852 76.498H73.457C73.2344 76.498 73.041 76.4219 72.877 76.2695C72.7246 76.1055 72.6484 75.9121 72.6484 75.6895C72.6484 75.4551 72.7246 75.2617 72.877 75.1094C73.041 74.9453 73.2344 74.8633 73.457 74.8633H75.2852C75.3672 74.8633 75.4082 74.8223 75.4082 74.7402V74.2129C75.4082 74.1191 75.3672 74.0723 75.2852 74.0723H73.6504C73.3574 74.0723 73.1113 73.9727 72.9121 73.7734C72.7129 73.5742 72.6133 73.3281 72.6133 73.0352V68.3242C72.6133 68.043 72.7129 67.8027 72.9121 67.6035C73.1113 67.3926 73.3574 67.2871 73.6504 67.2871H79.1875C79.4688 67.2871 79.709 67.3926 79.9082 67.6035C80.1191 67.8027 80.2246 68.043 80.2246 68.3242V73.0352C80.2246 73.3281 80.1191 73.5742 79.9082 73.7734C79.709 73.9727 79.4688 74.0723 79.1875 74.0723H77.4297C77.3477 74.0723 77.3066 74.1191 77.3066 74.2129V74.7402C77.3066 74.8223 77.3477 74.8633 77.4297 74.8633H79.3809C79.6035 74.8633 79.791 74.9453 79.9434 75.1094C80.1074 75.2617 80.1895 75.4551 80.1895 75.6895C80.1895 75.9121 80.1074 76.1055 79.9434 76.2695C79.791 76.4219 79.6035 76.498 79.3809 76.498H77.4297C77.3477 76.498 77.3066 76.5391 77.3066 76.6211V77.1484C77.3066 77.2422 77.3477 77.2832 77.4297 77.2715C77.6523 77.2715 77.8867 77.2656 78.1328 77.2539C78.3789 77.2422 78.6484 77.2305 78.9414 77.2188C79.2461 77.207 79.4805 77.1953 79.6445 77.1836C79.6562 77.1836 79.668 77.1836 79.6797 77.1836C79.8906 77.1836 80.0723 77.2598 80.2246 77.4121C80.377 77.5645 80.4531 77.752 80.4531 77.9746C80.4531 78.209 80.3711 78.4141 80.207 78.5898C80.043 78.7539 79.8438 78.8477 79.6094 78.8711C77.2656 79.0117 75.1152 79.123 73.1582 79.2051ZM73.6504 82.9316C73.5449 83.1191 73.375 83.2422 73.1406 83.3008C73.0703 83.3125 73.0059 83.3184 72.9473 83.3184C72.7949 83.3184 72.6484 83.2832 72.5078 83.2129C72.332 83.1191 72.2207 82.9727 72.1738 82.7734C72.1621 82.7031 72.1562 82.6387 72.1562 82.5801C72.1562 82.4512 72.1914 82.3223 72.2617 82.1934C72.5312 81.6895 72.748 81.0918 72.9121 80.4004C72.9473 80.2012 73.0469 80.0488 73.2109 79.9434C73.3867 79.8379 73.5684 79.8145 73.7559 79.873C73.9668 79.9316 74.125 80.0547 74.2305 80.2422C74.3125 80.3711 74.3535 80.5117 74.3535 80.6641C74.3535 80.7227 74.3477 80.7754 74.3359 80.8223C74.1602 81.7129 73.9316 82.416 73.6504 82.9316ZM74.7227 80.418C74.7109 80.3828 74.7051 80.3477 74.7051 80.3125C74.7051 80.1719 74.7461 80.0488 74.8281 79.9434C74.9453 79.791 75.0918 79.7031 75.2676 79.6797C75.4551 79.6562 75.6191 79.7031 75.7598 79.8203C75.9121 79.9258 76.0059 80.0723 76.041 80.2598C76.1465 80.8574 76.2227 81.4551 76.2695 82.0527C76.2812 82.252 76.2227 82.4277 76.0938 82.5801C75.9648 82.7324 75.8008 82.8203 75.6016 82.8438C75.4258 82.8555 75.2676 82.7969 75.127 82.668C74.9863 82.5508 74.9102 82.4043 74.8984 82.2285C74.875 81.666 74.8164 81.0625 74.7227 80.418ZM76.6035 80.3125C76.5918 80.2539 76.5859 80.1953 76.5859 80.1367C76.5859 80.0312 76.6094 79.9316 76.6562 79.8379C76.75 79.6973 76.8789 79.6094 77.043 79.5742C77.2305 79.5391 77.4004 79.5684 77.5527 79.6621C77.7168 79.7559 77.8281 79.8906 77.8867 80.0664C78.0742 80.6641 78.2266 81.2324 78.3438 81.7715C78.3789 81.959 78.3438 82.1289 78.2383 82.2812C78.1328 82.4336 77.9863 82.5273 77.7988 82.5625C77.623 82.5977 77.459 82.5625 77.3066 82.457C77.166 82.3633 77.0781 82.2227 77.043 82.0352C76.9375 81.4844 76.791 80.9102 76.6035 80.3125ZM78.4844 80.1191C78.4375 80.0254 78.4141 79.9316 78.4141 79.8379C78.4141 79.7793 78.4258 79.7148 78.4492 79.6445C78.5078 79.4805 78.6191 79.3633 78.7832 79.293C78.8887 79.2578 78.9883 79.2402 79.082 79.2402C79.1758 79.2402 79.2695 79.2578 79.3633 79.293C79.5508 79.3516 79.6914 79.4688 79.7852 79.6445C80.0898 80.1602 80.3477 80.6699 80.5586 81.1738C80.6055 81.2559 80.6289 81.3438 80.6289 81.4375C80.6289 81.543 80.6055 81.6426 80.5586 81.7363C80.4766 81.9238 80.3359 82.0586 80.1367 82.1406C79.9609 82.2109 79.7852 82.2051 79.6094 82.123C79.4336 82.041 79.3105 81.9062 79.2402 81.7188C79.0293 81.1914 78.7773 80.6582 78.4844 80.1191ZM85.9902 80.9277C86.084 80.9277 86.1309 80.8809 86.1309 80.7871V77.2891C86.1309 77.207 86.084 77.166 85.9902 77.166H82.9316C82.8379 77.166 82.791 77.207 82.791 77.2891V80.7871C82.791 80.8809 82.8379 80.9277 82.9316 80.9277H85.9902ZM88.4688 70.7676C88.668 70.9551 88.7676 71.1836 88.7676 71.4531C88.7676 71.7227 88.668 71.957 88.4688 72.1562C88.2812 72.3438 88.0527 72.4375 87.7832 72.4375H85.4277C85.3457 72.4375 85.3047 72.4844 85.3047 72.5781V75.0742C85.3047 75.168 85.3457 75.2148 85.4277 75.2148H87.1328C87.4258 75.2148 87.6719 75.3203 87.8711 75.5312C88.0703 75.7305 88.1699 75.9707 88.1699 76.252V82.457C88.1699 82.7383 88.0703 82.9785 87.8711 83.1777C87.6719 83.377 87.4316 83.4766 87.1504 83.4766H86.6758C86.5234 83.4766 86.3945 83.418 86.2891 83.3008C86.1836 83.1953 86.1309 83.0664 86.1309 82.9141C86.1309 82.8672 86.1074 82.8438 86.0605 82.8438H82.8789C82.8203 82.8438 82.791 82.873 82.791 82.9316C82.791 83.0957 82.7266 83.2363 82.5977 83.3535C82.4805 83.4824 82.3398 83.5469 82.1758 83.5469H81.8242C81.5547 83.5469 81.3262 83.4531 81.1387 83.2656C80.9512 83.0781 80.8574 82.8496 80.8574 82.5801V76.252C80.8574 75.9707 80.957 75.7305 81.1562 75.5312C81.3555 75.3203 81.6016 75.2148 81.8945 75.2148H83.0723C83.166 75.2148 83.2129 75.168 83.2129 75.0742V67.8145C83.2129 67.5215 83.3125 67.2754 83.5117 67.0762C83.7109 66.877 83.957 66.7773 84.25 66.7773H84.2676C84.5488 66.7773 84.7891 66.877 84.9883 67.0762C85.1992 67.2754 85.3047 67.5215 85.3047 67.8145V70.3281C85.3047 70.4219 85.3457 70.4688 85.4277 70.4688H87.7832C88.0527 70.4688 88.2812 70.5684 88.4688 70.7676ZM103.92 69.3965C104.014 69.3965 104.061 69.3555 104.061 69.2734V68.7812C104.061 68.6875 104.014 68.6406 103.92 68.6406H101.23C101.043 68.6406 100.885 68.5762 100.756 68.4473C100.627 68.3184 100.562 68.1602 100.562 67.9727C100.562 67.7852 100.627 67.627 100.756 67.498C100.885 67.3574 101.043 67.2871 101.23 67.2871H104.834C105.115 67.2871 105.355 67.3926 105.555 67.6035C105.766 67.8027 105.871 68.043 105.871 68.3242V69.7305C105.871 70.0117 105.766 70.2578 105.555 70.4688C105.355 70.668 105.115 70.7676 104.834 70.7676H102.777C102.695 70.7676 102.654 70.8145 102.654 70.9082V71.1367C102.654 71.3242 102.684 71.4473 102.742 71.5059C102.812 71.5645 102.959 71.5938 103.182 71.5938H104.641C104.816 71.5938 104.934 71.5527 104.992 71.4707C105.18 71.2363 105.361 71.1191 105.537 71.1191C105.596 71.1191 105.648 71.1309 105.695 71.1543C105.754 71.1777 105.812 71.1953 105.871 71.207C106.094 71.2891 106.27 71.4238 106.398 71.6113C106.469 71.7168 106.504 71.8281 106.504 71.9453C106.504 72.0273 106.486 72.1094 106.451 72.1914C106.322 72.4961 106.135 72.707 105.889 72.8242C105.643 72.9414 105.303 73 104.869 73H102.936C102.127 73 101.582 72.8711 101.301 72.6133C101.031 72.3555 100.896 71.8691 100.896 71.1543V70.4336C100.896 70.1523 100.996 69.9121 101.195 69.7129C101.406 69.502 101.652 69.3965 101.934 69.3965H103.92ZM98.0137 69.3965C98.1074 69.3965 98.1543 69.3555 98.1543 69.2734V68.7812C98.1543 68.6875 98.1074 68.6406 98.0137 68.6406H95.4297C95.2422 68.6406 95.0781 68.5762 94.9375 68.4473C94.8086 68.3184 94.7441 68.1602 94.7441 67.9727C94.7441 67.7852 94.8086 67.627 94.9375 67.498C95.0781 67.3574 95.2422 67.2871 95.4297 67.2871H98.9102C99.2031 67.2871 99.4492 67.3926 99.6484 67.6035C99.8477 67.8027 99.9473 68.043 99.9473 68.3242V69.7305C99.9473 70.0117 99.8477 70.2578 99.6484 70.4688C99.4492 70.668 99.2031 70.7676 98.9102 70.7676H96.8887C96.8066 70.7676 96.7656 70.8145 96.7656 70.9082V71.1543C96.7656 71.3418 96.7949 71.4648 96.8535 71.5234C96.9238 71.5703 97.0762 71.5938 97.3105 71.5938H98.6816C98.8574 71.5938 98.9805 71.5527 99.0508 71.4707C99.2148 71.248 99.3848 71.1367 99.5605 71.1367C99.6191 71.1367 99.6719 71.1484 99.7188 71.1719C99.7773 71.1953 99.8418 71.2129 99.9121 71.2246C100.135 71.3066 100.305 71.4414 100.422 71.6289C100.492 71.7344 100.527 71.8457 100.527 71.9629C100.527 72.0332 100.51 72.1094 100.475 72.1914C100.346 72.4961 100.158 72.707 99.9121 72.8242C99.666 72.9414 99.3379 73 98.9277 73H97.0293C96.2441 73 95.7051 72.8711 95.4121 72.6133C95.1309 72.3555 94.9902 71.8691 94.9902 71.1543V70.4336C94.9902 70.1523 95.0898 69.9121 95.2891 69.7129C95.5 69.502 95.7461 69.3965 96.0273 69.3965H98.0137ZM93.6191 69.2734C93.748 69.4375 93.8125 69.6191 93.8125 69.8184C93.8125 69.8887 93.8066 69.9648 93.7949 70.0469C93.7246 70.3281 93.5664 70.5449 93.3203 70.6973L93.2324 70.75C93.0684 70.8555 92.8984 70.9082 92.7227 70.9082C92.6523 70.9082 92.5762 70.8965 92.4941 70.873C92.2246 70.8145 92.0078 70.668 91.8438 70.4336C91.5273 69.9766 91.1348 69.4902 90.666 68.9746C90.5254 68.8105 90.4551 68.623 90.4551 68.4121C90.4551 68.377 90.4551 68.3418 90.4551 68.3066C90.4785 68.0488 90.6016 67.8496 90.8242 67.709C91.0352 67.5684 91.2637 67.498 91.5098 67.498C91.5449 67.498 91.5859 67.5039 91.6328 67.5156C91.9375 67.5391 92.1895 67.6562 92.3887 67.8672C92.8809 68.3711 93.291 68.8398 93.6191 69.2734ZM99.5605 75.6543C99.4668 75.6543 99.4199 75.6953 99.4199 75.7773V76.709C99.4199 76.791 99.4668 76.832 99.5605 76.832H101.389C101.471 76.832 101.512 76.791 101.512 76.709V75.7773C101.512 75.6953 101.471 75.6543 101.389 75.6543H99.5605ZM98.541 78.4141C98.5176 78.4141 98.5059 78.4199 98.5059 78.4316C98.5059 78.4434 98.5117 78.4551 98.5234 78.4668L98.9805 78.625C99.2031 78.6953 99.3379 78.8418 99.3848 79.0645C99.3848 79.1113 99.3848 79.1523 99.3848 79.1875C99.3848 79.3633 99.3086 79.5039 99.1562 79.6094C98.3711 80.1602 97.4688 80.6523 96.4492 81.0859C96.4375 81.0977 96.4316 81.1152 96.4316 81.1387C96.4316 81.1504 96.4434 81.1562 96.4668 81.1562C96.8535 81.25 97.2988 81.3027 97.8027 81.3145C98.5176 81.3496 99.4141 81.3672 100.492 81.3672C100.855 81.3672 101.236 81.3672 101.635 81.3672C103.229 81.3438 104.658 81.2969 105.924 81.2266C105.936 81.2266 105.947 81.2266 105.959 81.2266C106.17 81.2266 106.346 81.3145 106.486 81.4902C106.568 81.6191 106.609 81.7539 106.609 81.8945C106.609 81.9648 106.598 82.041 106.574 82.123C106.574 82.123 106.574 82.1289 106.574 82.1406C106.48 82.4453 106.316 82.6914 106.082 82.8789C105.848 83.0781 105.584 83.1836 105.291 83.1953C103.826 83.2539 102.455 83.2832 101.178 83.2832C99.9707 83.2832 98.8457 83.2598 97.8027 83.2129C96.7129 83.166 95.7988 82.9961 95.0605 82.7031C94.3223 82.4102 93.6953 81.9414 93.1797 81.2969C93.1211 81.2266 93.0625 81.2207 93.0039 81.2793C92.5117 81.7949 92.043 82.2637 91.5977 82.6855C91.457 82.8262 91.2871 82.8965 91.0879 82.8965C91.041 82.8965 90.9883 82.8906 90.9297 82.8789C90.6836 82.832 90.502 82.6914 90.3848 82.457L90.2969 82.2812C90.2031 82.1055 90.1562 81.9238 90.1562 81.7363C90.1562 81.6426 90.1738 81.543 90.209 81.4375C90.2793 81.1562 90.4316 80.9219 90.666 80.7344C91.123 80.3945 91.5215 80.0723 91.8613 79.7676C91.9199 79.709 91.9492 79.6328 91.9492 79.5391V75.8301C91.9492 75.748 91.9082 75.707 91.8262 75.707H91.0879C90.8184 75.707 90.584 75.6133 90.3848 75.4258C90.1973 75.2266 90.1035 74.9922 90.1035 74.7227C90.1035 74.4531 90.1973 74.2246 90.3848 74.0371C90.584 73.8379 90.8184 73.7383 91.0879 73.7383H92.8984C93.1914 73.7383 93.4375 73.8438 93.6367 74.0547C93.8359 74.2539 93.9355 74.4941 93.9355 74.7754V79.3633C93.9355 79.457 93.959 79.5391 94.0059 79.6094C94.4629 80.3359 95.1719 80.8281 96.1328 81.0859C96.1445 81.0859 96.1562 81.0801 96.168 81.0684C96.1797 81.0566 96.1797 81.0449 96.168 81.0332C95.9922 80.8691 95.793 80.6875 95.5703 80.4883C95.4297 80.3711 95.3594 80.2305 95.3594 80.0664C95.3594 80.0312 95.3652 79.9961 95.377 79.9609C95.4121 79.75 95.5293 79.6035 95.7285 79.5215C96.6309 79.1934 97.3281 78.8535 97.8203 78.502C97.8438 78.4902 97.8496 78.4727 97.8379 78.4492C97.8379 78.4258 97.8262 78.4141 97.8027 78.4141H95.3066C95.084 78.4141 94.8965 78.3379 94.7441 78.1855C94.5918 78.0332 94.5156 77.8516 94.5156 77.6406C94.5156 77.418 94.5918 77.2305 94.7441 77.0781C94.8965 76.9141 95.084 76.832 95.3066 76.832H97.3105C97.4043 76.832 97.4512 76.791 97.4512 76.709V75.7773C97.4512 75.6953 97.4043 75.6543 97.3105 75.6543H95.8164C95.6055 75.6543 95.4238 75.5781 95.2715 75.4258C95.1191 75.2617 95.043 75.0742 95.043 74.8633C95.043 74.6523 95.1191 74.4707 95.2715 74.3184C95.4238 74.1543 95.6055 74.0723 95.8164 74.0723H97.3457C97.416 74.0723 97.4512 74.0371 97.4512 73.9668C97.4512 73.7324 97.5332 73.5332 97.6973 73.3691C97.8613 73.2051 98.0605 73.123 98.2949 73.123H98.5762C98.8105 73.123 99.0098 73.2051 99.1738 73.3691C99.3379 73.5332 99.4199 73.7324 99.4199 73.9668C99.4199 74.0371 99.4609 74.0723 99.543 74.0723H101.406C101.477 74.0723 101.512 74.0371 101.512 73.9668C101.512 73.7324 101.594 73.5332 101.758 73.3691C101.922 73.2051 102.121 73.123 102.355 73.123H102.707C102.941 73.123 103.141 73.2051 103.305 73.3691C103.469 73.5332 103.551 73.7324 103.551 73.9668C103.551 74.0371 103.586 74.0723 103.656 74.0723H105.238C105.449 74.0723 105.631 74.1543 105.783 74.3184C105.936 74.4707 106.012 74.6523 106.012 74.8633C106.012 75.0742 105.936 75.2617 105.783 75.4258C105.631 75.5781 105.449 75.6543 105.238 75.6543H103.674C103.592 75.6543 103.551 75.6953 103.551 75.7773V76.709C103.551 76.791 103.592 76.832 103.674 76.832H105.783C106.006 76.832 106.193 76.9141 106.346 77.0781C106.498 77.2305 106.574 77.418 106.574 77.6406C106.574 77.8516 106.498 78.0332 106.346 78.1855C106.193 78.3379 106.006 78.4141 105.783 78.4141H103.199C103.176 78.4141 103.164 78.4258 103.164 78.4492C103.164 78.4609 103.17 78.4668 103.182 78.4668C104.107 78.9121 104.934 79.3574 105.66 79.8027C105.824 79.8965 105.906 80.0312 105.906 80.207C105.906 80.4648 105.789 80.6348 105.555 80.7168L105.326 80.8047C105.104 80.8867 104.887 80.9277 104.676 80.9277C104.277 80.9277 103.896 80.7988 103.533 80.541C103.088 80.2363 102.625 79.9492 102.145 79.6797C101.945 79.5625 101.846 79.3926 101.846 79.1699C101.846 78.9473 101.939 78.7832 102.127 78.6777L102.479 78.4844C102.49 78.4727 102.496 78.4609 102.496 78.4492C102.496 78.4258 102.484 78.4141 102.461 78.4141H98.541ZM115.029 78.168C114.748 78.168 114.502 78.0684 114.291 77.8691C114.092 77.6582 113.992 77.4121 113.992 77.1309V67.709C113.992 67.416 114.092 67.1699 114.291 66.9707C114.502 66.7715 114.748 66.6719 115.029 66.6719H118.984C119.254 66.6719 119.482 66.7656 119.67 66.9531C119.857 67.1406 119.951 67.3691 119.951 67.6387C119.951 67.9082 119.857 68.1367 119.67 68.3242C119.482 68.5117 119.254 68.6055 118.984 68.6055H116.26C116.166 68.6055 116.119 68.6523 116.119 68.7461V77.1309C116.119 77.4121 116.02 77.6582 115.82 77.8691C115.621 78.0684 115.375 78.168 115.082 78.168H115.029ZM140.746 75.5664C141.027 75.5664 141.268 75.6719 141.467 75.8828C141.678 76.082 141.783 76.3223 141.783 76.6035V76.6211C141.783 76.9023 141.678 77.1484 141.467 77.3594C141.268 77.5586 141.027 77.6582 140.746 77.6582H134.805C134.723 77.6582 134.682 77.6992 134.682 77.7812V80.5938C134.682 81.2266 134.588 81.707 134.4 82.0352C134.225 82.3633 133.926 82.6094 133.504 82.7734C132.941 82.9844 131.957 83.1016 130.551 83.125C130.539 83.125 130.533 83.125 130.533 83.125C130.24 83.125 129.977 83.0371 129.742 82.8613C129.496 82.6738 129.314 82.4336 129.197 82.1406C129.162 82.0703 129.127 81.9941 129.092 81.9121C129.057 81.8184 129.039 81.7305 129.039 81.6484C129.039 81.5312 129.068 81.4199 129.127 81.3145C129.244 81.127 129.414 81.0332 129.637 81.0332C129.637 81.0332 129.643 81.0332 129.654 81.0332C130.311 81.0449 131.049 81.0508 131.869 81.0508C132.08 81.0391 132.227 80.998 132.309 80.9277C132.402 80.8574 132.449 80.7344 132.449 80.5586V77.7812C132.449 77.6992 132.402 77.6582 132.309 77.6582H126.367C126.086 77.6582 125.84 77.5586 125.629 77.3594C125.43 77.1484 125.33 76.9023 125.33 76.6211V76.6035C125.33 76.3223 125.43 76.082 125.629 75.8828C125.84 75.6719 126.086 75.5664 126.367 75.5664H132.309C132.402 75.5664 132.449 75.5195 132.449 75.4258V73.5977C132.449 73.5039 132.402 73.457 132.309 73.457H127.598C127.305 73.457 127.059 73.3574 126.859 73.1582C126.66 72.959 126.561 72.7188 126.561 72.4375C126.561 72.1445 126.66 71.8984 126.859 71.6992C127.059 71.5 127.305 71.4004 127.598 71.4004H132.309C132.402 71.4004 132.449 71.3594 132.449 71.2773V69.4492C132.449 69.3555 132.402 69.3145 132.309 69.3262C130.949 69.4316 129.479 69.5254 127.896 69.6074C127.873 69.6074 127.855 69.6074 127.844 69.6074C127.598 69.6074 127.369 69.5254 127.158 69.3613C126.947 69.1855 126.801 68.957 126.719 68.6758C126.695 68.5938 126.684 68.5176 126.684 68.4473C126.684 68.3066 126.725 68.1719 126.807 68.043C126.936 67.8438 127.117 67.7383 127.352 67.7266C131.605 67.5156 135.021 67.1289 137.6 66.5664C137.729 66.5312 137.857 66.5137 137.986 66.5137C138.162 66.5137 138.338 66.543 138.514 66.6016C138.818 66.6953 139.076 66.8594 139.287 67.0938L139.463 67.3223C139.568 67.4395 139.621 67.5684 139.621 67.709C139.621 67.7793 139.609 67.8496 139.586 67.9199C139.516 68.1426 139.369 68.2832 139.146 68.3418C137.916 68.5996 136.469 68.8281 134.805 69.0273C134.723 69.0391 134.682 69.0859 134.682 69.168V71.2773C134.682 71.3594 134.723 71.4004 134.805 71.4004H139.691C139.984 71.4004 140.23 71.5 140.43 71.6992C140.629 71.8984 140.729 72.1445 140.729 72.4375C140.729 72.7188 140.629 72.959 140.43 73.1582C140.23 73.3574 139.984 73.457 139.691 73.457H134.805C134.723 73.457 134.682 73.5039 134.682 73.5977V75.4258C134.682 75.5195 134.723 75.5664 134.805 75.5664H140.746ZM144.086 69.1855C144.086 68.9043 144.186 68.6641 144.385 68.4648C144.596 68.2539 144.842 68.1484 145.123 68.1484H157.902C158.184 68.1484 158.424 68.2539 158.623 68.4648C158.822 68.6641 158.922 68.9043 158.922 69.1855V69.2559C158.793 73.6387 158.646 76.7031 158.482 78.4492C158.318 80.1836 158.043 81.3027 157.656 81.8066C157.387 82.1816 157.105 82.4453 156.812 82.5977C156.531 82.7617 156.174 82.8789 155.74 82.9492C155.377 83.0078 154.885 83.0371 154.264 83.0371C154.088 83.0371 153.895 83.0312 153.684 83.0195C153.402 83.0195 153.15 82.9141 152.928 82.7031C152.717 82.5039 152.564 82.2578 152.471 81.9648C152.436 81.8242 152.395 81.6895 152.348 81.5605C152.312 81.4785 152.295 81.3965 152.295 81.3145C152.295 81.1973 152.33 81.0859 152.4 80.9805C152.506 80.793 152.658 80.6992 152.857 80.6992C152.869 80.6992 152.881 80.6992 152.893 80.6992C153.42 80.7227 154.035 80.7344 154.738 80.7344C155.102 80.7344 155.383 80.6289 155.582 80.418C155.863 80.125 156.08 79.1992 156.232 77.6406C156.385 76.1055 156.508 73.709 156.602 70.4512C156.602 70.3691 156.555 70.3281 156.461 70.3281H151.574C151.492 70.3281 151.451 70.3691 151.451 70.4512C151.404 71.3066 151.34 72.0742 151.258 72.7539C151.176 73.4688 151.041 74.2598 150.854 75.127C150.678 75.9941 150.426 76.7852 150.098 77.5C149.781 78.2148 149.389 78.9297 148.92 79.6445C148.451 80.3594 147.859 81.0273 147.145 81.6484C146.688 82.0469 146.178 82.4219 145.615 82.7734C145.451 82.8672 145.281 82.9141 145.105 82.9141C145.012 82.9141 144.924 82.9023 144.842 82.8789C144.572 82.8086 144.338 82.6562 144.139 82.4219C144.045 82.3047 143.945 82.1934 143.84 82.0879C143.699 81.9355 143.629 81.7598 143.629 81.5605C143.629 81.5254 143.629 81.4902 143.629 81.4551C143.664 81.2207 143.781 81.0449 143.98 80.9277C144.461 80.6465 144.9 80.3477 145.299 80.0312C145.943 79.5039 146.471 78.9355 146.881 78.3262C147.303 77.7051 147.654 77.0898 147.936 76.4805C148.217 75.8711 148.428 75.1914 148.568 74.4414C148.721 73.6797 148.826 73 148.885 72.4023C148.943 71.8398 148.99 71.1953 149.025 70.4688C149.025 70.375 148.984 70.3281 148.902 70.3281H145.123C144.842 70.3281 144.596 70.2285 144.385 70.0293C144.186 69.8184 144.086 69.5723 144.086 69.291V69.1855ZM175.041 73.1582C175.135 73.1582 175.182 73.1172 175.182 73.0352V72.1562C175.182 72.0742 175.135 72.0332 175.041 72.0332H171.297C171.203 72.0332 171.156 72.0742 171.156 72.1562V73.0352C171.156 73.1172 171.203 73.1582 171.297 73.1582H175.041ZM175.041 75.7773C175.135 75.7773 175.182 75.7305 175.182 75.6367V74.7578C175.182 74.6641 175.135 74.6172 175.041 74.6172H171.297C171.203 74.6172 171.156 74.6641 171.156 74.7578V75.6367C171.156 75.7305 171.203 75.7773 171.297 75.7773H175.041ZM175.041 78.3965C175.135 78.3965 175.182 78.3555 175.182 78.2734V77.377C175.182 77.2949 175.135 77.2539 175.041 77.2539H171.297C171.203 77.2539 171.156 77.2949 171.156 77.377V78.2734C171.156 78.3555 171.203 78.3965 171.297 78.3965H175.041ZM168.115 76.9902C168.045 77.2129 167.904 77.377 167.693 77.4824C167.553 77.5645 167.406 77.6055 167.254 77.6055C167.184 77.6055 167.119 77.5996 167.061 77.5879C166.85 77.541 166.686 77.4297 166.568 77.2539C166.498 77.125 166.463 76.9961 166.463 76.8672C166.463 76.7969 166.475 76.7266 166.498 76.6562C166.604 76.2578 166.721 75.8008 166.85 75.2852C166.861 75.2031 166.826 75.1621 166.744 75.1621H165.936C165.842 75.1621 165.795 75.2031 165.795 75.2852V81.2617C165.795 81.7891 165.736 82.1934 165.619 82.4746C165.502 82.7676 165.285 82.9961 164.969 83.1602C164.559 83.3477 163.979 83.4648 163.229 83.5117C163.205 83.5117 163.188 83.5117 163.176 83.5117C162.906 83.5117 162.666 83.4238 162.455 83.248C162.221 83.0605 162.057 82.8203 161.963 82.5273C161.951 82.4922 161.939 82.4629 161.928 82.4395C161.904 82.3574 161.893 82.2754 161.893 82.1934C161.893 82.0527 161.934 81.918 162.016 81.7891C162.156 81.5898 162.344 81.4902 162.578 81.4902H163.404C163.533 81.4902 163.615 81.4727 163.65 81.4375C163.697 81.3906 163.721 81.3203 163.721 81.2266V75.2852C163.721 75.2031 163.68 75.1621 163.598 75.1621H161.998C161.74 75.1621 161.518 75.0684 161.33 74.8809C161.154 74.6934 161.066 74.4707 161.066 74.2129C161.066 73.9551 161.154 73.7324 161.33 73.5449C161.518 73.3574 161.74 73.2637 161.998 73.2637H164.775C164.799 73.2637 164.811 73.2578 164.811 73.2461C164.822 73.2227 164.822 73.2051 164.811 73.1934C164.154 72.7129 163.41 72.2441 162.578 71.7871C162.379 71.6816 162.25 71.5176 162.191 71.2949C162.18 71.2363 162.174 71.1777 162.174 71.1191C162.174 70.9668 162.227 70.8203 162.332 70.6797C162.484 70.4805 162.684 70.3516 162.93 70.293C163.023 70.2695 163.111 70.2578 163.193 70.2578C163.346 70.2578 163.498 70.293 163.65 70.3633C163.896 70.4922 164.148 70.627 164.406 70.7676C164.477 70.8027 164.541 70.791 164.6 70.7324C164.986 70.2988 165.32 69.877 165.602 69.4668C165.613 69.4434 165.613 69.4199 165.602 69.3965C165.59 69.373 165.566 69.3613 165.531 69.3613H162.42C162.162 69.3613 161.939 69.2734 161.752 69.0977C161.576 68.9102 161.488 68.6934 161.488 68.4473C161.488 68.1895 161.576 67.9727 161.752 67.7969C161.939 67.6094 162.162 67.5156 162.42 67.5156H166.955C166.99 67.5156 167.02 67.5098 167.043 67.498C167.125 67.4746 167.201 67.4629 167.271 67.4629C167.412 67.4629 167.541 67.5039 167.658 67.5859L168.52 68.2363C168.543 68.248 168.561 68.248 168.572 68.2363C168.596 68.2246 168.607 68.207 168.607 68.1836C168.607 67.9844 168.678 67.8145 168.818 67.6738C168.959 67.5332 169.135 67.4629 169.346 67.4629H176.852C177.098 67.4629 177.309 67.5508 177.484 67.7266C177.66 67.9023 177.748 68.1133 177.748 68.3594C177.748 68.6055 177.66 68.8164 177.484 68.9922C177.309 69.168 177.098 69.2559 176.852 69.2559H174.496C174.402 69.2559 174.344 69.2969 174.32 69.3789C174.227 69.707 174.127 70.0234 174.021 70.3281C174.01 70.3516 174.016 70.3809 174.039 70.416C174.062 70.4395 174.086 70.4512 174.109 70.4512H176.184C176.477 70.4512 176.723 70.5508 176.922 70.75C177.121 70.9492 177.221 71.1953 177.221 71.4883V78.9238C177.221 79.2168 177.121 79.4629 176.922 79.6621C176.723 79.8613 176.477 79.9609 176.184 79.9609H170.26C169.967 79.9609 169.721 79.8613 169.521 79.6621C169.322 79.4629 169.223 79.2168 169.223 78.9238V71.4883C169.223 71.1953 169.322 70.9492 169.521 70.75C169.721 70.5508 169.967 70.4512 170.26 70.4512H171.719C171.801 70.4512 171.848 70.4043 171.859 70.3105C171.906 70.0879 171.953 69.7832 172 69.3965C172.012 69.3027 171.977 69.2559 171.895 69.2559H169.311C169.111 69.2559 168.941 69.1914 168.801 69.0625C168.672 68.9219 168.607 68.752 168.607 68.5527C168.607 68.541 168.596 68.5352 168.572 68.5352C168.561 68.5352 168.555 68.5352 168.555 68.5352C167.816 69.7188 167.014 70.7617 166.146 71.6641C166.076 71.7227 166.082 71.7812 166.164 71.8398C166.305 71.9336 166.439 72.0332 166.568 72.1387C166.732 72.2676 166.826 72.4316 166.85 72.6309C166.861 72.666 166.867 72.7012 166.867 72.7363C166.867 72.9004 166.814 73.0527 166.709 73.1934C166.697 73.2051 166.697 73.2227 166.709 73.2461C166.721 73.2578 166.732 73.2637 166.744 73.2637H167.482C167.506 73.2637 167.529 73.2637 167.553 73.2637C167.729 73.2285 167.898 73.2285 168.062 73.2637L168.467 73.3516C168.643 73.3984 168.777 73.498 168.871 73.6504C168.965 73.8027 168.988 73.9668 168.941 74.1426C168.648 75.2324 168.373 76.1816 168.115 76.9902ZM170.172 80.6465C170.418 80.4707 170.693 80.3711 170.998 80.3477C171.033 80.3359 171.068 80.3301 171.104 80.3301C171.361 80.3301 171.602 80.4004 171.824 80.541L171.842 80.5586C172.076 80.7109 172.193 80.9336 172.193 81.2266C172.193 81.4492 172.1 81.6367 171.912 81.7891C171.209 82.3164 170.424 82.791 169.557 83.2129C169.381 83.2949 169.193 83.3359 168.994 83.3359C168.9 83.3359 168.807 83.3242 168.713 83.3008C168.42 83.2422 168.162 83.1016 167.939 82.8789C167.811 82.7617 167.746 82.6152 167.746 82.4395C167.746 82.4043 167.752 82.3633 167.764 82.3164C167.799 82.0938 167.922 81.9355 168.133 81.8418C168.883 81.4902 169.562 81.0918 170.172 80.6465ZM174.338 81.7363C174.162 81.5957 174.074 81.4141 174.074 81.1914C174.074 80.957 174.168 80.7754 174.355 80.6465C174.602 80.4824 174.865 80.4004 175.146 80.4004C175.439 80.4004 175.703 80.4824 175.938 80.6465C176.512 81.0332 177.01 81.3965 177.432 81.7363C177.619 81.8887 177.713 82.0879 177.713 82.334C177.713 82.627 177.602 82.8555 177.379 83.0195H177.361C177.15 83.1719 176.922 83.248 176.676 83.248C176.629 83.248 176.588 83.2422 176.553 83.2305C176.26 83.207 176.002 83.0957 175.779 82.8965C175.369 82.5449 174.889 82.1582 174.338 81.7363ZM179.717 78.168C179.752 77.9336 179.863 77.7402 180.051 77.5879C180.203 77.4824 180.367 77.4297 180.543 77.4297C180.59 77.4297 180.643 77.4297 180.701 77.4297C180.947 77.4766 181.146 77.5996 181.299 77.7988C181.416 77.9629 181.475 78.1445 181.475 78.3438C181.475 78.3906 181.475 78.4375 181.475 78.4844C181.311 79.5977 181.094 80.5645 180.824 81.3848C180.754 81.6074 180.602 81.7598 180.367 81.8418C180.273 81.877 180.174 81.8945 180.068 81.8945C179.939 81.8945 179.816 81.8652 179.699 81.8066C179.477 81.7012 179.318 81.5371 179.225 81.3145C179.178 81.1855 179.154 81.0566 179.154 80.9277C179.154 80.8223 179.166 80.7168 179.189 80.6113C179.412 79.9434 179.588 79.1289 179.717 78.168ZM184.129 78.4492C184.094 78.3555 184.076 78.2617 184.076 78.168C184.076 78.0625 184.105 77.9512 184.164 77.834C184.258 77.6348 184.41 77.5 184.621 77.4297C184.715 77.3945 184.809 77.377 184.902 77.377C185.031 77.377 185.16 77.4062 185.289 77.4648C185.5 77.5586 185.652 77.7168 185.746 77.9395C185.969 78.5137 186.168 79.0996 186.344 79.6973C186.379 79.791 186.396 79.8789 186.396 79.9609C186.396 80.1133 186.355 80.2598 186.273 80.4004C186.156 80.623 185.98 80.7754 185.746 80.8574C185.652 80.8926 185.564 80.9102 185.482 80.9102C185.354 80.9102 185.225 80.875 185.096 80.8047C184.896 80.6875 184.768 80.5117 184.709 80.2773C184.557 79.7148 184.363 79.1055 184.129 78.4492ZM189.49 69.6777C189.479 69.7012 189.479 69.7305 189.49 69.7656C189.514 69.7891 189.543 69.8008 189.578 69.8008H194.553C194.834 69.8008 195.074 69.9004 195.273 70.0996C195.473 70.2988 195.572 70.5332 195.572 70.8027C195.572 73.6738 195.426 76.5098 195.133 79.3105C194.969 80.9512 194.699 82.0059 194.324 82.4746C194.09 82.8027 193.844 83.0312 193.586 83.1602C193.328 83.3008 193 83.4004 192.602 83.459C192.273 83.5176 191.787 83.5469 191.143 83.5469C191.037 83.5469 190.932 83.541 190.826 83.5293C190.533 83.5293 190.275 83.4297 190.053 83.2305C189.83 83.043 189.672 82.7969 189.578 82.4922C189.566 82.4219 189.543 82.3516 189.508 82.2812C189.484 82.1992 189.473 82.123 189.473 82.0527C189.473 81.9238 189.508 81.8008 189.578 81.6836C189.695 81.5078 189.859 81.4199 190.07 81.4199C190.082 81.4199 190.094 81.4199 190.105 81.4199C190.574 81.4434 191.113 81.4551 191.723 81.4551C192.039 81.4551 192.291 81.3555 192.479 81.1562C192.736 80.875 192.941 80.0371 193.094 78.6426C193.246 77.2363 193.375 75.0098 193.48 71.9629C193.48 71.8691 193.434 71.8223 193.34 71.8223H188.646C188.553 71.8223 188.488 71.8633 188.453 71.9453C188.16 72.4609 187.879 72.918 187.609 73.3164C187.445 73.5508 187.223 73.6855 186.941 73.7207C186.883 73.7324 186.83 73.7383 186.783 73.7383C186.561 73.7383 186.35 73.668 186.15 73.5273C185.893 73.3516 185.641 73.1875 185.395 73.0352C185.383 73.0234 185.371 73.0234 185.359 73.0352C185.348 73.0469 185.348 73.0645 185.359 73.0879C185.816 73.9199 186.18 74.7168 186.449 75.4785C186.484 75.584 186.502 75.6895 186.502 75.7949C186.502 75.9238 186.467 76.0527 186.396 76.1816C186.291 76.416 186.121 76.5918 185.887 76.709C185.781 76.7559 185.676 76.7793 185.57 76.7793C185.465 76.7793 185.359 76.7559 185.254 76.709C185.055 76.6035 184.92 76.4395 184.85 76.2168C184.826 76.1465 184.779 76.1172 184.709 76.1289L183.918 76.1816C183.836 76.1816 183.795 76.2285 183.795 76.3223V82.6328C183.795 82.9023 183.701 83.125 183.514 83.3008C183.338 83.4883 183.115 83.582 182.846 83.582C182.588 83.582 182.365 83.4883 182.178 83.3008C181.99 83.125 181.896 82.9023 181.896 82.6328V76.4629C181.896 76.3691 181.855 76.3281 181.773 76.3398L180.174 76.4453C180.15 76.4453 180.127 76.4453 180.104 76.4453C179.869 76.4453 179.664 76.3691 179.488 76.2168C179.289 76.0527 179.178 75.8359 179.154 75.5664C179.154 75.543 179.154 75.5137 179.154 75.4785C179.154 75.2676 179.225 75.0742 179.365 74.8984C179.529 74.7109 179.74 74.6113 179.998 74.5996L180.262 74.582C180.344 74.582 180.414 74.5469 180.473 74.4766C180.73 74.1484 180.953 73.8496 181.141 73.5801C181.199 73.5098 181.199 73.4336 181.141 73.3516C180.777 72.8359 180.297 72.2617 179.699 71.6289C179.512 71.4414 179.406 71.2188 179.383 70.9609C179.383 70.9258 179.383 70.8906 179.383 70.8555C179.383 70.6445 179.441 70.4453 179.559 70.2578L179.787 69.9414C179.857 69.8359 179.957 69.7773 180.086 69.7656C180.227 69.7422 180.35 69.7715 180.455 69.8535C180.49 69.8887 180.514 69.8887 180.525 69.8535C180.889 69.127 181.205 68.418 181.475 67.7266C181.58 67.457 181.756 67.2637 182.002 67.1465C182.143 67.0762 182.283 67.041 182.424 67.041C182.541 67.041 182.652 67.0645 182.758 67.1113C183.004 67.1934 183.18 67.3574 183.285 67.6035C183.32 67.709 183.338 67.8145 183.338 67.9199C183.338 68.0605 183.303 68.1953 183.232 68.3242C182.635 69.4492 182.137 70.3281 181.738 70.9609C181.691 71.0312 181.697 71.1016 181.756 71.1719C181.896 71.3359 182.049 71.5176 182.213 71.7168C182.271 71.7871 182.324 71.7871 182.371 71.7168C182.781 71.084 183.162 70.4336 183.514 69.7656C183.643 69.5195 183.836 69.3438 184.094 69.2383C184.223 69.1914 184.346 69.168 184.463 69.168C184.604 69.168 184.738 69.1973 184.867 69.2559C185.102 69.3496 185.26 69.5195 185.342 69.7656C185.365 69.8594 185.377 69.9473 185.377 70.0293C185.377 70.1816 185.33 70.3281 185.236 70.4688C184.229 71.9922 183.291 73.3047 182.424 74.4062C182.4 74.4297 182.395 74.4531 182.406 74.4766C182.418 74.5 182.441 74.5117 182.477 74.5117L184.023 74.4414C184.059 74.4414 184.082 74.4297 184.094 74.4062C184.105 74.3828 184.105 74.3535 184.094 74.3184C184.035 74.1895 183.977 74.0605 183.918 73.9316C183.859 73.8145 183.83 73.6973 183.83 73.5801C183.83 73.4863 183.842 73.3984 183.865 73.3164C183.936 73.1055 184.076 72.9531 184.287 72.8594L184.832 72.6133C184.973 72.5547 185.078 72.5898 185.148 72.7188C185.16 72.7422 185.172 72.7422 185.184 72.7188C186.285 71.5352 187.176 69.877 187.855 67.7441C187.938 67.4746 188.102 67.2637 188.348 67.1113C188.523 67.0059 188.711 66.9531 188.91 66.9531C188.992 66.9531 189.068 66.959 189.139 66.9707L189.314 67.0059C189.596 67.0645 189.807 67.2168 189.947 67.4629C190.041 67.6035 190.088 67.7559 190.088 67.9199C190.088 68.0137 190.07 68.1133 190.035 68.2188C189.883 68.6875 189.701 69.1738 189.49 69.6777ZM191.072 77.0605C191.143 77.2129 191.178 77.3652 191.178 77.5176C191.178 77.6348 191.16 77.7578 191.125 77.8867C191.02 78.1562 190.832 78.3613 190.562 78.502L190.545 78.5195C190.404 78.5898 190.264 78.625 190.123 78.625C190.018 78.625 189.912 78.6074 189.807 78.5723C189.549 78.4668 189.367 78.291 189.262 78.0449C188.922 77.2832 188.488 76.4863 187.961 75.6543C187.867 75.502 187.82 75.3496 187.82 75.1973C187.82 75.1152 187.832 75.0391 187.855 74.9688C187.914 74.7227 188.055 74.541 188.277 74.4238C188.441 74.3418 188.611 74.3008 188.787 74.3008C188.881 74.3008 188.975 74.3125 189.068 74.3359C189.338 74.3945 189.549 74.541 189.701 74.7754C190.275 75.5957 190.732 76.3574 191.072 77.0605ZM206.066 72.1562C206.348 72.1562 206.588 72.2559 206.787 72.4551C206.998 72.6543 207.104 72.9004 207.104 73.1934V82.6152C207.104 82.9082 206.998 83.1543 206.787 83.3535C206.588 83.5527 206.348 83.6523 206.066 83.6523H202.094C201.824 83.6523 201.596 83.5586 201.408 83.3711C201.221 83.1836 201.127 82.9551 201.127 82.6855C201.127 82.416 201.221 82.1875 201.408 82C201.596 81.8125 201.824 81.7188 202.094 81.7188H204.818C204.912 81.7188 204.959 81.6719 204.959 81.5781V73.1934C204.959 72.9004 205.059 72.6543 205.258 72.4551C205.457 72.2559 205.703 72.1562 205.996 72.1562H206.066Z" fill="#4A5364"/>
</g>
<defs>
<clipPath id="clip0_1970_14597">
<rect width="280" height="360" fill="white"/>
</clipPath>
</defs>
</svg>
